<svg width="533" height="496" viewBox="0 0 533 496" fill="none" xmlns="http://www.w3.org/2000/svg">
<g clip-path="url(#clip0_758_11)">
<path d="M478.698 495.597H11.7912C5.74047 495.597 0.845947 490.699 0.845947 484.644C0.845947 478.589 5.74047 473.691 11.7912 473.691H478.659C484.71 473.691 489.605 478.589 489.605 484.644C489.643 490.699 484.71 495.597 478.698 495.597Z" fill="#C6C6C6"/>
<path d="M482.745 280.666C482.552 280.55 482.359 280.434 482.128 280.319C467.945 272.065 451.258 268.903 435.187 264.931C420.233 261.228 403.43 256.292 391.945 245.377C377.994 232.111 379.921 213.869 385.317 197.285C390.943 179.853 396.262 162.344 393.757 143.832C390.905 122.775 381.424 102.412 366.355 86.5995C342.962 62.0713 306.773 49.0744 272.049 52.7382C225.493 57.6747 187.262 89.8006 158.242 124.587C139.203 147.419 127.949 173.335 106.213 195.01C84.7466 216.453 60.6208 235.736 42.5458 260.033C18.4971 292.351 6.78109 333.579 14.5661 372.415C22.3896 411.252 50.9089 446.694 89.988 460.732C114.885 469.68 142.171 469.834 168.763 469.911C224.029 470.065 279.41 470.181 334.483 466.016C370.749 463.239 407.477 458.457 440.505 444.033C473.534 429.609 502.785 404.31 513.615 371.451C524.444 338.785 513.268 298.869 482.745 280.666Z" fill="#FFBF5C"/>
<path d="M38.5761 203.648C37.6897 200.524 36.1096 197.786 33.8358 195.511C32.6025 194.546 31.3307 193.582 30.0974 192.618C27.2069 190.96 24.1238 190.111 20.7708 190.111H19.8459C17.3023 190.034 14.9514 190.535 12.7161 191.692C10.4422 192.425 8.43818 193.698 6.78098 195.511C4.96962 197.169 3.69782 199.174 2.96557 201.45C1.80938 203.648 1.26983 206.039 1.38545 208.585C1.61668 210.204 1.80938 211.863 2.04062 213.482C2.92703 216.606 4.50715 219.345 6.78098 221.62C8.01425 222.584 9.28605 223.548 10.5193 224.512C13.4098 226.171 16.493 227.019 19.8459 227.019H20.7708C23.3145 227.096 25.6654 226.595 27.9007 225.438C30.1745 224.705 32.1785 223.433 33.8358 221.62C35.6471 219.962 36.9189 217.956 37.6512 215.681C38.8074 213.482 39.3469 211.091 39.2313 208.546C39 206.926 38.8074 205.306 38.5761 203.648Z" fill="#C6C6C6"/>
<path d="M492.958 224.899C514.987 224.899 532.846 207.028 532.846 184.983C532.846 162.938 514.987 145.066 492.958 145.066C470.928 145.066 453.069 162.938 453.069 184.983C453.069 207.028 470.928 224.899 492.958 224.899Z" fill="#81B278"/>
<path d="M343.732 0.867156C341.998 1.21425 340.341 1.71562 338.761 2.37125C338.838 2.48695 338.953 2.60265 339.03 2.75691C340.341 4.8395 339.686 7.57771 337.643 8.85041C335.562 10.1617 332.826 9.50603 331.554 7.46201C331.477 7.30775 331.4 7.15348 331.323 6.99922C330.012 8.15621 328.817 9.39034 327.738 10.7787C327.893 10.8559 328.047 10.8944 328.201 10.9716C330.359 12.1286 331.168 14.7896 330.051 16.9494C328.895 19.1091 326.235 19.919 324.077 18.8005C323.923 18.7234 323.769 18.6077 323.615 18.492C323.037 20.1118 322.651 21.8473 322.42 23.5828C322.613 23.5442 322.767 23.5056 322.959 23.5056C325.387 23.4285 327.469 25.3183 327.546 27.7865C327.623 30.2162 325.734 32.2988 323.268 32.3759C323.037 32.3759 322.844 32.3759 322.651 32.3374C322.998 34.1114 323.499 35.8083 324.154 37.4281C324.308 37.3124 324.463 37.1582 324.655 37.0425C326.736 35.7312 329.473 36.3868 330.744 38.4309C332.055 40.5134 331.4 43.2517 329.357 44.5243C329.164 44.64 328.972 44.7557 328.74 44.8329C329.897 46.1827 331.207 47.4168 332.594 48.4967C332.671 48.3039 332.749 48.0725 332.864 47.8796C334.02 45.7199 336.68 44.91 338.838 46.0284C340.996 47.1854 341.805 49.8465 340.688 52.0062C340.572 52.2376 340.418 52.4305 340.302 52.6233C341.959 53.2018 343.732 53.626 345.505 53.8574C345.467 53.626 345.428 53.3946 345.428 53.1632C345.351 50.7335 347.239 48.651 349.706 48.5738C352.134 48.4967 354.215 50.3864 354.292 52.8547C354.292 53.0861 354.292 53.3561 354.254 53.5875C356.026 53.2404 357.761 52.7004 359.379 52.0448C359.225 51.852 359.071 51.6977 358.955 51.5049C357.645 49.4223 358.3 46.6841 360.343 45.4114C362.424 44.1001 365.16 44.7557 366.432 46.7998C366.548 46.9926 366.663 47.224 366.74 47.4168C368.089 46.2213 369.284 44.9486 370.363 43.5216C370.17 43.4445 369.939 43.3674 369.747 43.2902C367.588 42.1332 366.779 39.4721 367.897 37.3124C369.053 35.1527 371.712 34.3428 373.87 35.4612C374.063 35.5769 374.256 35.6926 374.41 35.8083C374.949 34.15 375.373 32.4145 375.605 30.6404C375.412 30.679 375.219 30.7176 375.026 30.7176C372.598 30.7947 370.517 28.9049 370.44 26.4367C370.363 24.007 372.252 21.9244 374.718 21.8473C374.911 21.8473 375.104 21.8859 375.296 21.8859C374.949 20.1504 374.41 18.4534 373.755 16.8722C373.601 16.9879 373.485 17.1036 373.331 17.2193C371.25 18.5306 368.513 17.8749 367.241 15.8309C365.931 13.7483 366.586 11.0101 368.629 9.73743C368.783 9.6603 368.937 9.58317 369.091 9.50604C367.935 8.19478 366.663 6.99922 365.276 5.95792C365.199 6.11219 365.16 6.26646 365.083 6.42072C363.927 8.58044 361.268 9.39034 359.11 8.27191C356.951 7.11492 356.142 4.45383 357.26 2.29411C357.337 2.13985 357.452 2.02415 357.529 1.86988C355.911 1.32995 354.215 0.944289 352.481 0.712891C352.519 0.867156 352.519 1.02142 352.558 1.17569C352.635 3.60537 350.747 5.68796 348.28 5.76509C345.852 5.84222 343.771 3.95247 343.694 1.48422C343.694 1.17569 343.694 1.02142 343.732 0.867156ZM348.396 11.82C356.874 11.5115 364.004 18.1835 364.312 26.6681C364.621 35.1527 357.953 42.2875 349.475 42.596C340.996 42.9046 333.866 36.2326 333.558 27.748C333.25 19.2633 339.878 12.1286 348.396 11.82Z" fill="#C6C6C6"/>
<path d="M59.4647 159.491C86.986 159.491 109.296 139.013 109.296 113.751C109.296 88.4901 86.986 68.0117 59.4647 68.0117C31.9434 68.0117 9.63306 88.4901 9.63306 113.751C9.63306 139.013 31.9434 159.491 59.4647 159.491Z" fill="#F5F8FC"/>
<path d="M58.2699 114.445L19.422 101.988C17.9189 105.999 17.1096 110.203 17.1096 114.445C17.1096 135.194 35.6857 152.24 58.2699 152.24C65.7465 152.24 73.0305 150.389 79.4281 146.841L58.2699 114.445Z" fill="#28523E"/>
<path d="M60.428 113.752L81.856 145.993C87.8681 142.6 92.8397 137.895 96.3083 132.225C99.7769 126.595 101.588 120.193 101.588 113.752H60.428Z" fill="#009344"/>
<path d="M60.6594 111.939L101.82 111.399C101.743 106.269 100.509 101.179 98.2355 96.4736C95.9616 91.7685 92.6472 87.5647 88.5235 84.0938L60.6594 111.939Z" fill="#FEFEFF"/>
<path d="M178.783 68.9746H163.868V104.803H178.783V68.9746Z" fill="#193326"/>
<path d="M201.83 51.4648H186.915V104.841H201.83V51.4648Z" fill="#193326"/>
<path d="M224.876 27.2461H209.962V104.842H224.876V27.2461Z" fill="#193326"/>
<path d="M247.884 61.1836H232.97V104.841H247.884V61.1836Z" fill="#193326"/>
<path d="M155.891 28.0176V104.495H257.712" stroke="#183A29" stroke-width="0.8763" stroke-miterlimit="10"/>
<path d="M384.739 51.0414C381.347 51.697 378.11 52.6997 374.988 53.9724C375.181 54.2038 375.374 54.4352 375.566 54.7052C378.11 58.7932 376.877 64.154 372.791 66.6993C368.706 69.2447 363.349 68.0106 360.806 63.9226C360.613 63.6526 360.497 63.3441 360.382 63.0355C357.799 65.2724 355.449 67.7792 353.367 70.4789C353.676 70.5946 353.984 70.7103 354.254 70.8645C358.493 73.1014 360.112 78.385 357.838 82.6273C355.603 86.8696 350.323 88.4894 346.083 86.214C345.737 86.0211 345.467 85.8283 345.159 85.5969C344.041 88.7979 343.232 92.1532 342.769 95.6242C343.116 95.547 343.463 95.5085 343.848 95.4699C348.666 95.3156 352.674 99.0566 352.866 103.877C353.021 108.698 349.282 112.709 344.465 112.902C344.041 112.902 343.655 112.863 343.232 112.825C343.887 116.296 344.889 119.612 346.199 122.813C346.507 122.544 346.816 122.274 347.163 122.042C351.248 119.497 356.605 120.731 359.148 124.819C361.692 128.907 360.459 134.268 356.374 136.813C355.988 137.045 355.564 137.237 355.179 137.392C357.491 140.014 360.035 142.444 362.771 144.604C362.925 144.179 363.079 143.755 363.272 143.369C365.507 139.127 370.787 137.507 375.027 139.783C379.266 142.02 380.885 147.303 378.611 151.545C378.38 151.97 378.11 152.355 377.801 152.741C381.077 153.859 384.507 154.669 388.053 155.132C387.976 154.669 387.899 154.245 387.86 153.782C387.706 148.962 391.444 144.951 396.262 144.758C401.079 144.604 405.088 148.344 405.28 153.165C405.28 153.667 405.242 154.129 405.203 154.592C408.71 153.898 412.063 152.857 415.262 151.545C414.954 151.198 414.684 150.851 414.414 150.466C411.87 146.378 413.104 141.017 417.189 138.471C421.274 135.926 426.631 137.16 429.175 141.248C429.406 141.634 429.599 142.058 429.791 142.482C432.412 140.168 434.802 137.584 436.921 134.808C436.536 134.653 436.112 134.538 435.726 134.306C431.487 132.069 429.868 126.786 432.142 122.544C434.378 118.301 439.657 116.681 443.897 118.918C444.282 119.111 444.629 119.381 444.976 119.651C446.055 116.411 446.864 113.018 447.288 109.508C446.903 109.585 446.518 109.662 446.132 109.662C441.315 109.817 437.307 106.076 437.114 101.255C436.96 96.4341 440.698 92.4232 445.516 92.2303C445.901 92.2303 446.286 92.2689 446.672 92.3075C445.978 88.875 444.976 85.5969 443.666 82.4344C443.396 82.6658 443.126 82.8972 442.818 83.0901C438.733 85.6355 433.376 84.4013 430.832 80.3133C428.288 76.2253 429.522 70.8645 433.607 68.3191C433.915 68.1263 434.223 68.0106 434.532 67.8563C432.258 65.311 429.753 62.9584 427.055 60.8758C426.939 61.1844 426.862 61.4543 426.708 61.7629C424.473 66.0052 419.193 67.6249 414.954 65.3495C410.714 63.1127 409.096 57.8291 411.369 53.5868C411.524 53.2782 411.716 53.0468 411.909 52.7769C408.71 51.697 405.396 50.9257 402.004 50.4629C402.043 50.7714 402.12 51.0414 402.12 51.3499C402.274 56.1707 398.536 60.1816 393.718 60.3745C388.901 60.5287 384.893 56.7878 384.7 51.967C384.662 51.6584 384.7 51.3499 384.739 51.0414ZM393.718 67.3164C413.296 66.6222 429.714 81.9331 430.408 101.525C431.102 121.117 415.802 137.546 396.223 138.24C376.645 138.934 360.227 123.623 359.534 104.032C358.84 84.4785 374.14 68.0106 393.718 67.3164Z" fill="#E48700"/>
<path d="M333.635 95.8561C332.556 95.0848 331.246 94.4292 330.822 93.1565C330.166 91.1125 332.325 89.0299 331.785 86.9473C331.323 85.2118 329.28 84.5176 327.507 84.2476C325.734 83.9777 323.692 83.7463 322.69 82.2422C321.842 81.0081 322.035 79.3883 321.842 77.8842C321.456 74.9146 319.144 72.2535 316.254 71.4436C313.17 70.5566 310.473 73.3719 307.929 74.4903C305.116 75.7245 303.42 78.1156 302.765 81.1238C302.148 84.0163 302.611 87.0244 303.227 89.9169C303.844 92.8094 304.692 95.6633 304.923 98.6329C305.154 101.911 304.422 104.804 303.536 107.927C302.919 110.049 302.803 112.98 303.921 114.947C305.039 116.875 307.312 117.762 309.432 118.379C313.556 119.574 317.911 120.23 322.15 119.575C326.158 118.957 330.089 117.106 332.71 113.982C334.56 112.44 336.063 110.473 336.911 108.197C338.491 103.917 337.335 98.5558 333.635 95.8561Z" fill="black"/>
<path d="M312.246 80.9307C312.785 82.7048 312.515 84.7102 311.59 86.33C311.282 86.8699 310.82 87.4099 310.203 87.3713C309.509 87.3327 309.124 86.5614 308.893 85.8672C308.276 84.016 307.891 82.1263 307.736 80.1979C307.659 79.0024 307.852 76.8812 309.548 77.2669C310.858 77.614 311.937 79.8123 312.246 80.9307Z" fill="#183A29"/>
<path d="M312.246 109.932C311.012 114.251 303.96 116.334 299.913 111.359C299.412 110.742 298.949 110.086 298.526 109.469C294.171 110.318 287.657 112.246 284.767 115.756C283.842 116.913 283.379 118.34 282.956 119.766C281.414 124.934 280.181 130.218 279.179 135.502C279.063 136.119 278.947 136.736 279.179 137.314C279.448 138.047 280.104 138.51 280.682 138.973C286.694 143.716 288.274 151.391 290.278 158.333C293.284 168.862 294.672 183.44 297.678 193.968C307.544 194.74 348.627 185.407 353.56 181.049C346.469 168.283 340.726 145.22 338.491 129.215C337.528 122.428 334.868 115.948 332.286 109.585C331.67 108.081 331.13 104.648 330.012 103.684C328.509 102.412 314.211 104.571 312.67 104.61C312.708 105.458 312.747 106.307 312.785 107.155C312.785 108.235 312.515 109.084 312.246 109.932Z" fill="#009344"/>
<path d="M297.601 102.991C297.138 101.487 296.483 100.06 295.674 98.7487C298.14 98.6716 300.414 97.9003 302.418 96.4733C303.381 95.7791 304.268 94.9306 305.116 94.0822C305.424 93.7736 305.887 93.0023 306.349 92.4238C305.694 93.1952 307.313 97.4375 307.621 98.3245C308.276 100.137 309.239 101.95 310.55 103.415C311.86 104.842 312.708 105.112 312.939 107.118C313.171 109.277 312.747 111.63 312.014 113.635C311.552 114.908 310.897 116.142 309.779 116.875C308.469 117.723 306.773 117.685 305.27 117.261C302.726 116.605 299.219 114.484 298.333 111.784C297.87 110.396 298.41 109.663 298.526 108.236C298.603 106.462 298.14 104.649 297.601 102.991Z" fill="#FFC1A6"/>
<path d="M298.487 107.542C298.487 107.388 298.487 107.272 298.487 107.118C298.371 105.729 298.063 104.341 297.639 102.991C297.177 101.487 296.521 100.06 295.712 98.7487C298.179 98.6716 300.453 97.9003 302.457 96.4733C303.42 95.7791 304.306 94.9306 305.154 94.0822C305.463 93.7736 305.925 93.0023 306.388 92.4238C306.465 93.2337 306.58 94.005 306.696 94.7764C306.349 99.79 302.919 105.228 298.487 107.542Z" fill="#E3856D"/>
<path d="M282.223 89.3009C283.187 93.2732 285.499 96.8984 288.698 99.4438C289.584 100.138 290.509 100.755 291.588 101.064C292.668 101.334 293.901 101.218 294.749 100.524C295.982 99.521 296.213 97.7469 296.29 96.1657C296.444 93.1961 296.56 90.1879 296.02 87.2954C295.481 84.3644 294.209 81.5104 292.051 79.505C290.278 77.8466 285.384 75.4555 283.225 77.7309C280.913 80.1992 281.53 86.3312 282.223 89.3009Z" fill="black"/>
<path d="M284.767 82.3197C285.191 79.543 288.351 81.587 290.895 80.43C293.13 79.3887 294.787 78.5017 297.331 78.6945C299.566 78.8488 301.801 79.7358 303.343 81.3556C303.767 81.7798 304.152 82.2426 304.499 82.7054C305.501 84.3638 306.426 86.0607 307.081 87.8347C307.081 87.8733 307.081 87.9119 307.12 87.9504C307.351 91.5371 306.503 94.8924 304.807 97.8234C303.15 100.639 300.221 102.644 296.945 102.567C295.211 102.529 293.515 101.95 291.935 100.639C290.394 99.3275 289.237 97.5535 288.274 95.7794C286.809 93.0412 284.304 85.3665 284.767 82.3197Z" fill="#FFC1A6"/>
<path d="M296.984 87.5644C293.939 86.8316 290.818 86.4074 288.004 85.019C285.962 84.0163 284.073 82.3579 283.187 80.2368C282.262 78.0771 282.878 76.573 284.112 74.6832C285.885 72.0221 288.698 70.0553 291.781 69.2454C294.864 68.4355 298.757 69.631 301.686 70.6723C303.728 71.4051 305.694 72.5235 307.12 74.1819C309.548 77.1129 310.357 82.1265 310.165 85.8289C310.087 87.4101 309.664 88.8371 309.24 90.3026C308.893 91.5367 308.276 92.9251 306.85 93.118C305.887 93.2337 303.921 90.4569 302.919 89.8398C301.339 88.8757 299.566 88.22 297.755 87.7572C297.485 87.6801 297.215 87.603 296.984 87.5644Z" fill="black"/>
<path d="M307.351 87.7188C307.544 89.5314 306.233 91.1126 304.422 91.3054C302.611 91.4983 301.031 90.187 300.838 88.3744C300.645 86.5618 301.956 84.9806 303.767 84.7877C305.54 84.6335 307.158 85.9447 307.351 87.7188Z" fill="#FFC1A6"/>
<path d="M304.576 86.5996C304.114 86.5996 303.613 86.831 303.343 87.2552C303.073 87.6409 303.035 88.1808 303.266 88.6436C303.536 88.3737 303.96 88.258 304.306 88.3737C304.653 88.4894 304.923 88.875 304.923 89.2607" stroke="#485070" stroke-width="0.75" stroke-miterlimit="10" stroke-linecap="round" stroke-linejoin="round"/>
<path d="M383.312 468.1H123.71C117.775 468.1 112.958 463.279 112.958 457.34V311.559C112.958 305.62 117.775 300.799 123.71 300.799H383.312C389.248 300.799 394.065 305.62 394.065 311.559V457.34C394.065 463.279 389.248 468.1 383.312 468.1Z" fill="#81B278" stroke="#485070" stroke-width="0.75" stroke-miterlimit="10"/>
<path d="M414.876 468.332H92.1462C92.1462 475.737 98.1584 481.753 105.558 481.753H401.465C408.864 481.753 414.876 475.737 414.876 468.332Z" fill="#183A29"/>
<path d="M378.919 462.856H128.104C123.479 462.856 119.702 459.076 119.702 454.448V315.802C119.702 311.174 123.479 307.395 128.104 307.395H378.919C383.544 307.395 387.321 311.174 387.321 315.802V454.448C387.321 459.115 383.544 462.856 378.919 462.856Z" fill="#024C27"/>
<path d="M257.25 303.961C257.25 305.118 256.325 306.044 255.169 306.044C254.012 306.044 253.087 305.118 253.087 303.961C253.087 302.804 254.012 301.879 255.169 301.879C256.325 301.879 257.25 302.804 257.25 303.961Z" fill="#333333"/>
<path d="M147.286 149.623L147.286 461.973H359.716V149.623H147.286Z" fill="#FEFEFF"/>
<path d="M273.012 437.168L244.763 401.919L220.175 433.466L198.862 410.403L201.637 407.819L219.905 427.604L244.724 395.825L272.242 430.149L288.236 397.484L321.958 391.506L322.613 395.247L290.779 400.878L273.012 437.168Z" fill="#E6EDFF"/>
<path d="M327.16 393.396C327.16 390.697 324.964 388.537 322.304 388.537C319.607 388.537 317.448 390.735 317.448 393.396C317.448 396.096 319.645 398.256 322.304 398.256C324.964 398.256 327.16 396.096 327.16 393.396Z" fill="#EE910F"/>
<path d="M277.714 433.66C277.714 430.96 275.518 428.801 272.858 428.801C270.161 428.801 268.002 430.999 268.002 433.66C268.002 436.36 270.199 438.52 272.858 438.52C275.518 438.52 277.714 436.36 277.714 433.66Z" fill="#009344"/>
<path d="M293.785 399.182C293.785 396.482 291.588 394.322 288.929 394.322C286.231 394.322 284.073 396.521 284.073 399.182C284.073 401.843 286.27 404.041 288.929 404.041C291.627 404.079 293.785 401.881 293.785 399.182Z" fill="#FDCA00"/>
<path d="M244.532 404.041C247.214 404.041 249.388 401.865 249.388 399.182C249.388 396.498 247.214 394.322 244.532 394.322C241.85 394.322 239.676 396.498 239.676 399.182C239.676 401.865 241.85 404.041 244.532 404.041Z" fill="#E48700"/>
<path d="M220.637 434.816C223.319 434.816 225.493 432.641 225.493 429.957C225.493 427.273 223.319 425.098 220.637 425.098C217.955 425.098 215.781 427.273 215.781 429.957C215.781 432.641 217.955 434.816 220.637 434.816Z" fill="#A7D19E"/>
<path d="M206.185 410.057C206.185 407.357 203.988 405.197 201.329 405.197C198.631 405.197 196.473 407.396 196.473 410.057C196.473 412.756 198.67 414.916 201.329 414.916C203.988 414.916 206.185 412.756 206.185 410.057Z" fill="#183A29"/>
<path d="M179.862 379.242V445.731H328.124" stroke="#485070" stroke-width="0.75" stroke-miterlimit="10"/>
<path d="M214.278 273.107H191.655V325.712H214.278V273.107Z" fill="#FFB861"/>
<path d="M249.272 247.344H226.649V325.672H249.272V247.344Z" fill="#009344"/>
<path d="M187.454 258.027C215.28 245.339 240.254 226.442 260.024 203.07" stroke="#485070" stroke-width="0.75" stroke-miterlimit="10" stroke-linecap="round"/>
<path d="M260.641 202.299L260.14 203.726L259.947 203.109L259.292 202.993L260.641 202.299Z" fill="#485070"/>
<path d="M284.266 211.824H261.643V325.711H284.266V211.824Z" fill="#A7D19E"/>
<path d="M319.221 261.652H296.599V325.711H319.221V261.652Z" fill="#28523E"/>
<path d="M178.359 213.945V325.865H329.55" stroke="#485070" stroke-width="0.75" stroke-miterlimit="10"/>
<path d="M329.318 336.664H177.473V344.3H329.318V336.664Z" fill="#C6C6C6"/>
<path d="M298.834 185.213H207.611V192.849H298.834V185.213Z" fill="#E6EDFF"/>
<path d="M329.164 171.869H177.319V179.505H329.164V171.869Z" fill="#E6EDFF"/>
<path d="M329.318 350.701H177.473V358.337H329.318V350.701Z" fill="#C6C6C6"/>
<path d="M329.318 364.74H177.473V372.376H329.318V364.74Z" fill="#C6C6C6"/>
<path d="M323.538 104.11C321.765 104.534 320.03 105.036 318.258 105.499C317.949 105.576 317.641 105.653 317.41 105.884C317.101 106.154 316.986 106.617 316.909 107.003C315.753 112.556 317.333 119.922 320.917 124.396C321.996 125.746 323.268 126.941 324.463 128.214C325.619 129.487 327.16 130.605 328.201 131.917C329.396 133.459 329.897 135.927 330.475 137.779C331.747 141.982 332.556 146.379 332.826 150.775C333.018 153.707 333.134 157.023 335.408 158.913C337.643 160.764 341.15 160.301 343.463 158.527C345.775 156.753 347.047 153.976 348.049 151.238C350.592 144.142 351.98 136.506 351.594 128.947C351.248 122.082 349.166 113.79 344.696 108.314C341.728 104.65 336.834 103.03 332.132 102.953C329.241 102.953 326.39 103.416 323.538 104.11Z" fill="#009344"/>
<path d="M327.777 145.338C329.396 136.507 331.053 127.636 332.671 118.805" stroke="#485070" stroke-width="0.75" stroke-miterlimit="10"/>
<path d="M329.473 120.463C330.051 121.89 330.59 123.355 331.168 124.782" stroke="#485070" stroke-width="0.75" stroke-miterlimit="10"/>
<path d="M296.175 164.389C296.791 164.158 297.446 164.042 298.14 164.042C304.114 163.926 309.933 163.309 315.984 162.692C320.031 162.268 324.039 162.037 328.085 161.998C331.323 161.96 335.061 162.654 338.221 161.767C341.574 160.841 343.848 159.877 345.505 157.1C346.315 155.75 347.047 154.401 347.702 153.012C348.087 152.202 348.434 151.315 348.28 150.505C348.01 149.31 346.661 148.538 345.351 148.076C342.538 147.034 340.803 145.453 337.605 145.106C334.329 144.759 330.899 145.183 327.623 145.877C321.225 147.227 314.828 147.767 308.546 149.657C301.455 151.778 294.672 154.709 287.966 157.717C285.499 158.836 282.956 159.993 281.183 161.805C278.446 164.621 278.138 168.786 280.489 171.408C281.144 172.18 282.185 172.835 283.379 172.642C284.574 172.45 285.345 170.868 284.343 170.406C290.741 172.912 290.933 166.279 296.175 164.389Z" fill="#FFC1A6"/>
<path d="M275.98 165.431L276.019 165.045C275.903 165.276 275.826 165.546 275.71 165.778C275.787 165.623 275.903 165.546 275.98 165.431Z" fill="#FF6EA1"/>
<path d="M292.745 115.41C292.359 114.715 291.858 114.137 291.087 113.713C289.006 112.479 284.613 114.368 282.724 115.41C282.339 115.641 281.915 115.872 281.53 116.142C279.256 117.569 277.29 119.536 275.556 121.426C274.939 122.082 274.361 122.776 273.783 123.431C265.112 133.459 259.485 144.527 260.911 157.948C261.219 160.841 261.797 163.926 263.917 165.855C265.613 167.397 268.079 167.899 270.353 167.513C272.511 167.127 274.438 165.97 276.057 164.466L275.98 165.006C276.096 164.736 276.211 164.466 276.288 164.235C279.718 160.918 280.528 156.329 281.337 151.816V151.778C284.073 145.106 286.771 138.395 289.507 131.723C290.856 128.561 295.057 119.768 292.745 115.41Z" fill="#009344"/>
<path d="M278.87 214.565C282.609 208.433 275.787 207.43 274.785 201.954C274.67 201.336 274.67 200.642 274.747 199.948C275.71 193.97 276.134 188.108 276.597 182.015C276.905 177.965 277.406 173.916 278.061 169.905C278.524 167.205 279.564 164.197 279.68 161.382C279.603 160.495 279.526 159.569 279.371 158.721C278.254 156.677 276.52 155.018 273.745 154.131C270.469 153.051 266.576 153.9 263.917 156.098C263.223 157.139 262.607 158.258 262.106 159.376C261.412 162.269 261.258 165.354 261.373 168.362C261.605 174.918 260.988 181.359 261.797 187.877C262.684 195.204 264.495 202.339 266.384 209.435C267.077 212.019 267.81 214.68 269.39 216.686C271.779 219.771 276.057 220.581 279.179 218.614C280.065 218.036 280.952 217.11 280.952 215.876C280.99 214.642 279.526 213.639 278.87 214.565Z" fill="#FFC1A6"/>
<path d="M279.372 158.912C281.106 150.89 284.305 143.177 288.737 136.273" stroke="#485070" stroke-width="0.75" stroke-miterlimit="10"/>
<path d="M285.576 141.172C286.655 140.478 287.696 139.784 288.775 139.09" stroke="#485070" stroke-width="0.75" stroke-miterlimit="10"/>
<path d="M95.6919 295.669C100.278 300.914 102.167 307.971 103.708 314.605C105.712 323.167 107.716 331.69 109.759 340.252C110.221 342.257 110.722 344.301 110.761 346.345C110.838 349.662 109.913 353.866 109.142 357.067C108.14 361.155 105.712 360.923 102.051 360.537C96.3085 359.959 88.4464 358.224 84.5925 353.518C82.7426 351.282 82.1645 348.312 81.6249 345.458C80.8927 341.524 80.1604 337.629 79.4282 333.695C76.4221 317.69 73.4545 301.184 76.846 285.256C84.8623 286.413 90.9515 290.269 95.6919 295.669Z" fill="white"/>
<path d="M104.132 346.306C106.676 347.502 109.104 349.083 111.57 350.549C115.463 352.901 119.509 354.559 123.517 356.719C124.635 357.336 125.791 357.953 127.024 358.185C129.144 358.57 131.418 357.76 133.538 358.03C136.428 358.416 138.856 360.961 139.897 364.355C141.631 370.063 137.546 367.942 134.809 367.441C132.69 367.055 130.57 366.669 128.45 366.284C120.126 364.741 112.11 364.008 103.554 363.584C98.9291 363.353 90.7202 363.468 87.2516 359.226C85.5559 357.182 83.706 348.196 85.9027 345.959C86.3266 345.535 86.8277 345.342 87.3287 345.188C91.7993 343.722 96.3469 343.645 100.663 344.995C101.897 345.304 103.014 345.766 104.132 346.306Z" fill="#9C5240"/>
<path d="M101.126 412.256H19.7303C17.071 412.256 14.8743 410.096 14.8743 407.397C14.8743 404.735 17.0325 402.537 19.7303 402.537H101.126C103.785 402.537 105.982 404.697 105.982 407.397C105.943 410.096 103.785 412.256 101.126 412.256Z" fill="#193326"/>
<path d="M11.136 348.39V319.812C11.136 315.492 14.6431 312.021 18.921 312.021H82.5883C86.9048 312.021 90.3733 315.531 90.3733 319.812V348.39C90.3733 352.709 86.8662 356.18 82.5883 356.18H18.921C14.6045 356.18 11.136 352.709 11.136 348.39Z" fill="#193326"/>
<path d="M26.205 349.006H21.272V407.781H26.205V349.006Z" fill="#193326"/>
<path d="M60.351 409.826H55.418V481.251H60.351V409.826Z" fill="#193326"/>
<path d="M23.353 409.826H18.4199V481.251H23.353V409.826Z" fill="#193326"/>
<path d="M102.243 409.826H97.3103V481.251H102.243V409.826Z" fill="#485070"/>
<path d="M77.0002 409.826H72.0671V481.251H77.0002V409.826Z" fill="#193326"/>
<path d="M151.497 434.893C148.722 435.471 146.795 435.625 143.481 436.088C138.702 436.782 133.884 437.322 129.067 437.747C130.339 446.424 131.456 454.06 131.765 455.603C133.036 462.236 132.343 478.897 135.31 485.222C138.933 485.685 142.055 485.068 145.408 484.798C147.18 468.137 148.645 451.438 151.497 434.893Z" fill="#CF9378"/>
<path d="M126.331 449.509C126.331 450.859 126.369 452.248 126.639 453.597C130.454 457.647 136.158 459.691 141.669 459.999C144.907 460.154 147.99 459.652 150.919 458.688C151.266 452.17 151.651 445.691 152.075 439.174C152.615 430.728 153.039 422.243 154.118 413.835C154.58 410.094 155.158 398.987 154.233 391.081C152.075 382.828 146.603 380.553 146.603 380.553C146.603 380.553 131.264 374.498 119.509 371.914C105.095 368.751 90.4504 366.399 75.9595 363.236C68.9838 361.732 57.3449 362.002 53.7222 369.638C49.5599 378.47 57.8459 390.194 64.5518 395.285C71.4504 400.569 80.0062 403.23 88.4849 405.081C100.509 407.703 112.842 408.899 125.136 408.59C124.751 408.59 126.331 446.463 126.331 449.509Z" fill="#E48700"/>
<path d="M125.136 408.668C125.174 408.629 125.175 408.629 125.213 408.59C122.515 405.929 120.01 403.114 117.312 400.453C113.343 396.481 109.45 392.393 105.481 388.42C97.6187 380.514 89.7181 372.608 82.0102 364.509C80.0062 364.085 77.9636 363.661 75.9595 363.236C68.9838 361.732 57.3449 362.002 53.7222 369.638C49.5599 378.47 57.8459 390.194 64.5518 395.285C71.4504 400.569 80.0061 403.23 88.4848 405.081C100.509 407.703 112.842 408.899 125.136 408.59C125.136 408.59 125.136 408.629 125.136 408.668Z" fill="#BC6B00"/>
<path d="M125.251 411.02C125.251 407.163 125.791 402.458 125.791 398.602" stroke="#485070" stroke-width="0.3975" stroke-miterlimit="10"/>
<path d="M135.118 376.889C124.789 373.573 115.385 370.487 100.278 368.443" stroke="#485070" stroke-width="0.75" stroke-miterlimit="10"/>
<path d="M166.527 493.553H134.694C134.039 493.553 133.499 493.014 133.499 492.358V489.967H166.489V493.553H166.527Z" fill="#B3B3B3"/>
<path d="M166.065 490.931C166.181 490.776 166.296 490.583 166.373 490.391C167.183 488.617 166.219 486.495 164.716 485.261C163.175 484.027 161.17 483.449 159.243 482.909C155.081 481.752 151.112 480.633 146.834 480.055C145.716 479.901 133.692 478.782 133.73 478.242C133.538 481.289 133.345 484.297 133.191 487.344C133.114 488.617 132.805 489.851 133.191 490.931H166.065Z" fill="#19120E"/>
<path d="M139.164 475.735C140.976 474.231 143.828 474.231 145.793 475.543C147.759 476.854 148.838 479.322 148.722 481.713C148.684 482.137 148.606 482.639 148.298 482.909C147.951 483.217 147.489 483.217 147.065 483.217C145.176 483.256 143.288 483.256 141.361 483.294C140.166 483.294 138.663 483.564 137.854 482.523C136.428 480.672 137.777 477.162 139.164 475.735Z" fill="#19120E"/>
<path d="M151.69 480.903C150.572 480.787 149.416 481.482 149.031 482.562" stroke="#B3B3B3" stroke-width="0.75" stroke-miterlimit="10" stroke-linecap="round"/>
<path d="M152.384 483.796C152.962 482.831 154.079 482.214 155.197 482.176" stroke="#B3B3B3" stroke-width="0.75" stroke-miterlimit="10" stroke-linecap="round"/>
<path d="M156.546 484.258C156.815 483.564 157.548 483.062 158.28 483.062" stroke="#B3B3B3" stroke-width="0.75" stroke-miterlimit="10" stroke-linecap="round"/>
<path d="M96.7708 430.421C92.5314 431 88.2921 431.501 84.0527 431.887C87.2515 447.699 88.7546 463.781 91.3752 479.709C94.998 479.709 98.2738 478.938 102.089 479.015C102.822 474.194 104.286 445.616 106.56 428.84C102.706 429.765 100.74 429.843 96.7708 430.421Z" fill="#CF9378"/>
<path d="M84.708 452.905C85.5944 456.453 86.5964 458.651 90.1035 460.039C93.1482 461.235 96.4626 461.736 99.6999 461.389C104.055 460.926 107.639 457.725 107.639 457.725C107.639 457.725 112.148 390.234 106.521 381.595C99.6228 371.028 84.5538 368.83 72.8378 366.284C62.5478 364.009 52.1421 362.196 41.7749 360.152C39.2313 369.794 41.0812 381.094 44.7425 389.964C44.7425 390.003 44.781 390.041 44.781 390.118C47.71 397.099 54.3774 401.804 61.8926 402.46C67.4037 402.923 72.9149 403.115 78.4261 402.961C78.3875 402.923 81.5863 440.178 84.708 452.905Z" fill="#E48700"/>
<path d="M78.5417 405.352C78.5417 401.495 79.0813 396.79 79.0813 392.934" stroke="#485070" stroke-width="0.3975" stroke-miterlimit="10"/>
<path d="M123.517 493.014H91.6837C91.0286 493.014 90.489 492.474 90.489 491.819V489.428H123.479V493.014H123.517Z" fill="#B3B3B3"/>
<path d="M123.055 490.431C123.171 490.276 123.286 490.083 123.363 489.891C124.173 488.117 123.209 485.995 121.706 484.761C120.164 483.527 118.16 482.949 116.233 482.409C112.071 481.252 108.102 480.133 103.824 479.555C102.706 479.401 90.6817 478.282 90.7203 477.742C90.5276 480.789 90.3349 483.797 90.1807 486.844C90.1036 488.117 89.7953 489.351 90.1807 490.431H123.055Z" fill="#19120E"/>
<path d="M96.1928 475.235C98.0042 473.731 100.856 473.731 102.822 475.043C104.787 476.354 105.866 478.822 105.751 481.213C105.712 481.637 105.635 482.139 105.327 482.409C104.98 482.717 104.517 482.717 104.093 482.717C102.205 482.756 100.317 482.756 98.3896 482.794C97.1949 482.794 95.6918 483.064 94.8825 482.023C93.4565 480.172 94.8054 476.624 96.1928 475.235Z" fill="#19120E"/>
<path d="M108.718 480.403C107.601 480.287 106.444 480.982 106.059 482.062" stroke="#B3B3B3" stroke-width="0.75" stroke-miterlimit="10" stroke-linecap="round"/>
<path d="M109.412 483.296C109.99 482.331 111.108 481.714 112.225 481.676" stroke="#B3B3B3" stroke-width="0.75" stroke-miterlimit="10" stroke-linecap="round"/>
<path d="M113.574 483.758C113.844 483.064 114.576 482.562 115.308 482.562" stroke="#B3B3B3" stroke-width="0.75" stroke-miterlimit="10" stroke-linecap="round"/>
<path d="M40.3874 373.187C40.6957 374.73 40.9655 376.273 41.2738 377.854C46.6308 375.039 53.0284 375.617 59.0791 375.617C72.3367 375.579 85.5558 372.3 97.2333 366.091C96.5781 362.813 95.8073 359.612 95.8073 356.295C95.8073 352.94 94.3813 349.662 94.3813 346.268C94.1501 341.717 94.3428 337.128 94.574 332.538C94.998 323.9 95.5761 315.145 93.9574 306.66C92.9168 301.145 90.8357 295.708 87.4828 291.157C85.9412 289.074 83.8215 286.374 81.4706 285.179C78.9655 283.906 75.2272 284.33 72.4138 284.099C70.3712 283.906 68.2515 283.752 66.2475 284.099C63.7424 284.523 61.43 285.757 59.2333 287.069C47.5943 294.049 46.1684 305.349 42.6613 317.498C40.927 323.553 38.1521 329.299 36.4179 335.354C35.4544 338.748 35.0304 342.257 35.1075 345.805C35.1846 349.006 36.4179 351.822 36.9959 354.946C38.1136 361 39.2312 367.094 40.3874 373.187Z" fill="white"/>
<path d="M73.3389 295.167C75.4971 297.018 78.349 297.982 81.2009 297.789C82.1644 297.712 83.205 297.519 83.9758 296.902C84.7466 296.285 85.209 295.205 84.8622 294.318" stroke="#485070" stroke-width="0.3975" stroke-miterlimit="10" stroke-linecap="round"/>
<path d="M70.6794 320.582C73.1845 328.874 79.7748 335.816 87.9452 338.747" stroke="#485070" stroke-width="0.3975" stroke-miterlimit="10" stroke-linecap="round"/>
<path d="M78.2334 327.023C80.3531 329.569 83.4748 331.227 86.7506 331.613" stroke="#485070" stroke-width="0.3975" stroke-miterlimit="10" stroke-linecap="round"/>
<path d="M63.3184 326.521C66.3244 335.97 71.6814 344.686 78.8113 351.59" stroke="#485070" stroke-width="0.3975" stroke-miterlimit="10" stroke-linecap="round"/>
<path d="M90.1804 294.705C93.5334 300.451 93.5719 303.768 94.3042 308.82C95.152 314.49 95.5374 320.275 95.4604 326.021C95.3447 335.663 93.1865 344.494 95.3447 354.059" stroke="#485070" stroke-width="0.3975" stroke-miterlimit="10"/>
<path d="M83.1663 282.247C83.6673 280.627 84.3611 279.084 85.2475 277.696C82.6268 277.619 80.1602 276.77 78.002 275.228C76.9615 274.456 75.998 273.569 75.073 272.682C74.7647 272.335 74.2637 271.525 73.7627 270.908C73.2231 276.693 71.0649 282.17 66.1318 285.486C67.789 288.533 70.6024 290.847 73.6085 292.583C76.1907 294.087 82.5882 296.979 82.7424 291.734C82.7809 290.037 82.1258 288.456 82.2414 286.72C82.357 285.178 82.7039 283.674 83.1663 282.247Z" fill="#CF9378"/>
<path d="M82.2416 287.145C82.2416 286.99 82.2416 286.836 82.2416 286.682C82.3572 285.178 82.7041 283.674 83.1665 282.247C83.6675 280.627 84.3613 279.084 85.2477 277.696C82.627 277.619 80.1604 276.77 78.0022 275.228C76.9617 274.456 75.9982 273.569 75.0732 272.682C74.7649 272.335 74.2639 271.525 73.7629 270.908C73.6858 271.757 73.5702 272.605 73.416 273.415C73.7629 278.814 77.4627 284.676 82.2416 287.145Z" fill="#9C5240"/>
<path d="M44.3184 295.668C39.7322 300.913 37.8823 307.971 36.3022 314.566C34.2982 323.128 32.2941 331.651 30.2515 340.212C29.5578 343.182 28.4401 347.232 29.0953 350.24C29.8276 353.518 32.1785 356.565 35.0304 358.3C38.075 360.113 42.6998 360.961 46.0527 359.419C49.3286 357.914 53.0669 356.333 55.4564 353.479C57.3063 351.242 57.8844 348.273 58.4239 345.419C59.1562 341.485 59.8884 337.59 60.6207 333.656C63.6268 317.651 66.5943 301.145 63.2028 285.217C55.1481 286.412 49.0203 290.269 44.3184 295.668Z" fill="white"/>
<path d="M63.3955 311.559C56.7282 313.294 57.3448 321.817 56.7282 327.062C55.8418 334.814 54.3387 342.527 52.2961 350.048" stroke="#485070" stroke-width="0.3975" stroke-miterlimit="10"/>
<path d="M58.3855 315.955C59.1177 313.641 60.5437 311.558 62.4321 310.016" stroke="#485070" stroke-width="0.3975" stroke-miterlimit="10"/>
<path d="M54.4546 347.849C58.0387 348.62 61.5073 349.777 65.0144 350.819C70.5641 352.516 76.2294 353.48 81.8562 354.984C83.4748 355.408 85.0935 355.832 86.7507 355.832C89.6026 355.871 92.3775 354.714 95.2294 354.637C99.0448 354.56 102.783 356.681 104.864 359.843C108.371 365.204 102.552 363.739 98.9292 363.7C96.0773 363.661 93.2253 363.623 90.4119 363.584C79.2355 363.43 68.6756 363.97 57.4606 364.934C51.3714 365.435 40.7345 366.862 35.3389 363.276C32.7182 361.502 28.3633 352.978 30.7913 350.395C31.2537 349.932 31.8704 349.662 32.487 349.392C37.9596 347.194 43.8947 346.422 49.7913 347.039C51.3328 347.232 52.913 347.502 54.4546 347.849Z" fill="#CF9378"/>
<path d="M148.144 379.242H74.2638C73.4545 379.242 72.7607 378.586 72.7607 377.738V377.237C72.7607 376.427 73.4159 375.732 74.2638 375.732H148.106C148.915 375.732 149.609 376.388 149.609 377.237V377.738C149.609 378.586 148.953 379.242 148.144 379.242Z" fill="#C6C6C6"/>
<path d="M157.394 379.243H91.7222L97.426 341.486C97.6187 340.175 98.7364 339.211 100.047 339.211H160.477C162.018 339.211 163.213 340.638 162.982 342.219L157.394 379.243Z" fill="#F1F1F1"/>
<path d="M129.992 362.814C132.397 362.814 134.347 360.863 134.347 358.456C134.347 356.049 132.397 354.098 129.992 354.098C127.587 354.098 125.637 356.049 125.637 358.456C125.637 360.863 127.587 362.814 129.992 362.814Z" fill="white"/>
<path d="M96.1542 258.22C95.4219 255.289 92.2617 257.834 89.4098 256.87C86.9047 256.022 85.0162 255.25 82.357 255.713C80.0061 256.137 77.6937 257.294 76.2292 259.223C75.8438 259.724 75.4584 260.264 75.1501 260.804C74.2637 262.655 73.4544 264.584 72.9534 266.589C72.9534 266.628 72.9534 266.666 72.9534 266.705C73.1075 270.561 74.3793 274.071 76.499 277.002C78.5416 279.856 81.8945 281.63 85.4016 281.206C87.2515 280.974 89.0244 280.164 90.5274 278.583C92.0304 277.002 93.071 274.996 93.9189 272.991C95.1522 269.906 97.0021 261.46 96.1542 258.22Z" fill="#CF9378"/>
<path d="M82.3184 261.113C82.357 260.997 82.357 260.843 82.3955 260.689C82.6653 259.455 82.8965 258.259 83.1663 257.025C86.2495 259.339 89.6024 262.617 93.6105 263.967C96.6166 264.97 100.047 263.851 101.974 261.344C102.32 260.882 102.59 260.419 102.821 259.879C102.937 259.648 103.245 258.683 103.361 258.606C102.282 259.339 100.74 258.799 99.8925 257.835C99.0446 256.871 98.6592 255.559 98.1582 254.364C97.002 251.549 95.075 249.003 92.57 247.268C90.0649 245.532 86.9432 244.645 83.8986 244.992C82.0101 245.224 80.1602 245.956 78.6186 247.113C77.8479 247.692 77.1541 248.348 76.6146 249.119C76.3448 249.466 75.2657 251.433 75.7282 251.819C75.0345 251.24 73.9939 251.279 73.2231 251.741C72.4523 252.204 71.9128 252.976 71.4888 253.747C69.6004 257.064 68.9452 260.997 69.5233 264.738C69.7931 266.397 70.3712 267.862 70.9878 269.443C71.4888 270.716 72.2982 272.143 73.8397 272.182C75.9594 272.22 75.7282 268.634 76.3448 266.782C76.576 266.05 76.5375 265.163 77.3854 264.931C78.2718 264.7 79.6592 266.358 80.3529 265.008C80.5842 264.507 80.4685 263.928 80.3529 263.388C80.2373 262.849 80.1602 262.27 80.4685 261.807C80.5071 261.769 81.5862 261.807 81.7789 261.769C82.1257 261.614 82.2414 261.422 82.3184 261.113Z" fill="#485070"/>
<path d="M77.0385 246.266C75.3813 248.502 75.0344 251.626 76.1906 254.172" stroke="#485070" stroke-width="0.75" stroke-miterlimit="10" stroke-linecap="round"/>
<path d="M71.1807 251.047C72.5295 250.199 74.4951 250.507 75.5356 251.741" stroke="#485070" stroke-width="0.75" stroke-miterlimit="10" stroke-linecap="round"/>
<path d="M72.6836 266.474C72.6836 268.403 74.2637 269.984 76.1907 269.984C78.1177 269.984 79.6978 268.403 79.6978 266.474C79.6978 264.546 78.1177 262.965 76.1907 262.965C74.2252 262.965 72.6836 264.546 72.6836 266.474Z" fill="#CF9378"/>
<path d="M75.497 264.97C75.998 264.893 76.5376 265.124 76.8459 265.51C77.1542 265.895 77.2698 266.474 77.1157 266.975C76.8073 266.705 76.3449 266.628 75.9595 266.821C75.5741 267.014 75.3428 267.438 75.3814 267.824" stroke="#485070" stroke-width="0.75" stroke-miterlimit="10" stroke-linecap="round" stroke-linejoin="round"/>
<path d="M466.635 467.83C466.519 467.368 453.955 469.605 452.568 469.797C452.529 469.836 452.452 469.874 452.414 469.913C448.059 473.615 442.548 475.621 437.152 477.588C436.304 477.896 435.456 478.205 434.878 478.899C432.412 481.791 437.615 483.026 439.465 483.18C442.471 483.45 445.477 482.833 448.406 482.293C454.456 481.213 460.623 481.56 466.635 480.095C466.866 480.017 467.136 479.979 467.252 479.786C467.367 479.632 467.367 479.439 467.406 479.246C467.753 475.428 467.483 471.571 466.635 467.83Z" fill="#19120E"/>
<path d="M439.118 379.397C442.162 409.671 447.674 440.717 451.142 470.953C458.233 471.57 460.816 471.108 467.676 469.951C472.185 437.053 474.112 421.164 470.027 387.804C469.603 384.372 469.95 356.025 469.834 352.362C469.102 330.687 471.992 305.928 459.004 287.609C455.728 282.981 450.333 279.432 444.86 279.857C440.852 280.165 437.769 282.364 435.456 285.487C428.712 294.628 432.489 319.426 433.684 330.263C435.264 344.61 437.653 364.973 439.118 379.397Z" fill="#757E96"/>
<path d="M441.237 398.218C442.471 392.973 443.974 387.766 445.438 382.599C450.603 364.472 452.761 345.806 455.343 327.179C455.96 322.743 456.576 318.347 456.499 313.873C456.422 309.361 455.805 304.81 455.459 300.259C454.958 294.089 454.341 287.918 452.915 281.902C450.448 280.436 447.674 279.588 444.86 279.819C440.852 280.128 437.769 282.326 435.456 285.45C428.712 294.59 432.489 319.388 433.684 330.225C435.264 344.572 437.653 364.935 439.118 379.359C439.734 385.568 440.467 391.854 441.237 398.218Z" fill="#545D78"/>
<path d="M418.152 472.033C418.037 472.033 417.882 472.033 417.767 472.071C413.72 472.573 409.635 472.534 405.627 471.994C405.126 471.917 404.586 471.84 404.085 471.955C403.623 472.071 403.237 472.303 402.814 472.573C399.037 474.848 394.874 476.468 390.519 477.278C388.014 477.74 385.355 478.01 383.351 479.592C382.426 480.324 381.694 481.713 382.426 482.677C382.657 482.985 383.043 483.217 383.39 483.371C387.166 485.145 392.87 484.451 396.917 484.22C403.469 483.872 409.982 484.258 416.457 482.947C416.726 482.908 416.996 482.831 417.189 482.638C417.497 482.407 417.574 482.021 417.69 481.636C418.114 479.862 418.461 478.01 418.653 476.198C418.73 475.465 419.154 472.881 418.653 472.264C418.576 472.071 418.383 472.033 418.152 472.033Z" fill="#19120E"/>
<path d="M434.223 284.022C419.308 283.791 414.761 299.372 412.949 311.327C409.211 336.627 406.552 362.119 405.049 387.65C404.317 400.338 403.314 411.098 402.891 423.825C402.428 436.899 401.734 459.499 402.312 472.458C402.312 472.728 402.351 472.998 402.505 473.19C402.698 473.422 403.006 473.46 403.315 473.499C408.787 474.077 414.298 474.155 419.771 473.73C420.041 473.692 420.31 473.692 420.503 473.537C420.734 473.383 418.615 472.535 418.73 472.265C422.931 459.306 425.783 436.128 427.132 422.553C429.868 394.206 435.765 366.631 446.325 340.483C456.885 315.762 462.858 284.485 434.223 284.022Z" fill="#757E96"/>
<path d="M440.312 355.832C446.286 341.524 451.45 326.869 455.69 311.982" stroke="#485070" stroke-width="0.75" stroke-miterlimit="10"/>
<path d="M437.152 317.576C437.191 317.576 437.229 317.576 437.306 317.614C438.655 317.846 440.043 318.039 441.392 318.193C442.394 318.309 443.396 318.424 444.398 318.501C444.745 318.54 445.053 318.578 445.4 318.578C446.248 318.656 447.095 318.694 447.943 318.771C448.406 318.81 448.907 318.81 449.369 318.848C449.755 318.848 450.102 318.887 450.487 318.887C456.923 319.08 463.398 318.656 469.718 317.537C468.755 306.083 466.288 295.092 459.621 285.72C456.345 281.092 450.949 277.544 445.477 277.968C441.469 278.277 438.386 280.475 436.073 283.599C435.572 284.293 435.148 285.064 434.763 285.913C421.814 285.604 416.071 298.678 413.181 309.708C416.11 311.482 419.308 312.832 422.469 313.951C427.248 315.609 432.181 316.766 437.152 317.576Z" fill="#545D78"/>
<path d="M443.627 202.647C443.704 200.951 443.588 199.292 443.28 197.634C445.785 198.482 448.367 198.521 450.911 197.865C452.144 197.518 453.377 197.017 454.533 196.477C454.957 196.284 455.69 195.667 456.383 195.281C454.88 200.912 454.996 206.774 458.465 211.595C455.844 213.87 452.414 215.027 448.984 215.644C446.055 216.146 439.041 216.608 440.698 211.672C441.237 210.052 442.432 208.818 442.895 207.121C443.357 205.656 443.55 204.152 443.627 202.647Z" fill="#F7B699"/>
<path d="M450.448 197.98C448.059 198.52 445.631 198.443 443.28 197.633C443.588 199.253 443.704 200.95 443.627 202.646C443.55 204.151 443.357 205.655 442.933 207.12C442.895 207.274 442.856 207.429 442.779 207.544C443.087 207.506 443.357 207.467 443.665 207.39C446.98 205.153 449.254 201.759 450.448 197.98Z" fill="#C46E58"/>
<path d="M439.811 175.574C441.546 173.106 443.588 176.577 446.633 176.654C449.254 176.731 451.296 176.654 453.647 178.043C455.728 179.238 457.463 181.166 458.156 183.48C458.349 184.097 458.503 184.715 458.619 185.332C458.773 187.376 458.889 189.458 458.657 191.502C458.657 191.541 458.619 191.579 458.619 191.618C457.154 195.166 454.726 198.02 451.72 200.025C448.791 201.992 445.053 202.494 441.931 200.874C440.274 200.025 438.925 198.637 438.039 196.632C437.191 194.626 436.921 192.389 436.805 190.23C436.69 186.874 437.923 178.312 439.811 175.574Z" fill="#F7B699"/>
<path d="M443.242 181.358C440.891 181.705 438.964 182.091 436.805 180.818C435.148 179.854 433.915 178.273 433.337 176.46C433.183 175.92 433.106 175.381 433.029 174.802C432.99 174.532 433.067 173.529 432.99 173.414C433.722 174.494 435.379 174.532 436.497 173.915C437.653 173.298 438.463 172.218 439.349 171.293C441.43 169.056 444.089 167.32 447.057 166.587C450.025 165.855 453.262 166.086 455.96 167.513C457.655 168.4 459.12 169.711 460.16 171.331C460.661 172.141 461.085 173.028 461.355 173.915C461.471 174.339 461.818 176.576 461.278 176.769C462.126 176.46 463.089 176.885 463.668 177.579C464.246 178.273 464.477 179.16 464.592 180.047C465.055 182.785 464.67 186.333 463.513 188.879C462.588 190.884 461.625 193.083 460.507 195.011C459.544 196.669 458.195 198.173 456.461 199.022C454.264 200.102 451.72 200.025 449.292 199.87C447.057 199.755 445.323 198.945 444.436 196.785C444.012 195.821 443.897 194.625 443.82 193.584C443.781 193.121 443.588 189.959 443.935 189.766C443.473 189.997 443.01 190.229 442.471 190.267C441.97 190.306 441.392 190.113 441.16 189.65C440.929 189.226 441.083 188.686 441.237 188.223C441.854 185.948 442.548 183.634 443.242 181.358Z" fill="#0A140F"/>
<path d="M461.895 171.061C462.666 173.722 461.895 176.807 459.968 178.774" stroke="black" stroke-width="0.75" stroke-miterlimit="10" stroke-linecap="round"/>
<path d="M465.749 177.578C464.785 176.306 462.82 175.92 461.432 176.691" stroke="black" stroke-width="0.75" stroke-miterlimit="10" stroke-linecap="round"/>
<path d="M448.83 191.539C448.136 193.352 446.132 194.277 444.321 193.622C442.509 192.928 441.584 190.922 442.239 189.11C442.933 187.297 444.937 186.371 446.749 187.027C448.56 187.683 449.485 189.688 448.83 191.539Z" fill="#F7B699"/>
<path d="M446.71 189.11C446.248 188.879 445.669 188.879 445.245 189.149C444.822 189.419 444.513 189.92 444.513 190.422C444.899 190.267 445.361 190.383 445.631 190.653C445.901 190.962 445.978 191.424 445.824 191.81" stroke="#485070" stroke-width="0.75" stroke-miterlimit="10" stroke-linecap="round" stroke-linejoin="round"/>
<path d="M400 231.456C400.193 230.376 401.041 229.412 402.081 229.026C403.16 228.641 405.01 228.641 405.357 227.561C405.55 227.021 405.704 226.828 405.28 226.442C404.856 226.057 404.239 225.902 403.7 225.864C401.927 225.748 400.154 226.751 399.306 228.293C399.037 228.756 398.69 229.412 398.15 229.258C397.919 229.18 397.726 228.949 397.649 228.718C397.033 227.291 397.88 225.671 398.69 224.36C399.345 223.318 400.039 222.238 401.079 221.621C402.274 220.927 403.738 220.966 405.126 221.082C407.901 221.274 410.83 221.467 413.142 223.126C413.759 223.55 414.337 224.051 414.915 224.514C416.495 225.632 418.345 226.249 420.195 226.866C419.617 228.833 419.039 230.839 418.461 232.806C418.422 232.921 418.383 233.037 418.306 233.076C418.229 233.153 418.075 233.114 417.96 233.076C414.607 232.266 410.714 231.572 407.323 231.032C404.933 230.723 402.39 231.032 400 231.456Z" fill="#F7B699"/>
<path d="M418.537 222.432C415.454 226.327 413.797 231.302 413.951 236.277C416.109 237.125 418.268 238.012 420.464 238.861C421.197 235.429 421.967 231.996 422.7 228.564C422.931 227.522 423.856 225.324 423.239 224.476C422.584 223.55 419.578 222.856 418.537 222.432Z" fill="white"/>
<path d="M440.852 230.569C439.079 229.489 437.191 228.486 435.264 227.638C431.911 226.134 428.404 224.899 425.051 223.742C423.779 223.318 422.43 222.817 421.12 222.547C417.459 226.442 416.187 233.076 416.611 238.629C420.465 242.023 426.091 243.99 430.331 246.651C432.72 248.155 435.071 249.698 437.692 250.739C440.312 251.78 443.241 252.243 445.939 251.433C447.365 251.009 448.753 250.199 449.369 248.888C449.755 248.078 449.793 247.114 449.793 246.188C449.639 239.902 446.17 233.847 440.852 230.569Z" fill="#545D78"/>
<path d="M377.416 252.205C375.951 249.621 375.643 246.42 376.684 243.681C377.069 242.679 377.724 241.637 378.765 241.329C379.998 240.943 381.385 241.676 382.156 242.717C382.927 243.759 383.312 245.07 383.813 246.265C384.353 247.577 385.085 248.811 385.933 249.929C386.82 251.086 387.899 252.243 388.168 253.67C388.361 254.827 387.976 256.061 387.128 256.871C384.122 259.956 378.919 254.866 377.416 252.205Z" fill="#F7B699"/>
<path d="M412.217 250.352L393.564 259.415L368.86 236.969L387.513 227.906L412.217 250.352Z" fill="#F4AE2D"/>
<path d="M409.172 249.428L393.14 257.18L371.789 237.781L387.822 230.029L409.172 249.428Z" fill="white"/>
<path d="M390.25 234.116L376.953 240.595L375.643 239.4L388.978 232.959L390.25 234.116Z" fill="#C8DDF7"/>
<path d="M397.071 240.326L383.736 246.767L382.465 245.61L395.761 239.131L397.071 240.326Z" fill="#C8DDF7"/>
<path d="M399.345 242.369L386.01 248.81L384.7 247.653L398.035 241.174L399.345 242.369Z" fill="#C8DDF7"/>
<path d="M401.58 244.414L388.245 250.855L386.974 249.698L400.27 243.219L401.58 244.414Z" fill="#C8DDF7"/>
<path d="M403.854 246.457L390.519 252.936L389.209 251.741L402.544 245.262L403.854 246.457Z" fill="#C8DDF7"/>
<path d="M406.089 248.502L392.755 254.981L391.483 253.786L404.818 247.307L406.089 248.502Z" fill="#C8DDF7"/>
<path d="M387.051 231.841L375.836 237.279L371.057 232.959L382.272 227.521L387.051 231.841Z" fill="#485070"/>
<path d="M379.343 250.16C379.15 250.392 378.996 250.623 378.842 250.855C377.416 253.13 380.152 255.251 381.886 256.447C385.817 259.223 390.673 260.573 395.221 261.885C397.803 262.656 405.28 260.805 403.237 256.717C401.811 253.94 397.649 252.359 394.913 251.587C392.061 251.047 389.633 249.852 388.554 246.959C388.091 245.687 387.899 244.298 387.475 242.987C387.359 242.678 387.243 242.331 387.012 242.1C386.781 241.869 386.357 241.791 386.087 241.984C385.933 242.1 385.856 242.293 385.779 242.486C384.97 244.723 386.395 246.381 383.659 247.692C382.734 248.116 381.732 248.348 380.846 248.849C380.306 249.235 379.767 249.659 379.343 250.16Z" fill="#F7B699"/>
<path d="M393.101 247.73C390.442 251.934 389.325 257.064 390.018 262C392.254 262.617 394.527 263.234 396.763 263.89C397.148 260.38 397.495 256.909 397.88 253.4C397.996 252.358 398.651 250.083 397.996 249.273C397.264 248.425 394.181 248.078 393.101 247.73Z" fill="white"/>
<path d="M439.311 207.043C440.621 205.848 442.548 205.655 444.282 205.462C448.83 205.038 453.416 204.614 457.964 204.189C458.812 207.236 459.698 210.283 460.546 213.368C460.507 213.253 445.747 213.831 444.359 213.792C442.895 213.754 438.077 214.217 437.461 212.828C436.767 211.286 438.154 208.085 439.311 207.043Z" fill="white"/>
<path d="M469.294 283.173C469.294 278.314 469.564 273.455 469.872 268.595C470.258 262.27 470.759 255.945 470.836 249.621C470.951 241.946 470.643 233.847 469.256 226.095C468.909 224.167 468.523 222.238 468.022 220.387C467.907 220.002 467.83 219.577 467.714 219.192C466.249 215.682 463.513 211.054 459.813 209.01C459.197 208.972 458.58 209.01 457.963 209.049C453.724 209.319 449.523 209.781 445.361 210.437C442.471 210.9 440.428 211.247 438.308 213.445C432.913 219.076 427.825 231.687 426.438 239.439C425.089 246.844 425.629 247.268 424.858 254.75C423.933 263.659 422.661 272.49 420.965 281.284C419.539 288.688 417.458 296.71 411.292 301.107C421.466 305.388 431.795 309.707 442.702 311.404C453.608 313.101 465.363 311.982 474.651 305.966C470.335 299.178 469.256 291.234 469.294 283.173Z" fill="#757E96"/>
<path d="M444.089 233.114C443.665 232.305 443.164 231.495 442.394 230.993C441.584 230.453 440.544 230.299 439.58 230.338C435.302 230.53 431.911 234.001 429.637 237.627C427.363 241.252 425.59 245.34 422.353 248.117C416.688 252.976 403.006 249.004 396.647 247.577C391.791 252.321 391.29 257.797 393.795 264.16C402.312 267.901 420.233 276.772 429.521 272.375C432.759 270.832 435.187 268.133 437.152 265.125C438.308 263.351 439.31 261.499 440.274 259.648C442.394 255.522 444.436 251.279 445.4 246.728C446.402 242.139 446.209 237.241 444.089 233.114Z" fill="#757E96"/>
<path d="M447.866 217.725C445.014 214.717 440.158 214.37 436.728 216.53C434.724 217.803 433.722 220.387 432.682 222.431C431.41 224.937 430.331 227.56 429.444 230.26C428.519 233.036 427.826 235.89 426.978 238.667C425.59 243.256 423.74 247.692 422.7 252.358C421.659 257.025 421.428 262.038 423.162 266.473C425.667 272.837 434.03 269.443 437.769 265.933C440.968 262.887 442.509 258.529 443.935 254.325C445.361 250.121 446.787 245.918 448.252 241.714C449.446 238.166 450.834 233.461 451.103 228.91C451.373 224.706 450.602 220.618 447.866 217.725Z" fill="#757E96"/>
<path d="M425.243 244.104C427.247 234.771 430.716 225.785 435.572 217.57" stroke="#485070" stroke-width="0.75" stroke-miterlimit="10"/>
<path d="M450.757 236.121C448.907 241.058 447.096 245.994 445.246 250.931C443.935 254.479 442.663 259.03 440.197 261.922C437.692 264.853 435.379 268.016 432.335 270.407C429.367 272.721 425.629 274.302 421.891 273.955" stroke="#485070" stroke-width="0.75" stroke-miterlimit="10"/>
<path d="M452.761 237.434C451.103 238.359 449.716 239.786 448.83 241.445" stroke="#485070" stroke-width="0.75" stroke-miterlimit="10"/>
<path d="M395.26 235.273L393.063 236.469L394.181 234.232L407.438 220.464C407.747 220.155 408.209 220.155 408.517 220.464C408.826 220.772 408.826 221.235 408.517 221.544L395.26 235.273Z" fill="#485070"/>
</g>
<defs>
<clipPath id="clip0_758_11">
<rect width="532" height="495" fill="white" transform="translate(0.845947 0.597656)"/>
</clipPath>
</defs>
</svg>
