<svg width="1440" height="535" viewBox="0 0 1440 535" fill="none" xmlns="http://www.w3.org/2000/svg">
<path opacity="0.94" d="M147.959 309.376C238.537 274.939 318.636 215.799 407.218 175.873C430.923 165.143 455.376 155.91 480.329 148.673C527.989 134.699 577.395 128.211 626.552 133.202C828.669 153.664 982.877 359.533 1185.74 368.017C1287.3 372.509 1381.62 326.594 1469.95 271.196V412.435C1352.43 467.083 1213.94 475.069 1094.17 424.912C1030.04 397.962 972.397 357.037 917.75 312.62C872.336 275.688 828.419 236.261 777.266 209.061C726.113 181.862 665.478 167.638 610.582 185.355C574.151 197.084 543.709 221.289 516.261 249.237C501.788 263.96 488.314 279.681 475.339 295.401C454.877 319.856 433.668 345.309 405.97 360.281C352.322 389.228 287.944 373.756 227.558 375.753C123.505 379.246 24.6927 443.128 -29.9537 534.708V331.085C28.1861 341.067 91.8155 330.836 147.959 309.376Z" fill="#006838"/>
<path opacity="0.72" d="M450.311 121.326C424.006 119.759 396.942 143.513 396.942 143.513C364.697 169.032 339.256 164.25 321.883 153.87C291.984 135.69 290.426 91.891 319 65.8318C319.455 65.5086 319.689 65.0681 320.144 64.7449C356.127 32.7359 410.98 31.1268 460.688 60.4191C510.294 89.3738 477.395 123.025 450.311 121.326Z" fill="#007C3A"/>
<path d="M1317.58 194.359C1246.4 212.576 1169.92 225.303 1100 202.095C1051.79 186.124 1009.64 153.683 959.911 142.454C938.708 137.713 917.253 136.964 895.798 138.96C849.354 143.702 803.163 161.918 760.505 182.381C698.159 212.077 635.561 246.764 566.652 251.006C517.937 254.001 469.473 241.523 422.525 227.549C340.995 203.343 260.981 174.645 182.985 141.456C129.474 118.747 76.2145 93.7926 18.9168 83.0622C-12.3824 77.0731 -45.7008 76.0749 -77 81.8144V516.522C-23.7409 522.761 32.0423 509.285 73.4379 475.347C129.474 429.68 160.52 353.32 227.662 326.119C264.01 311.396 305.153 313.891 344.277 318.383C410.661 326.119 476.289 338.347 540.906 355.566C596.942 370.538 652.725 389.005 710.275 395.493C768.078 401.981 829.666 395.493 878.129 363.801C901.351 348.578 921.544 327.866 941.737 307.902C974.551 275.462 1007.11 244.767 1051.79 241.773C1079.55 239.777 1106.82 249.758 1133.07 258.992C1231.76 294.427 1336.01 326.119 1440 334.354V163.665C1399.11 171.9 1358.22 183.878 1317.58 194.359Z" fill="#009345"/>
<path d="M1281.28 193.673C1167.7 219.898 1064.44 277.344 955.392 318.555C846.342 359.765 722.936 383.743 614.39 341.533C562.005 321.052 516.925 286.585 468.066 258.861C419.207 231.138 362.793 210.158 307.639 220.398C218.736 236.882 161.567 328.046 74.931 353.771C21.0355 369.756 -33.8674 358.267 -86 335.289L-84.7408 395.731C-10.9492 402.225 64.8571 386.24 128.323 348.027C189.522 311.062 246.943 252.867 318.216 258.362C351.208 260.859 381.43 277.344 409.889 294.328C460.007 324.299 508.11 357.518 554.198 393.234C584.42 416.711 614.894 442.187 651.915 452.927C694.729 465.415 740.818 456.673 783.632 444.435C885.882 414.713 980.577 364.011 1081.57 330.044C1182.56 296.076 1295.39 279.592 1394.11 319.054C1412.75 326.547 1430.38 335.788 1447 346.278L1443.47 184.432C1390.08 177.439 1333.67 181.435 1281.28 193.673Z" fill="#FECB00"/>
<path opacity="0.72" d="M907.375 426.585C926.846 426.754 945.639 408.298 945.639 408.298C968.158 388.318 987.121 390.689 1000.33 397.8C1023.02 409.991 1025.89 442.162 1005.91 462.311C1005.58 462.65 1005.41 462.819 1005.07 463.158C979.84 488.048 939.713 491.265 902.126 471.962C864.708 452.491 887.565 426.415 907.375 426.585Z" fill="#007C3A"/>
</svg>
