<svg width="1440" height="446" viewBox="0 0 1440 446" fill="none" xmlns="http://www.w3.org/2000/svg">
<path d="M1330.46 121.844C1260.09 140.06 1184.48 152.787 1115.36 129.58C1067.7 113.609 1026.03 81.1695 976.877 69.9403C955.917 65.1991 934.707 64.4505 913.497 66.4468C867.584 71.188 821.921 89.4043 779.751 109.866C718.117 139.561 656.235 174.247 588.114 178.489C539.955 181.484 492.046 169.007 445.634 155.033C365.036 130.828 285.936 102.131 208.833 68.9422C155.933 46.2343 103.283 21.2805 46.6399 10.5504C15.6985 4.56145 -17.2391 3.5633 -48.1804 9.30267V443.997C4.4698 450.236 59.6153 436.761 100.538 402.824C155.933 357.158 186.625 280.8 252.999 253.6C288.931 238.877 329.604 241.373 368.28 245.864C433.906 253.6 498.783 265.827 562.662 283.046C618.057 298.018 673.202 316.484 730.095 322.972C787.236 329.46 848.121 322.972 896.03 291.28C918.987 276.059 938.949 255.347 958.911 235.384C991.35 202.944 1023.54 172.251 1067.7 169.256C1095.15 167.26 1122.1 177.242 1148.05 186.474C1245.62 221.909 1348.67 253.6 1451.48 261.835V91.1511C1411.05 99.3858 1370.63 111.364 1330.46 121.844Z" fill="#009345"/>
<path opacity="0.88" d="M976.877 69.9403C955.917 65.1991 934.707 64.4505 913.497 66.4468C867.584 71.188 821.921 89.4043 779.75 109.866C718.117 139.561 656.235 174.247 588.114 178.489C539.955 181.484 492.046 169.007 445.634 155.033C365.036 130.828 285.936 102.131 208.832 68.9422C155.933 46.2343 103.283 21.2805 46.6399 10.5504C15.6985 4.56145 -17.2391 3.5633 -48.1804 9.30267V443.997C4.4698 450.236 59.6153 436.761 100.538 402.824C155.933 357.158 186.625 280.8 252.999 253.6C288.931 238.877 329.604 241.373 368.28 245.864C433.906 253.6 498.783 265.827 562.662 283.046C618.057 298.018 673.202 316.484 730.095 322.972C787.236 329.46 848.121 322.972 896.03 291.28C918.987 276.059 938.949 255.347 958.911 235.384C983.614 210.68 1008.57 186.724 1038.51 175.495L1040.51 94.6446C1020.05 84.6631 999.334 75.1806 976.877 69.9403Z" fill="#009345"/>
<path d="M1303.26 75.9294C1190.72 102.131 1088.42 159.525 980.37 200.698C872.325 241.872 750.057 265.828 642.511 223.656C590.609 203.194 545.944 168.757 497.536 141.059C449.127 113.36 393.233 92.3989 338.587 102.63C250.504 119.099 193.861 210.181 108.024 235.883C54.6249 251.854 0.228039 240.375 -51.4241 217.417L-50.1764 277.806C22.935 284.294 98.0426 268.323 160.923 230.144C221.559 193.212 278.451 135.07 349.067 140.56C381.755 143.055 411.698 159.525 439.895 176.493C489.551 206.438 537.21 239.626 582.874 275.31C612.817 298.767 643.01 324.22 679.69 334.95C722.11 347.427 767.773 338.693 810.193 326.465C911.501 296.77 1005.32 246.114 1105.38 212.177C1205.44 178.24 1317.23 161.77 1415.05 201.197C1433.51 208.684 1450.98 217.916 1467.45 228.397L1463.95 66.6965C1411.05 59.7094 1355.16 63.702 1303.26 75.9294Z" fill="#FECB00"/>
<path d="M1303.26 75.9294C1190.72 102.131 1088.42 159.525 980.37 200.698C913.996 225.902 842.382 244.866 772.015 245.615L779.002 334.201C789.482 331.955 799.713 329.21 809.943 326.216C911.251 296.521 1005.07 245.865 1105.13 211.927C1205.19 177.99 1316.98 161.521 1414.8 200.948C1433.26 208.434 1450.73 217.667 1467.2 228.147L1463.95 66.6965C1411.05 59.7094 1355.16 63.702 1303.26 75.9294Z" fill="#FECB00"/>
<path opacity="0.72" d="M836.892 182.981C815.433 168.009 780 173.998 780 173.998C739.577 178.988 720.113 161.77 710.881 143.804C694.911 112.611 716.371 74.6816 754.049 67.445C754.548 67.445 755.047 67.1955 755.546 67.1955C802.957 58.7112 850.117 85.9108 877.066 136.317C904.264 186.974 858.851 198.452 836.892 182.981Z" fill="#007C3A"/>
<path d="M1330.46 121.844C1260.09 140.061 1184.48 152.787 1115.36 129.58C1089.41 120.846 1065.21 107.371 1040.76 94.8942L1038.76 175.744C1047.99 172.251 1057.72 170.005 1067.95 169.256C1095.4 167.26 1122.35 177.242 1148.3 186.475C1245.87 221.909 1348.92 253.6 1451.73 261.835V91.1511C1411.05 99.3859 1370.63 111.364 1330.46 121.844Z" fill="#009345"/>
<path opacity="0.94" d="M1269.82 177.99C1179.24 143.554 1099.15 84.4137 1010.56 44.4877C986.858 33.7575 962.404 24.5247 937.452 17.2881C889.792 3.31394 840.386 -3.17405 791.229 1.81671C589.112 22.2788 434.904 228.148 232.039 236.632C130.481 241.123 36.1597 195.209 -52.1729 139.811V281.049C65.3544 335.698 203.842 343.684 323.615 293.526C387.743 266.576 445.384 225.652 500.031 181.234C545.445 144.303 589.361 104.876 640.514 77.6762C691.667 50.4766 752.302 36.2529 807.198 53.9701C843.629 65.6984 874.072 89.9035 901.52 117.852C915.992 132.575 929.467 148.295 942.442 164.016C962.903 188.471 984.113 213.924 1011.81 228.896C1065.46 257.842 1129.84 242.371 1190.22 244.367C1294.28 247.861 1393.09 311.743 1447.73 403.323V199.7C1389.59 209.682 1325.97 199.451 1269.82 177.99Z" fill="#006838"/>
<path d="M108.024 235.633C54.6249 251.604 0.228039 240.125 -51.4241 217.168L-50.1764 277.556C22.935 284.044 98.0426 268.073 160.923 229.894C182.882 216.419 204.591 200.199 226.549 185.227L225.551 163.767C188.371 192.214 151.941 222.408 108.024 235.633Z" fill="#FECB00"/>
<path opacity="0.72" d="M14.9502 136.817C43.6458 137.066 71.3433 109.866 71.3433 109.866C104.53 80.421 132.477 83.9145 151.941 94.3951C185.377 112.362 189.619 159.774 160.175 189.469C159.676 189.968 159.426 190.218 158.927 190.717C121.748 227.399 62.6098 232.14 7.21484 203.693C-47.9306 174.996 -14.2445 136.567 14.9502 136.817Z" fill="#007C3A"/>
<path opacity="0.72" d="M1448.23 309.996C1437.25 286.04 1403.57 273.314 1403.57 273.314C1365.89 256.844 1358.15 232.14 1359.15 211.927C1361.15 176.992 1399.08 155.033 1435.51 168.009C1436.01 168.258 1436.51 168.258 1437 168.508C1482.17 185.227 1509.37 232.888 1506.87 290.532C1504.63 347.925 1459.46 334.7 1448.23 309.996Z" fill="#007C3A"/>
</svg>
