<svg width="761" height="338" viewBox="0 0 761 338" fill="none" xmlns="http://www.w3.org/2000/svg">
<path d="M647.07 337.024L187.043 336.215L162.7 336.185H159.976L136.651 336.155L127.279 336.125H125.183L100.391 336.095H96.1096H87.3066H84.4023L68.0241 336.065C68.0241 336.065 62.6345 331.003 55.7778 320.728C53.113 316.744 50.2386 311.981 47.3941 306.44C46.8252 305.331 46.2264 304.163 45.6575 302.995C41.765 294.967 37.9325 285.411 34.8185 274.388C34.6688 273.879 34.549 273.399 34.3993 272.89C34.1897 272.171 34.0101 271.422 33.8005 270.673C32.6627 266.27 32.2136 261.896 32.4531 257.523C34.1897 223.225 76.0186 190.933 124.674 177.603C205.338 155.526 178.3 108.167 219.829 46.52C246.597 6.76976 288.217 -6.47035 341.363 4.73282C449.184 27.4687 371.066 150.134 493.019 169.755C718.272 205.941 647.07 337.024 647.07 337.024Z" fill="#E5E5E5"/>
<g opacity="0.5">
<path opacity="0.5" d="M206.056 310.336C205.038 321.928 198.481 325.493 195.606 325.193C192.732 324.894 175.875 318.454 175.485 320.82C175.126 323.187 185.276 330.885 192.372 331.244C192.372 331.244 190.217 333.641 187.043 336.217L162.7 336.187C159.856 332.982 158.269 329.807 154.825 328.219C149.256 325.673 144.525 325.703 146.801 328.279C148.657 330.376 155.724 332.443 159.975 336.187L136.651 336.157C135.303 334.569 134.435 332.892 134.285 331.184C134.255 330.855 134.225 330.525 134.195 330.226C133.627 323.486 133.627 323.486 133.627 323.486C133.627 323.486 126.92 315.698 127.608 307.7C127.728 306.112 128.177 304.495 129.015 302.937C129.854 301.379 131.081 299.882 132.848 298.504C132.848 298.504 141.831 293.082 149.166 293.501C149.166 293.501 143.477 302.997 141.89 308.658C141.741 309.168 141.621 309.647 141.561 310.096C141.352 311.354 141.501 312.283 142.13 312.612C142.968 313.032 143.986 312.013 145.094 310.276C145.274 310.006 145.454 309.707 145.603 309.377C148.807 303.626 152.28 292.423 152.28 292.423C152.28 292.423 153.149 292.333 154.616 292.243C156.233 292.123 158.568 291.973 161.173 291.884C162.041 291.854 162.94 291.824 163.838 291.824C166.593 291.794 169.497 291.854 172.132 292.063C175.036 292.303 177.611 292.782 179.288 293.591C179.288 293.591 178.929 293.891 178.3 294.4C178 294.669 177.611 294.969 177.192 295.328C176.354 296.017 175.366 296.886 174.258 297.845C172.431 299.462 170.425 301.319 168.718 303.027C166.742 305.034 165.215 306.831 164.976 307.879C164.886 308.329 165.006 308.628 165.455 308.718C167.371 309.168 173.359 305.603 178.659 302.098C183.629 298.833 188.001 295.568 188.001 295.568C188.001 295.568 207.074 298.743 206.056 310.336Z" fill="#009444"/>
<g opacity="0.5">
<path opacity="0.5" d="M134.196 330.167C134.166 330.766 134.286 331.125 134.286 331.125C132.729 331.395 129.855 333.731 127.28 336.098H125.184C131.501 329.747 133.627 323.427 133.627 323.427C145.035 308.659 196.745 310.666 196.745 310.666C138.627 312.553 134.286 326.362 134.196 330.167Z" fill="#009444"/>
</g>
</g>
<path d="M77.1868 304.224C77.1868 304.224 98.0563 292.571 88.2952 276.755C88.2952 276.755 80.5103 267.05 72.1566 264.534C72.1566 264.534 76.6179 288.138 72.1566 288.677C67.6952 289.246 69.1025 262.017 69.1025 262.017C69.1025 262.017 47.1251 251.473 38.5019 252.312C38.5019 252.312 52.1254 275.347 47.6641 274.808C43.2028 274.239 27.9324 250.934 27.9324 250.934C27.9324 250.934 5.4161 246.77 1.79314 260.1C-1.82983 273.43 4.00884 280.08 7.36233 280.919C10.6859 281.758 32.1243 281.488 31.5554 284.244C30.9865 287.03 16.5545 291.463 8.47018 288.977C8.47018 288.977 17.3629 310.904 29.0403 309.796C40.7176 308.687 44.3405 301.468 51.5565 300.899C58.7725 300.33 64.0723 302.277 60.4493 304.224C56.8263 306.171 44.61 304.853 38.7714 309.826C32.9327 314.768 28.2019 317.824 39.0408 320.04C49.8798 322.257 69.342 320.879 73.2345 312.551C77.1868 304.224 77.1868 304.224 77.1868 304.224Z" fill="#009444"/>
<path d="M12.123 264.264C12.123 264.264 70.5097 283.135 77.1868 304.224C77.1868 304.224 76.9173 313.659 82.756 324.473V328.637C82.756 328.637 76.6478 314.468 73.2943 312.551C73.2943 312.551 86.349 294.219 12.123 264.264Z" fill="#009444"/>
<path d="M87.2778 336.035H84.3735C84.0142 333.219 83.4453 330.464 82.5171 328.127C82.5171 328.097 82.4871 328.067 82.4871 328.067C82.2775 327.588 82.0679 327.109 81.8583 326.659C81.8583 326.659 81.8583 326.659 81.8583 326.629C81.8583 326.599 81.8284 326.599 81.8284 326.569C81.1397 325.251 80.6906 324.263 80.3912 323.574C80.3912 323.544 80.3912 323.544 80.3613 323.544C78.7144 319.44 82.7566 324.533 82.7566 324.533C82.7566 324.533 85.7209 328.996 87.2778 336.035Z" fill="#009444"/>
<path d="M110.362 288.139C110.362 288.139 82.875 272.772 95.6901 251.923C95.6901 251.923 105.96 239.102 116.949 235.837C116.949 235.837 111.08 266.931 116.949 267.679C122.817 268.398 120.991 232.542 120.991 232.542C120.991 232.542 149.945 218.643 161.323 219.721C161.323 219.721 143.358 250.096 149.226 249.347C155.095 248.628 175.246 217.894 175.246 217.894C175.246 217.894 204.948 212.412 209.709 229.966C214.47 247.52 206.775 256.297 202.373 257.405C197.972 258.513 169.736 258.124 170.485 261.808C171.204 265.463 190.277 271.334 200.906 268.039C200.906 268.039 189.169 296.945 173.779 295.478C158.388 294.01 153.628 284.514 144.076 283.765C134.555 283.046 127.578 285.593 132.339 288.169C137.1 290.715 153.238 289.007 160.934 295.538C168.629 302.068 174.856 306.082 160.574 309.017C146.292 311.953 120.632 310.126 115.482 299.132C110.362 288.139 110.362 288.139 110.362 288.139Z" fill="#009444"/>
<path d="M196.115 235.447C196.115 235.447 119.135 260.34 110.332 288.138C110.332 288.138 110.691 300.569 102.996 314.858V320.34C102.996 320.34 111.05 301.678 115.452 299.132C115.482 299.132 98.2653 274.958 196.115 235.447Z" fill="#009444"/>
<path d="M106.17 313.57C106.141 313.6 106.141 313.6 106.17 313.57C105.781 314.559 105.152 315.877 104.224 317.644C104.224 317.644 104.224 317.674 104.194 317.674C103.895 318.243 103.625 318.872 103.356 319.501C103.356 319.531 103.326 319.561 103.326 319.591C101.44 324.324 100.631 330.345 100.362 336.007H96.0801C97.3376 323.426 103.027 314.799 103.027 314.799C103.146 314.709 108.356 308.178 106.17 313.57Z" fill="#009444"/>
<path d="M312.618 70.6048C312.618 70.6048 292.737 68.6577 281.12 90.0456C269.502 111.433 250.878 101.608 238.363 122.517C225.847 143.425 265.25 156.546 242.944 164.484C220.637 172.422 217.673 211.783 258.723 217.115C299.773 222.447 364.837 213.88 368.52 206.87C372.173 199.861 383.281 191.623 369.179 176.376C355.076 161.129 378.73 169.636 366.753 135.517C354.747 101.369 312.618 70.6048 312.618 70.6048Z" fill="#2C3A64"/>
<path d="M359.388 145.702L357.561 146.062C349.627 147.649 341.842 142.467 340.225 134.559L338.339 125.273C336.722 117.335 341.902 109.516 349.866 107.929L351.693 107.569C359.627 105.982 367.412 111.164 369.029 119.072L370.915 128.358C372.502 136.296 367.322 144.114 359.388 145.702Z" fill="#F99746"/>
<path d="M473.228 335.076H398.703C393.164 335.076 388.014 332.081 385.289 327.288C373.163 306.02 363.102 279.869 360.527 258.96C359.15 247.787 359.928 238.142 363.641 231.552C375.259 211.032 356.814 186.979 356.814 186.979C356.814 186.979 383.073 195.126 392.266 214.807C401.368 234.307 408.704 266.988 412.476 286.04C414.333 295.386 421.07 303.024 430.142 306.02L472.091 319.859C475.055 327.078 473.228 335.076 473.228 335.076Z" fill="#FFC05C"/>
<path d="M473.227 335.076H397.144C392.593 335.076 388.401 332.65 386.126 328.726C373.64 307.218 363.16 280.318 360.525 258.931L372.861 255.156C372.861 255.156 390.617 307.008 400.079 317.523C409.031 327.438 473.227 335.076 473.227 335.076Z" fill="#F99746"/>
<path d="M369.15 220.649C362.772 226.221 354.538 231.163 343.909 234.908C304.116 248.956 284.534 216.216 275.971 193.21C281.181 189.406 286.361 188.118 289.325 187.399C292.229 186.71 295.313 186.141 297.888 185.721C302.08 181.707 307.29 166.55 306.272 144.084L308.248 144.384L341.454 149.566C341.454 149.566 341.124 159.96 341.513 169.696C341.813 177.304 342.951 183.385 342.951 183.385C345.526 183.655 348.31 186.62 348.31 186.62C348.31 186.62 348.31 186.62 348.34 186.65C348.849 187.279 359.928 201.568 369.15 220.649Z" fill="#FFB27D"/>
<path d="M341.483 149.566C341.483 149.566 341.154 159.961 341.543 169.696C323.099 169.936 312.649 153.55 308.277 144.414L341.483 149.566Z" fill="#ED985F"/>
<path d="M384.988 255.157C384.898 255.876 376.035 284.663 375.916 285.412C372.831 309.525 367.262 335.257 367.262 335.257L355.076 335.227L274.622 335.077C274.622 335.077 284.323 305.841 258.723 260.998C257.885 259.53 257.016 258.033 256.088 256.535C252.435 250.544 275.461 186.62 275.461 186.62C275.461 186.62 285.88 183.984 300.013 182.846C301.36 184.074 310.882 207.109 328.697 207.109C353.549 207.109 342.979 183.325 342.979 183.325C352.411 185.212 355.825 185.901 367.951 191.712C367.951 191.742 385.467 251.233 384.988 255.157Z" fill="#FFC05C"/>
<path d="M347.561 159.06C347.561 159.06 303.936 160.888 303.218 133.748C302.499 106.609 296.391 88.5763 324.207 86.2698C352.023 83.9632 357.712 94.1779 360.167 103.164C362.592 112.151 358.88 157.892 347.561 159.06Z" fill="#FFB27D"/>
<path d="M338.07 144.502C338.07 144.502 338.549 147.737 345.735 147.797C345.735 147.797 351.754 147.857 351.784 144.352C351.784 144.382 346.125 141.447 338.07 144.502Z" fill="white"/>
<path d="M341.094 155.317C315.853 149.027 308.337 126.021 308.277 125.781L310.882 124.973L309.595 125.392L310.882 124.973C310.942 125.182 318.038 146.78 341.782 152.681C341.932 152.711 342.112 152.771 342.261 152.801L341.633 155.437C341.423 155.407 341.273 155.347 341.094 155.317Z" fill="#122544"/>
<path d="M344.027 156.965L341.662 156.366C340.464 156.066 339.716 154.838 340.015 153.61C340.315 152.412 341.542 151.663 342.77 151.963L345.135 152.562C346.333 152.861 347.082 154.089 346.782 155.318C346.453 156.546 345.225 157.265 344.027 156.965Z" fill="#F99746"/>
<path d="M322.83 69.3759C322.83 69.3759 350.915 65.0024 362.533 88.3374C371.366 106.101 364 117.184 360.527 120.599C360.527 120.599 355.946 95.0773 347.352 92.8906C347.352 92.8906 341.813 91.2131 338.04 95.5865C334.268 99.9599 328.818 119.491 322.531 122.486C322.531 122.486 303.068 127.279 302.11 120.509C301.152 113.739 305.404 95.0773 306.601 89.236C309.835 73.4797 322.83 69.3759 322.83 69.3759Z" fill="#2C3A64"/>
<path d="M313.966 145.702L312.139 146.062C304.205 147.649 296.42 142.467 294.803 134.559L292.917 125.273C291.3 117.335 296.48 109.516 304.444 107.929L306.271 107.569C314.205 105.982 321.99 111.164 323.607 119.072L325.493 128.358C327.08 136.296 321.9 144.114 313.966 145.702Z" fill="#F99746"/>
<path d="M300.103 112.212C298.905 110.265 297.168 94.7182 301.929 82.3169C304.235 76.3259 307.947 72.911 312.648 70.6045C314.325 69.7657 316.241 69.3164 318.158 69.3164L322.858 69.3763C307.378 75.2475 303.785 106.7 305.013 110.055C304.983 109.965 304.923 109.875 304.893 109.816L300.103 112.212Z" fill="#F99746"/>
<path d="M309.774 136.596L308.876 136.776C304.923 137.584 301.031 134.978 300.252 131.054L299.324 126.441C298.516 122.487 301.091 118.593 305.073 117.784L305.971 117.604C309.924 116.796 313.816 119.402 314.595 123.326L315.523 127.939C316.301 131.923 313.726 135.817 309.774 136.596Z" fill="#FFC05C"/>
<path d="M274.624 335.077C274.624 335.077 273.815 313.989 258.725 260.999L278.516 252.521C278.516 252.521 285.133 296.825 306.242 310.754C327.292 324.653 352.083 321.747 355.078 335.197L274.624 335.077Z" fill="#F99746"/>
<path d="M275.431 186.65C275.431 186.65 258.065 188.148 246.448 208.667C234.83 229.186 195.606 325.222 212.733 335.077H305.673C305.673 335.077 307.499 327.109 304.595 319.86L253.634 305.662C253.634 305.662 281.689 257.464 282.049 235.327C282.408 213.191 275.431 186.65 275.431 186.65Z" fill="#FFC05C"/>
<path d="M306.242 325.641C306.242 325.641 324.356 323.874 327.351 324.683C330.345 325.491 338.938 329.026 340.854 330.254C342.771 331.482 346.454 335.047 346.454 335.047C346.454 335.047 344.148 335.496 342.771 335.167C341.393 334.867 337.321 334.598 336.243 334.508C335.165 334.418 331.243 335.227 331.243 335.227H303.188L306.242 325.641Z" fill="#FFB27D"/>
<path d="M488.409 335.227H380.947C380.947 330.494 384.78 326.689 389.481 326.689H488.379V335.227H488.409Z" fill="black" fill-opacity="0.8"/>
<path d="M654.198 218.432L614.375 335.226H447.18L488.11 218.432H654.198Z" fill="black" fill-opacity="0.8"/>
<path d="M660.126 218.432L620.633 334.148L620.274 335.226H455.533L496.434 218.432H660.126Z" fill="#163A32"/>
<path d="M573.444 278.881C572.576 282.595 568.863 285.62 565.15 285.62C561.438 285.62 559.102 282.595 559.97 278.881C560.839 275.166 564.551 272.141 568.264 272.141C572.007 272.141 574.313 275.166 573.444 278.881Z" fill="#EBF3FA"/>
<path opacity="0.5" d="M660.126 218.432L620.632 334.148H544.939L637.25 218.432H660.126Z" fill="black" fill-opacity="0.8"/>
<path fill-rule="evenodd" clip-rule="evenodd" d="M594.522 168.8C686.127 168.8 760.388 132.309 760.388 87.2938C760.388 42.2789 686.127 5.78711 594.522 5.78711C502.917 5.78711 428.656 42.2789 428.656 87.2938C428.656 111.459 450.057 133.168 484.053 148.094L464.408 175.742L496.673 153.114C524.103 162.977 557.929 168.8 594.522 168.8Z" fill="#F77D48"/>
<path d="M556.332 62.9696C560.652 62.9696 562.236 60.5936 562.236 58.2656C562.236 52.2896 552.756 54.3536 552.756 50.7536C552.756 49.2416 554.124 48.2096 556.044 48.2096C557.796 48.2096 559.476 48.8096 560.676 50.1296L561.876 48.6656C560.532 47.2496 558.636 46.4336 556.188 46.4336C553.044 46.4336 550.692 48.2336 550.692 50.8736C550.692 56.5856 560.172 54.3056 560.172 58.4336C560.172 59.6576 559.26 61.1936 556.404 61.1936C554.148 61.1936 552.42 60.0896 551.364 58.9136L550.188 60.4256C551.508 61.9136 553.548 62.9696 556.332 62.9696ZM580.882 62.6816V46.6736H578.026L573.034 58.7216L568.066 46.6736H565.21V62.6816H567.202V49.5056L572.626 62.6816H573.442L578.89 49.5056V62.6816H580.882ZM589.801 62.9696C594.121 62.9696 595.705 60.5936 595.705 58.2656C595.705 52.2896 586.225 54.3536 586.225 50.7536C586.225 49.2416 587.593 48.2096 589.513 48.2096C591.265 48.2096 592.945 48.8096 594.145 50.1296L595.345 48.6656C594.001 47.2496 592.105 46.4336 589.657 46.4336C586.513 46.4336 584.161 48.2336 584.161 50.8736C584.161 56.5856 593.641 54.3056 593.641 58.4336C593.641 59.6576 592.729 61.1936 589.873 61.1936C587.617 61.1936 585.889 60.0896 584.833 58.9136L583.657 60.4256C584.977 61.9136 587.017 62.9696 589.801 62.9696ZM598.223 63.1616L603.911 46.1936H602.495L596.807 63.1616H598.223ZM620.181 62.6816L624.741 46.6736H622.533L619.005 60.0176L615.333 46.6736H613.677L610.005 60.0176L606.453 46.6736H604.245L608.805 62.6816H610.965L614.493 49.7696L618.021 62.6816H620.181ZM639.547 62.6816L633.091 46.6736H630.619L624.187 62.6816H626.467L627.883 59.1296H635.851L637.267 62.6816H639.547ZM635.251 57.3536H628.459L631.867 48.7376L635.251 57.3536Z" fill="#F8F8F8"/>
<path d="M466.999 107.268C474.643 107.268 477.709 99.5817 477.709 92.7777C477.709 85.9317 474.643 78.3297 466.999 78.3297C459.313 78.3297 456.289 85.9317 456.289 92.7777C456.289 99.5817 459.313 107.268 466.999 107.268ZM466.999 104.16C461.665 104.16 459.859 98.3637 459.859 92.7777C459.859 87.1917 461.665 81.4377 466.999 81.4377C472.333 81.4377 474.139 87.1917 474.139 92.7777C474.139 98.3637 472.333 104.16 466.999 104.16ZM492.086 107.268C497.588 107.268 502.124 104.412 502.124 99.6657C502.124 95.9277 498.932 93.3657 495.446 92.3157C498.68 91.3917 501.704 89.2917 501.704 85.5957C501.704 80.5557 496.706 78.3297 492.086 78.3297C487.424 78.3297 482.51 80.5557 482.51 85.5957C482.51 89.2917 485.492 91.3917 488.726 92.3157C485.24 93.3657 482.048 95.9277 482.048 99.6657C482.048 104.454 486.542 107.268 492.086 107.268ZM492.086 90.8877C490.406 90.5937 485.996 89.4597 485.996 86.0577C485.996 83.1597 488.684 81.4377 492.086 81.4377C495.446 81.4377 498.176 83.1597 498.176 86.0577C498.176 89.4597 493.808 90.5937 492.086 90.8877ZM492.086 104.16C488.6 104.16 485.534 102.312 485.534 99.2877C485.534 95.6337 490.364 94.0797 492.086 93.8697C493.808 94.0797 498.596 95.6337 498.596 99.2877C498.596 102.312 495.53 104.16 492.086 104.16ZM515.23 106.764V78.7497H512.164L505.15 85.9737L507.25 88.1157L511.744 83.3697V106.764H515.23ZM529.673 107.268C535.847 107.268 539.585 103.866 539.585 99.2037C539.585 94.7097 535.679 92.5257 533.117 92.3157C535.763 91.8537 539.165 89.8377 539.165 85.8057C539.165 81.0597 535.049 78.3297 529.673 78.3297C525.347 78.3297 522.113 80.2197 520.097 82.6557L522.029 84.8397C524.087 82.6137 526.355 81.4377 529.421 81.4377C532.823 81.4377 535.679 83.1177 535.679 86.2257C535.679 89.4597 532.697 90.8457 529.169 90.8457C528.035 90.8457 526.733 90.8457 526.271 90.8037V93.9957C526.691 93.9537 527.993 93.9537 529.169 93.9537C533.285 93.9537 536.141 95.4237 536.141 98.9097C536.141 102.144 533.663 104.16 529.589 104.16C526.271 104.16 523.415 102.648 521.777 100.464L519.719 102.648C521.441 105.168 524.927 107.268 529.673 107.268ZM554.816 107.268C560.948 107.268 564.644 102.984 564.644 98.1117C564.644 92.1477 560.528 89.1657 555.488 89.1657C551.876 89.1657 548.768 91.6017 547.55 93.5337C547.508 93.1557 547.508 92.8197 547.508 92.4417C547.508 86.9397 549.986 81.4377 555.404 81.4377C558.344 81.4377 559.982 82.6137 561.41 84.2937L563.174 81.6897C561.452 79.7157 559.016 78.3297 555.404 78.3297C547.55 78.3297 544.022 85.2177 544.022 92.8197C544.022 100.422 547.004 107.268 554.816 107.268ZM554.69 104.16C549.818 104.16 547.97 99.8757 547.634 96.3897C549.188 93.9117 551.876 92.1897 554.648 92.1897C558.26 92.1897 561.116 94.1217 561.116 98.2377C561.116 100.926 559.016 104.16 554.69 104.16ZM579.63 107.268C585.762 107.268 589.458 102.984 589.458 98.1117C589.458 92.1477 585.342 89.1657 580.302 89.1657C576.69 89.1657 573.582 91.6017 572.364 93.5337C572.322 93.1557 572.322 92.8197 572.322 92.4417C572.322 86.9397 574.8 81.4377 580.218 81.4377C583.158 81.4377 584.796 82.6137 586.224 84.2937L587.988 81.6897C586.266 79.7157 583.83 78.3297 580.218 78.3297C572.364 78.3297 568.836 85.2177 568.836 92.8197C568.836 100.422 571.818 107.268 579.63 107.268ZM579.504 104.16C574.632 104.16 572.784 99.8757 572.448 96.3897C574.002 93.9117 576.69 92.1897 579.462 92.1897C583.074 92.1897 585.93 94.1217 585.93 98.2377C585.93 100.926 583.83 104.16 579.504 104.16ZM602.806 107.226C610.66 107.226 614.188 100.338 614.188 92.7777C614.188 85.1337 611.206 78.2877 603.352 78.2877C597.262 78.2877 593.566 82.6137 593.566 87.4437C593.566 93.4077 597.724 96.3897 602.764 96.3897C606.334 96.3897 609.442 93.9537 610.66 92.0217C610.702 92.3997 610.702 92.7777 610.702 93.1557C610.702 98.4477 608.476 104.118 602.806 104.118C599.908 104.118 598.228 102.942 596.8 101.262L595.036 103.866C596.8 105.882 599.236 107.226 602.806 107.226ZM603.562 93.3657C599.95 93.3657 597.094 91.4337 597.094 87.3177C597.094 84.6717 599.236 81.3957 603.52 81.3957C608.392 81.3957 610.24 85.7217 610.534 89.2077C609.064 91.6857 606.334 93.3657 603.562 93.3657ZM627.621 107.226C635.475 107.226 639.003 100.338 639.003 92.7777C639.003 85.1337 636.021 78.2877 628.167 78.2877C622.077 78.2877 618.381 82.6137 618.381 87.4437C618.381 93.4077 622.539 96.3897 627.579 96.3897C631.149 96.3897 634.257 93.9537 635.475 92.0217C635.517 92.3997 635.517 92.7777 635.517 93.1557C635.517 98.4477 633.291 104.118 627.621 104.118C624.723 104.118 623.043 102.942 621.615 101.262L619.851 103.866C621.615 105.882 624.051 107.226 627.621 107.226ZM628.377 93.3657C624.765 93.3657 621.909 91.4337 621.909 87.3177C621.909 84.6717 624.051 81.3957 628.335 81.3957C633.207 81.3957 635.055 85.7217 635.349 89.2077C633.879 91.6857 631.149 93.3657 628.377 93.3657ZM659.281 106.764V99.6657H663.229V96.5997H659.281V78.7497H654.493L642.481 96.7677V99.6657H655.795V106.764H659.281ZM655.795 96.5997H645.967L655.795 81.9837V96.5997ZM675.855 107.226C683.709 107.226 687.237 100.338 687.237 92.7777C687.237 85.1337 684.255 78.2877 676.401 78.2877C670.311 78.2877 666.615 82.6137 666.615 87.4437C666.615 93.4077 670.773 96.3897 675.813 96.3897C679.383 96.3897 682.491 93.9537 683.709 92.0217C683.751 92.3997 683.751 92.7777 683.751 93.1557C683.751 98.4477 681.525 104.118 675.855 104.118C672.957 104.118 671.277 102.942 669.849 101.262L668.085 103.866C669.849 105.882 672.285 107.226 675.855 107.226ZM676.611 93.3657C672.999 93.3657 670.143 91.4337 670.143 87.3177C670.143 84.6717 672.285 81.3957 676.569 81.3957C681.441 81.3957 683.289 85.7217 683.583 89.2077C682.113 91.6857 679.383 93.3657 676.611 93.3657ZM700.67 107.226C708.524 107.226 712.052 100.338 712.052 92.7777C712.052 85.1337 709.07 78.2877 701.216 78.2877C695.126 78.2877 691.43 82.6137 691.43 87.4437C691.43 93.4077 695.588 96.3897 700.628 96.3897C704.198 96.3897 707.306 93.9537 708.524 92.0217C708.566 92.3997 708.566 92.7777 708.566 93.1557C708.566 98.4477 706.34 104.118 700.67 104.118C697.772 104.118 696.092 102.942 694.664 101.262L692.9 103.866C694.664 105.882 697.1 107.226 700.67 107.226ZM701.426 93.3657C697.814 93.3657 694.958 91.4337 694.958 87.3177C694.958 84.6717 697.1 81.3957 701.384 81.3957C706.256 81.3957 708.104 85.7217 708.398 89.2077C706.928 91.6857 704.198 93.3657 701.426 93.3657ZM732.33 106.764V99.6657H736.278V96.5997H732.33V78.7497H727.542L715.53 96.7677V99.6657H728.844V106.764H732.33ZM728.844 96.5997H719.016L728.844 81.9837V96.5997Z" fill="#F8F8F8"/>
</svg>
