<svg width="694" height="363" viewBox="0 0 694 363" fill="none" xmlns="http://www.w3.org/2000/svg">
<path d="M646.422 362.316L186.395 361.507L162.052 361.477H159.328L136.003 361.447L126.631 361.417H124.535L99.7433 361.387H95.4616H86.6587H83.7543L67.3761 361.357C67.3761 361.357 61.9866 356.295 55.1299 346.02C52.4651 342.036 49.5906 337.273 46.7462 331.732C46.1773 330.623 45.5784 329.455 45.0095 328.287C41.1171 320.259 37.2845 310.703 34.1706 299.68C34.0209 299.171 33.9011 298.691 33.7514 298.182C33.5418 297.463 33.3621 296.714 33.1525 295.965C32.0148 291.562 31.5656 287.188 31.8052 282.815C33.5418 248.517 75.3706 216.225 124.026 202.895C204.69 180.818 177.652 133.459 219.181 71.812C245.95 32.0618 287.569 18.8216 340.716 30.0248C448.536 52.7607 370.418 175.426 492.371 195.047C717.624 231.233 646.422 362.316 646.422 362.316Z" fill="#E5E5E5"/>
<g opacity="0.5">
<path opacity="0.5" d="M205.408 335.626C204.39 347.218 197.833 350.783 194.959 350.483C192.084 350.184 175.227 343.743 174.838 346.11C174.478 348.476 184.629 356.175 191.725 356.534C191.725 356.534 189.569 358.931 186.395 361.507L162.052 361.477C159.208 358.272 157.621 355.096 154.178 353.509C148.608 350.963 143.878 350.992 146.153 353.569C148.01 355.665 155.076 357.732 159.328 361.477L136.003 361.447C134.656 359.859 133.787 358.182 133.638 356.474C133.608 356.145 133.578 355.815 133.548 355.516C132.979 348.776 132.979 348.776 132.979 348.776C132.979 348.776 126.272 340.988 126.961 332.99C127.08 331.402 127.529 329.784 128.368 328.227C129.206 326.669 130.434 325.171 132.2 323.793C132.2 323.793 141.183 318.372 148.519 318.791C148.519 318.791 142.83 328.287 141.243 333.948C141.093 334.457 140.973 334.937 140.913 335.386C140.704 336.644 140.854 337.573 141.482 337.902C142.321 338.322 143.339 337.303 144.447 335.566C144.626 335.296 144.806 334.997 144.956 334.667C148.159 328.916 151.633 317.713 151.633 317.713C151.633 317.713 152.501 317.623 153.968 317.533C155.585 317.413 157.92 317.263 160.525 317.173C161.394 317.143 162.292 317.113 163.19 317.113C165.945 317.083 168.849 317.143 171.484 317.353C174.388 317.593 176.963 318.072 178.64 318.881C178.64 318.881 178.281 319.18 177.652 319.69C177.353 319.959 176.963 320.259 176.544 320.618C175.706 321.307 174.718 322.176 173.61 323.134C171.783 324.752 169.777 326.609 168.071 328.317C166.095 330.324 164.568 332.121 164.328 333.169C164.238 333.619 164.358 333.918 164.807 334.008C166.723 334.457 172.712 330.893 178.011 327.388C182.982 324.123 187.353 320.858 187.353 320.858C187.353 320.858 206.426 324.033 205.408 335.626Z" fill="#009444"/>
<g opacity="0.5">
<path opacity="0.5" d="M133.548 355.456C133.518 356.055 133.637 356.414 133.637 356.414C132.081 356.684 129.206 359.021 126.631 361.387H124.535C130.853 355.037 132.979 348.716 132.979 348.716C144.387 333.948 196.096 335.955 196.096 335.955C137.979 337.842 133.637 351.652 133.548 355.456Z" fill="#009444"/>
</g>
</g>
<path d="M76.5384 329.515C76.5384 329.515 97.4079 317.862 87.6468 302.046C87.6468 302.046 79.8619 292.341 71.5081 289.825C71.5081 289.825 75.9695 313.429 71.5081 313.968C67.0468 314.537 68.454 287.308 68.454 287.308C68.454 287.308 46.4767 276.764 37.8535 277.603C37.8535 277.603 51.477 300.638 47.0157 300.099C42.5543 299.53 27.284 276.225 27.284 276.225C27.284 276.225 4.76767 272.061 1.1447 285.391C-2.47827 298.721 3.3604 305.371 6.71389 306.21C10.0374 307.049 31.4758 306.779 30.9069 309.535C30.338 312.321 15.906 316.754 7.82174 314.268C7.82174 314.268 16.7145 336.195 28.3918 335.087C40.0691 333.978 43.6921 326.759 50.9081 326.19C58.1241 325.621 63.4238 327.568 59.8008 329.515C56.1779 331.462 43.9616 330.144 38.1229 335.117C32.2843 340.059 27.5534 343.115 38.3924 345.331C49.2314 347.548 68.6936 346.17 72.586 337.842C76.5384 329.515 76.5384 329.515 76.5384 329.515Z" fill="#009444"/>
<path d="M11.4746 289.555C11.4746 289.555 69.8613 308.427 76.5383 329.515C76.5383 329.515 76.2689 338.951 82.1075 349.764V353.928C82.1075 353.928 75.9994 339.759 72.6459 337.842C72.6459 337.842 85.7005 319.51 11.4746 289.555Z" fill="#009444"/>
<path d="M86.6289 361.327H83.7245C83.3652 358.511 82.7963 355.755 81.8681 353.419C81.8681 353.389 81.8382 353.359 81.8382 353.359C81.6286 352.88 81.419 352.4 81.2094 351.951C81.2094 351.951 81.2094 351.951 81.2094 351.921C81.2094 351.891 81.1795 351.891 81.1795 351.861C80.4908 350.543 80.0417 349.555 79.7423 348.866C79.7423 348.836 79.7423 348.836 79.7123 348.836C78.0655 344.732 82.1077 349.824 82.1077 349.824C82.1077 349.824 85.0719 354.288 86.6289 361.327Z" fill="#009444"/>
<path d="M109.714 313.429C109.714 313.429 82.2273 298.062 95.0424 277.213C95.0424 277.213 105.312 264.393 116.301 261.128C116.301 261.128 110.433 292.221 116.301 292.97C122.17 293.689 120.343 257.832 120.343 257.832C120.343 257.832 149.297 243.933 160.675 245.012C160.675 245.012 142.71 275.386 148.579 274.637C154.447 273.918 174.598 243.184 174.598 243.184C174.598 243.184 204.3 237.703 209.061 255.256C213.822 272.81 206.127 281.587 201.725 282.695C197.324 283.803 169.089 283.414 169.837 287.099C170.556 290.753 189.629 296.624 200.258 293.329C200.258 293.329 188.521 322.236 173.131 320.768C157.741 319.3 152.98 309.804 143.429 309.056C133.907 308.337 126.931 310.883 131.691 313.459C136.452 316.005 152.591 314.298 160.286 320.828C167.981 327.358 174.209 331.372 159.926 334.308C145.644 337.243 119.984 335.416 114.834 324.423C109.714 313.429 109.714 313.429 109.714 313.429Z" fill="#009444"/>
<path d="M195.467 260.738C195.467 260.738 118.487 285.631 109.684 313.429C109.684 313.429 110.043 325.86 102.348 340.149V345.631C102.348 345.631 110.402 326.969 114.804 324.423C114.834 324.423 97.6171 300.249 195.467 260.738Z" fill="#009444"/>
<path d="M105.522 338.861C105.492 338.891 105.492 338.891 105.522 338.861C105.133 339.849 104.504 341.167 103.576 342.935C103.576 342.935 103.576 342.965 103.546 342.965C103.246 343.534 102.977 344.163 102.707 344.792C102.707 344.822 102.677 344.852 102.677 344.882C100.791 349.615 99.9826 355.636 99.7131 361.297H95.4314C96.689 348.716 102.378 340.089 102.378 340.089C102.498 339.999 107.708 333.469 105.522 338.861Z" fill="#009444"/>
<path d="M311.971 95.8958C311.971 95.8958 292.09 93.9487 280.473 115.337C268.855 136.724 250.231 126.899 237.716 147.808C225.2 168.716 264.603 181.837 242.297 189.775C219.99 197.713 217.026 237.074 258.076 242.406C299.126 247.738 364.19 239.171 367.873 232.161C371.526 225.152 382.634 216.914 368.532 201.667C354.429 186.42 378.083 194.927 366.106 160.808C354.1 126.66 311.971 95.8958 311.971 95.8958Z" fill="#2C3A64"/>
<path d="M358.741 170.993L356.914 171.353C348.979 172.94 341.195 167.758 339.578 159.85L337.691 150.564C336.074 142.626 341.254 134.807 349.219 133.22L351.045 132.86C358.98 131.273 366.765 136.455 368.382 144.363L370.268 153.649C371.855 161.587 366.675 169.405 358.741 170.993Z" fill="#F99746"/>
<path d="M472.58 360.369H398.054C392.515 360.369 387.365 357.373 384.64 352.58C372.514 331.312 362.453 305.161 359.878 284.253C358.501 273.08 359.279 263.434 362.992 256.844C374.61 236.325 356.166 212.271 356.166 212.271C356.166 212.271 382.425 220.419 391.617 240.099C400.719 259.6 408.055 292.281 411.827 311.332C413.684 320.678 420.421 328.317 429.493 331.312L471.442 345.151C474.406 352.371 472.58 360.369 472.58 360.369Z" fill="#FFC05C"/>
<path d="M472.579 360.368H396.497C391.946 360.368 387.754 357.942 385.478 354.018C372.993 332.51 362.513 305.611 359.878 284.223L372.214 280.448C372.214 280.448 389.97 332.301 399.431 342.815C408.384 352.73 472.579 360.368 472.579 360.368Z" fill="#F99746"/>
<path d="M368.502 245.94C362.124 251.512 353.89 256.455 343.261 260.199C303.468 274.248 283.886 241.507 275.323 218.502C280.532 214.697 285.712 213.409 288.677 212.69C291.581 212.001 294.665 211.432 297.24 211.013C301.432 206.999 306.642 191.842 305.624 169.375L307.6 169.675L340.805 174.857C340.805 174.857 340.476 185.252 340.865 194.987C341.165 202.596 342.302 208.676 342.302 208.676C344.877 208.946 347.662 211.912 347.662 211.912C347.662 211.912 347.662 211.912 347.692 211.942C348.201 212.571 359.28 226.859 368.502 245.94Z" fill="#FFB27D"/>
<path d="M340.835 174.857C340.835 174.857 340.506 185.252 340.895 194.987C322.451 195.227 312.001 178.841 307.63 169.705L340.835 174.857Z" fill="#ED985F"/>
<path d="M384.341 280.449C384.251 281.167 375.388 309.954 375.269 310.703C372.185 334.817 366.615 360.548 366.615 360.548L354.429 360.518L273.975 360.368C273.975 360.368 283.676 331.132 258.076 286.29C257.238 284.822 256.369 283.324 255.441 281.826C251.788 275.835 274.814 211.912 274.814 211.912C274.814 211.912 285.233 209.275 299.366 208.137C300.713 209.365 310.235 232.401 328.05 232.401C352.902 232.401 342.332 208.616 342.332 208.616C351.764 210.504 355.178 211.193 367.304 217.004C367.304 217.034 384.82 276.524 384.341 280.449Z" fill="#FFC05C"/>
<path d="M346.914 184.353C346.914 184.353 303.288 186.18 302.57 159.041C301.851 131.902 295.743 113.869 323.559 111.562C351.375 109.256 357.064 119.471 359.519 128.457C361.944 137.444 358.232 183.185 346.914 184.353Z" fill="#FFB27D"/>
<path d="M337.422 169.795C337.422 169.795 337.901 173.03 345.087 173.09C345.087 173.09 351.105 173.15 351.135 169.645C351.135 169.675 345.476 166.739 337.422 169.795Z" fill="white"/>
<path d="M340.446 180.609C315.205 174.318 307.69 151.313 307.63 151.073L310.235 150.264L308.947 150.684L310.235 150.264C310.294 150.474 317.391 172.071 341.135 177.973C341.284 178.002 341.464 178.062 341.614 178.092L340.985 180.728C340.775 180.698 340.626 180.639 340.446 180.609Z" fill="#122544"/>
<path d="M343.38 182.256L341.015 181.657C339.817 181.358 339.069 180.13 339.368 178.901C339.668 177.703 340.895 176.954 342.123 177.254L344.488 177.853C345.686 178.152 346.435 179.381 346.135 180.609C345.806 181.837 344.578 182.556 343.38 182.256Z" fill="#F99746"/>
<path d="M322.181 94.6676C322.181 94.6676 350.267 90.2942 361.884 113.629C370.717 131.392 363.352 142.476 359.878 145.891C359.878 145.891 355.297 120.369 346.704 118.182C346.704 118.182 341.165 116.505 337.392 120.878C333.619 125.252 328.17 144.782 321.882 147.778C321.882 147.778 302.42 152.571 301.462 145.801C300.504 139.031 304.755 120.369 305.953 114.528C309.187 98.7715 322.181 94.6676 322.181 94.6676Z" fill="#2C3A64"/>
<path d="M313.319 170.993L311.492 171.353C303.558 172.94 295.773 167.758 294.156 159.85L292.269 150.564C290.653 142.626 295.833 134.807 303.797 133.22L305.624 132.86C313.558 131.273 321.343 136.455 322.96 144.363L324.846 153.649C326.433 161.587 321.253 169.405 313.319 170.993Z" fill="#F99746"/>
<path d="M299.456 137.503C298.258 135.556 296.521 120.01 301.282 107.608C303.588 101.617 307.3 98.2025 312.001 95.896C313.678 95.0572 315.594 94.6079 317.511 94.6079L322.211 94.6678C306.731 100.539 303.138 131.992 304.366 135.347C304.336 135.257 304.276 135.167 304.246 135.107L299.456 137.503Z" fill="#F99746"/>
<path d="M309.127 161.887L308.229 162.067C304.276 162.875 300.384 160.269 299.605 156.345L298.677 151.732C297.869 147.778 300.444 143.884 304.426 143.075L305.324 142.895C309.276 142.087 313.169 144.693 313.947 148.617L314.876 153.23C315.654 157.214 313.079 161.108 309.127 161.887Z" fill="#FFC05C"/>
<path d="M273.975 360.369C273.975 360.369 273.167 339.28 258.076 286.29L277.868 277.813C277.868 277.813 284.485 322.116 305.594 336.045C326.643 349.944 351.435 347.039 354.429 360.489L273.975 360.369Z" fill="#F99746"/>
<path d="M274.783 211.941C274.783 211.941 257.417 213.439 245.8 233.958C234.182 254.478 194.958 350.513 212.085 360.368H305.025C305.025 360.368 306.851 352.4 303.947 345.151L252.986 330.953C252.986 330.953 281.041 282.755 281.401 260.618C281.76 238.482 274.783 211.941 274.783 211.941Z" fill="#FFC05C"/>
<path d="M305.594 350.933C305.594 350.933 323.708 349.165 326.703 349.974C329.697 350.783 338.29 354.318 340.206 355.546C342.123 356.774 345.806 360.339 345.806 360.339C345.806 360.339 343.5 360.788 342.123 360.458C340.745 360.159 336.673 359.889 335.595 359.799C334.517 359.709 330.595 360.518 330.595 360.518H302.54L305.594 350.933Z" fill="#FFB27D"/>
<path d="M487.76 360.518H380.299C380.299 355.785 384.131 351.981 388.832 351.981H487.73V360.518H487.76Z" fill="black" fill-opacity="0.8"/>
<path d="M653.548 243.724L613.726 360.518H446.53L487.461 243.724H653.548Z" fill="black" fill-opacity="0.8"/>
<path d="M659.477 243.724L619.983 359.44L619.624 360.518H454.884L495.784 243.724H659.477Z" fill="#163A32"/>
<path d="M572.795 304.173C571.927 307.887 568.214 310.913 564.501 310.913C560.788 310.913 558.453 307.887 559.321 304.173C560.19 300.459 563.902 297.433 567.615 297.433C571.358 297.433 573.663 300.459 572.795 304.173Z" fill="#EBF3FA"/>
<path opacity="0.5" d="M659.477 243.724L619.983 359.44H544.29L636.601 243.724H659.477Z" fill="black" fill-opacity="0.8"/>
<path d="M693.162 362.316H14.0198C13.5706 362.316 13.1814 361.956 13.1814 361.477V361.057C13.1814 360.608 13.5407 360.219 14.0198 360.219H693.162C693.611 360.219 694 360.578 694 361.057V361.477C694 361.926 693.611 362.316 693.162 362.316Z" fill="#2E3552"/>
<path d="M572.932 79.6271C568.812 11.959 521.235 0.672852 477.532 0.672852C433.83 0.672852 391.108 23.3434 393.168 74.2293C394.051 96.2129 400.231 115.252 414.799 128.796L398.367 169.868L431.819 140.18C445.258 146.51 462.817 150.043 485.429 150.043C552.381 149.994 575.63 123.202 572.932 79.6271Z" fill="#F77D48"/>
<path d="M450.938 108.673H445.43V86.5479C445.43 83.9072 445.492 81.8135 445.617 80.2666C445.258 80.6416 444.812 81.0557 444.281 81.5088C443.766 81.9619 442.016 83.3994 439.031 85.8213L436.266 82.3291L446.344 74.4072H450.938V108.673ZM462.281 94.0713C462.281 80.665 467.742 73.9619 478.664 73.9619C480.383 73.9619 481.836 74.0947 483.023 74.3604V78.9541C481.836 78.6104 480.461 78.4385 478.898 78.4385C475.227 78.4385 472.469 79.4229 470.625 81.3916C468.781 83.3604 467.781 86.5166 467.625 90.8604H467.906C468.641 89.5947 469.672 88.6182 471 87.9307C472.328 87.2275 473.891 86.876 475.688 86.876C478.797 86.876 481.219 87.8291 482.953 89.7354C484.688 91.6416 485.555 94.2275 485.555 97.4932C485.555 101.087 484.547 103.931 482.531 106.024C480.531 108.103 477.797 109.142 474.328 109.142C471.875 109.142 469.742 108.556 467.93 107.384C466.117 106.196 464.719 104.478 463.734 102.228C462.766 99.9619 462.281 97.2432 462.281 94.0713ZM474.234 104.595C476.125 104.595 477.578 103.985 478.594 102.767C479.625 101.548 480.141 99.8057 480.141 97.54C480.141 95.5713 479.656 94.0244 478.688 92.8994C477.734 91.7744 476.297 91.2119 474.375 91.2119C473.188 91.2119 472.094 91.4697 471.094 91.9854C470.094 92.4854 469.305 93.1807 468.727 94.0713C468.148 94.9463 467.859 95.8447 467.859 96.7666C467.859 98.9697 468.453 100.829 469.641 102.345C470.844 103.845 472.375 104.595 474.234 104.595ZM512.836 108.673H489.609V104.501L498.445 95.6182C501.055 92.9463 502.781 91.0557 503.625 89.9463C504.484 88.8213 505.109 87.7666 505.5 86.7822C505.891 85.7979 506.086 84.7432 506.086 83.6182C506.086 82.0713 505.617 80.8525 504.68 79.9619C503.758 79.0713 502.477 78.626 500.836 78.626C499.523 78.626 498.25 78.8682 497.016 79.3525C495.797 79.8369 494.383 80.7119 492.773 81.9775L489.797 78.3447C491.703 76.7354 493.555 75.5947 495.352 74.9229C497.148 74.251 499.062 73.915 501.094 73.915C504.281 73.915 506.836 74.751 508.758 76.4229C510.68 78.0791 511.641 80.3135 511.641 83.126C511.641 84.6729 511.359 86.1416 510.797 87.5322C510.25 88.9229 509.398 90.3604 508.242 91.8447C507.102 93.3135 505.195 95.3057 502.523 97.8213L496.57 103.587V103.821H512.836V108.673ZM538.969 82.2822C538.969 84.4541 538.336 86.2666 537.07 87.7197C535.805 89.1572 534.023 90.126 531.727 90.626V90.8135C534.477 91.1572 536.539 92.0166 537.914 93.3916C539.289 94.751 539.977 96.5635 539.977 98.8291C539.977 102.126 538.812 104.673 536.484 106.47C534.156 108.251 530.844 109.142 526.547 109.142C522.75 109.142 519.547 108.524 516.938 107.29V102.392C518.391 103.11 519.93 103.665 521.555 104.056C523.18 104.446 524.742 104.642 526.242 104.642C528.898 104.642 530.883 104.149 532.195 103.165C533.508 102.181 534.164 100.657 534.164 98.5947C534.164 96.7666 533.438 95.4229 531.984 94.5635C530.531 93.7041 528.25 93.2744 525.141 93.2744H522.164V88.7979H525.188C530.656 88.7979 533.391 86.9072 533.391 83.126C533.391 81.6572 532.914 80.5244 531.961 79.7275C531.008 78.9307 529.602 78.5322 527.742 78.5322C526.445 78.5322 525.195 78.7197 523.992 79.0947C522.789 79.4541 521.367 80.165 519.727 81.2275L517.031 77.3838C520.172 75.0713 523.82 73.915 527.977 73.915C531.43 73.915 534.125 74.6572 536.062 76.1416C538 77.626 538.969 79.6729 538.969 82.2822Z" fill="#F8F8F8"/>
<path d="M471.141 52.6729H468.34V37.9424H463.301V35.54H476.18V37.9424H471.141V52.6729ZM484.184 52.9072C482.168 52.9072 480.59 52.3213 479.449 51.1494C478.316 49.9697 477.75 48.3486 477.75 46.2861C477.75 44.1689 478.277 42.5049 479.332 41.2939C480.387 40.083 481.836 39.4775 483.68 39.4775C485.391 39.4775 486.742 39.9971 487.734 41.0361C488.727 42.0752 489.223 43.5049 489.223 45.3252V46.8135H480.586C480.625 48.0713 480.965 49.04 481.605 49.7197C482.246 50.3916 483.148 50.7275 484.312 50.7275C485.078 50.7275 485.789 50.6572 486.445 50.5166C487.109 50.3682 487.82 50.126 488.578 49.79V52.0283C487.906 52.3486 487.227 52.5752 486.539 52.708C485.852 52.8408 485.066 52.9072 484.184 52.9072ZM483.68 41.5635C482.805 41.5635 482.102 41.8408 481.57 42.3955C481.047 42.9502 480.734 43.7588 480.633 44.8213H486.516C486.5 43.751 486.242 42.9424 485.742 42.3955C485.242 41.8408 484.555 41.5635 483.68 41.5635ZM495.105 52.6729H492.352V34.4385H495.105V52.6729ZM505.629 52.9072C503.988 52.9072 502.715 52.3174 501.809 51.1377H501.645C501.754 52.2314 501.809 52.8955 501.809 53.1299V58.4385H499.055V39.7119H501.281C501.344 39.9541 501.473 40.5322 501.668 41.4463H501.809C502.668 40.1338 503.957 39.4775 505.676 39.4775C507.293 39.4775 508.551 40.0635 509.449 41.2354C510.355 42.4072 510.809 44.0518 510.809 46.1689C510.809 48.2861 510.348 49.9385 509.426 51.126C508.512 52.3135 507.246 52.9072 505.629 52.9072ZM504.961 41.7275C503.867 41.7275 503.066 42.0479 502.559 42.6885C502.059 43.3291 501.809 44.3525 501.809 45.7588V46.1689C501.809 47.7471 502.059 48.8916 502.559 49.6025C503.059 50.3057 503.875 50.6572 505.008 50.6572C505.961 50.6572 506.695 50.2666 507.211 49.4854C507.727 48.7041 507.984 47.5908 507.984 46.1455C507.984 44.6924 507.727 43.5947 507.211 42.8525C506.703 42.1025 505.953 41.7275 504.961 41.7275Z" fill="#F8F8F8"/>
</svg>
