<svg width="456" height="317" viewBox="0 0 456 317" fill="none" xmlns="http://www.w3.org/2000/svg">
<path d="M339.751 21.2H289.551V93.9H339.751V21.2Z" fill="#E1E1E1"/>
<path d="M337.149 21.2H286.949V93.9H337.149V21.2Z" fill="#F5F5F5"/>
<path d="M330.95 29.0999H293.25V85.9998H330.95V29.0999Z" fill="white"/>
<path d="M330.951 86.0999C330.951 86.0999 330.951 85.9999 330.951 85.7999C330.951 85.5998 330.951 85.2998 330.951 84.9998C330.951 84.2998 330.951 83.1998 330.951 81.8998C330.951 79.1998 330.951 75.1999 330.951 70.1999C330.951 60.1999 330.951 45.8999 330.851 29.1999L330.951 29.2999C319.451 29.2999 306.651 29.2999 293.251 29.2999L293.351 29.1999C293.351 50.6999 293.351 70.4999 293.351 86.0999L293.251 85.9998C304.751 85.9998 314.151 85.9999 320.651 86.0999C323.951 86.0999 326.451 86.0999 328.251 86.0999C329.151 86.0999 329.751 86.0999 330.251 86.0999C330.651 85.9999 330.951 86.0999 330.951 86.0999C330.951 86.0999 330.751 86.0999 330.251 86.0999C329.751 86.0999 329.151 86.0999 328.251 86.0999C326.551 86.0999 323.951 86.0999 320.651 86.0999C314.051 86.0999 304.651 86.0998 293.151 86.1998H293.051V86.0999C293.051 70.3999 293.051 50.5999 293.051 29.1999V29.0999H293.151C306.551 29.0999 319.351 29.0999 330.851 29.0999H330.951V29.1999C330.951 45.9999 330.951 60.1999 330.851 70.2999C330.851 75.2999 330.851 79.2998 330.851 81.9998C330.851 83.2998 330.851 84.3999 330.851 85.0999C330.851 85.3999 330.851 85.6999 330.851 85.8999C330.951 85.9999 330.951 86.0999 330.951 86.0999Z" fill="#E1E1E1"/>
<path d="M337.25 21.2C337.25 21.2 336.95 21.6999 336.35 22.4999C335.75 23.2999 334.95 24.2999 333.95 25.4999C333.05 26.5999 332.15 27.6999 331.45 28.3999C330.75 29.0999 330.35 29.5999 330.35 29.4999C330.35 29.4999 330.65 29 331.35 28.2C332.05 27.4 332.85 26.3999 333.75 25.2999C334.65 24.1999 335.45 23.1999 336.15 22.3999C336.85 21.6999 337.25 21.2 337.25 21.2Z" fill="#E1E1E1"/>
<path d="M331.15 85.8999C333.05 88.8999 335.25 91.5999 337.75 94.0999L331.15 85.8999Z" fill="white"/>
<path d="M337.651 94.1C337.651 94.1 337.151 93.7 336.551 93.1C335.851 92.4 334.951 91.4 334.051 90.3C333.151 89.2 332.351 88.1 331.851 87.3C331.351 86.5 331.051 86 331.051 86C331.051 86 331.451 86.5 331.951 87.2C332.551 88 333.251 89 334.151 90.2C335.051 91.3 335.951 92.3 336.551 93C337.351 93.6 337.751 94.1 337.651 94.1Z" fill="#E1E1E1"/>
<path d="M286.949 93.8998C289.149 91.1998 291.349 88.4998 293.549 85.7998L286.949 93.8998Z" fill="white"/>
<path d="M293.55 85.7999C293.65 85.7999 292.15 87.6999 290.35 89.8999C288.55 92.0999 287.05 93.8999 286.95 93.8999C286.85 93.8999 288.35 91.9999 290.15 89.7999C291.95 87.4999 293.55 85.6999 293.55 85.7999Z" fill="#E1E1E1"/>
<path d="M286.949 21.2C287.049 21.2 288.449 22.8999 290.149 24.9999C291.849 27.1999 293.149 28.8999 293.149 28.9999C293.049 28.9999 291.649 27.3 289.949 25.2C288.249 23.1 286.949 21.3 286.949 21.2Z" fill="#E1E1E1"/>
<path d="M319.151 40.7H306.551V76.4999H319.151V40.7Z" fill="#E1E1E1"/>
<path d="M239.951 224.6C235.351 225.9 231.651 229.6 229.451 233.8C227.251 238.1 226.551 242.9 226.451 247.7C226.351 257 230.351 266.8 235.051 274.9C243.551 269.2 246.851 257.7 248.151 251.7C250.051 242.4 248.051 224.2 239.951 224.6Z" fill="#CCCCCC"/>
<path d="M224.051 288.9C225.951 283.9 224.551 278 220.951 273.9C217.451 269.9 212.051 267.7 206.751 267.4C204.251 267.3 201.551 267.7 199.851 269.5C198.351 271.2 198.151 273.9 198.951 276C199.751 278.2 201.451 279.9 203.151 281.4C209.451 286.4 216.251 290.2 224.051 288.9Z" fill="#CCCCCC"/>
<path d="M230.55 311.2C230.65 311.2 230.65 308.9 230.25 305.1C230.05 303.2 229.55 300.9 228.75 298.6C227.95 296.2 227.05 293.6 225.65 291C223.05 285.8 219.25 281.8 216.15 279.7C214.55 278.6 213.15 278 212.15 277.5C211.15 277.1 210.55 277 210.55 277C210.45 277.2 212.65 278 215.65 280.2C218.65 282.4 222.15 286.3 224.65 291.4C225.95 293.9 226.85 296.5 227.75 298.8C228.65 301.1 229.15 303.2 229.45 305.1C230.05 308.9 230.35 311.2 230.55 311.2Z" fill="#CCCCCC"/>
<path d="M240.251 238.6C240.151 238.6 239.951 239.7 239.551 241.6C239.151 243.6 238.651 246.4 238.051 249.9C236.851 256.9 235.251 266.6 233.851 277.4C232.351 288.2 231.351 298 230.751 305.1C230.451 308.7 230.251 311.5 230.151 313.5C230.051 315.5 230.051 316.6 230.051 316.6C230.151 316.6 230.251 315.5 230.551 313.5C230.751 311.3 231.151 308.5 231.451 305.1C232.251 298 233.351 288.3 234.851 277.5C236.351 266.8 237.751 257.2 238.751 250C239.251 246.6 239.651 243.8 239.951 241.6C240.151 239.7 240.251 238.6 240.251 238.6Z" fill="#CCCCCC"/>
<path d="M235.25 293.9C239.85 283.6 249.75 275.8 260.85 273.8C263.65 273.3 267.15 273.4 268.75 275.8C270.35 278.2 268.95 281.4 267.25 283.8C260.15 293.4 246.85 298 235.35 294.7" fill="#CCCCCC"/>
<path d="M256.95 281.2C256.95 281.1 256.35 281.3 255.35 281.5C254.35 281.8 252.95 282.3 251.15 282.9C247.65 284.3 242.85 286.4 238.55 290.3C236.45 292.3 234.75 294.5 233.55 296.7C232.35 298.9 231.65 301.1 231.25 302.9C230.85 304.8 230.65 306.3 230.65 307.3C230.65 308.4 230.65 308.9 230.75 308.9C230.95 308.9 231.05 306.6 231.95 303C232.45 301.2 233.15 299.2 234.35 297.1C235.55 295 237.15 292.9 239.25 291C243.35 287.2 248.05 285 251.45 283.5C254.85 282.2 256.95 281.4 256.95 281.2Z" fill="#CCCCCC"/>
<path d="M430.451 49.4001C430.451 49.4001 419.951 46.3001 415.751 70.4001C411.551 94.5001 411.151 107.8 411.151 107.8C411.151 107.8 409.651 113 405.851 111.1C401.951 109.2 395.351 102.3 390.751 105.3C385.951 108.4 385.951 114.9 389.651 123.2C393.351 131.6 400.651 150.2 401.351 151.9C401.951 153.6 401.751 156.4 398.951 155.5C396.051 154.6 377.951 143.7 373.251 152.6C368.551 161.5 382.651 183.2 384.151 185.6C385.651 188 385.451 189.3 384.451 190.3C383.451 191.3 377.651 187.1 372.351 184.2C367.051 181.3 360.451 178.9 358.151 184.2C355.851 189.6 360.151 207.7 385.951 231.4L398.651 241.6L413.951 236C446.051 221.9 455.951 206.2 455.551 200.3C455.151 194.5 448.051 194.6 442.151 195.6C436.151 196.6 429.351 198.8 428.751 197.5C428.051 196.2 428.351 194.9 430.551 193.2C432.751 191.4 453.051 175.5 451.551 165.5C450.051 155.5 429.251 160 426.251 159.9C423.251 159.8 423.951 157.1 425.151 155.8C426.351 154.4 439.351 139.2 445.451 132.5C451.651 125.8 453.751 119.7 450.251 115.2C446.851 110.8 438.351 115.2 434.051 115.7C429.751 116.3 430.051 110.9 430.051 110.9C430.051 110.9 434.051 98.2001 437.851 74.1001C441.651 49.9001 430.451 49.5001 430.451 49.5001" fill="#CCCCCC"/>
<path d="M426.65 71C426.65 71 426.65 71.2 426.55 71.5C426.55 71.9 426.45 72.4 426.35 73C426.15 74.3 425.85 76.3 425.45 78.7C424.75 83.7 423.55 90.9 422.15 99.7C419.25 117.4 415.15 141.9 410.45 169C405.75 196 401.55 220.5 398.55 238.2C397.05 247 395.85 254.2 395.05 259.2C394.65 261.7 394.35 263.6 394.05 264.9C393.95 265.5 393.85 266 393.75 266.4C393.65 266.7 393.65 266.9 393.65 266.9C393.65 266.9 393.65 266.7 393.75 266.4C393.85 266 393.85 265.5 393.95 264.9C394.15 263.6 394.45 261.6 394.85 259.2C395.55 254.2 396.75 247 398.15 238.2C401.05 220.5 405.15 196 409.85 168.9C414.55 141.9 418.75 117.4 421.75 99.7C423.25 90.9 424.45 83.7 425.25 78.7C425.65 76.2 425.95 74.3 426.25 73C426.35 72.4 426.45 71.9 426.55 71.5C426.65 71.1 426.65 71 426.65 71Z" fill="#CCCCCC"/>
<path d="M399.551 115.2C399.551 115.2 399.851 115.5 400.251 116.1C400.651 116.7 401.251 117.6 402.051 118.8C403.551 121.1 405.451 124.3 407.551 127.8C409.551 131.3 411.451 134.5 412.851 136.9C413.451 138 414.051 138.9 414.451 139.7C414.851 140.3 415.051 140.7 414.951 140.7C414.951 140.7 414.651 140.4 414.251 139.8C413.851 139.2 413.251 138.3 412.451 137.1C411.051 134.8 409.051 131.6 407.051 128.1C404.951 124.6 403.151 121.5 401.651 119C401.051 117.9 400.451 117 400.051 116.3C399.751 115.6 399.551 115.3 399.551 115.2Z" fill="#CCCCCC"/>
<path d="M416.55 140.6C416.45 140.5 422.85 136.2 430.85 131C438.85 125.8 445.35 121.7 445.45 121.8C445.55 121.9 439.15 126.2 431.15 131.4C423.15 136.6 416.65 140.7 416.55 140.6Z" fill="#CCCCCC"/>
<path d="M407.451 181.8C407.451 181.8 407.851 181.6 408.551 181.4C409.451 181.1 410.451 180.8 411.651 180.4C414.251 179.6 417.951 178.5 421.851 177.1C425.851 175.7 429.351 174.4 431.951 173.3C433.151 172.8 434.151 172.4 434.951 172.1C435.651 171.8 436.051 171.7 436.051 171.7C436.051 171.7 435.651 171.9 434.951 172.3C434.251 172.6 433.251 173.1 431.951 173.7C429.451 174.8 425.851 176.2 421.851 177.6C417.851 179 414.251 180.1 411.551 180.8C410.251 181.2 409.151 181.4 408.351 181.6C407.951 181.7 407.451 181.8 407.451 181.8Z" fill="#CCCCCC"/>
<path d="M387.051 162.2C387.051 162.2 387.351 162.4 387.951 162.9C388.451 163.4 389.251 164 390.251 164.9C392.151 166.6 394.751 169 397.551 171.6C400.351 174.3 402.951 176.7 404.751 178.5C405.651 179.4 406.351 180.1 406.851 180.6C407.351 181.1 407.651 181.4 407.551 181.4C407.551 181.4 407.251 181.2 406.651 180.7C406.151 180.2 405.351 179.6 404.351 178.7C402.451 177 399.851 174.6 397.051 172C394.251 169.3 391.651 166.9 389.851 165.1C388.951 164.2 388.251 163.5 387.751 163C387.351 162.5 387.051 162.2 387.051 162.2Z" fill="#CCCCCC"/>
<path d="M374.451 197.6C374.451 197.6 374.851 197.9 375.551 198.5C376.351 199.2 377.251 200 378.451 201C380.851 203.2 384.251 206.2 387.951 209.6C391.651 213 394.951 216 397.251 218.3C398.351 219.4 399.351 220.3 400.051 221C400.751 221.6 401.051 222 401.051 222C401.051 222 400.651 221.7 399.951 221.1C399.151 220.4 398.251 219.6 397.051 218.6C394.651 216.4 391.251 213.4 387.551 210C383.851 206.6 380.551 203.6 378.251 201.3C377.151 200.2 376.151 199.3 375.451 198.6C374.751 198 374.451 197.6 374.451 197.6Z" fill="#CCCCCC"/>
<path d="M400.551 221.2C400.551 221.2 401.051 221 401.951 220.6C402.951 220.2 404.251 219.8 405.851 219.3C409.151 218.2 413.751 216.6 418.651 214.7C423.651 212.8 428.151 211 431.351 209.6C432.851 209 434.151 208.4 435.151 208C436.051 207.6 436.551 207.4 436.551 207.5C436.551 207.5 436.051 207.8 435.251 208.2C434.351 208.6 433.051 209.2 431.451 209.9C428.251 211.3 423.851 213.2 418.851 215.1C413.851 217 409.251 218.5 405.951 219.6C404.251 220.1 402.951 220.5 401.951 220.8C401.151 221.1 400.551 221.2 400.551 221.2Z" fill="#CCCCCC"/>
<path d="M78.75 263C101.85 249.8 109.35 222.1 110.75 196.8C110.95 192.6 111.85 188.2 110.15 184.3C108.45 180.4 104.05 177.5 100.05 178.9C96.75 180.1 95.05 183.6 93.05 186.5C90.35 190.3 86.55 193.3 82.25 195C79.45 196.1 76.05 196.7 73.55 195C70.05 192.7 70.15 187.6 70.55 183.4C71.35 175.6 72.05 167.8 72.85 159.9C73.25 155.7 73.65 151.4 72.75 147.3C71.85 143.2 69.25 139.2 65.35 137.7C61.45 136.2 56.35 138.1 55.05 142.1C54.55 143.8 54.75 145.6 54.45 147.3C54.15 149 53.15 150.9 51.45 151.2C49.75 151.5 48.15 150.2 47.05 148.9C43.15 144.3 40.65 138.5 38.45 132.8C36.15 127.1 34.05 121.3 30.55 116.3C27.05 111.3 21.95 107.2 15.95 106.3C9.94998 105.4 3.24998 108.5 1.14998 114.3C-0.950021 120.1 1.94998 126.4 5.34998 131.5C10.25 139.1 16.25 146 23.15 151.9C24.35 153 25.75 154.1 26.05 155.7C26.75 158.6 23.75 161.1 20.95 161.8C17.75 162.6 14.35 161.9 11.05 162C7.74998 162.1 4.04998 163.2 2.54998 166.2C0.449979 170.3 3.64998 175.2 6.84998 178.4C13.35 184.9 21.05 190.3 29.35 194.3C32.35 195.7 35.45 197 37.75 199.4C40.05 201.8 41.15 205.7 39.45 208.5C37.65 211.3 33.75 211.9 30.55 211C27.35 210.1 24.65 208.1 21.65 206.6C16.05 203.9 8.54998 203.6 4.44998 208.3C1.74998 211.4 1.04998 215.9 1.94998 219.9C2.84998 223.9 5.04998 227.5 7.34998 230.9C15.65 242.6 26.65 252.4 39.65 258.3C52.75 264.2 64.95 266.6 78.75 263Z" fill="#CCCCCC"/>
<path d="M77.3496 281.7C77.3496 271.6 76.2496 259.6 73.6496 246.5C71.0496 233.4 67.1496 219.3 62.4496 204.6C61.2496 200.9 60.0496 197.3 58.9496 193.8C57.7496 190.2 56.6496 186.7 55.3496 183.4C52.7496 176.6 49.6496 170.3 46.5496 164.4C43.4496 158.5 40.3496 153 37.3496 147.9C34.3496 142.8 31.4496 138.1 28.6496 133.9C23.0496 125.5 17.7496 119.3 13.9496 115.2C12.0496 113.1 10.5496 111.6 9.44961 110.6C8.94961 110.1 8.54961 109.7 8.24961 109.4C7.94961 109.1 7.84961 109 7.84961 109C7.84961 109 7.94961 109.2 8.24961 109.4C8.54961 109.7 8.94961 110.1 9.34961 110.6C10.3496 111.7 11.8496 113.3 13.7496 115.3C17.4496 119.5 22.6496 125.7 28.2496 134.1C31.0496 138.3 33.8496 143 36.8496 148.1C39.8496 153.2 42.9496 158.7 45.9496 164.6C49.0496 170.5 52.0496 176.8 54.6496 183.5C55.9496 186.9 57.1496 190.3 58.2496 193.9C59.4496 197.5 60.5496 201.1 61.7496 204.7C66.4496 219.3 70.4496 233.4 73.0496 246.5C75.6496 259.5 76.8496 271.5 76.8496 281.6" fill="#CCCCCC"/>
<path d="M55.0508 183.3C55.1508 183.3 55.3508 182.7 55.6508 181.5C55.9508 180.4 56.3508 178.7 56.8508 176.6C57.8508 172.5 58.9508 166.7 60.2508 160.4C61.4508 154.1 62.7508 148.3 63.7508 144.2C64.2508 142.1 64.6508 140.5 65.0508 139.4C65.3508 138.3 65.5508 137.6 65.4508 137.6C65.3508 137.6 65.1508 138.2 64.7508 139.3C64.3508 140.4 63.8508 142.1 63.2508 144.1C62.0508 148.2 60.7508 153.9 59.4508 160.2C58.2508 166.5 57.1508 172.1 56.2508 176.4C55.8508 178.4 55.5508 180 55.2508 181.3C55.1508 182.6 55.0508 183.3 55.0508 183.3Z" fill="#CCCCCC"/>
<path d="M2.05078 168.3C2.05078 168.4 2.85078 168.5 4.15078 168.8C5.55078 169.1 7.55078 169.4 9.95078 169.9C14.8508 170.9 21.5508 172.5 28.8508 174.6C36.1508 176.7 42.7508 178.9 47.4508 180.6C49.8508 181.4 51.6508 182.2 52.9508 182.7C54.2508 183.2 54.9508 183.5 55.0508 183.4C55.0508 183.3 54.3508 183 53.1508 182.4C51.8508 181.8 50.0508 181 47.6508 180.1C42.9508 178.2 36.4508 176 29.0508 173.9C21.6508 171.8 14.9508 170.3 9.95078 169.4C7.45078 169 5.45078 168.7 4.05078 168.5C2.75078 168.3 2.05078 168.2 2.05078 168.3Z" fill="#CCCCCC"/>
<path d="M73.0508 245.5C73.0508 245.5 73.2508 245.3 73.4508 244.9C73.7508 244.4 74.1508 243.8 74.5508 243C75.4508 241.4 76.8508 239 78.3508 236C81.5508 230.1 85.6508 221.7 90.0508 212.4C94.4508 203.1 98.5508 194.7 101.551 188.7C103.051 185.8 104.251 183.4 105.151 181.6C105.551 180.8 105.851 180.2 106.151 179.7C106.351 179.3 106.451 179 106.451 179C106.451 179 106.251 179.2 106.051 179.6C105.751 180.1 105.351 180.7 104.951 181.5C104.051 183.1 102.651 185.5 101.151 188.5C97.9508 194.4 93.8508 202.8 89.4508 212.1C85.0508 221.4 80.9508 229.8 77.9508 235.8C76.4508 238.7 75.2508 241.1 74.3508 242.9C73.9508 243.7 73.6508 244.3 73.3508 244.8C73.1508 245.2 73.0508 245.4 73.0508 245.5Z" fill="#CCCCCC"/>
<path d="M3.44922 215.8C3.44922 215.8 3.64922 215.9 4.14922 216.2C4.64922 216.4 5.34922 216.7 6.14922 217.1C8.04922 217.9 10.5492 219 13.6492 220.3C19.9492 223 28.5492 226.8 38.1492 231.1C47.7492 235.3 56.3492 239.1 62.7492 241.7C65.9492 243 68.5492 244 70.3492 244.7C71.1492 245 71.8492 245.2 72.4492 245.5C72.9492 245.7 73.1492 245.7 73.1492 245.7C73.1492 245.7 72.9492 245.6 72.4492 245.3C71.9492 245.1 71.2492 244.8 70.4492 244.4C68.5492 243.6 66.0492 242.5 62.9492 241.2C56.6492 238.5 48.0492 234.7 38.4492 230.4C28.8492 226.2 20.2492 222.4 13.8492 219.8C10.6492 218.5 8.04922 217.5 6.24922 216.8C5.44922 216.5 4.74922 216.2 4.14922 216C3.74922 215.8 3.44922 215.7 3.44922 215.8Z" fill="#CCCCCC"/>
<path d="M340.65 89.7001C340.65 89.7001 326.85 90.2001 318.95 103C311.05 115.8 313.05 139.5 315.15 145.6C317.15 151.7 312.85 158.9 306.25 163C299.65 167.1 274.55 198.5 294.55 209C314.45 219.5 395.95 221 400.75 212.8C405.45 204.6 389.15 64.4001 340.65 89.7001Z" fill="#19120E"/>
<path d="M436.85 316.7C436.85 316.8 339.45 317 219.35 317C99.15 317 1.75 316.9 1.75 316.7C1.75 316.6 99.15 316.4 219.35 316.4C339.45 316.4 436.85 316.5 436.85 316.7Z" fill="#1A2E35"/>
<path d="M412.051 299C420.051 297.7 427.551 300.1 435.451 301.9C437.551 302.4 439.851 302.8 441.951 302.2C445.351 301.3 447.851 298 448.351 294.5C448.851 291.5 448.051 288.3 446.351 285.7C445.651 284.6 444.751 283.6 443.651 283C442.451 282.3 441.151 282.1 439.851 282C435.051 281.5 430.151 282.6 425.751 284.7C421.351 286.8 417.451 289.8 414.051 293.2C412.351 294.8 412.851 296.7 412.051 299Z" fill="#1A2E35"/>
<path d="M249.849 169.8C248.549 162.2 248.749 154.4 250.349 146.8C251.149 143.1 252.249 139.5 254.349 136.3C255.049 135.2 256.049 134.1 257.249 133.5C258.949 132.8 261.049 133.4 262.449 134.7C264.249 136.4 264.949 139 264.949 141.4C264.849 143.9 264.049 146.2 263.149 148.5C260.049 156.7 255.149 163.2 249.849 169.8Z" fill="#1A2E35"/>
<path d="M404.85 198.8C406.65 200.1 446.95 286.7 446.95 286.7C443.75 285.3 440.15 285 436.75 285.7L434.55 286.3C430.65 287.3 426.95 289 423.55 291.3L412.05 299.1C411.15 298.6 410.55 297.6 410.45 296.6V296.3L379.25 242.8L404.85 198.8Z" fill="#FBB03B"/>
<path d="M253.95 60.9001L264.65 121.8C268.15 130 308.35 179.7 308.35 179.7L295.05 222.4L242.25 150.1C237.35 144.9 234.65 137.9 234.85 130.7L236.95 65.6002L253.95 60.9001Z" fill="#FFBF9D"/>
<path d="M311.05 170.2L338.65 172.3L362.75 176C362.75 176 404.95 187.1 404.95 191.7C404.95 193.2 393.45 229.9 386.95 251.9C384.15 261.4 383.05 268.1 383.05 268.1L404.85 316.6H301.05V272.1C301.05 272.1 294.05 213.8 295.25 205.8C296.45 197.8 311.05 170.2 311.05 170.2Z" fill="#FBB03B"/>
<path d="M240.951 36.3001C241.151 30.1001 241.751 23.9001 242.851 17.8001C243.051 16.9001 243.351 15.9001 244.251 15.8001C245.351 15.7001 245.851 17.0001 246.051 18.1001C247.051 25.4001 246.651 33.0001 245.151 40.2001" fill="#FF9A6C"/>
<path d="M253.25 165.3C265.05 154.7 265.45 136.4 264.45 121.8C264.35 120.7 264.25 119.5 264.95 118.7C266.05 117.1 268.85 117.7 269.95 119.3C271.05 120.9 270.95 123.1 270.85 125C271.45 123.3 274.05 123.3 275.25 124.6C276.45 125.9 276.65 127.8 276.85 129.6C276.95 131.2 277.15 132.9 277.25 134.5L311.85 167.5C311.85 167.5 312.85 164.5 315.35 166.2C317.85 167.9 319.55 171.6 319.55 171.6L295.05 224.8L249.85 169.8C249.85 169.8 251.25 167.1 253.25 165.3Z" fill="#FBB03B"/>
<path d="M300.151 202.1C296.651 206.8 293.751 212 292.251 217.6C290.751 223.2 290.651 229.4 292.751 234.8C295.651 242.5 302.951 248.4 311.051 249.6" fill="#FBB03B"/>
<path d="M412.05 299L410.75 316.7H436.35L442.35 285.4C434.55 285 426.85 287.4 420.65 292.2L412.05 299Z" fill="#FFBF9D"/>
<path d="M265.25 161.4C265.25 161.4 265.45 160.9 265.85 160C266.25 159.1 266.75 157.8 267.35 156.2C267.95 154.6 268.65 152.6 269.25 150.4C269.85 148.2 270.35 145.7 270.75 143.1C271.15 140.5 271.35 138 271.35 135.7C271.35 133.4 271.35 131.3 271.25 129.6C271.15 127.9 270.95 126.5 270.85 125.5C270.75 124.5 270.65 124 270.75 124C270.75 124 270.95 124.5 271.05 125.5C271.25 126.5 271.45 127.9 271.65 129.6C271.85 131.3 271.95 133.4 271.95 135.7C271.95 138 271.75 140.5 271.35 143.2C270.95 145.8 270.35 148.3 269.75 150.5C269.15 152.7 268.45 154.7 267.75 156.3C267.05 157.9 266.45 159.2 266.05 160.1C265.55 161 265.25 161.4 265.25 161.4Z" fill="#1A2E35"/>
<path d="M272.751 152.1C272.651 152.1 273.151 151.1 273.851 149.6C274.551 148 275.351 145.8 275.851 143.3C276.451 140.8 276.651 138.5 276.751 136.8C276.851 135.1 276.851 134.1 276.951 134.1C277.051 134.1 277.151 135.1 277.151 136.9C277.151 138.6 276.951 141 276.351 143.5C275.751 146.1 274.851 148.3 274.151 149.8C273.451 151.3 272.851 152.2 272.751 152.1Z" fill="#1A2E35"/>
<path d="M313.451 179.8C313.351 179.8 313.751 179.1 314.051 177.9C314.351 176.7 314.251 175 313.751 173.3C313.251 171.5 312.451 170 312.051 168.9C311.551 167.8 311.251 167.1 311.351 167C311.451 167 311.751 167.6 312.351 168.7C312.951 169.8 313.751 171.3 314.251 173.1C314.751 174.9 314.751 176.7 314.351 178C313.951 179.2 313.451 179.8 313.451 179.8Z" fill="#1A2E35"/>
<path d="M307.35 250.2C307.35 250.2 307.15 250.1 306.95 250C306.65 249.8 306.25 249.5 305.75 249.2C304.75 248.5 303.25 247.5 301.55 246.1C299.85 244.7 297.85 243 295.95 240.7C294.05 238.4 292.45 235.6 291.65 232.2C290.85 228.9 290.75 225.6 291.05 222.7C291.35 219.8 292.05 217.2 292.75 215.1C293.45 213 294.15 211.4 294.65 210.2C294.95 209.6 295.15 209.2 295.25 208.9C295.35 208.6 295.45 208.5 295.45 208.5C295.45 208.5 295.25 209.1 294.75 210.3C294.35 211.4 293.65 213.1 293.05 215.2C292.45 217.3 291.75 219.8 291.45 222.7C291.15 225.6 291.25 228.8 292.05 232C292.85 235.2 294.45 238 296.25 240.3C298.05 242.5 300.05 244.3 301.75 245.7C303.45 247.1 304.85 248.2 305.85 248.9C306.25 249.2 306.65 249.5 306.95 249.8C307.25 250.1 307.45 250.2 307.35 250.2Z" fill="#1A2E35"/>
<path d="M364.051 260.1C364.051 260.1 363.951 260.2 363.651 260.3C363.351 260.4 362.951 260.5 362.351 260.6C361.251 260.9 359.551 261.1 357.451 261.2C353.351 261.4 347.351 260.4 341.851 257C336.451 253.5 332.951 248.6 331.351 244.8C330.551 242.9 330.051 241.3 329.751 240.1C329.651 239.5 329.551 239.1 329.451 238.8C329.451 238.5 329.351 238.3 329.451 238.3C329.451 238.3 329.651 238.9 329.951 240C330.251 241.1 330.751 242.7 331.651 244.6C333.351 248.3 336.751 253.2 342.051 256.6C347.351 260 353.251 261 357.351 260.9C359.451 260.9 361.051 260.7 362.251 260.5C363.451 260.2 364.051 260.1 364.051 260.1Z" fill="#1A2E35"/>
<path d="M379.951 279.6C379.851 279.6 381.151 274 382.951 267.3C384.751 260.5 386.251 255 386.451 255.1C386.551 255.1 385.251 260.7 383.451 267.4C381.651 274.1 380.051 279.6 379.951 279.6Z" fill="#1A2E35"/>
<path d="M393.951 267.8C393.851 267.9 389.851 261.3 384.951 253.1C380.151 244.9 376.251 238.2 376.451 238.2C376.551 238.1 380.551 244.7 385.451 252.9C390.251 261.1 394.051 267.7 393.951 267.8Z" fill="#1A2E35"/>
<path d="M432.251 284C432.251 284.1 430.751 284.2 428.551 284.8C427.451 285.1 426.051 285.5 424.651 286.1C423.251 286.7 421.651 287.5 420.151 288.4C418.651 289.4 417.251 290.4 416.151 291.5C415.051 292.6 414.051 293.6 413.251 294.5C411.751 296.3 411.051 297.6 410.951 297.5C410.951 297.5 411.051 297.2 411.451 296.6C411.751 296 412.351 295.2 413.051 294.3C413.751 293.3 414.751 292.3 415.851 291.2C417.051 290.1 418.351 289 419.951 288.1C421.451 287.1 423.051 286.4 424.551 285.8C426.051 285.2 427.351 284.8 428.551 284.6C429.751 284.4 430.651 284.2 431.351 284.2C431.951 284 432.251 284 432.251 284Z" fill="#1A2E35"/>
<path d="M437.15 278C437.15 278.1 435.55 277.9 432.95 278.1C431.65 278.2 430.15 278.5 428.55 278.9C426.95 279.4 425.15 280 423.35 280.8C421.65 281.7 420.05 282.7 418.75 283.8C417.45 284.9 416.35 285.9 415.45 286.9C413.75 288.8 412.95 290.2 412.85 290.2C412.85 290.2 413.05 289.8 413.35 289.2C413.55 288.9 413.75 288.5 414.05 288.1C414.35 287.7 414.65 287.2 415.15 286.7C415.95 285.7 417.05 284.6 418.45 283.5C419.75 282.4 421.35 281.4 423.15 280.4C424.95 279.5 426.75 278.9 428.45 278.5C430.15 278.1 431.65 277.9 432.95 277.8C433.65 277.7 434.15 277.8 434.75 277.8C435.25 277.8 435.75 277.8 436.05 277.9C436.75 277.9 437.15 278 437.15 278Z" fill="#1A2E35"/>
<g opacity="0.3">
<g opacity="0.3">
<g opacity="0.3">
<path opacity="0.3" d="M330.551 240.4C328.151 244.9 330.151 250.3 332.351 254.9C334.051 258.4 335.851 262 338.951 264.5C341.951 266.9 345.951 268 349.751 267.5C353.551 267 357.151 264.8 359.351 261.6C346.651 261.7 334.351 253 330.151 241" fill="black"/>
</g>
</g>
</g>
<g opacity="0.3">
<g opacity="0.3">
<g opacity="0.3">
<path opacity="0.3" d="M376.45 238.2C374.65 242.5 376.05 248.4 377.85 252.6C379.75 256.9 381.751 261.6 380.251 266C379.951 266.8 379.55 267.7 379.65 268.5C379.75 269.4 380.65 270.2 381.45 269.8C381.85 269.6 382.051 269 382.251 268.6C383.651 264.3 385.05 260 386.55 255.8" fill="black"/>
</g>
</g>
</g>
<path d="M281.851 181.7C281.751 181.7 282.151 178.1 282.851 173.7C283.551 169.3 284.251 165.8 284.351 165.8C284.451 165.8 284.051 169.4 283.351 173.8C282.651 178.2 281.951 181.7 281.851 181.7Z" fill="#FAFAFA"/>
<path d="M271.35 179.5C271.25 179.6 269.55 177.2 267.15 174.4C264.75 171.6 262.65 169.6 262.75 169.5C262.85 169.4 265.15 171.3 267.55 174.1C269.85 176.9 271.45 179.4 271.35 179.5Z" fill="#FAFAFA"/>
<path d="M280.351 153.7C280.451 153.7 279.951 154.4 279.251 155.5C278.451 156.6 277.351 158 276.051 159.5C274.751 161 273.551 162.3 272.551 163.3C271.651 164.2 271.051 164.8 270.951 164.7C270.851 164.6 273.051 162.2 275.651 159.2C278.251 156.2 280.251 153.7 280.351 153.7Z" fill="#FAFAFA"/>
<path d="M276.85 141.2C276.75 141.3 276.15 140 275.05 138.7C273.95 137.4 272.75 136.7 272.85 136.5C272.95 136.4 274.25 137 275.45 138.3C276.55 139.7 276.95 141.1 276.85 141.2Z" fill="#FAFAFA"/>
<path d="M267.751 148.9C267.751 149 266.651 149.3 265.151 149.6C263.651 149.8 262.451 149.9 262.451 149.8C262.451 149.7 263.551 149.4 265.051 149.1C266.451 148.8 267.651 148.8 267.751 148.9Z" fill="#FAFAFA"/>
<path d="M290.751 160C290.551 160 290.951 157.9 290.451 155.3C289.951 152.8 288.651 151 288.851 150.9C288.951 150.8 290.451 152.5 290.951 155.2C291.451 157.9 290.851 160.1 290.751 160Z" fill="#FAFAFA"/>
<path d="M303.051 173.2C302.951 173.3 301.851 171.2 299.851 169.1C297.851 167.1 295.751 166 295.851 165.9C295.851 165.8 298.151 166.7 300.251 168.8C302.251 170.9 303.151 173.2 303.051 173.2Z" fill="#FAFAFA"/>
<path d="M283.251 196.2C283.251 196.3 281.251 197.1 278.651 197C276.051 196.9 274.051 196 274.051 195.9C274.051 195.7 276.051 196.4 278.651 196.5C281.251 196.5 283.251 196 283.251 196.2Z" fill="#FAFAFA"/>
<path d="M292.551 200.9C292.451 200.8 293.151 198.5 293.851 195.6C294.551 192.7 294.751 190.3 294.951 190.3C295.051 190.3 295.051 192.8 294.351 195.7C293.651 198.7 292.651 201 292.551 200.9Z" fill="#FAFAFA"/>
<path d="M312.75 201.7C312.65 201.8 310.65 199.8 308.35 197.3C306.05 194.8 304.25 192.6 304.35 192.5C304.45 192.4 306.45 194.4 308.75 196.9C311.05 199.5 312.85 201.6 312.75 201.7Z" fill="#FAFAFA"/>
<path d="M322.151 225.1C322.051 225.2 320.551 223.9 318.851 222.1C317.151 220.3 315.851 218.8 315.951 218.7C316.051 218.6 317.551 219.9 319.251 221.7C321.051 223.5 322.251 225 322.151 225.1Z" fill="#FAFAFA"/>
<path d="M304.65 227.3C304.75 227.4 303.05 228.9 300.65 230.3C298.25 231.7 296.05 232.4 296.05 232.3C295.95 232.2 298.05 231.3 300.45 229.9C302.75 228.5 304.55 227.2 304.65 227.3Z" fill="#FAFAFA"/>
<path d="M312.751 249.5C312.551 249.5 313.151 246.8 313.451 243.5C313.751 240.2 313.651 237.5 313.851 237.5C313.951 237.5 314.351 240.2 314.051 243.5C313.651 247 312.851 249.6 312.751 249.5Z" fill="#FAFAFA"/>
<path d="M343.051 231.5C342.951 231.6 340.851 230.1 338.751 227.7C336.651 225.3 335.451 223 335.551 222.9C335.651 222.8 337.051 225 339.151 227.4C341.151 229.7 343.151 231.3 343.051 231.5Z" fill="#FAFAFA"/>
<path d="M354.151 240.9C354.051 240.8 355.551 238.7 357.251 236.1C358.951 233.4 360.251 231.2 360.351 231.3C360.451 231.4 359.451 233.7 357.751 236.4C355.951 239 354.251 241 354.151 240.9Z" fill="#FAFAFA"/>
<path d="M352.451 217.8C352.451 217.9 350.151 217.4 347.351 216.7C344.551 216 342.351 215.2 342.451 215.1C342.451 215 344.751 215.5 347.551 216.2C350.351 217 352.551 217.7 352.451 217.8Z" fill="#FAFAFA"/>
<path d="M344.45 258.4C344.35 258.4 344.35 256.3 344.45 253.7C344.65 251.1 344.85 249 344.95 249C345.05 249 345.05 251.1 344.95 253.7C344.85 256.3 344.55 258.4 344.45 258.4Z" fill="#FAFAFA"/>
<path d="M351.45 272.3C351.35 272.2 352.35 270.2 352.75 267.4C353.15 264.6 352.65 262.3 352.85 262.3C352.95 262.3 353.65 264.6 353.25 267.5C352.85 270.4 351.55 272.4 351.45 272.3Z" fill="#FAFAFA"/>
<path d="M333.351 269.3C333.251 269.3 332.951 267 333.451 264.1C333.951 261.3 335.151 259.2 335.251 259.3C335.351 259.4 334.451 261.5 333.951 264.2C333.351 267 333.451 269.3 333.351 269.3Z" fill="#FAFAFA"/>
<path d="M316.85 276.3C316.75 276.4 314.75 274.7 312.15 272.7C309.55 270.7 307.45 269.1 307.55 269C307.65 268.9 309.95 270.3 312.55 272.3C315.05 274.3 316.95 276.2 316.85 276.3Z" fill="#FAFAFA"/>
<path d="M327.95 256.7C328.05 256.8 325.35 258.4 322.05 260.1C318.75 261.9 316.05 263.2 315.95 263C315.85 262.9 318.55 261.3 321.85 259.6C325.15 257.9 327.95 256.6 327.95 256.7Z" fill="#FAFAFA"/>
<path d="M362.65 300.7C362.65 300.7 362.45 300.8 362.05 300.9C361.65 301 360.95 301.1 360.15 301.2C358.55 301.5 356.15 301.7 353.15 301.7C350.15 301.7 346.65 301.2 342.85 300.2C339.05 299.2 334.95 297.5 331.15 295.1C327.25 292.7 324.05 289.7 321.45 286.8C318.85 283.8 316.95 280.8 315.55 278.1C314.15 275.4 313.35 273.2 312.85 271.6C312.55 270.8 312.45 270.2 312.35 269.8C312.25 269.4 312.15 269.2 312.25 269.1C312.25 269.1 312.35 269.3 312.45 269.7C312.55 270.1 312.75 270.7 313.05 271.5C313.55 273.1 314.45 275.3 315.85 277.9C317.25 280.5 319.15 283.5 321.75 286.4C324.35 289.3 327.55 292.2 331.35 294.6C335.15 297 339.15 298.6 342.95 299.6C346.75 300.6 350.25 301.1 353.15 301.2C356.15 301.3 358.45 301.1 360.15 300.9C360.95 300.8 361.65 300.7 362.05 300.6C362.45 300.7 362.65 300.7 362.65 300.7Z" fill="#1A2E35"/>
<path d="M332.851 295.6C332.751 295.6 332.351 293.4 333.351 290.9C334.251 288.4 336.051 286.9 336.151 287C336.251 287.1 334.751 288.6 333.851 291.1C332.851 293.4 332.951 295.6 332.851 295.6Z" fill="#FAFAFA"/>
<path d="M324.551 292.1C324.651 292.2 323.151 293 321.951 294.6C320.751 296.2 320.451 297.8 320.351 297.8C320.251 297.8 320.251 296 321.551 294.3C322.851 292.6 324.551 292 324.551 292.1Z" fill="#FAFAFA"/>
<path d="M356.25 311C356.25 311.1 353.95 310.9 351.65 309.5C349.35 308.1 348.15 306.1 348.25 306C348.35 305.9 349.65 307.6 351.95 309C354.15 310.4 356.25 310.8 356.25 311Z" fill="#FAFAFA"/>
<path d="M361.15 283.3C361.25 283.3 360.95 285.4 359.35 287.3C357.75 289.2 355.75 289.8 355.75 289.7C355.65 289.6 357.45 288.8 358.95 286.9C360.55 285.1 361.05 283.2 361.15 283.3Z" fill="#FAFAFA"/>
<path d="M375.15 303.9C375.05 303.8 376.35 302.1 377.55 299.8C378.75 297.5 379.45 295.5 379.55 295.5C379.65 295.5 379.25 297.7 377.95 300C376.75 302.4 375.25 304 375.15 303.9Z" fill="#FAFAFA"/>
<path d="M393.651 306.6C393.751 306.7 391.851 307.5 390.051 309C388.251 310.5 387.151 312.1 386.951 312C386.851 311.9 387.751 310.1 389.651 308.6C391.651 307 393.651 306.5 393.651 306.6Z" fill="#FAFAFA"/>
<path d="M379.551 282.9C379.351 282.9 378.551 280 376.651 276.8C374.851 273.5 372.751 271.3 372.951 271.2C372.951 271.2 373.551 271.7 374.351 272.6C375.151 273.5 376.151 274.9 377.151 276.6C378.051 278.3 378.751 279.8 379.151 281C379.451 282.2 379.551 282.9 379.551 282.9Z" fill="#FAFAFA"/>
<path d="M382.35 253.2C382.35 253.3 380.25 253.9 377.65 254.6C374.95 255.2 372.85 255.6 372.75 255.5C372.75 255.4 374.85 254.8 377.45 254.1C380.05 253.4 382.25 253 382.35 253.2Z" fill="#FAFAFA"/>
<path d="M373.751 244.3C373.651 244.4 372.251 242.8 370.651 240.8C369.051 238.8 367.851 237.1 367.951 237C368.051 236.9 369.451 238.5 371.051 240.5C372.751 242.5 373.951 244.2 373.751 244.3Z" fill="#FAFAFA"/>
<path d="M394.851 238.9C394.851 239 392.651 238.9 390.051 238.3C387.451 237.7 385.451 236.8 385.451 236.7C385.551 236.6 387.551 237.2 390.151 237.8C392.751 238.4 394.851 238.8 394.851 238.9Z" fill="#FAFAFA"/>
<path d="M409.85 238.7C409.75 238.6 410.55 236.8 411.35 234.5C412.15 232.2 412.75 230.3 412.85 230.3C412.95 230.3 412.65 232.3 411.85 234.6C411.05 237 409.95 238.7 409.85 238.7Z" fill="#FAFAFA"/>
<path d="M406.45 259C406.45 259.1 404.35 258.6 402.05 257.3C399.75 256 398.35 254.4 398.45 254.3C398.55 254.2 400.15 255.6 402.35 256.9C404.55 258.1 406.55 258.8 406.45 259Z" fill="#FAFAFA"/>
<path d="M416.251 258.4C416.151 258.4 416.651 255.7 417.351 252.5C418.051 249.3 418.851 246.6 418.951 246.7C419.051 246.7 418.551 249.4 417.851 252.6C417.051 255.8 416.351 258.4 416.251 258.4Z" fill="#FAFAFA"/>
<path d="M408.05 281.1C407.95 281.2 406.35 279.2 404.55 276.7C402.75 274.2 401.35 272.1 401.45 272C401.55 271.9 403.15 273.9 404.95 276.4C406.85 278.9 408.25 281 408.05 281.1Z" fill="#FAFAFA"/>
<path d="M421.951 272.4C421.851 272.5 420.851 270.7 419.451 268.6C418.051 266.6 416.651 265.1 416.751 265C416.851 264.9 418.451 266.2 419.851 268.3C421.351 270.4 422.151 272.4 421.951 272.4Z" fill="#FAFAFA"/>
<path d="M434.95 270.4C434.85 270.5 433.55 268.5 431.75 266.2C429.95 263.9 428.45 262.1 428.55 262C428.65 261.9 430.35 263.5 432.15 265.9C433.95 268.3 435.15 270.4 434.95 270.4Z" fill="#FAFAFA"/>
<path d="M431.951 279.1C431.751 279.1 431.851 277.4 430.751 275.7C429.651 274 428.051 273.4 428.051 273.3C428.051 273.2 428.551 273.3 429.151 273.6C429.751 273.9 430.551 274.5 431.151 275.4C431.751 276.3 432.051 277.3 432.051 278C432.151 278.7 431.951 279.1 431.951 279.1Z" fill="#FAFAFA"/>
<path d="M421.751 290.9C421.651 290.9 421.651 290.6 421.651 290.3C421.551 290 421.351 289.5 420.951 289.2C420.551 288.9 420.051 288.8 419.651 288.8C419.251 288.8 419.051 288.9 419.051 288.8C419.051 288.7 419.151 288.5 419.651 288.4C420.051 288.3 420.751 288.3 421.351 288.7C421.951 289.1 422.051 289.8 422.051 290.2C422.051 290.7 421.851 290.9 421.751 290.9Z" fill="#FAFAFA"/>
<path d="M317.75 309.8C317.75 309.9 315.15 308.9 312.75 306.6C310.35 304.2 309.35 301.6 309.55 301.6C309.65 301.5 310.85 303.9 313.15 306.2C315.45 308.5 317.85 309.7 317.75 309.8Z" fill="#FAFAFA"/>
<path d="M254.05 61.6C252.45 46.4 249.55 32.1 248.75 17.2C248.75 16.5 248.65 15.6 248.05 15.1C247.25 14.5 245.95 15 245.45 15.9C244.95 16.8 244.95 17.9 244.95 18.9C244.95 26.8 243.65 34.7 240.95 42.2C239.25 47 236.95 51.7 235.65 56.7C234.35 61.7 236.75 63.4 239.05 68" fill="#FFBF9D"/>
<path d="M239.15 67.9001C235.15 64.9001 233.05 59.6001 233.85 54.7001C234.35 51.7001 235.85 49.0001 237.05 46.2001C238.25 43.4001 239.15 40.3001 238.45 37.3001C238.15 36.2001 237.65 35.1001 237.65 33.9001C237.65 32.7001 238.35 31.4001 239.55 31.4001C240.45 31.4001 241.15 32.0001 241.75 32.7001C243.65 35.1001 245.25 42.2001 244.25 47.4001" fill="#FFBF9D"/>
<path d="M244.15 47.5C244.05 47.5 244.25 46.7001 244.35 45.2001C244.35 43.7001 244.35 41.6001 243.85 39.1001C243.55 37.8001 243.25 36.4 242.65 35C242.35 34.3 242.05 33.6 241.55 33C241.05 32.4 240.45 31.8001 239.65 31.7001C238.85 31.6001 238.25 32.3001 237.95 33.1001C237.65 33.9001 237.85 34.8001 238.15 35.7001C238.45 36.6001 238.75 37.5 238.85 38.5C238.95 39.5 238.95 40.5 238.75 41.5C238.05 45.6 235.85 48.8001 234.75 52.1001C234.15 53.7001 233.85 55.3 233.85 56.8C233.85 58.3 234.05 59.7 234.45 61C235.25 63.5 236.45 65.2001 237.45 66.3C238.45 67.4 239.05 67.8 239.05 67.9C239.05 67.9 238.85 67.8001 238.55 67.6001C238.25 67.4001 237.75 67 237.25 66.5C236.25 65.5 234.85 63.7001 234.05 61.2001C233.65 59.9001 233.35 58.5 233.35 56.9C233.35 55.3 233.65 53.7 234.25 52C235.35 48.7 237.45 45.4 238.15 41.5C238.35 40.5 238.35 39.6001 238.25 38.6001C238.15 37.7001 237.85 36.8 237.55 35.9C237.25 35 237.05 34 237.45 33C237.65 32.5 237.85 32.1 238.25 31.8C238.65 31.5 239.15 31.3 239.65 31.3C240.65 31.4 241.35 32.1 241.85 32.8C242.35 33.5 242.75 34.2 243.05 35C243.65 36.5 243.95 37.9001 244.25 39.2001C244.75 41.8001 244.75 44 244.65 45.4C244.55 46.1 244.55 46.7001 244.45 47.1001C244.25 47.3001 244.15 47.5 244.15 47.5Z" fill="#FF9A6C"/>
<path d="M26.25 249.5L10.75 316.7L43.45 316.8L58.45 257.7L26.25 249.5Z" fill="#C78976"/>
<path d="M186.351 167C183.251 162.8 179.651 158.9 178.051 153.9C177.251 151.5 176.951 149 176.151 146.6C175.351 144.2 173.751 141.9 171.451 141.1C169.151 140.2 167.351 141.1 165.851 142.8L154.551 175.5L161.051 200.6C167.451 199.1 175.551 197.4 181.551 194.7C187.551 192 191.551 187.7 191.951 181.1C192.251 176 189.451 171.2 186.351 167Z" fill="#1A2E35"/>
<path d="M84.5492 161.2C84.5492 161.2 45.6492 178.1 40.7492 185.8C35.8492 193.4 19.9492 247.9 19.9492 247.9L60.9492 260L60.2492 316.7H160.749L159.949 216.7L147.349 161.4C147.349 161.4 125.149 160 123.149 159C120.949 158 84.5492 161.2 84.5492 161.2Z" fill="#28523E"/>
<path d="M222.75 22.6002C223.05 20.3002 221.45 17.8002 222.65 15.8002C223.25 14.7002 224.55 14.2002 225.75 13.7002C226.35 13.5002 227.05 13.2002 227.65 13.2002C228.35 13.2002 229.05 13.6002 229.25 14.2002C229.55 14.9002 229.05 15.7002 228.45 16.3002C227.95 16.8002 227.25 17.3002 226.95 18.0002C226.55 19.0002 226.95 22.0002 227.35 22.9002C228.05 24.5002 230.45 31.8002 230.65 33.6002" fill="#C78976"/>
<path d="M214.549 23.4C214.649 19.9 217.549 6.30005 217.649 2.80005C219.949 3.50005 221.349 6.00005 221.849 8.40005C222.349 10.8 222.049 13.3001 222.449 15.7001C223.049 18.9001 224.649 21.9001 226.449 24.7001C228.149 27.5 229.949 30.4001 230.649 33.6001C231.449 36.8001 234.349 45.1 232.049 47.5" fill="#C78976"/>
<path d="M213.95 46.8L200.05 112.9C199.55 115.9 147.35 161.4 147.35 161.4L157.65 202.6L225.75 136.1C230.65 130.9 233.35 123.9 233.15 116.7L231.95 54.7001L213.95 46.8Z" fill="#C78976"/>
<path d="M211.549 23.8001L213.949 46.8001L231.949 54.7001C231.949 54.7001 232.149 53.1001 232.949 45.1001C233.849 36.3001 224.349 32.5001 220.149 26.1001C218.349 23.3001 218.849 18.2001 217.449 11.9001C217.249 11.2001 216.249 6.80012 215.749 4.40012C215.449 3.10012 214.749 1.90013 213.549 1.20013C212.749 0.700126 211.849 0.400126 211.149 1.20013C210.449 1.90013 211.549 23.8001 211.549 23.8001Z" fill="#C78976"/>
<path d="M222.75 50.7001C224.75 49.0001 225.25 45.9001 224.45 43.3001C223.65 40.7001 221.95 38.6001 220.25 36.5001C218.45 34.5001 216.65 32.5001 215.55 30.0001C214.75 28.3001 214.45 26.4001 213.55 24.7001C212.75 23.0001 211.15 21.5001 209.25 21.4001C210.75 30.9001 210.75 36.4001 213.85 46.8001" fill="#C78976"/>
<path d="M211.15 32.2001C211.15 32.2001 211.05 31.9001 210.95 31.4001C210.85 30.8001 210.65 30.1001 210.45 29.2001C210.05 27.2001 209.45 24.6001 208.85 21.7001L208.75 21.4001H209.05C210.25 21.3001 211.45 21.8001 212.45 22.7001C214.05 24.0001 214.75 25.9001 215.25 27.5001C215.75 29.1001 216.25 30.6001 216.85 31.7001C217.45 32.8001 218.15 33.5001 218.65 34.1001C219.05 34.7001 219.25 35.0001 219.25 35.0001C219.25 35.0001 218.95 34.7001 218.45 34.2001C217.95 33.7001 217.15 33.0001 216.55 31.8001C215.85 30.7001 215.35 29.2001 214.85 27.6001C214.35 26.0001 213.65 24.3001 212.15 23.0001C211.25 22.2001 210.15 21.8001 209.15 21.9001L209.35 21.6001C210.65 27.7001 211.35 32.2001 211.15 32.2001Z" fill="#8A503F"/>
<path d="M219.25 26.4002C219.15 26.4002 218.35 22.2002 217.55 17.0002C216.75 11.8002 216.25 7.60024 216.45 7.50024C216.55 7.50024 217.35 11.7002 218.15 16.9002C218.85 22.1002 219.45 26.3002 219.25 26.4002Z" fill="#8A503F"/>
<path d="M224.949 27.1002C224.949 27.1002 225.049 27.2001 225.049 27.5001H224.849C224.549 26.7001 223.749 24.1001 223.049 21.0001C222.649 19.1001 222.349 17.3001 222.149 16.0001C221.949 14.7001 221.849 13.9001 221.949 13.9001C222.049 13.9001 222.749 17.0001 223.549 20.9001C224.249 24.0001 224.849 26.6001 225.049 27.5001H224.849C224.949 27.2001 224.949 27.1002 224.949 27.1002Z" fill="#8A503F"/>
<path d="M228.549 39.8001C228.449 39.8001 228.149 39.3001 227.349 38.5001C226.649 37.7001 225.449 36.8001 224.049 36.1001C222.549 35.4001 221.149 35.1001 220.149 35.0001C219.049 34.9001 218.449 35.0001 218.449 34.9001C218.449 34.8001 219.049 34.6001 220.149 34.6001C221.249 34.6001 222.749 34.8001 224.349 35.6001C225.849 36.3001 227.049 37.4001 227.749 38.2001C228.349 39.1001 228.549 39.8001 228.549 39.8001Z" fill="#8A503F"/>
<path d="M215.55 48.6C215.45 48.6 215.05 47.6 214.35 45.9C213.75 44.2 212.95 41.8 212.25 39C211.65 36.3 211.15 33.8 210.95 32C210.75 30.2 210.75 29 210.75 29C210.85 29 210.95 30.1 211.25 31.9C211.55 33.7 212.05 36.2 212.65 38.9C213.25 41.6 214.05 44 214.55 45.8C215.25 47.5 215.65 48.6 215.55 48.6Z" fill="#8A503F"/>
<path d="M135.051 162.6C136.751 159.8 140.851 158.9 143.551 160.6C150.851 154.6 158.351 148.8 165.751 142.8C163.351 154.8 161.751 171.5 167.151 182.5C167.151 182.5 173.951 195.1 184.651 193.2L175.051 202.7L159.851 216.8" fill="#28523E"/>
<path d="M132.649 168.2C132.549 168.2 132.649 166 134.049 163.7C135.449 161.4 137.349 160.2 137.449 160.4C137.549 160.5 135.849 161.8 134.549 164C133.149 166.2 132.849 168.2 132.649 168.2Z" fill="#1A2E35"/>
<path d="M140.649 175.6C140.649 175.6 140.149 174.8 139.849 173.4C139.449 172 139.349 169.9 139.649 167.7C140.049 165.5 140.949 163.6 141.749 162.4C142.549 161.2 143.249 160.6 143.249 160.6C143.349 160.7 142.749 161.3 142.049 162.6C141.349 163.8 140.549 165.6 140.149 167.8C139.749 169.9 139.849 171.9 140.149 173.3C140.349 174.7 140.649 175.5 140.649 175.6Z" fill="#1A2E35"/>
<path d="M177.35 201.3C177.35 201.3 176.55 201.8 174.95 202.3C173.35 202.7 170.85 202.9 167.95 202.1C165.05 201.3 161.95 199.2 159.55 196.1C157.05 193 155.45 188.8 154.55 184.4C152.85 175.5 152.85 167.2 153.35 161.3C153.55 158.3 153.95 156 154.15 154.3C154.25 153.5 154.45 152.8 154.45 152.4C154.55 152 154.55 151.7 154.65 151.8C154.65 151.8 154.65 152 154.55 152.5C154.45 153 154.45 153.6 154.35 154.4C154.15 156 153.85 158.4 153.65 161.4C153.25 167.3 153.25 175.5 154.95 184.4C155.85 188.8 157.45 192.8 159.85 195.9C162.15 199 165.15 201 167.95 201.9C170.75 202.8 173.25 202.6 174.85 202.3C176.55 201.7 177.35 201.2 177.35 201.3Z" fill="#FAFAFA"/>
<path d="M61.05 276.8C60.95 276.8 60.75 262.6 60.75 245.1C60.75 227.6 60.85 213.4 61.05 213.4C61.15 213.4 61.35 227.6 61.35 245.1C61.35 262.6 61.25 276.8 61.05 276.8Z" fill="#1A2E35"/>
<path d="M60.2496 202.3C60.1496 202.3 60.1496 200.9 59.6496 198.7C59.4496 197.6 58.9496 196.3 58.4496 194.9C57.8496 193.5 57.0496 192.1 55.9496 190.7C54.8496 189.3 53.7496 188.2 52.5496 187.2C51.3496 186.3 50.2496 185.5 49.2496 185C47.2496 183.9 45.8496 183.6 45.8496 183.5C45.8496 183.5 46.2496 183.5 46.8496 183.7C47.1496 183.8 47.5496 183.9 47.9496 184.1C48.3496 184.3 48.8496 184.4 49.3496 184.7C50.3496 185.2 51.5496 185.9 52.7496 186.8C53.9496 187.8 55.1496 188.9 56.2496 190.3C57.3496 191.7 58.1496 193.2 58.7496 194.6C59.3496 196 59.7496 197.3 59.9496 198.5C60.0496 199.1 60.1496 199.6 60.1496 200C60.2496 200.5 60.2496 200.8 60.2496 201.2C60.3496 202 60.3496 202.3 60.2496 202.3Z" fill="#1A2E35"/>
<path d="M60.2508 247.5C60.2508 247.6 51.9508 245 41.8508 241.7C31.7508 238.3 23.5508 235.5 23.5508 235.4C23.5508 235.3 31.8508 237.9 41.9508 241.2C52.0508 244.6 60.2508 247.4 60.2508 247.5Z" fill="#FAFAFA"/>
<path d="M158.95 233.7C158.95 233.8 136.85 234.1 109.65 234.2C82.4496 234.3 60.3496 234.3 60.3496 234.1C60.3496 234 82.3496 233.7 109.65 233.6C136.85 233.5 158.95 233.5 158.95 233.7Z" fill="#FAFAFA"/>
<path d="M159.449 242.4C159.449 242.5 137.249 242.7 109.949 242.7C82.6492 242.7 60.4492 242.6 60.4492 242.4C60.4492 242.2 82.6492 242.1 109.949 242.1C137.249 242.1 159.449 242.2 159.449 242.4Z" fill="#FAFAFA"/>
<path d="M145.851 253C145.851 253 145.751 253.3 145.551 253.8C145.351 254.4 145.051 255.1 144.651 256.1C144.451 256.6 144.251 257.1 143.951 257.7C143.651 258.3 143.351 258.9 143.051 259.6C142.351 261 141.751 262.5 140.751 264.2C140.251 265 139.851 265.9 139.351 266.8C138.851 267.7 138.251 268.6 137.651 269.6C136.551 271.5 135.151 273.5 133.651 275.5C130.651 279.5 127.051 283.8 122.951 287.9C118.751 292 114.451 295.4 110.351 298.4C108.251 299.8 106.251 301.2 104.351 302.3C103.351 302.9 102.451 303.4 101.551 303.9C100.651 304.4 99.7508 304.8 98.8508 305.3C97.1508 306.2 95.5508 306.9 94.2508 307.5C93.5508 307.8 92.9508 308.1 92.3508 308.4C91.7508 308.6 91.1508 308.8 90.6508 309C89.6508 309.4 88.9508 309.6 88.3508 309.9C87.8508 310.1 87.5508 310.2 87.5508 310.2C87.5508 310.2 87.8508 310.1 88.3508 309.8C88.9508 309.6 89.6508 309.3 90.6508 308.9C91.1508 308.7 91.6508 308.5 92.2508 308.2C92.8508 307.9 93.4508 307.6 94.1508 307.3C95.5508 306.6 97.0508 306 98.7508 305C99.5508 304.6 100.451 304.1 101.351 303.6C102.251 303.1 103.151 302.5 104.151 302C106.051 300.9 108.051 299.5 110.151 298.1C114.251 295.2 118.551 291.7 122.651 287.7C126.751 283.6 130.351 279.4 133.351 275.4C134.751 273.3 136.251 271.4 137.351 269.5C137.951 268.6 138.551 267.7 139.051 266.8C139.551 265.9 140.051 265 140.551 264.2C141.551 262.6 142.251 261 142.951 259.7C143.251 259 143.651 258.4 143.851 257.8C144.151 257.2 144.351 256.7 144.551 256.2C144.951 255.3 145.251 254.5 145.551 254C145.651 253.2 145.851 253 145.851 253Z" fill="#1A2E35"/>
<path d="M92.3502 82.9C92.3502 82.9 73.6502 88.2 72.2502 107.1C70.8502 126 71.2502 150 71.2502 150C71.2502 150 87.9502 153.6 106.85 152.6C125.75 151.6 137.95 146.5 137.95 146.5C137.95 146.5 152.15 65.3 92.3502 82.9Z" fill="black"/>
<g opacity="0.3">
<g opacity="0.3">
<g opacity="0.3">
<path opacity="0.3" d="M141.751 261.7C135.051 269.9 127.951 275.8 118.151 279.6C113.451 281.4 108.451 282.7 103.851 284.8C99.2509 287 94.9509 290.2 92.9509 294.9C91.3509 298.5 92.1509 303.9 95.9509 304.7C97.4509 305 98.9509 304.5 100.251 304C119.851 296.9 132.651 279 141.751 261.7Z" fill="black"/>
</g>
</g>
</g>
<path d="M215.55 261.6C218.35 262 220.85 263.8 222.55 266.1C224.25 268.4 225.15 271.2 225.55 274C226.45 279.4 224.95 285.6 222.95 290.8C217.35 288.2 214.45 281.7 213.15 278.4C211.25 273 210.75 262.1 215.55 261.6Z" fill="#009245"/>
<path d="M231.25 298.5C229.45 295.8 229.55 292.2 231.05 289.4C232.55 286.6 235.35 284.6 238.45 283.7C239.85 283.3 241.55 283.2 242.75 284C243.85 284.8 244.35 286.3 244.15 287.7C243.95 289.1 243.25 290.3 242.45 291.4C239.45 295.1 235.95 298.2 231.25 298.5Z" fill="#009245"/>
<path d="M229.849 315.7C229.849 315.7 229.749 315.3 229.649 314.6C229.549 313.9 229.449 312.8 229.449 311.5C229.349 308.9 229.249 305.1 230.049 301.1C230.949 297.1 232.849 293.7 234.749 291.8C235.649 290.8 236.549 290.2 237.249 289.8C237.849 289.4 238.249 289.2 238.249 289.3C238.349 289.4 236.849 290.2 235.049 292.1C233.249 294 231.449 297.3 230.649 301.2C229.749 305.1 229.849 308.8 229.849 311.5C229.849 314.1 229.949 315.7 229.849 315.7Z" fill="#009245"/>
<path d="M216.85 269.9C216.85 269.9 217.15 270.5 217.55 271.7C217.95 272.9 218.55 274.5 219.25 276.6C220.65 280.8 222.45 286.6 224.25 293C226.05 299.5 227.55 305.4 228.55 309.6C229.05 311.7 229.45 313.5 229.75 314.7C230.05 315.9 230.15 316.6 230.05 316.6C230.05 316.6 229.85 316 229.45 314.8C229.15 313.5 228.65 311.8 228.15 309.8C227.05 305.6 225.45 299.7 223.65 293.2C221.85 286.7 220.15 280.9 218.85 276.7C218.25 274.7 217.75 273 217.35 271.7C217.05 270.6 216.85 269.9 216.85 269.9Z" fill="#009245"/>
<path d="M223.85 303.7C221.15 297.5 215.25 292.9 208.65 291.6C206.95 291.3 204.85 291.3 203.95 292.8C203.05 294.2 203.85 296.2 204.85 297.5C209.05 303.3 216.95 306 223.85 304.1" fill="#009245"/>
<path d="M210.551 296.4C210.551 296.4 210.951 296.4 211.651 296.5C212.051 296.5 212.451 296.6 212.951 296.8C213.451 296.9 214.051 297.1 214.651 297.3C215.851 297.7 217.251 298.3 218.751 299.2C220.151 300.1 221.751 301.2 223.151 302.6C224.551 304 225.751 305.5 226.651 306.9C227.551 308.3 228.251 309.7 228.651 310.9C228.951 311.5 229.051 312.1 229.251 312.5C229.451 313 229.551 313.4 229.551 313.8C229.651 314.5 229.751 314.9 229.651 314.9C229.551 314.9 229.251 313.4 228.251 311.1C227.751 309.9 227.051 308.6 226.151 307.2C225.251 305.8 224.051 304.4 222.751 303.1C221.351 301.8 219.951 300.7 218.551 299.8C217.151 298.9 215.751 298.3 214.651 297.8C212.051 296.8 210.551 296.5 210.551 296.4Z" fill="#009245"/>
<path d="M107.951 184C84.5508 187.5 80.3508 170.1 79.5508 163.5L87.2508 160.1L87.5508 148.8L87.6508 137.9V129.8L119.451 128.8L120.251 137.7L121.051 147.1L121.851 158.7L128.951 160.2C129.851 167.2 128.951 180.8 107.951 184Z" fill="#C78976"/>
<path d="M344.551 188.6C326.651 187.3 323.351 177.8 322.551 171.2L329.551 171.5L329.751 161.5L329.851 149.9V148.9V140.8L361.651 139.8L362.451 148.7L362.351 149L361.451 153.1L361.251 160.9L360.851 175.4L370.851 178.1C372.051 185.2 361.151 189.7 344.551 188.6Z" fill="#FFBF9D"/>
<path opacity="0.4" d="M121.051 147.1C116.751 149 107.351 152.5 98.8508 152.2C92.2508 152 89.0508 150.2 87.5508 148.8L87.6508 137.9L120.251 137.7L121.051 147.1Z" fill="#5B3F39"/>
<path d="M103.451 149.8C118.151 149.8 130.251 137.8 130.251 123V110.6C130.251 109.6 130.151 108.6 130.051 107.6C128.551 94.3001 117.151 83.8 103.451 83.8C89.6506 83.8 78.1506 94.4 76.8506 107.8C76.7506 108.7 76.7506 109.6 76.7506 110.5V122.9C76.6506 137.8 88.7506 149.8 103.451 149.8Z" fill="#C78976"/>
<path d="M103.65 116.4C103.95 117.2 104.25 118 104.55 118.8C104.95 119.9 105.35 121 105.45 122.1C105.55 123.2 105.25 124.5 104.35 125.3C103.75 125.8 103.05 126.1 102.25 126.4" stroke="#150600" stroke-width="0.7601" stroke-miterlimit="10" stroke-linecap="round"/>
<path d="M93.25 114.9C94.05 113.6 95.55 112.9 96.95 113.1C98.55 113.3 99.35 114.6 99.55 114.8" stroke="#5C1A25" stroke-width="0.75" stroke-miterlimit="10" stroke-linecap="round" stroke-linejoin="round"/>
<path d="M108.15 114.9C108.95 113.6 110.45 112.9 111.85 113.1C113.45 113.3 114.25 114.6 114.45 114.8" stroke="#5C1A25" stroke-width="0.75" stroke-miterlimit="10" stroke-linecap="round" stroke-linejoin="round"/>
<path d="M119.05 125.1C120.928 125.1 122.45 123.578 122.45 121.7C122.45 119.822 120.928 118.3 119.05 118.3C117.173 118.3 115.65 119.822 115.65 121.7C115.65 123.578 117.173 125.1 119.05 125.1Z" fill="#D64B3C"/>
<path d="M88.2496 125.1C90.1274 125.1 91.6496 123.578 91.6496 121.7C91.6496 119.822 90.1274 118.3 88.2496 118.3C86.3718 118.3 84.8496 119.822 84.8496 121.7C84.8496 123.578 86.3718 125.1 88.2496 125.1Z" fill="#D64B3C"/>
<path d="M95.25 127.7C95.85 132.1 99.85 134 102.55 134.3C105.35 134.6 108.55 132.4 110.65 128.4C106.05 129.9 100.25 130.4 95.25 127.7Z" fill="#FFF6EB"/>
<path d="M69.75 118.2C69.75 121.7 72.55 124.5 76.05 124.5C79.55 124.5 82.35 121.7 82.35 118.2C82.35 114.7 79.55 111.9 76.05 111.9C72.55 111.9 69.75 114.7 69.75 118.2Z" fill="#C78976"/>
<path d="M77.2508 115.2C75.8508 114.2 74.0508 114.8 73.0508 116.4L77.2508 115.2Z" fill="#C78976"/>
<path d="M125.15 118.2C125.15 121.7 127.95 124.5 131.45 124.5C134.95 124.5 137.75 121.7 137.75 118.2C137.75 114.7 134.95 111.9 131.45 111.9C127.95 111.9 125.15 114.7 125.15 118.2Z" fill="#C78976"/>
<path d="M130.75 115.2C132.15 114.2 133.95 114.8 134.95 116.4L130.75 115.2Z" fill="#C78976"/>
<path opacity="0.2" d="M362.45 149L361.55 153.1L361.35 160.9C358.65 162.3 353.75 163.9 345.65 163.7C335.95 163.5 331.65 162.2 329.75 161.4L329.85 149.8L362.45 149Z" fill="#19120E"/>
<path d="M345.751 160.7C360.451 160.7 372.551 148.7 372.551 133.9V121.5C372.551 120.5 372.451 119.5 372.351 118.5C370.851 105.2 359.451 94.7 345.751 94.7C331.951 94.7 320.451 105.3 319.151 118.7C319.051 119.6 319.051 120.5 319.051 121.4V133.8C319.051 148.6 331.051 160.7 345.751 160.7Z" fill="#FFBF9D"/>
<path d="M345.951 127.2C346.251 128 346.551 128.8 346.851 129.6C347.251 130.7 347.651 131.8 347.751 132.9C347.851 134 347.551 135.3 346.651 136.1C346.051 136.6 345.351 136.9 344.551 137.2" stroke="#D64B3C" stroke-width="0.7601" stroke-miterlimit="10" stroke-linecap="round"/>
<path d="M335.65 125.7C336.45 124.4 337.95 123.7 339.35 123.9C340.95 124.1 341.75 125.4 341.95 125.6" stroke="#5C1A25" stroke-width="0.75" stroke-miterlimit="10" stroke-linecap="round" stroke-linejoin="round"/>
<path d="M350.451 125.7C351.251 124.4 352.751 123.7 354.151 123.9C355.751 124.1 356.551 125.4 356.751 125.6" stroke="#5C1A25" stroke-width="0.75" stroke-miterlimit="10" stroke-linecap="round" stroke-linejoin="round"/>
<path d="M361.351 135.9C363.229 135.9 364.751 134.378 364.751 132.5C364.751 130.622 363.229 129.1 361.351 129.1C359.473 129.1 357.951 130.622 357.951 132.5C357.951 134.378 359.473 135.9 361.351 135.9Z" fill="#EF8B7B"/>
<path d="M330.55 135.9C332.428 135.9 333.95 134.378 333.95 132.5C333.95 130.622 332.428 129.1 330.55 129.1C328.673 129.1 327.15 130.622 327.15 132.5C327.15 134.378 328.673 135.9 330.55 135.9Z" fill="#EF8B7B"/>
<path d="M337.65 138.6C338.25 143 342.25 144.9 344.95 145.2C347.75 145.5 350.95 143.3 353.05 139.3C348.35 140.7 342.55 141.2 337.65 138.6Z" fill="#FFF6EB"/>
<path d="M312.051 129C312.051 132.5 314.851 135.3 318.351 135.3C321.851 135.3 324.651 132.5 324.651 129C324.651 125.5 321.851 122.7 318.351 122.7C314.851 122.8 312.051 125.6 312.051 129Z" fill="#FFBF9D"/>
<path d="M319.552 126C318.152 125 316.352 125.6 315.352 127.2" stroke="#D64B3C" stroke-width="0.6463" stroke-miterlimit="10" stroke-linecap="round"/>
<path d="M367.451 129C367.451 132.5 370.251 135.3 373.751 135.3C377.251 135.3 380.051 132.5 380.051 129C380.051 125.5 377.251 122.7 373.751 122.7C370.251 122.8 367.451 125.6 367.451 129Z" fill="#FFBF9D"/>
<path d="M373.051 126C374.451 125 376.251 125.6 377.251 127.2" stroke="#D64B3C" stroke-width="0.6463" stroke-miterlimit="10" stroke-linecap="round"/>
<path d="M318.65 122.3C318.65 122.3 329.35 121.2 334.45 117.1C337.15 114.9 341.65 106.2 341.65 106.2C341.65 106.2 354.45 117.1 362.35 120.1C370.25 123 372.55 122.8 372.55 122.8L378.85 117.9L364.65 93C364.65 93 336.15 93.3 335.25 93.4C334.35 93.5 325.15 103 325.15 103L316.75 118.2L318.65 122.3Z" fill="#19120E"/>
<path d="M74.8496 109.3C74.8496 109.3 78.6496 110.2 81.9496 110.1C85.2496 110 89.0496 109.2 89.0496 109.2L90.1496 94.9001L90.7496 108.9C90.7496 108.9 105.15 110 116.75 109C128.35 108 131.45 107.2 131.45 107.2C131.45 107.2 134.25 92.5001 121.65 87.4001C109.05 82.3001 91.3496 80.6001 84.5496 87.1001C77.7496 93.6001 74.8496 109.3 74.8496 109.3Z" fill="black"/>
</svg>
