<svg xmlns="http://www.w3.org/2000/svg" viewBox="0 0 1196.6 1021.87"><defs><style>.cls-1,.cls-2{fill:none;stroke:#ececec;stroke-miterlimit:10;}.cls-1{stroke-width:2.11px;}.cls-2{stroke-width:2.81px;}.cls-3{fill:#ececec;}.cls-4{fill:#193326;}.cls-13,.cls-5{fill:#024c27;}.cls-6{fill:#81b278;}.cls-7{fill:#ffc800;}.cls-8{fill:#1a2e35;}.cls-9{fill:#2b454e;}.cls-10{fill:#375a64;}.cls-11,.cls-13{opacity:0.1;}.cls-12{fill:#c8c8c8;}.cls-14{fill:#a8a8a8;}.cls-15{fill:#fff;}.cls-16{fill:#fdca00;}</style></defs><g id="Layer_2" data-name="Layer 2"><g id="Layer_3" data-name="Layer 3"><rect class="cls-1" x="598.3" y="209.45" width="74.33" height="31.41" transform="translate(1270.93 450.31) rotate(180)"/><rect class="cls-1" x="639.76" y="169.84" width="74.33" height="31.41" transform="translate(1353.86 371.1) rotate(180)"/><rect class="cls-1" x="681.06" y="209.45" width="74.33" height="31.41" transform="translate(1436.46 450.31) rotate(180)"/><rect class="cls-1" x="54.06" y="599.28" width="74.33" height="31.41" transform="translate(182.46 1229.97) rotate(180)"/><rect class="cls-1" x="12.6" y="559.67" width="74.33" height="31.41" transform="translate(99.53 1150.76) rotate(180)"/><rect class="cls-1" x="1068.21" y="599.28" width="74.33" height="31.41" transform="translate(2210.74 1229.97) rotate(-180)"/><polyline class="cls-2" points="482.71 912.8 482.71 560.07 557.75 457.66 557.75 265.85"/><path class="cls-2" d="M551.08,259.29a6.67,6.67,0,1,0,6.66-6.66A6.66,6.66,0,0,0,551.08,259.29Z"/><polyline class="cls-2" points="502.04 912.8 502.04 572.44 577.07 470.03 577.07 336.01"/><path class="cls-2" d="M570.4,329.46a6.67,6.67,0,1,0,6.67-6.67A6.67,6.67,0,0,0,570.4,329.46Z"/><line class="cls-2" x1="464.09" y1="912.8" x2="464.09" y2="445.69"/><path class="cls-2" d="M457.43,439a6.67,6.67,0,1,0,6.66-6.66A6.67,6.67,0,0,0,457.43,439Z"/><polyline class="cls-2" points="446.17 912.8 446.17 675.4 395.23 579.32 395.23 407.07"/><path class="cls-2" d="M388.56,400.4a6.67,6.67,0,1,0,6.67-6.66A6.67,6.67,0,0,0,388.56,400.4Z"/><polyline class="cls-2" points="428.35 912.8 428.35 685.66 368.3 579.45 368.3 466"/><path class="cls-2" d="M361.63,459.33a6.67,6.67,0,1,0,6.66-6.66A6.66,6.66,0,0,0,361.63,459.33Z"/><ellipse class="cls-3" cx="412.46" cy="974.19" rx="298.7" ry="47.68"/><rect class="cls-4" x="647.07" y="224.75" width="182.51" height="688.19"/><rect class="cls-5" x="829.58" y="224.75" width="335.89" height="688.19"/><rect class="cls-4" x="854.77" y="823.69" width="289.71" height="66.91"/><rect class="cls-6" x="866.96" y="834.74" width="164.91" height="5.65"/><rect class="cls-6" x="866.96" y="844.53" width="164.91" height="5.65"/><rect class="cls-6" x="866.96" y="854.32" width="164.91" height="5.65"/><rect class="cls-6" x="866.96" y="864.11" width="164.91" height="5.65"/><rect class="cls-6" x="866.96" y="873.9" width="164.91" height="5.65"/><path class="cls-7" d="M1061.93,840.34a5.6,5.6,0,1,1-5.6-5.6A5.6,5.6,0,0,1,1061.93,840.34Z"/><path class="cls-7" d="M1080.4,840.34a5.6,5.6,0,1,1-5.6-5.6A5.6,5.6,0,0,1,1080.4,840.34Z"/><path class="cls-7" d="M1098.86,840.34a5.6,5.6,0,1,1-5.6-5.6A5.6,5.6,0,0,1,1098.86,840.34Z"/><path class="cls-7" d="M1117.32,840.34a5.6,5.6,0,1,1-5.6-5.6A5.6,5.6,0,0,1,1117.32,840.34Z"/><path class="cls-7" d="M1135.78,840.34a5.6,5.6,0,1,1-5.6-5.6A5.6,5.6,0,0,1,1135.78,840.34Z"/><path class="cls-7" d="M1061.93,857.14a5.6,5.6,0,1,1-5.6-5.6A5.6,5.6,0,0,1,1061.93,857.14Z"/><path class="cls-7" d="M1080.4,857.14a5.6,5.6,0,1,1-5.6-5.6A5.6,5.6,0,0,1,1080.4,857.14Z"/><path class="cls-7" d="M1098.86,857.14a5.6,5.6,0,1,1-5.6-5.6A5.6,5.6,0,0,1,1098.86,857.14Z"/><path class="cls-7" d="M1117.32,857.14a5.6,5.6,0,1,1-5.6-5.6A5.6,5.6,0,0,1,1117.32,857.14Z"/><path class="cls-7" d="M1135.78,857.14a5.6,5.6,0,1,1-5.6-5.6A5.6,5.6,0,0,1,1135.78,857.14Z"/><circle class="cls-7" cx="1056.33" cy="873.94" r="5.6"/><path class="cls-7" d="M1080.4,873.94a5.6,5.6,0,1,1-5.6-5.6A5.6,5.6,0,0,1,1080.4,873.94Z"/><circle class="cls-7" cx="1093.26" cy="873.94" r="5.6"/><path class="cls-7" d="M1117.32,873.94a5.6,5.6,0,1,1-5.6-5.6A5.6,5.6,0,0,1,1117.32,873.94Z"/><path class="cls-7" d="M1135.78,873.94a5.6,5.6,0,1,1-5.6-5.6A5.59,5.59,0,0,1,1135.78,873.94Z"/><rect class="cls-8" x="1040.11" y="834.74" width="3.23" height="44.8"/><rect class="cls-4" x="854.77" y="743.05" width="289.71" height="66.91"/><rect class="cls-6" x="866.96" y="754.1" width="164.91" height="5.65"/><rect class="cls-6" x="866.96" y="763.89" width="164.91" height="5.65"/><rect class="cls-6" x="866.96" y="773.68" width="164.91" height="5.65"/><rect class="cls-6" x="866.96" y="783.47" width="164.91" height="5.65"/><rect class="cls-6" x="866.96" y="793.26" width="164.91" height="5.65"/><path class="cls-7" d="M1061.93,759.7a5.6,5.6,0,1,1-5.6-5.6A5.6,5.6,0,0,1,1061.93,759.7Z"/><path class="cls-7" d="M1080.4,759.7a5.6,5.6,0,1,1-5.6-5.6A5.6,5.6,0,0,1,1080.4,759.7Z"/><path class="cls-7" d="M1098.86,759.7a5.6,5.6,0,1,1-5.6-5.6A5.6,5.6,0,0,1,1098.86,759.7Z"/><path class="cls-7" d="M1117.32,759.7a5.6,5.6,0,1,1-5.6-5.6A5.6,5.6,0,0,1,1117.32,759.7Z"/><path class="cls-7" d="M1135.78,759.7a5.6,5.6,0,1,1-5.6-5.6A5.6,5.6,0,0,1,1135.78,759.7Z"/><path class="cls-7" d="M1061.93,776.5a5.6,5.6,0,1,1-5.6-5.6A5.59,5.59,0,0,1,1061.93,776.5Z"/><path class="cls-7" d="M1080.4,776.5a5.6,5.6,0,1,1-5.6-5.6A5.6,5.6,0,0,1,1080.4,776.5Z"/><path class="cls-7" d="M1098.86,776.5a5.6,5.6,0,1,1-5.6-5.6A5.6,5.6,0,0,1,1098.86,776.5Z"/><path class="cls-7" d="M1117.32,776.5a5.6,5.6,0,1,1-5.6-5.6A5.6,5.6,0,0,1,1117.32,776.5Z"/><path class="cls-7" d="M1135.78,776.5a5.6,5.6,0,1,1-5.6-5.6A5.59,5.59,0,0,1,1135.78,776.5Z"/><path class="cls-7" d="M1061.93,793.3a5.6,5.6,0,1,1-5.6-5.6A5.59,5.59,0,0,1,1061.93,793.3Z"/><path class="cls-7" d="M1080.4,793.3a5.6,5.6,0,1,1-5.6-5.6A5.6,5.6,0,0,1,1080.4,793.3Z"/><path class="cls-7" d="M1098.86,793.3a5.6,5.6,0,1,1-5.6-5.6A5.6,5.6,0,0,1,1098.86,793.3Z"/><path class="cls-7" d="M1117.32,793.3a5.6,5.6,0,1,1-5.6-5.6A5.6,5.6,0,0,1,1117.32,793.3Z"/><path class="cls-7" d="M1135.78,793.3a5.6,5.6,0,1,1-5.6-5.6A5.59,5.59,0,0,1,1135.78,793.3Z"/><rect class="cls-8" x="1040.11" y="754.1" width="3.23" height="44.8"/><rect class="cls-4" x="854.77" y="664.71" width="289.71" height="66.91"/><rect class="cls-6" x="866.96" y="673.46" width="164.91" height="5.65"/><rect class="cls-6" x="866.96" y="683.25" width="164.91" height="5.65"/><rect class="cls-6" x="866.96" y="693.04" width="164.91" height="5.65"/><rect class="cls-6" x="866.96" y="702.83" width="164.91" height="5.65"/><rect class="cls-6" x="866.96" y="712.62" width="164.91" height="5.65"/><circle class="cls-7" cx="1056.33" cy="679.06" r="5.6"/><path class="cls-7" d="M1080.4,679.06a5.6,5.6,0,1,1-5.6-5.6A5.6,5.6,0,0,1,1080.4,679.06Z"/><circle class="cls-7" cx="1093.26" cy="679.06" r="5.6"/><path class="cls-7" d="M1117.32,679.06a5.6,5.6,0,1,1-5.6-5.6A5.6,5.6,0,0,1,1117.32,679.06Z"/><path class="cls-7" d="M1135.78,679.06a5.6,5.6,0,1,1-5.6-5.6A5.59,5.59,0,0,1,1135.78,679.06Z"/><path class="cls-7" d="M1061.93,695.86a5.6,5.6,0,1,1-5.6-5.6A5.59,5.59,0,0,1,1061.93,695.86Z"/><path class="cls-7" d="M1080.4,695.86a5.6,5.6,0,1,1-5.6-5.6A5.6,5.6,0,0,1,1080.4,695.86Z"/><path class="cls-7" d="M1098.86,695.86a5.6,5.6,0,1,1-5.6-5.6A5.6,5.6,0,0,1,1098.86,695.86Z"/><path class="cls-7" d="M1117.32,695.86a5.6,5.6,0,1,1-5.6-5.6A5.6,5.6,0,0,1,1117.32,695.86Z"/><path class="cls-7" d="M1135.78,695.86a5.6,5.6,0,1,1-5.6-5.6A5.59,5.59,0,0,1,1135.78,695.86Z"/><path class="cls-7" d="M1061.93,712.67a5.6,5.6,0,1,1-5.6-5.6A5.6,5.6,0,0,1,1061.93,712.67Z"/><path class="cls-7" d="M1080.4,712.67a5.6,5.6,0,1,1-5.6-5.6A5.6,5.6,0,0,1,1080.4,712.67Z"/><path class="cls-7" d="M1098.86,712.67a5.6,5.6,0,1,1-5.6-5.6A5.6,5.6,0,0,1,1098.86,712.67Z"/><path class="cls-7" d="M1117.32,712.67a5.6,5.6,0,1,1-5.6-5.6A5.6,5.6,0,0,1,1117.32,712.67Z"/><path class="cls-7" d="M1135.78,712.67a5.6,5.6,0,1,1-5.6-5.6A5.6,5.6,0,0,1,1135.78,712.67Z"/><rect class="cls-8" x="1040.11" y="673.46" width="3.23" height="44.8"/><rect class="cls-4" x="854.77" y="584.07" width="289.71" height="66.91"/><rect class="cls-6" x="866.96" y="592.82" width="164.91" height="5.65"/><rect class="cls-6" x="866.96" y="602.61" width="164.91" height="5.65"/><rect class="cls-6" x="866.96" y="612.4" width="164.91" height="5.65"/><rect class="cls-6" x="866.96" y="622.19" width="164.91" height="5.65"/><rect class="cls-6" x="866.96" y="631.98" width="164.91" height="5.65"/><path class="cls-7" d="M1061.93,598.42a5.6,5.6,0,1,1-5.6-5.6A5.6,5.6,0,0,1,1061.93,598.42Z"/><path class="cls-7" d="M1080.4,598.42a5.6,5.6,0,1,1-5.6-5.6A5.61,5.61,0,0,1,1080.4,598.42Z"/><path class="cls-7" d="M1098.86,598.42a5.6,5.6,0,1,1-5.6-5.6A5.61,5.61,0,0,1,1098.86,598.42Z"/><path class="cls-7" d="M1117.32,598.42a5.6,5.6,0,1,1-5.6-5.6A5.61,5.61,0,0,1,1117.32,598.42Z"/><path class="cls-7" d="M1135.78,598.42a5.6,5.6,0,1,1-5.6-5.6A5.6,5.6,0,0,1,1135.78,598.42Z"/><circle class="cls-7" cx="1056.33" cy="615.23" r="5.6"/><path class="cls-7" d="M1080.4,615.23a5.6,5.6,0,1,1-5.6-5.6A5.6,5.6,0,0,1,1080.4,615.23Z"/><circle class="cls-7" cx="1093.26" cy="615.23" r="5.6"/><path class="cls-7" d="M1117.32,615.23a5.6,5.6,0,1,1-5.6-5.6A5.6,5.6,0,0,1,1117.32,615.23Z"/><path class="cls-7" d="M1135.78,615.23a5.6,5.6,0,1,1-5.6-5.6A5.6,5.6,0,0,1,1135.78,615.23Z"/><circle class="cls-7" cx="1056.33" cy="632.03" r="5.6"/><path class="cls-7" d="M1080.4,632a5.6,5.6,0,1,1-5.6-5.6A5.6,5.6,0,0,1,1080.4,632Z"/><circle class="cls-7" cx="1093.26" cy="632.03" r="5.6"/><path class="cls-7" d="M1117.32,632a5.6,5.6,0,1,1-5.6-5.6A5.6,5.6,0,0,1,1117.32,632Z"/><path class="cls-7" d="M1135.78,632a5.6,5.6,0,1,1-5.6-5.6A5.6,5.6,0,0,1,1135.78,632Z"/><rect class="cls-8" x="1040.11" y="592.82" width="3.23" height="44.8"/><rect class="cls-4" x="854.77" y="503.43" width="289.71" height="66.91"/><rect class="cls-6" x="866.96" y="512.19" width="164.91" height="5.65"/><rect class="cls-6" x="866.96" y="521.98" width="164.91" height="5.65"/><rect class="cls-6" x="866.96" y="531.76" width="164.91" height="5.65"/><rect class="cls-6" x="866.96" y="541.55" width="164.91" height="5.65"/><rect class="cls-6" x="866.96" y="551.34" width="164.91" height="5.65"/><circle class="cls-7" cx="1056.33" cy="517.79" r="5.6"/><path class="cls-7" d="M1080.4,517.79a5.6,5.6,0,1,1-5.6-5.6A5.6,5.6,0,0,1,1080.4,517.79Z"/><circle class="cls-7" cx="1093.26" cy="517.79" r="5.6"/><path class="cls-7" d="M1117.32,517.79a5.6,5.6,0,1,1-5.6-5.6A5.6,5.6,0,0,1,1117.32,517.79Z"/><path class="cls-7" d="M1135.78,517.79a5.6,5.6,0,1,1-5.6-5.6A5.6,5.6,0,0,1,1135.78,517.79Z"/><circle class="cls-7" cx="1056.33" cy="534.59" r="5.6"/><path class="cls-7" d="M1080.4,534.59a5.6,5.6,0,1,1-5.6-5.6A5.6,5.6,0,0,1,1080.4,534.59Z"/><circle class="cls-7" cx="1093.26" cy="534.59" r="5.6"/><path class="cls-7" d="M1117.32,534.59a5.6,5.6,0,1,1-5.6-5.6A5.6,5.6,0,0,1,1117.32,534.59Z"/><path class="cls-7" d="M1135.78,534.59a5.6,5.6,0,1,1-5.6-5.6A5.6,5.6,0,0,1,1135.78,534.59Z"/><path class="cls-7" d="M1061.93,551.39a5.6,5.6,0,1,1-5.6-5.6A5.6,5.6,0,0,1,1061.93,551.39Z"/><path class="cls-7" d="M1080.4,551.39a5.6,5.6,0,1,1-5.6-5.6A5.6,5.6,0,0,1,1080.4,551.39Z"/><path class="cls-7" d="M1098.86,551.39a5.6,5.6,0,1,1-5.6-5.6A5.6,5.6,0,0,1,1098.86,551.39Z"/><path class="cls-7" d="M1117.32,551.39a5.6,5.6,0,1,1-5.6-5.6A5.6,5.6,0,0,1,1117.32,551.39Z"/><path class="cls-7" d="M1135.78,551.39a5.6,5.6,0,1,1-5.6-5.6A5.6,5.6,0,0,1,1135.78,551.39Z"/><rect class="cls-8" x="1040.11" y="512.19" width="3.23" height="44.8"/><rect class="cls-4" x="854.77" y="422.79" width="289.71" height="66.91"/><rect class="cls-6" x="866.96" y="431.55" width="164.91" height="5.65"/><rect class="cls-6" x="866.96" y="441.34" width="164.91" height="5.65"/><rect class="cls-6" x="866.96" y="451.13" width="164.91" height="5.65"/><rect class="cls-6" x="866.96" y="460.92" width="164.91" height="5.65"/><rect class="cls-6" x="866.96" y="470.71" width="164.91" height="5.65"/><path class="cls-7" d="M1061.93,437.15a5.6,5.6,0,1,1-5.6-5.6A5.6,5.6,0,0,1,1061.93,437.15Z"/><path class="cls-7" d="M1080.4,437.15a5.6,5.6,0,1,1-5.6-5.6A5.6,5.6,0,0,1,1080.4,437.15Z"/><path class="cls-7" d="M1098.86,437.15a5.6,5.6,0,1,1-5.6-5.6A5.6,5.6,0,0,1,1098.86,437.15Z"/><path class="cls-7" d="M1117.32,437.15a5.6,5.6,0,1,1-5.6-5.6A5.6,5.6,0,0,1,1117.32,437.15Z"/><path class="cls-7" d="M1135.78,437.15a5.6,5.6,0,1,1-5.6-5.6A5.6,5.6,0,0,1,1135.78,437.15Z"/><path class="cls-7" d="M1061.93,454a5.6,5.6,0,1,1-5.6-5.6A5.6,5.6,0,0,1,1061.93,454Z"/><path class="cls-7" d="M1080.4,454a5.6,5.6,0,1,1-5.6-5.6A5.6,5.6,0,0,1,1080.4,454Z"/><path class="cls-7" d="M1098.86,454a5.6,5.6,0,1,1-5.6-5.6A5.6,5.6,0,0,1,1098.86,454Z"/><path class="cls-7" d="M1117.32,454a5.6,5.6,0,1,1-5.6-5.6A5.6,5.6,0,0,1,1117.32,454Z"/><path class="cls-7" d="M1135.78,454a5.6,5.6,0,1,1-5.6-5.6A5.6,5.6,0,0,1,1135.78,454Z"/><path class="cls-7" d="M1061.93,470.75a5.6,5.6,0,1,1-5.6-5.6A5.6,5.6,0,0,1,1061.93,470.75Z"/><path class="cls-7" d="M1080.4,470.75a5.6,5.6,0,1,1-5.6-5.6A5.6,5.6,0,0,1,1080.4,470.75Z"/><path class="cls-7" d="M1098.86,470.75a5.6,5.6,0,1,1-5.6-5.6A5.6,5.6,0,0,1,1098.86,470.75Z"/><path class="cls-7" d="M1117.32,470.75a5.6,5.6,0,1,1-5.6-5.6A5.6,5.6,0,0,1,1117.32,470.75Z"/><path class="cls-7" d="M1135.78,470.75a5.6,5.6,0,1,1-5.6-5.6A5.6,5.6,0,0,1,1135.78,470.75Z"/><rect class="cls-8" x="1040.11" y="431.55" width="3.23" height="44.8"/><rect class="cls-4" x="854.77" y="342.16" width="289.71" height="66.91"/><rect class="cls-6" x="866.96" y="350.91" width="164.91" height="5.65"/><rect class="cls-6" x="866.96" y="360.7" width="164.91" height="5.65"/><rect class="cls-6" x="866.96" y="370.49" width="164.91" height="5.65"/><rect class="cls-6" x="866.96" y="380.28" width="164.91" height="5.65"/><rect class="cls-6" x="866.96" y="390.07" width="164.91" height="5.65"/><path class="cls-7" d="M1061.93,356.51a5.6,5.6,0,1,1-5.6-5.6A5.6,5.6,0,0,1,1061.93,356.51Z"/><path class="cls-7" d="M1080.4,356.51a5.6,5.6,0,1,1-5.6-5.6A5.6,5.6,0,0,1,1080.4,356.51Z"/><path class="cls-7" d="M1098.86,356.51a5.6,5.6,0,1,1-5.6-5.6A5.6,5.6,0,0,1,1098.86,356.51Z"/><path class="cls-7" d="M1117.32,356.51a5.6,5.6,0,1,1-5.6-5.6A5.6,5.6,0,0,1,1117.32,356.51Z"/><path class="cls-7" d="M1135.78,356.51a5.6,5.6,0,1,1-5.6-5.6A5.6,5.6,0,0,1,1135.78,356.51Z"/><path class="cls-7" d="M1061.93,373.31a5.6,5.6,0,1,1-5.6-5.6A5.6,5.6,0,0,1,1061.93,373.31Z"/><path class="cls-7" d="M1080.4,373.31a5.6,5.6,0,1,1-5.6-5.6A5.6,5.6,0,0,1,1080.4,373.31Z"/><path class="cls-7" d="M1098.86,373.31a5.6,5.6,0,1,1-5.6-5.6A5.6,5.6,0,0,1,1098.86,373.31Z"/><path class="cls-7" d="M1117.32,373.31a5.6,5.6,0,1,1-5.6-5.6A5.6,5.6,0,0,1,1117.32,373.31Z"/><path class="cls-7" d="M1135.78,373.31a5.6,5.6,0,1,1-5.6-5.6A5.6,5.6,0,0,1,1135.78,373.31Z"/><path class="cls-7" d="M1061.93,390.11a5.6,5.6,0,1,1-5.6-5.6A5.59,5.59,0,0,1,1061.93,390.11Z"/><path class="cls-7" d="M1080.4,390.11a5.6,5.6,0,1,1-5.6-5.6A5.6,5.6,0,0,1,1080.4,390.11Z"/><path class="cls-7" d="M1098.86,390.11a5.6,5.6,0,1,1-5.6-5.6A5.6,5.6,0,0,1,1098.86,390.11Z"/><path class="cls-7" d="M1117.32,390.11a5.6,5.6,0,1,1-5.6-5.6A5.6,5.6,0,0,1,1117.32,390.11Z"/><path class="cls-7" d="M1135.78,390.11a5.6,5.6,0,1,1-5.6-5.6A5.59,5.59,0,0,1,1135.78,390.11Z"/><rect class="cls-8" x="1040.11" y="350.91" width="3.23" height="44.8"/><rect class="cls-4" x="854.77" y="261.52" width="289.71" height="66.91"/><rect class="cls-6" x="866.96" y="270.27" width="164.91" height="5.65"/><rect class="cls-6" x="866.96" y="280.06" width="164.91" height="5.65"/><rect class="cls-6" x="866.96" y="289.85" width="164.91" height="5.65"/><rect class="cls-6" x="866.96" y="299.64" width="164.91" height="5.65"/><rect class="cls-6" x="866.96" y="309.43" width="164.91" height="5.65"/><path class="cls-7" d="M1061.93,275.87a5.6,5.6,0,1,1-5.6-5.6A5.59,5.59,0,0,1,1061.93,275.87Z"/><path class="cls-7" d="M1080.4,275.87a5.6,5.6,0,1,1-5.6-5.6A5.6,5.6,0,0,1,1080.4,275.87Z"/><path class="cls-7" d="M1098.86,275.87a5.6,5.6,0,1,1-5.6-5.6A5.6,5.6,0,0,1,1098.86,275.87Z"/><path class="cls-7" d="M1117.32,275.87a5.6,5.6,0,1,1-5.6-5.6A5.6,5.6,0,0,1,1117.32,275.87Z"/><path class="cls-7" d="M1135.78,275.87a5.6,5.6,0,1,1-5.6-5.6A5.59,5.59,0,0,1,1135.78,275.87Z"/><circle class="cls-7" cx="1056.33" cy="292.67" r="5.6"/><path class="cls-7" d="M1080.4,292.67a5.6,5.6,0,1,1-5.6-5.6A5.6,5.6,0,0,1,1080.4,292.67Z"/><circle class="cls-7" cx="1093.26" cy="292.67" r="5.6"/><path class="cls-7" d="M1117.32,292.67a5.6,5.6,0,1,1-5.6-5.6A5.6,5.6,0,0,1,1117.32,292.67Z"/><path class="cls-7" d="M1135.78,292.67a5.6,5.6,0,1,1-5.6-5.6A5.59,5.59,0,0,1,1135.78,292.67Z"/><path class="cls-7" d="M1061.93,309.48a5.6,5.6,0,1,1-5.6-5.61A5.6,5.6,0,0,1,1061.93,309.48Z"/><path class="cls-7" d="M1080.4,309.48a5.6,5.6,0,1,1-5.6-5.61A5.6,5.6,0,0,1,1080.4,309.48Z"/><path class="cls-7" d="M1098.86,309.48a5.6,5.6,0,1,1-5.6-5.61A5.6,5.6,0,0,1,1098.86,309.48Z"/><path class="cls-7" d="M1117.32,309.48a5.6,5.6,0,1,1-5.6-5.61A5.6,5.6,0,0,1,1117.32,309.48Z"/><path class="cls-7" d="M1135.78,309.48a5.6,5.6,0,1,1-5.6-5.61A5.6,5.6,0,0,1,1135.78,309.48Z"/><rect class="cls-8" x="1040.11" y="270.27" width="3.23" height="44.8"/><rect x="715.32" y="203.53" width="381.89" height="21.22"/><rect class="cls-8" x="676.51" y="807.62" width="42.65" height="42.65"/><path class="cls-8" d="M73.41,365.9V325.5h6.37v40.4Z"/><path class="cls-8" d="M95.25,337.45V365.9H88.88V325.5h5L117,354.63V325.56h6.43V365.9h-5.29Z"/><path class="cls-8" d="M162.16,331.14H148.74V365.9h-6.43V331.14H128.82V325.5h33.34Z"/><path class="cls-8" d="M195.28,360.27v5.63H167.57V325.5h27.2v5.64H173.94v11.49h18v5.29h-18v12.35Z"/><path class="cls-8" d="M201.88,365.9V325.5h17.58a11.16,11.16,0,0,1,5,1.14,12.94,12.94,0,0,1,4,3,14.06,14.06,0,0,1,2.59,4.21,13,13,0,0,1,.94,4.81,13.57,13.57,0,0,1-2.17,7.39,10.8,10.8,0,0,1-2.5,2.76,10.39,10.39,0,0,1-3.24,1.74l9.5,15.36h-7.23l-8.76-14h-9.33v14Zm6.37-19.69H219.4a5.25,5.25,0,0,0,2.48-.59,5.86,5.86,0,0,0,1.9-1.65,8.28,8.28,0,0,0,1.25-2.42,8.94,8.94,0,0,0,.46-2.9,7.84,7.84,0,0,0-.54-2.91,8.4,8.4,0,0,0-1.42-2.38,6.69,6.69,0,0,0-2.05-1.63,5.24,5.24,0,0,0-2.42-.59H208.25Z"/><path class="cls-8" d="M245.86,337.45V365.9h-6.37V325.5h5l23.1,29.13V325.56H274V365.9h-5.29Z"/><path class="cls-8" d="M295,325.5h5.57l15.93,40.4h-6.71l-4.27-11H290l-4.21,11H279Zm9.27,24.7-6.48-17.36-6.72,17.36Z"/><path class="cls-8" d="M321.53,365.9V325.5h6.37v34.77h21.68v5.63Z"/><path class="cls-8" d="M391.17,335a8.52,8.52,0,0,0-1.65-1.34,16.06,16.06,0,0,0-2.53-1.34,17.81,17.81,0,0,0-3.19-1,15.52,15.52,0,0,0-3.55-.4q-4,0-5.95,1.48a4.88,4.88,0,0,0-1.9,4.09,4.49,4.49,0,0,0,.59,2.42,5.11,5.11,0,0,0,1.85,1.65A14.34,14.34,0,0,0,378,341.8c1.25.37,2.71.75,4.38,1.17a48.74,48.74,0,0,1,5.55,1.65,15.81,15.81,0,0,1,4.18,2.22,9,9,0,0,1,2.65,3.22,10.47,10.47,0,0,1,.94,4.63A11.19,11.19,0,0,1,394.5,360a10,10,0,0,1-3.18,3.62,14,14,0,0,1-4.7,2,23.93,23.93,0,0,1-5.75.66,28.62,28.62,0,0,1-8.9-1.4,25.5,25.5,0,0,1-7.77-4.06l2.91-5.47a12.58,12.58,0,0,0,2.13,1.65,19.57,19.57,0,0,0,3.24,1.68,28.57,28.57,0,0,0,4,1.31,18.49,18.49,0,0,0,4.5.54,10.69,10.69,0,0,0,5.8-1.31,4.29,4.29,0,0,0,2-3.87,4.18,4.18,0,0,0-.77-2.56,6.56,6.56,0,0,0-2.19-1.79,19.38,19.38,0,0,0-3.47-1.39c-1.36-.42-2.92-.86-4.66-1.31a47.25,47.25,0,0,1-5.27-1.68,13.38,13.38,0,0,1-3.73-2.13,8.44,8.44,0,0,1-2.24-2.93,9.79,9.79,0,0,1-.77-4.07,11.69,11.69,0,0,1,1.14-5.26,11.19,11.19,0,0,1,3.1-3.87,13.38,13.38,0,0,1,4.64-2.36,19.88,19.88,0,0,1,5.8-.8,21.38,21.38,0,0,1,7.57,1.31,24.86,24.86,0,0,1,6.08,3.24Z"/><path class="cls-8" d="M429.75,360.27v5.63H402V325.5h27.2v5.64H408.41v11.49h18v5.29h-18v12.35Z"/><path class="cls-8" d="M436.35,365.9V325.5h17.58a11.16,11.16,0,0,1,5,1.14,12.94,12.94,0,0,1,4,3,14.06,14.06,0,0,1,2.59,4.21,13,13,0,0,1,.94,4.81,13.57,13.57,0,0,1-2.17,7.39,10.8,10.8,0,0,1-2.5,2.76,10.28,10.28,0,0,1-3.24,1.74L468,365.9h-7.23l-8.76-14h-9.33v14Zm6.37-19.69h11.15a5.25,5.25,0,0,0,2.48-.59,5.86,5.86,0,0,0,1.9-1.65,8.54,8.54,0,0,0,1.26-2.42,9.22,9.22,0,0,0,.45-2.9,7.84,7.84,0,0,0-.54-2.91,8.4,8.4,0,0,0-1.42-2.38,6.69,6.69,0,0,0-2.05-1.63,5.21,5.21,0,0,0-2.42-.59H442.72Z"/><path class="cls-8" d="M475.55,325.5l12.18,32.38,12.12-32.38h6.77l-16.16,40.4H485l-16.22-40.4Z"/><path class="cls-8" d="M539.27,360.27v5.63h-27.7V325.5h27.19v5.64H517.94v11.49h18v5.29h-18v12.35Z"/><path class="cls-8" d="M545.87,365.9V325.5h17.59a11.16,11.16,0,0,1,5,1.14,12.94,12.94,0,0,1,4,3,14,14,0,0,1,2.58,4.21,12.83,12.83,0,0,1,.94,4.81,13.42,13.42,0,0,1-.57,3.92,13.87,13.87,0,0,1-1.59,3.47,11,11,0,0,1-2.5,2.76,10.39,10.39,0,0,1-3.24,1.74l9.5,15.36h-7.23l-8.76-14h-9.33v14Zm6.38-19.69H563.4a5.21,5.21,0,0,0,2.47-.59,5.9,5.9,0,0,0,1.91-1.65,8.28,8.28,0,0,0,1.25-2.42,8.94,8.94,0,0,0,.46-2.9,7.84,7.84,0,0,0-.54-2.91,8.2,8.2,0,0,0-1.43-2.38,6.65,6.65,0,0,0-2-1.63,5.24,5.24,0,0,0-2.42-.59H552.25Z"/><path class="cls-8" d="M267.3,419.75V428H238.9v-40.4h27.88v8.19H248.24v7.86h15.93v7.56H248.24v8.59Z"/><path class="cls-8" d="M273,428v-40.4h18.2a11.84,11.84,0,0,1,5.27,1.19,14.11,14.11,0,0,1,4.18,3.13,15,15,0,0,1,2.76,4.38,13.16,13.16,0,0,1,1,4.95,14,14,0,0,1-1.76,6.89,12.5,12.5,0,0,1-2.08,2.76,12.05,12.05,0,0,1-2.76,2.08l8.88,15H296.14l-7.73-13h-6.09v13Zm9.33-21.17h8.53a3.52,3.52,0,0,0,2.85-1.56,6.49,6.49,0,0,0,1.19-4,5.65,5.65,0,0,0-1.36-4,4,4,0,0,0-3-1.48h-8.25Z"/><path class="cls-8" d="M311.11,428v-40.4h18.2a11.81,11.81,0,0,1,5.27,1.19,14.11,14.11,0,0,1,4.18,3.13,15,15,0,0,1,2.76,4.38,13.16,13.16,0,0,1,1,4.95,14.36,14.36,0,0,1-.45,3.62,13.89,13.89,0,0,1-1.31,3.27,12.5,12.5,0,0,1-2.08,2.76,12.05,12.05,0,0,1-2.76,2.08l8.88,15H334.26l-7.73-13h-6.09v13Zm9.33-21.17H329a3.52,3.52,0,0,0,2.85-1.56,6.42,6.42,0,0,0,1.19-4,5.65,5.65,0,0,0-1.36-4,4,4,0,0,0-3-1.48h-8.25Z"/><path class="cls-8" d="M366.92,428.29a18.75,18.75,0,0,1-8.19-1.77,20.2,20.2,0,0,1-6.32-4.63,21.16,21.16,0,0,1-4.06-6.57,20.68,20.68,0,0,1-1.45-7.63,20.56,20.56,0,0,1,5.71-14.19A20.49,20.49,0,0,1,359,389a19.24,19.24,0,0,1,8.07-1.68,18.77,18.77,0,0,1,8.2,1.77,19.93,19.93,0,0,1,6.31,4.66,21.11,21.11,0,0,1,4,6.6,20.76,20.76,0,0,1,1.43,7.51,20.22,20.22,0,0,1-1.51,7.68,20.86,20.86,0,0,1-4.18,6.52,20.63,20.63,0,0,1-6.38,4.52A19,19,0,0,1,366.92,428.29ZM356.4,407.81a15,15,0,0,0,.68,4.52,12.25,12.25,0,0,0,2,3.9,10.1,10.1,0,0,0,3.33,2.73,9.83,9.83,0,0,0,4.55,1,9.67,9.67,0,0,0,4.67-1.08,10.24,10.24,0,0,0,3.3-2.82,12.33,12.33,0,0,0,2-3.92,15.75,15.75,0,0,0,.65-4.47,15,15,0,0,0-.68-4.52,11.41,11.41,0,0,0-2.05-3.87,10.24,10.24,0,0,0-3.33-2.68,9.86,9.86,0,0,0-4.52-1,9.72,9.72,0,0,0-4.64,1.05,10.28,10.28,0,0,0-3.3,2.76,11.8,11.8,0,0,0-2,3.9A15.4,15.4,0,0,0,356.4,407.81Z"/><path class="cls-8" d="M392.47,428v-40.4h18.21a11.8,11.8,0,0,1,5.26,1.19,14.11,14.11,0,0,1,4.18,3.13,14.62,14.62,0,0,1,2.76,4.38,13.18,13.18,0,0,1,1,4.95,14.36,14.36,0,0,1-.46,3.62,13.89,13.89,0,0,1-1.31,3.27,12.77,12.77,0,0,1-2.07,2.76,12.5,12.5,0,0,1-2.76,2.08l8.87,15H415.63l-7.74-13H401.8v13Zm9.33-21.17h8.54a3.52,3.52,0,0,0,2.84-1.56,6.42,6.42,0,0,0,1.19-4,5.65,5.65,0,0,0-1.36-4,4,4,0,0,0-3-1.48H401.8Z"/><path class="cls-4" d="M128.75,47.51v62.35q6.51-9.27,18.36-14.37a38.68,38.68,0,0,1,14.64-2.55q28.82,0,42.53,20.16,11.85,17.39,11.85,49.13v62.58q0,32.22-20.4,52.84-19.47,19.94-49.13,19.93-28.74,0-47.74-20.86Q80.55,256.8,80.55,228.05v-7l42-3.24.92,10Q125,245.21,137.56,251a17.33,17.33,0,0,0,7.88,1.85q26.88,0,26.89-28V153.66A27.06,27.06,0,0,0,163,132.57q-4.42-3.94-12.34-3.94-11.65,0-17.24,9a32.22,32.22,0,0,0-4.67,16.68v7.88H85V3.48H213.12v44Z"/><path class="cls-4" d="M391.8,228.05q0,29-20.39,49.14t-48.9,20.16q-29,0-49.26-20.28t-20.27-49V69.53q0-29,20.39-49.25T322.51,0q29,0,49.13,20.39T391.8,69.53ZM346.38,68.6a25.33,25.33,0,0,0-25.27-25.26,23.94,23.94,0,0,0-17.73,7.42,24.54,24.54,0,0,0-7.3,17.84V227.36a24.54,24.54,0,0,0,7.3,17.84,23.94,23.94,0,0,0,17.73,7.42,25.33,25.33,0,0,0,25.27-25.26Z"/><path class="cls-4" d="M568.4,228.05q0,29-20.39,49.14T499.1,297.35q-29,0-49.25-20.28t-20.28-49V69.53q0-29,20.4-49.25T499.1,0q29,0,49.14,20.39T568.4,69.53ZM523,68.6a25.32,25.32,0,0,0-25.26-25.26A23.94,23.94,0,0,0,480,50.76a24.54,24.54,0,0,0-7.3,17.84V227.36A24.54,24.54,0,0,0,480,245.2a23.94,23.94,0,0,0,17.73,7.42A25.32,25.32,0,0,0,523,227.36Z"/><rect class="cls-9" x="18.54" y="722.48" width="74.54" height="74.54"/><circle class="cls-10" cx="55.81" cy="759.75" r="24.9"/><rect class="cls-8" x="45.65" y="749.69" width="5.6" height="20.54"/><rect class="cls-8" x="61.26" y="749.69" width="5.6" height="20.54"/><polygon class="cls-6" points="0 912.95 149.57 912.26 299.15 912.01 598.3 911.54 897.45 912.01 1047.03 912.26 1196.6 912.95 1047.03 913.63 897.45 913.88 598.3 914.35 299.15 913.88 149.57 913.63 0 912.95"/><path class="cls-7" d="M256.09,842.58c2.71,5.94-8,48.58-11.36,57.33s-15.12,57.63-20.85,59.74-33.5,1.51-37.42,0,0-9.85,4.53-12.77,9.91-7.4,9.91-7.4-8.1-75.48-6.59-83.93S248.77,826.59,256.09,842.58Z"/><path class="cls-11" d="M256.09,842.58c2.71,5.94-8,48.58-11.36,57.33s-15.12,57.63-20.85,59.74-33.5,1.51-37.42,0,0-9.85,4.53-12.77,9.91-7.4,9.91-7.4-8.1-75.48-6.59-83.93S248.77,826.59,256.09,842.58Z"/><path class="cls-11" d="M198,956.36a10.87,10.87,0,0,1,1.81-4.17A15.31,15.31,0,0,1,203,949a10.11,10.11,0,0,1,4-1.93.2.2,0,0,1,.18.33c-.49.46-1.05.85-1.54,1.33s-1,1-1.46,1.48a18.45,18.45,0,0,0-2.38,3.25c-.69,1.17-1.35,2.34-1.95,3.57a40.14,40.14,0,0,0-1.42,3.84.29.29,0,0,1-.55,0A10.29,10.29,0,0,1,198,956.36Z"/><path class="cls-11" d="M189.91,951.91a14.06,14.06,0,0,1,6.78-5.91c.17-.08.37.14.21.28a22.83,22.83,0,0,0-5.38,6.09,10.18,10.18,0,0,0-1.07,8c0,.12-.13.17-.19.08A8.18,8.18,0,0,1,189.91,951.91Z"/><path class="cls-11" d="M196.73,897.17l38.15,36.09c4.21-13.83,8.14-28.88,9.85-33.34,3.37-8.76,14.06-51.4,11.37-57.35-7.33-16-60.3,4.55-61.79,13C193.61,859.55,195,878.36,196.73,897.17Z"/><path class="cls-7" d="M400.15,885.24c1.54,1.47,16.55-12.74,18.86-19.4s-7.3-25.43-5.52-28.62,9.95-5.77,14.19-.85,15.13,31.84,12.86,43.35-25.43,37.22-27.85,37.09S400.15,885.24,400.15,885.24Z"/><path class="cls-11" d="M400.15,885.25s10.13,31.42,12.53,31.56c1.77.09,14.63-13.63,22.3-25.5l-21-17.74C408.66,879.84,401.22,886.24,400.15,885.25Z"/><path class="cls-12" d="M315.32,755.38H190.69s-9.26,82.07-8.25,92.93S238.23,939.66,255.21,950c17.24,10.54,114.61,10.89,138.36,5.67,18.47-4.07,33.88-27.63,26.21-64-3.35-15.87-46.61-53.71-52.65-61S315.32,755.38,315.32,755.38Z"/><path class="cls-7" d="M182.44,848.32c1,10.87,55.78,91.34,72.79,101.73,17.23,10.53,114.58,10.89,138.35,5.67,18.44-4.07,33.88-27.65,26.19-64-3.34-15.86-46.59-53.7-52.63-60.94-3.71-4.44-22.29-31.72-36.15-52.21-8.79-13-15.67-23.21-15.67-23.21H190.69s-2.33,20.6-4.52,42.52S181.94,842.91,182.44,848.32Z"/><path class="cls-11" d="M186.17,797.91c67,20.66,126.54-8.73,144.82-19.31-8.79-13-15.67-23.21-15.67-23.21H190.69S188.36,776,186.17,797.91Z"/><path class="cls-7" d="M396,887.8s-34.32-21.52-58.37-17.63-32.54,53.29-21,81.08c0,0-21.94,6.52-21.94,17.12,0,6,12.53,8,30.63,7.54s54.05-.79,54.85-5.34-2.37-10.81-2.37-10.81,32.46-3.66,38.84-25.16S401.36,891.45,396,887.8Z"/><path class="cls-13" d="M349.11,953.68A87.29,87.29,0,0,0,378,960.1c.19,0,.25.33,0,.35-10.2,1.16-20.17-1.41-29-6.52C348.87,953.85,349,953.62,349.11,953.68Z"/><path class="cls-11" d="M308.73,976c.9-4.11,4.11-7.35,7.47-9.66a26,26,0,0,1,6.34-3.2c2.57-.87,5.24-1.34,7.82-2.15.21-.07.37.25.15.32a44.92,44.92,0,0,0-6.46,3,61.89,61.89,0,0,0-6.07,3.62,37.28,37.28,0,0,0-8.4,8.42C309.32,976.7,308.62,976.53,308.73,976Z"/><path class="cls-11" d="M313.17,959a.18.18,0,0,1,.09.34c-6.63,2.44-11.92,8.29-14.77,14.65-.13.27-.62.27-.58-.09C298.8,966,305.5,960.13,313.17,959Z"/><path class="cls-11" d="M302.47,957.46c-.09.06,0,.17.14.14.56-.11,6.71-4.24,13.5-6.2.56,1,1.15,2,1.8,2.92.11.19.42,0,.3-.17-4.26-8.56-6-18.22-6-27.74a135.15,135.15,0,0,1,.9-15.18.06.06,0,0,1,0-.09,74.18,74.18,0,0,1,8.14-25.31c2.61-4.83,6-9.49,10.58-12.19s10.36-3.08,15.86-2.86a73.09,73.09,0,0,1,16.56,3.06,128.08,128.08,0,0,1,16.05,5.67c-10-5.39-20.88-9.63-32.44-10.86-5.76-.56-11.91-.17-17.3,2.78s-8.95,8-11.78,13a78.4,78.4,0,0,0-8.62,33.35c-.06,1.32-.11,2.66-.11,4v.06c-.09,1.77-.12,3.51-.06,5.28.22,8.31,1.91,16.64,5.92,23.94C309.82,952.3,306.28,954,302.47,957.46Z"/><path class="cls-7" d="M296.36,853.14c2.72,5.94-8,48.58-11.35,57.33s-15.13,57.63-20.86,59.74-33.49,1.51-37.41,0,0-9.85,4.52-12.77,9.92-7.4,9.92-7.4-8.11-75.48-6.6-83.92S289.05,837.15,296.36,853.14Z"/><path class="cls-11" d="M277.65,934.15c2.55-7.7,5.9-15.13,8.46-22.82.1-.3.59-.16.49.15-2,6.19-3.48,12.51-5.31,18.75.26-.43.51-.86.78-1.28,1.61-2.48,3.59-4.92,4.42-7.78a.26.26,0,0,1,.49.14,18.54,18.54,0,0,1-1.66,3.76c-.74,1.38-1.49,2.75-2.23,4.12-1,1.79-2,3.54-3.1,5.26,0,.12-.07.24-.11.36a221.24,221.24,0,0,1-8.51,22.8.34.34,0,0,1-.66-.19C272.49,949.51,275.09,941.86,277.65,934.15Z"/><path class="cls-11" d="M233.52,878.17c0-.16.32-.21.34,0,.81,5.72,1.16,11.51,1.74,17.26.6,6,1.33,11.93,2,17.9,1.31,11.89,3.29,23.71,4.24,35.62,0,.51-.86.57-1,.1-3.14-11.49-4.52-23.3-5.76-35-.62-5.83-1-11.68-1.27-17.53A174.18,174.18,0,0,1,233.52,878.17Z"/><path class="cls-11" d="M236.94,966.33a11,11,0,0,1,1.82-4.17,15.08,15.08,0,0,1,3.19-3.24,10,10,0,0,1,4-1.93.19.19,0,0,1,.18.33c-.49.46-1.05.85-1.54,1.33s-1,1-1.46,1.48a18.38,18.38,0,0,0-2.38,3.24c-.69,1.17-1.35,2.35-1.95,3.57a40.33,40.33,0,0,0-1.42,3.85.29.29,0,0,1-.55,0A10.4,10.4,0,0,1,236.94,966.33Z"/><path class="cls-11" d="M228.83,961.88a14.06,14.06,0,0,1,6.78-5.91c.17-.08.37.14.21.28a23,23,0,0,0-5.38,6.08,10.21,10.21,0,0,0-1.07,8c0,.12-.13.17-.2.07A8.18,8.18,0,0,1,228.83,961.88Z"/><path class="cls-7" d="M238.38,641.27c1.35-4.92-10.93-22.34-15.62-28.2s-30.5-14.65-38.74-10.14c-3.23,1.78-9.24,14.17-17.36,24.94-12.55,16.66-27.23,34.14-21.9,38.85,12.94,11.42,42.42-6.59,52-12.65s18.32-13.41,20.65-13.15c3.07.34,9.55,5.22,12.14,5.5C235.69,647.11,238.38,641.27,238.38,641.27Z"/><path class="cls-11" d="M238.38,641.27c1.35-4.92-10.93-22.34-15.62-28.2s-30.5-14.65-38.74-10.14c-3.23,1.78-9.24,14.17-17.36,24.94-12.55,16.66-27.23,34.14-21.9,38.85,12.94,11.42,42.42-6.59,52-12.65s18.32-13.41,20.65-13.15c3.07.34,9.55,5.22,12.14,5.5C235.69,647.11,238.38,641.27,238.38,641.27Z"/><path class="cls-7" d="M297.82,623.82c30.11,18,43.48,65.92,44.29,73.57.67,6.24,15,28.34,12.46,52.11-1.65,15.3-29.1,35.59-51.44,35.39-4.12,0-38.9,12.57-68.27,10.55s-51.63-22.87-52.5-24.64S157.69,765.59,156.2,741c-2.39-39.2,37.61-106,49.05-115.11C224.19,610.82,277.36,611.59,297.82,623.82Z"/><path class="cls-7" d="M283.65,644.49c-.59-5.33,15.06-21.36,20.89-26.67s34.08-10.13,41.88-4.08c3.07,2.38,7.24,16.24,13.87,28.76,10.26,19.38,22.59,40,16.27,44-15.32,9.7-42.92-13.89-51.84-21.76s-16.78-17-19.24-17.08c-3.25-.15-10.78,3.83-13.51,3.7C285.47,651,283.65,644.49,283.65,644.49Z"/><path class="cls-11" d="M283.65,644.49c-.59-5.33,15.06-21.36,20.89-26.67s34.08-10.13,41.88-4.08c3.07,2.38,7.24,16.24,13.87,28.76,10.26,19.38,22.59,40,16.27,44-15.32,9.7-42.92-13.89-51.84-21.76s-16.78-17-19.24-17.08c-3.25-.15-10.78,3.83-13.51,3.7C285.47,651,283.65,644.49,283.65,644.49Z"/><path class="cls-11" d="M228.63,711.79c18.47.16,26.88,20,29.11,25.1s13.62,17,13.92,29.28-23.11,26.09-47.83,21.74-37.63-18.2-37.49-30.72c.11-10.08,9.61-18.8,10.66-21.46S211.79,711.64,228.63,711.79Z"/><path class="cls-11" d="M274,746.54a43.39,43.39,0,0,1,6.2,9.29,38.6,38.6,0,0,1,3.62,10.73c.59,3.76.55,7.88-1.21,11.51a13.57,13.57,0,0,1-3.58,4.62,16.27,16.27,0,0,1-5,2.59,16,16,0,0,0,6.59-8,20.85,20.85,0,0,0,.46-10.22,57.52,57.52,0,0,0-2.85-10.31C277,753.31,275.58,749.92,274,746.54Z"/><path class="cls-11" d="M189.41,739.16c-1.6,2-3.11,3.92-4.51,5.89a34.55,34.55,0,0,0-3.57,6.13,18.66,18.66,0,0,0-1.62,6.62,20.77,20.77,0,0,0,1.3,7.05,12.28,12.28,0,0,1-3.49-6.92,15.29,15.29,0,0,1,1.25-7.88,23.23,23.23,0,0,1,10.64-10.89Z"/><path class="cls-8" d="M478,1003.51c-30.25,0-63.62-.51-97.15-1.13-17.29-.33-31-.58-39.48-.58-43.57,0-56.12-56-68.25-110.19-1.69-7.55-3.38-15.1-5.15-22.53-3.47-14.48-6.32-29.13-9.09-43.29C250.33,782,243,744.14,223.65,742.07c-25.5-2.71-48.22,35.43-56.51,95l-5.55-.77c8.74-62.76,33.9-102.89,62.66-99.78,23.42,2.51,31.17,42.23,40.14,88.22,2.76,14.11,5.6,28.7,9,43.07,1.78,7.45,3.48,15,5.17,22.61,12.19,54.4,23.69,105.8,62.77,105.8,8.58,0,22.26.25,39.58.57,37.95.71,89.91,1.68,133.91.81,71.34-1.39,79.79-7,80.67-8.72,0-11.68-75.34-25.73-103.69-31-28.66-5.35-29.77-5.56-29.45-9.08.29-3.16,3.8-3.16,9.11-3.16H589.23c36.93,0,48.83-53.12,55.94-84.86,2-9.11,3.65-16.3,5.43-20,8.25-17.19,29.12-14.68,30-14.56l-.72,5.56c-.73-.09-17.75-2.07-24.22,11.43-1.51,3.13-3.13,10.4-5,18.81-7.47,33.38-20,89.25-61.41,89.25H487l5.87,1.09c68.55,12.8,108.24,22.92,108.24,36.75a5.54,5.54,0,0,1-1.82,4C590.94,1001.26,541.34,1003.51,478,1003.51Z"/><rect class="cls-10" x="147.13" y="831.92" width="34.48" height="20.68" transform="translate(50.66 -8.32) rotate(3.43)"/><rect class="cls-9" x="154.42" y="825.39" width="21.51" height="6.56" transform="translate(49.84 -8.39) rotate(3.43)"/><rect class="cls-7" x="153.41" y="852.1" width="4.06" height="15.78" transform="translate(51.7 -7.76) rotate(3.43)"/><rect class="cls-7" x="168.99" y="853.03" width="4.06" height="15.78" transform="translate(51.78 -8.69) rotate(3.43)"/><rect class="cls-10" x="681.37" y="821.41" width="34.48" height="15.06" transform="translate(-130.33 1527.55) rotate(-90)"/><rect class="cls-9" x="674.24" y="822.85" width="21.51" height="12.17" transform="translate(-143.94 1513.93) rotate(-90)"/><path class="cls-7" d="M205.19,741.75s7.32,8.47,10.16,6.68,9.94-18.49,9.94-18.49,1.69,21.24,7.18,21.82,14.84-7.8,14.84-7.8L225.17,728.6Z"/><path class="cls-11" d="M205.19,741.75s7.32,8.47,10.16,6.68,9.94-18.49,9.94-18.49,1.69,21.24,7.18,21.82,14.84-7.8,14.84-7.8L225.17,728.6Z"/><path class="cls-11" d="M313.81,715.39a52.72,52.72,0,0,0,2.26-21.17,38.37,38.37,0,0,0-2.56-10.75,25.86,25.86,0,0,0-2.69-5,24.1,24.1,0,0,0-3.77-4.44,22.49,22.49,0,0,0-2.29-1.84c-.8-.55-1.64-1-2.46-1.49L301,670l-1.33-.54a21.6,21.6,0,0,0-2.68-1,29.55,29.55,0,0,0-11.18-1.06A38.3,38.3,0,0,0,266,675.19a56.42,56.42,0,0,1,20-3.69,29.89,29.89,0,0,1,9.47,1.7c.76.23,1.44.63,2.17.93l1.08.48,1,.62c.66.42,1.37.79,2,1.24a17.59,17.59,0,0,1,1.77,1.46,22.66,22.66,0,0,1,5.45,7.56,42.44,42.44,0,0,1,3.07,9.36A101.11,101.11,0,0,1,313.81,715.39Z"/><path class="cls-11" d="M176.9,701.05a79,79,0,0,1,2.95-17.27c1.69-5.39,4.39-10.34,8.56-13.37a19.64,19.64,0,0,1,3.31-1.94,13.36,13.36,0,0,1,3.55-1,30.07,30.07,0,0,1,8.12.18,111.41,111.41,0,0,1,17,4.39,42.69,42.69,0,0,0-7.55-5.09q-2-1.05-4.15-2a45.62,45.62,0,0,0-4.4-1.52,26.51,26.51,0,0,0-9.6-1.07,16.5,16.5,0,0,0-5.06,1.23,20.62,20.62,0,0,0-4.38,2.55,22.25,22.25,0,0,0-6.35,7.6,30.25,30.25,0,0,0-3,9.06A41.91,41.91,0,0,0,176.9,701.05Z"/><path class="cls-8" d="M268.1,706.57c.09-.32.71.43.68.78-.66,8.46.14,18.26,8.42,21.43.26.1.21.53-.1.47C266.9,727.49,266,714.47,268.1,706.57Z"/><path class="cls-8" d="M276.78,698.09c15-.39,15,27,1.08,27.34C264.2,725.78,264.22,698.41,276.78,698.09Z"/><path class="cls-8" d="M210.19,699.93c0-.33-.76.33-.78.68-.52,8.46-2.68,18-11.33,20-.26.06-.28.49,0,.48C208.46,720.81,211.18,708.05,210.19,699.93Z"/><path class="cls-8" d="M202.78,690.32C188,687.85,184.2,715,197.9,717.24,211.38,719.5,215.17,692.39,202.78,690.32Z"/><path class="cls-8" d="M224.73,729.17c2.66.87,21.15-5,19.74-10.59C243,712.52,217,711.09,213.68,715S222,728.27,224.73,729.17Z"/><path class="cls-8" d="M247.79,743.67a61,61,0,0,1-9.41,5.87,12.36,12.36,0,0,1-5.11,1.46c-1.06.21-2-1.24-2.56-2.6a39.88,39.88,0,0,1-2.35-9c-.55-3.06-.88-6.18-1.19-9.25l-.88-8.54-2.55,8.29c-.79,2.55-1.71,5.11-2.64,7.65a60,60,0,0,1-3.31,7.41,14.77,14.77,0,0,1-1.09,1.69,5.35,5.35,0,0,1-1.29,1.34,2.15,2.15,0,0,1-1.56.16,7.93,7.93,0,0,1-2-.83,29.13,29.13,0,0,1-6.68-6,21.17,21.17,0,0,0,5.64,6.92,8.19,8.19,0,0,0,2.43,1.28,5.85,5.85,0,0,0,1.66.21,3.62,3.62,0,0,0,1.78-.41,7.18,7.18,0,0,0,2.08-1.69,17.6,17.6,0,0,0,1.4-1.81,45.49,45.49,0,0,0,4-7.55,82.83,82.83,0,0,0,2.94-7.76l-3.43-.25a80.24,80.24,0,0,0,1.29,9.48,47.69,47.69,0,0,0,1.18,4.71,24.38,24.38,0,0,0,1.86,4.68,10.13,10.13,0,0,0,1.66,2.3,5.06,5.06,0,0,0,1.51,1,3.29,3.29,0,0,0,1.15.32,4.47,4.47,0,0,0,1,0,13.78,13.78,0,0,0,6.06-2.17A38.9,38.9,0,0,0,247.79,743.67Z"/><path class="cls-8" d="M106.8,840.81a116.59,116.59,0,0,1,16.72.09,115.29,115.29,0,0,1,16.58,2.18,118.07,118.07,0,0,1-16.72-.08A118.2,118.2,0,0,1,106.8,840.81Z"/><path class="cls-8" d="M187.6,858.57A117.08,117.08,0,0,1,203,865.13a117.14,117.14,0,0,1,14.41,8.44A115.74,115.74,0,0,1,202,867,117.14,117.14,0,0,1,187.6,858.57Z"/><path class="cls-8" d="M124.62,897.16a132.73,132.73,0,0,1,20.06-26.67,116.08,116.08,0,0,1-9.19,14A117.78,117.78,0,0,1,124.62,897.16Z"/><path class="cls-8" d="M93.08,807.61c4.33,1.38,8.57,3,12.8,4.6s8.4,3.36,12.57,5.11,8.3,3.61,12.39,5.56S139,826.79,143,829c-4.33-1.38-8.57-3-12.8-4.6s-8.4-3.36-12.57-5.11-8.3-3.61-12.39-5.57S97.07,809.79,93.08,807.61Z"/><path class="cls-8" d="M191.65,832.5a74.15,74.15,0,0,1,12.17-4.84,71.49,71.49,0,0,1,12.79-2.82,81.18,81.18,0,0,1-25,7.66Z"/><path class="cls-8" d="M151.3,818.29c-2.3-3.65-4.39-7.39-6.45-11.15s-4-7.58-5.95-11.41-3.77-7.7-5.51-11.62-3.48-7.84-5-11.87c2.3,3.64,4.39,7.39,6.45,11.15s4,7.58,5.95,11.41,3.77,7.69,5.5,11.62S149.78,814.26,151.3,818.29Z"/><path class="cls-8" d="M208.14,907.08c-2.51-2.87-4.82-5.87-7.11-8.89s-4.48-6.1-6.65-9.2-4.25-6.26-6.24-9.49-4-6.44-5.78-9.8c2.51,2.87,4.83,5.87,7.11,8.89s4.48,6.1,6.65,9.2,4.25,6.26,6.24,9.49S206.35,903.72,208.14,907.08Z"/><polygon class="cls-14" points="963.04 203.53 731.02 203.53 713.06 45.95 945.08 45.95 963.04 203.53"/><polygon class="cls-15" points="950.4 192.97 741.25 192.97 725.7 56.52 934.85 56.52 950.4 192.97"/><polygon class="cls-16" points="821.23 128.32 817.89 132.29 784.99 103.88 788.33 99.91 821.23 128.32"/><polygon class="cls-16" points="812.76 99.91 817.37 103.88 793.46 132.29 788.86 128.32 812.76 99.91"/><polygon class="cls-16" points="891.58 128.32 888.23 132.29 855.33 103.88 858.67 99.91 891.58 128.32"/><polygon class="cls-16" points="883.11 99.91 887.71 103.88 863.8 132.29 859.2 128.32 883.11 99.91"/><polygon class="cls-16" points="780.78 155.62 779.89 150 907.41 150 908.3 155.62 780.78 155.62"/><rect class="cls-14" x="732.65" y="192.96" width="298.49" height="10.57"/><rect class="cls-12" x="797.47" y="192.96" width="258.86" height="10.57"/><polygon class="cls-8" points="935.6 63.14 934.85 56.52 725.7 56.52 726.46 63.14 935.6 63.14"/><path class="cls-12" d="M743.31,59.83A1.8,1.8,0,0,0,745,61.48a1.38,1.38,0,0,0,1.3-1.65,1.8,1.8,0,0,0-1.66-1.64A1.37,1.37,0,0,0,743.31,59.83Z"/><path class="cls-15" d="M737.26,59.83a1.8,1.8,0,0,0,1.66,1.65,1.38,1.38,0,0,0,1.3-1.65,1.8,1.8,0,0,0-1.66-1.64A1.37,1.37,0,0,0,737.26,59.83Z"/><path class="cls-7" d="M731.21,59.83a1.8,1.8,0,0,0,1.66,1.65,1.38,1.38,0,0,0,1.3-1.65,1.8,1.8,0,0,0-1.67-1.64A1.37,1.37,0,0,0,731.21,59.83Z"/></g></g></svg>