<svg width="230" height="81" viewBox="0 0 230 81" fill="none" xmlns="http://www.w3.org/2000/svg">
<rect x="0.85791" y="0.51709" width="229.093" height="80.1325" rx="9.39522" fill="black"/>
<path d="M71.1202 22.4336H74.6011V27.3661C74.0562 27.5446 73.5065 27.6761 72.9522 27.7607C72.3979 27.8452 71.7684 27.8875 71.0638 27.8875C70.0209 27.8875 69.1425 27.6808 68.4284 27.2674C67.7144 26.8446 67.1695 26.248 66.7937 25.4776C66.4272 24.6978 66.244 23.7771 66.244 22.7154C66.244 21.6632 66.4507 20.7518 66.8641 19.9814C67.2775 19.211 67.8694 18.6144 68.6398 18.1916C69.4196 17.7595 70.3591 17.5434 71.4584 17.5434C72.0221 17.5434 72.5529 17.595 73.0509 17.6984C73.5582 17.8017 74.028 17.9474 74.4602 18.1353L73.981 19.2345C73.624 19.0748 73.22 18.9386 72.769 18.8258C72.3274 18.7131 71.8671 18.6567 71.3879 18.6567C70.1853 18.6567 69.2458 19.0184 68.5693 19.7419C67.9023 20.4653 67.5688 21.4565 67.5688 22.7154C67.5688 23.514 67.6956 24.2234 67.9493 24.8435C68.2123 25.4541 68.621 25.9333 69.1753 26.2809C69.7297 26.6192 70.4578 26.7883 71.3597 26.7883C71.8013 26.7883 72.1771 26.7648 72.4872 26.7178C72.7972 26.6708 73.0791 26.6145 73.3327 26.5487V23.561H71.1202V22.4336ZM82.6275 27.7466H77.0045V17.6843H82.6275V18.7976H78.2728V21.9403H82.3738V23.0396H78.2728V26.6332H82.6275V27.7466ZM88.0203 27.7466H86.752V18.7976H83.6093V17.6843H91.1489V18.7976H88.0203V27.7466ZM99.1597 27.7466H95.5238V27.0138L96.7076 26.746V18.699L95.5238 18.4171V17.6843H99.1597V18.4171L97.9759 18.699V26.746L99.1597 27.0138V27.7466ZM109.079 27.7466H107.599L102.216 19.3895H102.16C102.178 19.7184 102.202 20.1271 102.23 20.6156C102.258 21.1042 102.272 21.6068 102.272 22.1235V27.7466H101.103V17.6843H102.568L107.938 26.0132H107.994C107.985 25.8628 107.971 25.6374 107.952 25.3367C107.942 25.0361 107.928 24.7072 107.909 24.3502C107.9 23.9932 107.895 23.6644 107.895 23.3637V17.6843H109.079V27.7466ZM124.251 22.7013C124.251 23.7442 124.072 24.6556 123.715 25.4354C123.367 26.2058 122.851 26.8071 122.165 27.2392C121.479 27.6714 120.629 27.8875 119.614 27.8875C118.571 27.8875 117.702 27.6714 117.007 27.2392C116.321 26.8071 115.809 26.2011 115.471 25.4213C115.132 24.6415 114.963 23.7301 114.963 22.6873C114.963 21.6538 115.132 20.7518 115.471 19.9814C115.809 19.211 116.321 18.6097 117.007 18.1776C117.702 17.7454 118.576 17.5293 119.628 17.5293C120.633 17.5293 121.479 17.7454 122.165 18.1776C122.851 18.6003 123.367 19.2016 123.715 19.9814C124.072 20.7518 124.251 21.6585 124.251 22.7013ZM116.302 22.7013C116.302 23.9697 116.57 24.9703 117.105 25.7031C117.641 26.4266 118.477 26.7883 119.614 26.7883C120.76 26.7883 121.596 26.4266 122.123 25.7031C122.649 24.9703 122.912 23.9697 122.912 22.7013C122.912 21.433 122.649 20.4418 122.123 19.7278C121.596 19.0043 120.765 18.6426 119.628 18.6426C118.491 18.6426 117.65 19.0043 117.105 19.7278C116.57 20.4418 116.302 21.433 116.302 22.7013ZM134.457 27.7466H132.978L127.594 19.3895H127.538C127.557 19.7184 127.58 20.1271 127.608 20.6156C127.636 21.1042 127.65 21.6068 127.65 22.1235V27.7466H126.481V17.6843H127.946L133.316 26.0132H133.372C133.363 25.8628 133.349 25.6374 133.33 25.3367C133.32 25.0361 133.306 24.7072 133.288 24.3502C133.278 23.9932 133.273 23.6644 133.273 23.3637V17.6843H134.457V27.7466Z" fill="white"/>
<path d="M74.6597 46.49H81.75V55.7599C80.8147 56.0773 79.8375 56.3278 78.8187 56.5116C77.8165 56.6953 76.6724 56.7872 75.3863 56.7872C72.7139 56.7872 70.6595 56.0021 69.223 54.4321C67.7866 52.862 67.0684 50.5738 67.0684 47.5673C67.0684 45.6966 67.4275 44.0765 68.1457 42.7069C68.8806 41.3372 69.9412 40.2766 71.3276 39.525C72.7139 38.7734 74.4092 38.3976 76.4135 38.3976C77.3656 38.3976 78.3009 38.4978 79.2196 38.6982C80.1382 38.8987 80.9733 39.1659 81.7249 39.5L80.4722 42.5315C79.9211 42.2475 79.2947 42.0137 78.5932 41.83C77.8917 41.6462 77.1568 41.5544 76.3885 41.5544C75.2861 41.5544 74.3257 41.8049 73.5073 42.306C72.7055 42.8071 72.0792 43.5169 71.6282 44.4356C71.1939 45.3375 70.9768 46.4065 70.9768 47.6425C70.9768 48.8117 71.1355 49.8472 71.4528 50.7492C71.7702 51.6511 72.2713 52.361 72.9561 52.8787C73.6409 53.3798 74.5345 53.6304 75.6368 53.6304C76.1713 53.6304 76.6223 53.6053 76.9898 53.5552C77.3739 53.5051 77.7247 53.4466 78.042 53.3798V49.6468H74.6597V46.49ZM98.1261 49.6718C98.1261 51.9434 97.5248 53.6972 96.3222 54.9332C95.1363 56.1692 93.5161 56.7872 91.4617 56.7872C90.1923 56.7872 89.0565 56.5116 88.0544 55.9604C87.0689 55.4092 86.2923 54.6075 85.7244 53.5552C85.1565 52.4862 84.8725 51.1918 84.8725 49.6718C84.8725 47.4003 85.4655 45.6549 86.6514 44.4356C87.8372 43.2163 89.4658 42.6066 91.5369 42.6066C92.823 42.6066 93.9588 42.8822 94.9442 43.4334C95.9297 43.9846 96.7063 44.7863 97.2742 45.8386C97.8421 46.8742 98.1261 48.1519 98.1261 49.6718ZM88.6807 49.6718C88.6807 51.0248 88.8979 52.052 89.3321 52.7535C89.7831 53.4383 90.5097 53.7807 91.5118 53.7807C92.4973 53.7807 93.2071 53.4383 93.6414 52.7535C94.0924 52.052 94.3179 51.0248 94.3179 49.6718C94.3179 48.3189 94.0924 47.3084 93.6414 46.6403C93.2071 45.9555 92.4889 45.6131 91.4868 45.6131C90.5013 45.6131 89.7831 45.9555 89.3321 46.6403C88.8979 47.3084 88.6807 48.3189 88.6807 49.6718ZM113.638 49.6718C113.638 51.9434 113.037 53.6972 111.834 54.9332C110.648 56.1692 109.028 56.7872 106.974 56.7872C105.704 56.7872 104.568 56.5116 103.566 55.9604C102.581 55.4092 101.804 54.6075 101.236 53.5552C100.668 52.4862 100.384 51.1918 100.384 49.6718C100.384 47.4003 100.977 45.6549 102.163 44.4356C103.349 43.2163 104.978 42.6066 107.049 42.6066C108.335 42.6066 109.471 42.8822 110.456 43.4334C111.442 43.9846 112.218 44.7863 112.786 45.8386C113.354 46.8742 113.638 48.1519 113.638 49.6718ZM104.193 49.6718C104.193 51.0248 104.41 52.052 104.844 52.7535C105.295 53.4383 106.022 53.7807 107.024 53.7807C108.009 53.7807 108.719 53.4383 109.153 52.7535C109.604 52.052 109.83 51.0248 109.83 49.6718C109.83 48.3189 109.604 47.3084 109.153 46.6403C108.719 45.9555 108.001 45.6131 106.999 45.6131C106.013 45.6131 105.295 45.9555 104.844 46.6403C104.41 47.3084 104.193 48.3189 104.193 49.6718ZM121.158 42.6066C122.845 42.6066 124.164 43.2747 125.116 44.611H125.216L125.517 42.8572H128.674V56.5617C128.674 58.5159 128.098 60.0024 126.945 61.0213C125.793 62.0401 124.089 62.5496 121.834 62.5496C120.865 62.5496 119.963 62.4911 119.128 62.3742C118.31 62.2573 117.508 62.0485 116.723 61.7478V58.7664C118.41 59.4679 120.189 59.8187 122.06 59.8187C123.98 59.8187 124.941 58.7831 124.941 56.712V56.4364C124.941 56.1525 124.949 55.8602 124.966 55.5595C124.999 55.2589 125.024 54.9916 125.041 54.7578H124.941C124.473 55.476 123.914 55.9938 123.262 56.3111C122.611 56.6285 121.876 56.7872 121.057 56.7872C119.437 56.7872 118.168 56.1692 117.249 54.9332C116.347 53.6805 115.896 51.9434 115.896 49.722C115.896 47.4838 116.364 45.7384 117.299 44.4857C118.235 43.233 119.521 42.6066 121.158 42.6066ZM122.335 45.6382C120.581 45.6382 119.705 47.0161 119.705 49.7721C119.705 52.4946 120.598 53.8559 122.385 53.8559C123.337 53.8559 124.039 53.5886 124.49 53.0541C124.957 52.5029 125.191 51.5509 125.191 50.198V49.747C125.191 48.2772 124.966 47.2249 124.515 46.5902C124.064 45.9555 123.337 45.6382 122.335 45.6382ZM136.311 56.5366H132.578V37.4956H136.311V56.5366ZM145.848 42.6066C147.736 42.6066 149.231 43.1495 150.333 44.2351C151.435 45.3041 151.987 46.8324 151.987 48.82V50.6239H143.168C143.201 51.6762 143.51 52.5029 144.095 53.1042C144.696 53.7055 145.523 54.0062 146.575 54.0062C147.46 54.0062 148.262 53.9227 148.98 53.7556C149.698 53.5719 150.442 53.2963 151.21 52.9289V55.8101C150.542 56.1441 149.832 56.3863 149.08 56.5366C148.345 56.7036 147.452 56.7872 146.399 56.7872C145.03 56.7872 143.819 56.5366 142.767 56.0355C141.714 55.5178 140.888 54.7411 140.286 53.7055C139.685 52.67 139.384 51.3672 139.384 49.7971C139.384 48.1937 139.652 46.8658 140.186 45.8135C140.737 44.7446 141.497 43.9429 142.466 43.4084C143.435 42.8739 144.562 42.6066 145.848 42.6066ZM145.873 45.2624C145.155 45.2624 144.554 45.4962 144.069 45.9639C143.602 46.4315 143.326 47.1581 143.243 48.1436H148.479C148.462 47.3084 148.245 46.6236 147.828 46.0891C147.41 45.538 146.759 45.2624 145.873 45.2624ZM167.535 38.6481C169.84 38.6481 171.518 39.1492 172.57 40.1514C173.639 41.1368 174.174 42.4981 174.174 44.2351C174.174 45.2707 173.957 46.2478 173.523 47.1665C173.088 48.0684 172.362 48.795 171.343 49.3461C170.341 49.8973 168.971 50.1729 167.234 50.1729H165.605V56.5366H161.822V38.6481H167.535ZM167.334 41.7548H165.605V47.0662H166.858C167.927 47.0662 168.771 46.8575 169.389 46.4399C170.023 46.0056 170.341 45.3125 170.341 44.3604C170.341 42.6233 169.338 41.7548 167.334 41.7548ZM180.987 56.5366H177.254V37.4956H180.987V56.5366ZM190.499 42.5816C192.337 42.5816 193.74 42.9825 194.709 43.7842C195.694 44.5692 196.187 45.7801 196.187 47.417V56.5366H193.581L192.855 54.6826H192.754C192.17 55.4175 191.552 55.952 190.9 56.2861C190.249 56.6201 189.355 56.7872 188.22 56.7872C187 56.7872 185.99 56.4364 185.188 55.7349C184.386 55.0167 183.985 53.9227 183.985 52.4528C183.985 50.9997 184.495 49.9307 185.514 49.2459C186.533 48.5444 188.061 48.1603 190.099 48.0935L192.479 48.0183V47.417C192.479 46.6988 192.287 46.1726 191.902 45.8386C191.535 45.5045 191.017 45.3375 190.349 45.3375C189.681 45.3375 189.03 45.4377 188.395 45.6382C187.76 45.8219 187.126 46.0557 186.491 46.3397L185.263 43.8092C185.998 43.4251 186.808 43.1244 187.693 42.9073C188.595 42.6902 189.531 42.5816 190.499 42.5816ZM191.026 50.2481C189.823 50.2815 188.988 50.4986 188.52 50.8995C188.053 51.3004 187.819 51.8265 187.819 52.4779C187.819 53.0458 187.986 53.455 188.32 53.7055C188.654 53.9394 189.088 54.0563 189.623 54.0563C190.424 54.0563 191.101 53.8224 191.652 53.3548C192.203 52.8704 192.479 52.1939 192.479 51.3254V50.198L191.026 50.2481ZM198.054 42.8572H202.137L204.718 50.5487C204.852 50.9162 204.952 51.3004 205.019 51.7012C205.085 52.0854 205.136 52.4946 205.169 52.9289H205.244C205.294 52.4946 205.361 52.0854 205.445 51.7012C205.545 51.3004 205.653 50.9162 205.77 50.5487L208.301 42.8572H212.309L206.522 58.2904C206.004 59.7101 205.244 60.7707 204.242 61.4722C203.256 62.1905 202.112 62.5496 200.81 62.5496C200.392 62.5496 200.025 62.5245 199.707 62.4744C199.407 62.441 199.139 62.3992 198.905 62.3491V59.3928C199.089 59.4262 199.306 59.4596 199.557 59.493C199.824 59.5264 200.1 59.5431 200.384 59.5431C201.169 59.5431 201.787 59.3009 202.238 58.8165C202.705 58.3489 203.048 57.781 203.265 57.1129L203.49 56.4364L198.054 42.8572Z" fill="white"/>
<path d="M39.8337 39.0256L23.9531 23.1019L44.1582 34.7011L39.8337 39.0256ZM19.8085 22.1665C18.8731 22.6558 18.2471 23.548 18.2471 24.7065V56.4604C18.2471 57.6189 18.8731 58.5111 19.8085 59.0004L38.2722 40.5799L19.8085 22.1665ZM50.4039 38.3996L46.1657 35.9459L41.4383 40.5871L46.1657 45.2282L50.4902 42.7745C51.7854 41.7455 51.7854 39.4286 50.4039 38.3996ZM23.9531 58.0722L44.1582 46.473L39.8337 42.1485L23.9531 58.0722Z" fill="white"/>
</svg>
