<svg width="91" height="99" viewBox="0 0 91 99" fill="none" xmlns="http://www.w3.org/2000/svg">
<path d="M4.93359 94.0108L12.3166 38.0264C12.4945 36.5133 13.8287 35.3562 15.3409 35.3562L27.7052 35.1782C29.3953 35.1782 30.8185 36.5133 30.8185 38.2934V68.1102L56.4365 50.1311C57.415 49.5081 58.6603 50.2201 58.5713 51.2882L57.7708 70.9584L81.9656 52.1782C82.8551 51.4662 84.1894 52.0892 84.1894 53.2463L84.3673 95.4349L4.93359 94.0108Z" fill="#FFC05C"/>
<path d="M90.5036 92.8524H0.128906V98.7267H90.5036V92.8524Z" fill="#009345"/>
<path d="M18.5424 28.5007C17.7419 25.6526 24.1464 19.7782 31.5293 17.9091C37.7559 16.396 40.5134 18.7101 43.182 16.218C46.1174 13.4588 43.6267 9.63159 47.0069 5.44834C49.8534 1.88813 54.3009 1.26509 55.4573 1.08708C60.5275 0.375036 68.889 1.88813 68.8 6.07138C68.6221 12.5688 60.8833 17.9981 54.212 20.6683C50.2092 22.2704 48.7859 22.0033 39.446 21.6473C33.4863 21.4693 27.3486 21.2023 24.1464 24.8515C22.1894 27.0766 22.1005 29.9248 20.4994 30.0138C19.6988 30.0138 18.8093 29.3908 18.5424 28.5007Z" fill="#CCCCCC"/>
</svg>
