<svg width="121" height="63" viewBox="0 0 121 63" fill="none" xmlns="http://www.w3.org/2000/svg">
<path d="M104.007 11.763C104.007 11.763 91.5676 13.4931 78.7584 8.5498C65.9493 3.60648 64.1018 1.01123 58.9289 1.50557C53.7559 1.9999 41.4395 10.5271 41.4395 10.5271C41.4395 10.5271 53.7559 32.8957 54.4949 33.5136C55.2339 34.0079 67.3041 37.9626 67.9199 38.0862C68.5357 38.2097 108.441 36.9739 108.441 36.6032C108.441 36.2324 104.007 11.763 104.007 11.763Z" fill="#EA7468"/>
<path d="M25.4259 8.30262C25.4259 8.30262 32.8158 3.23571 47.7188 7.6847C62.6218 12.1337 87.7474 34.9966 87.7474 34.9966C87.7474 34.9966 61.0206 55.7585 60.4048 55.8821C59.9121 56.0057 24.687 43.0295 20.3762 37.839C16.0654 32.6485 14.3411 20.7845 17.1739 18.4364C20.0067 16.0884 25.4259 8.30262 25.4259 8.30262Z" fill="#EF8B7B"/>
<path d="M104.006 42.288C102.528 42.6587 101.173 41.7936 100.804 40.4342C98.7099 33.2664 92.798 12.8752 92.5516 10.2799C92.1821 6.94319 101.543 4.84228 107.701 4.59511C113.859 4.47153 121.742 34.2551 120.387 36.6031C119.525 38.4569 108.933 41.0521 104.006 42.288Z" fill="#D37300"/>
<path d="M28.5048 54.5227C26.9036 54.5227 25.5488 53.1633 25.5488 51.5567V41.2993C25.5488 39.6927 26.9036 38.3333 28.5048 38.3333C30.1059 38.3333 31.4607 39.6927 31.4607 41.2993V51.5567C31.4607 53.1633 30.2291 54.5227 28.5048 54.5227Z" fill="#EA7468"/>
<path d="M35.0327 57.983C33.0621 57.983 31.4609 56.3764 31.4609 54.3991V42.0408C31.4609 40.0634 33.0621 38.4568 35.0327 38.4568C37.0034 38.4568 38.6045 40.0634 38.6045 42.0408V54.3991C38.6045 56.3764 37.0034 57.983 35.0327 57.983Z" fill="#EA7468"/>
<path d="M42.7932 59.9603H42.3005C40.2067 59.9603 38.4824 58.2301 38.4824 56.1292V44.2652C38.4824 42.1643 40.2067 40.4341 42.3005 40.4341H42.7932C44.887 40.4341 46.6113 42.1643 46.6113 44.2652V56.1292C46.6113 58.2301 44.887 59.9603 42.7932 59.9603Z" fill="#EA7468"/>
<path d="M50.6759 62.1848H50.0601C48.0894 62.1848 46.4883 60.5782 46.4883 58.6008V47.9727C46.4883 45.9954 48.0894 44.3888 50.0601 44.3888H50.6759C52.6465 44.3888 54.2477 45.9954 54.2477 47.9727V58.6008C54.2477 60.5782 52.6465 62.1848 50.6759 62.1848Z" fill="#EA7468"/>
<path d="M72.8445 60.0839C71.6129 61.814 69.1496 62.1848 67.4253 60.949L59.2964 55.1406C57.5721 53.9047 57.2026 51.4331 58.4342 49.7029C59.6659 47.9727 62.1292 47.602 63.8535 48.8378L71.9824 54.6462C73.5835 55.8821 74.0762 58.3537 72.8445 60.0839Z" fill="#EF8B7B"/>
<path d="M80.4814 55.635L80.1119 56.1293C79.0034 57.7359 76.7865 58.1066 75.1853 56.9944L66.5638 50.8152C64.9626 49.703 64.5931 47.4785 65.7016 45.8719L66.0711 45.3776C67.1796 43.771 69.3966 43.4002 70.9977 44.5125L79.6193 50.6916C81.2204 51.8039 81.5899 54.0284 80.4814 55.635Z" fill="#EF8B7B"/>
<path d="M87.3794 50.9387C86.0246 52.7925 83.5613 53.1632 81.7139 51.9274L72.4765 45.3775C70.629 44.0181 70.2595 41.5464 71.4912 39.6927C72.846 37.8389 75.3093 37.4682 77.1568 38.704L86.271 45.2539C88.2416 46.6133 88.6111 49.085 87.3794 50.9387Z" fill="#EF8B7B"/>
<path d="M95.1373 45.8719C93.6593 47.9728 90.8265 48.4672 88.7327 46.9842L79.7417 40.4343C77.6479 38.9513 77.1552 36.1088 78.6332 34.0079C80.1112 31.907 82.944 31.4127 85.0378 32.8957L94.152 39.322C96.1226 40.9286 96.6153 43.771 95.1373 45.8719Z" fill="#EF8B7B"/>
<path d="M70.8738 5.70735C70.8738 5.70735 63.4839 0.146108 54.9855 1.01119C46.4872 1.87627 38.4814 10.2799 36.1413 11.8865C33.8012 13.4931 34.9097 22.3911 45.625 18.3128C56.3404 14.2346 61.3901 11.3922 61.3901 11.3922C61.3901 11.3922 73.4603 15.2232 74.3224 14.9761C75.1846 14.7289 70.8738 5.70735 70.8738 5.70735Z" fill="#EA7468"/>
<path d="M12.248 1.75267C10.8932 1.38192 9.41523 2.247 9.04573 3.60642C6.95193 10.7742 1.04001 31.1654 0.793684 33.7607C0.424189 36.9739 9.90789 39.0748 16.0661 39.3219C22.2244 39.5691 30.1069 9.66199 28.7521 7.31391C27.89 5.46017 17.2978 2.86492 12.248 1.75267Z" fill="#D37300"/>
</svg>
