<svg width="188" height="188" viewBox="0 0 188 188" fill="none" xmlns="http://www.w3.org/2000/svg">
<g clip-path="url(#clip0_430_518)">
<path d="M94.3003 187.294C145.95 187.294 187.82 145.424 187.82 93.7739C187.82 42.1242 145.95 0.253906 94.3003 0.253906C42.6506 0.253906 0.780273 42.1242 0.780273 93.7739C0.780273 145.424 42.6506 187.294 94.3003 187.294Z" fill="#FECB00"/>
<path d="M151.835 102.011L124.407 102.49L123.128 102.53L121.968 102.57L121.928 101.371L121.568 81.2994V80.2599L121.528 78.2607H122.288H122.528L151.555 78.5806C151.555 78.5806 151.555 78.7405 151.515 79.0604C151.396 80.5398 151.076 85.2178 151.076 89.4959C151.076 89.7758 151.076 90.0157 151.076 90.2956C151.076 90.9353 151.076 91.5351 151.116 92.1348C151.276 95.8532 151.515 98.772 151.675 100.451C151.795 101.451 151.835 102.011 151.835 102.011Z" fill="#B3B3B3"/>
<path d="M151.116 89.4552V90.4548C142.359 90.2149 132.524 89.2953 125.247 89.2553C125.087 88.9354 142.599 89.0554 151.116 89.4552Z" fill="#E6E7E8"/>
<path d="M149.676 96.5324C154.994 96.8123 127.886 97.6919 124.887 97.372C124.487 96.4524 139.241 96.0126 149.676 96.5324Z" fill="#E6E7E8"/>
<path d="M119.089 80.6594C119.049 79.7798 131.364 80.0596 139.281 80.8993C144.998 81.499 119.169 82.0188 119.089 80.6594Z" fill="#E6E7E8"/>
<path d="M122.408 84.4974C122.408 83.6177 139.561 84.8572 147.997 85.9767C153.675 86.7364 122.408 84.9372 122.408 84.4974Z" fill="#E6E7E8"/>
<path d="M124.167 78.2607L121.528 78.2207L121.968 102.53L124.447 102.49C123.967 93.3742 123.448 86.817 124.167 78.2607Z" fill="#193326"/>
<path d="M152.355 79.0197L151.516 78.9798L124.127 78.2601L122.608 78.2201C122.608 78.2201 122.568 78.2201 122.488 78.2201C122.408 78.2201 122.328 78.2201 122.248 78.1801C121.848 78.0602 121.248 77.7003 121.129 76.3809C121.009 75.2613 121.368 74.7416 121.728 74.5017C122.048 74.3018 122.328 74.3018 122.328 74.3018H122.888L137.881 74.8215L151.995 75.3013C152.275 75.3013 152.555 75.5012 152.795 75.8611C153.035 76.181 153.195 76.6608 153.235 77.1405C153.395 78.2201 152.955 79.0197 152.355 79.0197Z" fill="#193326"/>
<path d="M152.115 104.09L132.044 104.609L123.447 104.809H122.728C122.728 104.809 122.688 104.809 122.608 104.849C122.488 104.849 122.368 104.889 122.168 104.849C121.968 104.809 121.728 104.689 121.528 104.369C121.408 104.13 121.288 103.81 121.248 103.33C121.128 102.05 121.568 101.531 121.928 101.331C122.168 101.211 122.368 101.171 122.368 101.171H123.007L124.367 101.131L151.675 100.411H151.795C152.355 100.291 152.955 100.971 152.995 101.97C153.075 103.13 152.675 103.97 152.115 104.09Z" fill="#193326"/>
<path d="M122.928 74.2223L43.1617 73.9424C43.1617 73.9424 40.8827 78.3405 40.7227 87.4566C40.5628 98.092 43.6815 104.569 43.6815 104.569L123.407 104.889C122.768 101.131 121.688 83.2184 122.928 74.2223Z" fill="#006E39"/>
<path opacity="0.1" d="M57.1157 104.609H52.7576C52.7576 104.609 51.5981 96.6527 51.4782 88.4962C51.3182 79.9398 52.3578 73.9424 52.3578 73.9424H56.556C56.556 73.9424 55.6764 82.0189 55.7563 88.6961C55.9163 96.6527 57.1157 104.609 57.1157 104.609Z" fill="white"/>
<path opacity="0.1" d="M51.5183 104.609H49.9189C49.9189 104.609 48.6795 96.5328 48.5195 88.3763C48.3596 79.8199 49.4791 73.9824 49.4791 73.9824H50.9585C50.9585 73.9824 49.9589 81.939 50.0789 88.6561C50.2388 96.5728 51.5183 104.609 51.5183 104.609Z" fill="white"/>
<path opacity="0.1" d="M59.035 104.649H58.1953C58.1953 104.649 56.9558 96.5728 56.7959 88.4163C56.636 79.86 57.7555 74.0225 57.7555 74.0225H58.4752C58.4752 74.0225 57.3157 80.7396 57.5156 88.4963C57.7555 96.3729 59.035 104.649 59.035 104.649Z" fill="white"/>
<path opacity="0.1" d="M116.41 88.8164C116.53 96.3332 117.17 104.05 117.29 104.89H115.691C115.571 104.09 114.931 96.2932 114.811 88.5765C114.651 80.1801 115.731 74.4226 115.771 74.2227H117.45C117.41 74.6225 116.29 82.2992 116.41 88.8164Z" fill="white"/>
<path opacity="0.1" d="M118.849 104.89H118.01C118.01 104.89 117.25 96.853 117.13 88.6965C116.97 80.1401 118.089 74.2227 118.089 74.2227H118.809C118.809 74.2227 117.65 81.0197 117.85 88.7764C118.089 96.693 118.849 104.89 118.849 104.89Z" fill="white"/>
<path opacity="0.1" d="M115.131 104.889L114.291 104.849C114.291 104.849 113.532 96.8129 113.412 88.6564C113.252 80.1001 114.371 74.1826 114.371 74.1826H115.091C115.091 74.1826 113.931 80.9797 114.131 88.7364C114.371 96.653 115.131 104.889 115.131 104.889Z" fill="white"/>
<path d="M153.115 107.088L114.451 106.368L114.171 134.836L151.995 134.676C151.995 134.716 154.594 110.446 153.115 107.088Z" fill="#B3B3B3"/>
<path d="M153.355 108.808L150.156 108.728L115.851 108.008H115.691L114.451 107.968H114.251C114.251 107.968 113.771 108.168 113.811 106.409C113.811 106.289 113.811 106.169 113.811 106.049C113.851 105.489 113.891 105.089 113.971 104.849C114.051 104.569 114.131 104.409 114.211 104.33C114.331 104.21 114.451 104.25 114.451 104.25H115.051H115.651L117.25 104.29H117.49H117.97H118.809L121.568 104.33L123.367 104.37L132.044 104.569L149.116 104.929L152.195 105.009H152.435V105.049L152.915 107.088L153.355 108.808Z" fill="#D18F1C"/>
<path d="M152.075 133.037L151.995 134.676V134.716L151.875 136.795L149.956 136.755L115.411 136.036L114.411 135.996C114.411 135.996 113.891 136.236 114.011 134.077C114.011 133.997 114.011 133.917 114.011 133.837C114.051 133.317 114.131 132.957 114.171 132.717C114.371 132.117 114.571 132.237 114.571 132.237H114.891H115.69L150.436 132.957L152.075 133.037Z" fill="#D18F1C"/>
<path d="M125.207 123.361C132.883 124.081 141.36 124.841 149.156 124.241C152.395 124.001 149.676 123.202 149.436 123.162C143.159 122.042 125.247 123.042 125.207 123.361Z" fill="#CCCCCC"/>
<path d="M115.85 113.485C123.527 114.205 128.005 114.285 135.802 114.645C135.802 114.645 122.408 112.686 115.73 112.086C115.73 112.366 115.85 113.125 115.85 113.485Z" fill="#CCCCCC"/>
<path d="M114.811 130.358C119.849 130.838 139.6 131.557 146.637 130.318C151.875 129.398 119.449 129.078 115.051 128.639C115.051 128.879 114.851 130.118 114.811 130.358Z" fill="#CCCCCC"/>
<path d="M155.473 120.762C155.433 126.12 154.514 132.037 153.994 135.036C153.794 136.155 153.034 136.915 152.115 136.875L149.916 136.755H149.556C149.716 136.155 149.876 135.476 150.036 134.756C150.156 134.196 150.316 133.637 150.436 133.037C151.075 130.118 151.715 126.36 151.715 121.242C151.715 116.604 150.875 111.926 150.116 108.767C149.956 108.127 149.836 107.568 149.676 107.048C149.316 105.768 149.076 104.969 149.076 104.969L152.155 105.049C152.235 105.049 152.315 105.049 152.395 105.089C153.074 105.249 153.674 105.888 153.874 106.768C154.554 109.487 155.513 114.805 155.473 120.762Z" fill="#D18F1C"/>
<path d="M114.971 133.837C114.971 133.837 114.171 116.965 116.13 106.409H43.8014C43.8014 106.409 44.5211 112.007 44.3212 121.483C44.1213 130.959 42.522 134.157 42.522 134.157L114.971 133.837Z" fill="#F1F2F2"/>
<path d="M116.211 134.157C116.211 134.397 116.171 134.637 116.091 134.877C116.051 135.117 115.971 135.317 115.891 135.517C115.771 135.797 115.611 135.957 115.411 136.037C115.371 136.037 115.331 136.077 115.291 136.077L92.3008 136.197L41.6424 136.436C41.6424 136.436 40.6029 136.676 40.7628 134.477C40.8828 132.398 41.8823 132.598 41.8823 132.598H43.1218L92.3008 132.358L114.211 132.238H114.931H115.491C115.571 132.238 115.691 132.278 115.771 132.358C116.051 132.558 116.251 133.278 116.211 134.157Z" fill="#E6A628"/>
<path d="M43.5215 104.49L117.13 104.13C117.61 104.13 117.93 105.01 117.85 106.089C117.77 107.129 117.37 107.968 116.93 107.968L43.2816 108.288C43.2816 108.288 42.242 108.528 42.402 106.329C42.5219 104.29 43.5215 104.49 43.5215 104.49Z" fill="#E6A628"/>
<path d="M115.211 113.886C115.211 113.366 115.251 113.006 115.331 112.526C110.133 112.606 51.2783 112.966 44.2812 113.046C44.2812 113.286 44.2812 113.566 44.2812 114.006C57.0358 114.086 105.415 113.806 115.211 113.886Z" fill="#B3B3B3"/>
<path d="M114.811 117.924C115.971 117.164 97.2186 117.484 88.5423 117.524C79.2263 117.564 69.0306 118.004 64.7125 117.364C64.6725 118.004 80.6257 118.924 88.4623 119.004C96.0591 119.124 113.172 118.964 114.811 117.924Z" fill="#B3B3B3"/>
<path d="M88.9021 124.921C89.0221 124.921 89.7018 124.961 89.6618 124.681C89.6618 124.561 89.262 124.401 88.9021 124.401C85.9434 124.202 48.6393 123.002 44.3212 122.402C44.2812 122.962 44.3212 123.202 44.2412 123.922C53.0774 124.481 85.8234 125.121 88.9021 124.921Z" fill="#B3B3B3"/>
<path d="M114.851 129.559C114.851 129.12 114.811 127.92 114.811 127.44C111.492 127.52 102.416 127.64 93.74 127.68C84.424 127.72 74.3883 127.52 69.9502 127.92C67.3913 128.16 85.8234 129.04 93.62 128.8C100.777 128.56 108.614 129.52 114.851 129.559Z" fill="#B3B3B3"/>
<path d="M152.995 50.1533L114.331 49.4336L113.932 73.3833L151.755 73.3434C151.755 73.3833 154.434 52.9921 152.995 50.1533Z" fill="#B3B3B3"/>
<path d="M153.195 51.5924L149.996 51.5124L115.731 50.7927H115.611L114.332 50.7527H114.132C114.132 50.7527 113.652 50.9127 113.692 49.4333C113.692 49.3533 113.692 49.2334 113.692 49.1534C113.812 47.4342 114.332 47.6341 114.332 47.6341L117.33 47.714L148.957 48.3538L152.035 48.3937C152.035 48.3937 152.035 48.3937 152.075 48.3937H152.315L152.755 50.113L153.195 51.5924Z" fill="#662A10"/>
<path d="M151.836 71.9835L151.756 73.4229L151.636 75.1421L149.757 75.1021L137.922 74.8622L122.888 74.5424L121.769 74.5024L118.77 74.4224H118.05H117.45L115.771 74.3824H115.171H115.051H114.332H114.172C114.172 74.3824 114.012 74.4224 113.892 74.2225C113.772 74.0226 113.692 73.6228 113.772 72.7831C113.772 72.7032 113.772 72.6632 113.772 72.5832C113.812 72.1434 113.892 71.8635 113.972 71.6636C114.172 71.1838 114.372 71.2638 114.372 71.2638H114.692H115.491L150.236 71.9435L151.836 71.9835Z" fill="#662A10"/>
<path d="M125.007 63.7878C132.684 64.3876 141.16 65.0673 148.957 64.5875C152.195 64.3876 149.476 63.7078 149.236 63.6679C142.959 62.7083 125.047 63.4679 125.007 63.7878Z" fill="#CCCCCC"/>
<path d="M115.691 55.4309C123.368 56.0707 127.846 56.1106 135.642 56.4305C135.642 56.4305 122.248 54.7512 115.611 54.2314C115.611 54.4713 115.731 55.1511 115.691 55.4309Z" fill="#CCCCCC"/>
<path d="M114.611 69.6249C119.689 70.0248 139.401 70.7045 146.438 69.6649C151.675 68.9052 119.249 68.5454 114.851 68.1855C114.851 68.3855 114.651 69.425 114.611 69.6249Z" fill="#CCCCCC"/>
<path d="M155.314 61.6278C155.274 66.1459 154.314 71.1438 153.794 73.6227C153.595 74.5423 152.795 75.222 151.915 75.182L149.756 75.0621L149.356 75.0221C149.516 74.5023 149.676 73.9426 149.836 73.3428C149.956 72.903 150.116 72.4232 150.236 71.9034C150.876 69.4645 151.515 66.3058 151.555 61.9877C151.595 58.0694 150.716 54.151 149.996 51.5122C149.836 50.9524 149.716 50.4726 149.556 50.0728C149.196 48.9932 148.957 48.3535 148.957 48.3535L152.035 48.3935C152.035 48.3935 152.035 48.3935 152.075 48.3935C152.155 48.3935 152.235 48.3935 152.315 48.4335C152.995 48.5534 153.595 49.1132 153.794 49.8729C154.434 52.1919 155.354 56.67 155.314 61.6278Z" fill="#662A10"/>
<path d="M114.771 72.5435C114.771 72.5435 114.012 58.3496 116.011 49.4734L43.6817 49.3135C43.6817 49.3135 44.4014 54.0315 44.1615 61.9881C43.9216 69.9447 42.3223 72.6635 42.3223 72.6635L114.771 72.5435Z" fill="#F1F2F2"/>
<path d="M41.6426 71.2635L115.251 71.1436C115.731 71.1436 116.051 71.9032 115.971 72.7829C115.891 73.6625 115.491 74.3822 115.051 74.3822L41.4027 74.4621C41.4027 74.4621 40.3631 74.6621 40.5231 72.8228C40.643 71.1036 41.6426 71.2635 41.6426 71.2635Z" fill="#89411D"/>
<path d="M117.73 49.233C117.73 49.313 117.73 49.433 117.69 49.5129C117.65 49.8328 117.53 50.1127 117.41 50.3526C117.25 50.6325 117.01 50.8324 116.81 50.8324H115.731H115.611H114.332L92.3009 50.8723L43.8817 50.9523H43.162C43.162 50.9523 42.1224 51.1522 42.2824 49.313C42.4023 47.5538 43.4019 47.7137 43.4019 47.7137L92.3009 47.6337L117.05 47.5938C117.17 47.5938 117.29 47.6337 117.37 47.7537C117.65 47.9536 117.81 48.5533 117.73 49.233Z" fill="#89411D"/>
<path d="M115.051 55.7904C115.051 55.3506 115.091 55.0707 115.171 54.6709C109.973 54.7109 51.1186 54.9108 44.1216 54.9508C44.1216 55.1507 44.1216 55.3906 44.1216 55.7504C56.8761 55.8304 105.255 55.7105 115.051 55.7904Z" fill="#B3B3B3"/>
<path d="M114.651 59.1486C115.811 58.5088 97.0589 58.7487 88.3826 58.7487C79.0666 58.7487 68.871 59.1086 64.5528 58.5488C64.5128 59.0686 80.466 59.9082 88.2627 59.9882C95.8994 60.1481 113.012 60.0682 114.651 59.1486Z" fill="#B3B3B3"/>
<path d="M88.7024 64.9861C88.8224 64.9861 89.5021 64.9861 89.4621 64.7862C89.4621 64.7062 89.0623 64.5463 88.7024 64.5463C85.7437 64.3864 48.4796 63.2668 44.1215 62.7471C44.0815 63.2269 44.1215 63.4268 44.0415 64.0265C52.8777 64.5463 85.6637 65.146 88.7024 64.9861Z" fill="#B3B3B3"/>
<path d="M114.651 68.9447C114.651 68.5849 114.611 67.5853 114.611 67.1455C111.293 67.1855 102.217 67.3054 93.5403 67.3054C84.2243 67.3054 74.1886 67.1455 69.7505 67.4654C67.1915 67.6653 85.6237 68.425 93.4203 68.265C100.537 68.0651 108.374 68.9048 114.651 68.9447Z" fill="#B3B3B3"/>
<path d="M81.9057 136.235V143.352H26.5693V136.235C26.5693 134.676 27.5689 133.356 28.9683 132.877C29.3282 132.757 29.688 132.677 30.0878 132.677H78.3872C78.787 132.677 79.1468 132.757 79.5067 132.877C80.9061 133.356 81.9057 134.676 81.9057 136.235Z" fill="#89411D"/>
<path d="M83.1852 142.073V145.312C83.1852 145.632 82.9053 145.912 82.5855 145.912H25.8497C25.5299 145.912 25.25 145.632 25.25 145.312V142.073C25.25 141.354 25.8098 140.794 26.5295 140.754H81.9058C82.6255 140.754 83.1852 141.354 83.1852 142.073Z" fill="#662A10"/>
<path d="M79.5466 131.877V132.677C79.5466 132.757 79.5466 132.797 79.5466 132.877C79.4666 133.797 78.7069 134.476 77.7473 134.476H30.7275C29.8078 134.476 29.0482 133.757 28.9282 132.877C28.9282 132.797 28.9282 132.757 28.9282 132.677V131.877C28.9282 130.878 29.7279 130.078 30.7275 130.078H77.7074C78.7469 130.078 79.5466 130.878 79.5466 131.877Z" fill="#89411D"/>
<path d="M145.279 135.476C144.439 137.795 141.88 138.954 139.601 138.115C138.682 137.755 137.922 137.155 137.402 136.355C131.405 135.756 120.609 128.799 110.454 124.76C109.614 124.441 108.775 124.121 107.935 123.801C107.535 124.281 107.135 124.52 106.815 124.401C106.655 124.321 106.536 124.161 106.456 123.961C106.056 124.48 105.656 124.72 105.376 124.64C105.096 124.52 104.976 124.081 104.976 123.441C104.776 123.561 104.576 123.601 104.416 123.561C104.097 123.441 103.977 123.041 103.977 122.441C95.1804 119.403 86.1043 117.084 81.7061 116.044C81.0664 116.804 80.0269 117.124 79.0273 116.764L78.4675 116.564C77.5879 116.244 77.0281 115.484 76.9082 114.645L74.989 113.965L72.0303 112.885L74.6292 105.729L77.5879 106.808L79.5071 107.488C80.1468 106.928 81.0664 106.688 81.946 107.008L82.5058 107.208C83.5054 107.568 84.1051 108.487 84.1051 109.487C88.1434 111.486 96.5798 115.524 105.256 118.883C105.656 118.443 106.016 118.203 106.336 118.323C106.496 118.363 106.615 118.523 106.695 118.763C107.095 118.243 107.495 118.003 107.775 118.083C108.055 118.203 108.175 118.643 108.175 119.283C108.375 119.163 108.575 119.123 108.735 119.163C109.054 119.283 109.214 119.723 109.214 120.322C110.094 120.642 110.934 120.922 111.773 121.202C122.129 124.64 134.923 126.28 139.841 129.678C140.721 129.398 141.72 129.398 142.64 129.758C144.919 130.598 146.119 133.157 145.279 135.476Z" fill="#89411D"/>
<path d="M78.4276 104.369L78.3476 104.609L77.588 106.728L74.9491 113.885L74.1894 115.964L74.1094 116.244L63.554 112.406L62.9942 112.206L52.9585 108.527L53.0385 108.287L57.1967 96.8922L57.2767 96.6523L67.1924 100.291L67.7522 100.491L78.4276 104.369Z" fill="#B4701F"/>
<path d="M72.5899 127.2C72.1901 128.04 71.3904 128.799 70.3109 129.239C68.8715 129.839 66.9923 129.959 64.8732 129.199C60.1952 127.48 58.7958 127 58.4759 126.88C58.396 126.84 58.396 126.84 58.396 126.84C58.396 126.84 58.316 126.8 57.9561 126.68C57.2764 126.44 55.6371 125.841 51.9187 124.481C49.7996 123.722 48.4402 122.402 47.7205 121.043C47.1608 120.003 47.0408 118.884 47.2807 118.004C47.3607 117.644 47.5206 117.324 47.7205 117.044C48.0804 116.565 48.6001 116.205 49.3198 116.005C49.3998 115.965 49.5198 115.965 49.5997 115.965C50.1995 115.885 50.6793 115.725 51.0391 115.525C51.6788 115.205 51.9587 114.725 52.0387 114.286C52.1186 113.766 51.9987 113.286 51.8388 112.926C51.7188 112.686 51.5989 112.526 51.5189 112.486L61.7545 115.925L62.3143 116.125H62.3543L72.9897 120.323C72.9097 120.283 72.7098 120.323 72.4699 120.443C72.1101 120.603 71.6703 120.883 71.4304 121.363C71.1905 121.762 71.1105 122.282 71.3904 122.962C71.5503 123.322 71.7902 123.761 72.1901 124.201C72.27 124.281 72.31 124.361 72.39 124.441C72.8298 125.001 72.9897 125.641 72.9497 126.24C72.8698 126.52 72.7498 126.88 72.5899 127.2Z" fill="#89411D"/>
<path d="M75.2687 118.884C74.8289 120.043 73.5894 120.683 72.3899 120.403C72.31 120.403 72.27 120.363 72.19 120.363H72.15L62.0344 116.685L61.4746 116.485L51.8387 112.966C51.7987 112.966 51.7588 112.926 51.7188 112.926C50.5593 112.446 49.9595 111.087 50.3993 109.887C50.7992 108.808 51.8787 108.168 52.9982 108.328C53.1582 108.328 53.3181 108.368 53.478 108.448H53.518L63.1139 111.927L63.6737 112.126L73.8693 115.845C73.9893 115.885 74.1092 115.965 74.2292 116.005C75.2287 116.565 75.6685 117.764 75.2687 118.884Z" fill="#662A10"/>
<path d="M83.7052 95.893C83.3454 96.3728 82.8256 96.7326 82.1059 96.8925C82.0259 96.9325 81.906 96.9325 81.826 96.9325C81.2263 97.0125 80.7465 97.1724 80.3867 97.3723C79.7469 97.6922 79.467 98.172 79.3871 98.6118C79.3071 99.1316 79.4271 99.6114 79.587 99.9712C79.7069 100.211 79.8269 100.371 79.9069 100.411L69.0715 96.7726H69.0315L68.4717 96.5727L58.436 92.6144C58.516 92.6544 58.7159 92.6144 58.9558 92.4944C59.3157 92.3345 59.7555 92.0546 59.9954 91.5748C60.2353 91.175 60.3152 90.6552 60.0354 89.9755C59.8754 89.6157 59.6355 89.1758 59.2357 88.736C59.1557 88.6561 59.1157 88.5761 59.0758 88.4961C58.636 87.9364 58.476 87.2966 58.516 86.6969C58.556 86.3371 58.636 86.0172 58.7959 85.6973C59.1957 84.8577 59.9954 84.098 61.0749 83.6582C62.4743 83.0585 64.3935 82.9385 66.5126 83.6982C69.8312 84.8977 71.4705 85.4974 72.2701 85.8173C72.55 85.8972 72.7099 85.9772 72.8299 86.0172C72.9498 86.0572 72.9898 86.0972 72.9898 86.0972C72.9898 86.0972 73.8295 86.417 79.467 88.4562C81.5861 89.2158 82.9456 90.5353 83.6653 91.8947C84.225 92.9342 84.345 94.0538 84.1051 94.9334C84.0251 95.2932 83.9051 95.6131 83.7052 95.893Z" fill="#89411D"/>
<path d="M80.9463 103.05C80.5464 104.129 79.4669 104.769 78.3474 104.609C78.1874 104.609 78.0275 104.569 77.8676 104.489H77.8276L67.6319 100.771L67.0722 100.571L57.5163 97.0921C57.3963 97.0521 57.2764 96.9722 57.1564 96.9322C56.1569 96.3724 55.6771 95.133 56.0769 94.0134C56.5167 92.8539 57.7562 92.2142 58.9557 92.4941C59.0356 92.4941 59.0756 92.5341 59.1556 92.5341H59.1956L68.7115 96.0126L69.2713 96.2125L79.5469 99.9709C79.5868 99.9709 79.6268 100.011 79.6668 100.011C80.7863 100.491 81.3861 101.81 80.9463 103.05Z" fill="#662A10"/>
<path opacity="0.1" d="M145.279 135.476C144.439 137.795 141.88 138.955 139.601 138.115C138.682 137.755 137.922 137.155 137.402 136.356C131.405 135.756 120.609 128.799 110.454 124.761C109.614 124.441 108.774 124.121 107.935 123.801C107.535 124.281 107.135 124.521 106.815 124.401C106.655 124.321 106.535 124.161 106.455 123.961C106.056 124.481 105.656 124.721 105.376 124.641C105.096 124.521 104.976 124.081 104.976 123.441C104.776 123.561 104.576 123.601 104.416 123.561C104.096 123.441 103.976 123.041 103.976 122.442C95.1802 119.403 86.1041 117.084 81.7059 116.044C81.0662 116.804 80.0267 117.124 79.0271 116.764L78.4673 116.564C77.5877 116.244 77.0279 115.485 76.908 114.645L74.9888 113.965L74.2291 116.044C75.2287 116.604 75.7085 117.844 75.3087 118.963C74.8689 120.123 73.6294 120.762 72.4299 120.483C72.0701 120.642 71.6303 120.922 71.3904 121.402C71.1505 121.802 71.0705 122.322 71.3504 123.001C71.5103 123.361 71.7502 123.801 72.15 124.241C72.23 124.321 72.27 124.401 72.3499 124.481C72.7898 125.041 72.9497 125.68 72.9097 126.28C72.8697 126.64 72.7898 126.96 72.6298 127.28C72.23 128.119 71.4303 128.879 70.3508 129.319C68.9114 129.918 67.0322 130.038 64.9131 129.279C60.2351 127.56 58.8357 127.08 58.5159 126.96C58.4359 126.92 58.4359 126.92 58.4359 126.92C58.4359 126.92 58.3559 126.88 57.9961 126.76L72.27 85.8174C72.5499 85.8973 72.7098 85.9773 72.8297 86.0173C72.9497 86.0573 72.9897 86.0973 72.9897 86.0973C72.9897 86.0973 73.8293 86.4171 79.4669 88.4563C81.586 89.2159 82.9454 90.5354 83.6651 91.8948C84.2249 92.9343 84.3448 94.0539 84.1049 94.9335C84.0249 95.2933 83.865 95.6132 83.6651 95.8931C83.3053 96.3729 82.7855 96.7327 82.0658 96.8926C81.9858 96.9326 81.8659 96.9326 81.7859 96.9326C81.1862 97.0126 80.7064 97.1725 80.3465 97.3724C79.7068 97.6923 79.4269 98.1721 79.347 98.6119C79.267 99.1317 79.3869 99.6115 79.5469 99.9713C80.7464 100.451 81.3061 101.811 80.8663 103.01C80.4665 104.09 79.3869 104.729 78.2674 104.569L77.4678 106.728L79.3869 107.408C80.0267 106.848 80.9463 106.608 81.8259 106.928L82.3857 107.128C83.3852 107.488 83.985 108.408 83.985 109.407C88.0232 111.406 96.4596 115.445 105.136 118.803C105.536 118.363 105.896 118.124 106.215 118.243C106.375 118.283 106.495 118.443 106.575 118.683C106.975 118.164 107.375 117.924 107.655 118.004C107.935 118.124 108.055 118.563 108.055 119.203C108.255 119.083 108.455 119.043 108.614 119.083C108.934 119.203 109.094 119.643 109.094 120.243C109.974 120.563 110.813 120.842 111.653 121.122C122.009 124.561 134.803 126.2 139.721 129.599C140.601 129.319 141.6 129.319 142.52 129.679C144.919 130.598 146.118 133.157 145.279 135.476Z" fill="white"/>
<path opacity="0.1" d="M83.185 142.073V145.312C83.185 145.632 82.9052 145.911 82.5853 145.911H53.9575C53.9575 145.112 53.9575 144.272 53.9575 143.353C53.9575 142.513 53.9575 141.673 53.9975 140.794C54.0375 138.675 54.0375 136.475 54.0775 134.516C54.0775 133.877 54.1174 133.277 54.1174 132.717C54.1574 131.717 54.1574 130.798 54.1974 130.118H77.7474C78.7469 130.118 79.5466 130.918 79.5466 131.917V132.717C79.5466 132.797 79.5466 132.837 79.5466 132.917C80.946 133.397 81.9456 134.716 81.9456 136.276V140.834C82.6253 140.754 83.185 141.353 83.185 142.073Z" fill="white"/>
</g>
<defs>
<clipPath id="clip0_430_518">
<rect width="187" height="187" fill="white" transform="translate(0.780273 0.253906)"/>
</clipPath>
</defs>
</svg>
