<svg width="192" height="192" viewBox="0 0 192 192" fill="none" xmlns="http://www.w3.org/2000/svg">
<g clip-path="url(#clip0_430_482)">
<path d="M191.73 95.7743C191.73 108.107 189.403 119.91 185.156 130.691C184.665 131.916 184.175 133.141 183.645 134.326C168.82 167.854 135.251 191.254 96.2509 191.254C43.488 191.254 0.730469 148.496 0.730469 95.7743C0.730469 43.0114 43.488 0.253906 96.2509 0.253906C148.973 0.253906 191.73 43.0114 191.73 95.7743Z" fill="#009444"/>
<path d="M59.1294 48.4431V52.9353H46.8779V48.4431C46.8779 45.0535 49.6141 42.3174 53.0037 42.3174C54.678 42.3174 56.2299 43.0116 57.3325 44.1143C58.4351 45.2169 59.1294 46.7279 59.1294 48.4431Z" fill="#B4B2B3"/>
<path d="M134.925 53.2212V149.232H65.3371C61.9067 149.191 59.1297 146.414 59.1297 142.983V48.4431C59.1297 48.2389 59.1297 48.0347 59.0889 47.8305C59.0889 47.6263 59.048 47.463 59.0072 47.2996C59.0072 47.1771 58.9664 47.0546 58.9255 46.9729C58.9255 46.8913 58.8847 46.8096 58.8439 46.7279C58.803 46.6462 58.803 46.5237 58.7622 46.442C58.7622 46.3604 58.7213 46.2787 58.6805 46.2378C58.6397 46.1153 58.5988 46.0337 58.5171 45.9111C58.4763 45.7478 58.3946 45.6253 58.313 45.5028C58.2721 45.4211 58.1904 45.2986 58.1088 45.2169C58.0679 45.1352 58.0271 45.0535 57.9454 44.9719C57.8637 44.8085 57.7412 44.686 57.6187 44.5635C57.4962 44.441 57.4145 44.3185 57.292 44.1959C57.1695 44.0734 57.047 43.9509 56.9245 43.8692C56.8428 43.7876 56.7203 43.7059 56.5978 43.6242C56.5161 43.5425 56.3936 43.5017 56.3119 43.42C56.1485 43.3383 55.9852 43.2158 55.8218 43.1341C55.4951 42.9708 55.1684 42.8074 54.8009 42.6849C54.6375 42.6441 54.4333 42.5624 54.27 42.5216C54.1066 42.4807 53.9433 42.4399 53.7391 42.4399H53.6982V42.3174H123.899C130.066 42.3174 134.925 47.1771 134.925 53.2212Z" fill="white"/>
<path d="M145.583 138.573V141.309C145.583 145.679 142.03 149.232 137.66 149.232H65.3359C69.869 149.191 73.5444 146.455 73.5444 143.106V138.573H145.583Z" fill="#B4B2B5"/>
<path d="M127.492 56.6514H66.8066V58.7749H127.492V56.6514Z" fill="#B4B2B3"/>
<path d="M127.492 64.6553H66.8066V66.7789H127.492V64.6553Z" fill="#B4B2B3"/>
<path d="M127.492 72.6191H66.8066V74.7427H127.492V72.6191Z" fill="#B4B2B3"/>
<path d="M127.492 80.623H66.8066V82.7466H127.492V80.623Z" fill="#B4B2B3"/>
<path d="M127.492 88.5869H66.8066V90.7105H127.492V88.5869Z" fill="#B4B2B3"/>
<path d="M127.492 96.5498H66.8066V98.6734H127.492V96.5498Z" fill="#B4B2B3"/>
<path d="M127.492 104.555H66.8066V106.678H127.492V104.555Z" fill="#B4B2B3"/>
<path d="M127.492 112.518H66.8066V114.641H127.492V112.518Z" fill="#B4B2B3"/>
<path d="M126.962 126.607C126.962 130.569 123.736 133.795 119.774 133.795C115.813 133.795 112.587 130.569 112.587 126.607C112.587 122.646 115.813 119.42 119.774 119.42C123.736 119.42 126.962 122.646 126.962 126.607Z" fill="#FCB040"/>
<path d="M163.021 149.068V156.337H106.46V149.068C106.46 147.475 107.481 146.128 108.91 145.638C109.278 145.515 109.645 145.434 110.054 145.434H159.386C159.795 145.434 160.162 145.515 160.53 145.638C162 146.128 163.021 147.475 163.021 149.068Z" fill="#89411D"/>
<path d="M164.328 155.031V158.339C164.328 158.666 164.042 158.952 163.715 158.952H105.766C105.439 158.952 105.153 158.666 105.153 158.339V155.031C105.153 154.296 105.725 153.724 106.46 153.684H163.021C163.715 153.724 164.328 154.337 164.328 155.031Z" fill="#662A10"/>
<path d="M160.57 144.658V145.475C160.57 145.556 160.57 145.597 160.57 145.679C160.489 146.618 159.713 147.312 158.733 147.312H110.748C109.809 147.312 109.033 146.577 108.91 145.679C108.91 145.597 108.91 145.556 108.91 145.475V144.658C108.91 143.637 109.727 142.82 110.748 142.82H158.733C159.754 142.82 160.57 143.637 160.57 144.658Z" fill="#89411D"/>
<path d="M185.155 130.691C184.665 131.916 184.175 133.142 183.644 134.326C175.272 131.549 166.941 129.425 162.775 128.404C162.122 129.18 161.06 129.507 160.039 129.139L159.468 128.935C158.569 128.609 157.997 127.833 157.875 126.975L155.915 126.281L152.893 125.178L155.547 117.868L158.569 118.971L160.529 119.665C161.183 119.093 162.122 118.848 163.02 119.175L163.592 119.379C164.572 119.747 165.226 120.686 165.185 121.707C169.064 123.667 176.865 127.424 185.155 130.691Z" fill="#89411D"/>
<path d="M159.427 116.56L159.386 116.765L158.569 118.97L155.915 126.28L155.139 128.404L155.016 128.649L144.235 124.728L143.704 124.524L133.413 120.808L133.495 120.563L137.742 108.924L137.824 108.679L147.951 112.395L148.523 112.599L159.427 116.56Z" fill="#B4701F"/>
<path d="M153.505 139.839C153.097 140.697 152.28 141.472 151.178 141.922C149.707 142.534 147.788 142.657 145.624 141.881C140.846 140.125 139.416 139.635 139.089 139.512C139.008 139.471 139.008 139.471 139.008 139.471C139.008 139.471 138.926 139.431 138.559 139.308C137.864 139.063 136.19 138.45 132.392 137.062C130.228 136.286 128.839 134.938 128.104 133.55C127.532 132.488 127.41 131.345 127.655 130.446C127.736 130.079 127.9 129.752 128.104 129.466C128.472 128.976 129.002 128.608 129.738 128.404C129.819 128.363 129.942 128.363 130.023 128.363C130.636 128.282 131.126 128.118 131.494 127.914C132.147 127.588 132.433 127.097 132.515 126.648C132.596 126.117 132.474 125.627 132.31 125.26C132.188 125.015 132.065 124.851 131.984 124.811L142.438 128.323L143.01 128.527H143.051L153.914 132.815C153.832 132.774 153.628 132.815 153.383 132.937C153.015 133.101 152.566 133.387 152.321 133.877C152.076 134.285 151.994 134.816 152.28 135.51C152.444 135.878 152.689 136.327 153.097 136.776C153.179 136.858 153.219 136.939 153.301 137.021C153.75 137.593 153.914 138.246 153.873 138.859C153.75 139.186 153.628 139.512 153.505 139.839Z" fill="#89411D"/>
<path d="M156.241 131.385C155.792 132.57 154.526 133.223 153.301 132.937C153.219 132.937 153.178 132.896 153.097 132.896H153.056L142.724 129.139L142.152 128.935L132.31 125.341C132.269 125.341 132.228 125.3 132.188 125.3C131.003 124.81 130.391 123.422 130.84 122.197C131.248 121.094 132.351 120.441 133.494 120.604C133.658 120.604 133.821 120.645 133.984 120.726H134.025L143.826 124.279L144.398 124.484L154.812 128.282C154.934 128.322 155.057 128.404 155.179 128.445C156.16 128.976 156.65 130.242 156.241 131.385Z" fill="#662A10"/>
<path d="M164.818 107.862C164.45 108.352 163.919 108.72 163.184 108.883C163.102 108.924 162.98 108.924 162.898 108.924C162.286 109.006 161.795 109.169 161.428 109.373C160.775 109.7 160.489 110.19 160.407 110.639C160.325 111.17 160.448 111.66 160.611 112.028C160.734 112.273 160.856 112.436 160.938 112.477L149.871 108.761H149.83L149.258 108.557L139.008 104.514C139.089 104.555 139.294 104.514 139.539 104.391C139.906 104.228 140.355 103.942 140.6 103.452C140.846 103.044 140.927 102.513 140.641 101.818C140.478 101.451 140.233 101.002 139.825 100.552C139.743 100.471 139.702 100.389 139.661 100.307C139.212 99.7356 139.049 99.0822 139.089 98.4696C139.13 98.1021 139.212 97.7754 139.375 97.4487C139.784 96.5911 140.601 95.8152 141.703 95.3659C143.132 94.7534 145.093 94.6309 147.257 95.4068C150.647 96.6319 152.321 97.2445 153.138 97.5712C153.424 97.6529 153.587 97.7346 153.71 97.7754C153.832 97.8162 153.873 97.8571 153.873 97.8571C153.873 97.8571 154.73 98.1838 160.489 100.267C162.653 101.042 164.042 102.39 164.777 103.779C165.348 104.84 165.471 105.984 165.226 106.882C165.185 107.25 165.022 107.577 164.818 107.862Z" fill="#89411D"/>
<path d="M161.999 115.172C161.591 116.275 160.488 116.928 159.345 116.765C159.181 116.765 159.018 116.724 158.855 116.642H158.814L148.4 112.844L147.828 112.64L138.068 109.087C137.946 109.047 137.823 108.965 137.701 108.924C136.68 108.352 136.19 107.086 136.598 105.943C137.047 104.759 138.313 104.105 139.538 104.391C139.62 104.391 139.661 104.432 139.742 104.432H139.783L149.503 107.985L150.075 108.189L160.57 112.028C160.611 112.028 160.652 112.069 160.692 112.069C161.836 112.599 162.448 113.947 161.999 115.172Z" fill="#662A10"/>
<path opacity="0.1" d="M185.155 130.691C184.665 131.916 184.175 133.141 183.644 134.325C175.272 131.548 166.941 129.425 162.775 128.404C162.122 129.18 161.06 129.506 160.039 129.139L159.468 128.935C158.569 128.608 157.997 127.832 157.875 126.974L155.915 126.28L155.139 128.404C156.16 128.975 156.65 130.241 156.241 131.385C155.792 132.569 154.526 133.223 153.301 132.937C152.933 133.1 152.484 133.386 152.239 133.876C151.994 134.284 151.912 134.815 152.198 135.509C152.362 135.877 152.607 136.326 153.015 136.775C153.097 136.857 153.138 136.939 153.219 137.02C153.669 137.592 153.832 138.246 153.791 138.858C153.75 139.226 153.669 139.552 153.505 139.879C153.097 140.737 152.28 141.513 151.177 141.962C149.748 142.574 147.788 142.697 145.623 141.921C140.845 140.165 139.416 139.675 139.089 139.552C139.008 139.512 139.008 139.512 139.008 139.512C139.008 139.512 138.926 139.471 138.518 139.348L142.193 128.935L142.397 128.363L143.704 124.606L143.786 124.32L147.87 112.722L147.951 112.477L149.299 108.679L149.503 108.107L153.178 97.6934C153.464 97.775 153.628 97.8567 153.75 97.8975C153.873 97.9384 153.914 97.9792 153.914 97.9792C153.914 97.9792 154.771 98.3059 160.529 100.389C162.694 101.165 164.082 102.512 164.817 103.901C165.348 104.963 165.512 106.106 165.267 107.004C165.185 107.372 165.022 107.699 164.817 107.985C164.45 108.475 163.919 108.842 163.184 109.006C163.102 109.046 162.98 109.046 162.898 109.046C162.285 109.128 161.795 109.291 161.428 109.496C160.774 109.822 160.488 110.312 160.407 110.762C160.325 111.292 160.448 111.783 160.611 112.15C161.836 112.64 162.408 114.029 161.959 115.254C161.55 116.356 160.448 117.01 159.304 116.846L158.528 119.052L160.488 119.746C161.142 119.174 162.081 118.929 162.98 119.256L163.551 119.46C164.531 119.828 165.185 120.767 165.144 121.788C169.065 123.666 176.865 127.424 185.155 130.691Z" fill="white"/>
<path opacity="0.1" d="M164.328 155.031V158.339C164.328 158.666 164.042 158.951 163.716 158.951H134.476C134.476 158.135 134.476 157.277 134.476 156.338C134.476 155.48 134.476 154.623 134.516 153.724C134.557 151.56 134.557 149.314 134.598 147.313C134.598 146.659 134.639 146.047 134.639 145.475C134.68 144.454 134.68 143.515 134.721 142.82H158.774C159.795 142.82 160.612 143.637 160.612 144.658V145.475C160.612 145.556 160.612 145.597 160.612 145.679C162.041 146.169 163.062 147.517 163.062 149.109V153.765C163.716 153.724 164.328 154.337 164.328 155.031Z" fill="white"/>
</g>
<defs>
<clipPath id="clip0_430_482">
<rect width="191" height="191" fill="white" transform="translate(0.730469 0.253906)"/>
</clipPath>
</defs>
</svg>
