<svg width="49" height="70" viewBox="0 0 49 70" fill="none" xmlns="http://www.w3.org/2000/svg">
<g clip-path="url(#clip0_361_163)">
<path d="M22.8105 0.900195C22.5105 0.700195 22.3105 0.700195 22.3105 0.700195C22.3105 0.700195 22.5105 0.800195 22.8105 0.900195Z" fill="#009345"/>
<path d="M47.2104 24.7004C47.2104 25.6004 47.3104 26.5004 47.3104 27.5004C47.6104 40.7004 37.1104 50.9004 37.1104 50.9004C37.1104 50.9004 44.4104 39.3004 45.0104 30.2004C45.2104 26.3004 44.7104 23.3004 44.1104 21.2004C43.6104 19.6004 42.5104 18.2004 40.9104 17.6004C39.9104 17.2004 38.9104 16.9004 37.8104 16.7004C39.0104 16.2004 40.3104 15.3004 41.6104 13.6004C44.2104 10.1004 45.8104 9.60039 46.5104 9.60039C44.7104 9.40039 37.2104 8.70039 34.6104 12.3004C33.7104 6.60039 25.0104 2.00039 22.8104 0.900391C23.6104 1.40039 25.1104 3.20039 25.5104 9.10039C25.8104 12.8004 27.1104 15.1004 28.5104 16.6004C27.5104 16.8004 26.5104 17.0004 25.6104 17.4004C21.4104 19.1004 17.5104 23.4004 17.1104 33.4004C16.1104 56.9004 -6.28964 61.7004 3.11035 67.8004C17.8104 77.1004 56.1104 54.1004 47.2104 24.7004Z" fill="#009345"/>
</g>
<defs>
<clipPath id="clip0_361_163">
<rect width="47.6" height="69.2" fill="white" transform="translate(0.910156 0.700195)"/>
</clipPath>
</defs>
</svg>
