<svg width="207" height="72" viewBox="0 0 207 72" fill="none" xmlns="http://www.w3.org/2000/svg">
<path d="M125.635 64.5894C125.635 64.5894 121.633 60.0733 124.005 55.8286C121.311 58.716 119.681 62.8619 121.558 66.7611C124.227 72.3383 135.346 73.5969 145.427 69.7965C137.891 71.8694 129.737 69.5003 125.635 64.5894Z" fill="#009444"/>
<path d="M155.038 58.1483C155.038 58.1236 155.038 58.1236 155.038 58.1236C156.274 48.277 150.171 46.2041 144.982 45.7845C144.809 45.7599 144.611 45.7599 144.438 45.7352C143.598 45.6858 142.783 45.6611 142.042 45.6611H131.071C130.799 45.6611 130.552 45.6611 130.33 45.6365H129.317C127.068 45.6365 125.215 43.7856 125.215 41.5399C125.215 40.2566 125.808 39.1214 126.747 38.3564C120.669 41.5399 120.743 47.6848 120.743 47.6848C120.743 51.2137 122.646 53.262 124.746 54.2738C128.106 55.4831 131.318 55.3103 132.257 55.3103H143.104H144.661C151.332 55.3103 152.147 60.1473 152.147 60.1473C152.147 60.1473 152.147 60.1966 152.172 60.2953C152.221 61.0357 152.271 64.2685 149.429 67.2052C152.37 64.8114 153.778 62.2696 154.421 60.4681C158.3 60.5915 162.723 59.9005 166.923 58.3211C162.945 59.4563 158.72 59.2835 155.038 58.1483Z" fill="#009444"/>
<path d="M163.612 34.2105H152.642C152.37 34.2105 152.123 34.2105 151.9 34.1858H150.887C150.591 34.1858 150.294 34.1611 150.023 34.0871C151.456 32.2609 152.271 30.0892 152.271 27.7941C152.271 27.7694 152.271 27.7201 152.271 27.6954C154.075 28.2383 156.027 28.5591 158.078 28.5591C166.775 28.5591 173.841 23.0806 173.841 16.3434C173.841 9.60625 166.775 4.12769 158.078 4.12769C149.38 4.12769 142.314 9.60625 142.314 16.3434C142.314 16.3681 142.314 16.4174 142.314 16.4421C140.51 15.8992 138.558 15.5784 136.507 15.5784C127.81 15.5784 120.743 21.057 120.743 27.7941C120.743 34.5313 127.81 40.0098 136.507 40.0098C138.731 40.0098 140.856 39.6397 142.758 38.998C143.45 40.8736 144.834 42.1075 146.316 42.8232C146.292 42.8232 146.341 42.8232 146.316 42.8232C149.677 44.0324 152.889 43.8596 153.828 43.8596H166.231C172.903 43.8596 173.718 48.6966 173.718 48.6966C173.718 48.6966 174.212 52.423 171 55.7792C176.288 51.4852 176.584 46.6236 176.584 46.6236C178.091 34.8521 168.999 34.2105 163.612 34.2105ZM158.053 4.86803C161.141 4.86803 163.637 10.0011 163.637 16.3681C163.637 22.7104 161.141 27.8681 158.053 27.8681C154.964 27.8681 152.469 22.7351 152.469 16.3681C152.469 10.0258 154.964 4.86803 158.053 4.86803ZM136.507 39.3188C133.419 39.3188 130.923 34.1858 130.923 27.8188C130.923 21.4765 133.419 16.3187 136.507 16.3187C139.596 16.3187 142.091 21.4518 142.091 27.8188C142.091 34.1611 139.596 39.3188 136.507 39.3188Z" fill="#009444"/>
<path d="M9.75305 16.1707H0.437988V47.5367H9.75305V16.1707Z" fill="#009444"/>
<path d="M21.3412 16.2693H18.1539C15.2877 16.2693 12.7674 17.676 11.2108 19.8477C12.1744 18.7372 13.6075 18.0215 15.1889 18.0215C18.0797 18.0215 20.427 20.3659 20.427 23.2533V47.6354H29.8656V24.7833C29.8656 20.0698 26.0358 16.2693 21.3412 16.2693Z" fill="#009444"/>
<path d="M41.3797 16.22H38.1924C35.3262 16.22 32.8059 17.6267 31.2493 19.7984C32.2129 18.6879 33.646 17.9722 35.2273 17.9722C38.1182 17.9722 40.4655 20.3166 40.4655 23.204V47.6108H49.9041V24.734C49.9041 20.0205 46.0743 16.22 41.3797 16.22Z" fill="#009444"/>
<path d="M96.3806 16.1707H87.0656V47.5367H96.3806V16.1707Z" fill="#009444"/>
<path d="M107.969 16.2693H104.781C101.915 16.2693 99.395 17.676 97.8384 19.8477C98.802 18.7372 100.235 18.0215 101.816 18.0215C104.707 18.0215 107.055 20.3659 107.055 23.2533V47.6354H116.493V24.7833C116.468 20.0698 112.663 16.2693 107.969 16.2693Z" fill="#009444"/>
<path d="M62.0359 27.6707C64.9698 27.6707 67.3482 25.2952 67.3482 22.3649C67.3482 19.4346 64.9698 17.0591 62.0359 17.0591C59.102 17.0591 56.7236 19.4346 56.7236 22.3649C56.7236 25.2952 59.102 27.6707 62.0359 27.6707Z" fill="#009444"/>
<path d="M64.8774 46.4015C64.1608 45.4144 63.8149 43.5388 63.8149 40.7255C63.8149 37.8628 64.235 35.4937 65.0503 33.5935C65.6928 32.1375 66.4834 31.175 67.4718 30.6568C66.7058 30.6815 65.8904 30.7308 65.0503 30.8049C63.1478 30.9529 61.3688 31.2984 59.6886 31.866C58.0085 32.4336 56.6001 33.2974 55.4635 34.4819C54.3269 35.6418 53.7339 37.2459 53.7339 39.2448C53.7339 41.7373 54.6728 43.7363 56.5754 45.2416C58.4779 46.7717 61.27 47.512 65.0009 47.512C65.3221 47.512 65.6433 47.4874 65.9645 47.4627C65.5939 47.2406 65.2233 46.8704 64.8774 46.4015Z" fill="#009444"/>
<path d="M82.198 40.6515V28.8059C82.198 26.9551 81.8768 25.2523 81.2097 23.7222C80.5672 22.1922 79.5789 20.8595 78.2941 19.7243C77.0092 18.5891 75.4279 17.7254 73.5748 17.0838C71.7216 16.4421 69.5967 16.146 67.1753 16.146C65.7916 16.146 64.5315 16.2447 63.4443 16.4421C63.6173 16.4175 63.7902 16.4175 63.9879 16.4175H65.2975C67.0765 16.4175 68.7072 17.1578 69.8685 18.3177C70.2886 18.6385 70.6592 19.058 70.9804 19.5763C71.524 20.44 71.9687 21.6246 72.2652 23.1053C72.5617 24.586 72.71 26.4862 72.71 28.8059V30.0892V30.5334V40.2566L72.7594 46.9198L82.198 46.9444V40.6515Z" fill="#009444"/>
<path d="M186.838 27.6707C189.772 27.6707 192.15 25.2952 192.15 22.3649C192.15 19.4346 189.772 17.0591 186.838 17.0591C183.904 17.0591 181.526 19.4346 181.526 22.3649C181.526 25.2952 183.904 27.6707 186.838 27.6707Z" fill="#009444"/>
<path d="M189.679 46.4015C188.963 45.4144 188.617 43.5388 188.617 40.7255C188.617 37.8628 189.037 35.4937 189.852 33.5935C190.495 32.1375 191.286 31.175 192.274 30.6568C191.508 30.6815 190.693 30.7308 189.852 30.8049C187.95 30.9529 186.171 31.2984 184.491 31.866C182.811 32.4336 181.402 33.2974 180.266 34.4819C179.129 35.6418 178.536 37.2459 178.536 39.2448C178.536 41.7373 179.475 43.7363 181.377 45.2416C183.28 46.7717 186.072 47.512 189.803 47.512C190.124 47.512 190.445 47.4874 190.767 47.4627C190.396 47.2406 190.025 46.8704 189.679 46.4015Z" fill="#009444"/>
<path d="M206.975 40.6515V28.8059C206.975 26.9551 206.654 25.2523 205.987 23.7222C205.345 22.1922 204.356 20.8595 203.071 19.7243C201.787 18.5891 200.205 17.7254 198.352 17.0838C196.499 16.4421 194.374 16.146 191.953 16.146C190.569 16.146 189.309 16.2447 188.222 16.4421C188.395 16.4175 188.568 16.4175 188.765 16.4175H190.075C191.854 16.4175 193.485 17.1578 194.646 18.3177C195.066 18.6385 195.437 19.058 195.758 19.5763C196.301 20.44 196.746 21.6246 197.043 23.1053C197.339 24.586 197.487 26.4862 197.487 28.8059V30.0892V30.5334V40.2566L197.537 46.9198L206.975 46.9444V40.6515Z" fill="#009444"/>
<path d="M174.929 1.95602C175.225 3.31332 176.806 4.32513 176.806 4.32513C178.536 5.58372 178.684 6.94102 178.388 7.95283C177.894 9.72966 175.695 10.4207 173.99 9.33481C173.965 9.31013 173.94 9.31013 173.916 9.28545C171.791 7.92815 170.951 5.18887 171.692 2.27683C172.482 -0.61052 174.632 0.574035 174.929 1.95602Z" fill="#FECB00"/>
<path d="M3.03237 57.384H2.16757V59.7038C1.9452 59.7531 1.6487 59.7778 1.30278 59.7778C0.956864 59.7778 0.660364 59.7531 0.437988 59.7038V52.3497L0.512125 52.2757C1.15454 52.251 1.67339 52.251 2.09344 52.251C2.51348 52.251 2.83469 52.251 3.05707 52.251C3.4524 52.251 3.82304 52.3003 4.14424 52.4237C4.46545 52.5224 4.76196 52.6952 4.98433 52.9173C5.20671 53.1394 5.40437 53.4109 5.52791 53.7317C5.65145 54.0525 5.72559 54.4227 5.72559 54.8422C5.72559 55.2617 5.65145 55.6319 5.52791 55.9527C5.40437 56.2735 5.20671 56.545 4.98433 56.7671C4.76196 56.9892 4.46545 57.1373 4.14424 57.2606C3.77362 57.3347 3.4277 57.384 3.03237 57.384ZM2.16757 53.5589V56.1008C2.36524 56.1008 2.5382 56.0761 2.66174 56.0761C2.78528 56.0761 2.85941 56.0761 2.90883 56.0761C3.10649 56.0761 3.27945 56.0514 3.40299 55.9774C3.52653 55.9034 3.65009 55.8293 3.72421 55.7059C3.79834 55.5825 3.87245 55.4591 3.89716 55.3111C3.92187 55.163 3.94657 54.9903 3.94657 54.8422C3.94657 54.6941 3.92187 54.5214 3.89716 54.3733C3.87245 54.2252 3.79834 54.0772 3.72421 53.9784C3.65009 53.8551 3.55124 53.781 3.4277 53.707C3.30415 53.633 3.15592 53.6083 2.98296 53.6083C2.81 53.6083 2.66174 53.6083 2.5382 53.6083C2.38995 53.5589 2.26641 53.5589 2.16757 53.5589Z" fill="white"/>
<path d="M9.58017 57.5314V58.3211C9.90137 58.2964 10.1732 58.2964 10.3708 58.2964H12.8911C12.8911 58.5679 12.8911 58.7653 12.8664 58.9134C12.7675 59.481 12.4216 59.7525 11.7545 59.7525H8.86362C8.54241 59.7525 8.29533 59.6537 8.12237 59.481C7.94941 59.3082 7.85059 59.0615 7.85059 58.7406V52.3737L7.92472 52.2996H12.6193C12.6687 52.5217 12.6934 52.7438 12.6934 52.9906C12.6934 53.2374 12.644 53.4842 12.5452 53.7556H9.58017V54.5453V55.3104C9.77783 55.3104 10.0249 55.3104 10.3214 55.3104H11.9769C12.051 55.5078 12.0757 55.7546 12.0757 56.0014C12.0757 56.2728 12.051 56.4949 11.9769 56.717H9.58017V57.5314Z" fill="white"/>
<path d="M17.9316 53.731V54.5207V59.7031C17.6845 59.7524 17.388 59.7771 17.0668 59.7771C16.7208 59.7771 16.449 59.7524 16.202 59.7031V53.731H15.5101H14.3982C14.3488 53.5089 14.3241 53.2868 14.3241 53.0153C14.3241 52.7438 14.3488 52.497 14.3982 52.2996H19.76C19.8094 52.497 19.8588 52.7192 19.8588 52.9906C19.8588 53.2621 19.7847 53.4595 19.6364 53.5829C19.4882 53.7063 19.2658 53.7556 18.9446 53.7556H18.6234L17.9316 53.731Z" fill="white"/>
<path d="M27.0489 54.5947C27.0489 54.8415 27.0242 55.0636 26.9501 55.2857C26.876 55.5078 26.7771 55.6805 26.6536 55.8533C26.53 56.026 26.3818 56.1741 26.2335 56.2975C26.0606 56.4209 25.9123 56.5196 25.7394 56.5936C26.11 56.7417 26.4065 57.0625 26.5794 57.5808L26.9006 58.4939C27.0242 58.864 27.1972 59.1355 27.4442 59.3082C27.3454 59.4563 27.1725 59.5797 26.9501 59.6784C26.7277 59.7771 26.5053 59.8265 26.2335 59.8265C25.9617 59.8265 25.7641 59.7524 25.6158 59.6044C25.4676 59.4563 25.344 59.1848 25.2205 58.8393L24.8251 57.7042C24.751 57.482 24.6275 57.3093 24.5039 57.2106C24.3804 57.0872 24.158 57.0378 23.9109 57.0378H23.4662V59.7524C23.2438 59.8018 22.9473 59.8265 22.6014 59.8265C22.2554 59.8265 21.9589 59.8018 21.7366 59.7524V52.3983L21.8107 52.3243C22.4531 52.2996 22.972 52.2996 23.3921 52.2996C23.8121 52.2996 24.158 52.2996 24.4051 52.2996C24.8004 52.2996 25.1711 52.349 25.4923 52.4477C25.8135 52.5464 26.0853 52.6945 26.3324 52.8919C26.5794 53.0893 26.7277 53.3361 26.8759 53.6322C26.9748 53.8544 27.0489 54.1998 27.0489 54.5947ZM23.4415 53.5335V55.6805C23.7627 55.6805 24.0345 55.6805 24.2816 55.6559C24.5039 55.6559 24.7016 55.6065 24.8499 55.5325C24.9981 55.4584 25.0969 55.3597 25.1711 55.2117C25.2452 55.0636 25.2699 54.8662 25.2699 54.6194C25.2699 53.9037 24.924 53.5582 24.2569 53.5582C24.0839 53.5582 23.9356 53.5582 23.8121 53.5582C23.6638 53.5335 23.5403 53.5335 23.4415 53.5335Z" fill="white"/>
<path d="M30.0139 59.1848C29.248 58.5432 28.8527 57.482 28.8527 56.0013C28.8527 55.3597 28.9268 54.8168 29.075 54.3232C29.2233 53.8296 29.4457 53.4348 29.7175 53.114C29.9892 52.7931 30.3352 52.5464 30.7305 52.3736C31.1258 52.2009 31.5706 52.1268 32.0895 52.1268C32.6083 52.1268 33.0531 52.2009 33.4484 52.3736C33.8438 52.5464 34.1897 52.7931 34.4615 53.114C34.7333 53.4348 34.9557 53.8543 35.1039 54.3232C35.2522 54.8168 35.3263 55.3597 35.3263 56.0013C35.3263 56.6429 35.2522 57.1859 35.1039 57.6794C34.9557 58.173 34.7333 58.5679 34.4615 58.8887C34.1897 59.2095 33.8438 59.4563 33.4484 59.629C33.0531 59.8018 32.5836 59.8758 32.0895 59.8758C31.2494 59.8758 30.5822 59.6537 30.0139 59.1848ZM30.9035 57.7041C31.1011 58.2717 31.4965 58.5432 32.0895 58.5432C32.386 58.5432 32.6331 58.4691 32.806 58.3211C32.979 58.173 33.1272 57.9756 33.2508 57.7535C33.3496 57.5314 33.4237 57.2599 33.4731 56.9884C33.4978 56.717 33.5226 56.4208 33.5226 56.1494C33.5226 55.9026 33.5226 55.6065 33.4979 55.3103C33.4732 54.9895 33.4237 54.718 33.3496 54.4466C33.2508 54.1751 33.1272 53.953 32.9296 53.7556C32.7319 53.5828 32.4601 53.4841 32.1142 53.4841C31.7682 53.4841 31.4965 53.5828 31.3235 53.7556C31.1505 53.9283 31.0023 54.1504 30.9035 54.4219C30.8046 54.6934 30.7552 54.9648 30.7305 55.261C30.7058 55.5571 30.7058 55.8039 30.7058 56.026C30.7058 56.3468 30.7305 56.6676 30.7552 56.9144C30.7552 57.1612 30.8046 57.408 30.9035 57.7041Z" fill="white"/>
<path d="M43.4306 59.2836C43.1835 59.6291 42.7882 59.8018 42.2693 59.8018C41.9728 59.8018 41.7504 59.7278 41.6021 59.5797C41.4539 59.4316 41.3304 59.1602 41.2068 58.8147L40.7868 57.5561C40.688 57.2106 40.5397 56.9638 40.3914 56.8404C40.2432 56.6923 40.0208 56.6183 39.7737 56.6183C39.6749 56.6183 39.5267 56.6183 39.3043 56.643V59.7278C39.0819 59.7771 38.7854 59.8018 38.4395 59.8018C38.0936 59.8018 37.7971 59.7771 37.5747 59.7278V52.2996C37.7971 52.2503 38.0936 52.2256 38.4395 52.2256C38.7854 52.2256 39.0819 52.2503 39.3043 52.2996V55.1623H39.6008C39.7243 55.1623 39.8231 55.1376 39.8973 55.0883C39.9467 55.0389 40.0208 54.9402 40.0949 54.7921L41.1327 52.8425C41.2315 52.6204 41.3551 52.4724 41.4786 52.3737C41.6021 52.2749 41.7998 52.2256 42.0469 52.2256C42.3434 52.2256 42.6646 52.2503 43.0599 52.2749L43.1588 52.3983L41.8245 54.8908C41.6516 55.2116 41.4539 55.4831 41.2068 55.6805C41.5527 55.7546 41.7998 55.9026 41.9728 56.1001C42.1457 56.2975 42.294 56.569 42.3928 56.9145L42.8376 58.2718C42.887 58.4445 42.9364 58.5679 42.9611 58.6419C42.9858 58.716 43.0599 58.864 43.1835 59.0368C43.2576 59.1108 43.3317 59.1848 43.4306 59.2836Z" fill="white"/>
<path d="M45.3826 59.703V52.2749C45.6049 52.2255 45.9014 52.2009 46.2474 52.2009C46.5933 52.2009 46.8898 52.2255 47.1369 52.2749V59.703C46.9145 59.7524 46.618 59.7771 46.2474 59.7771C45.9014 59.7771 45.6049 59.7524 45.3826 59.703Z" fill="white"/>
<path d="M49.6077 59.7031L50.176 52.3243C50.4972 52.2749 50.8678 52.2256 51.3126 52.2256C51.7573 52.2256 52.1279 52.2503 52.4491 52.3243L53.0915 54.9895C53.3386 56.1988 53.4869 56.8404 53.4869 56.9638H53.561C53.5857 56.7911 53.734 56.1247 53.9563 54.9895L54.5988 52.3243C54.92 52.2749 55.2906 52.2256 55.7354 52.2256C56.1801 52.2256 56.5507 52.2503 56.8719 52.3243L57.4402 59.7031C57.2178 59.7524 56.9461 59.8018 56.6002 59.8018C56.2789 59.8018 56.0071 59.7771 55.7848 59.7524L55.6118 56.7417C55.5624 55.5325 55.5377 54.6934 55.513 54.2245H55.4388L54.3517 58.6419C54.0799 58.6913 53.7834 58.716 53.4622 58.716C53.1163 58.716 52.8198 58.6913 52.5727 58.6419L51.5102 54.2245H51.4361C51.4361 54.8662 51.4114 55.7052 51.3373 56.7417L51.1643 59.7524C50.9419 59.7771 50.6948 59.8018 50.3489 59.8018C50.1018 59.7771 49.83 59.7524 49.6077 59.7031Z" fill="white"/>
<path d="M59.9604 59.703V52.2749C60.1828 52.2255 60.4793 52.2009 60.8252 52.2009C61.1712 52.2009 61.4677 52.2255 61.7148 52.2749V59.703C61.4924 59.7524 61.1959 59.7771 60.8252 59.7771C60.4546 59.7771 60.1828 59.7524 59.9604 59.703Z" fill="white"/>
<path d="M66.2117 58.173C66.014 58.173 65.8658 58.173 65.7669 58.173L65.2975 59.7524C65.1245 59.8018 64.8774 59.8265 64.5809 59.8265C64.235 59.8265 63.9385 59.7771 63.7408 59.7031L63.6914 59.6043L66.0881 52.3243C66.3599 52.2749 66.7058 52.2502 67.0765 52.2502C67.4965 52.2502 67.8424 52.2749 68.0895 52.3243L70.4368 59.629C70.1897 59.7771 69.8932 59.8265 69.572 59.8265C69.2014 59.8265 68.9296 59.7524 68.7813 59.629C68.6331 59.5056 68.5096 59.2589 68.386 58.8887L68.1883 58.173C68.0895 58.173 67.9413 58.173 67.7683 58.173H66.2117ZM66.187 56.791H66.6317H67.4224C67.4471 56.791 67.5212 56.791 67.6201 56.791C67.7189 56.791 67.7683 56.791 67.8177 56.791L67.6448 56.1247C67.4718 55.5078 67.2741 54.7674 67.0518 53.879H66.9776C66.9282 54.1998 66.7552 54.8908 66.4587 55.952L66.187 56.791Z" fill="white"/>
<path d="M78.6647 55.5077H80.3696C81.1356 55.5077 81.5309 55.8779 81.5309 56.5936V59.4563C80.592 59.7524 79.6037 59.9005 78.5906 59.9005C78.0718 59.9005 77.6023 59.8018 77.2069 59.629C76.8116 59.4563 76.4657 59.2095 76.1939 58.8887C75.9221 58.5679 75.7244 58.173 75.5762 57.6794C75.4279 57.2105 75.3785 56.6676 75.3785 56.0753C75.3785 55.409 75.4774 54.8414 75.675 54.3479C75.8727 53.8543 76.1198 53.4595 76.441 53.114C76.7622 52.7931 77.1328 52.5464 77.5529 52.3736C77.9729 52.2009 78.4177 52.1268 78.8624 52.1268C79.8013 52.1268 80.6908 52.3983 81.5062 52.9165C81.5062 53.0399 81.4815 53.1386 81.4321 53.262C81.3827 53.3854 81.3333 53.5088 81.2591 53.6075C81.185 53.7309 81.1109 53.8296 81.012 53.9037C80.9132 54.0024 80.8391 54.0764 80.7403 54.1258C80.1473 53.7309 79.5295 53.5335 78.9118 53.5335C77.7258 53.5335 77.1328 54.3479 77.1328 56.0013C77.1328 57.6548 77.7258 58.4691 78.9365 58.4691C79.1095 58.4691 79.2577 58.4691 79.4307 58.4445C79.5789 58.4198 79.7519 58.4198 79.9002 58.3704V57.6548C79.9002 57.482 79.9002 57.3339 79.9002 57.2105C79.9002 57.0872 79.9002 56.9884 79.9249 56.8897H79.3813C79.0601 56.8897 78.8624 56.8404 78.7389 56.717C78.6153 56.5936 78.5659 56.4208 78.5659 56.1494C78.5412 56.0013 78.5906 55.7545 78.6647 55.5077Z" fill="white"/>
<path d="M89.2646 54.5947C89.2646 54.8415 89.2399 55.0636 89.1657 55.2857C89.0916 55.5078 88.9928 55.6805 88.8693 55.8533C88.7457 56.026 88.5974 56.1741 88.4492 56.2975C88.2762 56.4209 88.128 56.5196 87.955 56.5936C88.3257 56.7417 88.6222 57.0625 88.7951 57.5808L89.1163 58.4939C89.2399 58.864 89.4128 59.1355 89.6599 59.3082C89.5611 59.4563 89.3881 59.5797 89.1657 59.6784C88.9434 59.7771 88.721 59.8265 88.4492 59.8265C88.1774 59.8265 87.9797 59.7524 87.8315 59.6044C87.6832 59.4563 87.5597 59.1848 87.4362 58.8393L87.0408 57.7042C86.9667 57.482 86.8431 57.3093 86.7196 57.2106C86.5961 57.0872 86.3737 57.0378 86.1266 57.0378H85.6819V59.7524C85.4595 59.8018 85.163 59.8265 84.8171 59.8265C84.4711 59.8265 84.1746 59.8018 83.9523 59.7524V52.3983L84.0264 52.3243C84.6688 52.2996 85.1877 52.2996 85.6077 52.2996C86.0278 52.2996 86.3737 52.2996 86.6208 52.2996C87.0161 52.2996 87.3867 52.349 87.7079 52.4477C88.0291 52.5464 88.3009 52.6945 88.548 52.8919C88.7951 53.0893 88.9434 53.3361 89.0916 53.6322C89.2152 53.8544 89.2646 54.1998 89.2646 54.5947ZM85.6819 53.5335V55.6805C86.0031 55.6805 86.2749 55.6805 86.522 55.6559C86.7443 55.6559 86.942 55.6065 87.0902 55.5325C87.2385 55.4584 87.3373 55.3597 87.4115 55.2117C87.4856 55.0636 87.5103 54.8662 87.5103 54.6194C87.5103 53.9037 87.1644 53.5582 86.4973 53.5582C86.3243 53.5582 86.176 53.5582 86.0525 53.5582C85.8795 53.5335 85.7807 53.5335 85.6819 53.5335Z" fill="white"/>
<path d="M93.391 57.5314V58.3211C93.7122 58.2964 93.984 58.2964 94.1817 58.2964H96.7019C96.7019 58.5679 96.7019 58.7653 96.6772 58.9134C96.5784 59.481 96.2325 59.7525 95.5653 59.7525H92.6744C92.3532 59.7525 92.1062 59.6537 91.9332 59.481C91.7602 59.3082 91.6614 59.0615 91.6614 58.7406V52.3737L91.7355 52.2996H96.4301C96.4795 52.5217 96.5043 52.7438 96.5043 52.9906C96.5043 53.2374 96.4548 53.4842 96.356 53.7556H93.391V54.5453V55.3104C93.5886 55.3104 93.8357 55.3104 94.1322 55.3104H95.7877C95.8618 55.5078 95.8865 55.7546 95.8865 56.0014C95.8865 56.2728 95.8618 56.4949 95.7877 56.717H93.391V57.5314Z" fill="white"/>
<path d="M98.2584 59.0614C98.2831 58.8147 98.3573 58.5925 98.4808 58.3458C98.6043 58.099 98.7526 57.9016 98.9255 57.7535C99.6915 58.2224 100.433 58.4692 101.125 58.4692C101.421 58.4692 101.643 58.3951 101.792 58.2717C101.94 58.1237 102.014 57.9756 102.014 57.7535C102.014 57.408 101.792 57.1365 101.322 56.9391L100.037 56.3962C99.5433 56.1741 99.1479 55.9026 98.8761 55.5818C98.6043 55.261 98.4808 54.8661 98.4808 54.3726C98.4808 54.0518 98.5549 53.7309 98.6785 53.4595C98.802 53.188 98.9997 52.9412 99.2468 52.7438C99.4938 52.5464 99.7656 52.3736 100.112 52.2749C100.433 52.1515 100.803 52.1022 101.223 52.1022C102.039 52.1022 102.854 52.2996 103.67 52.7191C103.645 53.2867 103.447 53.7063 103.077 54.0271C102.335 53.6816 101.693 53.4842 101.125 53.4842C100.828 53.4842 100.606 53.5582 100.482 53.6816C100.334 53.805 100.26 53.953 100.26 54.1258C100.26 54.3972 100.482 54.644 100.902 54.8168L102.212 55.3597C102.755 55.5818 103.175 55.8779 103.447 56.2481C103.719 56.6183 103.843 57.0378 103.843 57.5067C103.843 57.8522 103.793 58.1483 103.67 58.4445C103.546 58.7159 103.373 58.9627 103.126 59.1848C102.879 59.3823 102.582 59.555 102.212 59.6784C101.841 59.8018 101.421 59.8511 100.952 59.8511C100.013 59.8758 99.1232 59.6044 98.2584 59.0614Z" fill="white"/>
<path d="M106.042 59.703V52.2749C106.264 52.2255 106.561 52.2009 106.906 52.2009C107.252 52.2009 107.549 52.2255 107.796 52.2749V59.703C107.574 59.7524 107.277 59.7771 106.906 59.7771C106.536 59.7771 106.264 59.7524 106.042 59.703Z" fill="white"/>
<path d="M116.345 59.2836C116.098 59.6291 115.703 59.8018 115.184 59.8018C114.887 59.8018 114.665 59.7278 114.517 59.5797C114.368 59.4316 114.245 59.1602 114.121 58.8147L113.701 57.5561C113.602 57.2106 113.454 56.9638 113.306 56.8404C113.158 56.6923 112.935 56.6183 112.688 56.6183C112.589 56.6183 112.441 56.6183 112.219 56.643V59.7278C111.996 59.7771 111.7 59.8018 111.354 59.8018C111.008 59.8018 110.712 59.7771 110.489 59.7278V52.2996C110.712 52.2503 111.008 52.2256 111.354 52.2256C111.7 52.2256 111.996 52.2503 112.219 52.2996V55.1623H112.515C112.639 55.1623 112.738 55.1376 112.812 55.0883C112.886 55.0389 112.935 54.9402 113.009 54.7921L114.047 52.8425C114.146 52.6204 114.27 52.4724 114.393 52.3737C114.517 52.2749 114.714 52.2256 114.961 52.2256C115.258 52.2256 115.579 52.2503 115.974 52.2749L116.073 52.3983L114.739 54.8908C114.566 55.2116 114.368 55.4831 114.121 55.6805C114.467 55.7546 114.714 55.9026 114.887 56.1001C115.06 56.2975 115.208 56.569 115.307 56.9145L115.752 58.2718C115.801 58.4445 115.851 58.5679 115.876 58.6419C115.9 58.716 115.974 58.864 116.098 59.0368C116.172 59.1108 116.246 59.1848 116.345 59.2836Z" fill="white"/>
<path d="M1.84636 67.2797V63.3805H0.437988V62.6649H4.04541V63.3805H2.63704V67.2797H1.84636Z" fill="white"/>
<path d="M7.38104 67.2794V66.8351C7.13396 67.1066 6.71393 67.3534 6.19505 67.3534C5.4785 67.3534 5.13257 66.9832 5.13257 66.2922V63.9231H5.84912V66.0208C5.84912 66.539 6.1209 66.6871 6.51624 66.6871C6.88687 66.6871 7.20808 66.4896 7.38104 66.2429V63.8984H8.0976V67.23H7.38104V67.2794Z" fill="white"/>
<path d="M14.0523 67.2793V65.1076C14.0523 64.7375 13.9041 64.5154 13.5087 64.5154C13.1875 64.5154 12.891 64.7375 12.7428 64.9596V67.304H12.0262V65.1323C12.0262 64.7621 11.878 64.54 11.4826 64.54C11.1614 64.54 10.8649 64.7621 10.7167 64.9842V67.304H10.0001V63.9724H10.7167V64.4166C10.8649 64.2192 11.3097 63.8737 11.8039 63.8737C12.298 63.8737 12.5945 64.1205 12.7181 64.4907C12.9157 64.1945 13.3605 63.8737 13.8547 63.8737C14.4724 63.8737 14.8183 64.1945 14.8183 64.8855V67.304H14.0523V67.2793Z" fill="white"/>
<path d="M16.6467 67.2793V62.6645H17.3633V64.392C17.6351 64.0465 18.0057 63.849 18.4257 63.849C19.2905 63.849 19.9082 64.5154 19.9082 65.6012C19.9082 66.7117 19.2905 67.3534 18.4257 67.3534C17.981 67.3534 17.6104 67.1559 17.3633 66.8104V67.2546H16.6467V67.2793ZM18.2281 66.7117C18.8211 66.7117 19.167 66.2675 19.167 65.6012C19.167 64.9349 18.7964 64.4907 18.2281 64.4907C17.8821 64.4907 17.5362 64.6881 17.3633 64.9349V66.2428C17.5362 66.5143 17.9069 66.7117 18.2281 66.7117Z" fill="white"/>
<path d="M23.8615 67.2794V66.8351C23.6145 67.1066 23.1944 67.3534 22.6755 67.3534C21.959 67.3534 21.613 66.9832 21.613 66.2922V63.9231H22.3296V66.0208C22.3296 66.539 22.6014 66.6871 22.9967 66.6871C23.3674 66.6871 23.6886 66.4896 23.8615 66.2429V63.8984H24.5781V67.23H23.8615V67.2794Z" fill="white"/>
<path d="M28.7044 67.2793V65.1817C28.7044 64.6634 28.4326 64.5154 28.0372 64.5154C27.6666 64.5154 27.3454 64.7375 27.1724 64.9596V67.2793H26.4559V62.6645H27.1724V64.392C27.3948 64.1205 27.8396 63.849 28.3585 63.849C29.075 63.849 29.4456 64.2192 29.4456 64.9102V67.2793H28.7044Z" fill="white"/>
<path d="M34.0414 67.2793V62.6645H35.7463C37.1793 62.6645 38.1677 63.6269 38.1677 64.9842C38.1677 66.3415 37.2041 67.2793 35.7463 67.2793H34.0414ZM37.3276 64.9842C37.3276 64.0958 36.784 63.3802 35.7463 63.3802H34.832V66.5637H35.7463C36.7593 66.5637 37.3276 65.848 37.3276 64.9842Z" fill="white"/>
<path d="M41.8986 67.2793V66.9092C41.6516 67.1806 41.2562 67.3534 40.8115 67.3534C40.2679 67.3534 39.6501 66.9832 39.6501 66.2428C39.6501 65.4778 40.2679 65.157 40.8115 65.157C41.2562 65.157 41.6516 65.3051 41.8986 65.5765V65.083C41.8986 64.6881 41.5774 64.466 41.108 64.466C40.7373 64.466 40.4161 64.6141 40.1196 64.8855L39.8231 64.392C40.2185 64.0218 40.6879 63.8491 41.2315 63.8491C41.9728 63.8491 42.6152 64.1699 42.6152 65.0583V67.2793H41.8986ZM41.8986 66.5143V66.0207C41.7257 65.7986 41.4292 65.6752 41.108 65.6752C40.6879 65.6752 40.3914 65.922 40.3914 66.2675C40.3914 66.6377 40.6879 66.8598 41.108 66.8598C41.4045 66.8598 41.7257 66.7364 41.8986 66.5143Z" fill="white"/>
<path d="M46.7415 67.2794V65.1817C46.7415 64.6635 46.4697 64.4907 46.0744 64.4907C45.7037 64.4907 45.3825 64.7128 45.2096 64.9349V67.2547H44.493V63.9231H45.2096V64.3673C45.4319 64.0959 45.852 63.8244 46.3956 63.8244C47.1121 63.8244 47.4828 64.2193 47.4828 64.8856V67.23H46.7415V67.2794Z" fill="white"/>
<path d="M52.0538 67.2793V62.6645H54.327C55.1671 62.6645 55.6365 63.1827 55.6365 63.849C55.6365 64.4413 55.2659 64.8115 54.8459 64.9102C55.34 64.9842 55.7354 65.4778 55.7354 66.0454C55.7354 66.7611 55.2659 67.2793 54.4011 67.2793H52.0538ZM54.8212 63.9724C54.8212 63.6269 54.5741 63.3802 54.1787 63.3802H52.8939V64.5647H54.1787C54.5741 64.5647 54.8212 64.3179 54.8212 63.9724ZM54.8953 65.922C54.8953 65.5765 54.6482 65.2804 54.1787 65.2804H52.8445V66.5637H54.1787C54.6482 66.5637 54.8953 66.3169 54.8953 65.922Z" fill="white"/>
<path d="M57.2426 65.6012C57.2426 64.6388 57.9591 63.8491 58.9474 63.8491C59.9605 63.8491 60.6029 64.6141 60.6029 65.6752V65.848H58.0085C58.0579 66.3416 58.4533 66.7611 59.071 66.7611C59.3922 66.7611 59.7875 66.6377 60.0099 66.3909L60.3311 66.8598C60.0099 67.1806 59.5157 67.3534 58.9721 67.3534C57.9838 67.3534 57.2426 66.6624 57.2426 65.6012ZM58.9474 64.4413C58.3297 64.4413 58.0332 64.9102 58.0085 65.3298H59.8864C59.8616 64.9349 59.5899 64.4413 58.9474 64.4413Z" fill="white"/>
<path d="M62.2336 67.2793V63.9478H62.9502V64.4413C63.1973 64.1205 63.5926 63.8737 64.0374 63.8737V64.5894C63.9632 64.5647 63.8891 64.5647 63.815 64.5647C63.5185 64.5647 63.0984 64.7621 62.9502 65.0089V67.2793H62.2336Z" fill="white"/>
<path d="M64.3833 68.3898L64.6057 67.8469C64.7292 67.9456 64.8527 68.0444 65.0751 68.0444C65.3469 68.0444 65.5693 67.8716 65.5693 67.4768V63.9478H66.2858V67.4768C66.2858 68.1924 65.9152 68.6366 65.174 68.6366C64.8033 68.6366 64.6304 68.5626 64.3833 68.3898ZM65.4705 63.084C65.4705 62.8373 65.6681 62.6398 65.9152 62.6398C66.1623 62.6398 66.36 62.8373 66.36 63.084C66.36 63.3308 66.1623 63.5282 65.9152 63.5282C65.6681 63.5282 65.4705 63.3308 65.4705 63.084Z" fill="white"/>
<path d="M70.1898 67.2793V66.9092C69.9427 67.1806 69.5473 67.3534 69.1026 67.3534C68.559 67.3534 67.9413 66.9832 67.9413 66.2428C67.9413 65.4778 68.559 65.157 69.1026 65.157C69.5473 65.157 69.9427 65.3051 70.1898 65.5765V65.083C70.1898 64.6881 69.8685 64.466 69.3991 64.466C69.0285 64.466 68.7072 64.6141 68.4107 64.8855L68.1143 64.392C68.5096 64.0218 68.979 63.8491 69.5226 63.8491C70.2639 63.8491 70.9063 64.1699 70.9063 65.0583V67.2793H70.1898ZM70.1898 66.5143V66.0207C70.0168 65.7986 69.7203 65.6752 69.3991 65.6752C68.979 65.6752 68.6825 65.922 68.6825 66.2675C68.6825 66.6377 68.979 66.8598 69.3991 66.8598C69.7203 66.8598 70.0168 66.7364 70.1898 66.5143Z" fill="white"/>
<path d="M72.7594 67.9456C72.8336 67.9703 72.9571 67.995 73.0312 67.995C73.2536 67.995 73.4019 67.9209 73.5007 67.6988L73.6737 67.3287L72.3147 63.9478H73.0807L74.0443 66.4403L75.0079 63.9478H75.7986L74.1925 67.8963C73.9702 68.4639 73.5748 68.6366 73.056 68.6613C72.9571 68.6613 72.7594 68.6366 72.6359 68.6119L72.7594 67.9456Z" fill="white"/>
<path d="M79.2331 67.2793V66.9092C78.986 67.1806 78.5907 67.3534 78.1459 67.3534C77.6023 67.3534 76.9846 66.9832 76.9846 66.2428C76.9846 65.4778 77.6023 65.157 78.1459 65.157C78.5907 65.157 78.986 65.3051 79.2331 65.5765V65.083C79.2331 64.6881 78.9119 64.466 78.4424 64.466C78.0718 64.466 77.7506 64.6141 77.4541 64.8855L77.1576 64.392C77.5529 64.0218 78.0224 63.8491 78.5659 63.8491C79.3072 63.8491 79.9496 64.1699 79.9496 65.0583V67.2793H79.2331ZM79.2331 66.5143V66.0207C79.0601 65.7986 78.7636 65.6752 78.4424 65.6752C78.0224 65.6752 77.7259 65.922 77.7259 66.2675C77.7259 66.6377 78.0224 66.8598 78.4424 66.8598C78.7636 66.8598 79.0601 66.7364 79.2331 66.5143Z" fill="white"/>
<path d="M84.5453 67.2793V62.6645H86.8184C87.6585 62.6645 88.128 63.1827 88.128 63.849C88.128 64.4413 87.7574 64.8115 87.3373 64.9102C87.8315 64.9842 88.2268 65.4778 88.2268 66.0454C88.2268 66.7611 87.7574 67.2793 86.8926 67.2793H84.5453ZM87.3126 63.9724C87.3126 63.6269 87.0655 63.3802 86.6702 63.3802H85.3854V64.5647H86.6702C87.0655 64.5647 87.3126 64.3179 87.3126 63.9724ZM87.4114 65.922C87.4114 65.5765 87.1644 65.2804 86.6949 65.2804H85.3606V66.5637H86.6949C87.1397 66.5637 87.4114 66.3169 87.4114 65.922Z" fill="white"/>
<path d="M89.7341 65.6012C89.7341 64.6388 90.4507 63.8491 91.439 63.8491C92.452 63.8491 93.0944 64.6141 93.0944 65.6752V65.848H90.5248C90.5742 66.3416 90.9695 66.7611 91.5872 66.7611C91.9084 66.7611 92.3038 66.6377 92.5261 66.3909L92.8473 66.8598C92.5261 67.1806 92.032 67.3534 91.4884 67.3534C90.4754 67.3534 89.7341 66.6624 89.7341 65.6012ZM91.439 64.4413C90.8213 64.4413 90.5248 64.9102 90.5001 65.3298H92.3779C92.3532 64.9349 92.0814 64.4413 91.439 64.4413Z" fill="white"/>
<path d="M94.7251 67.2793V63.9478H95.4416V64.4413C95.6887 64.1205 96.0841 63.8737 96.5288 63.8737V64.5894C96.4547 64.5647 96.3806 64.5647 96.3064 64.5647C96.0099 64.5647 95.5899 64.7621 95.4416 65.0089V67.2793H94.7251Z" fill="white"/>
<path d="M97.7643 66.8351L98.0855 66.3169C98.3326 66.5636 98.7773 66.7858 99.2221 66.7858C99.6668 66.7858 99.8892 66.5883 99.8892 66.3415C99.8892 65.6752 97.8631 66.1441 97.8631 64.8855C97.8631 64.3426 98.3326 63.8737 99.1726 63.8737C99.7409 63.8737 100.161 64.0711 100.482 64.3426L100.186 64.8608C99.988 64.6387 99.6174 64.466 99.1973 64.466C98.8267 64.466 98.5796 64.6387 98.5796 64.8855C98.5796 65.4778 100.606 65.0336 100.606 66.3662C100.606 66.9585 100.112 67.4027 99.2221 67.4027C98.6291 67.3533 98.1102 67.1806 97.7643 66.8351Z" fill="white"/>
<path d="M104.287 67.2793V66.9092C104.04 67.1806 103.645 67.3534 103.2 67.3534C102.657 67.3534 102.039 66.9832 102.039 66.2428C102.039 65.4778 102.657 65.157 103.2 65.157C103.645 65.157 104.04 65.3051 104.287 65.5765V65.083C104.287 64.6881 103.966 64.466 103.497 64.466C103.126 64.466 102.805 64.6141 102.508 64.8855L102.212 64.392C102.607 64.0218 103.077 63.8491 103.62 63.8491C104.361 63.8491 105.004 64.1699 105.004 65.0583V67.2793H104.287ZM104.287 66.5143V66.0207C104.114 65.7986 103.818 65.6752 103.497 65.6752C103.077 65.6752 102.78 65.922 102.78 66.2675C102.78 66.6377 103.077 66.8598 103.497 66.8598C103.818 66.8598 104.114 66.7364 104.287 66.5143Z" fill="white"/>
<path d="M110.983 67.2793V65.1076C110.983 64.7375 110.835 64.5154 110.44 64.5154C110.119 64.5154 109.822 64.7375 109.674 64.9596V67.304H108.957V65.1323C108.957 64.7621 108.809 64.54 108.414 64.54C108.092 64.54 107.796 64.7621 107.648 64.9842V67.304H106.931V63.9724H107.648V64.4166C107.796 64.2192 108.241 63.8737 108.735 63.8737C109.229 63.8737 109.526 64.1205 109.649 64.4907C109.847 64.1945 110.291 63.8737 110.786 63.8737C111.403 63.8737 111.749 64.1945 111.749 64.8855V67.304H110.983V67.2793Z" fill="white"/>
<path d="M115.604 67.2793V66.9092C115.357 67.1806 114.961 67.3534 114.517 67.3534C113.973 67.3534 113.355 66.9832 113.355 66.2428C113.355 65.4778 113.973 65.157 114.517 65.157C114.961 65.157 115.357 65.3051 115.604 65.5765V65.083C115.604 64.6881 115.282 64.466 114.813 64.466C114.442 64.466 114.121 64.6141 113.825 64.8855L113.528 64.392C113.924 64.0218 114.393 63.8491 114.937 63.8491C115.678 63.8491 116.32 64.1699 116.32 65.0583V67.2793H115.604ZM115.604 66.5143V66.0207C115.431 65.7986 115.134 65.6752 114.813 65.6752C114.393 65.6752 114.096 65.922 114.096 66.2675C114.096 66.6377 114.393 66.8598 114.813 66.8598C115.134 66.8598 115.455 66.7364 115.604 66.5143Z" fill="white"/>
</svg>
