<svg width="279" height="878" viewBox="0 0 279 878" fill="none" xmlns="http://www.w3.org/2000/svg">
<path d="M44.1407 44.5L44.1407 838.264" stroke="black" stroke-opacity="0.2" stroke-width="3"/>
<path d="M125.765 41.8965C125.765 43.1973 125.32 44.1992 124.429 44.9023C123.545 45.5996 122.276 45.9482 120.624 45.9482H119.112V51.002H117.618V38.1523H120.949C124.16 38.1523 125.765 39.4004 125.765 41.8965ZM119.112 44.665H120.457C121.781 44.665 122.739 44.4512 123.331 44.0234C123.922 43.5957 124.218 42.9102 124.218 41.9668C124.218 41.1172 123.94 40.4844 123.383 40.0684C122.827 39.6523 121.96 39.4443 120.782 39.4443H119.112V44.665ZM132.313 51.1777C130.889 51.1777 129.764 50.7441 128.938 49.877C128.118 49.0098 127.708 47.8057 127.708 46.2646C127.708 44.7119 128.089 43.4785 128.85 42.5645C129.618 41.6504 130.646 41.1934 131.935 41.1934C133.142 41.1934 134.097 41.5918 134.8 42.3887C135.504 43.1797 135.855 44.2256 135.855 45.5264V46.4492H129.219C129.249 47.5801 129.533 48.4385 130.072 49.0244C130.617 49.6104 131.381 49.9033 132.366 49.9033C133.403 49.9033 134.428 49.6865 135.442 49.2529V50.5537C134.926 50.7764 134.437 50.9346 133.974 51.0283C133.517 51.1279 132.964 51.1777 132.313 51.1777ZM131.918 42.415C131.144 42.415 130.526 42.667 130.063 43.1709C129.606 43.6748 129.337 44.3721 129.255 45.2627H134.291C134.291 44.3428 134.086 43.6396 133.675 43.1533C133.265 42.6611 132.679 42.415 131.918 42.415ZM142.746 41.1934C143.173 41.1934 143.557 41.2285 143.897 41.2988L143.695 42.6523C143.297 42.5645 142.945 42.5205 142.64 42.5205C141.861 42.5205 141.193 42.8369 140.636 43.4697C140.086 44.1025 139.81 44.8906 139.81 45.834V51.002H138.351V41.3691H139.555L139.722 43.1533H139.793C140.15 42.5264 140.581 42.043 141.085 41.7031C141.589 41.3633 142.142 41.1934 142.746 41.1934ZM151.913 48.374C151.913 49.2705 151.579 49.9619 150.911 50.4482C150.243 50.9346 149.305 51.1777 148.098 51.1777C146.821 51.1777 145.825 50.9756 145.11 50.5713V49.2178C145.573 49.4521 146.068 49.6367 146.595 49.7715C147.129 49.9062 147.641 49.9736 148.133 49.9736C148.895 49.9736 149.481 49.8535 149.891 49.6133C150.301 49.3672 150.506 48.9951 150.506 48.4971C150.506 48.1221 150.342 47.8027 150.014 47.5391C149.692 47.2695 149.059 46.9531 148.116 46.5898C147.219 46.2559 146.581 45.9658 146.2 45.7197C145.825 45.4678 145.544 45.1836 145.356 44.8672C145.174 44.5508 145.084 44.1729 145.084 43.7334C145.084 42.9482 145.403 42.3301 146.042 41.8789C146.68 41.4219 147.556 41.1934 148.67 41.1934C149.707 41.1934 150.72 41.4043 151.711 41.8262L151.192 43.0127C150.225 42.6143 149.349 42.415 148.564 42.415C147.873 42.415 147.351 42.5234 147 42.7402C146.648 42.957 146.472 43.2559 146.472 43.6367C146.472 43.8945 146.537 44.1143 146.666 44.2959C146.8 44.4775 147.014 44.6504 147.307 44.8145C147.6 44.9785 148.163 45.2158 148.995 45.5264C150.137 45.9424 150.908 46.3613 151.306 46.7832C151.711 47.2051 151.913 47.7354 151.913 48.374ZM155.754 51.002H154.295V41.3691H155.754V51.002ZM154.172 38.7588C154.172 38.4248 154.254 38.1816 154.418 38.0293C154.582 37.8711 154.787 37.792 155.033 37.792C155.267 37.792 155.469 37.8711 155.639 38.0293C155.809 38.1875 155.894 38.4307 155.894 38.7588C155.894 39.0869 155.809 39.333 155.639 39.4971C155.469 39.6553 155.267 39.7344 155.033 39.7344C154.787 39.7344 154.582 39.6553 154.418 39.4971C154.254 39.333 154.172 39.0869 154.172 38.7588ZM164.771 51.002L164.481 49.6309H164.411C163.93 50.2344 163.45 50.6445 162.969 50.8613C162.495 51.0723 161.9 51.1777 161.185 51.1777C160.23 51.1777 159.48 50.9316 158.935 50.4395C158.396 49.9473 158.127 49.2471 158.127 48.3389C158.127 46.3936 159.682 45.374 162.794 45.2803L164.428 45.2275V44.6299C164.428 43.874 164.264 43.3174 163.936 42.96C163.614 42.5967 163.095 42.415 162.38 42.415C161.578 42.415 160.67 42.6611 159.656 43.1533L159.208 42.0371C159.682 41.7793 160.201 41.5771 160.763 41.4307C161.332 41.2842 161.9 41.2109 162.468 41.2109C163.617 41.2109 164.466 41.4658 165.017 41.9756C165.574 42.4854 165.852 43.3027 165.852 44.4277V51.002H164.771ZM161.475 49.9736C162.383 49.9736 163.095 49.7246 163.611 49.2266C164.132 48.7285 164.393 48.0312 164.393 47.1348V46.2646L162.934 46.3262C161.774 46.3672 160.936 46.5488 160.421 46.8711C159.911 47.1875 159.656 47.6826 159.656 48.3564C159.656 48.8838 159.814 49.2852 160.13 49.5605C160.453 49.8359 160.901 49.9736 161.475 49.9736ZM173.349 51.1777C172.722 51.1777 172.148 51.0635 171.627 50.835C171.111 50.6006 170.677 50.2432 170.326 49.7627H170.22C170.291 50.3252 170.326 50.8584 170.326 51.3623V55.3262H168.867V41.3691H170.053L170.255 42.6875H170.326C170.701 42.1602 171.137 41.7793 171.635 41.5449C172.133 41.3105 172.705 41.1934 173.349 41.1934C174.627 41.1934 175.611 41.6299 176.302 42.5029C177 43.376 177.348 44.6006 177.348 46.1768C177.348 47.7588 176.994 48.9893 176.285 49.8682C175.582 50.7412 174.603 51.1777 173.349 51.1777ZM173.138 42.4326C172.154 42.4326 171.442 42.7051 171.003 43.25C170.563 43.7949 170.338 44.6621 170.326 45.8516V46.1768C170.326 47.5303 170.551 48.5 171.003 49.0859C171.454 49.666 172.177 49.9561 173.173 49.9561C174.005 49.9561 174.656 49.6191 175.125 48.9453C175.599 48.2715 175.837 47.3428 175.837 46.1592C175.837 44.958 175.599 44.0381 175.125 43.3994C174.656 42.7549 173.994 42.4326 173.138 42.4326ZM185.83 51.002L185.54 49.6309H185.469C184.989 50.2344 184.508 50.6445 184.028 50.8613C183.553 51.0723 182.959 51.1777 182.244 51.1777C181.289 51.1777 180.539 50.9316 179.994 50.4395C179.455 49.9473 179.185 49.2471 179.185 48.3389C179.185 46.3936 180.741 45.374 183.852 45.2803L185.487 45.2275V44.6299C185.487 43.874 185.323 43.3174 184.995 42.96C184.672 42.5967 184.154 42.415 183.439 42.415C182.636 42.415 181.728 42.6611 180.714 43.1533L180.266 42.0371C180.741 41.7793 181.259 41.5771 181.822 41.4307C182.39 41.2842 182.959 41.2109 183.527 41.2109C184.675 41.2109 185.525 41.4658 186.076 41.9756C186.632 42.4854 186.911 43.3027 186.911 44.4277V51.002H185.83ZM182.534 49.9736C183.442 49.9736 184.154 49.7246 184.67 49.2266C185.191 48.7285 185.452 48.0312 185.452 47.1348V46.2646L183.993 46.3262C182.833 46.3672 181.995 46.5488 181.479 46.8711C180.969 47.1875 180.714 47.6826 180.714 48.3564C180.714 48.8838 180.873 49.2852 181.189 49.5605C181.511 49.8359 181.96 49.9736 182.534 49.9736ZM196.517 51.002V44.7705C196.517 43.9854 196.339 43.3994 195.981 43.0127C195.624 42.626 195.064 42.4326 194.302 42.4326C193.295 42.4326 192.556 42.7051 192.088 43.25C191.619 43.7949 191.384 44.6943 191.384 45.9482V51.002H189.925V41.3691H191.112L191.349 42.6875H191.42C191.718 42.2129 192.137 41.8467 192.676 41.5889C193.215 41.3252 193.816 41.1934 194.478 41.1934C195.638 41.1934 196.511 41.4746 197.097 42.0371C197.683 42.5938 197.976 43.4873 197.976 44.7178V51.002H196.517Z" fill="black"/>
<path d="M125.765 244.666C125.765 245.967 125.32 246.969 124.429 247.672C123.545 248.369 122.276 248.718 120.624 248.718H119.112V253.771H117.618V240.922H120.949C124.16 240.922 125.765 242.17 125.765 244.666ZM119.112 247.435H120.457C121.781 247.435 122.739 247.221 123.331 246.793C123.922 246.365 124.218 245.68 124.218 244.736C124.218 243.887 123.94 243.254 123.383 242.838C122.827 242.422 121.96 242.214 120.782 242.214H119.112V247.435ZM132.313 253.947C130.889 253.947 129.764 253.514 128.938 252.646C128.118 251.779 127.708 250.575 127.708 249.034C127.708 247.481 128.089 246.248 128.85 245.334C129.618 244.42 130.646 243.963 131.935 243.963C133.142 243.963 134.097 244.361 134.8 245.158C135.504 245.949 135.855 246.995 135.855 248.296V249.219H129.219C129.249 250.35 129.533 251.208 130.072 251.794C130.617 252.38 131.381 252.673 132.366 252.673C133.403 252.673 134.428 252.456 135.442 252.022V253.323C134.926 253.546 134.437 253.704 133.974 253.798C133.517 253.897 132.964 253.947 132.313 253.947ZM131.918 245.185C131.144 245.185 130.526 245.437 130.063 245.94C129.606 246.444 129.337 247.142 129.255 248.032H134.291C134.291 247.112 134.086 246.409 133.675 245.923C133.265 245.431 132.679 245.185 131.918 245.185ZM144.943 253.771V247.54C144.943 246.755 144.764 246.169 144.407 245.782C144.049 245.396 143.49 245.202 142.728 245.202C141.72 245.202 140.982 245.475 140.513 246.02C140.045 246.564 139.81 247.464 139.81 248.718V253.771H138.351V244.139H139.538L139.775 245.457H139.845C140.144 244.982 140.563 244.616 141.102 244.358C141.641 244.095 142.242 243.963 142.904 243.963C144.064 243.963 144.937 244.244 145.523 244.807C146.109 245.363 146.402 246.257 146.402 247.487V253.771H144.943ZM155.964 252.479H155.885C155.212 253.458 154.204 253.947 152.862 253.947C151.602 253.947 150.621 253.517 149.918 252.655C149.22 251.794 148.872 250.569 148.872 248.981C148.872 247.394 149.223 246.16 149.926 245.281C150.63 244.402 151.608 243.963 152.862 243.963C154.169 243.963 155.171 244.438 155.868 245.387H155.982L155.921 244.692L155.885 244.016V240.096H157.344V253.771H156.158L155.964 252.479ZM153.047 252.726C154.043 252.726 154.763 252.456 155.209 251.917C155.66 251.372 155.885 250.496 155.885 249.289V248.981C155.885 247.616 155.657 246.644 155.2 246.063C154.749 245.478 154.025 245.185 153.029 245.185C152.173 245.185 151.517 245.519 151.06 246.187C150.609 246.849 150.383 247.786 150.383 248.999C150.383 250.229 150.609 251.158 151.06 251.785C151.511 252.412 152.173 252.726 153.047 252.726ZM166.371 253.771L166.081 252.4H166.01C165.53 253.004 165.049 253.414 164.569 253.631C164.094 253.842 163.5 253.947 162.785 253.947C161.83 253.947 161.08 253.701 160.535 253.209C159.996 252.717 159.726 252.017 159.726 251.108C159.726 249.163 161.282 248.144 164.393 248.05L166.028 247.997V247.399C166.028 246.644 165.864 246.087 165.536 245.729C165.214 245.366 164.695 245.185 163.98 245.185C163.177 245.185 162.269 245.431 161.255 245.923L160.807 244.807C161.282 244.549 161.8 244.347 162.363 244.2C162.931 244.054 163.5 243.98 164.068 243.98C165.216 243.98 166.066 244.235 166.617 244.745C167.173 245.255 167.452 246.072 167.452 247.197V253.771H166.371ZM163.075 252.743C163.983 252.743 164.695 252.494 165.211 251.996C165.732 251.498 165.993 250.801 165.993 249.904V249.034L164.534 249.096C163.374 249.137 162.536 249.318 162.02 249.641C161.51 249.957 161.255 250.452 161.255 251.126C161.255 251.653 161.414 252.055 161.73 252.33C162.052 252.605 162.501 252.743 163.075 252.743ZM174.808 245.272H172.356V253.771H170.897V245.272H169.174V244.613L170.897 244.086V243.55C170.897 241.183 171.931 239.999 174 239.999C174.509 239.999 175.107 240.102 175.793 240.307L175.415 241.476C174.852 241.294 174.372 241.203 173.973 241.203C173.422 241.203 173.015 241.388 172.752 241.757C172.488 242.12 172.356 242.706 172.356 243.515V244.139H174.808V245.272ZM179.677 252.743C179.935 252.743 180.184 252.726 180.424 252.69C180.665 252.649 180.855 252.608 180.996 252.567V253.684C180.838 253.76 180.603 253.821 180.293 253.868C179.988 253.921 179.713 253.947 179.466 253.947C177.603 253.947 176.672 252.966 176.672 251.003V245.272H175.292V244.569L176.672 243.963L177.287 241.906H178.13V244.139H180.925V245.272H178.13V250.941C178.13 251.521 178.268 251.967 178.544 252.277C178.819 252.588 179.197 252.743 179.677 252.743ZM188.853 253.771L188.563 252.4H188.493C188.012 253.004 187.532 253.414 187.051 253.631C186.577 253.842 185.982 253.947 185.267 253.947C184.312 253.947 183.562 253.701 183.017 253.209C182.478 252.717 182.209 252.017 182.209 251.108C182.209 249.163 183.764 248.144 186.876 248.05L188.51 247.997V247.399C188.51 246.644 188.346 246.087 188.018 245.729C187.696 245.366 187.177 245.185 186.463 245.185C185.66 245.185 184.752 245.431 183.738 245.923L183.29 244.807C183.764 244.549 184.283 244.347 184.845 244.2C185.414 244.054 185.982 243.98 186.55 243.98C187.699 243.98 188.548 244.235 189.099 244.745C189.656 245.255 189.934 246.072 189.934 247.197V253.771H188.853ZM185.557 252.743C186.465 252.743 187.177 252.494 187.693 251.996C188.214 251.498 188.475 250.801 188.475 249.904V249.034L187.016 249.096C185.856 249.137 185.018 249.318 184.503 249.641C183.993 249.957 183.738 250.452 183.738 251.126C183.738 251.653 183.896 252.055 184.213 252.33C184.535 252.605 184.983 252.743 185.557 252.743ZM197.343 243.963C197.771 243.963 198.155 243.998 198.495 244.068L198.293 245.422C197.894 245.334 197.543 245.29 197.238 245.29C196.459 245.29 195.791 245.606 195.234 246.239C194.683 246.872 194.408 247.66 194.408 248.604V253.771H192.949V244.139H194.153L194.32 245.923H194.39C194.748 245.296 195.178 244.812 195.682 244.473C196.186 244.133 196.74 243.963 197.343 243.963ZM206.22 253.771L205.93 252.4H205.86C205.38 253.004 204.899 253.414 204.419 253.631C203.944 253.842 203.349 253.947 202.634 253.947C201.679 253.947 200.929 253.701 200.384 253.209C199.845 252.717 199.576 252.017 199.576 251.108C199.576 249.163 201.131 248.144 204.243 248.05L205.878 247.997V247.399C205.878 246.644 205.714 246.087 205.385 245.729C205.063 245.366 204.545 245.185 203.83 245.185C203.027 245.185 202.119 245.431 201.105 245.923L200.657 244.807C201.131 244.549 201.65 244.347 202.213 244.2C202.781 244.054 203.349 243.98 203.918 243.98C205.066 243.98 205.916 244.235 206.466 244.745C207.023 245.255 207.301 246.072 207.301 247.197V253.771H206.22ZM202.924 252.743C203.833 252.743 204.545 252.494 205.06 251.996C205.582 251.498 205.842 250.801 205.842 249.904V249.034L204.383 249.096C203.223 249.137 202.385 249.318 201.87 249.641C201.36 249.957 201.105 250.452 201.105 251.126C201.105 251.653 201.263 252.055 201.58 252.33C201.902 252.605 202.35 252.743 202.924 252.743ZM216.908 253.771V247.54C216.908 246.755 216.729 246.169 216.372 245.782C216.014 245.396 215.455 245.202 214.693 245.202C213.685 245.202 212.947 245.475 212.478 246.02C212.009 246.564 211.775 247.464 211.775 248.718V253.771H210.316V244.139H211.503L211.74 245.457H211.81C212.109 244.982 212.528 244.616 213.067 244.358C213.606 244.095 214.207 243.963 214.869 243.963C216.029 243.963 216.902 244.244 217.488 244.807C218.074 245.363 218.367 246.257 218.367 247.487V253.771H216.908Z" fill="black"/>
<path d="M125.765 441.438C125.765 442.738 125.32 443.74 124.429 444.443C123.545 445.141 122.276 445.489 120.624 445.489H119.112V450.543H117.618V437.693H120.949C124.16 437.693 125.765 438.941 125.765 441.438ZM119.112 444.206H120.457C121.781 444.206 122.739 443.992 123.331 443.564C123.922 443.137 124.218 442.451 124.218 441.508C124.218 440.658 123.94 440.025 123.383 439.609C122.827 439.193 121.96 438.985 120.782 438.985H119.112V444.206ZM132.313 450.719C130.889 450.719 129.764 450.285 128.938 449.418C128.118 448.551 127.708 447.347 127.708 445.806C127.708 444.253 128.089 443.02 128.85 442.105C129.618 441.191 130.646 440.734 131.935 440.734C133.142 440.734 134.097 441.133 134.8 441.93C135.504 442.721 135.855 443.767 135.855 445.067V445.99H129.219C129.249 447.121 129.533 447.979 130.072 448.565C130.617 449.151 131.381 449.444 132.366 449.444C133.403 449.444 134.428 449.228 135.442 448.794V450.095C134.926 450.317 134.437 450.476 133.974 450.569C133.517 450.669 132.964 450.719 132.313 450.719ZM131.918 441.956C131.144 441.956 130.526 442.208 130.063 442.712C129.606 443.216 129.337 443.913 129.255 444.804H134.291C134.291 443.884 134.086 443.181 133.675 442.694C133.265 442.202 132.679 441.956 131.918 441.956ZM144.943 450.543V444.312C144.943 443.526 144.764 442.94 144.407 442.554C144.049 442.167 143.49 441.974 142.728 441.974C141.72 441.974 140.982 442.246 140.513 442.791C140.045 443.336 139.81 444.235 139.81 445.489V450.543H138.351V440.91H139.538L139.775 442.229H139.845C140.144 441.754 140.563 441.388 141.102 441.13C141.641 440.866 142.242 440.734 142.904 440.734C144.064 440.734 144.937 441.016 145.523 441.578C146.109 442.135 146.402 443.028 146.402 444.259V450.543H144.943ZM147.879 440.91H149.443L151.552 446.403C152.015 447.657 152.302 448.562 152.414 449.119H152.484C152.56 448.82 152.718 448.311 152.959 447.59C153.205 446.863 154.002 444.637 155.349 440.91H156.914L152.774 451.879C152.364 452.963 151.883 453.73 151.333 454.182C150.788 454.639 150.117 454.867 149.32 454.867C148.875 454.867 148.435 454.817 148.002 454.718V453.549C148.324 453.619 148.684 453.654 149.083 453.654C150.085 453.654 150.799 453.092 151.227 451.967L151.763 450.596L147.879 440.91ZM159.937 450.543H158.478V440.91H159.937V450.543ZM158.355 438.3C158.355 437.966 158.437 437.723 158.601 437.57C158.765 437.412 158.97 437.333 159.216 437.333C159.451 437.333 159.653 437.412 159.823 437.57C159.993 437.729 160.078 437.972 160.078 438.3C160.078 438.628 159.993 438.874 159.823 439.038C159.653 439.196 159.451 439.275 159.216 439.275C158.97 439.275 158.765 439.196 158.601 439.038C158.437 438.874 158.355 438.628 158.355 438.3ZM169.245 447.915C169.245 448.812 168.911 449.503 168.243 449.989C167.575 450.476 166.637 450.719 165.43 450.719C164.153 450.719 163.157 450.517 162.442 450.112V448.759C162.905 448.993 163.4 449.178 163.927 449.312C164.461 449.447 164.973 449.515 165.465 449.515C166.227 449.515 166.813 449.395 167.223 449.154C167.633 448.908 167.839 448.536 167.839 448.038C167.839 447.663 167.674 447.344 167.346 447.08C167.024 446.811 166.391 446.494 165.448 446.131C164.551 445.797 163.913 445.507 163.532 445.261C163.157 445.009 162.876 444.725 162.688 444.408C162.506 444.092 162.416 443.714 162.416 443.274C162.416 442.489 162.735 441.871 163.374 441.42C164.012 440.963 164.888 440.734 166.002 440.734C167.039 440.734 168.052 440.945 169.043 441.367L168.524 442.554C167.557 442.155 166.681 441.956 165.896 441.956C165.205 441.956 164.683 442.064 164.332 442.281C163.98 442.498 163.804 442.797 163.804 443.178C163.804 443.436 163.869 443.655 163.998 443.837C164.132 444.019 164.346 444.191 164.639 444.355C164.932 444.52 165.495 444.757 166.327 445.067C167.469 445.483 168.24 445.902 168.638 446.324C169.043 446.746 169.245 447.276 169.245 447.915ZM173.086 450.543H171.627V440.91H173.086V450.543ZM171.504 438.3C171.504 437.966 171.586 437.723 171.75 437.57C171.914 437.412 172.119 437.333 172.365 437.333C172.599 437.333 172.801 437.412 172.971 437.57C173.141 437.729 173.226 437.972 173.226 438.3C173.226 438.628 173.141 438.874 172.971 439.038C172.801 439.196 172.599 439.275 172.365 439.275C172.119 439.275 171.914 439.196 171.75 439.038C171.586 438.874 171.504 438.628 171.504 438.3ZM182.771 450.543V444.312C182.771 443.526 182.592 442.94 182.235 442.554C181.878 442.167 181.318 441.974 180.556 441.974C179.543 441.974 178.801 442.249 178.333 442.8C177.87 443.351 177.638 444.253 177.638 445.507V450.543H176.179V436.867H177.638V441.007C177.638 441.505 177.615 441.918 177.568 442.246H177.656C177.943 441.783 178.35 441.42 178.878 441.156C179.411 440.887 180.017 440.752 180.697 440.752C181.875 440.752 182.756 441.033 183.342 441.596C183.934 442.152 184.23 443.04 184.23 444.259V450.543H182.771ZM193.16 450.543L192.87 449.172H192.799C192.319 449.775 191.839 450.186 191.358 450.402C190.883 450.613 190.289 450.719 189.574 450.719C188.619 450.719 187.869 450.473 187.324 449.98C186.785 449.488 186.515 448.788 186.515 447.88C186.515 445.935 188.071 444.915 191.182 444.821L192.817 444.769V444.171C192.817 443.415 192.653 442.858 192.325 442.501C192.003 442.138 191.484 441.956 190.769 441.956C189.966 441.956 189.058 442.202 188.045 442.694L187.596 441.578C188.071 441.32 188.589 441.118 189.152 440.972C189.72 440.825 190.289 440.752 190.857 440.752C192.005 440.752 192.855 441.007 193.406 441.517C193.963 442.026 194.241 442.844 194.241 443.969V450.543H193.16ZM189.864 449.515C190.772 449.515 191.484 449.266 192 448.768C192.521 448.27 192.782 447.572 192.782 446.676V445.806L191.323 445.867C190.163 445.908 189.325 446.09 188.809 446.412C188.299 446.729 188.045 447.224 188.045 447.897C188.045 448.425 188.203 448.826 188.519 449.102C188.841 449.377 189.29 449.515 189.864 449.515ZM203.847 450.543V444.312C203.847 443.526 203.669 442.94 203.311 442.554C202.954 442.167 202.394 441.974 201.632 441.974C200.625 441.974 199.886 442.246 199.418 442.791C198.949 443.336 198.714 444.235 198.714 445.489V450.543H197.255V440.91H198.442L198.679 442.229H198.75C199.048 441.754 199.467 441.388 200.006 441.13C200.546 440.866 201.146 440.734 201.808 440.734C202.968 440.734 203.841 441.016 204.427 441.578C205.013 442.135 205.306 443.028 205.306 444.259V450.543H203.847Z" fill="black"/>
<path d="M120.704 642.816H119.21V629.967H126.373V631.294H120.704V635.996H126.03V637.323H120.704V642.816ZM129.748 642.816H128.289V633.184H129.748V642.816ZM128.166 630.573C128.166 630.239 128.248 629.996 128.412 629.844C128.576 629.686 128.781 629.606 129.027 629.606C129.262 629.606 129.464 629.686 129.634 629.844C129.804 630.002 129.889 630.245 129.889 630.573C129.889 630.901 129.804 631.147 129.634 631.312C129.464 631.47 129.262 631.549 129.027 631.549C128.781 631.549 128.576 631.47 128.412 631.312C128.248 631.147 128.166 630.901 128.166 630.573ZM139.434 642.816V636.585C139.434 635.8 139.255 635.214 138.898 634.827C138.54 634.44 137.981 634.247 137.219 634.247C136.211 634.247 135.473 634.52 135.004 635.064C134.535 635.609 134.301 636.509 134.301 637.763V642.816H132.842V633.184H134.028L134.266 634.502H134.336C134.635 634.027 135.054 633.661 135.593 633.403C136.132 633.14 136.733 633.008 137.395 633.008C138.555 633.008 139.428 633.289 140.014 633.852C140.6 634.408 140.893 635.302 140.893 636.532V642.816H139.434ZM149.822 642.816L149.532 641.445H149.462C148.982 642.049 148.501 642.459 148.021 642.676C147.546 642.887 146.951 642.992 146.236 642.992C145.281 642.992 144.531 642.746 143.986 642.254C143.447 641.762 143.178 641.062 143.178 640.153C143.178 638.208 144.734 637.188 147.845 637.095L149.48 637.042V636.444C149.48 635.688 149.316 635.132 148.987 634.774C148.665 634.411 148.147 634.229 147.432 634.229C146.629 634.229 145.721 634.476 144.707 634.968L144.259 633.852C144.734 633.594 145.252 633.392 145.815 633.245C146.383 633.099 146.951 633.025 147.52 633.025C148.668 633.025 149.518 633.28 150.068 633.79C150.625 634.3 150.903 635.117 150.903 636.242V642.816H149.822ZM146.526 641.788C147.435 641.788 148.147 641.539 148.662 641.041C149.184 640.543 149.444 639.846 149.444 638.949V638.079L147.985 638.141C146.825 638.182 145.987 638.363 145.472 638.686C144.962 639.002 144.707 639.497 144.707 640.171C144.707 640.698 144.865 641.1 145.182 641.375C145.504 641.65 145.952 641.788 146.526 641.788ZM155.377 642.816H153.918V629.141H155.377V642.816Z" fill="black"/>
<path d="M127.358 835.658C127.358 836.959 126.912 837.961 126.022 838.664C125.137 839.361 123.868 839.71 122.216 839.71H120.704V844.764H119.21V831.914H122.541C125.752 831.914 127.358 833.162 127.358 835.658ZM120.704 838.427H122.049C123.373 838.427 124.331 838.213 124.923 837.785C125.515 837.357 125.811 836.672 125.811 835.729C125.811 834.879 125.532 834.246 124.976 833.83C124.419 833.414 123.552 833.206 122.374 833.206H120.704V838.427ZM133.905 844.939C132.482 844.939 131.357 844.506 130.53 843.639C129.71 842.771 129.3 841.567 129.3 840.026C129.3 838.474 129.681 837.24 130.443 836.326C131.21 835.412 132.238 834.955 133.527 834.955C134.734 834.955 135.69 835.354 136.393 836.15C137.096 836.941 137.447 837.987 137.447 839.288V840.211H130.812C130.841 841.342 131.125 842.2 131.664 842.786C132.209 843.372 132.974 843.665 133.958 843.665C134.995 843.665 136.021 843.448 137.034 843.015V844.315C136.519 844.538 136.029 844.696 135.567 844.79C135.109 844.89 134.556 844.939 133.905 844.939ZM133.51 836.177C132.736 836.177 132.118 836.429 131.655 836.933C131.198 837.437 130.929 838.134 130.847 839.024H135.883C135.883 838.104 135.678 837.401 135.268 836.915C134.858 836.423 134.272 836.177 133.51 836.177ZM146.535 844.764V838.532C146.535 837.747 146.357 837.161 145.999 836.774C145.642 836.388 145.082 836.194 144.32 836.194C143.313 836.194 142.574 836.467 142.106 837.012C141.637 837.557 141.402 838.456 141.402 839.71V844.764H139.943V835.131H141.13L141.367 836.449H141.438C141.736 835.975 142.155 835.608 142.694 835.351C143.234 835.087 143.834 834.955 144.496 834.955C145.656 834.955 146.529 835.236 147.115 835.799C147.701 836.355 147.994 837.249 147.994 838.479V844.764H146.535ZM158.884 835.131V836.054L157.1 836.265C157.264 836.47 157.41 836.739 157.539 837.073C157.668 837.401 157.733 837.773 157.733 838.189C157.733 839.133 157.41 839.886 156.766 840.448C156.121 841.011 155.236 841.292 154.111 841.292C153.824 841.292 153.555 841.269 153.303 841.222C152.682 841.55 152.371 841.963 152.371 842.461C152.371 842.725 152.48 842.921 152.696 843.05C152.913 843.173 153.285 843.234 153.813 843.234H155.518C156.561 843.234 157.36 843.454 157.917 843.894C158.48 844.333 158.761 844.972 158.761 845.81C158.761 846.876 158.333 847.688 157.478 848.244C156.622 848.807 155.374 849.088 153.734 849.088C152.474 849.088 151.501 848.854 150.816 848.385C150.136 847.916 149.796 847.254 149.796 846.398C149.796 845.812 149.984 845.306 150.359 844.878C150.734 844.45 151.261 844.16 151.941 844.008C151.694 843.896 151.486 843.724 151.317 843.489C151.152 843.255 151.07 842.982 151.07 842.672C151.07 842.32 151.164 842.013 151.352 841.749C151.539 841.485 151.835 841.23 152.239 840.984C151.741 840.779 151.334 840.431 151.018 839.938C150.707 839.446 150.552 838.884 150.552 838.251C150.552 837.196 150.868 836.385 151.501 835.816C152.134 835.242 153.03 834.955 154.191 834.955C154.694 834.955 155.149 835.014 155.553 835.131H158.884ZM151.202 846.381C151.202 846.902 151.422 847.298 151.861 847.567C152.301 847.837 152.931 847.972 153.751 847.972C154.976 847.972 155.881 847.787 156.467 847.418C157.059 847.055 157.355 846.56 157.355 845.933C157.355 845.411 157.193 845.048 156.871 844.843C156.549 844.644 155.943 844.544 155.052 844.544H153.303C152.641 844.544 152.125 844.702 151.756 845.019C151.387 845.335 151.202 845.789 151.202 846.381ZM151.993 838.216C151.993 838.89 152.184 839.399 152.565 839.745C152.945 840.091 153.476 840.264 154.155 840.264C155.579 840.264 156.291 839.572 156.291 838.189C156.291 836.742 155.57 836.019 154.129 836.019C153.443 836.019 152.916 836.203 152.547 836.572C152.178 836.941 151.993 837.489 151.993 838.216ZM162.233 835.131V841.38C162.233 842.165 162.411 842.751 162.769 843.138C163.126 843.524 163.686 843.718 164.447 843.718C165.455 843.718 166.191 843.442 166.653 842.892C167.122 842.341 167.357 841.441 167.357 840.193V835.131H168.816V844.764H167.611L167.401 843.472H167.321C167.023 843.946 166.607 844.31 166.073 844.562C165.546 844.813 164.943 844.939 164.263 844.939C163.091 844.939 162.212 844.661 161.626 844.104C161.046 843.548 160.756 842.657 160.756 841.433V835.131H162.233ZM184.196 844.764V838.497C184.196 837.729 184.032 837.155 183.704 836.774C183.376 836.388 182.866 836.194 182.175 836.194C181.267 836.194 180.596 836.455 180.162 836.977C179.729 837.498 179.512 838.301 179.512 839.385V844.764H178.053V838.497C178.053 837.729 177.889 837.155 177.561 836.774C177.233 836.388 176.72 836.194 176.023 836.194C175.109 836.194 174.438 836.47 174.01 837.021C173.588 837.565 173.377 838.462 173.377 839.71V844.764H171.918V835.131H173.105L173.342 836.449H173.412C173.688 835.98 174.074 835.614 174.572 835.351C175.076 835.087 175.639 834.955 176.26 834.955C177.766 834.955 178.75 835.5 179.213 836.59H179.283C179.57 836.086 179.986 835.688 180.531 835.395C181.076 835.102 181.697 834.955 182.395 834.955C183.484 834.955 184.299 835.236 184.838 835.799C185.383 836.355 185.655 837.249 185.655 838.479V844.764H184.196ZM190.041 835.131V841.38C190.041 842.165 190.22 842.751 190.577 843.138C190.935 843.524 191.494 843.718 192.256 843.718C193.264 843.718 193.999 843.442 194.462 842.892C194.931 842.341 195.165 841.441 195.165 840.193V835.131H196.624V844.764H195.42L195.209 843.472H195.13C194.831 843.946 194.415 844.31 193.882 844.562C193.355 844.813 192.751 844.939 192.071 844.939C190.9 844.939 190.021 844.661 189.435 844.104C188.855 843.548 188.565 842.657 188.565 841.433V835.131H190.041ZM212.005 844.764V838.497C212.005 837.729 211.841 837.155 211.513 836.774C211.185 836.388 210.675 836.194 209.984 836.194C209.075 836.194 208.404 836.455 207.971 836.977C207.537 837.498 207.32 838.301 207.32 839.385V844.764H205.861V838.497C205.861 837.729 205.697 837.155 205.369 836.774C205.041 836.388 204.528 836.194 203.831 836.194C202.917 836.194 202.246 836.47 201.818 837.021C201.397 837.565 201.186 838.462 201.186 839.71V844.764H199.727V835.131H200.913L201.151 836.449H201.221C201.496 835.98 201.883 835.614 202.381 835.351C202.885 835.087 203.447 834.955 204.068 834.955C205.574 834.955 206.559 835.5 207.022 836.59H207.092C207.379 836.086 207.795 835.688 208.34 835.395C208.885 835.102 209.506 834.955 210.203 834.955C211.293 834.955 212.108 835.236 212.647 835.799C213.192 836.355 213.464 837.249 213.464 838.479V844.764H212.005ZM222.402 844.764L222.112 843.393H222.042C221.562 843.996 221.081 844.406 220.601 844.623C220.126 844.834 219.531 844.939 218.817 844.939C217.861 844.939 217.111 844.693 216.567 844.201C216.027 843.709 215.758 843.009 215.758 842.101C215.758 840.155 217.314 839.136 220.425 839.042L222.06 838.989V838.392C222.06 837.636 221.896 837.079 221.568 836.722C221.245 836.358 220.727 836.177 220.012 836.177C219.209 836.177 218.301 836.423 217.287 836.915L216.839 835.799C217.314 835.541 217.832 835.339 218.395 835.192C218.963 835.046 219.531 834.973 220.1 834.973C221.248 834.973 222.098 835.228 222.649 835.737C223.205 836.247 223.484 837.064 223.484 838.189V844.764H222.402ZM219.107 843.735C220.015 843.735 220.727 843.486 221.242 842.988C221.764 842.49 222.025 841.793 222.025 840.896V840.026L220.566 840.088C219.405 840.129 218.568 840.311 218.052 840.633C217.542 840.949 217.287 841.444 217.287 842.118C217.287 842.646 217.445 843.047 217.762 843.322C218.084 843.598 218.532 843.735 219.107 843.735ZM233.09 844.764V838.532C233.09 837.747 232.911 837.161 232.554 836.774C232.196 836.388 231.637 836.194 230.875 836.194C229.867 836.194 229.129 836.467 228.66 837.012C228.192 837.557 227.957 838.456 227.957 839.71V844.764H226.498V835.131H227.685L227.922 836.449H227.992C228.291 835.975 228.71 835.608 229.249 835.351C229.788 835.087 230.389 834.955 231.051 834.955C232.211 834.955 233.084 835.236 233.67 835.799C234.256 836.355 234.549 837.249 234.549 838.479V844.764H233.09Z" fill="black"/>
<circle cx="44.1408" cy="44.5007" r="43.6355" fill="#C4C4C4"/>
<path d="M33.992 51.36C30.512 51.36 27.86 50.184 26.036 47.832C24.236 45.48 23.336 42.192 23.336 37.968C23.336 33.744 24.308 30.6 26.252 28.536C28.196 26.448 30.848 25.404 34.208 25.404C37.592 25.404 40.244 26.436 42.164 28.5C44.108 30.564 45.08 33.852 45.08 38.364C45.08 42.876 44.108 46.176 42.164 48.264C40.22 50.328 37.496 51.36 33.992 51.36ZM30.716 37.032V40.236C30.716 42.564 30.728 44.208 30.752 45.168C30.8 46.128 30.932 47.124 31.148 48.156C31.364 49.188 31.712 49.86 32.192 50.172C32.672 50.46 33.236 50.604 33.884 50.604C34.532 50.604 35.012 50.568 35.324 50.496C35.66 50.424 35.948 50.28 36.188 50.064C36.452 49.824 36.668 49.596 36.836 49.38C37.004 49.14 37.136 48.78 37.232 48.3C37.352 47.82 37.448 47.376 37.52 46.968C37.592 46.56 37.64 45.96 37.664 45.168C37.712 43.632 37.736 42.084 37.736 40.524V37.356C37.736 32.652 37.556 29.616 37.196 28.248C36.86 26.856 35.876 26.16 34.244 26.16C32.612 26.16 31.616 26.868 31.256 28.284C30.896 29.7 30.716 32.616 30.716 37.032ZM47.4222 30.912C47.4222 29.304 48.1182 27.984 49.5102 26.952C50.9022 25.92 52.9902 25.404 55.7742 25.404C58.5582 25.404 60.6942 25.92 62.1822 26.952C63.6942 27.984 64.4502 29.532 64.4502 31.596C64.4502 32.268 64.3902 32.88 64.2702 33.432C64.1502 33.96 63.8742 34.524 63.4422 35.124C63.0342 35.7 62.6262 36.216 62.2182 36.672C61.8342 37.128 61.1622 37.728 60.2022 38.472C58.7622 39.624 57.2502 40.776 55.6662 41.928C54.0822 43.056 53.1582 43.716 52.8942 43.908L50.6982 45.492H59.3382C60.9942 45.492 62.1702 45.132 62.8662 44.412C63.5622 43.692 64.0542 42.564 64.3422 41.028H64.9542L64.5942 51H47.6742V46.824L51.3102 43.476C53.7822 41.22 55.5342 39.216 56.5662 37.464C57.5982 35.688 58.1142 33.744 58.1142 31.632C58.1142 29.496 57.8862 28.044 57.4302 27.276C56.9742 26.484 56.2062 26.088 55.1262 26.088C54.0462 26.088 53.2902 26.364 52.8582 26.916C52.4262 27.468 52.2102 27.996 52.2102 28.5C52.2102 29.004 52.2822 29.448 52.4262 29.832H53.5062C53.6982 30.336 53.7942 30.948 53.7942 31.668C53.7942 32.364 53.4942 32.976 52.8942 33.504C52.2942 34.008 51.5022 34.26 50.5182 34.26C49.5342 34.26 48.7662 33.948 48.2142 33.324C47.6862 32.676 47.4222 31.872 47.4222 30.912Z" fill="black"/>
<path d="M31.089 73.3857C30.5382 73.3857 30.1046 73.3066 29.7882 73.1484V71.874C30.2042 71.9912 30.6378 72.0498 31.089 72.0498C31.6691 72.0498 32.1085 71.874 32.4073 71.5225C32.712 71.1709 32.8644 70.6641 32.8644 70.002V57.1523H34.3585V69.8789C34.3585 70.9922 34.0773 71.8535 33.5148 72.4629C32.9523 73.0781 32.1437 73.3857 31.089 73.3857ZM43.4816 70.002L43.1915 68.6309H43.1212C42.6407 69.2344 42.1603 69.6445 41.6798 69.8613C41.2052 70.0723 40.6105 70.1777 39.8956 70.1777C38.9405 70.1777 38.1905 69.9316 37.6456 69.4395C37.1066 68.9473 36.837 68.2471 36.837 67.3389C36.837 65.3936 38.3927 64.374 41.504 64.2803L43.1388 64.2275V63.6299C43.1388 62.874 42.9747 62.3174 42.6466 61.96C42.3243 61.5967 41.8058 61.415 41.0909 61.415C40.2882 61.415 39.38 61.6611 38.3663 62.1533L37.9181 61.0371C38.3927 60.7793 38.9113 60.5771 39.4738 60.4307C40.0421 60.2842 40.6105 60.2109 41.1788 60.2109C42.3273 60.2109 43.1769 60.4658 43.7277 60.9756C44.2843 61.4854 44.5626 62.3027 44.5626 63.4277V70.002H43.4816ZM40.1857 68.9736C41.0939 68.9736 41.8058 68.7246 42.3214 68.2266C42.8429 67.7285 43.1036 67.0312 43.1036 66.1348V65.2646L41.6446 65.3262C40.4845 65.3672 39.6466 65.5488 39.131 65.8711C38.6212 66.1875 38.3663 66.6826 38.3663 67.3564C38.3663 67.8838 38.5245 68.2852 38.8409 68.5605C39.1632 68.8359 39.6114 68.9736 40.1857 68.9736ZM54.1691 70.002V63.7705C54.1691 62.9854 53.9904 62.3994 53.6329 62.0127C53.2755 61.626 52.7159 61.4326 51.9542 61.4326C50.9464 61.4326 50.2081 61.7051 49.7394 62.25C49.2706 62.7949 49.0363 63.6943 49.0363 64.9482V70.002H47.5773V60.3691H48.7638L49.0011 61.6875H49.0714C49.3702 61.2129 49.7892 60.8467 50.3282 60.5889C50.8673 60.3252 51.4679 60.1934 52.13 60.1934C53.2902 60.1934 54.1632 60.4746 54.7491 61.0371C55.3351 61.5938 55.628 62.4873 55.628 63.7178V70.002H54.1691Z" fill="black"/>
<circle cx="44.1408" cy="241.772" r="43.6355" fill="#009345"/>
<path d="M35.2478 248.631C31.7678 248.631 29.1158 247.455 27.2918 245.103C25.4918 242.751 24.5918 239.463 24.5918 235.239C24.5918 231.015 25.5638 227.871 27.5078 225.807C29.4518 223.719 32.1038 222.675 35.4638 222.675C38.8478 222.675 41.4998 223.707 43.4198 225.771C45.3638 227.835 46.3358 231.123 46.3358 235.635C46.3358 240.147 45.3638 243.447 43.4198 245.535C41.4758 247.599 38.7518 248.631 35.2478 248.631ZM31.9718 234.303V237.507C31.9718 239.835 31.9838 241.479 32.0078 242.439C32.0558 243.399 32.1878 244.395 32.4038 245.427C32.6198 246.459 32.9678 247.131 33.4478 247.443C33.9278 247.731 34.4918 247.875 35.1398 247.875C35.7878 247.875 36.2678 247.839 36.5798 247.767C36.9158 247.695 37.2038 247.551 37.4438 247.335C37.7078 247.095 37.9238 246.867 38.0918 246.651C38.2598 246.411 38.3918 246.051 38.4878 245.571C38.6078 245.091 38.7038 244.647 38.7758 244.239C38.8478 243.831 38.8958 243.231 38.9198 242.439C38.9678 240.903 38.9918 239.355 38.9918 237.795V234.627C38.9918 229.923 38.8118 226.887 38.4518 225.519C38.1158 224.127 37.1318 223.431 35.4998 223.431C33.8678 223.431 32.8718 224.139 32.5118 225.555C32.1518 226.971 31.9718 229.887 31.9718 234.303ZM55.8781 248.631C54.5821 248.631 53.5621 248.283 52.8181 247.587C52.0741 246.867 51.7021 245.991 51.7021 244.959C51.7021 243.903 52.0501 242.751 52.7461 241.503C53.4661 240.231 55.0141 238.215 57.3901 235.455L63.3301 228.579H54.1141C52.4101 228.579 51.2821 228.795 50.7301 229.227C50.2021 229.635 49.7821 230.631 49.4701 232.215H48.8941L49.2901 223.071H65.4181V226.959L61.4221 233.943C59.6461 237.087 58.5061 239.343 58.0021 240.711C57.5221 242.055 57.2821 243.339 57.2821 244.563C57.2821 245.787 57.6421 246.915 58.3621 247.947L58.1101 248.379C57.4381 248.547 56.6941 248.631 55.8781 248.631Z" fill="#F8F8F8"/>
<path d="M31.089 270.657C30.5382 270.657 30.1046 270.578 29.7882 270.42V269.146C30.2042 269.263 30.6378 269.321 31.089 269.321C31.6691 269.321 32.1085 269.146 32.4073 268.794C32.712 268.442 32.8644 267.936 32.8644 267.273V254.424H34.3585V267.15C34.3585 268.264 34.0773 269.125 33.5148 269.734C32.9523 270.35 32.1437 270.657 31.089 270.657ZM43.4816 267.273L43.1915 265.902H43.1212C42.6407 266.506 42.1603 266.916 41.6798 267.133C41.2052 267.344 40.6105 267.449 39.8956 267.449C38.9405 267.449 38.1905 267.203 37.6456 266.711C37.1066 266.219 36.837 265.519 36.837 264.61C36.837 262.665 38.3927 261.646 41.504 261.552L43.1388 261.499V260.901C43.1388 260.146 42.9747 259.589 42.6466 259.231C42.3243 258.868 41.8058 258.687 41.0909 258.687C40.2882 258.687 39.38 258.933 38.3663 259.425L37.9181 258.309C38.3927 258.051 38.9113 257.849 39.4738 257.702C40.0421 257.556 40.6105 257.482 41.1788 257.482C42.3273 257.482 43.1769 257.737 43.7277 258.247C44.2843 258.757 44.5626 259.574 44.5626 260.699V267.273H43.4816ZM40.1857 266.245C41.0939 266.245 41.8058 265.996 42.3214 265.498C42.8429 265 43.1036 264.303 43.1036 263.406V262.536L41.6446 262.598C40.4845 262.639 39.6466 262.82 39.131 263.143C38.6212 263.459 38.3663 263.954 38.3663 264.628C38.3663 265.155 38.5245 265.557 38.8409 265.832C39.1632 266.107 39.6114 266.245 40.1857 266.245ZM54.1691 267.273V261.042C54.1691 260.257 53.9904 259.671 53.6329 259.284C53.2755 258.897 52.7159 258.704 51.9542 258.704C50.9464 258.704 50.2081 258.977 49.7394 259.521C49.2706 260.066 49.0363 260.966 49.0363 262.22V267.273H47.5773V257.641H48.7638L49.0011 258.959H49.0714C49.3702 258.484 49.7892 258.118 50.3282 257.86C50.8673 257.597 51.4679 257.465 52.13 257.465C53.2902 257.465 54.1632 257.746 54.7491 258.309C55.3351 258.865 55.628 259.759 55.628 260.989V267.273H54.1691Z" fill="#F8F8F8"/>
<circle cx="44.1408" cy="439.044" r="43.6355" fill="#C4C4C4"/>
<path d="M23.516 425.455C23.516 423.847 24.212 422.527 25.604 421.495C26.996 420.463 29.084 419.947 31.868 419.947C34.652 419.947 36.788 420.463 38.276 421.495C39.788 422.527 40.544 424.075 40.544 426.139C40.544 426.811 40.484 427.423 40.364 427.975C40.244 428.503 39.968 429.067 39.536 429.667C39.128 430.243 38.72 430.759 38.312 431.215C37.928 431.671 37.256 432.271 36.296 433.015C34.856 434.167 33.344 435.319 31.76 436.471C30.176 437.599 29.252 438.259 28.988 438.451L26.792 440.035H35.432C37.088 440.035 38.264 439.675 38.96 438.955C39.656 438.235 40.148 437.107 40.436 435.571H41.048L40.688 445.543H23.768V441.367L27.404 438.019C29.876 435.763 31.628 433.759 32.66 432.007C33.692 430.231 34.208 428.287 34.208 426.175C34.208 424.039 33.98 422.587 33.524 421.819C33.068 421.027 32.3 420.631 31.22 420.631C30.14 420.631 29.384 420.907 28.952 421.459C28.52 422.011 28.304 422.539 28.304 423.043C28.304 423.547 28.376 423.991 28.52 424.375H29.6C29.792 424.879 29.888 425.491 29.888 426.211C29.888 426.907 29.588 427.519 28.988 428.047C28.388 428.551 27.596 428.803 26.612 428.803C25.628 428.803 24.86 428.491 24.308 427.867C23.78 427.219 23.516 426.415 23.516 425.455ZM53.8553 445.903C50.3753 445.903 47.7233 444.727 45.8993 442.375C44.0993 440.023 43.1993 436.735 43.1993 432.511C43.1993 428.287 44.1713 425.143 46.1153 423.079C48.0593 420.991 50.7113 419.947 54.0713 419.947C57.4553 419.947 60.1073 420.979 62.0273 423.043C63.9713 425.107 64.9433 428.395 64.9433 432.907C64.9433 437.419 63.9713 440.719 62.0273 442.807C60.0833 444.871 57.3593 445.903 53.8553 445.903ZM50.5793 431.575V434.779C50.5793 437.107 50.5913 438.751 50.6153 439.711C50.6633 440.671 50.7953 441.667 51.0113 442.699C51.2273 443.731 51.5753 444.403 52.0553 444.715C52.5353 445.003 53.0993 445.147 53.7473 445.147C54.3953 445.147 54.8753 445.111 55.1873 445.039C55.5233 444.967 55.8113 444.823 56.0513 444.607C56.3153 444.367 56.5313 444.139 56.6993 443.923C56.8673 443.683 56.9993 443.323 57.0953 442.843C57.2153 442.363 57.3113 441.919 57.3833 441.511C57.4553 441.103 57.5033 440.503 57.5273 439.711C57.5753 438.175 57.5993 436.627 57.5993 435.067V431.899C57.5993 427.195 57.4193 424.159 57.0593 422.791C56.7233 421.399 55.7393 420.703 54.1073 420.703C52.4753 420.703 51.4793 421.411 51.1193 422.827C50.7593 424.243 50.5793 427.159 50.5793 431.575Z" fill="black"/>
<path d="M31.089 467.929C30.5382 467.929 30.1046 467.85 29.7882 467.691V466.417C30.2042 466.534 30.6378 466.593 31.089 466.593C31.6691 466.593 32.1085 466.417 32.4073 466.065C32.712 465.714 32.8644 465.207 32.8644 464.545V451.695H34.3585V464.422C34.3585 465.535 34.0773 466.396 33.5148 467.006C32.9523 467.621 32.1437 467.929 31.089 467.929ZM43.4816 464.545L43.1915 463.174H43.1212C42.6407 463.777 42.1603 464.188 41.6798 464.404C41.2052 464.615 40.6105 464.721 39.8956 464.721C38.9405 464.721 38.1905 464.475 37.6456 463.982C37.1066 463.49 36.837 462.79 36.837 461.882C36.837 459.937 38.3927 458.917 41.504 458.823L43.1388 458.771V458.173C43.1388 457.417 42.9747 456.86 42.6466 456.503C42.3243 456.14 41.8058 455.958 41.0909 455.958C40.2882 455.958 39.38 456.204 38.3663 456.696L37.9181 455.58C38.3927 455.322 38.9113 455.12 39.4738 454.974C40.0421 454.827 40.6105 454.754 41.1788 454.754C42.3273 454.754 43.1769 455.009 43.7277 455.519C44.2843 456.028 44.5626 456.846 44.5626 457.971V464.545H43.4816ZM40.1857 463.517C41.0939 463.517 41.8058 463.268 42.3214 462.77C42.8429 462.271 43.1036 461.574 43.1036 460.678V459.808L41.6446 459.869C40.4845 459.91 39.6466 460.092 39.131 460.414C38.6212 460.73 38.3663 461.226 38.3663 461.899C38.3663 462.427 38.5245 462.828 38.8409 463.104C39.1632 463.379 39.6114 463.517 40.1857 463.517ZM54.1691 464.545V458.313C54.1691 457.528 53.9904 456.942 53.6329 456.556C53.2755 456.169 52.7159 455.976 51.9542 455.976C50.9464 455.976 50.2081 456.248 49.7394 456.793C49.2706 457.338 49.0363 458.237 49.0363 459.491V464.545H47.5773V454.912H48.7638L49.0011 456.23H49.0714C49.3702 455.756 49.7892 455.39 50.3282 455.132C50.8673 454.868 51.4679 454.736 52.13 454.736C53.2902 454.736 54.1632 455.018 54.7491 455.58C55.3351 456.137 55.628 457.03 55.628 458.261V464.545H54.1691Z" fill="black"/>
<circle cx="44.1408" cy="636.315" r="43.6355" fill="#C4C4C4"/>
<path d="M25.5375 622.726C25.5375 621.118 26.2335 619.798 27.6255 618.766C29.0175 617.734 31.1055 617.218 33.8895 617.218C36.6735 617.218 38.8095 617.734 40.2975 618.766C41.8095 619.798 42.5655 621.346 42.5655 623.41C42.5655 624.082 42.5055 624.694 42.3855 625.246C42.2655 625.774 41.9895 626.338 41.5575 626.938C41.1495 627.514 40.7415 628.03 40.3335 628.486C39.9495 628.942 39.2775 629.542 38.3175 630.286C36.8775 631.438 35.3655 632.59 33.7815 633.742C32.1975 634.87 31.2735 635.53 31.0095 635.722L28.8135 637.306H37.4535C39.1095 637.306 40.2855 636.946 40.9815 636.226C41.6775 635.506 42.1695 634.378 42.4575 632.842H43.0695L42.7095 642.814H25.7895V638.638L29.4255 635.29C31.8975 633.034 33.6495 631.03 34.6815 629.278C35.7135 627.502 36.2295 625.558 36.2295 623.446C36.2295 621.31 36.0015 619.858 35.5455 619.09C35.0895 618.298 34.3215 617.902 33.2415 617.902C32.1615 617.902 31.4055 618.178 30.9735 618.73C30.5415 619.282 30.3255 619.81 30.3255 620.314C30.3255 620.818 30.3975 621.262 30.5415 621.646H31.6215C31.8135 622.15 31.9095 622.762 31.9095 623.482C31.9095 624.178 31.6095 624.79 31.0095 625.318C30.4095 625.822 29.6175 626.074 28.6335 626.074C27.6495 626.074 26.8815 625.762 26.3295 625.138C25.8015 624.49 25.5375 623.686 25.5375 622.726ZM45.4007 622.726C45.4007 621.118 46.0967 619.798 47.4887 618.766C48.8807 617.734 50.9687 617.218 53.7527 617.218C56.5367 617.218 58.6727 617.734 60.1607 618.766C61.6727 619.798 62.4287 621.346 62.4287 623.41C62.4287 624.082 62.3687 624.694 62.2487 625.246C62.1287 625.774 61.8527 626.338 61.4207 626.938C61.0127 627.514 60.6047 628.03 60.1967 628.486C59.8127 628.942 59.1407 629.542 58.1807 630.286C56.7407 631.438 55.2287 632.59 53.6447 633.742C52.0607 634.87 51.1367 635.53 50.8727 635.722L48.6767 637.306H57.3167C58.9727 637.306 60.1487 636.946 60.8447 636.226C61.5407 635.506 62.0327 634.378 62.3207 632.842H62.9327L62.5727 642.814H45.6527V638.638L49.2887 635.29C51.7607 633.034 53.5127 631.03 54.5447 629.278C55.5767 627.502 56.0927 625.558 56.0927 623.446C56.0927 621.31 55.8647 619.858 55.4087 619.09C54.9527 618.298 54.1847 617.902 53.1047 617.902C52.0247 617.902 51.2687 618.178 50.8367 618.73C50.4047 619.282 50.1887 619.81 50.1887 620.314C50.1887 620.818 50.2607 621.262 50.4047 621.646H51.4847C51.6767 622.15 51.7727 622.762 51.7727 623.482C51.7727 624.178 51.4727 624.79 50.8727 625.318C50.2727 625.822 49.4807 626.074 48.4967 626.074C47.5127 626.074 46.7447 625.762 46.1927 625.138C45.6647 624.49 45.4007 623.686 45.4007 622.726Z" fill="black"/>
<path d="M31.089 665.2C30.5382 665.2 30.1046 665.121 29.7882 664.963V663.688C30.2042 663.806 30.6378 663.864 31.089 663.864C31.6691 663.864 32.1085 663.688 32.4073 663.337C32.712 662.985 32.8644 662.479 32.8644 661.816V648.967H34.3585V661.693C34.3585 662.807 34.0773 663.668 33.5148 664.277C32.9523 664.893 32.1437 665.2 31.089 665.2ZM43.4816 661.816L43.1915 660.445H43.1212C42.6407 661.049 42.1603 661.459 41.6798 661.676C41.2052 661.887 40.6105 661.992 39.8956 661.992C38.9405 661.992 38.1905 661.746 37.6456 661.254C37.1066 660.762 36.837 660.062 36.837 659.153C36.837 657.208 38.3927 656.188 41.504 656.095L43.1388 656.042V655.444C43.1388 654.688 42.9747 654.132 42.6466 653.774C42.3243 653.411 41.8058 653.229 41.0909 653.229C40.2882 653.229 39.38 653.476 38.3663 653.968L37.9181 652.852C38.3927 652.594 38.9113 652.392 39.4738 652.245C40.0421 652.099 40.6105 652.025 41.1788 652.025C42.3273 652.025 43.1769 652.28 43.7277 652.79C44.2843 653.3 44.5626 654.117 44.5626 655.242V661.816H43.4816ZM40.1857 660.788C41.0939 660.788 41.8058 660.539 42.3214 660.041C42.8429 659.543 43.1036 658.846 43.1036 657.949V657.079L41.6446 657.141C40.4845 657.182 39.6466 657.363 39.131 657.686C38.6212 658.002 38.3663 658.497 38.3663 659.171C38.3663 659.698 38.5245 660.1 38.8409 660.375C39.1632 660.65 39.6114 660.788 40.1857 660.788ZM54.1691 661.816V655.585C54.1691 654.8 53.9904 654.214 53.6329 653.827C53.2755 653.44 52.7159 653.247 51.9542 653.247C50.9464 653.247 50.2081 653.52 49.7394 654.064C49.2706 654.609 49.0363 655.509 49.0363 656.763V661.816H47.5773V652.184H48.7638L49.0011 653.502H49.0714C49.3702 653.027 49.7892 652.661 50.3282 652.403C50.8673 652.14 51.4679 652.008 52.13 652.008C53.2902 652.008 54.1632 652.289 54.7491 652.852C55.3351 653.408 55.628 654.302 55.628 655.532V661.816H54.1691Z" fill="black"/>
<circle cx="44.1408" cy="833.587" r="43.6355" fill="#C4C4C4"/>
<path d="M27.6879 819.998C27.6879 818.414 28.4079 817.106 29.8479 816.074C31.2879 815.018 33.4239 814.49 36.2559 814.49C41.7279 814.49 44.4639 816.398 44.4639 820.214C44.4639 821.774 43.8159 823.07 42.5199 824.102C41.2479 825.11 39.4119 825.818 37.0119 826.226V826.298C39.9879 826.514 42.1839 827.21 43.5999 828.386C45.0159 829.562 45.7239 831.086 45.7239 832.958C45.7239 835.262 44.7879 837.086 42.9159 838.43C41.0679 839.774 38.4879 840.446 35.1759 840.446C33.8799 840.446 32.6679 840.302 31.5399 840.014C30.4359 839.726 29.4399 839.162 28.5519 838.322C27.6879 837.458 27.2559 836.438 27.2559 835.262C27.2559 834.086 27.5319 833.174 28.0839 832.526C28.6599 831.878 29.4399 831.554 30.4239 831.554C31.4079 831.554 32.1879 831.818 32.7639 832.346C33.3399 832.85 33.6279 833.462 33.6279 834.182C33.6279 834.878 33.5319 835.478 33.3399 835.982H32.2239C32.0799 836.366 32.0079 836.762 32.0079 837.17C32.0079 838.874 33.0159 839.726 35.0319 839.726C36.4479 839.726 37.4079 839.186 37.9119 838.106C38.4399 837.026 38.7039 835.466 38.7039 833.426C38.7039 831.386 38.4519 829.91 37.9479 828.998C37.4679 828.062 36.7479 827.354 35.7879 826.874C34.9239 827.066 33.8799 827.222 32.6559 827.342L32.5479 826.55C34.6599 826.334 36.0399 825.83 36.6879 825.038C37.3599 824.246 37.6959 822.842 37.6959 820.826C37.6959 818.786 37.4919 817.334 37.0839 816.47C36.6999 815.582 36.0399 815.138 35.1039 815.138C34.1679 815.138 33.4959 815.426 33.0879 816.002C32.7039 816.554 32.5119 817.082 32.5119 817.586C32.5119 818.09 32.5839 818.534 32.7279 818.918H33.7719C33.9639 819.422 34.0599 820.034 34.0599 820.754C34.0599 821.45 33.7599 822.062 33.1599 822.59C32.5599 823.094 31.7679 823.346 30.7839 823.346C29.7999 823.346 29.0319 823.034 28.4799 822.41C27.9519 821.762 27.6879 820.958 27.6879 819.998ZM51.3846 815.822L47.4246 816.326L47.3526 815.606L55.4886 814.49H58.4046V839.402H61.2126V840.086H47.6046V839.402H51.3846V815.822Z" fill="black"/>
<path d="M31.089 862.472C30.5382 862.472 30.1046 862.393 29.7882 862.234V860.96C30.2042 861.077 30.6378 861.136 31.089 861.136C31.6691 861.136 32.1085 860.96 32.4073 860.608C32.712 860.257 32.8644 859.75 32.8644 859.088V846.238H34.3585V858.965C34.3585 860.078 34.0773 860.939 33.5148 861.549C32.9523 862.164 32.1437 862.472 31.089 862.472ZM43.4816 859.088L43.1915 857.717H43.1212C42.6407 858.32 42.1603 858.73 41.6798 858.947C41.2052 859.158 40.6105 859.264 39.8956 859.264C38.9405 859.264 38.1905 859.018 37.6456 858.525C37.1066 858.033 36.837 857.333 36.837 856.425C36.837 854.479 38.3927 853.46 41.504 853.366L43.1388 853.313V852.716C43.1388 851.96 42.9747 851.403 42.6466 851.046C42.3243 850.683 41.8058 850.501 41.0909 850.501C40.2882 850.501 39.38 850.747 38.3663 851.239L37.9181 850.123C38.3927 849.865 38.9113 849.663 39.4738 849.517C40.0421 849.37 40.6105 849.297 41.1788 849.297C42.3273 849.297 43.1769 849.552 43.7277 850.062C44.2843 850.571 44.5626 851.389 44.5626 852.514V859.088H43.4816ZM40.1857 858.06C41.0939 858.06 41.8058 857.811 42.3214 857.312C42.8429 856.814 43.1036 856.117 43.1036 855.221V854.351L41.6446 854.412C40.4845 854.453 39.6466 854.635 39.131 854.957C38.6212 855.273 38.3663 855.769 38.3663 856.442C38.3663 856.97 38.5245 857.371 38.8409 857.646C39.1632 857.922 39.6114 858.06 40.1857 858.06ZM54.1691 859.088V852.856C54.1691 852.071 53.9904 851.485 53.6329 851.099C53.2755 850.712 52.7159 850.519 51.9542 850.519C50.9464 850.519 50.2081 850.791 49.7394 851.336C49.2706 851.881 49.0363 852.78 49.0363 854.034V859.088H47.5773V849.455H48.7638L49.0011 850.773H49.0714C49.3702 850.299 49.7892 849.933 50.3282 849.675C50.8673 849.411 51.4679 849.279 52.13 849.279C53.2902 849.279 54.1632 849.561 54.7491 850.123C55.3351 850.68 55.628 851.573 55.628 852.804V859.088H54.1691Z" fill="black"/>
</svg>
