<svg width="478" height="167" viewBox="0 0 478 167" fill="none" xmlns="http://www.w3.org/2000/svg">
<path d="M289.661 149.148C289.661 149.148 280.407 138.708 285.891 128.895C279.664 135.57 275.894 145.155 280.236 154.169C286.405 167.063 312.11 169.973 335.416 161.187C317.994 165.979 299.143 160.502 289.661 149.148Z" fill="#009444"/>
<path d="M357.637 134.258C357.637 134.2 357.637 134.2 357.637 134.2C360.493 111.436 346.384 106.644 334.388 105.674C333.988 105.617 333.531 105.617 333.131 105.56C331.189 105.446 329.304 105.389 327.59 105.389H302.228C301.599 105.389 301.028 105.389 300.514 105.332H298.172C292.974 105.332 288.69 101.053 288.69 95.8608C288.69 92.8941 290.061 90.2696 292.231 88.501C278.179 95.8608 278.35 110.067 278.35 110.067C278.35 118.226 282.749 122.961 287.604 125.3C295.373 128.096 302.799 127.696 304.97 127.696H330.047H333.645C349.068 127.696 350.953 138.879 350.953 138.879C350.953 138.879 350.953 138.993 351.011 139.221C351.125 140.933 351.239 148.407 344.67 155.196C351.468 149.662 354.724 143.785 356.209 139.621C365.177 139.906 375.402 138.308 385.113 134.657C375.916 137.281 366.148 136.882 357.637 134.258Z" fill="#009444"/>
<path d="M377.458 78.9161H352.096C351.468 78.9161 350.896 78.9161 350.382 78.859H348.04C347.355 78.859 346.669 78.802 346.041 78.6308C349.354 74.4089 351.239 69.3882 351.239 64.0823C351.239 64.0252 351.239 63.9111 351.239 63.8541C355.409 65.1093 359.922 65.8509 364.663 65.8509C384.77 65.8509 401.107 53.1852 401.107 37.6097C401.107 22.0342 384.77 9.36841 364.663 9.36841C344.556 9.36841 328.219 22.0342 328.219 37.6097C328.219 37.6667 328.219 37.7808 328.219 37.8379C324.049 36.5827 319.536 35.841 314.795 35.841C294.687 35.841 278.35 48.5068 278.35 64.0823C278.35 79.6578 294.687 92.3236 314.795 92.3236C319.936 92.3236 324.848 91.4678 329.247 89.9844C330.846 94.3204 334.045 97.1731 337.472 98.8276C337.415 98.8276 337.53 98.8276 337.472 98.8276C345.241 101.623 352.667 101.224 354.838 101.224H383.513C398.937 101.224 400.822 112.406 400.822 112.406C400.822 112.406 401.964 121.021 394.538 128.78C406.819 118.91 407.505 107.671 407.505 107.671C410.932 80.3995 389.911 78.9161 377.458 78.9161ZM364.606 11.08C371.746 11.08 377.516 22.947 377.516 37.6667C377.516 52.3294 371.746 64.2535 364.606 64.2535C357.465 64.2535 351.696 52.3864 351.696 37.6667C351.696 23.0041 357.465 11.08 364.606 11.08ZM314.795 90.7261C307.654 90.7261 301.885 78.859 301.885 64.1394C301.885 49.4767 307.654 37.5526 314.795 37.5526C321.935 37.5526 327.704 49.4197 327.704 64.1394C327.704 78.802 321.935 90.7261 314.795 90.7261Z" fill="#009444"/>
<path d="M21.755 37.2102H0.219727V109.725H21.755V37.2102Z" fill="#009444"/>
<path d="M48.5456 37.4385H41.1767C34.5505 37.4385 28.724 40.6906 25.1252 45.7112C27.353 43.1438 30.6662 41.4893 34.322 41.4893C41.0054 41.4893 46.432 46.9093 46.432 53.5846V109.953H68.2529V57.1218C68.2529 46.2247 59.3989 37.4385 48.5456 37.4385Z" fill="#009444"/>
<path d="M94.8722 37.3244H87.5034C80.8772 37.3244 75.0506 40.5765 71.4519 45.5971C73.6797 43.0297 76.9928 41.3752 80.6487 41.3752C87.332 41.3752 92.7587 46.7952 92.7587 53.4705V109.896H114.58V57.0077C114.58 46.1106 105.726 37.3244 94.8722 37.3244Z" fill="#009444"/>
<path d="M222.027 37.2102H200.492V109.725H222.027V37.2102Z" fill="#009444"/>
<path d="M248.818 37.4385H241.449C234.823 37.4385 228.996 40.6906 225.398 45.7112C227.625 43.1438 230.939 41.4893 234.594 41.4893C241.278 41.4893 246.704 46.9093 246.704 53.5846V109.953H268.525V57.1218C268.468 46.2247 259.671 37.4385 248.818 37.4385Z" fill="#009444"/>
<path d="M142.627 63.7969C149.41 63.7969 154.908 58.305 154.908 51.5304C154.908 44.7559 149.41 39.264 142.627 39.264C135.844 39.264 130.346 44.7559 130.346 51.5304C130.346 58.305 135.844 63.7969 142.627 63.7969Z" fill="#009444"/>
<path d="M149.196 107.1C147.539 104.818 146.74 100.482 146.74 93.978C146.74 87.3598 147.711 81.8828 149.596 77.4897C151.081 74.1235 152.909 71.8985 155.194 70.7003C153.423 70.7574 151.538 70.8715 149.596 71.0427C145.197 71.385 141.085 72.1837 137.2 73.4959C133.316 74.8082 130.06 76.805 127.432 79.5436C124.805 82.2251 123.434 85.9335 123.434 90.5548C123.434 96.3172 125.604 100.938 130.003 104.419C134.401 107.956 140.856 109.668 149.482 109.668C150.224 109.668 150.967 109.611 151.709 109.554C150.853 109.04 149.996 108.184 149.196 107.1Z" fill="#009444"/>
<path d="M189.239 93.8068V66.4213C189.239 62.1423 188.496 58.2057 186.954 54.6684C185.469 51.1311 183.184 48.0502 180.214 45.4258C177.243 42.8013 173.587 40.8045 169.303 39.3211C165.019 37.8377 160.106 37.1531 154.508 37.1531C151.309 37.1531 148.396 37.3813 145.883 37.8377C146.283 37.7807 146.683 37.7807 147.14 37.7807H150.167C154.28 37.7807 158.05 39.4923 160.735 42.1737C161.706 42.9154 162.563 43.8853 163.305 45.0835C164.562 47.0803 165.59 49.8189 166.276 53.242C166.961 56.6652 167.304 61.0583 167.304 66.4213V69.3881V70.415V92.894L167.418 108.298L189.239 108.355V93.8068Z" fill="#009444"/>
<path d="M431.154 63.7969C437.937 63.7969 443.435 58.305 443.435 51.5304C443.435 44.7559 437.937 39.264 431.154 39.264C424.371 39.264 418.873 44.7559 418.873 51.5304C418.873 58.305 424.371 63.7969 431.154 63.7969Z" fill="#009444"/>
<path d="M437.723 107.1C436.067 104.818 435.267 100.482 435.267 93.978C435.267 87.3598 436.238 81.8828 438.123 77.4897C439.608 74.1235 441.436 71.8985 443.721 70.7003C441.95 70.7574 440.065 70.8715 438.123 71.0427C433.724 71.385 429.612 72.1837 425.727 73.4959C421.843 74.8082 418.587 76.805 415.959 79.5436C413.332 82.2251 411.961 85.9335 411.961 90.5548C411.961 96.3172 414.131 100.938 418.53 104.419C422.928 107.956 429.383 109.668 438.009 109.668C438.751 109.668 439.494 109.611 440.236 109.554C439.38 109.04 438.523 108.184 437.723 107.1Z" fill="#009444"/>
<path d="M477.709 93.8068V66.4213C477.709 62.1423 476.966 58.2057 475.424 54.6684C473.939 51.1311 471.654 48.0502 468.684 45.4258C465.713 42.8013 462.057 40.8045 457.773 39.3211C453.489 37.8377 448.576 37.1531 442.978 37.1531C439.779 37.1531 436.866 37.3813 434.353 37.8377C434.753 37.7807 435.153 37.7807 435.609 37.7807H438.637C442.75 37.7807 446.52 39.4923 449.205 42.1737C450.176 42.9154 451.033 43.8853 451.775 45.0835C453.032 47.0803 454.06 49.8189 454.746 53.242C455.431 56.6652 455.774 61.0583 455.774 66.4213V69.3881V70.415V92.894L455.888 108.298L477.709 108.355V93.8068Z" fill="#009444"/>
<path d="M403.621 4.3477C404.306 7.48562 407.962 9.8248 407.962 9.8248C411.96 12.7345 412.303 15.8724 411.618 18.2116C410.475 22.3194 405.391 23.9169 401.45 21.4066C401.393 21.3495 401.336 21.3495 401.279 21.2925C396.366 18.1545 394.424 11.8217 396.137 5.08939C397.965 -1.58582 402.935 1.15273 403.621 4.3477Z" fill="#FECB00"/>
<path d="M6.21762 132.49H4.21832V137.853C3.70422 137.968 3.01874 138.025 2.21902 138.025C1.4193 138.025 0.733832 137.968 0.219727 137.853V120.852L0.391095 120.681C1.87629 120.623 3.07587 120.623 4.04695 120.623C5.01804 120.623 5.76064 120.623 6.27474 120.623C7.1887 120.623 8.04555 120.738 8.78814 121.023C9.53074 121.251 10.2162 121.65 10.7303 122.164C11.2444 122.677 11.7014 123.305 11.987 124.047C12.2726 124.788 12.444 125.644 12.444 126.614C12.444 127.584 12.2726 128.44 11.987 129.181C11.7014 129.923 11.2444 130.551 10.7303 131.064C10.2162 131.578 9.53074 131.92 8.78814 132.205C7.9313 132.376 7.13158 132.49 6.21762 132.49ZM4.21832 123.647V129.524C4.6753 129.524 5.07516 129.467 5.36078 129.467C5.64639 129.467 5.81776 129.467 5.932 129.467C6.38899 129.467 6.78885 129.41 7.07446 129.238C7.36007 129.067 7.64569 128.896 7.81706 128.611C7.98842 128.326 8.15979 128.04 8.21691 127.698C8.27404 127.356 8.33116 126.956 8.33116 126.614C8.33116 126.272 8.27404 125.872 8.21691 125.53C8.15979 125.188 7.98842 124.845 7.81706 124.617C7.64569 124.332 7.4172 124.161 7.13158 123.99C6.84597 123.818 6.50323 123.761 6.10337 123.761C5.70351 123.761 5.36078 123.761 5.07516 123.761C4.73243 123.647 4.44681 123.647 4.21832 123.647Z" fill="black"/>
<path d="M21.3548 132.831V134.657C22.0974 134.6 22.7257 134.6 23.1827 134.6H29.0092C29.0092 135.228 29.0092 135.684 28.9521 136.026C28.7236 137.338 27.9239 137.966 26.3816 137.966H19.6982C18.9556 137.966 18.3844 137.738 17.9846 137.338C17.5847 136.939 17.3562 136.369 17.3562 135.627V120.907L17.5276 120.736H28.3809C28.4951 121.25 28.5523 121.763 28.5523 122.334C28.5523 122.904 28.438 123.475 28.2095 124.102H21.3548V125.928V127.697C21.8118 127.697 22.383 127.697 23.0685 127.697H26.8957C27.0671 128.153 27.1242 128.723 27.1242 129.294C27.1242 129.922 27.0671 130.435 26.8957 130.949H21.3548V132.831Z" fill="black"/>
<path d="M40.6627 124.045V125.871V137.852C40.0915 137.966 39.406 138.023 38.6634 138.023C37.8637 138.023 37.2353 137.966 36.6641 137.852V124.045H35.0646H32.4941C32.3799 123.532 32.3228 123.018 32.3228 122.391C32.3228 121.763 32.3799 121.192 32.4941 120.736H44.8898C45.004 121.192 45.1183 121.706 45.1183 122.334C45.1183 122.961 44.9469 123.418 44.6042 123.703C44.2614 123.988 43.7473 124.102 43.0047 124.102H42.2621L40.6627 124.045Z" fill="black"/>
<path d="M61.7409 126.042C61.7409 126.612 61.6837 127.126 61.5124 127.639C61.341 128.153 61.1125 128.552 60.8269 128.952C60.5413 129.351 60.1986 129.693 59.8558 129.979C59.456 130.264 59.1132 130.492 58.7134 130.663C59.5702 131.006 60.2557 131.747 60.6555 132.945L61.3981 135.056C61.6837 135.912 62.0836 136.54 62.6548 136.939C62.4263 137.281 62.0265 137.567 61.5124 137.795C60.9983 138.023 60.4842 138.137 59.8558 138.137C59.2275 138.137 58.7705 137.966 58.4278 137.624C58.085 137.281 57.7994 136.654 57.5138 135.855L56.5998 133.231C56.4285 132.717 56.1428 132.318 55.8572 132.09C55.5716 131.804 55.0575 131.69 54.4863 131.69H53.4581V137.966C52.944 138.08 52.2585 138.137 51.4588 138.137C50.6591 138.137 49.9736 138.08 49.4595 137.966V120.964L49.6308 120.793C51.116 120.736 52.3156 120.736 53.2867 120.736C54.2578 120.736 55.0575 120.736 55.6287 120.736C56.5427 120.736 57.3995 120.85 58.1421 121.078C58.8847 121.307 59.5131 121.649 60.0843 122.105C60.6555 122.562 60.9983 123.132 61.341 123.817C61.5695 124.33 61.7409 125.129 61.7409 126.042ZM53.4009 123.589V128.552C54.1435 128.552 54.7719 128.552 55.3431 128.495C55.8572 128.495 56.3142 128.381 56.6569 128.21C56.9997 128.039 57.2282 127.811 57.3995 127.468C57.5709 127.126 57.628 126.67 57.628 126.099C57.628 124.444 56.8283 123.646 55.286 123.646C54.8861 123.646 54.5434 123.646 54.2578 123.646C53.9151 123.589 53.6294 123.589 53.4009 123.589Z" fill="black"/>
<path d="M68.5959 136.654C66.8251 135.17 65.9111 132.717 65.9111 129.294C65.9111 127.81 66.0825 126.555 66.4252 125.414C66.768 124.273 67.2821 123.36 67.9104 122.619C68.5388 121.877 69.3385 121.306 70.2525 120.907C71.1664 120.508 72.1946 120.337 73.3942 120.337C74.5938 120.337 75.622 120.508 76.536 120.907C77.4499 121.306 78.2496 121.877 78.878 122.619C79.5063 123.36 80.0205 124.33 80.3632 125.414C80.7059 126.555 80.8773 127.81 80.8773 129.294C80.8773 130.777 80.7059 132.032 80.3632 133.173C80.0205 134.315 79.5063 135.227 78.878 135.969C78.2496 136.711 77.4499 137.281 76.536 137.681C75.622 138.08 74.5367 138.251 73.3942 138.251C71.452 138.251 69.9097 137.738 68.5959 136.654ZM70.6523 133.231C71.1093 134.543 72.0233 135.17 73.3942 135.17C74.0797 135.17 74.6509 134.999 75.0508 134.657C75.4506 134.315 75.7934 133.858 76.079 133.345C76.3075 132.831 76.4788 132.204 76.5931 131.576C76.6502 130.948 76.7073 130.264 76.7073 129.636C76.7073 129.066 76.7073 128.381 76.6502 127.696C76.5931 126.955 76.4788 126.327 76.3075 125.7C76.079 125.072 75.7934 124.558 75.3364 124.102C74.8794 123.703 74.2511 123.474 73.4513 123.474C72.6516 123.474 72.0233 123.703 71.6234 124.102C71.2236 124.501 70.8808 125.015 70.6523 125.642C70.4238 126.27 70.3096 126.898 70.2525 127.582C70.1953 128.267 70.1953 128.837 70.1953 129.351C70.1953 130.093 70.2525 130.834 70.3096 131.405C70.3096 131.975 70.4238 132.546 70.6523 133.231Z" fill="black"/>
<path d="M99.6133 136.882C99.0421 137.681 98.1281 138.08 96.9285 138.08C96.243 138.08 95.7289 137.909 95.3862 137.567C95.0435 137.224 94.7579 136.597 94.4722 135.798L93.5012 132.888C93.2727 132.09 92.9299 131.519 92.5872 131.234C92.2445 130.891 91.7303 130.72 91.1591 130.72C90.9306 130.72 90.5879 130.72 90.0738 130.777V137.909C89.5597 138.023 88.8742 138.08 88.0745 138.08C87.2748 138.08 86.5893 138.023 86.0752 137.909V120.736C86.5893 120.622 87.2748 120.565 88.0745 120.565C88.8742 120.565 89.5597 120.622 90.0738 120.736V127.354H90.7593C91.0449 127.354 91.2734 127.297 91.4447 127.183C91.559 127.069 91.7303 126.841 91.9017 126.498L94.3009 121.991C94.5294 121.478 94.815 121.135 95.1006 120.907C95.3862 120.679 95.8432 120.565 96.4144 120.565C97.0999 120.565 97.8425 120.622 98.7564 120.679L98.9849 120.964L95.9003 126.727C95.5004 127.468 95.0435 128.096 94.4722 128.552C95.272 128.723 95.8432 129.066 96.243 129.522C96.6429 129.979 96.9856 130.606 97.2141 131.405L98.2423 134.543C98.3566 134.942 98.4708 135.227 98.528 135.399C98.5851 135.57 98.7564 135.912 99.0421 136.311C99.2134 136.483 99.3848 136.654 99.6133 136.882Z" fill="black"/>
<path d="M104.126 137.852V120.679C104.64 120.565 105.326 120.508 106.125 120.508C106.925 120.508 107.61 120.565 108.182 120.679V137.852C107.668 137.966 106.982 138.023 106.125 138.023C105.326 138.023 104.64 137.966 104.126 137.852Z" fill="black"/>
<path d="M113.894 137.852L115.208 120.793C115.95 120.679 116.807 120.565 117.836 120.565C118.864 120.565 119.721 120.622 120.463 120.793L121.948 126.955C122.52 129.75 122.862 131.234 122.862 131.519H123.034C123.091 131.12 123.434 129.579 123.948 126.955L125.433 120.793C126.175 120.679 127.032 120.565 128.06 120.565C129.089 120.565 129.946 120.622 130.688 120.793L132.002 137.852C131.488 137.966 130.859 138.08 130.06 138.08C129.317 138.08 128.689 138.023 128.175 137.966L127.775 131.006C127.661 128.21 127.603 126.27 127.546 125.186H127.375L124.862 135.399C124.233 135.513 123.548 135.57 122.805 135.57C122.005 135.57 121.32 135.513 120.749 135.399L118.292 125.186H118.121C118.121 126.669 118.064 128.609 117.893 131.006L117.493 137.966C116.979 138.023 116.407 138.08 115.608 138.08C115.036 138.023 114.408 137.966 113.894 137.852Z" fill="black"/>
<path d="M137.829 137.852V120.679C138.343 120.565 139.028 120.508 139.828 120.508C140.628 120.508 141.313 120.565 141.884 120.679V137.852C141.37 137.966 140.685 138.023 139.828 138.023C138.971 138.023 138.343 137.966 137.829 137.852Z" fill="black"/>
<path d="M152.281 134.315C151.824 134.315 151.481 134.315 151.252 134.315L150.167 137.966C149.767 138.08 149.196 138.137 148.511 138.137C147.711 138.137 147.025 138.023 146.568 137.852L146.454 137.624L151.995 120.793C152.623 120.679 153.423 120.622 154.28 120.622C155.251 120.622 156.051 120.679 156.622 120.793L162.049 137.681C161.477 138.023 160.792 138.137 160.049 138.137C159.192 138.137 158.564 137.966 158.221 137.681C157.879 137.395 157.593 136.825 157.307 135.969L156.85 134.315C156.622 134.315 156.279 134.315 155.879 134.315H152.281ZM152.224 131.12H153.252H155.08C155.137 131.12 155.308 131.12 155.537 131.12C155.765 131.12 155.879 131.12 155.994 131.12L155.594 129.579C155.194 128.153 154.737 126.441 154.223 124.387H154.051C153.937 125.129 153.537 126.726 152.852 129.18L152.224 131.12Z" fill="black"/>
<path d="M181.07 128.153H185.012C186.783 128.153 187.697 129.009 187.697 130.663V137.281C185.526 137.966 183.241 138.308 180.899 138.308C179.7 138.308 178.614 138.08 177.7 137.681C176.786 137.281 175.987 136.711 175.358 135.969C174.73 135.227 174.273 134.315 173.93 133.173C173.587 132.089 173.473 130.834 173.473 129.465C173.473 127.925 173.702 126.612 174.159 125.471C174.616 124.33 175.187 123.417 175.929 122.619C176.672 121.877 177.529 121.306 178.5 120.907C179.471 120.508 180.499 120.337 181.527 120.337C183.698 120.337 185.755 120.964 187.64 122.162C187.64 122.448 187.582 122.676 187.468 122.961C187.354 123.246 187.24 123.532 187.068 123.76C186.897 124.045 186.726 124.273 186.497 124.444C186.269 124.673 186.097 124.844 185.869 124.958C184.498 124.045 183.07 123.589 181.642 123.589C178.9 123.589 177.529 125.471 177.529 129.294C177.529 133.116 178.9 134.999 181.699 134.999C182.099 134.999 182.441 134.999 182.841 134.942C183.184 134.885 183.584 134.885 183.927 134.771V133.116C183.927 132.717 183.927 132.375 183.927 132.089C183.927 131.804 183.927 131.576 183.984 131.348H182.727C181.984 131.348 181.527 131.234 181.242 130.948C180.956 130.663 180.842 130.264 180.842 129.636C180.785 129.294 180.899 128.723 181.07 128.153Z" fill="black"/>
<path d="M205.576 126.042C205.576 126.612 205.519 127.126 205.347 127.639C205.176 128.153 204.947 128.552 204.662 128.952C204.376 129.351 204.034 129.693 203.691 129.979C203.291 130.264 202.948 130.492 202.548 130.663C203.405 131.006 204.091 131.747 204.49 132.945L205.233 135.056C205.519 135.912 205.919 136.54 206.49 136.939C206.261 137.281 205.861 137.567 205.347 137.795C204.833 138.023 204.319 138.137 203.691 138.137C203.062 138.137 202.605 137.966 202.263 137.624C201.92 137.281 201.634 136.654 201.349 135.855L200.435 133.231C200.263 132.717 199.978 132.318 199.692 132.09C199.407 131.804 198.892 131.69 198.321 131.69H197.293V137.966C196.779 138.08 196.093 138.137 195.294 138.137C194.494 138.137 193.809 138.08 193.294 137.966V120.964L193.466 120.793C194.951 120.736 196.151 120.736 197.122 120.736C198.093 120.736 198.892 120.736 199.464 120.736C200.378 120.736 201.235 120.85 201.977 121.078C202.72 121.307 203.348 121.649 203.919 122.105C204.49 122.562 204.833 123.132 205.176 123.817C205.462 124.33 205.576 125.129 205.576 126.042ZM197.293 123.589V128.552C198.036 128.552 198.664 128.552 199.235 128.495C199.749 128.495 200.206 128.381 200.549 128.21C200.892 128.039 201.12 127.811 201.292 127.468C201.463 127.126 201.52 126.67 201.52 126.099C201.52 124.444 200.72 123.646 199.178 123.646C198.778 123.646 198.435 123.646 198.15 123.646C197.75 123.589 197.522 123.589 197.293 123.589Z" fill="black"/>
<path d="M215.116 132.831V134.657C215.858 134.6 216.487 134.6 216.944 134.6H222.77C222.77 135.228 222.77 135.684 222.713 136.026C222.485 137.338 221.685 137.966 220.143 137.966H213.459C212.717 137.966 212.145 137.738 211.746 137.338C211.346 136.939 211.117 136.369 211.117 135.627V120.907L211.289 120.736H222.142C222.256 121.25 222.313 121.763 222.313 122.334C222.313 122.904 222.199 123.475 221.971 124.102H215.116V125.928V127.697C215.573 127.697 216.144 127.697 216.829 127.697H220.657C220.828 128.153 220.885 128.723 220.885 129.294C220.885 129.922 220.828 130.435 220.657 130.949H215.116V132.831Z" fill="black"/>
<path d="M226.369 136.368C226.426 135.798 226.597 135.284 226.883 134.714C227.168 134.143 227.511 133.687 227.911 133.345C229.682 134.429 231.395 134.999 232.995 134.999C233.68 134.999 234.194 134.828 234.537 134.543C234.88 134.2 235.051 133.858 235.051 133.345C235.051 132.546 234.537 131.918 233.452 131.462L230.481 130.207C229.339 129.693 228.425 129.066 227.797 128.324C227.168 127.582 226.883 126.669 226.883 125.528C226.883 124.787 227.054 124.045 227.34 123.417C227.625 122.79 228.082 122.219 228.654 121.763C229.225 121.306 229.853 120.907 230.653 120.679C231.395 120.394 232.252 120.28 233.223 120.28C235.108 120.28 236.993 120.736 238.879 121.706C238.821 123.018 238.364 123.988 237.508 124.73C235.794 123.931 234.309 123.474 232.995 123.474C232.309 123.474 231.795 123.646 231.51 123.931C231.167 124.216 230.996 124.558 230.996 124.958C230.996 125.585 231.51 126.156 232.481 126.555L235.508 127.811C236.765 128.324 237.736 129.009 238.364 129.864C238.993 130.72 239.278 131.69 239.278 132.774C239.278 133.573 239.164 134.258 238.879 134.942C238.593 135.57 238.193 136.14 237.622 136.654C237.051 137.11 236.365 137.51 235.508 137.795C234.651 138.08 233.68 138.194 232.595 138.194C230.424 138.251 228.368 137.624 226.369 136.368Z" fill="black"/>
<path d="M244.362 137.852V120.679C244.876 120.565 245.562 120.508 246.362 120.508C247.161 120.508 247.847 120.565 248.418 120.679V137.852C247.904 137.966 247.218 138.023 246.362 138.023C245.505 138.023 244.876 137.966 244.362 137.852Z" fill="black"/>
<path d="M268.183 136.882C267.611 137.681 266.697 138.08 265.498 138.08C264.812 138.08 264.298 137.909 263.956 137.567C263.613 137.224 263.327 136.597 263.042 135.798L262.07 132.888C261.842 132.09 261.499 131.519 261.157 131.234C260.814 130.891 260.3 130.72 259.728 130.72C259.5 130.72 259.157 130.72 258.643 130.777V137.909C258.129 138.023 257.444 138.08 256.644 138.08C255.844 138.08 255.159 138.023 254.645 137.909V120.736C255.159 120.622 255.844 120.565 256.644 120.565C257.444 120.565 258.129 120.622 258.643 120.736V127.354H259.329C259.614 127.354 259.843 127.297 260.014 127.183C260.185 127.069 260.3 126.841 260.471 126.498L262.87 121.991C263.099 121.478 263.384 121.135 263.67 120.907C263.956 120.679 264.413 120.565 264.984 120.565C265.669 120.565 266.412 120.622 267.326 120.679L267.554 120.964L264.47 126.727C264.07 127.468 263.613 128.096 263.042 128.552C263.841 128.723 264.413 129.066 264.812 129.522C265.212 129.979 265.555 130.606 265.783 131.405L266.812 134.543C266.926 134.942 267.04 135.227 267.097 135.399C267.154 135.57 267.326 135.912 267.611 136.311C267.783 136.483 267.954 136.654 268.183 136.882Z" fill="black"/>
<path d="M3.47572 155.369V146.354H0.219727V144.7H8.55965V146.354H5.30365V155.369H3.47572Z" fill="black"/>
<path d="M16.2712 155.367V154.34C15.6999 154.968 14.7289 155.538 13.5293 155.538C11.8727 155.538 11.073 154.683 11.073 153.085V147.608H12.7296V152.458C12.7296 153.656 13.3579 153.998 14.2719 153.998C15.1287 153.998 15.8713 153.542 16.2712 152.971V147.551H17.9277V155.253H16.2712V155.367Z" fill="black"/>
<path d="M31.6945 155.367V150.347C31.6945 149.491 31.3518 148.977 30.4378 148.977C29.6953 148.977 29.0098 149.491 28.667 150.004V155.424H27.0105V150.404C27.0105 149.548 26.6677 149.034 25.7538 149.034C25.0112 149.034 24.3257 149.548 23.983 150.061V155.424H22.3264V147.722H23.983V148.749C24.3257 148.293 25.3539 147.494 26.4964 147.494C27.6388 147.494 28.3243 148.065 28.6099 148.92C29.0669 148.236 30.0951 147.494 31.2376 147.494C32.6656 147.494 33.4654 148.236 33.4654 149.833V155.424H31.6945V155.367Z" fill="black"/>
<path d="M37.6926 155.367V144.698H39.3492V148.692C39.9775 147.893 40.8344 147.437 41.8055 147.437C43.8048 147.437 45.2328 148.977 45.2328 151.488C45.2328 154.055 43.8048 155.538 41.8055 155.538C40.7773 155.538 39.9204 155.082 39.3492 154.283V155.31H37.6926V155.367ZM41.3485 154.055C42.7194 154.055 43.5192 153.028 43.5192 151.488C43.5192 149.947 42.6623 148.92 41.3485 148.92C40.5488 148.92 39.749 149.377 39.3492 149.947V152.971C39.749 153.599 40.6059 154.055 41.3485 154.055Z" fill="black"/>
<path d="M54.372 155.367V154.34C53.8008 154.968 52.8297 155.538 51.6301 155.538C49.9735 155.538 49.1738 154.683 49.1738 153.085V147.608H50.8304V152.458C50.8304 153.656 51.4587 153.998 52.3727 153.998C53.2295 153.998 53.9721 153.542 54.372 152.971V147.551H56.0286V155.253H54.372V155.367Z" fill="black"/>
<path d="M65.5683 155.367V150.518C65.5683 149.32 64.9399 148.977 64.026 148.977C63.1691 148.977 62.4265 149.491 62.0267 150.004V155.367H60.3701V144.698H62.0267V148.692C62.5408 148.065 63.569 147.437 64.7686 147.437C66.4251 147.437 67.282 148.293 67.282 149.89V155.367H65.5683Z" fill="black"/>
<path d="M77.9065 155.367V144.698H81.848C85.1611 144.698 87.446 146.923 87.446 150.061C87.446 153.199 85.2182 155.367 81.848 155.367H77.9065ZM85.5038 150.061C85.5038 148.007 84.2471 146.353 81.848 146.353H79.7344V153.713H81.848C84.19 153.713 85.5038 152.058 85.5038 150.061Z" fill="black"/>
<path d="M96.0715 155.367V154.512C95.5002 155.139 94.5863 155.538 93.5581 155.538C92.3014 155.538 90.8733 154.683 90.8733 152.971C90.8733 151.202 92.3014 150.461 93.5581 150.461C94.5863 150.461 95.5002 150.803 96.0715 151.431V150.29C96.0715 149.377 95.3289 148.863 94.2435 148.863C93.3867 148.863 92.6441 149.206 91.9586 149.833L91.2731 148.692C92.1871 147.836 93.2725 147.437 94.5292 147.437C96.2428 147.437 97.728 148.179 97.728 150.233V155.367H96.0715ZM96.0715 153.599V152.458C95.6716 151.944 94.9861 151.659 94.2435 151.659C93.2725 151.659 92.587 152.229 92.587 153.028C92.587 153.884 93.2725 154.397 94.2435 154.397C94.929 154.397 95.6716 154.112 96.0715 153.599Z" fill="black"/>
<path d="M107.268 155.367V150.518C107.268 149.32 106.64 148.92 105.726 148.92C104.869 148.92 104.126 149.434 103.726 149.947V155.31H102.07V147.608H103.726V148.635C104.24 148.007 105.212 147.38 106.468 147.38C108.125 147.38 108.982 148.293 108.982 149.833V155.253H107.268V155.367Z" fill="black"/>
<path d="M119.549 155.367V144.698H124.805C126.747 144.698 127.832 145.897 127.832 147.437C127.832 148.806 126.975 149.662 126.004 149.89C127.147 150.061 128.061 151.202 128.061 152.515C128.061 154.169 126.975 155.367 124.976 155.367H119.549ZM125.947 147.722C125.947 146.923 125.376 146.353 124.462 146.353H121.491V149.092H124.462C125.376 149.092 125.947 148.521 125.947 147.722ZM126.118 152.229C126.118 151.431 125.547 150.746 124.462 150.746H121.377V153.713H124.462C125.547 153.713 126.118 153.142 126.118 152.229Z" fill="black"/>
<path d="M131.545 151.488C131.545 149.263 133.202 147.437 135.487 147.437C137.829 147.437 139.314 149.206 139.314 151.659V152.058H133.316C133.43 153.199 134.344 154.169 135.772 154.169C136.515 154.169 137.429 153.884 137.943 153.313L138.686 154.397C137.943 155.139 136.8 155.538 135.544 155.538C133.259 155.538 131.545 153.941 131.545 151.488ZM135.487 148.806C134.059 148.806 133.373 149.89 133.316 150.86H137.657C137.6 149.947 136.972 148.806 135.487 148.806Z" fill="black"/>
<path d="M143.084 155.367V147.665H144.74V148.806C145.312 148.065 146.225 147.494 147.254 147.494V149.149C147.082 149.092 146.911 149.091 146.74 149.091C146.054 149.091 145.083 149.548 144.74 150.118V155.367H143.084Z" fill="black"/>
<path d="M148.054 157.935L148.568 156.68C148.853 156.908 149.139 157.136 149.653 157.136C150.282 157.136 150.796 156.737 150.796 155.824V147.665H152.452V155.824C152.452 157.478 151.595 158.505 149.882 158.505C149.025 158.505 148.625 158.334 148.054 157.935ZM150.567 145.668C150.567 145.098 151.024 144.641 151.595 144.641C152.167 144.641 152.624 145.098 152.624 145.668C152.624 146.239 152.167 146.695 151.595 146.695C151.024 146.695 150.567 146.239 150.567 145.668Z" fill="black"/>
<path d="M161.477 155.367V154.512C160.906 155.139 159.992 155.538 158.964 155.538C157.707 155.538 156.279 154.683 156.279 152.971C156.279 151.202 157.707 150.461 158.964 150.461C159.992 150.461 160.906 150.803 161.477 151.431V150.29C161.477 149.377 160.734 148.863 159.649 148.863C158.792 148.863 158.05 149.206 157.364 149.833L156.679 148.692C157.593 147.836 158.678 147.437 159.935 147.437C161.648 147.437 163.134 148.179 163.134 150.233V155.367H161.477ZM161.477 153.599V152.458C161.077 151.944 160.392 151.659 159.649 151.659C158.678 151.659 157.992 152.229 157.992 153.028C157.992 153.884 158.678 154.397 159.649 154.397C160.392 154.397 161.077 154.112 161.477 153.599Z" fill="black"/>
<path d="M167.418 156.908C167.59 156.965 167.875 157.022 168.047 157.022C168.561 157.022 168.904 156.851 169.132 156.337L169.532 155.481L166.39 147.665H168.161L170.389 153.427L172.617 147.665H174.444L170.731 156.794C170.217 158.106 169.303 158.505 168.104 158.562C167.875 158.562 167.418 158.505 167.133 158.448L167.418 156.908Z" fill="black"/>
<path d="M182.384 155.367V154.512C181.813 155.139 180.899 155.538 179.871 155.538C178.614 155.538 177.186 154.683 177.186 152.971C177.186 151.202 178.614 150.461 179.871 150.461C180.899 150.461 181.813 150.803 182.384 151.431V150.29C182.384 149.377 181.642 148.863 180.556 148.863C179.699 148.863 178.957 149.206 178.271 149.833L177.586 148.692C178.5 147.836 179.585 147.437 180.842 147.437C182.556 147.437 184.041 148.179 184.041 150.233V155.367H182.384ZM182.384 153.599V152.458C181.984 151.944 181.299 151.659 180.556 151.659C179.585 151.659 178.9 152.229 178.9 153.028C178.9 153.884 179.585 154.397 180.556 154.397C181.299 154.397 181.984 154.112 182.384 153.599Z" fill="black"/>
<path d="M194.666 155.367V144.698H199.921C201.863 144.698 202.949 145.897 202.949 147.437C202.949 148.806 202.092 149.662 201.121 149.89C202.263 150.061 203.177 151.202 203.177 152.515C203.177 154.169 202.092 155.367 200.092 155.367H194.666ZM201.064 147.722C201.064 146.923 200.492 146.353 199.578 146.353H196.608V149.092H199.578C200.492 149.092 201.064 148.521 201.064 147.722ZM201.292 152.229C201.292 151.431 200.721 150.746 199.635 150.746H196.551V153.713H199.635C200.664 153.713 201.292 153.142 201.292 152.229Z" fill="black"/>
<path d="M206.661 151.488C206.661 149.263 208.318 147.437 210.603 147.437C212.945 147.437 214.43 149.206 214.43 151.659V152.058H208.489C208.604 153.199 209.518 154.169 210.946 154.169C211.688 154.169 212.602 153.884 213.116 153.313L213.859 154.397C213.116 155.139 211.974 155.538 210.717 155.538C208.375 155.538 206.661 153.941 206.661 151.488ZM210.603 148.806C209.175 148.806 208.489 149.89 208.432 150.86H212.774C212.716 149.947 212.088 148.806 210.603 148.806Z" fill="black"/>
<path d="M218.2 155.367V147.665H219.857V148.806C220.428 148.065 221.342 147.494 222.37 147.494V149.149C222.199 149.092 222.028 149.091 221.856 149.091C221.171 149.091 220.2 149.548 219.857 150.118V155.367H218.2Z" fill="black"/>
<path d="M225.226 154.34L225.969 153.142C226.54 153.713 227.568 154.226 228.596 154.226C229.625 154.226 230.139 153.77 230.139 153.199C230.139 151.659 225.455 152.743 225.455 149.833C225.455 148.578 226.54 147.494 228.482 147.494C229.796 147.494 230.767 147.95 231.51 148.578L230.824 149.776C230.367 149.263 229.51 148.863 228.539 148.863C227.682 148.863 227.111 149.263 227.111 149.833C227.111 151.202 231.795 150.175 231.795 153.256C231.795 154.626 230.653 155.653 228.596 155.653C227.225 155.538 226.026 155.139 225.226 154.34Z" fill="black"/>
<path d="M240.307 155.367V154.512C239.735 155.139 238.821 155.538 237.793 155.538C236.536 155.538 235.108 154.683 235.108 152.971C235.108 151.202 236.536 150.461 237.793 150.461C238.821 150.461 239.735 150.803 240.307 151.431V150.29C240.307 149.377 239.564 148.863 238.479 148.863C237.622 148.863 236.879 149.206 236.194 149.833L235.508 148.692C236.422 147.836 237.508 147.437 238.764 147.437C240.478 147.437 241.963 148.179 241.963 150.233V155.367H240.307ZM240.307 153.599V152.458C239.907 151.944 239.221 151.659 238.479 151.659C237.508 151.659 236.822 152.229 236.822 153.028C236.822 153.884 237.508 154.397 238.479 154.397C239.221 154.397 239.907 154.112 240.307 153.599Z" fill="black"/>
<path d="M255.787 155.367V150.347C255.787 149.491 255.444 148.977 254.53 148.977C253.788 148.977 253.102 149.491 252.76 150.004V155.424H251.103V150.404C251.103 149.548 250.76 149.034 249.846 149.034C249.104 149.034 248.418 149.548 248.076 150.061V155.424H246.419V147.722H248.076V148.749C248.418 148.293 249.446 147.494 250.589 147.494C251.731 147.494 252.417 148.065 252.702 148.92C253.159 148.236 254.188 147.494 255.33 147.494C256.758 147.494 257.558 148.236 257.558 149.833V155.424H255.787V155.367Z" fill="black"/>
<path d="M266.469 155.367V154.512C265.897 155.139 264.983 155.538 263.955 155.538C262.699 155.538 261.271 154.683 261.271 152.971C261.271 151.202 262.699 150.461 263.955 150.461C264.983 150.461 265.897 150.803 266.469 151.431V150.29C266.469 149.377 265.726 148.863 264.641 148.863C263.784 148.863 263.041 149.206 262.356 149.833L261.67 148.692C262.584 147.836 263.67 147.437 264.926 147.437C266.64 147.437 268.125 148.179 268.125 150.233V155.367H266.469ZM266.469 153.599V152.458C266.069 151.944 265.383 151.659 264.641 151.659C263.67 151.659 262.984 152.229 262.984 153.028C262.984 153.884 263.67 154.397 264.641 154.397C265.383 154.397 266.126 154.112 266.469 153.599Z" fill="black"/>
</svg>
