<svg width="1181" height="139" viewBox="0 0 1181 139" fill="none" xmlns="http://www.w3.org/2000/svg">
<path d="M49.3951 123.879C49.3951 125.18 48.9498 126.182 48.0592 126.885C47.1744 127.582 45.9058 127.931 44.2535 127.931H42.7418V132.984H41.2476V120.135H44.5787C47.7896 120.135 49.3951 121.383 49.3951 123.879ZM42.7418 126.647H44.0865C45.4107 126.647 46.3687 126.434 46.9605 126.006C47.5523 125.578 47.8482 124.893 47.8482 123.949C47.8482 123.1 47.5699 122.467 47.0133 122.051C46.4566 121.635 45.5894 121.427 44.4117 121.427H42.7418V126.647ZM55.943 133.16C54.5191 133.16 53.3941 132.727 52.568 131.859C51.7476 130.992 51.3375 129.788 51.3375 128.247C51.3375 126.694 51.7183 125.461 52.4801 124.547C53.2476 123.633 54.276 123.176 55.565 123.176C56.7721 123.176 57.7271 123.574 58.4303 124.371C59.1334 125.162 59.4849 126.208 59.4849 127.509V128.432H52.8492C52.8785 129.562 53.1627 130.421 53.7017 131.007C54.2467 131.593 55.0113 131.886 55.9957 131.886C57.0328 131.886 58.0582 131.669 59.0719 131.235V132.536C58.5562 132.759 58.067 132.917 57.6041 133.011C57.1471 133.11 56.5933 133.16 55.943 133.16ZM55.5474 124.397C54.774 124.397 54.1558 124.649 53.693 125.153C53.2359 125.657 52.9664 126.354 52.8844 127.245H57.9205C57.9205 126.325 57.7154 125.622 57.3053 125.136C56.8951 124.644 56.3092 124.397 55.5474 124.397ZM66.3756 123.176C66.8033 123.176 67.1871 123.211 67.5269 123.281L67.3248 124.635C66.9264 124.547 66.5748 124.503 66.2701 124.503C65.4908 124.503 64.8228 124.819 64.2662 125.452C63.7154 126.085 63.44 126.873 63.44 127.816V132.984H61.981V123.352H63.1851L63.3521 125.136H63.4224C63.7799 124.509 64.2105 124.025 64.7144 123.686C65.2183 123.346 65.7721 123.176 66.3756 123.176ZM75.5426 130.356C75.5426 131.253 75.2086 131.944 74.5406 132.431C73.8726 132.917 72.9351 133.16 71.7281 133.16C70.4508 133.16 69.4547 132.958 68.7398 132.554V131.2C69.2027 131.435 69.6978 131.619 70.2252 131.754C70.7584 131.889 71.2711 131.956 71.7633 131.956C72.525 131.956 73.1109 131.836 73.5211 131.596C73.9312 131.35 74.1363 130.978 74.1363 130.479C74.1363 130.104 73.9723 129.785 73.6441 129.521C73.3219 129.252 72.689 128.936 71.7457 128.572C70.8492 128.238 70.2105 127.948 69.8297 127.702C69.4547 127.45 69.1734 127.166 68.9859 126.85C68.8043 126.533 68.7135 126.155 68.7135 125.716C68.7135 124.931 69.0328 124.312 69.6715 123.861C70.3101 123.404 71.1861 123.176 72.2994 123.176C73.3365 123.176 74.3502 123.387 75.3404 123.809L74.8219 124.995C73.8551 124.597 72.9791 124.397 72.1939 124.397C71.5025 124.397 70.981 124.506 70.6295 124.723C70.2779 124.939 70.1021 125.238 70.1021 125.619C70.1021 125.877 70.1666 126.097 70.2955 126.278C70.4303 126.46 70.6441 126.633 70.9371 126.797C71.2301 126.961 71.7926 127.198 72.6246 127.509C73.7672 127.925 74.5377 128.344 74.9361 128.766C75.3404 129.188 75.5426 129.718 75.5426 130.356ZM79.3834 132.984H77.9244V123.352H79.3834V132.984ZM77.8014 120.741C77.8014 120.407 77.8834 120.164 78.0474 120.012C78.2115 119.854 78.4166 119.774 78.6627 119.774C78.8971 119.774 79.0992 119.854 79.2691 120.012C79.439 120.17 79.524 120.413 79.524 120.741C79.524 121.069 79.439 121.315 79.2691 121.479C79.0992 121.638 78.8971 121.717 78.6627 121.717C78.4166 121.717 78.2115 121.638 78.0474 121.479C77.8834 121.315 77.8014 121.069 77.8014 120.741ZM88.401 132.984L88.1109 131.613H88.0406C87.5601 132.217 87.0797 132.627 86.5992 132.844C86.1246 133.055 85.5299 133.16 84.815 133.16C83.8599 133.16 83.1099 132.914 82.565 132.422C82.026 131.93 81.7564 131.229 81.7564 130.321C81.7564 128.376 83.3121 127.356 86.4234 127.263L88.0582 127.21V126.612C88.0582 125.856 87.8941 125.3 87.566 124.942C87.2437 124.579 86.7252 124.397 86.0103 124.397C85.2076 124.397 84.2994 124.644 83.2857 125.136L82.8375 124.02C83.3121 123.762 83.8307 123.56 84.3932 123.413C84.9615 123.267 85.5299 123.193 86.0982 123.193C87.2467 123.193 88.0963 123.448 88.6471 123.958C89.2037 124.468 89.482 125.285 89.482 126.41V132.984H88.401ZM85.1051 131.956C86.0133 131.956 86.7252 131.707 87.2408 131.209C87.7623 130.711 88.023 130.014 88.023 129.117V128.247L86.564 128.309C85.4039 128.35 84.566 128.531 84.0504 128.854C83.5406 129.17 83.2857 129.665 83.2857 130.339C83.2857 130.866 83.4439 131.268 83.7603 131.543C84.0826 131.818 84.5308 131.956 85.1051 131.956ZM96.9791 133.16C96.3521 133.16 95.7779 133.046 95.2564 132.817C94.7408 132.583 94.3072 132.226 93.9557 131.745H93.8502C93.9205 132.308 93.9557 132.841 93.9557 133.345V137.309H92.4967V123.352H93.6832L93.8853 124.67H93.9557C94.3307 124.143 94.7672 123.762 95.2652 123.527C95.7633 123.293 96.3346 123.176 96.9791 123.176C98.2564 123.176 99.2408 123.612 99.9322 124.485C100.629 125.358 100.978 126.583 100.978 128.159C100.978 129.741 100.624 130.972 99.9146 131.851C99.2115 132.724 98.233 133.16 96.9791 133.16ZM96.7682 124.415C95.7838 124.415 95.0719 124.688 94.6324 125.232C94.193 125.777 93.9674 126.645 93.9557 127.834V128.159C93.9557 129.513 94.1812 130.482 94.6324 131.068C95.0836 131.648 95.8072 131.938 96.8033 131.938C97.6353 131.938 98.2857 131.602 98.7545 130.928C99.2291 130.254 99.4664 129.325 99.4664 128.142C99.4664 126.94 99.2291 126.021 98.7545 125.382C98.2857 124.737 97.6236 124.415 96.7682 124.415ZM109.46 132.984L109.17 131.613H109.099C108.619 132.217 108.138 132.627 107.658 132.844C107.183 133.055 106.588 133.16 105.874 133.16C104.919 133.16 104.169 132.914 103.624 132.422C103.085 131.93 102.815 131.229 102.815 130.321C102.815 128.376 104.371 127.356 107.482 127.263L109.117 127.21V126.612C109.117 125.856 108.953 125.3 108.625 124.942C108.302 124.579 107.784 124.397 107.069 124.397C106.266 124.397 105.358 124.644 104.344 125.136L103.896 124.02C104.371 123.762 104.889 123.56 105.452 123.413C106.02 123.267 106.588 123.193 107.157 123.193C108.305 123.193 109.155 123.448 109.706 123.958C110.262 124.468 110.541 125.285 110.541 126.41V132.984H109.46ZM106.164 131.956C107.072 131.956 107.784 131.707 108.299 131.209C108.821 130.711 109.082 130.014 109.082 129.117V128.247L107.623 128.309C106.462 128.35 105.625 128.531 105.109 128.854C104.599 129.17 104.344 129.665 104.344 130.339C104.344 130.866 104.503 131.268 104.819 131.543C105.141 131.818 105.589 131.956 106.164 131.956ZM120.147 132.984V126.753C120.147 125.968 119.968 125.382 119.611 124.995C119.254 124.608 118.694 124.415 117.932 124.415C116.924 124.415 116.186 124.688 115.717 125.232C115.249 125.777 115.014 126.677 115.014 127.931V132.984H113.555V123.352H114.742L114.979 124.67H115.049C115.348 124.195 115.767 123.829 116.306 123.571C116.845 123.308 117.446 123.176 118.108 123.176C119.268 123.176 120.141 123.457 120.727 124.02C121.313 124.576 121.606 125.47 121.606 126.7V132.984H120.147Z" fill="black"/>
<path d="M293.837 123.879C293.837 125.18 293.391 126.182 292.501 126.885C291.616 127.582 290.347 127.931 288.695 127.931H287.183V132.984H285.689V120.135H289.02C292.231 120.135 293.837 121.383 293.837 123.879ZM287.183 126.647H288.528C289.852 126.647 290.81 126.434 291.402 126.006C291.994 125.578 292.29 124.893 292.29 123.949C292.29 123.1 292.012 122.467 291.455 122.051C290.898 121.635 290.031 121.427 288.853 121.427H287.183V126.647ZM300.385 133.16C298.961 133.16 297.836 132.727 297.01 131.859C296.189 130.992 295.779 129.788 295.779 128.247C295.779 126.694 296.16 125.461 296.922 124.547C297.689 123.633 298.718 123.176 300.007 123.176C301.214 123.176 302.169 123.574 302.872 124.371C303.575 125.162 303.927 126.208 303.927 127.509V128.432H297.291C297.32 129.562 297.604 130.421 298.143 131.007C298.688 131.593 299.453 131.886 300.437 131.886C301.474 131.886 302.5 131.669 303.514 131.235V132.536C302.998 132.759 302.509 132.917 302.046 133.011C301.589 133.11 301.035 133.16 300.385 133.16ZM299.989 124.397C299.216 124.397 298.597 124.649 298.135 125.153C297.678 125.657 297.408 126.354 297.326 127.245H302.362C302.362 126.325 302.157 125.622 301.747 125.136C301.337 124.644 300.751 124.397 299.989 124.397ZM313.014 132.984V126.753C313.014 125.968 312.836 125.382 312.478 124.995C312.121 124.608 311.561 124.415 310.8 124.415C309.792 124.415 309.054 124.688 308.585 125.232C308.116 125.777 307.882 126.677 307.882 127.931V132.984H306.423V123.352H307.609L307.847 124.67H307.917C308.216 124.195 308.635 123.829 309.174 123.571C309.713 123.308 310.313 123.176 310.975 123.176C312.136 123.176 313.009 123.457 313.595 124.02C314.181 124.576 314.473 125.47 314.473 126.7V132.984H313.014ZM324.036 131.692H323.957C323.283 132.671 322.275 133.16 320.933 133.16C319.674 133.16 318.692 132.729 317.989 131.868C317.292 131.007 316.943 129.782 316.943 128.194C316.943 126.606 317.295 125.373 317.998 124.494C318.701 123.615 319.68 123.176 320.933 123.176C322.24 123.176 323.242 123.65 323.939 124.6H324.054L323.992 123.905L323.957 123.229V119.309H325.416V132.984H324.229L324.036 131.692ZM321.118 131.938C322.114 131.938 322.835 131.669 323.28 131.13C323.731 130.585 323.957 129.709 323.957 128.502V128.194C323.957 126.829 323.728 125.856 323.271 125.276C322.82 124.69 322.097 124.397 321.1 124.397C320.245 124.397 319.589 124.731 319.132 125.399C318.681 126.062 318.455 126.999 318.455 128.212C318.455 129.442 318.681 130.371 319.132 130.998C319.583 131.625 320.245 131.938 321.118 131.938ZM334.442 132.984L334.152 131.613H334.082C333.601 132.217 333.121 132.627 332.64 132.844C332.166 133.055 331.571 133.16 330.856 133.16C329.901 133.16 329.151 132.914 328.606 132.422C328.067 131.93 327.798 131.229 327.798 130.321C327.798 128.376 329.353 127.356 332.465 127.263L334.099 127.21V126.612C334.099 125.856 333.935 125.3 333.607 124.942C333.285 124.579 332.766 124.397 332.052 124.397C331.249 124.397 330.341 124.644 329.327 125.136L328.879 124.02C329.353 123.762 329.872 123.56 330.434 123.413C331.003 123.267 331.571 123.193 332.139 123.193C333.288 123.193 334.138 123.448 334.688 123.958C335.245 124.468 335.523 125.285 335.523 126.41V132.984H334.442ZM331.146 131.956C332.055 131.956 332.766 131.707 333.282 131.209C333.804 130.711 334.064 130.014 334.064 129.117V128.247L332.605 128.309C331.445 128.35 330.607 128.531 330.092 128.854C329.582 129.17 329.327 129.665 329.327 130.339C329.327 130.866 329.485 131.268 329.802 131.543C330.124 131.818 330.572 131.956 331.146 131.956ZM342.88 124.485H340.428V132.984H338.969V124.485H337.246V123.826L338.969 123.299V122.763C338.969 120.396 340.003 119.212 342.071 119.212C342.581 119.212 343.179 119.314 343.864 119.52L343.486 120.688C342.924 120.507 342.443 120.416 342.045 120.416C341.494 120.416 341.087 120.601 340.823 120.97C340.559 121.333 340.428 121.919 340.428 122.728V123.352H342.88V124.485ZM347.749 131.956C348.007 131.956 348.256 131.938 348.496 131.903C348.736 131.862 348.927 131.821 349.067 131.78V132.896C348.909 132.973 348.675 133.034 348.364 133.081C348.059 133.134 347.784 133.16 347.538 133.16C345.675 133.16 344.743 132.179 344.743 130.216V124.485H343.363V123.782L344.743 123.176L345.358 121.119H346.202V123.352H348.997V124.485H346.202V130.154C346.202 130.734 346.34 131.18 346.615 131.49C346.89 131.801 347.268 131.956 347.749 131.956ZM356.925 132.984L356.635 131.613H356.564C356.084 132.217 355.603 132.627 355.123 132.844C354.648 133.055 354.054 133.16 353.339 133.16C352.384 133.16 351.634 132.914 351.089 132.422C350.55 131.93 350.28 131.229 350.28 130.321C350.28 128.376 351.836 127.356 354.947 127.263L356.582 127.21V126.612C356.582 125.856 356.418 125.3 356.09 124.942C355.767 124.579 355.249 124.397 354.534 124.397C353.731 124.397 352.823 124.644 351.809 125.136L351.361 124.02C351.836 123.762 352.354 123.56 352.917 123.413C353.485 123.267 354.054 123.193 354.622 123.193C355.77 123.193 356.62 123.448 357.171 123.958C357.727 124.468 358.006 125.285 358.006 126.41V132.984H356.925ZM353.629 131.956C354.537 131.956 355.249 131.707 355.764 131.209C356.286 130.711 356.547 130.014 356.547 129.117V128.247L355.088 128.309C353.928 128.35 353.09 128.531 352.574 128.854C352.064 129.17 351.809 129.665 351.809 130.339C351.809 130.866 351.968 131.268 352.284 131.543C352.606 131.818 353.055 131.956 353.629 131.956ZM365.415 123.176C365.843 123.176 366.226 123.211 366.566 123.281L366.364 124.635C365.966 124.547 365.614 124.503 365.309 124.503C364.53 124.503 363.862 124.819 363.306 125.452C362.755 126.085 362.479 126.873 362.479 127.816V132.984H361.02V123.352H362.224L362.391 125.136H362.462C362.819 124.509 363.25 124.025 363.754 123.686C364.258 123.346 364.811 123.176 365.415 123.176ZM374.292 132.984L374.002 131.613H373.931C373.451 132.217 372.971 132.627 372.49 132.844C372.015 133.055 371.421 133.16 370.706 133.16C369.751 133.16 369.001 132.914 368.456 132.422C367.917 131.93 367.647 131.229 367.647 130.321C367.647 128.376 369.203 127.356 372.314 127.263L373.949 127.21V126.612C373.949 125.856 373.785 125.3 373.457 124.942C373.135 124.579 372.616 124.397 371.901 124.397C371.098 124.397 370.19 124.644 369.177 125.136L368.728 124.02C369.203 123.762 369.722 123.56 370.284 123.413C370.852 123.267 371.421 123.193 371.989 123.193C373.138 123.193 373.987 123.448 374.538 123.958C375.095 124.468 375.373 125.285 375.373 126.41V132.984H374.292ZM370.996 131.956C371.904 131.956 372.616 131.707 373.132 131.209C373.653 130.711 373.914 130.014 373.914 129.117V128.247L372.455 128.309C371.295 128.35 370.457 128.531 369.941 128.854C369.431 129.17 369.177 129.665 369.177 130.339C369.177 130.866 369.335 131.268 369.651 131.543C369.973 131.818 370.422 131.956 370.996 131.956ZM384.979 132.984V126.753C384.979 125.968 384.801 125.382 384.443 124.995C384.086 124.608 383.526 124.415 382.764 124.415C381.757 124.415 381.018 124.688 380.55 125.232C380.081 125.777 379.847 126.677 379.847 127.931V132.984H378.388V123.352H379.574L379.811 124.67H379.882C380.181 124.195 380.599 123.829 381.139 123.571C381.678 123.308 382.278 123.176 382.94 123.176C384.1 123.176 384.973 123.457 385.559 124.02C386.145 124.576 386.438 125.47 386.438 126.7V132.984H384.979Z" fill="black"/>
<path d="M555.004 123.879C555.004 125.18 554.558 126.182 553.668 126.885C552.783 127.582 551.514 127.931 549.862 127.931H548.35V132.984H546.856V120.135H550.187C553.398 120.135 555.004 121.383 555.004 123.879ZM548.35 126.647H549.695C551.019 126.647 551.977 126.434 552.569 126.006C553.161 125.578 553.457 124.893 553.457 123.949C553.457 123.1 553.178 122.467 552.622 122.051C552.065 121.635 551.198 121.427 550.02 121.427H548.35V126.647ZM561.551 133.16C560.128 133.16 559.003 132.727 558.176 131.859C557.356 130.992 556.946 129.788 556.946 128.247C556.946 126.694 557.327 125.461 558.088 124.547C558.856 123.633 559.884 123.176 561.173 123.176C562.38 123.176 563.336 123.574 564.039 124.371C564.742 125.162 565.093 126.208 565.093 127.509V128.432H558.458C558.487 129.562 558.771 130.421 559.31 131.007C559.855 131.593 560.62 131.886 561.604 131.886C562.641 131.886 563.667 131.669 564.68 131.235V132.536C564.165 132.759 563.675 132.917 563.212 133.011C562.755 133.11 562.202 133.16 561.551 133.16ZM561.156 124.397C560.382 124.397 559.764 124.649 559.301 125.153C558.844 125.657 558.575 126.354 558.493 127.245H563.529C563.529 126.325 563.324 125.622 562.914 125.136C562.504 124.644 561.918 124.397 561.156 124.397ZM574.181 132.984V126.753C574.181 125.968 574.003 125.382 573.645 124.995C573.288 124.608 572.728 124.415 571.966 124.415C570.959 124.415 570.22 124.688 569.752 125.232C569.283 125.777 569.048 126.677 569.048 127.931V132.984H567.589V123.352H568.776L569.013 124.67H569.084C569.382 124.195 569.801 123.829 570.34 123.571C570.879 123.308 571.48 123.176 572.142 123.176C573.302 123.176 574.175 123.457 574.761 124.02C575.347 124.576 575.64 125.47 575.64 126.7V132.984H574.181ZM577.117 123.352H578.681L580.791 128.845C581.254 130.099 581.541 131.004 581.652 131.561H581.722C581.798 131.262 581.957 130.752 582.197 130.031C582.443 129.305 583.24 127.078 584.587 123.352H586.152L582.012 134.32C581.602 135.404 581.122 136.172 580.571 136.623C580.026 137.08 579.355 137.309 578.558 137.309C578.113 137.309 577.673 137.259 577.24 137.159V135.99C577.562 136.061 577.922 136.096 578.321 136.096C579.323 136.096 580.038 135.533 580.465 134.408L581.002 133.037L577.117 123.352ZM589.175 132.984H587.716V123.352H589.175V132.984ZM587.593 120.741C587.593 120.407 587.675 120.164 587.839 120.012C588.004 119.854 588.209 119.774 588.455 119.774C588.689 119.774 588.891 119.854 589.061 120.012C589.231 120.17 589.316 120.413 589.316 120.741C589.316 121.069 589.231 121.315 589.061 121.479C588.891 121.638 588.689 121.717 588.455 121.717C588.209 121.717 588.004 121.638 587.839 121.479C587.675 121.315 587.593 121.069 587.593 120.741ZM598.483 130.356C598.483 131.253 598.149 131.944 597.481 132.431C596.813 132.917 595.876 133.16 594.669 133.16C593.391 133.16 592.395 132.958 591.68 132.554V131.2C592.143 131.435 592.638 131.619 593.166 131.754C593.699 131.889 594.212 131.956 594.704 131.956C595.465 131.956 596.051 131.836 596.462 131.596C596.872 131.35 597.077 130.978 597.077 130.479C597.077 130.104 596.913 129.785 596.585 129.521C596.262 129.252 595.629 128.936 594.686 128.572C593.79 128.238 593.151 127.948 592.77 127.702C592.395 127.45 592.114 127.166 591.926 126.85C591.745 126.533 591.654 126.155 591.654 125.716C591.654 124.931 591.973 124.312 592.612 123.861C593.251 123.404 594.127 123.176 595.24 123.176C596.277 123.176 597.291 123.387 598.281 123.809L597.762 124.995C596.795 124.597 595.92 124.397 595.134 124.397C594.443 124.397 593.921 124.506 593.57 124.723C593.218 124.939 593.043 125.238 593.043 125.619C593.043 125.877 593.107 126.097 593.236 126.278C593.371 126.46 593.585 126.633 593.878 126.797C594.17 126.961 594.733 127.198 595.565 127.509C596.708 127.925 597.478 128.344 597.877 128.766C598.281 129.188 598.483 129.718 598.483 130.356ZM602.324 132.984H600.865V123.352H602.324V132.984ZM600.742 120.741C600.742 120.407 600.824 120.164 600.988 120.012C601.152 119.854 601.357 119.774 601.603 119.774C601.837 119.774 602.04 119.854 602.21 120.012C602.379 120.17 602.464 120.413 602.464 120.741C602.464 121.069 602.379 121.315 602.21 121.479C602.04 121.638 601.837 121.717 601.603 121.717C601.357 121.717 601.152 121.638 600.988 121.479C600.824 121.315 600.742 121.069 600.742 120.741ZM612.009 132.984V126.753C612.009 125.968 611.831 125.382 611.473 124.995C611.116 124.608 610.556 124.415 609.795 124.415C608.781 124.415 608.04 124.69 607.571 125.241C607.108 125.792 606.877 126.694 606.877 127.948V132.984H605.418V119.309H606.877V123.448C606.877 123.946 606.853 124.359 606.806 124.688H606.894C607.181 124.225 607.588 123.861 608.116 123.598C608.649 123.328 609.255 123.193 609.935 123.193C611.113 123.193 611.995 123.475 612.581 124.037C613.172 124.594 613.468 125.481 613.468 126.7V132.984H612.009ZM622.398 132.984L622.108 131.613H622.038C621.557 132.217 621.077 132.627 620.596 132.844C620.122 133.055 619.527 133.16 618.812 133.16C617.857 133.16 617.107 132.914 616.562 132.422C616.023 131.93 615.754 131.229 615.754 130.321C615.754 128.376 617.309 127.356 620.42 127.263L622.055 127.21V126.612C622.055 125.856 621.891 125.3 621.563 124.942C621.241 124.579 620.722 124.397 620.007 124.397C619.205 124.397 618.296 124.644 617.283 125.136L616.835 124.02C617.309 123.762 617.828 123.56 618.39 123.413C618.959 123.267 619.527 123.193 620.095 123.193C621.244 123.193 622.093 123.448 622.644 123.958C623.201 124.468 623.479 125.285 623.479 126.41V132.984H622.398ZM619.102 131.956C620.01 131.956 620.722 131.707 621.238 131.209C621.759 130.711 622.02 130.014 622.02 129.117V128.247L620.561 128.309C619.401 128.35 618.563 128.531 618.047 128.854C617.538 129.17 617.283 129.665 617.283 130.339C617.283 130.866 617.441 131.268 617.757 131.543C618.08 131.818 618.528 131.956 619.102 131.956ZM633.086 132.984V126.753C633.086 125.968 632.907 125.382 632.549 124.995C632.192 124.608 631.632 124.415 630.871 124.415C629.863 124.415 629.125 124.688 628.656 125.232C628.187 125.777 627.953 126.677 627.953 127.931V132.984H626.494V123.352H627.68L627.918 124.67H627.988C628.287 124.195 628.706 123.829 629.245 123.571C629.784 123.308 630.384 123.176 631.046 123.176C632.207 123.176 633.08 123.457 633.666 124.02C634.252 124.576 634.545 125.47 634.545 126.7V132.984H633.086Z" fill="black"/>
<path d="M828.704 132.984H827.21V120.135H834.373V121.462H828.704V126.164H834.03V127.491H828.704V132.984ZM837.748 132.984H836.289V123.352H837.748V132.984ZM836.166 120.741C836.166 120.407 836.248 120.164 836.412 120.012C836.576 119.854 836.781 119.774 837.027 119.774C837.261 119.774 837.463 119.854 837.633 120.012C837.803 120.17 837.888 120.413 837.888 120.741C837.888 121.069 837.803 121.315 837.633 121.479C837.463 121.638 837.261 121.717 837.027 121.717C836.781 121.717 836.576 121.638 836.412 121.479C836.248 121.315 836.166 121.069 836.166 120.741ZM847.433 132.984V126.753C847.433 125.968 847.254 125.382 846.897 124.995C846.54 124.608 845.98 124.415 845.218 124.415C844.211 124.415 843.472 124.688 843.004 125.232C842.535 125.777 842.3 126.677 842.3 127.931V132.984H840.841V123.352H842.028L842.265 124.67H842.336C842.634 124.195 843.053 123.829 843.592 123.571C844.131 123.308 844.732 123.176 845.394 123.176C846.554 123.176 847.427 123.457 848.013 124.02C848.599 124.576 848.892 125.47 848.892 126.7V132.984H847.433ZM857.822 132.984L857.532 131.613H857.462C856.981 132.217 856.501 132.627 856.02 132.844C855.545 133.055 854.951 133.16 854.236 133.16C853.281 133.16 852.531 132.914 851.986 132.422C851.447 131.93 851.177 131.229 851.177 130.321C851.177 128.376 852.733 127.356 855.844 127.263L857.479 127.21V126.612C857.479 125.856 857.315 125.3 856.987 124.942C856.665 124.579 856.146 124.397 855.431 124.397C854.629 124.397 853.72 124.644 852.707 125.136L852.258 124.02C852.733 123.762 853.252 123.56 853.814 123.413C854.382 123.267 854.951 123.193 855.519 123.193C856.668 123.193 857.517 123.448 858.068 123.958C858.625 124.468 858.903 125.285 858.903 126.41V132.984H857.822ZM854.526 131.956C855.434 131.956 856.146 131.707 856.662 131.209C857.183 130.711 857.444 130.014 857.444 129.117V128.247L855.985 128.309C854.825 128.35 853.987 128.531 853.471 128.854C852.962 129.17 852.707 129.665 852.707 130.339C852.707 130.866 852.865 131.268 853.181 131.543C853.504 131.818 853.952 131.956 854.526 131.956ZM863.377 132.984H861.918V119.309H863.377V132.984Z" fill="black"/>
<path d="M1050.45 123.879C1050.45 125.18 1050.01 126.182 1049.12 126.885C1048.23 127.582 1046.96 127.931 1045.31 127.931H1043.8V132.984H1042.3V120.135H1045.64C1048.85 120.135 1050.45 121.383 1050.45 123.879ZM1043.8 126.647H1045.14C1046.47 126.647 1047.43 126.434 1048.02 126.006C1048.61 125.578 1048.9 124.893 1048.9 123.949C1048.9 123.1 1048.63 122.467 1048.07 122.051C1047.51 121.635 1046.65 121.427 1045.47 121.427H1043.8V126.647ZM1057 133.16C1055.58 133.16 1054.45 132.727 1053.62 131.859C1052.8 130.992 1052.39 129.788 1052.39 128.247C1052.39 126.694 1052.77 125.461 1053.54 124.547C1054.3 123.633 1055.33 123.176 1056.62 123.176C1057.83 123.176 1058.78 123.574 1059.49 124.371C1060.19 125.162 1060.54 126.208 1060.54 127.509V128.432H1053.91C1053.94 129.562 1054.22 130.421 1054.76 131.007C1055.3 131.593 1056.07 131.886 1057.05 131.886C1058.09 131.886 1059.11 131.669 1060.13 131.235V132.536C1059.61 132.759 1059.12 132.917 1058.66 133.011C1058.2 133.11 1057.65 133.16 1057 133.16ZM1056.6 124.397C1055.83 124.397 1055.21 124.649 1054.75 125.153C1054.29 125.657 1054.02 126.354 1053.94 127.245H1058.98C1058.98 126.325 1058.77 125.622 1058.36 125.136C1057.95 124.644 1057.37 124.397 1056.6 124.397ZM1069.63 132.984V126.753C1069.63 125.968 1069.45 125.382 1069.09 124.995C1068.74 124.608 1068.18 124.415 1067.41 124.415C1066.41 124.415 1065.67 124.688 1065.2 125.232C1064.73 125.777 1064.5 126.677 1064.5 127.931V132.984H1063.04V123.352H1064.22L1064.46 124.67H1064.53C1064.83 124.195 1065.25 123.829 1065.79 123.571C1066.33 123.308 1066.93 123.176 1067.59 123.176C1068.75 123.176 1069.62 123.457 1070.21 124.02C1070.8 124.576 1071.09 125.47 1071.09 126.7V132.984H1069.63ZM1081.98 123.352V124.274L1080.19 124.485C1080.36 124.69 1080.5 124.96 1080.63 125.294C1080.76 125.622 1080.83 125.994 1080.83 126.41C1080.83 127.354 1080.5 128.106 1079.86 128.669C1079.22 129.231 1078.33 129.513 1077.21 129.513C1076.92 129.513 1076.65 129.489 1076.4 129.442C1075.78 129.771 1075.47 130.184 1075.47 130.682C1075.47 130.945 1075.57 131.142 1075.79 131.271C1076.01 131.394 1076.38 131.455 1076.91 131.455H1078.61C1079.65 131.455 1080.45 131.675 1081.01 132.114C1081.57 132.554 1081.86 133.192 1081.86 134.03C1081.86 135.097 1081.43 135.908 1080.57 136.465C1079.72 137.027 1078.47 137.309 1076.83 137.309C1075.57 137.309 1074.6 137.074 1073.91 136.605C1073.23 136.137 1072.89 135.475 1072.89 134.619C1072.89 134.033 1073.08 133.526 1073.45 133.099C1073.83 132.671 1074.36 132.381 1075.03 132.229C1074.79 132.117 1074.58 131.944 1074.41 131.71C1074.25 131.476 1074.16 131.203 1074.16 130.893C1074.16 130.541 1074.26 130.233 1074.45 129.97C1074.63 129.706 1074.93 129.451 1075.33 129.205C1074.84 129 1074.43 128.651 1074.11 128.159C1073.8 127.667 1073.65 127.104 1073.65 126.472C1073.65 125.417 1073.96 124.605 1074.6 124.037C1075.23 123.463 1076.12 123.176 1077.28 123.176C1077.79 123.176 1078.24 123.234 1078.65 123.352H1081.98ZM1074.3 134.602C1074.3 135.123 1074.52 135.519 1074.96 135.788C1075.4 136.058 1076.02 136.192 1076.85 136.192C1078.07 136.192 1078.98 136.008 1079.56 135.639C1080.15 135.275 1080.45 134.78 1080.45 134.153C1080.45 133.632 1080.29 133.269 1079.97 133.063C1079.64 132.864 1079.04 132.765 1078.15 132.765H1076.4C1075.73 132.765 1075.22 132.923 1074.85 133.239C1074.48 133.556 1074.3 134.01 1074.3 134.602ZM1075.09 126.437C1075.09 127.11 1075.28 127.62 1075.66 127.966C1076.04 128.312 1076.57 128.484 1077.25 128.484C1078.67 128.484 1079.39 127.793 1079.39 126.41C1079.39 124.963 1078.66 124.239 1077.22 124.239C1076.54 124.239 1076.01 124.424 1075.64 124.793C1075.27 125.162 1075.09 125.71 1075.09 126.437ZM1085.33 123.352V129.601C1085.33 130.386 1085.51 130.972 1085.86 131.358C1086.22 131.745 1086.78 131.938 1087.54 131.938C1088.55 131.938 1089.28 131.663 1089.75 131.112C1090.22 130.562 1090.45 129.662 1090.45 128.414V123.352H1091.91V132.984H1090.71L1090.49 131.692H1090.42C1090.12 132.167 1089.7 132.53 1089.17 132.782C1088.64 133.034 1088.04 133.16 1087.36 133.16C1086.19 133.16 1085.31 132.882 1084.72 132.325C1084.14 131.769 1083.85 130.878 1083.85 129.653V123.352H1085.33ZM1107.29 132.984V126.718C1107.29 125.95 1107.13 125.376 1106.8 124.995C1106.47 124.608 1105.96 124.415 1105.27 124.415C1104.36 124.415 1103.69 124.676 1103.26 125.197C1102.82 125.719 1102.61 126.521 1102.61 127.605V132.984H1101.15V126.718C1101.15 125.95 1100.98 125.376 1100.65 124.995C1100.33 124.608 1099.81 124.415 1099.12 124.415C1098.2 124.415 1097.53 124.69 1097.1 125.241C1096.68 125.786 1096.47 126.683 1096.47 127.931V132.984H1095.01V123.352H1096.2L1096.44 124.67H1096.51C1096.78 124.201 1097.17 123.835 1097.67 123.571C1098.17 123.308 1098.73 123.176 1099.35 123.176C1100.86 123.176 1101.84 123.721 1102.31 124.811H1102.38C1102.66 124.307 1103.08 123.908 1103.63 123.615C1104.17 123.322 1104.79 123.176 1105.49 123.176C1106.58 123.176 1107.39 123.457 1107.93 124.02C1108.48 124.576 1108.75 125.47 1108.75 126.7V132.984H1107.29ZM1113.14 123.352V129.601C1113.14 130.386 1113.31 130.972 1113.67 131.358C1114.03 131.745 1114.59 131.938 1115.35 131.938C1116.36 131.938 1117.09 131.663 1117.56 131.112C1118.02 130.562 1118.26 129.662 1118.26 128.414V123.352H1119.72V132.984H1118.51L1118.3 131.692H1118.22C1117.93 132.167 1117.51 132.53 1116.98 132.782C1116.45 133.034 1115.85 133.16 1115.17 133.16C1113.99 133.16 1113.11 132.882 1112.53 132.325C1111.95 131.769 1111.66 130.878 1111.66 129.653V123.352H1113.14ZM1135.1 132.984V126.718C1135.1 125.95 1134.94 125.376 1134.61 124.995C1134.28 124.608 1133.77 124.415 1133.08 124.415C1132.17 124.415 1131.5 124.676 1131.07 125.197C1130.63 125.719 1130.41 126.521 1130.41 127.605V132.984H1128.96V126.718C1128.96 125.95 1128.79 125.376 1128.46 124.995C1128.14 124.608 1127.62 124.415 1126.93 124.415C1126.01 124.415 1125.34 124.69 1124.91 125.241C1124.49 125.786 1124.28 126.683 1124.28 127.931V132.984H1122.82V123.352H1124.01L1124.24 124.67H1124.32C1124.59 124.201 1124.98 123.835 1125.48 123.571C1125.98 123.308 1126.54 123.176 1127.16 123.176C1128.67 123.176 1129.65 123.721 1130.12 124.811H1130.19C1130.47 124.307 1130.89 123.908 1131.43 123.615C1131.98 123.322 1132.6 123.176 1133.3 123.176C1134.39 123.176 1135.2 123.457 1135.74 124.02C1136.29 124.576 1136.56 125.47 1136.56 126.7V132.984H1135.1ZM1145.5 132.984L1145.21 131.613H1145.14C1144.66 132.217 1144.18 132.627 1143.69 132.844C1143.22 133.055 1142.63 133.16 1141.91 133.16C1140.96 133.16 1140.21 132.914 1139.66 132.422C1139.12 131.93 1138.85 131.229 1138.85 130.321C1138.85 128.376 1140.41 127.356 1143.52 127.263L1145.15 127.21V126.612C1145.15 125.856 1144.99 125.3 1144.66 124.942C1144.34 124.579 1143.82 124.397 1143.11 124.397C1142.3 124.397 1141.4 124.644 1140.38 125.136L1139.93 124.02C1140.41 123.762 1140.93 123.56 1141.49 123.413C1142.06 123.267 1142.63 123.193 1143.19 123.193C1144.34 123.193 1145.19 123.448 1145.74 123.958C1146.3 124.468 1146.58 125.285 1146.58 126.41V132.984H1145.5ZM1142.2 131.956C1143.11 131.956 1143.82 131.707 1144.34 131.209C1144.86 130.711 1145.12 130.014 1145.12 129.117V128.247L1143.66 128.309C1142.5 128.35 1141.66 128.531 1141.15 128.854C1140.64 129.17 1140.38 129.665 1140.38 130.339C1140.38 130.866 1140.54 131.268 1140.86 131.543C1141.18 131.818 1141.63 131.956 1142.2 131.956ZM1156.18 132.984V126.753C1156.18 125.968 1156.01 125.382 1155.65 124.995C1155.29 124.608 1154.73 124.415 1153.97 124.415C1152.96 124.415 1152.22 124.688 1151.75 125.232C1151.29 125.777 1151.05 126.677 1151.05 127.931V132.984H1149.59V123.352H1150.78L1151.02 124.67H1151.09C1151.39 124.195 1151.8 123.829 1152.34 123.571C1152.88 123.308 1153.48 123.176 1154.15 123.176C1155.31 123.176 1156.18 123.457 1156.76 124.02C1157.35 124.576 1157.64 125.47 1157.64 126.7V132.984H1156.18Z" fill="black"/>
<path d="M81.2729 48.5312H1078.05" stroke="black" stroke-opacity="0.2" stroke-width="3"/>
<circle cx="83.1714" cy="44.5047" r="43.6355" fill="#C4C4C4"/>
<path d="M73.0226 51.3639C69.5426 51.3639 66.8906 50.1879 65.0666 47.8359C63.2666 45.4839 62.3666 42.1959 62.3666 37.9719C62.3666 33.7479 63.3386 30.6039 65.2826 28.5399C67.2266 26.4519 69.8786 25.4079 73.2386 25.4079C76.6226 25.4079 79.2746 26.4399 81.1946 28.5039C83.1386 30.5679 84.1106 33.8559 84.1106 38.3679C84.1106 42.8799 83.1386 46.1799 81.1946 48.2679C79.2506 50.3319 76.5266 51.3639 73.0226 51.3639ZM69.7466 37.0359V40.2399C69.7466 42.5679 69.7586 44.2119 69.7826 45.1719C69.8306 46.1319 69.9626 47.1279 70.1786 48.1599C70.3946 49.1919 70.7426 49.8639 71.2226 50.1759C71.7026 50.4639 72.2666 50.6079 72.9146 50.6079C73.5626 50.6079 74.0426 50.5719 74.3546 50.4999C74.6906 50.4279 74.9786 50.2839 75.2186 50.0679C75.4826 49.8279 75.6986 49.5999 75.8666 49.3839C76.0346 49.1439 76.1666 48.7839 76.2626 48.3039C76.3826 47.8239 76.4786 47.3799 76.5506 46.9719C76.6226 46.5639 76.6706 45.9639 76.6946 45.1719C76.7426 43.6359 76.7666 42.0879 76.7666 40.5279V37.3599C76.7666 32.6559 76.5866 29.6199 76.2266 28.2519C75.8906 26.8599 74.9066 26.1639 73.2746 26.1639C71.6426 26.1639 70.6466 26.8719 70.2866 28.2879C69.9266 29.7039 69.7466 32.6199 69.7466 37.0359ZM86.4529 30.9159C86.4529 29.3079 87.1489 27.9879 88.5409 26.9559C89.9329 25.9239 92.0209 25.4079 94.8049 25.4079C97.5889 25.4079 99.7249 25.9239 101.213 26.9559C102.725 27.9879 103.481 29.5359 103.481 31.5999C103.481 32.2719 103.421 32.8839 103.301 33.4359C103.181 33.9639 102.905 34.5279 102.473 35.1279C102.065 35.7039 101.657 36.2199 101.249 36.6759C100.865 37.1319 100.193 37.7319 99.2329 38.4759C97.7929 39.6279 96.2809 40.7799 94.6969 41.9319C93.1129 43.0599 92.1889 43.7199 91.9249 43.9119L89.7289 45.4959H98.3689C100.025 45.4959 101.201 45.1359 101.897 44.4159C102.593 43.6959 103.085 42.5679 103.373 41.0319H103.985L103.625 51.0039H86.7049V46.8279L90.3409 43.4799C92.8129 41.2239 94.5649 39.2199 95.5969 37.4679C96.6289 35.6919 97.1449 33.7479 97.1449 31.6359C97.1449 29.4999 96.9169 28.0479 96.4609 27.2799C96.0049 26.4879 95.2369 26.0919 94.1569 26.0919C93.0769 26.0919 92.3209 26.3679 91.8889 26.9199C91.4569 27.4719 91.2409 27.9999 91.2409 28.5039C91.2409 29.0079 91.3129 29.4519 91.4569 29.8359H92.5369C92.7289 30.3399 92.8249 30.9519 92.8249 31.6719C92.8249 32.3679 92.5249 32.9799 91.9249 33.5079C91.3249 34.0119 90.5329 34.2639 89.5489 34.2639C88.5649 34.2639 87.7969 33.9519 87.2449 33.3279C86.7169 32.6799 86.4529 31.8759 86.4529 30.9159Z" fill="black"/>
<path d="M70.1196 73.3896C69.5688 73.3896 69.1353 73.3105 68.8188 73.1523V71.8779C69.2349 71.9951 69.6685 72.0537 70.1196 72.0537C70.6997 72.0537 71.1392 71.8779 71.438 71.5264C71.7427 71.1748 71.895 70.668 71.895 70.0059V57.1562H73.3892V69.8828C73.3892 70.9961 73.1079 71.8574 72.5454 72.4668C71.9829 73.082 71.1743 73.3896 70.1196 73.3896ZM82.5122 70.0059L82.2222 68.6348H82.1519C81.6714 69.2383 81.1909 69.6484 80.7104 69.8652C80.2358 70.0762 79.6411 70.1816 78.9263 70.1816C77.9712 70.1816 77.2212 69.9355 76.6763 69.4434C76.1372 68.9512 75.8677 68.251 75.8677 67.3428C75.8677 65.3975 77.4233 64.3779 80.5347 64.2842L82.1694 64.2314V63.6338C82.1694 62.8779 82.0054 62.3213 81.6772 61.9639C81.355 61.6006 80.8364 61.4189 80.1216 61.4189C79.3188 61.4189 78.4106 61.665 77.397 62.1572L76.9487 61.041C77.4233 60.7832 77.9419 60.5811 78.5044 60.4346C79.0728 60.2881 79.6411 60.2148 80.2095 60.2148C81.3579 60.2148 82.2075 60.4697 82.7583 60.9795C83.3149 61.4893 83.5933 62.3066 83.5933 63.4316V70.0059H82.5122ZM79.2163 68.9775C80.1245 68.9775 80.8364 68.7285 81.352 68.2305C81.8735 67.7324 82.1343 67.0352 82.1343 66.1387V65.2686L80.6753 65.3301C79.5151 65.3711 78.6772 65.5527 78.1616 65.875C77.6519 66.1914 77.397 66.6865 77.397 67.3604C77.397 67.8877 77.5552 68.2891 77.8716 68.5645C78.1938 68.8398 78.6421 68.9775 79.2163 68.9775ZM93.1997 70.0059V63.7744C93.1997 62.9893 93.021 62.4033 92.6636 62.0166C92.3061 61.6299 91.7466 61.4365 90.9849 61.4365C89.977 61.4365 89.2388 61.709 88.77 62.2539C88.3013 62.7988 88.0669 63.6982 88.0669 64.9521V70.0059H86.6079V60.373H87.7944L88.0317 61.6914H88.102C88.4009 61.2168 88.8198 60.8506 89.3589 60.5928C89.8979 60.3291 90.4985 60.1973 91.1606 60.1973C92.3208 60.1973 93.1938 60.4785 93.7798 61.041C94.3657 61.5977 94.6587 62.4912 94.6587 63.7217V70.0059H93.1997Z" fill="black"/>
<circle cx="335.91" cy="44.5047" r="43.6355" fill="#009345"/>
<path d="M327.017 51.3639C323.537 51.3639 320.885 50.1879 319.061 47.8359C317.261 45.4839 316.361 42.1959 316.361 37.9719C316.361 33.7479 317.333 30.6039 319.277 28.5399C321.221 26.4519 323.873 25.4079 327.233 25.4079C330.617 25.4079 333.269 26.4399 335.189 28.5039C337.133 30.5679 338.105 33.8559 338.105 38.3679C338.105 42.8799 337.133 46.1799 335.189 48.2679C333.245 50.3319 330.521 51.3639 327.017 51.3639ZM323.741 37.0359V40.2399C323.741 42.5679 323.753 44.2119 323.777 45.1719C323.825 46.1319 323.957 47.1279 324.173 48.1599C324.389 49.1919 324.737 49.8639 325.217 50.1759C325.697 50.4639 326.261 50.6079 326.909 50.6079C327.557 50.6079 328.037 50.5719 328.349 50.4999C328.685 50.4279 328.973 50.2839 329.213 50.0679C329.477 49.8279 329.693 49.5999 329.861 49.3839C330.029 49.1439 330.161 48.7839 330.257 48.3039C330.377 47.8239 330.473 47.3799 330.545 46.9719C330.617 46.5639 330.665 45.9639 330.689 45.1719C330.737 43.6359 330.761 42.0879 330.761 40.5279V37.3599C330.761 32.6559 330.581 29.6199 330.221 28.2519C329.885 26.8599 328.901 26.1639 327.269 26.1639C325.637 26.1639 324.641 26.8719 324.281 28.2879C323.921 29.7039 323.741 32.6199 323.741 37.0359ZM347.647 51.3639C346.351 51.3639 345.331 51.0159 344.587 50.3199C343.843 49.5999 343.471 48.7239 343.471 47.6919C343.471 46.6359 343.819 45.4839 344.515 44.2359C345.235 42.9639 346.783 40.9479 349.159 38.1879L355.099 31.3119H345.883C344.179 31.3119 343.051 31.5279 342.499 31.9599C341.971 32.3679 341.551 33.3639 341.239 34.9479H340.663L341.059 25.8039H357.187V29.6919L353.191 36.6759C351.415 39.8199 350.275 42.0759 349.771 43.4439C349.291 44.7879 349.051 46.0719 349.051 47.2959C349.051 48.5199 349.411 49.6479 350.131 50.6799L349.879 51.1119C349.207 51.2799 348.463 51.3639 347.647 51.3639Z" fill="#F8F8F8"/>
<path d="M322.858 73.3896C322.307 73.3896 321.874 73.3105 321.557 73.1523V71.8779C321.973 71.9951 322.407 72.0537 322.858 72.0537C323.438 72.0537 323.878 71.8779 324.177 71.5264C324.481 71.1748 324.634 70.668 324.634 70.0059V57.1562H326.128V69.8828C326.128 70.9961 325.846 71.8574 325.284 72.4668C324.721 73.082 323.913 73.3896 322.858 73.3896ZM335.251 70.0059L334.961 68.6348H334.89C334.41 69.2383 333.929 69.6484 333.449 69.8652C332.974 70.0762 332.38 70.1816 331.665 70.1816C330.71 70.1816 329.96 69.9355 329.415 69.4434C328.876 68.9512 328.606 68.251 328.606 67.3428C328.606 65.3975 330.162 64.3779 333.273 64.2842L334.908 64.2314V63.6338C334.908 62.8779 334.744 62.3213 334.416 61.9639C334.094 61.6006 333.575 61.4189 332.86 61.4189C332.057 61.4189 331.149 61.665 330.135 62.1572L329.687 61.041C330.162 60.7832 330.68 60.5811 331.243 60.4346C331.811 60.2881 332.38 60.2148 332.948 60.2148C334.096 60.2148 334.946 60.4697 335.497 60.9795C336.053 61.4893 336.332 62.3066 336.332 63.4316V70.0059H335.251ZM331.955 68.9775C332.863 68.9775 333.575 68.7285 334.091 68.2305C334.612 67.7324 334.873 67.0352 334.873 66.1387V65.2686L333.414 65.3301C332.254 65.3711 331.416 65.5527 330.9 65.875C330.39 66.1914 330.135 66.6865 330.135 67.3604C330.135 67.8877 330.294 68.2891 330.61 68.5645C330.932 68.8398 331.381 68.9775 331.955 68.9775ZM345.938 70.0059V63.7744C345.938 62.9893 345.76 62.4033 345.402 62.0166C345.045 61.6299 344.485 61.4365 343.723 61.4365C342.716 61.4365 341.977 61.709 341.509 62.2539C341.04 62.7988 340.805 63.6982 340.805 64.9521V70.0059H339.346V60.373H340.533L340.77 61.6914H340.841C341.139 61.2168 341.558 60.8506 342.097 60.5928C342.636 60.3291 343.237 60.1973 343.899 60.1973C345.059 60.1973 345.932 60.4785 346.518 61.041C347.104 61.5977 347.397 62.4912 347.397 63.7217V70.0059H345.938Z" fill="#F8F8F8"/>
<circle cx="588.648" cy="44.5047" r="43.6355" fill="#C4C4C4"/>
<path d="M568.024 30.9159C568.024 29.3079 568.72 27.9879 570.112 26.9559C571.504 25.9239 573.592 25.4079 576.376 25.4079C579.16 25.4079 581.296 25.9239 582.784 26.9559C584.296 27.9879 585.052 29.5359 585.052 31.5999C585.052 32.2719 584.992 32.8839 584.872 33.4359C584.752 33.9639 584.476 34.5279 584.044 35.1279C583.636 35.7039 583.228 36.2199 582.82 36.6759C582.436 37.1319 581.764 37.7319 580.804 38.4759C579.364 39.6279 577.852 40.7799 576.268 41.9319C574.684 43.0599 573.76 43.7199 573.496 43.9119L571.3 45.4959H579.94C581.596 45.4959 582.772 45.1359 583.468 44.4159C584.164 43.6959 584.656 42.5679 584.944 41.0319H585.556L585.196 51.0039H568.276V46.8279L571.912 43.4799C574.384 41.2239 576.136 39.2199 577.168 37.4679C578.2 35.6919 578.716 33.7479 578.716 31.6359C578.716 29.4999 578.488 28.0479 578.032 27.2799C577.576 26.4879 576.808 26.0919 575.728 26.0919C574.648 26.0919 573.892 26.3679 573.46 26.9199C573.028 27.4719 572.812 27.9999 572.812 28.5039C572.812 29.0079 572.884 29.4519 573.028 29.8359H574.108C574.3 30.3399 574.396 30.9519 574.396 31.6719C574.396 32.3679 574.096 32.9799 573.496 33.5079C572.896 34.0119 572.104 34.2639 571.12 34.2639C570.136 34.2639 569.368 33.9519 568.816 33.3279C568.288 32.6799 568.024 31.8759 568.024 30.9159ZM598.363 51.3639C594.883 51.3639 592.231 50.1879 590.407 47.8359C588.607 45.4839 587.707 42.1959 587.707 37.9719C587.707 33.7479 588.679 30.6039 590.623 28.5399C592.567 26.4519 595.219 25.4079 598.579 25.4079C601.963 25.4079 604.615 26.4399 606.535 28.5039C608.479 30.5679 609.451 33.8559 609.451 38.3679C609.451 42.8799 608.479 46.1799 606.535 48.2679C604.591 50.3319 601.867 51.3639 598.363 51.3639ZM595.087 37.0359V40.2399C595.087 42.5679 595.099 44.2119 595.123 45.1719C595.171 46.1319 595.303 47.1279 595.519 48.1599C595.735 49.1919 596.083 49.8639 596.563 50.1759C597.043 50.4639 597.607 50.6079 598.255 50.6079C598.903 50.6079 599.383 50.5719 599.695 50.4999C600.031 50.4279 600.319 50.2839 600.559 50.0679C600.823 49.8279 601.039 49.5999 601.207 49.3839C601.375 49.1439 601.507 48.7839 601.603 48.3039C601.723 47.8239 601.819 47.3799 601.891 46.9719C601.963 46.5639 602.011 45.9639 602.035 45.1719C602.083 43.6359 602.107 42.0879 602.107 40.5279V37.3599C602.107 32.6559 601.927 29.6199 601.567 28.2519C601.231 26.8599 600.247 26.1639 598.615 26.1639C596.983 26.1639 595.987 26.8719 595.627 28.2879C595.267 29.7039 595.087 32.6199 595.087 37.0359Z" fill="black"/>
<path d="M575.597 73.3896C575.046 73.3896 574.612 73.3105 574.296 73.1523V71.8779C574.712 71.9951 575.146 72.0537 575.597 72.0537C576.177 72.0537 576.616 71.8779 576.915 71.5264C577.22 71.1748 577.372 70.668 577.372 70.0059V57.1562H578.866V69.8828C578.866 70.9961 578.585 71.8574 578.022 72.4668C577.46 73.082 576.651 73.3896 575.597 73.3896ZM587.989 70.0059L587.699 68.6348H587.629C587.148 69.2383 586.668 69.6484 586.187 69.8652C585.713 70.0762 585.118 70.1816 584.403 70.1816C583.448 70.1816 582.698 69.9355 582.153 69.4434C581.614 68.9512 581.345 68.251 581.345 67.3428C581.345 65.3975 582.9 64.3779 586.012 64.2842L587.646 64.2314V63.6338C587.646 62.8779 587.482 62.3213 587.154 61.9639C586.832 61.6006 586.313 61.4189 585.599 61.4189C584.796 61.4189 583.888 61.665 582.874 62.1572L582.426 61.041C582.9 60.7832 583.419 60.5811 583.981 60.4346C584.55 60.2881 585.118 60.2148 585.687 60.2148C586.835 60.2148 587.685 60.4697 588.235 60.9795C588.792 61.4893 589.07 62.3066 589.07 63.4316V70.0059H587.989ZM584.693 68.9775C585.602 68.9775 586.313 68.7285 586.829 68.2305C587.351 67.7324 587.611 67.0352 587.611 66.1387V65.2686L586.152 65.3301C584.992 65.3711 584.154 65.5527 583.639 65.875C583.129 66.1914 582.874 66.6865 582.874 67.3604C582.874 67.8877 583.032 68.2891 583.349 68.5645C583.671 68.8398 584.119 68.9775 584.693 68.9775ZM598.677 70.0059V63.7744C598.677 62.9893 598.498 62.4033 598.141 62.0166C597.783 61.6299 597.224 61.4365 596.462 61.4365C595.454 61.4365 594.716 61.709 594.247 62.2539C593.778 62.7988 593.544 63.6982 593.544 64.9521V70.0059H592.085V60.373H593.271L593.509 61.6914H593.579C593.878 61.2168 594.297 60.8506 594.836 60.5928C595.375 60.3291 595.976 60.1973 596.638 60.1973C597.798 60.1973 598.671 60.4785 599.257 61.041C599.843 61.5977 600.136 62.4912 600.136 63.7217V70.0059H598.677Z" fill="black"/>
<circle cx="841.387" cy="44.5047" r="43.6355" fill="#C4C4C4"/>
<path d="M822.784 30.9159C822.784 29.3079 823.48 27.9879 824.872 26.9559C826.264 25.9239 828.352 25.4079 831.136 25.4079C833.92 25.4079 836.056 25.9239 837.544 26.9559C839.056 27.9879 839.812 29.5359 839.812 31.5999C839.812 32.2719 839.752 32.8839 839.632 33.4359C839.512 33.9639 839.236 34.5279 838.804 35.1279C838.396 35.7039 837.988 36.2199 837.58 36.6759C837.196 37.1319 836.524 37.7319 835.564 38.4759C834.124 39.6279 832.612 40.7799 831.028 41.9319C829.444 43.0599 828.52 43.7199 828.256 43.9119L826.06 45.4959H834.7C836.356 45.4959 837.532 45.1359 838.228 44.4159C838.924 43.6959 839.416 42.5679 839.704 41.0319H840.316L839.956 51.0039H823.036V46.8279L826.672 43.4799C829.144 41.2239 830.896 39.2199 831.928 37.4679C832.96 35.6919 833.476 33.7479 833.476 31.6359C833.476 29.4999 833.248 28.0479 832.792 27.2799C832.336 26.4879 831.568 26.0919 830.488 26.0919C829.408 26.0919 828.652 26.3679 828.22 26.9199C827.788 27.4719 827.572 27.9999 827.572 28.5039C827.572 29.0079 827.644 29.4519 827.788 29.8359H828.868C829.06 30.3399 829.156 30.9519 829.156 31.6719C829.156 32.3679 828.856 32.9799 828.256 33.5079C827.656 34.0119 826.864 34.2639 825.88 34.2639C824.896 34.2639 824.128 33.9519 823.576 33.3279C823.048 32.6799 822.784 31.8759 822.784 30.9159ZM842.647 30.9159C842.647 29.3079 843.343 27.9879 844.735 26.9559C846.127 25.9239 848.215 25.4079 850.999 25.4079C853.783 25.4079 855.919 25.9239 857.407 26.9559C858.919 27.9879 859.675 29.5359 859.675 31.5999C859.675 32.2719 859.615 32.8839 859.495 33.4359C859.375 33.9639 859.099 34.5279 858.667 35.1279C858.259 35.7039 857.851 36.2199 857.443 36.6759C857.059 37.1319 856.387 37.7319 855.427 38.4759C853.987 39.6279 852.475 40.7799 850.891 41.9319C849.307 43.0599 848.383 43.7199 848.119 43.9119L845.923 45.4959H854.563C856.219 45.4959 857.395 45.1359 858.091 44.4159C858.787 43.6959 859.279 42.5679 859.567 41.0319H860.179L859.819 51.0039H842.899V46.8279L846.535 43.4799C849.007 41.2239 850.759 39.2199 851.791 37.4679C852.823 35.6919 853.339 33.7479 853.339 31.6359C853.339 29.4999 853.111 28.0479 852.655 27.2799C852.199 26.4879 851.431 26.0919 850.351 26.0919C849.271 26.0919 848.515 26.3679 848.083 26.9199C847.651 27.4719 847.435 27.9999 847.435 28.5039C847.435 29.0079 847.507 29.4519 847.651 29.8359H848.731C848.923 30.3399 849.019 30.9519 849.019 31.6719C849.019 32.3679 848.719 32.9799 848.119 33.5079C847.519 34.0119 846.727 34.2639 845.743 34.2639C844.759 34.2639 843.991 33.9519 843.439 33.3279C842.911 32.6799 842.647 31.8759 842.647 30.9159Z" fill="black"/>
<path d="M828.335 73.3896C827.784 73.3896 827.351 73.3105 827.034 73.1523V71.8779C827.45 71.9951 827.884 72.0537 828.335 72.0537C828.915 72.0537 829.355 71.8779 829.654 71.5264C829.958 71.1748 830.111 70.668 830.111 70.0059V57.1562H831.605V69.8828C831.605 70.9961 831.323 71.8574 830.761 72.4668C830.198 73.082 829.39 73.3896 828.335 73.3896ZM840.728 70.0059L840.438 68.6348H840.367C839.887 69.2383 839.406 69.6484 838.926 69.8652C838.451 70.0762 837.857 70.1816 837.142 70.1816C836.187 70.1816 835.437 69.9355 834.892 69.4434C834.353 68.9512 834.083 68.251 834.083 67.3428C834.083 65.3975 835.639 64.3779 838.75 64.2842L840.385 64.2314V63.6338C840.385 62.8779 840.221 62.3213 839.893 61.9639C839.571 61.6006 839.052 61.4189 838.337 61.4189C837.534 61.4189 836.626 61.665 835.613 62.1572L835.164 61.041C835.639 60.7832 836.157 60.5811 836.72 60.4346C837.288 60.2881 837.857 60.2148 838.425 60.2148C839.573 60.2148 840.423 60.4697 840.974 60.9795C841.531 61.4893 841.809 62.3066 841.809 63.4316V70.0059H840.728ZM837.432 68.9775C838.34 68.9775 839.052 68.7285 839.568 68.2305C840.089 67.7324 840.35 67.0352 840.35 66.1387V65.2686L838.891 65.3301C837.731 65.3711 836.893 65.5527 836.377 65.875C835.867 66.1914 835.613 66.6865 835.613 67.3604C835.613 67.8877 835.771 68.2891 836.087 68.5645C836.409 68.8398 836.858 68.9775 837.432 68.9775ZM851.415 70.0059V63.7744C851.415 62.9893 851.237 62.4033 850.879 62.0166C850.522 61.6299 849.962 61.4365 849.2 61.4365C848.193 61.4365 847.454 61.709 846.986 62.2539C846.517 62.7988 846.282 63.6982 846.282 64.9521V70.0059H844.823V60.373H846.01L846.247 61.6914H846.318C846.616 61.2168 847.035 60.8506 847.574 60.5928C848.114 60.3291 848.714 60.1973 849.376 60.1973C850.536 60.1973 851.409 60.4785 851.995 61.041C852.581 61.5977 852.874 62.4912 852.874 63.7217V70.0059H851.415Z" fill="black"/>
<circle cx="1094.13" cy="44.5047" r="43.6355" fill="#C4C4C4"/>
<path d="M1077.67 30.9159C1077.67 29.3319 1078.39 28.0239 1079.83 26.9919C1081.27 25.9359 1083.41 25.4079 1086.24 25.4079C1091.71 25.4079 1094.45 27.3159 1094.45 31.1319C1094.45 32.6919 1093.8 33.9879 1092.5 35.0199C1091.23 36.0279 1089.4 36.7359 1087 37.1439V37.2159C1089.97 37.4319 1092.17 38.1279 1093.58 39.3039C1095 40.4799 1095.71 42.0039 1095.71 43.8759C1095.71 46.1799 1094.77 48.0039 1092.9 49.3479C1091.05 50.6919 1088.47 51.3639 1085.16 51.3639C1083.86 51.3639 1082.65 51.2199 1081.52 50.9319C1080.42 50.6439 1079.42 50.0799 1078.54 49.2399C1077.67 48.3759 1077.24 47.3559 1077.24 46.1799C1077.24 45.0039 1077.52 44.0919 1078.07 43.4439C1078.64 42.7959 1079.42 42.4719 1080.41 42.4719C1081.39 42.4719 1082.17 42.7359 1082.75 43.2639C1083.32 43.7679 1083.61 44.3799 1083.61 45.0999C1083.61 45.7959 1083.52 46.3959 1083.32 46.8999H1082.21C1082.06 47.2839 1081.99 47.6799 1081.99 48.0879C1081.99 49.7919 1083 50.6439 1085.02 50.6439C1086.43 50.6439 1087.39 50.1039 1087.9 49.0239C1088.42 47.9439 1088.69 46.3839 1088.69 44.3439C1088.69 42.3039 1088.44 40.8279 1087.93 39.9159C1087.45 38.9799 1086.73 38.2719 1085.77 37.7919C1084.91 37.9839 1083.86 38.1399 1082.64 38.2599L1082.53 37.4679C1084.64 37.2519 1086.02 36.7479 1086.67 35.9559C1087.34 35.1639 1087.68 33.7599 1087.68 31.7439C1087.68 29.7039 1087.48 28.2519 1087.07 27.3879C1086.68 26.4999 1086.02 26.0559 1085.09 26.0559C1084.15 26.0559 1083.48 26.3439 1083.07 26.9199C1082.69 27.4719 1082.5 27.9999 1082.5 28.5039C1082.5 29.0079 1082.57 29.4519 1082.71 29.8359H1083.76C1083.95 30.3399 1084.04 30.9519 1084.04 31.6719C1084.04 32.3679 1083.74 32.9799 1083.14 33.5079C1082.54 34.0119 1081.75 34.2639 1080.77 34.2639C1079.78 34.2639 1079.02 33.9519 1078.46 33.3279C1077.94 32.6799 1077.67 31.8759 1077.67 30.9159ZM1101.37 26.7399L1097.41 27.2439L1097.34 26.5239L1105.47 25.4079H1108.39V50.3199H1111.2V51.0039H1097.59V50.3199H1101.37V26.7399Z" fill="black"/>
<path d="M1081.07 73.3896C1080.52 73.3896 1080.09 73.3105 1079.77 73.1523V71.8779C1080.19 71.9951 1080.62 72.0537 1081.07 72.0537C1081.65 72.0537 1082.09 71.8779 1082.39 71.5264C1082.7 71.1748 1082.85 70.668 1082.85 70.0059V57.1562H1084.34V69.8828C1084.34 70.9961 1084.06 71.8574 1083.5 72.4668C1082.94 73.082 1082.13 73.3896 1081.07 73.3896ZM1093.47 70.0059L1093.18 68.6348H1093.11C1092.63 69.2383 1092.15 69.6484 1091.66 69.8652C1091.19 70.0762 1090.6 70.1816 1089.88 70.1816C1088.93 70.1816 1088.18 69.9355 1087.63 69.4434C1087.09 68.9512 1086.82 68.251 1086.82 67.3428C1086.82 65.3975 1088.38 64.3779 1091.49 64.2842L1093.12 64.2314V63.6338C1093.12 62.8779 1092.96 62.3213 1092.63 61.9639C1092.31 61.6006 1091.79 61.4189 1091.08 61.4189C1090.27 61.4189 1089.36 61.665 1088.35 62.1572L1087.9 61.041C1088.38 60.7832 1088.9 60.5811 1089.46 60.4346C1090.03 60.2881 1090.6 60.2148 1091.16 60.2148C1092.31 60.2148 1093.16 60.4697 1093.71 60.9795C1094.27 61.4893 1094.55 62.3066 1094.55 63.4316V70.0059H1093.47ZM1090.17 68.9775C1091.08 68.9775 1091.79 68.7285 1092.31 68.2305C1092.83 67.7324 1093.09 67.0352 1093.09 66.1387V65.2686L1091.63 65.3301C1090.47 65.3711 1089.63 65.5527 1089.12 65.875C1088.61 66.1914 1088.35 66.6865 1088.35 67.3604C1088.35 67.8877 1088.51 68.2891 1088.83 68.5645C1089.15 68.8398 1089.6 68.9775 1090.17 68.9775ZM1104.15 70.0059V63.7744C1104.15 62.9893 1103.98 62.4033 1103.62 62.0166C1103.26 61.6299 1102.7 61.4365 1101.94 61.4365C1100.93 61.4365 1100.19 61.709 1099.72 62.2539C1099.26 62.7988 1099.02 63.6982 1099.02 64.9521V70.0059H1097.56V60.373H1098.75L1098.99 61.6914H1099.06C1099.35 61.2168 1099.77 60.8506 1100.31 60.5928C1100.85 60.3291 1101.45 60.1973 1102.11 60.1973C1103.27 60.1973 1104.15 60.4785 1104.73 61.041C1105.32 61.5977 1105.61 62.4912 1105.61 63.7217V70.0059H1104.15Z" fill="black"/>
</svg>
