<svg width="49" height="70" viewBox="0 0 49 70" fill="none" xmlns="http://www.w3.org/2000/svg">
<g clip-path="url(#clip0_361_185)">
<path d="M22.877 0.900195C22.577 0.700195 22.377 0.700195 22.377 0.700195C22.377 0.700195 22.577 0.800195 22.877 0.900195Z" fill="#FECB00"/>
<path d="M47.2768 24.7004C47.2768 25.6004 47.3768 26.5004 47.3768 27.5004C47.6768 40.7004 37.1768 50.9004 37.1768 50.9004C37.1768 50.9004 44.4768 39.3004 45.0768 30.2004C45.2768 26.3004 44.7768 23.3004 44.1768 21.2004C43.6768 19.6004 42.5768 18.2004 40.9768 17.6004C39.9768 17.2004 38.9768 16.9004 37.8768 16.7004C39.0768 16.2004 40.3768 15.3004 41.6768 13.6004C44.2768 10.1004 45.8768 9.60039 46.5768 9.60039C44.7768 9.40039 37.2768 8.70039 34.6768 12.3004C33.7768 6.60039 25.0768 2.00039 22.8768 0.900391C23.6768 1.40039 25.1768 3.20039 25.5768 9.10039C25.8768 12.8004 27.1768 15.1004 28.5768 16.6004C27.5768 16.8004 26.5768 17.0004 25.6768 17.4004C21.4768 19.1004 17.5768 23.4004 17.1768 33.4004C16.1768 56.9004 -6.22324 61.7004 3.17676 67.8004C17.8768 77.1004 56.1768 54.1004 47.2768 24.7004Z" fill="#FECB00"/>
</g>
<defs>
<clipPath id="clip0_361_185">
<rect width="47.6" height="69.2" fill="white" transform="translate(0.976562 0.700195)"/>
</clipPath>
</defs>
</svg>
