<svg width="41" height="52" viewBox="0 0 41 52" fill="none" xmlns="http://www.w3.org/2000/svg">
<path d="M3.78722 45.9506C3.78722 45.9506 0.974044 42.7766 2.64111 39.7934C0.748295 41.8227 -0.397821 44.7365 0.921943 47.4768C2.7974 51.3966 10.6118 52.2811 17.6969 49.6102C12.4004 51.0671 6.66987 49.402 3.78722 45.9506Z" fill="#009444"/>
<path d="M24.4519 41.4237C24.4519 41.4064 24.4519 41.4064 24.4519 41.4064C25.3202 34.4861 21.031 33.0292 17.3842 32.7343C17.2627 32.717 17.1238 32.717 17.0022 32.6996C16.4118 32.6649 15.8387 32.6476 15.3178 32.6476H7.60758C7.41656 32.6476 7.24291 32.6476 7.08662 32.6302H6.37465C4.79441 32.6302 3.49202 31.3294 3.49202 29.7511C3.49202 28.8492 3.90878 28.0514 4.56866 27.5137C0.296798 29.7511 0.348907 34.0698 0.348907 34.0698C0.348907 36.55 1.68602 37.9896 3.16207 38.7007C5.52375 39.5506 7.78124 39.4291 8.44112 39.4291H16.0645H17.1585C21.8471 39.4291 22.4202 42.8286 22.4202 42.8286C22.4202 42.8286 22.4202 42.8633 22.4375 42.9327C22.4723 43.453 22.507 45.7251 20.51 47.789C22.5765 46.1066 23.5663 44.3202 24.0178 43.0541C26.7441 43.1408 29.8525 42.6551 32.8046 41.5451C30.0088 42.343 27.0393 42.2215 24.4519 41.4237Z" fill="#009444"/>
<path d="M30.4779 24.5999H22.7677C22.5767 24.5999 22.4031 24.5999 22.2468 24.5826H21.5348C21.3264 24.5826 21.118 24.5653 20.927 24.5132C21.9342 23.2298 22.5073 21.7035 22.5073 20.0905C22.5073 20.0731 22.5073 20.0384 22.5073 20.0211C23.7749 20.4027 25.1468 20.6281 26.5881 20.6281C32.7007 20.6281 37.6672 16.7777 37.6672 12.0428C37.6672 7.30785 32.7007 3.45746 26.5881 3.45746C20.4755 3.45746 15.509 7.30785 15.509 12.0428C15.509 12.0601 15.509 12.0948 15.509 12.1122C14.2414 11.7306 12.8695 11.5051 11.4282 11.5051C5.31559 11.5051 0.349121 15.3555 0.349121 20.0905C0.349121 24.8254 5.31559 28.6758 11.4282 28.6758C12.9911 28.6758 14.4845 28.4157 15.8216 27.9647C16.3078 29.2829 17.2803 30.1501 18.3222 30.653C18.3049 30.653 18.3396 30.653 18.3222 30.653C20.6839 31.5029 22.9414 31.3815 23.6013 31.3815H32.3187C37.0073 31.3815 37.5804 34.7809 37.5804 34.7809C37.5804 34.7809 37.9277 37.3999 35.6702 39.7587C39.3864 36.7408 39.5947 33.324 39.5947 33.324C40.654 25.0509 34.2636 24.5999 30.4779 24.5999ZM26.5707 3.97778C28.7414 3.97778 30.4953 7.58536 30.4953 12.0601C30.4953 16.5176 28.7414 20.1425 26.5707 20.1425C24.4001 20.1425 22.6462 16.5349 22.6462 12.0601C22.6462 7.6027 24.4001 3.97778 26.5707 3.97778ZM11.4282 28.1902C9.25751 28.1902 7.50362 24.5826 7.50362 20.1078C7.50362 15.6504 9.25751 12.0255 11.4282 12.0255C13.5988 12.0255 15.3528 15.633 15.3528 20.1078C15.3528 24.5653 13.5988 28.1902 11.4282 28.1902Z" fill="#009444"/>
<path d="M38.431 1.93118C38.6394 2.88511 39.7507 3.59622 39.7507 3.59622C40.9663 4.48077 41.0705 5.43469 40.8621 6.1458C40.5148 7.39458 38.9693 7.88021 37.7711 7.11707C37.7537 7.09973 37.7364 7.09973 37.719 7.08238C36.2256 6.12846 35.6352 4.20326 36.1561 2.15665C36.7118 0.127389 38.2226 0.959908 38.431 1.93118Z" fill="#FECB00"/>
</svg>
