<svg width="95" height="76" viewBox="0 0 95 76" fill="none" xmlns="http://www.w3.org/2000/svg">
<path d="M34.5964 20.0144C30.3964 24.4144 24.6964 27.2144 18.7964 28.5144C12.8964 29.9144 6.79639 29.8144 0.796387 29.0144C7.19639 26.9144 12.4964 22.6144 18.2964 19.2144C22.1964 16.9144 26.5964 14.9144 31.0964 14.3144C32.2964 14.2144 36.5964 13.6144 37.3964 14.8144C38.1964 16.2144 35.4964 19.2144 34.5964 20.0144Z" fill="#849A31"/>
<path d="M37.2964 14.815C38.5964 15.715 35.1964 19.415 34.5964 20.015C30.3964 24.415 24.6964 27.215 18.7964 28.515C12.9964 29.815 6.69639 29.915 0.796387 28.915C2.09639 29.115 3.29639 28.515 4.49639 28.315C5.89639 28.115 7.39639 27.815 8.79639 27.515C15.4964 26.115 21.7964 23.215 27.5964 19.515C29.0964 18.515 30.5964 17.515 32.0964 16.615C32.8964 16.115 33.6964 15.715 34.5964 15.415C35.1964 15.315 36.7964 14.515 37.2964 14.815Z" fill="#7E912F"/>
<path d="M27.2964 31.6141C27.4964 37.3141 29.1964 42.9141 31.2964 48.2141C37.8964 64.514 53.9964 70.8141 70.1964 74.0141C74.5964 74.9141 79.1964 75.714 83.6964 74.814C88.0964 73.914 92.4964 71.114 93.8964 66.814C95.4964 61.914 92.9964 56.714 91.0964 51.814C87.6964 43.314 86.1964 34.1141 82.9964 25.5141C79.8964 16.9141 74.8964 8.41405 66.7964 4.01405C57.9964 -0.785951 47.2964 1.11405 39.3964 6.81405C32.6964 11.614 27.4964 21.714 27.2964 29.814C27.2964 30.414 27.2964 31.0141 27.2964 31.6141Z" fill="#F2CE36"/>
<path opacity="0.15" d="M48.3965 14.7155C54.2965 16.5155 59.6965 19.7155 64.0965 24.1155C65.5965 25.6155 67.6965 27.4155 69.5965 26.4155C70.0965 26.1155 70.4965 25.7155 70.8965 25.2155C72.8965 22.0155 71.2965 17.7155 68.8965 14.8155C64.3965 9.31549 57.2965 6.11549 50.1965 6.31549C41.5965 6.41549 39.5965 12.0155 48.3965 14.7155Z" fill="white"/>
<path opacity="0.25" d="M63.3964 69.8145C63.1964 69.7145 62.9964 69.6145 62.8964 69.4145C62.7964 69.1145 62.8964 68.8145 63.0964 68.5145C64.1964 66.9145 66.4964 67.2145 68.2964 67.4145C72.2964 67.9145 76.3964 67.4145 80.2964 66.0145C83.6964 64.8145 87.1964 62.8145 90.5964 63.4145C90.9964 63.5145 91.3964 63.6145 91.6964 63.9145C91.9964 64.2145 92.0964 64.6145 92.0964 65.0145C92.2964 66.8145 91.1964 68.5145 89.7964 69.6145C88.3964 70.7145 86.6964 71.1145 84.9964 71.5145C77.5964 73.0145 70.1964 73.2145 63.3964 69.8145Z" fill="#E2B440"/>
<path opacity="0.33" d="M36.9965 10.0139C37.1965 10.3139 37.1965 10.7139 37.1965 11.1139C37.1965 12.1139 36.1965 13.6139 35.4965 14.4139C35.0965 14.9139 34.3965 15.2139 33.7965 15.2139C33.6965 15.2139 33.5965 15.2139 33.4965 15.1139C33.3965 15.0139 33.3965 14.9139 33.3965 14.8139C33.3965 13.4139 34.7965 12.4139 35.4965 11.2139C35.6965 10.9139 35.7965 10.5139 36.0965 10.2139C36.4965 9.61394 36.7965 9.71394 36.9965 10.0139Z" fill="#E2B440"/>
<path d="M36.0963 11.3143C35.6963 10.3143 33.5963 8.91433 32.5963 9.81433C32.4963 9.91433 32.3963 10.1143 32.2963 10.2143C32.0963 10.5143 31.8963 10.9143 31.9963 11.3143C31.9963 12.2143 33.6963 12.6143 34.2963 13.1143C34.3963 13.2143 34.4963 13.3143 34.6963 13.4143C34.8963 13.5143 35.1963 13.4143 35.2963 13.2143C36.0963 12.4143 36.2963 11.8143 36.0963 11.3143Z" fill="#C67640"/>
<path d="M29.9963 14.9148C25.7963 14.5148 21.7963 12.6148 18.4963 9.91484C15.1963 7.21484 12.5963 3.81484 10.4963 0.214844C14.3963 2.81484 18.9963 3.91484 23.3963 5.51484C26.3963 6.61484 29.2963 8.21484 31.5963 10.4148C32.1963 11.0148 34.2963 13.1148 33.9963 14.0148C33.5963 15.2148 30.7963 15.0148 29.9963 14.9148Z" fill="#849A31"/>
<path d="M33.9963 14.1148C34.0963 15.2148 30.5963 14.9148 29.9963 14.9148C25.7963 14.5148 21.7963 12.6148 18.4963 9.91484C15.2963 7.31484 12.4963 3.91484 10.4963 0.214844C10.8963 1.01484 11.7963 1.41484 12.4963 2.01484C13.1963 2.71484 13.9963 3.41484 14.7963 4.01484C18.3963 7.11484 22.7963 9.31484 27.2963 10.8148C28.4963 11.2148 29.6963 11.6148 30.7963 12.0148C31.3963 12.2148 31.9963 12.5148 32.4963 12.8148C32.7963 13.2148 33.8963 13.7148 33.9963 14.1148Z" fill="#7E912F"/>
</svg>
