<svg width="49" height="70" viewBox="0 0 49 70" fill="none" xmlns="http://www.w3.org/2000/svg">
<g clip-path="url(#clip0_361_174)">
<path d="M22.8438 0.900195C22.5437 0.700195 22.3438 0.700195 22.3438 0.700195C22.3438 0.700195 22.5437 0.800195 22.8438 0.900195Z" fill="#FFC05C"/>
<path d="M47.2436 24.7004C47.2436 25.6004 47.3436 26.5004 47.3436 27.5004C47.6436 40.7004 37.1436 50.9004 37.1436 50.9004C37.1436 50.9004 44.4436 39.3004 45.0436 30.2004C45.2436 26.3004 44.7436 23.3004 44.1436 21.2004C43.6436 19.6004 42.5436 18.2004 40.9436 17.6004C39.9436 17.2004 38.9436 16.9004 37.8436 16.7004C39.0436 16.2004 40.3436 15.3004 41.6436 13.6004C44.2436 10.1004 45.8436 9.60039 46.5436 9.60039C44.7436 9.40039 37.2436 8.70039 34.6436 12.3004C33.7436 6.60039 25.0436 2.00039 22.8436 0.900391C23.6436 1.40039 25.1436 3.20039 25.5436 9.10039C25.8436 12.8004 27.1436 15.1004 28.5436 16.6004C27.5436 16.8004 26.5436 17.0004 25.6436 17.4004C21.4436 19.1004 17.5436 23.4004 17.1436 33.4004C16.1436 56.9004 -6.25644 61.7004 3.14356 67.8004C17.8436 77.1004 56.1436 54.1004 47.2436 24.7004Z" fill="#FFC05C"/>
</g>
<defs>
<clipPath id="clip0_361_174">
<rect width="47.6" height="69.2" fill="white" transform="translate(0.943359 0.700195)"/>
</clipPath>
</defs>
</svg>
