<svg width="207" height="73" viewBox="0 0 207 73" fill="none" xmlns="http://www.w3.org/2000/svg">
<path d="M125.635 65.0965C125.635 65.0965 121.633 60.5804 124.005 56.3358C121.311 59.2231 119.681 63.3691 121.558 67.2682C124.227 72.8455 135.346 74.1041 145.427 70.3036C137.891 72.3766 129.737 70.0322 125.635 65.0965Z" fill="white"/>
<path d="M155.038 58.6555C155.038 58.6309 155.038 58.6309 155.038 58.6309C156.274 48.7842 150.171 46.7113 144.982 46.2917C144.809 46.2671 144.611 46.2671 144.438 46.2424C143.598 46.193 142.783 46.1684 142.042 46.1684H131.071C130.799 46.1684 130.552 46.1683 130.33 46.1437H129.317C127.068 46.1437 125.215 44.2928 125.215 42.0471C125.215 40.7638 125.808 39.6286 126.747 38.8636C120.669 42.0471 120.743 48.192 120.743 48.192C120.743 51.721 122.646 53.7692 124.746 54.781C128.106 55.9903 131.318 55.8175 132.257 55.8175H143.104H144.661C151.332 55.8175 152.147 60.6545 152.147 60.6545C152.147 60.6545 152.147 60.7038 152.172 60.8025C152.221 61.5429 152.271 64.7757 149.429 67.7124C152.37 65.3187 153.778 62.7768 154.421 60.9753C158.3 61.0987 162.723 60.4077 166.923 58.8283C162.945 59.9635 158.72 59.8154 155.038 58.6555Z" fill="white"/>
<path d="M163.612 34.7423H152.642C152.37 34.7423 152.123 34.7423 151.9 34.7176H150.887C150.591 34.7176 150.294 34.693 150.023 34.6189C151.456 32.7927 152.271 30.6211 152.271 28.326C152.271 28.3013 152.271 28.2519 152.271 28.2273C154.075 28.7702 156.027 29.091 158.078 29.091C166.775 29.091 173.841 23.6124 173.841 16.8753C173.841 10.1381 166.775 4.65955 158.078 4.65955C149.38 4.65955 142.314 10.1381 142.314 16.8753C142.314 16.9 142.314 16.9493 142.314 16.974C140.51 16.4311 138.558 16.1103 136.507 16.1103C127.81 16.1103 120.743 21.5888 120.743 28.326C120.743 35.0631 127.81 40.5417 136.507 40.5417C138.731 40.5417 140.856 40.1715 142.758 39.5299C143.45 41.4054 144.834 42.6394 146.316 43.355C146.292 43.355 146.341 43.355 146.316 43.355C149.677 44.5643 152.889 44.3915 153.828 44.3915H166.231C172.903 44.3915 173.718 49.2284 173.718 49.2284C173.718 49.2284 174.212 52.9549 171 56.3111C176.288 52.0171 176.584 47.1555 176.584 47.1555C178.091 35.3593 168.999 34.7423 163.612 34.7423ZM158.053 5.39989C161.141 5.39989 163.637 10.533 163.637 16.8999C163.637 23.2423 161.141 28.4 158.053 28.4C154.964 28.4 152.469 23.2669 152.469 16.8999C152.469 10.533 154.964 5.39989 158.053 5.39989ZM136.507 39.826C133.419 39.826 130.923 34.693 130.923 28.326C130.923 21.9837 133.419 16.8259 136.507 16.8259C139.596 16.8259 142.091 21.959 142.091 28.326C142.091 34.6683 139.596 39.826 136.507 39.826Z" fill="white"/>
<path d="M9.75305 16.6779H0.437988V48.0439H9.75305V16.6779Z" fill="white"/>
<path d="M21.3412 16.7766H18.1539C15.2877 16.7766 12.7674 18.1832 11.2108 20.3549C12.1744 19.2444 13.6075 18.5287 15.1889 18.5287C18.0797 18.5287 20.427 20.8732 20.427 23.7605V48.1673H29.8656V25.3152C29.8656 20.6017 26.0358 16.7766 21.3412 16.7766Z" fill="white"/>
<path d="M41.3797 16.7272H38.1924C35.3262 16.7272 32.8059 18.1338 31.2493 20.3055C32.2129 19.195 33.646 18.4793 35.2273 18.4793C38.1182 18.4793 40.4655 20.8238 40.4655 23.7111V48.0932H49.9041V25.2412C49.9041 20.5523 46.0743 16.7272 41.3797 16.7272Z" fill="white"/>
<path d="M96.3806 16.6779H87.0656V48.0439H96.3806V16.6779Z" fill="white"/>
<path d="M107.969 16.7766H104.781C101.915 16.7766 99.395 18.1832 97.8384 20.3549C98.802 19.2444 100.235 18.5287 101.816 18.5287C104.707 18.5287 107.055 20.8732 107.055 23.7605V48.1673H116.493V25.3152C116.468 20.6017 112.663 16.7766 107.969 16.7766Z" fill="white"/>
<path d="M62.0359 28.1779C64.9698 28.1779 67.3482 25.8024 67.3482 22.8721C67.3482 19.9418 64.9698 17.5663 62.0359 17.5663C59.102 17.5663 56.7236 19.9418 56.7236 22.8721C56.7236 25.8024 59.102 28.1779 62.0359 28.1779Z" fill="white"/>
<path d="M64.8774 46.9334C64.1608 45.9462 63.8149 44.0707 63.8149 41.2574C63.8149 38.3947 64.235 36.0256 65.0503 34.1254C65.6928 32.6694 66.4834 31.7069 67.4718 31.1887C66.7058 31.2133 65.8904 31.2627 65.0503 31.3367C63.1478 31.4848 61.3688 31.8303 59.6886 32.3979C58.0085 32.9655 56.6001 33.8292 55.4635 35.0138C54.3269 36.1737 53.7339 37.7777 53.7339 39.7767C53.7339 42.2692 54.6728 44.2681 56.5754 45.7735C58.4779 47.3035 61.27 48.0439 65.0009 48.0439C65.3221 48.0439 65.6433 48.0192 65.9645 47.9945C65.5939 47.7477 65.2233 47.4023 64.8774 46.9334Z" fill="white"/>
<path d="M82.198 41.1833V29.3378C82.198 27.4869 81.8768 25.7841 81.2097 24.2541C80.5672 22.724 79.5789 21.3914 78.2941 20.2562C77.0092 19.121 75.4279 18.2573 73.5748 17.6156C71.7216 16.974 69.5967 16.6779 67.1753 16.6779C65.7916 16.6779 64.5315 16.7766 63.4443 16.974C63.6173 16.9493 63.7902 16.9493 63.9879 16.9493H65.2975C67.0765 16.9493 68.7072 17.6897 69.8685 18.8495C70.2886 19.1704 70.6592 19.5899 70.9804 20.1081C71.524 20.9719 71.9687 22.1564 72.2652 23.6371C72.5617 25.1178 72.71 27.018 72.71 29.3378V30.6211V31.0653V40.7885L72.7594 47.4516L82.198 47.4763V41.1833Z" fill="white"/>
<path d="M186.838 28.1779C189.772 28.1779 192.15 25.8024 192.15 22.8721C192.15 19.9418 189.772 17.5663 186.838 17.5663C183.904 17.5663 181.526 19.9418 181.526 22.8721C181.526 25.8024 183.904 28.1779 186.838 28.1779Z" fill="white"/>
<path d="M189.679 46.9334C188.963 45.9462 188.617 44.0707 188.617 41.2574C188.617 38.3947 189.037 36.0256 189.852 34.1254C190.495 32.6694 191.286 31.7069 192.274 31.1887C191.508 31.2133 190.693 31.2627 189.852 31.3367C187.95 31.4848 186.171 31.8303 184.491 32.3979C182.811 32.9655 181.402 33.8292 180.266 35.0138C179.129 36.1737 178.536 37.7777 178.536 39.7767C178.536 42.2692 179.475 44.2681 181.377 45.7735C183.28 47.3035 186.072 48.0439 189.803 48.0439C190.124 48.0439 190.445 48.0192 190.767 47.9945C190.396 47.7477 190.025 47.4023 189.679 46.9334Z" fill="white"/>
<path d="M206.975 41.1833V29.3378C206.975 27.4869 206.654 25.7841 205.987 24.2541C205.345 22.724 204.356 21.3914 203.071 20.2562C201.787 19.121 200.205 18.2573 198.352 17.6156C196.499 16.974 194.374 16.6779 191.953 16.6779C190.569 16.6779 189.309 16.7766 188.222 16.974C188.395 16.9493 188.568 16.9493 188.765 16.9493H190.075C191.854 16.9493 193.485 17.6897 194.646 18.8495C195.066 19.1704 195.437 19.5899 195.758 20.1081C196.301 20.9719 196.746 22.1564 197.043 23.6371C197.339 25.1178 197.487 27.018 197.487 29.3378V30.6211V31.0653V40.7885L197.537 47.4516L206.975 47.4763V41.1833Z" fill="white"/>
<path d="M174.929 2.46314C175.225 3.82044 176.806 4.83225 176.806 4.83225C178.536 6.09083 178.684 7.44813 178.388 8.45994C177.894 10.2368 175.695 10.9277 173.99 9.84191C173.965 9.81723 173.94 9.81723 173.916 9.79255C171.791 8.43525 170.951 5.69599 171.692 2.78397C172.433 -0.128055 174.632 1.08116 174.929 2.46314Z" fill="white"/>
<path d="M3.03237 57.916H2.16757V60.2357C1.9452 60.2851 1.6487 60.3098 1.30278 60.3098C0.956864 60.3098 0.660364 60.2851 0.437988 60.2357V52.8816L0.512125 52.8076C1.15454 52.7829 1.67339 52.7829 2.09344 52.7829C2.51348 52.7829 2.83469 52.7829 3.05707 52.7829C3.4524 52.7829 3.82304 52.8323 4.14424 52.9556C4.46545 53.0544 4.76196 53.2271 4.98433 53.4492C5.20671 53.6713 5.40437 53.9428 5.52791 54.2636C5.65145 54.5844 5.72559 54.9546 5.72559 55.3741C5.72559 55.7936 5.65145 56.1638 5.52791 56.4846C5.40437 56.8054 5.20671 57.0769 4.98433 57.299C4.76196 57.5211 4.46545 57.6692 4.14424 57.7926C3.77362 57.8419 3.4277 57.916 3.03237 57.916ZM2.16757 54.0662V56.608C2.36524 56.608 2.5382 56.5833 2.66174 56.5833C2.78528 56.5833 2.85941 56.5833 2.90883 56.5833C3.10649 56.5833 3.27945 56.5587 3.40299 56.4846C3.52653 56.4106 3.65009 56.3366 3.72421 56.2132C3.79834 56.0898 3.87245 55.9664 3.89716 55.8183C3.92187 55.6702 3.94657 55.4975 3.94657 55.3494C3.94657 55.2014 3.92187 55.0286 3.89716 54.8805C3.87245 54.7325 3.79834 54.5844 3.72421 54.4857C3.65009 54.3623 3.55124 54.2883 3.4277 54.2142C3.30415 54.1402 3.15592 54.1155 2.98296 54.1155C2.81 54.1155 2.66174 54.1155 2.5382 54.1155C2.38995 54.0908 2.26641 54.0908 2.16757 54.0662Z" fill="white"/>
<path d="M9.58017 58.0386V58.8283C9.90137 58.8036 10.1732 58.8036 10.3708 58.8036H12.8911C12.8911 59.0751 12.8911 59.2725 12.8664 59.4205C12.7675 59.9881 12.4216 60.2596 11.7545 60.2596H8.86362C8.54241 60.2596 8.29533 60.1609 8.12237 59.9881C7.94941 59.8154 7.85059 59.5686 7.85059 59.2478V52.8808L7.92472 52.8068H12.6193C12.6687 53.0289 12.6934 53.251 12.6934 53.4978C12.6934 53.7445 12.644 53.9913 12.5452 54.2628H9.58017V55.0525V55.8175C9.77783 55.8175 10.0249 55.8175 10.3214 55.8175H11.9769C12.051 56.0149 12.0757 56.2617 12.0757 56.5085C12.0757 56.78 12.051 57.0021 11.9769 57.2242H9.58017V58.0386Z" fill="white"/>
<path d="M17.9316 54.2628V55.0525V60.2349C17.6845 60.2843 17.388 60.3089 17.0668 60.3089C16.7208 60.3089 16.449 60.2843 16.202 60.2349V54.2628H15.5101H14.3982C14.3488 54.0407 14.3241 53.8185 14.3241 53.5471C14.3241 53.2756 14.3488 53.0288 14.3982 52.8314H19.76C19.8094 53.0288 19.8588 53.2509 19.8588 53.5224C19.8588 53.7939 19.7847 53.9913 19.6364 54.1147C19.4882 54.2381 19.2658 54.2874 18.9446 54.2874H18.6234L17.9316 54.2628Z" fill="white"/>
<path d="M27.0489 55.1019C27.0489 55.3486 27.0242 55.5707 26.9501 55.7928C26.876 56.0149 26.7771 56.1877 26.6536 56.3604C26.53 56.5332 26.3818 56.6813 26.2335 56.8046C26.0606 56.928 25.9123 57.0268 25.7394 57.1008C26.11 57.2489 26.4065 57.5697 26.5794 58.0879L26.9006 59.001C27.0242 59.3712 27.1972 59.6426 27.4442 59.8154C27.3454 59.9635 27.1725 60.0869 26.9501 60.1856C26.7277 60.2843 26.5053 60.3336 26.2335 60.3336C25.9617 60.3336 25.7641 60.2596 25.6158 60.1115C25.4676 59.9635 25.344 59.692 25.2205 59.3465L24.8251 58.2113C24.751 57.9892 24.6275 57.8165 24.5039 57.7177C24.3804 57.5944 24.158 57.545 23.9109 57.545H23.4662V60.2596C23.2438 60.309 22.9473 60.3336 22.6014 60.3336C22.2554 60.3336 21.9589 60.309 21.7366 60.2596V52.9055L21.8107 52.8314C22.4531 52.8068 22.972 52.8068 23.3921 52.8068C23.8121 52.8068 24.158 52.8068 24.4051 52.8068C24.8004 52.8068 25.1711 52.8561 25.4923 52.9548C25.8135 53.0536 26.0853 53.2016 26.3324 53.399C26.5794 53.5965 26.7277 53.8433 26.8759 54.1394C26.9748 54.3615 27.0489 54.707 27.0489 55.1019ZM23.4415 54.0407V56.1877C23.7627 56.1877 24.0345 56.1877 24.2816 56.163C24.5039 56.163 24.7016 56.1137 24.8499 56.0396C24.9981 55.9656 25.0969 55.8669 25.1711 55.7188C25.2452 55.5707 25.2699 55.3733 25.2699 55.1265C25.2699 54.4109 24.924 54.0654 24.2569 54.0654C24.0839 54.0654 23.9356 54.0654 23.8121 54.0654C23.6638 54.0407 23.5403 54.0407 23.4415 54.0407Z" fill="white"/>
<path d="M30.0139 59.7167C29.248 59.075 28.8527 58.0139 28.8527 56.5332C28.8527 55.8915 28.9268 55.3486 29.075 54.8551C29.2233 54.3615 29.4457 53.9666 29.7175 53.6458C29.9892 53.325 30.3352 53.0782 30.7305 52.9055C31.1258 52.7327 31.5706 52.6587 32.0895 52.6587C32.6083 52.6587 33.0531 52.7327 33.4484 52.9055C33.8438 53.0782 34.1897 53.325 34.4615 53.6458C34.7333 53.9666 34.9557 54.3862 35.1039 54.8551C35.2522 55.3486 35.3263 55.8915 35.3263 56.5332C35.3263 57.1748 35.2522 57.7177 35.1039 58.2113C34.9557 58.7049 34.7333 59.0997 34.4615 59.4205C34.1897 59.7414 33.8438 59.9881 33.4484 60.1609C33.0531 60.3336 32.5836 60.4077 32.0895 60.4077C31.2494 60.383 30.5822 60.1609 30.0139 59.7167ZM30.9035 58.2113C31.1011 58.7789 31.4965 59.0504 32.0895 59.0504C32.386 59.0504 32.6331 58.9763 32.806 58.8283C32.979 58.6802 33.1272 58.4828 33.2508 58.2607C33.3496 58.0386 33.4237 57.7671 33.4731 57.4956C33.4978 57.2242 33.5226 56.928 33.5226 56.6566C33.5226 56.4098 33.5226 56.1136 33.4979 55.8175C33.4732 55.4967 33.4237 55.2252 33.3496 54.9538C33.2508 54.6823 33.1272 54.4602 32.9296 54.2628C32.7319 54.09 32.4601 53.9913 32.1142 53.9913C31.7682 53.9913 31.4965 54.09 31.3235 54.2628C31.1505 54.4355 31.0023 54.6576 30.9035 54.9291C30.8046 55.2006 30.7552 55.472 30.7305 55.7681C30.7058 56.0643 30.7058 56.3111 30.7058 56.5332C30.7058 56.854 30.7305 57.1748 30.7552 57.4216C30.7552 57.6684 30.8046 57.9398 30.9035 58.2113Z" fill="white"/>
<path d="M43.4306 59.8154C43.1835 60.1608 42.7882 60.3336 42.2693 60.3336C41.9728 60.3336 41.7504 60.2596 41.6021 60.1115C41.4539 59.9634 41.3304 59.692 41.2068 59.3465L40.7868 58.0879C40.688 57.7424 40.5397 57.4956 40.3914 57.3722C40.2432 57.2241 40.0208 57.1501 39.7737 57.1501C39.6749 57.1501 39.5267 57.1501 39.3043 57.1748V60.2596C39.0819 60.3089 38.7854 60.3336 38.4395 60.3336C38.0936 60.3336 37.7971 60.3089 37.5747 60.2596V52.8314C37.7971 52.7821 38.0936 52.7574 38.4395 52.7574C38.7854 52.7574 39.0819 52.7821 39.3043 52.8314V55.6941H39.6008C39.7243 55.6941 39.8231 55.6694 39.8973 55.6201C39.9467 55.5707 40.0208 55.472 40.0949 55.3239L41.1327 53.3743C41.2315 53.1522 41.3551 53.0042 41.4786 52.9054C41.6021 52.8067 41.7998 52.7574 42.0469 52.7574C42.3434 52.7574 42.6646 52.7821 43.0599 52.8067L43.1588 52.9301L41.8245 55.4226C41.6516 55.7434 41.4539 56.0149 41.2068 56.2123C41.5527 56.2864 41.7998 56.4344 41.9728 56.6319C42.1457 56.8293 42.294 57.1008 42.3928 57.4462L42.8376 58.8035C42.887 58.9763 42.9364 59.0997 42.9611 59.1737C42.9858 59.2478 43.0599 59.3958 43.1835 59.5686C43.2576 59.6179 43.3317 59.7166 43.4306 59.8154Z" fill="white"/>
<path d="M45.3826 60.2349V52.8067C45.6049 52.7573 45.9014 52.7327 46.2474 52.7327C46.5933 52.7327 46.8898 52.7573 47.1369 52.8067V60.2349C46.9145 60.2842 46.618 60.3089 46.2474 60.3089C45.9014 60.2842 45.6049 60.2842 45.3826 60.2349Z" fill="white"/>
<path d="M49.6077 60.2102L50.176 52.8314C50.4972 52.782 50.8678 52.7327 51.3126 52.7327C51.7573 52.7327 52.1279 52.7574 52.4491 52.8314L53.0915 55.4966C53.3386 56.7059 53.4869 57.3475 53.4869 57.4709H53.561C53.5857 57.2981 53.734 56.6318 53.9563 55.4966L54.5988 52.8314C54.92 52.782 55.2906 52.7327 55.7354 52.7327C56.1801 52.7327 56.5507 52.7574 56.8719 52.8314L57.4402 60.2102C57.2178 60.2595 56.9461 60.3089 56.6002 60.3089C56.2789 60.3089 56.0071 60.2842 55.7848 60.2595L55.6118 57.2488C55.5624 56.0396 55.5377 55.2005 55.513 54.7316H55.4388L54.3517 59.149C54.0799 59.1984 53.7834 59.223 53.4622 59.223C53.1163 59.223 52.8198 59.1984 52.5727 59.149L51.5102 54.7316H51.4361C51.4361 55.3733 51.4114 56.2123 51.3373 57.2488L51.1643 60.2595C50.9419 60.2842 50.6948 60.3089 50.3489 60.3089C50.1018 60.2842 49.83 60.2595 49.6077 60.2102Z" fill="white"/>
<path d="M59.9604 60.2349V52.8067C60.1828 52.7573 60.4793 52.7327 60.8252 52.7327C61.1712 52.7327 61.4677 52.7573 61.7148 52.8067V60.2349C61.4924 60.2842 61.1959 60.3089 60.8252 60.3089C60.4546 60.2842 60.1828 60.2842 59.9604 60.2349Z" fill="white"/>
<path d="M66.2117 58.6802C66.014 58.6802 65.8658 58.6802 65.7669 58.6802L65.2975 60.2596C65.1245 60.3089 64.8774 60.3336 64.5809 60.3336C64.235 60.3336 63.9385 60.2842 63.7408 60.2102L63.6914 60.1115L66.0881 52.8314C66.3599 52.7821 66.7058 52.7574 67.0765 52.7574C67.4965 52.7574 67.8424 52.7821 68.0895 52.8314L70.4368 60.1362C70.1897 60.2842 69.8932 60.3336 69.572 60.3336C69.2014 60.3336 68.9296 60.2596 68.7813 60.1362C68.6331 60.0128 68.5096 59.766 68.386 59.3958L68.1883 58.6802C68.0895 58.6802 67.9413 58.6802 67.7683 58.6802H66.2117ZM66.187 57.2982H66.6317H67.4224C67.4471 57.2982 67.5212 57.2982 67.6201 57.2982C67.7189 57.2982 67.7683 57.2982 67.8177 57.2982L67.6448 56.6319C67.4718 56.0149 67.2741 55.2746 67.0518 54.3861H66.9776C66.9282 54.707 66.7552 55.398 66.4587 56.4591L66.187 57.2982Z" fill="white"/>
<path d="M78.6647 56.0149H80.3696C81.1356 56.0149 81.5309 56.3851 81.5309 57.1008V59.9388C80.592 60.2349 79.6037 60.383 78.5906 60.383C78.0718 60.383 77.6023 60.2843 77.2069 60.1115C76.8116 59.9388 76.4657 59.692 76.1939 59.3712C75.9221 59.0503 75.7244 58.6555 75.5762 58.1619C75.4279 57.693 75.3785 57.1501 75.3785 56.5578C75.3785 55.8915 75.4774 55.3239 75.675 54.8304C75.8727 54.3368 76.1198 53.9419 76.441 53.5964C76.7622 53.2756 77.1328 53.0288 77.5529 52.8561C77.9729 52.6833 78.4177 52.6093 78.8624 52.6093C79.8013 52.6093 80.6908 52.8808 81.5062 53.399C81.5062 53.5224 81.4815 53.6211 81.4321 53.7445C81.3827 53.8679 81.3333 53.9913 81.2591 54.09C81.185 54.2134 81.1109 54.3121 81.012 54.3862C80.9132 54.4849 80.8391 54.5589 80.7403 54.6083C80.1473 54.2134 79.5295 54.016 78.9118 54.016C77.7258 54.016 77.1328 54.8304 77.1328 56.4838C77.1328 58.1372 77.7258 58.9516 78.9365 58.9516C79.1095 58.9516 79.2577 58.9516 79.4307 58.927C79.5789 58.9023 79.7519 58.9023 79.9002 58.8529V58.2113C79.9002 58.0385 79.9002 57.8905 79.9002 57.7671C79.9002 57.6437 79.9002 57.545 79.9249 57.4463H79.3813C79.0601 57.4463 78.8624 57.3969 78.7389 57.2735C78.6153 57.1501 78.5659 56.9774 78.5659 56.7059C78.5412 56.5085 78.5906 56.2617 78.6647 56.0149Z" fill="white"/>
<path d="M89.2646 55.1019C89.2646 55.3486 89.2399 55.5707 89.1657 55.7928C89.0916 56.0149 88.9928 56.1877 88.8693 56.3604C88.7457 56.5332 88.5974 56.6813 88.4492 56.8046C88.2762 56.928 88.128 57.0268 87.955 57.1008C88.3257 57.2489 88.6222 57.5697 88.7951 58.0879L89.1163 59.001C89.2399 59.3712 89.4128 59.6426 89.6599 59.8154C89.5611 59.9635 89.3881 60.0869 89.1657 60.1856C88.9434 60.2843 88.721 60.3336 88.4492 60.3336C88.1774 60.3336 87.9797 60.2596 87.8315 60.1115C87.6832 59.9635 87.5597 59.692 87.4362 59.3465L87.0408 58.2113C86.9667 57.9892 86.8431 57.8165 86.7196 57.7177C86.5961 57.5944 86.3737 57.545 86.1266 57.545H85.6819V60.2596C85.4595 60.309 85.163 60.3336 84.8171 60.3336C84.4711 60.3336 84.1746 60.309 83.9523 60.2596V52.9055L84.0264 52.8314C84.6688 52.8068 85.1877 52.8068 85.6077 52.8068C86.0278 52.8068 86.3737 52.8068 86.6208 52.8068C87.0161 52.8068 87.3867 52.8561 87.7079 52.9548C88.0291 53.0536 88.3009 53.2016 88.548 53.399C88.7951 53.5965 88.9434 53.8433 89.0916 54.1394C89.2152 54.3615 89.2646 54.707 89.2646 55.1019ZM85.6819 54.0407V56.1877C86.0031 56.1877 86.2749 56.1877 86.522 56.163C86.7443 56.163 86.942 56.1137 87.0902 56.0396C87.2385 55.9656 87.3373 55.8669 87.4115 55.7188C87.4856 55.5707 87.5103 55.3733 87.5103 55.1265C87.5103 54.4109 87.1644 54.0654 86.4973 54.0654C86.3243 54.0654 86.176 54.0654 86.0525 54.0654C85.8795 54.0407 85.7807 54.0407 85.6819 54.0407Z" fill="white"/>
<path d="M93.391 58.0386V58.8283C93.7122 58.8036 93.984 58.8036 94.1817 58.8036H96.7019C96.7019 59.0751 96.7019 59.2725 96.6772 59.4205C96.5784 59.9881 96.2325 60.2596 95.5653 60.2596H92.6744C92.3532 60.2596 92.1062 60.1609 91.9332 59.9881C91.7602 59.8154 91.6614 59.5686 91.6614 59.2478V52.8808L91.7355 52.8068H96.4301C96.4795 53.0289 96.5043 53.251 96.5043 53.4978C96.5043 53.7445 96.4548 53.9913 96.356 54.2628H93.391V55.0525V55.8175C93.5886 55.8175 93.8357 55.8175 94.1322 55.8175H95.7877C95.8618 56.0149 95.8865 56.2617 95.8865 56.5085C95.8865 56.78 95.8618 57.0021 95.7877 57.2242H93.391V58.0386Z" fill="white"/>
<path d="M98.2584 59.5933C98.2831 59.3465 98.3573 59.1244 98.4808 58.8776C98.6043 58.6308 98.7526 58.4334 98.9255 58.2853C99.6915 58.7542 100.433 59.001 101.125 59.001C101.421 59.001 101.643 58.927 101.792 58.8036C101.94 58.6555 102.014 58.5074 102.014 58.2853C102.014 57.9398 101.792 57.6684 101.322 57.471L100.037 56.928C99.5433 56.7059 99.1479 56.4345 98.8761 56.1137C98.6043 55.7928 98.4808 55.398 98.4808 54.9044C98.4808 54.5836 98.5549 54.2628 98.6785 53.9913C98.802 53.7199 98.9997 53.4731 99.2468 53.2757C99.4938 53.0782 99.7656 52.9055 100.112 52.8068C100.433 52.6834 100.803 52.634 101.223 52.634C102.039 52.634 102.854 52.8315 103.67 53.251C103.645 53.8186 103.447 54.2381 103.077 54.5589C102.335 54.2134 101.693 54.016 101.125 54.016C100.828 54.016 100.606 54.09 100.482 54.2134C100.334 54.3368 100.26 54.4849 100.26 54.6576C100.26 54.9291 100.482 55.1759 100.902 55.3486L102.212 55.8916C102.755 56.1137 103.175 56.4098 103.447 56.78C103.719 57.1502 103.843 57.5697 103.843 58.0386C103.843 58.3841 103.793 58.6802 103.67 58.9763C103.546 59.2478 103.373 59.4946 103.126 59.7167C102.879 59.9141 102.582 60.0869 102.212 60.2102C101.841 60.3336 101.421 60.383 100.952 60.383C100.013 60.383 99.1232 60.1362 98.2584 59.5933Z" fill="white"/>
<path d="M106.042 60.2349V52.8067C106.264 52.7573 106.561 52.7327 106.906 52.7327C107.252 52.7327 107.549 52.7573 107.796 52.8067V60.2349C107.574 60.2842 107.277 60.3089 106.906 60.3089C106.536 60.2842 106.264 60.2842 106.042 60.2349Z" fill="white"/>
<path d="M116.345 59.8154C116.098 60.1608 115.703 60.3336 115.184 60.3336C114.887 60.3336 114.665 60.2596 114.517 60.1115C114.368 59.9634 114.245 59.692 114.121 59.3465L113.701 58.0879C113.602 57.7424 113.454 57.4956 113.306 57.3722C113.158 57.2241 112.935 57.1501 112.688 57.1501C112.589 57.1501 112.441 57.1501 112.219 57.1748V60.2596C111.996 60.3089 111.7 60.3336 111.354 60.3336C111.008 60.3336 110.712 60.3089 110.489 60.2596V52.8314C110.712 52.7821 111.008 52.7574 111.354 52.7574C111.7 52.7574 111.996 52.7821 112.219 52.8314V55.6941H112.515C112.639 55.6941 112.738 55.6694 112.812 55.6201C112.886 55.5707 112.935 55.472 113.009 55.3239L114.047 53.3743C114.146 53.1522 114.27 53.0042 114.393 52.9054C114.517 52.8067 114.714 52.7574 114.961 52.7574C115.258 52.7574 115.579 52.7821 115.974 52.8067L116.073 52.9301L114.739 55.4226C114.566 55.7434 114.368 56.0149 114.121 56.2123C114.467 56.2864 114.714 56.4344 114.887 56.6319C115.06 56.8293 115.208 57.1008 115.307 57.4462L115.752 58.8035C115.801 58.9763 115.851 59.0997 115.876 59.1737C115.9 59.2478 115.974 59.3958 116.098 59.5686C116.172 59.6179 116.246 59.7166 116.345 59.8154Z" fill="white"/>
<path d="M1.84636 67.7868V63.8876H0.437988V63.1719H4.04541V63.8876H2.63704V67.7868H1.84636Z" fill="white"/>
<path d="M7.38104 67.7864V67.3422C7.13396 67.6137 6.71393 67.8605 6.19505 67.8605C5.4785 67.8605 5.13257 67.4903 5.13257 66.7993V64.4302H5.84912V66.5279C5.84912 67.0461 6.1209 67.1942 6.51624 67.1942C6.88687 67.1942 7.20808 66.9967 7.38104 66.75V64.4055H8.0976V67.7371H7.38104V67.7864Z" fill="white"/>
<path d="M14.0523 67.7865V65.6148C14.0523 65.2446 13.9041 65.0225 13.5087 65.0225C13.1875 65.0225 12.891 65.2446 12.7428 65.4667V67.8111H12.0262V65.6148C12.0262 65.2446 11.878 65.0225 11.4826 65.0225C11.1614 65.0225 10.8649 65.2446 10.7167 65.4667V67.7865H10.0001V64.4549H10.7167V64.8991C10.8649 64.7017 11.3097 64.3562 11.8039 64.3562C12.298 64.3562 12.5945 64.603 12.7181 64.9732C12.9157 64.677 13.3605 64.3562 13.8547 64.3562C14.4724 64.3562 14.8183 64.677 14.8183 65.368V67.7865H14.0523Z" fill="white"/>
<path d="M16.6467 67.7865V63.1716H17.3633V64.8991C17.6351 64.5536 18.0057 64.3562 18.4257 64.3562C19.2905 64.3562 19.9082 65.0225 19.9082 66.1083C19.9082 67.2189 19.2905 67.8605 18.4257 67.8605C17.981 67.8605 17.6104 67.6631 17.3633 67.3176V67.7618H16.6467V67.7865ZM18.2281 67.2435C18.8211 67.2435 19.167 66.7993 19.167 66.133C19.167 65.4667 18.7964 65.0225 18.2281 65.0225C17.8821 65.0225 17.5362 65.2199 17.3633 65.4667V66.7747C17.5362 67.0461 17.9069 67.2435 18.2281 67.2435Z" fill="white"/>
<path d="M23.8615 67.7864V67.3422C23.6145 67.6137 23.1944 67.8605 22.6755 67.8605C21.959 67.8605 21.613 67.4903 21.613 66.7993V64.4302H22.3296V66.5279C22.3296 67.0461 22.6014 67.1942 22.9967 67.1942C23.3674 67.1942 23.6886 66.9967 23.8615 66.75V64.4055H24.5781V67.7371H23.8615V67.7864Z" fill="white"/>
<path d="M28.7044 67.7865V65.6888C28.7044 65.1706 28.4326 65.0225 28.0372 65.0225C27.6666 65.0225 27.3454 65.2446 27.1724 65.4667V67.7865H26.4559V63.1716H27.1724V64.8991C27.3948 64.6276 27.8396 64.3562 28.3585 64.3562C29.075 64.3562 29.4456 64.7264 29.4456 65.4174V67.7865H28.7044Z" fill="white"/>
<path d="M34.0414 67.7865V63.1716H35.7463C37.1793 63.1716 38.1677 64.1341 38.1677 65.4914C38.1677 66.8487 37.2041 67.7865 35.7463 67.7865H34.0414ZM37.3276 65.4914C37.3276 64.603 36.784 63.8873 35.7463 63.8873H34.832V67.0708H35.7463C36.7593 67.0708 37.3276 66.3551 37.3276 65.4914Z" fill="white"/>
<path d="M41.8986 67.7865V67.4163C41.6516 67.6877 41.2562 67.8605 40.8115 67.8605C40.2679 67.8605 39.6501 67.4903 39.6501 66.75C39.6501 65.9849 40.2679 65.6641 40.8115 65.6641C41.2562 65.6641 41.6516 65.8122 41.8986 66.0837V65.5901C41.8986 65.1953 41.5774 64.9732 41.108 64.9732C40.7373 64.9732 40.4161 65.1212 40.1196 65.3927L39.8231 64.8991C40.2185 64.5289 40.6879 64.3562 41.2315 64.3562C41.9728 64.3562 42.6152 64.677 42.6152 65.5654V67.7865H41.8986ZM41.8986 67.0461V66.5525C41.7257 66.3304 41.4292 66.2071 41.108 66.2071C40.6879 66.2071 40.3914 66.4538 40.3914 66.7993C40.3914 67.1695 40.6879 67.3916 41.108 67.3916C41.4045 67.3916 41.7257 67.2682 41.8986 67.0461Z" fill="white"/>
<path d="M46.7415 67.7864V65.6888C46.7415 65.1705 46.4697 64.9978 46.0744 64.9978C45.7037 64.9978 45.3825 65.2199 45.2096 65.442V67.7618H44.493V64.4302H45.2096V64.8744C45.4319 64.6029 45.852 64.3315 46.3956 64.3315C47.1121 64.3315 47.4828 64.7263 47.4828 65.3926V67.7371H46.7415V67.7864Z" fill="white"/>
<path d="M52.0538 67.7865V63.1716H54.327C55.1671 63.1716 55.6365 63.6899 55.6365 64.3562C55.6365 64.9485 55.2659 65.3186 54.8459 65.4174C55.34 65.4914 55.7354 65.9849 55.7354 66.5525C55.7354 67.2682 55.2659 67.7865 54.4011 67.7865H52.0538ZM54.8212 64.5043C54.8212 64.1588 54.5741 63.912 54.1787 63.912H52.8939V65.0965H54.1787C54.5741 65.0965 54.8212 64.8498 54.8212 64.5043ZM54.8953 66.4292C54.8953 66.0837 54.6482 65.7875 54.1787 65.7875H52.8445V67.0708H54.1787C54.6482 67.0708 54.8953 66.8487 54.8953 66.4292Z" fill="white"/>
<path d="M57.2426 66.133C57.2426 65.1706 57.9591 64.3809 58.9474 64.3809C59.9605 64.3809 60.6029 65.1459 60.6029 66.207V66.3798H58.0085C58.0579 66.8733 58.4533 67.2929 59.071 67.2929C59.3922 67.2929 59.7875 67.1695 60.0099 66.9227L60.3311 67.3916C60.0099 67.7124 59.5157 67.8852 58.9721 67.8852C57.9838 67.8852 57.2426 67.1695 57.2426 66.133ZM58.9474 64.9731C58.3297 64.9731 58.0332 65.442 58.0085 65.8615H59.8864C59.8616 65.4667 59.5899 64.9731 58.9474 64.9731Z" fill="white"/>
<path d="M62.2336 67.7864V64.4549H62.9502V64.9485C63.1973 64.6276 63.5926 64.3809 64.0374 64.3809V65.0965C63.9632 65.0719 63.8891 65.0718 63.815 65.0718C63.5185 65.0718 63.0984 65.2693 62.9502 65.516V67.7864H62.2336Z" fill="white"/>
<path d="M64.3833 68.897L64.6057 68.354C64.7292 68.4528 64.8527 68.5515 65.0751 68.5515C65.3469 68.5515 65.5693 68.3787 65.5693 67.9839V64.4549H66.2858V67.9839C66.2858 68.6995 65.9152 69.1438 65.174 69.1438C64.8033 69.1438 64.6304 69.0697 64.3833 68.897ZM65.4705 63.5911C65.4705 63.3444 65.6681 63.1469 65.9152 63.1469C66.1623 63.1469 66.36 63.3444 66.36 63.5911C66.36 63.8379 66.1623 64.0354 65.9152 64.0354C65.6681 64.06 65.4705 63.8379 65.4705 63.5911Z" fill="white"/>
<path d="M70.1898 67.7865V67.4163C69.9427 67.6877 69.5473 67.8605 69.1026 67.8605C68.559 67.8605 67.9413 67.4903 67.9413 66.75C67.9413 65.9849 68.559 65.6641 69.1026 65.6641C69.5473 65.6641 69.9427 65.8122 70.1898 66.0837V65.5901C70.1898 65.1953 69.8685 64.9732 69.3991 64.9732C69.0285 64.9732 68.7072 65.1212 68.4107 65.3927L68.1143 64.8991C68.5096 64.5289 68.979 64.3562 69.5226 64.3562C70.2639 64.3562 70.9063 64.677 70.9063 65.5654V67.7865H70.1898ZM70.1898 67.0461V66.5525C70.0168 66.3304 69.7203 66.2071 69.3991 66.2071C68.979 66.2071 68.6825 66.4538 68.6825 66.7993C68.6825 67.1695 68.979 67.3916 69.3991 67.3916C69.7203 67.3916 70.0168 67.2682 70.1898 67.0461Z" fill="white"/>
<path d="M72.7594 68.4528C72.8336 68.4775 72.9571 68.5021 73.0312 68.5021C73.2536 68.5021 73.4019 68.4281 73.5007 68.206L73.6737 67.8358L72.3147 64.4549H73.0807L74.0443 66.9474L75.0079 64.4549H75.7986L74.1925 68.4034C73.9702 68.971 73.5748 69.1438 73.056 69.1685C72.9571 69.1685 72.7594 69.1438 72.6359 69.1191L72.7594 68.4528Z" fill="white"/>
<path d="M79.2331 67.7865V67.4163C78.986 67.6877 78.5907 67.8605 78.1459 67.8605C77.6023 67.8605 76.9846 67.4903 76.9846 66.75C76.9846 65.9849 77.6023 65.6641 78.1459 65.6641C78.5907 65.6641 78.986 65.8122 79.2331 66.0837V65.5901C79.2331 65.1953 78.9119 64.9732 78.4424 64.9732C78.0718 64.9732 77.7506 65.1212 77.4541 65.3927L77.1576 64.8991C77.5529 64.5289 78.0224 64.3562 78.5659 64.3562C79.3072 64.3562 79.9496 64.677 79.9496 65.5654V67.7865H79.2331ZM79.2331 67.0461V66.5525C79.0601 66.3304 78.7636 66.2071 78.4424 66.2071C78.0224 66.2071 77.7259 66.4538 77.7259 66.7993C77.7259 67.1695 78.0224 67.3916 78.4424 67.3916C78.7636 67.3916 79.0601 67.2682 79.2331 67.0461Z" fill="white"/>
<path d="M84.5453 67.7865V63.1716H86.8184C87.6585 63.1716 88.128 63.6899 88.128 64.3562C88.128 64.9485 87.7574 65.3186 87.3373 65.4174C87.8315 65.4914 88.2268 65.9849 88.2268 66.5525C88.2268 67.2682 87.7574 67.7865 86.8926 67.7865H84.5453ZM87.3126 64.5043C87.3126 64.1588 87.0655 63.912 86.6702 63.912H85.3854V65.0965H86.6702C87.0655 65.0965 87.3126 64.8498 87.3126 64.5043ZM87.4114 66.4292C87.4114 66.0837 87.1644 65.7875 86.6949 65.7875H85.3606V67.0708H86.6949C87.1397 67.0708 87.4114 66.8487 87.4114 66.4292Z" fill="white"/>
<path d="M89.7341 66.133C89.7341 65.1706 90.4507 64.3809 91.439 64.3809C92.452 64.3809 93.0944 65.1459 93.0944 66.207V66.3798H90.5248C90.5742 66.8733 90.9695 67.2929 91.5872 67.2929C91.9084 67.2929 92.3038 67.1695 92.5261 66.9227L92.8473 67.3916C92.5261 67.7124 92.032 67.8852 91.4884 67.8852C90.4754 67.8852 89.7341 67.1695 89.7341 66.133ZM91.439 64.9731C90.8213 64.9731 90.5248 65.442 90.5001 65.8615H92.3779C92.3532 65.4667 92.0814 64.9731 91.439 64.9731Z" fill="white"/>
<path d="M94.7251 67.7864V64.4549H95.4416V64.9485C95.6887 64.6276 96.0841 64.3809 96.5288 64.3809V65.0965C96.4547 65.0719 96.3806 65.0718 96.3064 65.0718C96.0099 65.0718 95.5899 65.2693 95.4416 65.516V67.7864H94.7251Z" fill="white"/>
<path d="M97.7643 67.3669L98.0855 66.8487C98.3326 67.0955 98.7773 67.3176 99.2221 67.3176C99.6668 67.3176 99.8892 67.1201 99.8892 66.8733C99.8892 66.207 97.8631 66.6759 97.8631 65.4173C97.8631 64.8744 98.3326 64.4055 99.1726 64.4055C99.7409 64.4055 100.161 64.6029 100.482 64.8744L100.186 65.3926C99.988 65.1705 99.6174 64.9978 99.1973 64.9978C98.8267 64.9978 98.5796 65.1706 98.5796 65.4173C98.5796 66.0096 100.606 65.5654 100.606 66.898C100.606 67.4903 100.112 67.9345 99.2221 67.9345C98.6291 67.8852 98.1102 67.6877 97.7643 67.3669Z" fill="white"/>
<path d="M104.287 67.7865V67.4163C104.04 67.6877 103.645 67.8605 103.2 67.8605C102.657 67.8605 102.039 67.4903 102.039 66.75C102.039 65.9849 102.657 65.6641 103.2 65.6641C103.645 65.6641 104.04 65.8122 104.287 66.0837V65.5901C104.287 65.1953 103.966 64.9732 103.497 64.9732C103.126 64.9732 102.805 65.1212 102.508 65.3927L102.212 64.8991C102.607 64.5289 103.077 64.3562 103.62 64.3562C104.361 64.3562 105.004 64.677 105.004 65.5654V67.7865H104.287ZM104.287 67.0461V66.5525C104.114 66.3304 103.818 66.2071 103.497 66.2071C103.077 66.2071 102.78 66.4538 102.78 66.7993C102.78 67.1695 103.077 67.3916 103.497 67.3916C103.818 67.3916 104.114 67.2682 104.287 67.0461Z" fill="white"/>
<path d="M110.983 67.7865V65.6148C110.983 65.2446 110.835 65.0225 110.44 65.0225C110.119 65.0225 109.822 65.2446 109.674 65.4667V67.8111H108.957V65.6148C108.957 65.2446 108.809 65.0225 108.414 65.0225C108.092 65.0225 107.796 65.2446 107.648 65.4667V67.7865H106.931V64.4549H107.648V64.8991C107.796 64.7017 108.241 64.3562 108.735 64.3562C109.229 64.3562 109.526 64.603 109.649 64.9732C109.847 64.677 110.291 64.3562 110.786 64.3562C111.403 64.3562 111.749 64.677 111.749 65.368V67.7865H110.983Z" fill="white"/>
<path d="M115.604 67.7865V67.4163C115.357 67.6877 114.961 67.8605 114.517 67.8605C113.973 67.8605 113.355 67.4903 113.355 66.75C113.355 65.9849 113.973 65.6641 114.517 65.6641C114.961 65.6641 115.357 65.8122 115.604 66.0837V65.5901C115.604 65.1953 115.282 64.9732 114.813 64.9732C114.442 64.9732 114.121 65.1212 113.825 65.3927L113.528 64.8991C113.924 64.5289 114.393 64.3562 114.937 64.3562C115.678 64.3562 116.32 64.677 116.32 65.5654V67.7865H115.604ZM115.604 67.0461V66.5525C115.431 66.3304 115.134 66.2071 114.813 66.2071C114.393 66.2071 114.096 66.4538 114.096 66.7993C114.096 67.1695 114.393 67.3916 114.813 67.3916C115.134 67.3916 115.455 67.2682 115.604 67.0461Z" fill="white"/>
</svg>
