<svg width="67" height="58" viewBox="0 0 67 58" fill="none" xmlns="http://www.w3.org/2000/svg">
<path d="M26.5569 0C18.7073 0 12.3264 6.17856 12.3264 13.7792C12.3264 21.3798 18.7073 27.5583 26.5569 27.5583C34.4065 27.5583 40.7874 21.3798 40.7874 13.7792C40.7874 6.17856 34.4065 0 26.5569 0ZM30.8716 19.1535C30.1323 19.6243 29.2612 19.9283 28.2585 20.0754V21.2032C28.2585 21.5661 27.9546 21.8603 27.5799 21.8603H26.3239C25.9492 21.8603 25.6453 21.5661 25.6453 21.2032V20.0754C24.5109 19.8989 23.488 19.4772 22.5865 18.8103C22.0295 18.3984 21.5838 17.9669 21.2496 17.5157C21.1584 17.4078 21.1078 17.2902 21.0976 17.1627C21.0976 16.9665 21.1989 16.7998 21.4217 16.6821L22.6979 15.9564H22.7081C22.7081 15.9564 22.9511 15.8485 23.0828 15.8485C23.3158 15.8485 23.4981 15.9368 23.6399 16.1133C24.2679 16.7802 24.9465 17.2313 25.6555 17.4667V14.6128C24.0146 14.3676 22.8296 13.7694 22.0902 12.8181C21.6547 12.259 21.4319 11.6118 21.4116 10.8958C21.3812 9.42475 22.2118 8.30673 23.8931 7.56138C24.4198 7.32601 24.9971 7.16909 25.6453 7.08082V5.83531C25.6453 5.47244 25.9492 5.16841 26.3239 5.16841H27.5799C27.9546 5.16841 28.2585 5.46263 28.2585 5.83531V7.12005C29.636 7.35543 30.7703 7.95367 31.6414 8.91478C31.7629 9.02266 31.8338 9.15015 31.8237 9.29726C31.8237 9.4836 31.7224 9.63071 31.53 9.74839L30.1221 10.6016C30.1221 10.6016 29.879 10.7193 29.6967 10.7193C29.4739 10.7193 29.2815 10.6507 29.1093 10.5134C28.8358 10.2878 28.5522 10.1015 28.2585 9.97396V12.259C29.9398 12.4846 31.1755 13.0632 31.9655 13.9753C32.4517 14.5441 32.6846 15.2404 32.6745 16.0643C32.6441 17.3784 32.0364 18.4082 30.8716 19.1535Z" fill="#FFBF5C"/>
<path d="M26.324 21.8603H27.5799C27.9546 21.8603 28.2585 21.5661 28.2585 21.2033V20.0754C29.2612 19.9283 30.1323 19.6243 30.8717 19.1535C32.0364 18.4082 32.6441 17.3784 32.6644 16.0643C32.6847 15.2405 32.4517 14.5441 31.9554 13.9753C31.1654 13.0633 29.9297 12.4846 28.2484 12.2591V9.97397C28.5421 10.1113 28.8257 10.2878 29.0992 10.5134C29.2713 10.6507 29.4638 10.7193 29.6866 10.7193C29.8689 10.7193 30.112 10.6016 30.112 10.6016L31.5199 9.74841C31.7123 9.63072 31.8136 9.48361 31.8136 9.29727C31.8136 9.15016 31.7528 9.02267 31.6313 8.91479C30.7602 7.95368 29.6258 7.35544 28.2484 7.12007V5.83532C28.2484 5.47245 27.9445 5.16843 27.5698 5.16843H26.3138C25.9391 5.16843 25.6352 5.46264 25.6352 5.83532V7.09064C24.987 7.17891 24.3995 7.33583 23.883 7.5712C22.2017 8.31655 21.3711 9.42477 21.4015 10.9057C21.4116 11.6314 21.6446 12.2787 22.0801 12.8279C22.8094 13.7792 24.0045 14.3774 25.6453 14.6226V17.4765C24.9364 17.2313 24.2679 16.7802 23.6298 16.1231C23.488 15.9466 23.3057 15.8583 23.0727 15.8583C22.9512 15.8583 22.698 15.9662 22.698 15.9662H22.6878L21.4116 16.6919C21.1888 16.8096 21.0875 16.9763 21.0875 17.1725C21.0875 17.3 21.1382 17.4177 21.2395 17.5255C21.5737 17.9767 22.0193 18.4082 22.5764 18.8201C23.4778 19.4968 24.5008 19.9087 25.6352 20.0852V21.2131C25.6352 21.5661 25.9391 21.8603 26.324 21.8603ZM28.2585 14.9168C28.9371 15.1228 29.2815 15.5053 29.2713 16.0643C29.2713 16.584 29.0181 16.9861 28.532 17.2804C28.4408 17.3294 28.3497 17.3784 28.2585 17.4177V14.9168ZM24.8148 10.9057C24.8148 10.4938 25.0579 10.1799 25.5441 9.95436L25.6352 9.91513V11.9354C25.0883 11.7393 24.8148 11.396 24.8148 10.9057Z" fill="white"/>
<path d="M24.8148 10.9057C24.8148 11.396 25.0984 11.7393 25.6454 11.9354V9.91513L25.5542 9.95436C25.0478 10.1799 24.8148 10.4938 24.8148 10.9057Z" fill="#FFBF5C"/>
<path d="M28.2585 17.4275C28.3496 17.3882 28.4509 17.3392 28.532 17.2901C29.0181 17.0057 29.2612 16.6036 29.2713 16.0741C29.2815 15.515 28.9371 15.1326 28.2585 14.9266V17.4275Z" fill="#FFBF5C"/>
<path d="M66.9797 37.0811L67 37.0223C62.1586 37.0223 59.2011 34.1684 55.6358 31.7558C53.0531 30.0101 50.1462 28.4998 45.9732 28.4998C44.0995 28.4998 42.5093 28.5194 41.1521 28.5587H31.3072C29.8689 28.5587 28.7042 29.6865 28.7042 31.0791C28.7042 32.4717 29.8689 33.5996 31.3072 33.5996H36.8779H40.5444C42.408 33.8938 43.8361 35.4531 43.8361 37.3459C43.8361 38.7778 43.0056 40.0135 41.8003 40.651C41.5066 40.7294 40.0987 41.0923 38.2047 41.5729C36.9893 41.8573 35.8346 42.1515 34.7509 42.4555L34.5179 42.5144C30.4564 43.5539 26.091 44.6719 25.301 44.8485C24.7743 44.8779 24.2983 44.8583 23.8729 44.7504L9.32834 35.6297L6.69494 33.7859C6.57339 33.7075 6.43159 33.6388 6.29992 33.5702C6.10748 33.4721 5.90491 33.3838 5.69221 33.325C5.53016 33.2759 5.34785 33.2367 5.17566 33.2171C4.99335 33.1877 4.80091 33.1681 4.60847 33.1681C4.34512 33.1681 4.09191 33.1975 3.84883 33.2465C1.69146 33.423 0 35.1491 0 37.2773C0 38.4051 0.486168 39.4153 1.24581 40.141L1.26606 40.1508C1.56992 40.4352 1.91429 40.6902 2.29917 40.8765L3.30189 41.5827L26.1113 57.5979C26.2024 57.6273 26.3037 57.6665 26.3949 57.7058C26.9114 57.8823 27.4482 57.9902 28.0255 57.9902C28.3598 57.9902 28.6839 57.9509 29.008 57.8921L29.1194 57.8627C36.8475 55.9601 52.8201 52.0274 60.2949 50.2425C60.4772 50.1738 60.6494 50.115 60.8317 50.0463C62.746 49.5854 65.3389 49.0362 66.9696 49.0362V47.977H66.9899L66.9696 46.5255V37.3852V37.0811H66.9797Z" fill="#193326"/>
</svg>
