<svg width="63" height="45" viewBox="0 0 63 45" fill="none" xmlns="http://www.w3.org/2000/svg">
<path d="M0 7.4342V44.1005C0 44.3024 0.215201 44.4034 0.349701 44.2749L18.9825 26.8274C19.2067 26.6255 19.2067 26.2584 19.0004 26.0381L0.358668 7.269C0.224167 7.13133 0 7.23229 0 7.4342Z" fill="#193326"/>
<path d="M36.4227 27.7544L32.0739 32.1323C31.1144 33.1052 29.8501 33.6375 28.5231 33.6375C27.2408 33.6375 26.0214 33.1327 25.1157 32.2149L20.6862 27.7544L20.5606 27.6259L2.24167 44.7797C2.16097 44.8531 2.20581 45 2.31341 45H54.7865C54.8941 45 54.9389 44.8531 54.8582 44.7797L36.5483 27.6259L36.4227 27.7544Z" fill="#193326"/>
<path d="M38.1264 26.8366L56.7233 44.2474C56.8578 44.3759 57.073 44.2749 57.073 44.073V17.4658C60.5162 16.2543 63 12.9135 63 8.97614C63 4.02917 59.0636 0 54.2306 0C50.5991 0 47.4697 2.27616 46.1426 5.50683H1.2374C1.1298 5.50683 1.08496 5.6445 1.1567 5.72711L20.5965 25.3223L21.7622 26.497L26.1917 30.9576C26.3531 31.1228 26.5235 31.2605 26.7118 31.3798L26.909 31.4899C27.0346 31.5633 27.1601 31.6276 27.2856 31.6826L27.5367 31.7561C27.6622 31.7928 27.7788 31.8387 27.9044 31.857L28.1823 31.8846C28.2989 31.8937 28.4244 31.9121 28.55 31.9121C28.6755 31.9121 28.7921 31.8937 28.9176 31.8754L29.2045 31.8387C29.3301 31.8111 29.4556 31.7652 29.5811 31.7285L29.8412 31.6459C29.9757 31.5909 30.1102 31.5083 30.2447 31.4348L30.4509 31.3247C30.6482 31.1962 30.8275 31.0494 30.9979 30.875L35.3467 26.497L36.5124 25.3223L47.2903 14.4646C47.6221 14.9052 47.9987 15.3182 48.4022 15.6853L38.1084 26.0565C37.9022 26.2584 37.9112 26.6255 38.1264 26.8366ZM47.6938 8.97614C47.6938 5.28656 50.626 2.29451 54.2216 2.29451C57.8172 2.29451 60.7494 5.29574 60.7494 8.97614C60.7494 12.6657 57.8172 15.6578 54.2216 15.6578C50.626 15.6669 47.6938 12.6657 47.6938 8.97614Z" fill="#193326"/>
<path d="M47.6938 8.97612C47.6938 12.6657 50.626 15.6577 54.2216 15.6577C57.8172 15.6577 60.7494 12.6565 60.7494 8.97612C60.7494 5.28654 57.8172 2.29449 54.2216 2.29449C50.626 2.29449 47.6938 5.29572 47.6938 8.97612ZM54.1499 7.67283C54.8762 7.67283 55.6025 7.83804 56.1405 8.2327C56.7143 8.62735 57.064 9.26982 57.064 10.1784C57.064 11.6194 55.8535 12.8951 53.8181 12.8951C52.9035 12.8951 52.1324 12.6841 51.7109 12.4546L52.0248 11.0962C52.3655 11.2615 53.047 11.4817 53.7374 11.4817C54.4727 11.4817 55.2528 11.1238 55.2528 10.3069C55.2528 9.50845 54.6341 9.02201 53.1187 9.02201C52.6973 9.02201 52.4103 9.04954 52.0965 9.09543L52.5986 5.02955H56.7592V6.5164H53.8271L53.6657 7.70955C53.8271 7.67283 53.9616 7.67283 54.1499 7.67283Z" fill="#FFBF5C"/>
<path d="M53.7284 11.4726C53.047 11.4726 52.3565 11.2615 52.0158 11.0871L51.702 12.4454C52.1234 12.6749 52.8945 12.886 53.8091 12.886C55.8535 12.886 57.0551 11.6102 57.0551 10.1693C57.0551 9.26065 56.7054 8.61818 56.1315 8.22353C55.5935 7.82887 54.8672 7.66367 54.1409 7.66367C53.9526 7.66367 53.8181 7.66367 53.6477 7.6912L53.8091 6.49805H56.7592V5.02039H52.5897L52.0875 9.08626C52.4014 9.04037 52.6883 9.01284 53.1097 9.01284C54.6251 9.01284 55.2438 9.49928 55.2438 10.2978C55.2438 11.1238 54.4637 11.4726 53.7284 11.4726Z" fill="white"/>
</svg>
