<svg width="49" height="67" viewBox="0 0 49 67" fill="none" xmlns="http://www.w3.org/2000/svg">
<g clip-path="url(#clip0_1111_1073)">
<path d="M32.0847 23.816C32.0847 19.6177 28.6828 16.2168 24.4952 16.2168C20.3075 16.2168 16.9056 19.6177 16.9056 23.816C16.9056 26.6693 18.4772 29.148 20.7867 30.4545L20.94 25.4108C20.94 23.3453 22.6074 21.6736 24.6677 21.6736H24.8785C26.498 21.6736 27.8204 22.9898 27.8204 24.623V30.6467C30.3502 29.3978 32.0847 26.8134 32.0847 23.816Z" fill="#009344"/>
<path d="M27.8396 24.6134C27.8396 22.9898 26.5267 21.664 24.8977 21.664H24.6869C22.6266 21.664 20.9592 23.3357 20.9592 25.4012L20.8058 30.4449L20.4609 41.5604C20.3842 41.9062 20.3363 49.6303 20.3363 49.6303C19.6847 48.9674 18.9564 48.1989 18.3047 47.4687C16.7811 45.7683 13.9829 44.625 12.1334 44.4041C11.156 44.2888 10.4086 44.4233 9.91025 44.798C9.74734 44.9228 9.59402 45.0574 9.45028 45.2015C8.492 46.1526 7.76372 47.6801 8.43451 48.7945C8.72199 49.2845 9.22029 49.6111 9.74734 49.9474C10.4469 50.3989 11.6256 50.8985 12.5168 52.0321C14.0021 53.9343 17.4423 58.1903 19.5505 60.4672C19.9913 60.7458 20.9208 61.668 21.3616 61.9082C22.6936 62.7633 23.7861 63.5703 24.1598 64.0026C24.4569 64.3388 26.2009 65.2419 26.2009 65.2419C27.6096 66.1354 30.1778 66.9808 33.1484 66.9808C36.1095 66.9808 38.8022 67.1633 40.7859 65.4052H40.8913L40.9392 65.2707C42.9612 63.4165 44.2165 60.8418 44.2165 57.9885C44.2165 57.2872 44.2165 54.6933 44.2165 54.2033V44.3945C44.2165 43.7316 44.0728 41.4931 42.1945 40.8206C41.2938 40.5036 40.4409 40.6189 39.7126 40.9359L39.5401 40.9455H39.4922C39.1664 39.7158 38.3519 38.928 37.1444 38.7167C35.6879 38.4669 34.6817 38.8992 34.0779 39.3411C33.4742 38.0442 32.2668 37.3621 30.6282 37.5062C29.4016 37.6118 28.4912 38.2171 27.83 39.0145V30.6371V24.6134H27.8396Z" fill="#193326"/>
<path d="M41.4282 36.4398L42.9327 38.121C43.2201 38.4477 43.7472 38.4284 44.0059 38.073C46.9095 34.038 48.5098 29.1768 48.5098 24.0658C48.5002 10.7984 37.7388 0 24.505 0C23.5947 0 22.6747 0.0480356 21.7644 0.153714C10.7155 1.38342 1.83224 10.3276 0.643983 21.4046C-0.00764436 27.4379 1.58309 33.3175 5.00413 38.073C5.25329 38.4284 5.78034 38.4477 6.0774 38.121L7.58189 36.4398C7.79271 36.1996 7.81188 35.8537 7.62981 35.5847C5.22454 32.0589 3.95961 27.8414 4.08419 23.451C4.39084 12.8063 12.9387 4.08302 23.5372 3.59306C35.2569 3.01663 44.945 12.4316 44.945 24.0562C44.945 28.2161 43.6801 32.2126 41.3803 35.5847C41.1982 35.8537 41.2078 36.1996 41.4282 36.4398Z" fill="#193326"/>
<path d="M34.6817 28.9174L36.2724 30.6947C36.5982 31.0598 37.1924 30.9733 37.4128 30.541C38.419 28.5427 38.946 26.3523 38.946 24.0658C38.946 17.2448 34.1163 11.2884 27.4659 9.89532C25.5206 9.48222 23.489 9.48222 21.5342 9.89532C14.8837 11.2884 10.054 17.2544 10.054 24.0658C10.054 26.3523 10.5811 28.5427 11.5873 30.541C11.8077 30.9733 12.4018 31.0598 12.7276 30.6947L14.3183 28.9174C14.5004 28.7157 14.5387 28.437 14.4333 28.1873C13.8967 26.8807 13.6188 25.4877 13.6188 24.0658C13.6188 19.5024 16.4936 15.3906 20.7675 13.8246C23.1536 12.9504 25.8272 12.9504 28.2133 13.8246C32.5064 15.3906 35.3812 19.5024 35.3812 24.0658C35.3812 25.4781 35.1033 26.8807 34.5667 28.1873C34.4613 28.4274 34.4996 28.7157 34.6817 28.9174Z" fill="#006E39"/>
</g>
<defs>
<clipPath id="clip0_1111_1073">
<rect width="48" height="67" fill="white" transform="translate(0.5)"/>
</clipPath>
</defs>
</svg>
