<svg width="53" height="60" viewBox="0 0 53 60" fill="none" xmlns="http://www.w3.org/2000/svg">
<g clip-path="url(#clip0_1111_1140)">
<path d="M29.7675 38.8862L30.4875 38.0867H29.0258L29.7675 38.8862Z" fill="white"/>
<path d="M2.73669 3.01733V56.9827H33.5091V49.2904C33.5091 48.9554 33.6509 48.6313 33.88 48.4044C34.12 48.1668 34.4472 48.0371 34.7745 48.0371H42.8684V31.021L31.5347 43.802C31.0983 44.2882 30.4875 44.5691 29.8112 44.5691C29.1676 44.5691 28.5458 44.299 28.1204 43.8344L22.7971 38.0867H7.41637V34.3486H33.76V34.4242L36.0071 31.8961H7.40546V28.158H38.1124V29.5193L42.8793 24.1497V3.01733H2.73669ZM38.1124 25.6839H7.40546V21.9457H38.1124V25.6839ZM38.1124 19.4716H11.8779V15.7335H38.1015V19.4716H38.1124Z" fill="white"/>
<path d="M42.8794 48.0263H34.7854C34.4472 48.0263 34.12 48.1559 33.8909 48.3936C33.6509 48.6313 33.52 48.9554 33.52 49.2795V56.9719H2.73671V3.0173H42.8794V24.1281L45.421 21.2651V1.76405C45.421 1.42913 45.2901 1.10502 45.0501 0.878136C44.821 0.629647 44.4938 0.5 44.1556 0.5H1.47134C1.13318 0.5 0.805935 0.629647 0.565952 0.867332C0.325968 1.10502 0.195068 1.42913 0.195068 1.76405V58.2468C0.195068 58.5817 0.325968 58.9058 0.565952 59.1327C0.805935 59.3704 1.13318 59.5 1.46043 59.5H36.3671C36.7052 59.5 37.0216 59.3704 37.2616 59.1327L41.1886 55.2757L45.0392 51.4403C45.2792 51.2026 45.4101 50.8785 45.4101 50.5544V28.1579L42.8685 31.021V48.0263H42.8794ZM36.0616 57.0259V50.5436H42.8357L36.0616 57.0259Z" fill="#193326"/>
<path d="M36.0616 57.0259L42.8357 50.5544H36.0616V57.0259Z" fill="white"/>
<path d="M38.1015 15.7335H11.8779V19.4716H38.1015V15.7335Z" fill="#006E39"/>
<path d="M38.1124 21.9349H7.40546V25.673H38.1124V21.9349Z" fill="#006E39"/>
<path d="M7.40546 28.1364V31.8853H35.9962L38.1124 29.4976V28.1364H7.40546Z" fill="#006E39"/>
<path d="M7.40546 34.3378V38.0759H22.7862L21.8699 37.0928L20.7463 35.8827C20.5609 35.6774 20.5282 35.3749 20.67 35.1373C20.79 34.9428 20.9972 34.8347 21.2154 34.8347L21.3681 34.8564L27.2041 36.2825C27.3241 36.3149 27.4331 36.3797 27.5204 36.4661L29.0258 38.0975H30.4875L33.7491 34.4242V34.3486H7.40546V34.3378Z" fill="#006E39"/>
<path d="M51.9878 19.8281L49.4898 17.6458C49.3698 17.5485 49.228 17.4837 49.0753 17.4837H49.0317C48.868 17.4945 48.7044 17.5701 48.5953 17.6998L45.4319 21.2651L42.8903 24.1281L38.1233 29.4976L36.0071 31.8745L33.76 34.4026L30.4984 38.0759L29.7785 38.8862L29.0258 38.0759L27.5204 36.4445C27.4332 36.3581 27.3241 36.2933 27.2041 36.2609L21.3572 34.8455L21.2045 34.8239C20.9864 34.8239 20.7791 34.9428 20.6591 35.1264C20.5173 35.3641 20.55 35.6666 20.7355 35.8719L21.859 37.0819L22.7753 38.0651L28.0986 43.8128C28.5349 44.2773 29.1458 44.5474 29.7894 44.5474C30.4657 44.5366 31.0875 44.2557 31.5129 43.7804L42.8685 30.9994L45.4101 28.1363L52.0205 20.6925C52.2714 20.4548 52.2496 20.055 51.9878 19.8281Z" fill="#009344"/>
</g>
<defs>
<clipPath id="clip0_1111_1140">
<rect width="52" height="59" fill="white" transform="translate(0.195068 0.5)"/>
</clipPath>
</defs>
</svg>
