<svg width="776" height="468" viewBox="0 0 776 468" fill="none" xmlns="http://www.w3.org/2000/svg">
<path d="M741.8 318.7C779.4 385.9 725 517.8 380.3 426.1C207.5 380.1 78.3998 483.7 51.7998 411.4C-10.2002 243.1 242.9 48.4 383.6 184.3C512.2 308.6 673.4 196.4 741.8 318.7Z" stroke="#E4E4E4" stroke-width="1.1993" stroke-miterlimit="10" stroke-dasharray="9.62 9.62"/>
<path d="M739.8 466.7H36.8999C58.8999 304.2 207.8 178.5 388.3 178.5C568.8 178.5 717.8 304.2 739.8 466.7Z" fill="#F6F5F5"/>
<path d="M648.2 465.3H383.8C371.5 465.3 361.5 455.3 361.5 443V63.8C361.5 51.5 371.5 41.5 383.8 41.5H648.2C660.5 41.5 670.5 51.5 670.5 63.8V443C670.4 455.3 660.5 465.3 648.2 465.3Z" fill="#28523E"/>
<path d="M643.7 58.6H389.4V428H643.7V58.6Z" fill="#F6F5F5"/>
<path d="M643.7 58.6C643.8 202.6 648.4 376.3 632.3 414.8C561 421.7 477.6 424 389.5 424.4L423 59.7L643.7 58.6Z" fill="#E4E4E4"/>
<path d="M620.9 403.1C509.8 420.9 435.6 421.8 375.4 417.3C383.2 334.2 386.3 196.3 389.5 58.5L523.3 58.8L644.4 66.8C646.2 209.8 646.4 341.9 620.9 403.1Z" fill="white"/>
<path d="M581.608 95.7746L447.848 92.6265L447.368 113.02L581.128 116.168L581.608 95.7746Z" fill="#006E39"/>
<path d="M607.379 145.617L486.715 142.777L486.497 152.075L607.16 154.914L607.379 145.617Z" fill="#006E39"/>
<path d="M568.285 165.063L486.309 163.133L486.091 172.431L568.066 174.36L568.285 165.063Z" fill="#FFBF5C"/>
<path d="M448.722 142.436L420.13 141.764L419.457 170.355L448.049 171.028L448.722 142.436Z" fill="white" stroke="#009344" stroke-width="1.799" stroke-miterlimit="10"/>
<path d="M424.8 149.3C425.7 152.7 427.3 166.8 434.4 162.9C436 162 437.4 159.6 438.6 158.2C440.8 155.7 443 153.2 445.2 150.7C449.6 145.7 454 140.7 458.4 135.7C459.5 134.4 454.6 131.2 453.1 132.8C449.2 137.2 445.3 141.7 441.4 146.1C439.4 148.3 437.5 150.5 435.5 152.7C434.1 154.2 431 159.2 429 159.6C430.1 160 431.2 160.3 432.3 160.7C433.1 161.3 431.6 156.8 431.6 156.7C431.1 154.6 430.5 152.5 430 150.4C429.6 148.8 424.2 146.7 424.8 149.3Z" fill="#D54B3C"/>
<path d="M584.882 197.066L485.512 194.727L485.293 204.025L584.663 206.363L584.882 197.066Z" fill="#006E39"/>
<path d="M605.678 217.916L485.014 215.076L484.795 224.373L605.459 227.213L605.678 217.916Z" fill="#FFBF5C"/>
<path d="M447.522 194.336L418.931 193.663L418.258 222.254L446.849 222.927L447.522 194.336Z" fill="white" stroke="#009344" stroke-width="1.799" stroke-miterlimit="10"/>
<path d="M423.6 202C424.5 205.4 426.1 219.5 433.2 215.6C434.8 214.7 436.2 212.3 437.4 210.9C439.6 208.4 441.8 205.9 444 203.4C448.4 198.4 452.8 193.4 457.2 188.4C458.3 187.1 453.4 183.9 451.9 185.5C448 189.9 444.1 194.4 440.2 198.8C438.2 201 436.3 203.2 434.3 205.4C432.9 206.9 429.8 211.9 427.8 212.3C428.9 212.7 430 213 431.1 213.4C431.9 214 430.4 209.5 430.4 209.4C429.9 207.3 429.3 205.2 428.8 203.1C428.4 201.5 422.9 199.5 423.6 202Z" fill="#D54B3C"/>
<path d="M604.978 249.516L484.314 246.676L484.096 255.973L604.759 258.813L604.978 249.516Z" fill="#006E39"/>
<path d="M537.79 268.23L483.806 266.96L483.587 276.257L537.571 277.527L537.79 268.23Z" fill="#FFBF5C"/>
<path d="M446.321 246.335L417.729 245.662L417.056 274.254L445.648 274.927L446.321 246.335Z" fill="white" stroke="#009344" stroke-width="1.799" stroke-miterlimit="10"/>
<path d="M422.8 254.3C423.7 257.7 425.3 271.8 432.4 267.9C434 267 435.4 264.6 436.6 263.2C438.8 260.7 441 258.2 443.2 255.7C447.6 250.7 452 245.7 456.4 240.7C457.5 239.4 452.6 236.2 451.1 237.8C447.2 242.2 443.3 246.7 439.4 251.1C437.4 253.3 435.5 255.5 433.5 257.7C432.1 259.2 429 264.2 427 264.6C428.1 265 429.2 265.3 430.3 265.7C431.1 266.3 429.6 261.8 429.6 261.7C429.1 259.6 428.5 257.5 428 255.4C427.5 253.8 422.1 251.8 422.8 254.3Z" fill="#D54B3C"/>
<path d="M603.779 301.415L483.115 298.575L482.896 307.873L603.56 310.712L603.779 301.415Z" fill="#006E39"/>
<path d="M577.883 321.115L482.612 318.873L482.393 328.17L577.665 330.412L577.883 321.115Z" fill="#FFBF5C"/>
<path d="M445.121 298.234L416.53 297.562L415.857 326.153L444.448 326.826L445.121 298.234Z" fill="white" stroke="#009344" stroke-width="1.799" stroke-miterlimit="10"/>
<path d="M421.5 305.9C422.4 309.3 424 323.4 431.1 319.5C432.7 318.6 434.1 316.2 435.3 314.8C437.5 312.3 439.7 309.8 441.9 307.3C446.3 302.3 450.7 297.3 455.1 292.3C456.2 291 451.3 287.8 449.8 289.4C445.9 293.8 442 298.3 438.1 302.7C436.1 304.9 434.2 307.1 432.2 309.3C430.8 310.8 427.7 315.8 425.7 316.2C426.8 316.6 427.9 316.9 429 317.3C429.8 317.9 428.3 313.4 428.3 313.3C427.8 311.2 427.2 309.1 426.7 307C426.3 305.4 420.9 303.4 421.5 305.9Z" fill="#D54B3C"/>
<path d="M529.69 351.256L481.904 350.131L481.685 359.428L529.471 360.553L529.69 351.256Z" fill="#006E39"/>
<path d="M602.1 373.3L481.4 370.5L481.2 379.8C527.9 380.9 587.3 383.1 599.4 381.2C601.3 379.1 602.3 376.5 602.1 373.3Z" fill="#FFBF5C"/>
<path d="M444.322 349.734L415.731 349.061L415.058 377.652L443.649 378.325L444.322 349.734Z" fill="white" stroke="#009344" stroke-width="1.799" stroke-miterlimit="10"/>
<path d="M420.3 357C421.2 360.4 422.8 374.5 429.9 370.6C431.5 369.7 432.9 367.3 434.1 365.9C436.3 363.4 438.5 360.9 440.7 358.4C445.1 353.4 449.5 348.4 453.9 343.4C455 342.1 450.1 338.9 448.6 340.5C444.7 344.9 440.8 349.4 436.9 353.8C434.9 356 433 358.2 431 360.4C429.6 361.9 426.5 366.9 424.5 367.3C425.6 367.7 426.7 368 427.8 368.4C428.6 369 427.1 364.5 427.1 364.4C426.6 362.3 426 360.2 425.5 358.1C425.1 356.6 419.7 354.5 420.3 357Z" fill="#D54B3C"/>
<path d="M573.2 44.1V72.6H458.7V44.1C458.7 39.6 460.5 35.4 463.5 32.5C463.9 32.1 464.3 31.8 464.7 31.5C467.5 29.1 471.2 27.7 475.2 27.7C478.2 27.7 481.1 27 483.6 25.8C484.7 25.3 485.8 24.6 486.8 23.9C490.1 21.5 492.6 18 493.8 13.9C495.1 9.69998 497.7 6.19998 501 3.79998C504.2 1.49998 508.2 0.0999756 512.4 0.0999756H519.5C523.7 0.0999756 527.6 1.39998 530.9 3.79998C534.3 6.19998 536.9 9.69998 538.1 13.9C539.3 18 541.9 21.4 545.1 23.9C546.1 24.6 547.2 25.3 548.3 25.8C550.9 27 553.7 27.7 556.7 27.7C560.7 27.7 564.3 29.1 567.2 31.5C570.9 34.4 573.2 38.9 573.2 44.1Z" fill="#E48700"/>
<path d="M582.5 58.6V79.8H449.4V58.6H458.7V72.6H573.2V58.6H582.5Z" fill="#E4E4E4"/>
<path d="M516 26.8C521.633 26.8 526.2 22.4571 526.2 17.1C526.2 11.7428 521.633 7.39996 516 7.39996C510.366 7.39996 505.8 11.7428 505.8 17.1C505.8 22.4571 510.366 26.8 516 26.8Z" fill="white"/>
<path d="M296.5 150.6C292.4 149.8 288.6 143 287.3 140.4C287 139.8 286.9 139 287 138.3L288.6 129.7C288.6 129.7 292.3 130.3 292 135.3C292 135.8 292.1 136.3 292.3 136.8L293.7 140.5L297.9 137.2L295.6 130.7C295.6 130.7 292.5 131.6 290.9 131C287.6 130 291.9 127.4 293.3 127.1C294.7 126.8 297.7 125.7 299 128.1C300.4 130.4 301.2 131.8 301.2 131.8C301.2 131.8 302.7 126.6 301.7 115C301.7 114.5 303 114.5 303.3 114.9C304.4 116 306.1 119.4 306.2 129.7C306.2 129.7 306.4 117.7 308.4 116.4C310.1 115.4 311 121.3 309.8 131.3C309.8 131.3 312 122.6 313.6 122.6C316.3 122.6 313.6 145.7 306.9 152.6L296.5 150.6Z" fill="#F9B384"/>
<path d="M309.2 147C309.1 148.2 308.9 149.3 308.8 150.3C308.3 154.1 307.7 157.6 307 160.5C307 160.6 306.9 160.8 306.9 160.9C304.8 169.3 304.5 173.4 297.5 172.3L290.3 164.1L290.2 164L289.7 163.4L291.2 159.1L291.4 158.5L292.5 155.4L292.6 155L294.4 149.6L295.1 147.4L309.2 147Z" fill="#F9B384"/>
<path d="M175.3 445.7L173.5 451.4C160.9 455.5 153.6 460.3 153.1 465.8H189.5L192.4 446.6C185 448.4 179.1 447.2 175.3 445.7Z" fill="#0A140F"/>
<path d="M179.9 431.5L175.3 445.8C179.1 447.3 185 448.5 192.4 446.7L194.3 434.3L179.9 431.5Z" fill="#F9B384"/>
<path d="M242.1 445.1L243.2 430.6L226.1 431.5L225.2 444.9C232.3 447.2 238.3 446.3 242.1 445.1Z" fill="#F9B384"/>
<path d="M262.6 465.8C262.1 460.3 255.7 452.7 241.6 450.9L242 445C238.3 446.2 232.3 447.1 225 444.8L223.5 465.8H262.6Z" fill="#0A140F"/>
<path d="M228.2 154.3L207.6 154.4V123.2H227.6V125.1L227.7 135L227.8 150.9L228.2 154.3Z" fill="#F9B384"/>
<path d="M227.7 136.5C224 140.4 214.3 136 210.2 131.7L227.6 126.6L227.7 136.5Z" fill="#E28B6D"/>
<path d="M232.5 116C232.5 118.3 232.3 120.7 232 123C231 129.3 228.3 134.7 222.2 134.9C207.7 135.3 203.6 127 200.8 120.2C198.1 113.4 202.5 97.1 202.5 97.1L221.3 95.2L231.6 103.7C231.6 103.7 232.5 109.5 232.5 116Z" fill="#F9B384"/>
<path d="M201.3 116.4C201.3 116.4 205.4 116.2 206.1 105.5C213.5 108 218.9 105.7 223.2 100.8C226.9 105.6 237.1 107.1 240.6 97.3C243.1 90.2 236.2 79.5 226.2 86C216.4 81 201.4 81.4 197.1 93.6C197.1 93.6 182.2 100.5 198 115.6C198.3 115.8 201.3 116.4 201.3 116.4Z" fill="black"/>
<path d="M258.4 266.4L247 438.7H220.2L226.9 271.5L231 269.6L258.4 266.4Z" fill="#0E1C15"/>
<path d="M188.7 242.8L169.9 438.7H199.1L226.8 276L258.4 266.4L259.8 231.6L189.5 230L188.7 242.8Z" fill="#193326"/>
<path opacity="0.6" d="M192.9 243.2C208.8 248.9 246.2 242.4 254 234.4L248.5 223.4L187 231.6L192.9 243.2Z" fill="#102048"/>
<path d="M252.5 231.8C252 232 251.5 232.2 250.9 232.4C244.9 234.8 238.2 236.9 230.9 238.3C226.6 239.2 222.1 239.7 217.5 239.9C210.6 240.2 203.5 239.8 196.5 238.2L205.4 154.9L206.5 144.7C206.5 144.7 218.2 159.1 231.1 143.2L252.5 231.8Z" fill="white"/>
<path opacity="0.3" d="M217.6 240C210.7 240.3 203.6 239.9 196.6 238.3L205.5 155L208.7 150.4C216.5 169.5 224.6 212 217.6 240Z" fill="#19120E"/>
<path d="M207.6 141.5C216.5 179.2 220.1 218 207.1 261.1C197.4 264.8 186.8 264.8 175.5 261.5L178.3 183.1L112.4 228.4L108.4 203.7C133.7 179.6 177.5 143 207.6 141.5Z" fill="#006E39"/>
<path opacity="0.3" d="M250.9 232.4C244.9 234.8 238.2 236.9 230.9 238.3C226.9 215.5 226.1 178.1 229.3 161.3L250.9 232.4Z" fill="#19120E"/>
<path opacity="0.6" d="M307 160.6C307 160.7 306.9 160.9 306.9 161C304.8 169.4 304.5 173.5 297.5 172.4L290.3 164.2L290.2 164.1L291.1 159.2L291.3 158.6L292.4 155.5L292.5 155.1L307 160.6Z" fill="#E28B6D"/>
<path d="M305.8 168.2C305.8 168.2 288.1 205.7 277.6 206.6C267.4 207.5 262.6 197.6 262.6 197.6L269.8 252.4C261.3 256.4 252.1 258.3 241.4 256.4C231.9 225.5 228.3 185.6 227.6 141.1C235.3 141.6 250.5 142.2 256 145.7C265.8 152 277.9 174.5 277.9 174.5L292 155.3L305.8 168.2Z" fill="#006E39"/>
<path d="M90.1001 115.4C90.1001 115.4 91.2001 97.5 93.0001 98.3C94.8001 99.1 98.5001 114.7 98.5001 114.7L94.6001 121L90.1001 115.4Z" fill="#193326"/>
<path d="M144 439.2L144.5 445.1C145.4 455.5 137.7 464.7 127.3 465.7L125.8 465.8C115.4 466.7 106.2 459 105.2 448.6L104.7 442.7L144 439.2Z" fill="#D54B3C"/>
<path d="M118.285 153.417L79.0427 156.942L104.715 442.695L143.958 439.169L118.285 153.417Z" fill="#FBC343"/>
<path opacity="0.3" d="M105.126 148.882L91.1819 150.134L113.687 400.628L127.631 399.376L105.126 148.882Z" stroke="#6F3428" stroke-width="2.3986" stroke-miterlimit="10"/>
<path d="M144 439.2L104.7 442.7L103.7 431.2L103 423.2L100.8 398.6L140 395.1L142.2 419.7L142.9 427.7L144 439.2Z" fill="#183A29"/>
<path d="M142.263 419.656L103.021 423.183L103.737 431.151L142.98 427.624L142.263 419.656Z" fill="#FBC343"/>
<path d="M79.1001 157L90.0001 113.3C90.0001 113.3 93.8001 115 98.3001 112.2L118.3 153.5L79.1001 157Z" fill="#FFB17D"/>
<path d="M203.5 114.6C203.3 114 200.4 113.1 199.8 112.9C198.8 112.6 197.7 112.5 196.7 112.9C193.2 114.5 193.6 119.6 195.5 122.2C196.5 123.7 198.1 124.9 199.8 125.4C200.4 125.6 206.5 125.7 206.3 124.7L203.5 114.6Z" fill="#F9B384"/>
<path d="M91.9999 216.5C91.0999 213.6 88.0999 212 85.1999 213C80.6999 214.5 76.7999 217.2 76.1999 221.6C75.6999 225.7 77.6999 238.6 86.6999 240.3L85.9999 233.7C85.9999 233.7 91.4999 232.4 92.5999 230C93.4999 228.2 93.4999 221.2 91.9999 216.5Z" fill="#F9B384"/>
<path d="M259.9 172C260.4 174.8 260.8 177.7 261.2 180.5C261.6 183.3 261.9 186.2 262.3 189L263.2 197.6C263.5 200.5 263.7 203.3 263.9 206.2L263.4 206.3C262.9 203.5 262.5 200.6 262.1 197.8L261 189.3C260.7 186.4 260.4 183.6 260.1 180.7C259.8 177.8 259.6 175 259.4 172.1L259.9 172Z" fill="#193326"/>
<path d="M179.2 171.5C179.2 174.7 179.1 177.9 179 181C178.9 184.2 178.8 187.3 178.6 190.5L178.1 200C177.9 203.2 177.7 206.3 177.4 209.5H176.9C176.9 206.3 177 203.1 177.1 200L177.5 190.5C177.7 187.3 177.8 184.2 178 181C178.2 177.8 178.4 174.7 178.7 171.5H179.2Z" fill="#193326"/>
<path d="M201 118.4C200.2 117.9 199.5 117.3 198.8 117C198.5 116.8 198.1 116.7 197.8 116.8C197.5 116.8 197.2 117 196.8 117.3L196.4 117C196.6 116.5 196.9 116 197.5 115.8C198.1 115.6 198.8 115.8 199.2 116C200.2 116.5 200.8 117.3 201.2 118.2L201 118.4Z" fill="#E28B6D"/>
<path opacity="0.6" d="M92.7 229.9L87.1 246.8L86 233.6C89.4 232.8 91.3 231.4 92.7 229.9Z" fill="#6F3428"/>
<path d="M0.699951 466H776" stroke="#19120E" stroke-width="2.3986" stroke-miterlimit="10"/>
</svg>
