<svg width="579" height="411" viewBox="0 0 579 411" fill="none" xmlns="http://www.w3.org/2000/svg">
<g opacity="0.5">
<path opacity="0.5" fill-rule="evenodd" clip-rule="evenodd" d="M304.426 399.668C218.831 398.441 108.689 405.604 38.6251 352.864C-17.5727 310.623 -6.79374 214.905 35.3424 182.182C71.4031 154.168 115.695 196.36 135.93 183.801C167.189 164.422 139.899 131.208 181.986 82.8339C207.17 53.8881 253.764 37.0603 311.628 39.1699C416.625 42.9967 454.94 95.4916 456.214 141.658C457.537 188.903 482.622 189.737 526.424 203.572C582.328 221.283 595.753 313.272 552.049 360.272C517.458 397.558 388.012 400.894 304.426 399.668ZM113.784 153.53C125.298 159.467 139.311 144.258 145.288 123.849C152.932 97.8465 166.307 68.1648 188.257 52.3182C203.887 41.0342 193.696 18.3682 169.1 21.9987C139.213 26.4142 119.811 44.7138 106.778 74.5917C95.0679 101.477 94.8719 143.767 113.784 153.53ZM463.612 117.373C459.938 104.617 453.323 95.0991 455.92 88.2306C458.958 80.1847 480.663 82.6377 489.923 105.451C498.791 127.332 489.139 140.137 477.968 140.578C468.218 140.971 468.022 132.631 463.612 117.373ZM432.01 66.2024C426.082 62.0322 422.554 50.8954 429.119 45.2044C435.685 39.5134 451.51 40.3965 454.891 53.6428C458.223 66.9383 443.769 74.5427 432.01 66.2024Z" fill="#A7D19E"/>
</g>
<path d="M378.105 409.995H530.299V350.477H378.105V409.995Z" fill="#006E39"/>
<path d="M384.522 369.504C383.752 369.504 383.103 368.871 383.103 368.088V361.566C383.103 359.926 383.752 358.361 384.886 357.206C386.021 356.051 387.602 355.417 389.223 355.417H419.663C420.433 355.417 421.081 356.051 421.081 356.833C421.081 357.616 420.433 358.249 419.663 358.249H389.223C388.372 358.249 387.521 358.585 386.913 359.218C386.305 359.815 385.94 360.672 385.94 361.566V368.088C385.94 368.871 385.292 369.504 384.522 369.504Z" fill="white"/>
<path d="M384.522 386.535C383.752 386.535 383.103 385.902 383.103 385.119V376.846C383.103 376.063 383.752 375.43 384.522 375.43C385.292 375.43 385.94 376.063 385.94 376.846V385.119C385.94 385.865 385.292 386.535 384.522 386.535Z" fill="white"/>
<path d="M459.559 383.871C461.562 380.909 460.787 376.882 457.829 374.877C454.871 372.872 450.85 373.648 448.848 376.61C446.845 379.572 447.62 383.598 450.578 385.603C453.536 387.608 457.557 386.833 459.559 383.871Z" fill="#C55447"/>
<path d="M454.199 394.563C462.095 394.563 468.495 388.154 468.495 380.248C468.495 372.342 462.095 365.933 454.199 365.933C446.304 365.933 439.903 372.342 439.903 380.248C439.903 388.154 446.304 394.563 454.199 394.563Z" fill="#DBB2A3" stroke="#935139" stroke-width="0.445554" stroke-miterlimit="1.1426" stroke-linecap="round" stroke-linejoin="round"/>
<path fill-rule="evenodd" clip-rule="evenodd" d="M447.779 378.347C447.849 378.155 448.023 378.015 448.233 378.015C448.443 378.015 448.617 378.155 448.687 378.347C449.019 379.344 449.421 380.62 449.613 381.197C449.683 381.39 449.857 381.529 450.067 381.529C450.678 381.529 452.023 381.529 453.07 381.529C453.28 381.529 453.455 381.669 453.525 381.862C453.594 382.054 453.525 382.264 453.35 382.386C452.494 382.998 451.429 383.785 450.922 384.153C450.765 384.275 450.695 384.485 450.748 384.677C450.94 385.272 451.359 386.531 451.673 387.527C451.743 387.72 451.673 387.93 451.499 388.052C451.342 388.174 451.115 388.174 450.94 388.052C450.084 387.44 449.019 386.653 448.512 386.286C448.355 386.163 448.128 386.163 447.954 386.286C447.447 386.653 446.382 387.44 445.526 388.052C445.369 388.174 445.142 388.174 444.967 388.052C444.793 387.93 444.74 387.72 444.793 387.527C445.124 386.531 445.526 385.254 445.718 384.677C445.788 384.485 445.718 384.275 445.544 384.153C445.037 383.785 443.972 382.998 443.116 382.386C442.959 382.264 442.889 382.054 442.942 381.862C443.011 381.669 443.186 381.529 443.396 381.529C444.443 381.529 445.771 381.529 446.399 381.529C446.609 381.529 446.784 381.39 446.853 381.197C447.045 380.603 447.465 379.344 447.779 378.347Z" fill="#C55447"/>
<path fill-rule="evenodd" clip-rule="evenodd" d="M459.655 378.347C459.725 378.155 459.9 378.015 460.109 378.015C460.319 378.015 460.494 378.155 460.564 378.347C460.895 379.344 461.297 380.62 461.489 381.197C461.559 381.39 461.734 381.529 461.943 381.529C462.554 381.529 463.899 381.529 464.947 381.529C465.157 381.529 465.331 381.669 465.401 381.862C465.471 382.054 465.401 382.264 465.226 382.386C464.371 382.998 463.305 383.785 462.799 384.153C462.642 384.275 462.572 384.485 462.624 384.677C462.816 385.272 463.235 386.531 463.55 387.527C463.62 387.72 463.55 387.93 463.375 388.052C463.218 388.174 462.991 388.174 462.816 388.052C461.961 387.44 460.895 386.653 460.389 386.286C460.232 386.163 460.005 386.163 459.83 386.286C459.324 386.653 458.258 387.44 457.403 388.052C457.245 388.174 457.018 388.174 456.844 388.052C456.669 387.93 456.617 387.72 456.669 387.527C457.001 386.531 457.403 385.254 457.595 384.677C457.665 384.485 457.595 384.275 457.42 384.153C456.914 383.785 455.848 382.998 454.993 382.386C454.835 382.264 454.766 382.054 454.818 381.862C454.888 381.669 455.062 381.529 455.272 381.529C456.32 381.529 457.647 381.529 458.276 381.529C458.485 381.529 458.66 381.39 458.73 381.197C458.922 380.603 459.341 379.344 459.655 378.347Z" fill="#C55447"/>
<path fill-rule="evenodd" clip-rule="evenodd" d="M453.758 369.741C453.828 369.549 454.003 369.409 454.213 369.409C454.422 369.409 454.597 369.549 454.667 369.741C454.998 370.738 455.4 372.015 455.592 372.592C455.662 372.784 455.837 372.924 456.046 372.924C456.657 372.924 458.002 372.924 459.05 372.924C459.26 372.924 459.434 373.064 459.504 373.256C459.574 373.449 459.504 373.658 459.329 373.781C458.474 374.393 457.408 375.18 456.902 375.547C456.745 375.669 456.675 375.879 456.727 376.072C456.919 376.666 457.339 377.925 457.653 378.922C457.723 379.114 457.653 379.324 457.478 379.447C457.321 379.569 457.094 379.569 456.919 379.447C456.064 378.835 454.998 378.048 454.492 377.68C454.335 377.558 454.108 377.558 453.933 377.68C453.427 378.048 452.361 378.835 451.506 379.447C451.348 379.569 451.121 379.569 450.947 379.447C450.79 379.324 450.72 379.114 450.772 378.922C451.104 377.925 451.506 376.649 451.698 376.072C451.768 375.879 451.698 375.669 451.523 375.547C451.017 375.18 449.951 374.393 449.096 373.781C448.938 373.658 448.869 373.449 448.921 373.256C448.991 373.064 449.165 372.924 449.375 372.924C450.423 372.924 451.75 372.924 452.379 372.924C452.588 372.924 452.763 372.784 452.833 372.592C453.008 372.015 453.427 370.738 453.758 369.741Z" fill="#C55447"/>
<path fill-rule="evenodd" clip-rule="evenodd" d="M536.309 346.718C536.309 345.737 535.919 344.755 535.189 344.069C534.507 343.382 533.534 342.989 532.56 342.989C508.656 342.989 378.082 342.989 378.082 342.989V350.496H532.56C533.534 350.496 534.507 350.103 535.189 349.416C535.919 348.68 536.309 347.748 536.309 346.718Z" fill="#183A29"/>
<path fill-rule="evenodd" clip-rule="evenodd" d="M410.975 338.101C411.259 330.035 437.134 328.324 456.541 315.288C476.11 329.995 501.822 330.035 502.107 338.101V342.99H410.975V338.101Z" fill="#C55447"/>
<path d="M495.274 339.07H417.841C417.418 339.07 417.093 338.744 417.093 338.337C417.093 337.929 417.418 337.604 417.841 337.604H495.307C495.729 337.604 496.054 337.929 496.054 338.337C496.054 338.703 495.697 339.07 495.274 339.07Z" fill="#935139"/>
<path fill-rule="evenodd" clip-rule="evenodd" d="M444.793 290.16C444.793 290.16 447.397 294.071 449.553 300.956C450.245 303.196 450.977 305.6 450.977 308.166C450.937 310.733 450.164 313.096 449.431 315.377C447.275 322.221 444.793 326.172 444.793 326.172C444.793 332.691 468.309 332.691 468.309 326.172C468.309 326.172 465.868 322.18 463.671 315.377C462.939 313.096 462.125 310.733 462.125 308.166C462.084 305.6 462.816 303.196 463.549 300.956C465.705 294.03 468.309 290.16 468.309 290.16C468.309 283.642 463.02 278.387 456.551 278.387C450.082 278.387 444.793 283.642 444.793 290.16Z" fill="#935139"/>
<path d="M491.525 267.068C489.563 267.068 487.912 265.549 487.779 263.584C487.6 261.484 489.161 259.698 491.258 259.519C508.03 258.269 518.423 249.47 519.047 236.025C519.27 231.693 518.2 228.477 515.791 226.199C510.572 221.241 500.759 222.135 500.67 222.135C498.618 222.358 496.744 220.839 496.521 218.74C496.298 216.686 497.815 214.81 499.911 214.586C500.447 214.542 513.248 213.336 520.965 220.661C525.024 224.502 526.898 229.772 526.585 236.338C526.184 244.69 522.839 251.926 516.861 257.331C510.75 262.869 502.097 266.219 491.793 267.023C491.704 267.068 491.615 267.068 491.525 267.068Z" fill="#935139"/>
<path d="M416.914 267.068C416.824 267.068 416.735 267.068 416.646 267.068C406.342 266.264 397.644 262.959 391.578 257.376C385.645 251.971 382.255 244.691 381.854 236.383C381.541 229.817 383.415 224.502 387.474 220.706C395.235 213.381 407.992 214.587 408.528 214.631C410.624 214.855 412.096 216.686 411.918 218.785C411.695 220.84 409.866 222.358 407.769 222.18C407.591 222.18 397.822 221.286 392.648 226.244C390.239 228.522 389.214 231.738 389.392 236.07C390.016 249.515 400.41 258.314 417.181 259.564C419.278 259.743 420.839 261.529 420.66 263.629C420.527 265.594 418.876 267.068 416.914 267.068Z" fill="#935139"/>
<path fill-rule="evenodd" clip-rule="evenodd" d="M406.801 223.292V204.9C406.801 202.296 408.922 200.173 411.522 200.173C428.214 200.173 484.277 200.173 500.969 200.173C502.235 200.173 503.432 200.687 504.322 201.543C505.211 202.433 505.69 203.632 505.69 204.9C505.69 211.715 505.69 223.532 505.69 223.532C505.587 263.709 483.49 296.247 456.263 296.247C428.967 296.247 406.801 263.572 406.801 223.292Z" fill="#C55447"/>
<path fill-rule="evenodd" clip-rule="evenodd" d="M509.014 205.612C509.014 204.166 508.43 202.774 507.408 201.764C506.385 200.755 504.998 200.182 503.574 200.182C485.43 200.182 427.054 200.182 408.91 200.182C407.45 200.182 406.099 200.755 405.077 201.764C404.054 202.774 403.47 204.166 403.47 205.612C403.47 207.059 404.054 208.451 405.077 209.46C406.099 210.47 407.486 211.043 408.91 211.043C427.054 211.043 485.43 211.043 503.574 211.043C505.035 211.043 506.385 210.47 507.408 209.46C508.43 208.451 509.014 207.059 509.014 205.612C509.014 205.64 509.014 205.64 509.014 205.612Z" fill="#DBB2A3"/>
<path d="M500.79 206.987H412.238C411.495 206.987 410.864 206.371 410.864 205.617C410.864 204.864 411.458 204.247 412.238 204.247H500.79C501.533 204.247 502.164 204.864 502.164 205.617C502.127 206.371 501.533 206.987 500.79 206.987Z" fill="#935139"/>
<path d="M472.06 250.745C473.443 241.985 467.472 233.761 458.724 232.377C449.975 230.992 441.763 236.971 440.38 245.731C438.997 254.491 444.968 262.715 453.717 264.1C462.465 265.484 470.678 259.505 472.06 250.745Z" fill="#DBB2A3"/>
<path d="M456.254 277.743C440.022 277.743 426.803 264.506 426.803 248.253C426.803 231.999 440.022 218.763 456.254 218.763C472.486 218.763 485.705 231.999 485.705 248.253C485.705 264.506 472.486 277.743 456.254 277.743ZM456.254 220.04C440.731 220.04 428.115 232.674 428.115 248.217C428.115 263.761 440.731 276.394 456.254 276.394C471.777 276.394 484.394 263.761 484.394 248.217C484.394 232.674 471.777 220.04 456.254 220.04Z" fill="#935139"/>
<path d="M422.093 260.858C421.34 260.858 420.588 260.413 420.28 259.66C411.66 239.349 412.549 220.065 412.584 219.277C412.652 218.181 413.576 217.359 414.67 217.394C415.765 217.462 416.586 218.387 416.552 219.483C416.552 219.688 415.662 238.664 423.94 258.118C424.35 259.112 423.906 260.276 422.88 260.721C422.606 260.824 422.366 260.858 422.093 260.858Z" fill="#DBB2A3"/>
<path d="M430.986 276.511C430.371 276.511 429.789 276.237 429.413 275.723C427.361 272.949 425.445 269.935 423.735 266.784C423.222 265.825 423.564 264.626 424.522 264.112C425.479 263.598 426.677 263.941 427.19 264.9C428.797 267.88 430.61 270.723 432.56 273.36C433.21 274.25 433.039 275.484 432.149 276.134C431.807 276.374 431.397 276.511 430.986 276.511Z" fill="#DBB2A3"/>
<path d="M199.93 334.541H47.7358V410.014H199.93V334.541Z" fill="#006E39"/>
<path d="M57.6266 359.003C56.8565 359.003 56.208 358.369 56.208 357.587V347.748C56.208 346.108 56.8565 344.543 57.9914 343.388C59.1263 342.232 60.707 341.599 62.3283 341.599H92.7675C93.5376 341.599 94.1861 342.232 94.1861 343.015C94.1861 343.797 93.5376 344.431 92.7675 344.431H62.3283C61.4771 344.431 60.6259 344.766 60.018 345.4C59.41 345.996 59.0452 346.853 59.0452 347.748V357.587C59.0452 358.332 58.3967 359.003 57.6266 359.003Z" fill="white"/>
<path d="M57.6266 376.667C56.8565 376.667 56.208 376.034 56.208 375.251V366.978C56.208 366.195 56.8565 365.562 57.6266 365.562C58.3967 365.562 59.0452 366.195 59.0452 366.978V375.251C59.0452 376.034 58.3967 376.667 57.6266 376.667Z" fill="white"/>
<path d="M133.702 382.162C139.158 376.699 139.158 367.842 133.702 362.379C128.246 356.916 119.4 356.916 113.945 362.379C108.489 367.842 108.489 376.699 113.945 382.162C119.4 387.625 128.246 387.625 133.702 382.162Z" fill="#AAB9CC"/>
<path d="M123.845 393.295C135.445 393.295 144.849 383.879 144.849 372.263C144.849 360.648 135.445 351.231 123.845 351.231C112.245 351.231 102.841 360.648 102.841 372.263C102.841 383.879 112.245 393.295 123.845 393.295Z" fill="#CFD8E2" stroke="#8096B3" stroke-width="0.961739" stroke-miterlimit="1.6787" stroke-linecap="round" stroke-linejoin="round"/>
<path fill-rule="evenodd" clip-rule="evenodd" d="M113.669 363.776C113.726 363.577 113.924 363.463 114.123 363.463C114.322 363.463 114.521 363.605 114.578 363.776C115.146 365.54 116.112 368.528 116.425 369.495C116.482 369.694 116.681 369.808 116.88 369.808C117.903 369.808 121.028 369.808 122.875 369.808C123.074 369.808 123.273 369.95 123.33 370.121C123.387 370.32 123.33 370.519 123.16 370.662C121.654 371.771 119.125 373.592 118.3 374.19C118.13 374.304 118.073 374.531 118.13 374.731C118.443 375.698 119.409 378.686 119.977 380.45C120.034 380.649 119.977 380.848 119.807 380.99C119.636 381.104 119.409 381.104 119.238 380.99C117.732 379.881 115.203 378.06 114.379 377.462C114.209 377.348 113.981 377.348 113.811 377.462C112.987 378.06 110.458 379.909 108.952 380.99C108.781 381.104 108.554 381.104 108.383 380.99C108.213 380.877 108.156 380.649 108.213 380.45C108.781 378.686 109.747 375.698 110.06 374.731C110.117 374.531 110.06 374.332 109.889 374.19C109.065 373.592 106.536 371.743 105.03 370.662C104.86 370.548 104.803 370.32 104.86 370.121C104.917 369.922 105.115 369.808 105.314 369.808C107.19 369.808 110.287 369.808 111.31 369.808C111.509 369.808 111.708 369.666 111.765 369.495C112.134 368.499 113.1 365.54 113.669 363.776Z" fill="#8096B3"/>
<path fill-rule="evenodd" clip-rule="evenodd" d="M133.022 363.776C133.079 363.577 133.278 363.463 133.477 363.463C133.676 363.463 133.875 363.605 133.932 363.776C134.5 365.54 135.466 368.528 135.779 369.495C135.835 369.694 136.034 369.808 136.233 369.808C137.256 369.808 140.382 369.808 142.229 369.808C142.428 369.808 142.627 369.95 142.684 370.121C142.74 370.32 142.684 370.519 142.513 370.662C141.007 371.771 138.478 373.592 137.654 374.19C137.484 374.304 137.427 374.531 137.484 374.731C137.796 375.698 138.762 378.686 139.331 380.45C139.387 380.649 139.331 380.848 139.16 380.99C138.99 381.104 138.762 381.104 138.592 380.99C137.086 379.881 134.557 378.06 133.733 377.462C133.562 377.348 133.335 377.348 133.164 377.462C132.34 378.06 129.811 379.909 128.305 380.99C128.135 381.104 127.907 381.104 127.737 380.99C127.566 380.877 127.509 380.649 127.566 380.45C128.135 378.686 129.101 375.698 129.413 374.731C129.47 374.531 129.413 374.332 129.243 374.19C128.419 373.592 125.89 371.743 124.384 370.662C124.213 370.548 124.156 370.32 124.213 370.121C124.27 369.922 124.469 369.808 124.668 369.808C126.543 369.808 129.641 369.808 130.664 369.808C130.863 369.808 131.061 369.666 131.118 369.495C131.459 368.499 132.425 365.54 133.022 363.776Z" fill="#8096B3"/>
<path fill-rule="evenodd" clip-rule="evenodd" d="M41.7151 330.786C41.7151 329.805 42.1046 328.824 42.8349 328.137C43.5164 327.45 44.4901 327.058 45.4638 327.058C69.3683 327.058 199.942 327.058 199.942 327.058V334.564H45.4638C44.4901 334.564 43.5164 334.171 42.8349 333.485C42.1046 332.749 41.7151 331.767 41.7151 330.786Z" fill="#183A29"/>
<path fill-rule="evenodd" clip-rule="evenodd" d="M80.6274 322.125C80.9122 314.059 106.787 312.348 126.193 299.312C145.762 314.018 171.475 314.059 171.76 322.125V327.013H80.6274V322.125Z" fill="#AAB9CC"/>
<path d="M164.926 323.094H87.4598C87.0374 323.094 86.7124 322.768 86.7124 322.36C86.7124 321.953 87.0374 321.627 87.4598 321.627H164.926C165.348 321.627 165.673 321.953 165.673 322.36C165.673 322.768 165.348 323.094 164.926 323.094Z" fill="#8096B3"/>
<path fill-rule="evenodd" clip-rule="evenodd" d="M114.446 274.184C114.446 274.184 117.05 278.095 119.206 284.98C119.898 287.221 120.63 289.624 120.63 292.191C120.59 294.757 119.817 297.12 119.084 299.401C116.928 306.245 114.446 310.197 114.446 310.197C114.446 316.715 137.962 316.715 137.962 310.197C137.962 310.197 135.521 306.205 133.324 299.401C132.591 297.12 131.778 294.757 131.778 292.191C131.737 289.624 132.469 287.221 133.202 284.98C135.358 278.055 137.962 274.184 137.962 274.184C137.962 267.666 132.673 262.411 126.204 262.411C119.695 262.411 114.446 267.707 114.446 274.184Z" fill="#8096B3"/>
<path d="M161.152 251.153C159.19 251.153 157.539 249.634 157.405 247.669C157.227 245.57 158.788 243.783 160.885 243.604C177.656 242.354 188.05 233.555 188.674 220.111C188.897 215.778 187.826 212.562 185.418 210.284C180.244 205.371 170.43 206.22 170.341 206.265C168.245 206.488 166.416 204.969 166.193 202.87C165.97 200.771 167.486 198.94 169.583 198.716C170.118 198.672 182.92 197.466 190.637 204.791C194.696 208.632 196.569 213.902 196.257 220.468C195.855 228.82 192.51 236.056 186.533 241.461C180.422 246.999 171.768 250.349 161.465 251.153C161.331 251.108 161.242 251.153 161.152 251.153Z" fill="#8096B3"/>
<path d="M86.5405 251.153C86.4513 251.153 86.3621 251.153 86.2729 251.153C75.969 250.349 67.2709 247.044 61.2045 241.461C55.272 236.056 51.882 228.776 51.4805 220.468C51.1683 213.902 53.0417 208.587 57.1008 204.791C64.8622 197.466 77.6194 198.672 78.1547 198.716C80.2511 198.94 81.7231 200.771 81.5447 202.87C81.3217 204.925 79.4928 206.443 77.3964 206.265C77.3071 206.265 67.4939 205.371 62.2751 210.329C59.8664 212.607 58.8405 215.823 59.0189 220.155C59.6434 233.599 70.0364 242.398 86.8081 243.649C88.9046 243.828 90.4658 245.614 90.2874 247.714C90.1536 249.634 88.5031 251.153 86.5405 251.153Z" fill="#8096B3"/>
<path fill-rule="evenodd" clip-rule="evenodd" d="M76.4248 207.343V188.95C76.4248 186.347 78.5456 184.224 81.1452 184.224C97.8376 184.224 153.901 184.224 170.593 184.224C171.859 184.224 173.056 184.737 173.945 185.594C174.835 186.484 175.313 187.683 175.313 188.95C175.313 195.766 175.313 207.583 175.313 207.583C175.211 247.76 153.114 280.298 125.886 280.298C98.5901 280.298 76.4248 247.623 76.4248 207.343Z" fill="#AAB9CC"/>
<path fill-rule="evenodd" clip-rule="evenodd" d="M178.632 189.667C178.632 188.221 178.048 186.829 177.026 185.819C176.004 184.809 174.616 184.236 173.193 184.236C155.048 184.236 96.6724 184.236 78.528 184.236C77.0677 184.236 75.7169 184.809 74.6947 185.819C73.6725 186.829 73.0884 188.221 73.0884 189.667C73.0884 191.113 73.6725 192.505 74.6947 193.515C75.7169 194.525 77.1042 195.098 78.528 195.098C96.6724 195.098 155.048 195.098 173.193 195.098C174.653 195.098 176.004 194.525 177.026 193.515C178.085 192.505 178.632 191.113 178.632 189.667Z" fill="#CFD8E2"/>
<path d="M170.421 191.039H81.869C81.1261 191.039 80.4946 190.422 80.4946 189.669C80.4946 188.915 81.0889 188.299 81.869 188.299H170.421C171.164 188.299 171.795 188.915 171.795 189.669C171.758 190.422 171.164 191.039 170.421 191.039Z" fill="#8096B3"/>
<path d="M125.869 257.581C139.824 257.581 151.137 246.252 151.137 232.279C151.137 218.305 139.824 206.977 125.869 206.977C111.914 206.977 100.601 218.305 100.601 232.279C100.601 246.252 111.914 257.581 125.869 257.581Z" fill="#CFD8E2"/>
<path d="M125.88 261.765C109.648 261.765 96.4292 248.528 96.4292 232.275C96.4292 216.022 109.648 202.785 125.88 202.785C142.112 202.785 155.331 216.022 155.331 232.275C155.331 248.528 142.112 261.765 125.88 261.765ZM125.88 204.098C110.357 204.098 97.7405 216.732 97.7405 232.275C97.7405 247.819 110.357 260.452 125.88 260.452C141.403 260.452 154.019 247.819 154.019 232.275C154.019 216.732 141.403 204.098 125.88 204.098Z" fill="#8096B3"/>
<path d="M91.7164 244.909C90.9639 244.909 90.2113 244.464 89.9035 243.71C81.2836 223.365 82.173 204.116 82.2072 203.328C82.2756 202.232 83.1991 201.41 84.2937 201.444C85.3883 201.513 86.2093 202.438 86.175 203.534C86.175 203.739 85.2857 222.714 93.5635 242.169C93.974 243.162 93.5293 244.327 92.5031 244.772C92.2637 244.875 91.99 244.909 91.7164 244.909Z" fill="#CFD8E2"/>
<path d="M100.61 260.562C99.9943 260.562 99.4128 260.288 99.0365 259.774C96.9842 257 95.0687 253.986 93.3584 250.835C92.8453 249.875 93.1874 248.677 94.1451 248.163C95.1029 247.649 96.3001 247.992 96.8132 248.951C98.4208 251.931 100.234 254.773 102.183 257.411C102.833 258.301 102.662 259.534 101.773 260.185C101.431 260.425 101.02 260.562 100.61 260.562Z" fill="#CFD8E2"/>
<path d="M377.689 288.905H199.546V410.022H377.689V288.905Z" fill="#193326"/>
<path d="M211.303 318.723C210.533 318.723 209.884 318.09 209.884 317.307V302.624C209.884 299.232 212.64 296.475 216.045 296.475H257.914C258.684 296.475 259.333 297.108 259.333 297.891C259.333 298.673 258.684 299.307 257.914 299.307H216.045C214.221 299.307 212.762 300.798 212.762 302.587V317.27C212.721 318.09 212.114 318.723 211.303 318.723Z" fill="white"/>
<path d="M211.303 339.37C210.533 339.37 209.884 338.736 209.884 337.954V326.14C209.884 325.357 210.533 324.724 211.303 324.724C212.073 324.724 212.721 325.357 212.721 326.14V337.954C212.721 338.736 212.114 339.37 211.303 339.37Z" fill="white"/>
<path d="M314.491 374.308C328.78 360 328.78 336.801 314.491 322.493C300.202 308.184 277.034 308.184 262.745 322.493C248.455 336.801 248.455 360 262.745 374.308C277.034 388.616 300.202 388.616 314.491 374.308Z" fill="#FBCB22"/>
<path d="M288.63 382.448C307.402 382.448 322.619 367.211 322.619 348.414C322.619 329.618 307.402 314.38 288.63 314.38C269.859 314.38 254.641 329.618 254.641 348.414C254.641 367.211 269.859 382.448 288.63 382.448Z" fill="#FEEDB4" stroke="#ECA400" stroke-width="2.51847" stroke-miterlimit="2.7166" stroke-linecap="round" stroke-linejoin="round"/>
<path fill-rule="evenodd" clip-rule="evenodd" d="M287.721 328.018C287.855 327.617 288.189 327.35 288.589 327.35C288.99 327.35 289.391 327.617 289.457 328.018C290.793 332.164 293.264 339.786 293.998 342.06C294.132 342.461 294.466 342.729 294.866 342.729C297.27 342.729 305.217 342.729 309.624 342.729C310.024 342.729 310.425 342.996 310.492 343.397C310.625 343.798 310.492 344.2 310.158 344.467C306.619 347.008 300.142 351.755 298.205 353.159C297.871 353.427 297.738 353.828 297.871 354.229C298.606 356.503 301.076 364.125 302.412 368.271C302.546 368.672 302.412 369.073 302.078 369.341C301.744 369.608 301.277 369.608 300.943 369.341C297.404 366.8 290.927 362.052 288.99 360.648C288.656 360.381 288.189 360.381 287.855 360.648C285.918 362.052 279.441 366.733 275.902 369.341C275.568 369.608 275.101 369.608 274.767 369.341C274.433 369.073 274.299 368.672 274.433 368.271C275.768 364.125 278.239 356.503 278.974 354.229C279.107 353.828 278.974 353.427 278.64 353.159C276.703 351.755 270.226 347.075 266.687 344.467C266.353 344.2 266.219 343.798 266.353 343.397C266.486 342.996 266.82 342.729 267.221 342.729C271.561 342.729 279.575 342.729 281.979 342.729C282.379 342.729 282.78 342.461 282.847 342.06C283.915 339.853 286.386 332.231 287.721 328.018Z" fill="#FBCB22"/>
<path fill-rule="evenodd" clip-rule="evenodd" d="M194.37 285.121C194.37 283.061 196.065 281.393 198.112 281.393C222.318 281.393 356.447 281.393 380.653 281.393C382.699 281.393 384.395 283.061 384.395 285.121C384.395 287.182 382.699 288.85 380.653 288.85C356.447 288.85 222.318 288.85 198.112 288.85C196.065 288.899 194.37 287.231 194.37 285.121Z" fill="#006E39"/>
<path fill-rule="evenodd" clip-rule="evenodd" d="M234.896 275.481C235.239 265.767 266.4 263.706 289.771 248.007C313.338 265.718 344.303 265.767 344.646 275.481V281.368H234.896V275.481Z" fill="#FBCB22"/>
<path d="M336.4 276.501H243.147C242.717 276.501 242.404 276.158 242.404 275.765C242.404 275.373 242.756 275.029 243.147 275.029H336.4C336.831 275.029 337.144 275.373 337.144 275.765C337.183 276.158 336.831 276.501 336.4 276.501Z" fill="#ECA400"/>
<path fill-rule="evenodd" clip-rule="evenodd" d="M275.625 217.747C275.625 217.747 278.76 222.457 281.357 230.748C282.19 233.446 283.072 236.341 283.072 239.432C283.023 242.523 282.092 245.368 281.21 248.115C278.613 256.358 275.625 261.117 275.625 261.117C275.625 268.966 303.944 268.966 303.944 261.117C303.944 261.117 301.004 256.309 298.358 248.115C297.476 245.368 296.497 242.523 296.497 239.432C296.448 236.341 297.329 233.446 298.211 230.748C300.808 222.408 303.944 217.747 303.944 217.747C303.944 209.897 297.574 203.568 289.784 203.568C281.945 203.568 275.625 209.946 275.625 217.747Z" fill="#ECA400"/>
<path fill-rule="evenodd" clip-rule="evenodd" d="M234.639 158.019C202.703 155.802 188.972 146.266 182.86 132.384C176.747 118.502 176.437 98.4099 180.778 98.2768C183.214 98.3212 187.377 98.4543 189.504 98.2768C194.464 98.2768 190.389 102.002 197.565 114.066C208.018 131.719 228.659 133.803 228.659 133.803V118.635C228.659 118.635 210.853 122.05 203.19 107.724C195.527 93.3981 200.267 87.3662 195.262 87.4992C188.308 87.6766 177.456 87.6323 171.786 87.4992C165.275 87.3662 167.755 115.84 173.868 132.694C179.98 149.593 202.747 171.192 234.639 173.942C234.727 171.015 234.639 161.213 234.639 158.019Z" fill="#ECA400"/>
<path fill-rule="evenodd" clip-rule="evenodd" d="M344.154 158.019C376.089 155.802 389.82 146.266 395.933 132.384C402.045 118.502 402.355 98.4099 398.014 98.2768C395.578 98.3212 391.415 98.4543 389.289 98.2768C384.328 98.2768 388.403 102.002 381.227 114.066C370.774 131.719 350.133 133.803 350.133 133.803V118.635C350.133 118.635 367.939 122.05 375.602 107.724C383.309 93.3981 378.57 87.3662 383.575 87.4992C390.529 87.6766 401.381 87.6323 407.05 87.4992C413.561 87.3662 411.081 115.84 404.968 132.694C398.856 149.593 376.089 171.192 344.198 173.942C344.065 171.015 344.154 161.213 344.154 158.019Z" fill="#ECA400"/>
<path fill-rule="evenodd" clip-rule="evenodd" d="M218.578 120.607V101.67C218.578 97.8921 220.048 94.3106 222.743 91.6614C225.389 89.0121 229.014 87.4912 232.738 87.4912C259.881 87.4912 318.921 87.4912 346.064 87.4912C349.837 87.4912 353.414 88.963 356.06 91.6614C358.705 94.3106 360.224 97.9411 360.224 101.67C360.224 110.795 360.224 120.951 360.224 120.951C360.077 178.499 328.377 225.106 289.377 225.106C250.327 225.106 218.578 178.303 218.578 120.607Z" fill="#FBCB22"/>
<path fill-rule="evenodd" clip-rule="evenodd" d="M364.949 95.275C364.949 90.9751 361.445 87.457 357.157 87.457C331.168 87.457 247.551 87.457 221.562 87.457C217.274 87.457 213.77 90.936 213.77 95.275C213.77 99.5749 217.274 103.093 221.562 103.093C247.551 103.093 331.168 103.093 357.157 103.093C361.497 103.093 364.949 99.614 364.949 95.275Z" fill="#FEEDB4"/>
<path d="M353.176 96.6634H226.389C225.644 96.6634 225.006 96.0747 225.006 95.2897C225.006 94.5538 225.591 93.916 226.389 93.916H353.229C353.974 93.916 354.613 94.5047 354.613 95.2897C354.559 96.0256 353.921 96.6634 353.176 96.6634Z" fill="#FBCB22"/>
<path d="M312.65 179.587C325.498 166.722 325.498 145.864 312.65 132.999C299.802 120.134 278.972 120.134 266.124 132.999C253.276 145.864 253.276 166.722 266.124 179.587C278.972 192.452 299.802 192.452 312.65 179.587Z" fill="#FEEDB4"/>
<path d="M289.397 198.548C266.147 198.548 247.212 179.588 247.212 156.307C247.212 133.026 266.147 114.066 289.397 114.066C312.647 114.066 331.582 133.026 331.582 156.307C331.582 179.588 312.647 198.548 289.397 198.548ZM289.397 115.947C267.163 115.947 249.091 134.043 249.091 156.307C249.091 178.571 267.163 196.667 289.397 196.667C311.632 196.667 329.704 178.571 329.704 156.307C329.704 134.043 311.632 115.947 289.397 115.947Z" fill="#ECA400"/>
<path d="M240.481 174.416C239.404 174.416 238.326 173.778 237.885 172.699C225.538 143.606 226.812 115.984 226.861 114.856C226.959 113.286 228.282 112.109 229.849 112.158C231.417 112.256 232.593 113.58 232.544 115.15C232.544 115.494 231.319 142.673 243.127 170.491C243.715 171.914 243.078 173.582 241.608 174.219C241.216 174.318 240.873 174.416 240.481 174.416Z" fill="#FEEDB4"/>
<path d="M253.22 196.836C252.338 196.836 251.505 196.444 250.967 195.708C248.027 191.734 245.283 187.417 242.833 182.903C242.098 181.529 242.588 179.812 243.96 179.076C245.332 178.341 247.047 178.831 247.782 180.205C250.085 184.473 252.681 188.545 255.474 192.323C256.405 193.598 256.16 195.365 254.886 196.297C254.396 196.64 253.808 196.836 253.22 196.836Z" fill="#FEEDB4"/>
<path fill-rule="evenodd" clip-rule="evenodd" d="M261.935 34.3857C262.954 46.5263 267.464 54.1878 274.945 57.9597C267.182 61.8101 263.323 70.2181 261.935 81.5336C260.764 71.1217 257.143 62.6744 248.925 57.9597C255.495 53.7163 259.897 45.9762 261.935 34.3857Z" fill="#FEEDB4"/>
<path fill-rule="evenodd" clip-rule="evenodd" d="M54.8557 161.906C55.682 171.75 59.339 177.963 65.4047 181.021C59.1104 184.143 55.9809 190.961 54.8557 200.136C53.9062 191.693 50.9701 184.844 44.3066 181.021C49.6339 177.58 53.203 171.304 54.8557 161.906Z" fill="#FEEDB4"/>
<path fill-rule="evenodd" clip-rule="evenodd" d="M291.455 34.3574C292.22 43.4788 295.609 49.235 301.229 52.0688C295.397 54.9617 292.497 61.2787 291.455 69.7802C290.575 61.9577 287.854 55.6111 281.68 52.0688C286.616 48.9103 289.923 43.095 291.455 34.3574Z" fill="#ECA400"/>
<path fill-rule="evenodd" clip-rule="evenodd" d="M524.296 175.537C525.062 184.658 528.45 190.415 534.071 193.248C528.238 196.141 525.339 202.458 524.296 210.96C523.416 203.137 520.696 196.791 514.521 193.248C519.458 190.09 522.765 184.275 524.296 175.537Z" fill="#ECA400"/>
<path fill-rule="evenodd" clip-rule="evenodd" d="M212.218 216.819C212.984 225.941 216.372 231.697 221.992 234.531C216.16 237.424 213.261 243.741 212.218 252.242C211.338 244.42 208.618 238.073 202.443 234.531C207.38 231.372 210.687 225.527 212.218 216.819Z" fill="#ECA400"/>
<path fill-rule="evenodd" clip-rule="evenodd" d="M320.983 0C322.255 15.1597 327.887 24.7266 337.228 29.4364C327.535 34.2443 322.715 44.7433 320.983 58.8728C319.521 45.8717 314.999 35.3237 304.737 29.4364C312.941 24.1869 318.438 14.522 320.983 0Z" fill="#FEEDB4"/>
<path fill-rule="evenodd" clip-rule="evenodd" d="M501.529 146.122C502.548 158.263 507.058 165.924 514.539 169.696C506.776 173.546 502.916 181.954 501.529 193.27C500.358 182.858 496.737 174.411 488.519 169.696C495.089 165.492 499.469 157.713 501.529 146.122Z" fill="#FEEDB4"/>
<path fill-rule="evenodd" clip-rule="evenodd" d="M377.943 169.666C378.962 181.807 383.472 189.468 390.953 193.24C383.19 197.09 379.33 205.498 377.943 216.814C376.772 206.402 373.151 197.955 364.933 193.24C371.503 189.036 375.904 181.296 377.943 169.666Z" fill="#FEEDB4"/>
</svg>
