<svg width="398" height="309" viewBox="0 0 398 309" fill="none" xmlns="http://www.w3.org/2000/svg">
<g clip-path="url(#clip0_866_2015)">
<path d="M241.549 306.868C241.549 306.868 280.571 287.637 287.298 277.588C294.025 267.538 284.151 266.996 284.151 266.996C284.151 266.996 301.583 250.079 299.124 242.921C296.665 235.8 287.66 242.343 287.66 242.343C287.66 242.343 298.871 217.436 293.591 214.906C283.754 210.243 269.939 237.065 269.939 237.065C269.939 237.065 272.904 225.425 266.141 225.787C255.943 226.365 256.34 252.717 256.34 252.717C256.34 252.717 255.183 242.596 249.035 245.885C237.968 251.778 241.549 306.868 241.549 306.868Z" fill="#183A29"/>
<path d="M246.793 241.801C251.603 239.126 256.377 246.934 256.377 246.934C256.377 246.934 255.906 226.365 266.105 225.787C272.868 225.425 269.902 237.065 269.902 237.065C269.902 237.065 283.718 210.243 293.555 214.906L241.513 306.435C241.151 300.036 237.245 247.078 246.793 241.801Z" fill="#009344"/>
<path d="M242.562 307.122C242.562 307.122 274.496 311.099 282.741 307.556C291.023 304.013 285.092 299.676 285.092 299.676C285.092 299.676 302.849 296.205 304.223 290.747C305.598 285.288 297.388 285.722 297.388 285.722C297.388 285.722 314.422 274.697 312.144 271.01C307.912 264.105 288.383 275.239 288.383 275.239C288.383 275.239 294.965 269.166 290.589 266.672C283.971 262.876 273.519 279.468 273.519 279.468C273.519 279.468 274.17 275.384 268.998 274.914C259.74 274.082 242.562 307.122 242.562 307.122Z" fill="#183A29"/>
<path d="M268.818 271.913C273.989 272.383 273.555 279.432 273.555 279.432C273.555 279.432 284.188 259.731 290.806 263.527C295.182 266.057 290.011 274.299 290.011 274.299C290.011 274.299 307.912 264.069 312.18 270.973L242.489 306.905C244.84 302.784 260.138 271.154 268.818 271.913Z" fill="#009344"/>
<path d="M159.091 305.857C159.091 305.857 120.069 286.626 113.342 276.576C106.615 266.527 116.488 265.985 116.488 265.985C116.488 265.985 99.0929 249.067 101.552 241.909C104.011 234.788 113.161 241.584 113.161 241.584C113.161 241.584 101.841 216.388 107.122 213.894C116.959 209.231 130.774 236.053 130.774 236.053C130.774 236.053 127.808 224.413 134.571 224.775C144.77 225.353 144.372 251.706 144.372 251.706C144.372 251.706 145.529 241.584 151.677 244.874C162.708 250.766 159.091 305.857 159.091 305.857Z" fill="#183A29"/>
<path d="M153.883 240.789C149.073 238.114 144.3 245.922 144.3 245.922C144.3 245.922 144.77 225.353 134.571 224.775C127.808 224.413 130.774 236.053 130.774 236.053C130.774 236.053 116.959 209.231 107.122 213.894L159.164 305.423C159.525 299.025 163.395 246.103 153.883 240.789Z" fill="#009344"/>
<path d="M158.079 306.111C158.079 306.111 126.145 310.087 117.899 306.544C109.617 303.002 115.548 298.664 115.548 298.664C115.548 298.664 97.7911 295.194 96.4168 289.735C95.0426 284.277 103.505 284.819 103.505 284.819C103.505 284.819 86.182 273.685 88.4605 269.998C92.6918 263.094 112.221 274.227 112.221 274.227C112.221 274.227 105.639 268.154 110.015 265.66C116.633 261.864 127.085 278.457 127.085 278.457C127.085 278.457 126.434 274.372 131.606 273.902C140.936 273.071 158.079 306.111 158.079 306.111Z" fill="#183A29"/>
<path d="M131.099 268.334C125.928 268.804 126 273.829 126 273.829C126 273.829 116.489 258.755 109.87 262.55C105.494 265.081 110.666 273.323 110.666 273.323C110.666 273.323 92.7641 263.093 88.4966 269.997L158.187 305.929C155.837 301.772 139.779 267.575 131.099 268.334Z" fill="#009344"/>
<path d="M344.511 212.376C345.488 210.062 346.464 207.749 348.923 206.592C350.949 205.652 353.046 206.014 354.854 207.351C359.918 211.183 355.505 215.376 361.292 222.606C363.1 224.847 365.27 226.655 366.355 229.293C367.874 232.981 366.066 234.752 363.209 236.523C349.466 244.982 342.233 227.631 342.486 223.654C342.667 220.69 343.896 213.858 344.511 212.376Z" fill="black"/>
<path d="M336.23 289.336C336.917 292.409 337.966 295.084 338.11 295.409C338.183 295.554 338.797 296.096 338.87 296.24C338.689 300 336.338 302.35 334.168 304.012C334.602 302.096 335.615 299.891 335.434 299.458C335.181 298.807 334.204 295.77 332.215 291.975C334.132 291.686 334.747 290.529 336.23 289.336Z" fill="#F7A491"/>
<path d="M344.728 244.475L356.446 253.367C356.446 253.367 350.659 258.934 348.49 261.031C346.32 263.091 332.902 272.743 332.721 273.213C332.577 273.574 335.759 284.672 337.821 290.601C336.591 291.866 333.843 293.095 332.251 293.529C328.201 285.793 323.21 272.562 323.21 270.791C323.174 267.827 344.728 244.475 344.728 244.475Z" fill="#183A29"/>
<path d="M377.567 262.224C377.169 262.585 374.637 267.538 373.661 270.213C372.25 269.309 371.382 268.261 369.791 267.646C371.057 265.839 373.48 261.501 373.661 260.452C374.131 257.994 374.709 257.633 374.709 257.633C374.709 257.633 382.955 260.416 383.498 261.212C384.04 262.007 379.122 260.705 377.567 262.224Z" fill="#F7A491"/>
<path d="M373.624 260.995C372.974 260.995 373.697 258.104 373.841 257.453C374.022 256.694 374.456 256.477 374.565 256.441C374.854 256.368 384.004 259.477 385.559 260.562C385.668 260.634 385.848 260.887 385.885 260.923C386.716 262.514 379.194 262.803 378.109 262.116C377.096 261.538 376.482 260.995 373.624 260.995Z" fill="#3C8F7C"/>
<path d="M342.233 247.115L352.468 242.994C352.432 242.994 352.54 243.392 352.54 243.428C353.517 247.151 358.616 245.705 360.713 252.212C362.196 256.803 364.402 273.901 364.402 273.901C364.402 273.901 365.957 270.973 370.767 265.551C371.129 265.117 375.867 268.371 375.867 268.371C372.359 277.697 363.679 285.288 362.522 284.746C354.601 281.131 345.09 252.465 345.126 252.465C344.186 250.73 342.233 247.115 342.233 247.115Z" fill="#006E39"/>
<path d="M341.835 216.966C341.835 216.966 337.025 209.374 336.193 206.844C335.361 204.314 336.193 192.312 336.266 191.445C336.338 190.577 339.231 188.264 338.797 187.577C338.327 186.89 334.349 186.348 333.662 186.492C332.975 186.637 331.673 186.492 331.166 187.034C331.094 187.107 332.432 190.288 332.396 190.758C332.215 194.12 330.298 204.784 330.913 207.639C331.636 210.965 338.761 221.557 338.761 221.557L341.835 216.966Z" fill="#F7A491"/>
<path d="M359.267 221.376C359.267 221.376 372.106 221.702 374.927 221.919C377.748 222.136 387.946 221.304 388.344 221.268C388.742 221.232 391.346 216.786 391.78 217.255C392.214 217.725 390.333 219.461 390.912 219.894C391.49 220.328 397.783 219.352 397.711 219.822C397.566 220.69 393.877 220.581 393.877 221.015C393.877 221.449 397.711 220.762 397.964 221.485C398.217 222.172 394.275 221.774 394.131 222.063C393.986 222.389 397.783 222.931 397.385 223.582C397.168 223.943 393.986 223.003 394.022 223.473C394.022 223.943 396.337 225.027 396.083 225.425C395.794 225.823 394.275 224.268 392.937 224.232C391.599 224.196 390.622 223.509 388.489 224.088C386.355 224.666 379.05 227.63 374.457 227.413C369.9 227.196 359.773 226.763 359.773 226.763L359.267 221.376Z" fill="#F7A491"/>
<path d="M340.425 234.788C340.244 232.691 339.955 226.98 340.063 226.257C339.412 224.052 337.098 220.798 336.591 219.894C336.591 219.894 339.774 216.316 342.125 216.352C342.125 216.352 344.62 219.497 346.464 220.473C346.501 220.473 347.115 220.762 347.405 220.762C349.213 220.762 355.433 220.545 356.627 220.907L355.976 230.558C355.65 231.101 355.216 242.234 354.529 243.138C353.842 244.042 343.752 248.199 342.088 247.151C342.016 247.078 340.786 239.053 340.425 234.788Z" fill="#50BFA5"/>
<path d="M353.336 221.087C354.493 220.545 362.92 220.545 362.92 220.545C362.92 220.545 364.077 226.365 363.137 227.739C363.137 227.739 355.687 228.859 355.868 229.474L353.336 221.087Z" fill="#50BFA5"/>
<path d="M351.491 217.146C351.491 217.146 350.84 220.508 350.985 221.809C351.13 223.147 350.479 227.376 347.694 227.413C344.909 227.413 347.152 221.99 347.441 220.689C347.694 219.388 347.766 215.375 347.766 215.375L351.491 217.146Z" fill="#F7A491"/>
<path d="M347.658 217.436C347.694 216.352 347.73 215.412 347.73 215.412L351.491 217.147C351.491 217.147 351.347 217.834 351.238 218.702C349.574 219.063 348.381 218.449 347.658 217.436Z" fill="#F47458"/>
<path d="M352.865 207.893C352.865 207.893 354.312 208.688 354.854 210.423C355.397 212.159 354.782 216.641 351.057 217.725C347.332 218.81 345.705 215.267 346.464 212.484C347.187 209.737 348.887 206.23 352.865 207.893Z" fill="#F7A491"/>
<path d="M345.958 211.436C346.03 212.195 346.428 212.737 346.862 212.701C347.296 212.665 347.585 212.014 347.513 211.255C347.441 210.496 347.043 209.954 346.609 209.99C346.175 210.062 345.886 210.677 345.958 211.436Z" fill="#F7A491"/>
<path d="M338.146 295.482C338.363 294.867 340.822 296.675 341.401 297.036C342.052 297.434 342.124 297.94 342.088 298.048C342.052 298.338 336.265 306.001 334.53 307.086C334.349 307.194 334.023 307.194 333.915 307.158C332.902 306.796 334.313 300.651 335.542 299.386C336.374 298.627 337.206 298.193 338.146 295.482Z" fill="#3C8F7C"/>
<path d="M359.448 180.854L349.141 184.505C348.634 184.685 348.2 185.119 348.056 185.661L345.235 196.253C344.873 197.627 343.101 197.952 342.269 196.831L335.615 188.156C335.289 187.722 334.747 187.469 334.168 187.505L323.246 188.083C321.836 188.156 320.968 186.601 321.763 185.444L327.948 176.407C328.273 175.937 328.345 175.359 328.128 174.853L324.186 164.623C323.68 163.321 324.91 161.984 326.248 162.382L336.736 165.49C337.278 165.635 337.857 165.526 338.291 165.165L346.79 158.261C347.875 157.393 349.502 158.116 349.538 159.526L349.828 170.479C349.828 171.021 350.117 171.563 350.587 171.852L359.773 177.817C360.967 178.612 360.786 180.384 359.448 180.854Z" fill="#F7CC7F"/>
<path d="M338.761 187.686C339.159 188.265 337.061 190.036 336.483 191.012L335.181 189.241C335.795 189.132 338.291 187.072 338.761 187.686Z" fill="#F7A491"/>
<path d="M352.396 207.676C352.396 207.676 353.083 212.664 354.71 213.568C356.338 214.472 355.65 216.677 355.65 216.677C355.65 216.677 357.133 211.508 355.831 209.881C354.565 208.254 352.396 207.676 352.396 207.676Z" fill="#13375B"/>
<path d="M353.734 214.327C353.3 214.978 353.3 215.737 353.734 216.062C354.168 216.351 354.891 216.062 355.325 215.412C355.759 214.761 355.759 214.002 355.325 213.676C354.891 213.351 354.204 213.64 353.734 214.327Z" fill="#F7A491"/>
<path d="M335.615 188.119C335.615 188.119 335.615 188.155 335.615 188.119L336.121 188.77C335.759 188.661 335.108 188.481 334.458 188.914C334.458 188.914 334.675 188.481 335.615 188.119Z" fill="#F47257"/>
<path d="M54.212 243.752C54.3205 243.788 52.5484 246.102 50.8124 247.764C49.402 249.536 48.0638 251.632 47.6299 253.91C46.9427 257.38 47.5214 274.515 46.9065 275.744C41.7349 280.804 37.9737 293.493 36.9249 297.361C36.7079 298.12 36.3101 298.807 35.7314 299.313L35.9484 303.687L38.5162 306.036C38.5162 306.036 37.9375 302.458 39.0948 299.819C39.0948 299.819 52.1144 280.118 52.8738 278.599C54.3566 274.298 59.7453 252.319 59.7453 252.319L61.0111 247.258L54.212 243.752Z" fill="#F7A491"/>
<path d="M32.9106 300.686C32.9106 300.686 34.5381 303.18 34.6827 304.156C34.8274 305.133 35.6954 307.338 36.6357 307.482C36.8527 307.518 40.5777 307.771 40.5415 307.338C40.5054 306.976 39.1673 306.47 38.5524 306.036C37.4675 305.277 35.8039 299.204 35.8039 299.204C35.8039 299.204 32.983 299.891 32.9106 300.686Z" fill="#F47458"/>
<path d="M65.3508 251.343C65.3508 251.343 73.7412 269.273 73.7773 272.418C73.8135 275.129 72.2946 290.276 72.7286 302.892C72.7286 303.362 73.3072 303.94 74.1752 304.338C74.6453 304.555 76.9237 305.567 76.9237 305.567L77.2492 306.398L69.4013 305.856L69.2928 303.723C69.2928 303.723 66.1465 284.853 66.4719 279.503C66.5081 278.672 66.9421 273.647 66.9421 273.647L57.5029 255.392L63.434 247.584L65.3508 251.343Z" fill="#F7A491"/>
<path d="M66.1106 211.11C64.8448 207.712 61.5176 205.688 58.0818 206.302C57.033 204.603 55.2609 203.338 53.3442 202.904C49.5468 202.109 44.4113 203.591 44.556 207.604C43.0732 210.315 43.037 214.147 45.2793 216.207C44.4837 219.822 47.8832 223.328 52.3315 223.22C53.8867 225.75 56.8161 227.377 59.7093 227.052C60.3964 226.979 61.4814 226.799 61.6622 226.835C61.4452 226.799 66.3637 230.558 70.4866 224.774C74.7179 218.882 71.7162 211.725 66.1106 211.11Z" fill="#193326"/>
<path d="M65.6401 190.83C65.8571 190.36 66.1103 189.89 66.3996 189.456L66.7251 188.986C66.7613 188.914 66.7974 188.842 66.7974 188.769C66.9421 188.336 66.8336 186.998 66.8336 186.998L63.9765 187.685L63.3617 189.348C62.7107 189.059 61.6258 186.817 61.228 187.36C60.7578 187.974 62.5299 190.721 62.6746 191.444C62.8192 192.167 61.1556 203.663 60.6855 205.94C60.2153 208.217 56.9604 214.58 56.9604 214.58L59.926 218.339C59.926 218.339 64.6998 208.651 64.9892 205.687C65.0253 205.362 65.0615 204.928 65.0977 204.349L65.6401 190.83Z" fill="#F7A491"/>
<path d="M45.8577 226.725L42.3497 223.725C42.3497 223.725 39.4926 228.497 37.2142 232.365C34.9358 231.533 29.077 227.738 28.7877 227.557C28.4983 227.376 27.8474 223.074 27.3411 223.291C26.8347 223.508 27.7389 225.569 27.1241 225.713C26.5093 225.858 22.0247 222.857 21.9162 223.255C21.7354 224.014 24.5925 225.207 24.4478 225.532C24.3032 225.858 21.5546 223.978 21.1206 224.448C20.6866 224.918 23.8692 225.966 23.9053 226.292C23.9053 226.581 20.7951 225.713 20.8675 226.364C20.9036 226.725 23.6884 227.087 23.5075 227.448C23.3267 227.846 21.1929 227.882 21.2653 228.316C21.3376 228.714 23.0735 228.027 24.1223 228.461C25.1711 228.93 26.1476 228.677 27.5942 229.906C29.0408 231.136 36.2016 238.112 38.4438 237.534C40.3606 237.028 45.8577 226.725 45.8577 226.725Z" fill="#F7A491"/>
<path d="M58.1175 222.279C58.3345 220.905 60.4683 217.435 60.83 216.604C60.83 216.604 58.3707 213.459 56.3454 213.712C56.3454 213.712 53.633 218.194 52.1141 218.339C50.5952 218.483 45.1703 218.736 44.23 219.279C43.2897 219.857 39.2754 226.002 39.2754 226.002C39.2754 226.002 42.8919 229.69 44.3385 229.69C44.3385 229.69 45.098 228.171 45.4235 227.846C45.6405 228.569 49.0039 239.45 49.0039 241.908L49.04 241.944C52.1864 244.474 56.7794 243.896 59.2025 240.643C59.2025 240.643 58.9132 237.245 59.094 234.136C59.2748 229.183 60.2513 226.581 58.1175 222.279Z" fill="#F47458"/>
<path d="M75.5854 264.357L59.1302 240.607C58.1175 241.005 57.1411 241.367 56.0561 241.583C53.7054 242.053 51.3184 241.981 48.9315 241.873C48.9315 241.945 48.9315 242.053 48.9315 242.09C48.6422 244.042 46.0745 247.078 45.532 253.043C44.9172 259.802 45.2788 271.515 45.4958 272.274C56.4539 270.972 72.5114 267.611 75.5854 264.357Z" fill="#193326"/>
<path d="M66.0019 189.023C66.0019 189.023 64.9531 189.71 64.0851 189.493C63.2172 189.277 62.8193 188.951 62.8193 188.951C62.8193 188.951 63.2895 189.819 64.0128 190.216C65.2424 190.867 66.0019 189.023 66.0019 189.023Z" fill="#F47458"/>
<path d="M45.6047 184.106L55.1885 182.118C55.6586 182.01 56.1649 182.191 56.5266 182.552L63.5065 189.673C64.4107 190.577 65.9296 190.035 66.0743 188.733L67.2315 178.612C67.3039 178.106 67.5932 177.636 68.0272 177.419L76.6707 172.683C77.7918 172.069 77.7195 170.406 76.5984 169.864L67.7379 165.598C67.3039 165.381 66.9784 164.948 66.8699 164.442L65.2063 154.392C64.9893 153.091 63.4704 152.621 62.6024 153.597L55.9841 161.08C55.6586 161.477 55.1523 161.658 54.646 161.586L44.9898 160.104C43.7602 159.923 42.8561 161.297 43.4709 162.417L48.2447 171.31C48.4979 171.78 48.4979 172.322 48.2809 172.792L43.9772 181.938C43.3986 183.058 44.375 184.359 45.6047 184.106Z" fill="#F7CC7F"/>
<path d="M49.3296 214.363C49.3296 214.363 49.9082 217.472 49.7997 218.701C49.6912 219.93 50.2337 223.906 52.7291 223.906C55.2245 223.906 53.1993 218.882 52.9823 217.653C52.7291 216.46 52.693 212.736 52.693 212.736L49.3296 214.363Z" fill="#F7A491"/>
<path d="M52.7291 214.616C52.693 213.604 52.693 212.736 52.693 212.736L49.3296 214.363C49.3296 214.363 49.4381 215.014 49.5828 215.809C51.0294 216.098 52.0782 215.556 52.7291 214.616Z" fill="#F47458"/>
<path d="M48.1002 205.759C48.1002 205.759 46.7982 206.518 46.3281 208.109C45.8579 209.735 46.4004 213.893 49.7276 214.905C53.0548 215.917 54.5014 212.591 53.8143 210.025C53.1271 207.458 51.6444 204.169 48.1002 205.759Z" fill="#F7A491"/>
<path d="M54.248 209.048C54.1756 209.735 53.814 210.277 53.4162 210.241C53.0183 210.205 52.7652 209.59 52.8375 208.904C52.9098 208.217 53.2715 207.675 53.6693 207.711C54.0671 207.747 54.3203 208.325 54.248 209.048Z" fill="#F7A491"/>
<path d="M47.3045 211.723C47.7023 212.338 47.7023 213.061 47.3045 213.314C46.9067 213.603 46.2919 213.314 45.8941 212.699C45.4962 212.085 45.4962 211.362 45.8941 211.109C46.2557 210.82 46.9067 211.109 47.3045 211.723Z" fill="#F7A491"/>
<path d="M66.5083 185.227C65.8573 185.118 63.1088 187.251 63.1449 187.576C63.1811 187.902 65.8573 186.528 65.9296 186.745C66.002 186.926 62.9279 187.721 63.1088 188.01C63.2172 188.227 65.9658 187.649 66.0381 187.793C66.1466 188.01 63.7597 188.082 63.9044 188.335C64.0852 188.588 66.3636 188.48 66.3636 188.48C66.3636 188.48 66.8338 187.757 66.8699 187.468C66.9061 187.359 66.9061 187.179 66.8699 186.998C66.8699 186.853 66.9423 186.709 66.9061 186.528C66.7976 185.841 66.8338 185.299 66.5083 185.227Z" fill="#F7A491"/>
<path d="M62.8552 186.854L61.8426 188.119L61.1555 187.613C61.1555 187.613 61.0831 187.505 61.1916 187.324C61.2639 187.179 62.8191 186.384 62.8552 186.854Z" fill="#F7A491"/>
<path d="M69.3655 307.301H79.3109C79.6726 307.265 79.7811 306.976 79.6364 306.795C79.3833 306.434 78.226 306.145 76.924 305.53C74.6456 305.783 69.6548 304.193 69.2931 303.687C69.0761 304.735 69.1485 307.265 69.3655 307.301Z" fill="#F47458"/>
<path d="M61.879 188.047C61.879 188.047 63.2171 188.878 63.7958 189.818C64.3383 190.794 64.0851 191.589 64.0851 191.589L61.7705 188.734L61.879 188.047Z" fill="#F7A491"/>
<path d="M259.378 75.6973C259.125 76.8179 258.908 77.9746 258.329 78.9507C257.317 80.1797 256.376 81.4088 255.472 82.7101C256.087 82.674 256.738 82.6378 257.353 82.6378C263.573 82.6378 269.36 84.8429 273.663 88.8193C277.497 92.3619 279.594 96.9166 279.594 101.652C279.594 106.388 277.497 110.942 273.663 114.485C269.36 118.461 263.573 120.666 257.353 120.666C251.132 120.666 245.382 118.497 241.078 114.521C240.753 115.461 240.463 116.365 240.138 117.268C238.04 118.317 236.558 120.847 236.558 123.739C236.558 127.607 239.162 130.752 242.38 130.752C244.912 130.752 247.046 128.8 247.877 126.089C250.843 127.065 254.025 127.607 257.353 127.607C272.831 127.607 285.417 115.967 285.417 101.616C285.381 87.8794 273.916 76.6733 259.378 75.6973Z" fill="#E48700"/>
<path d="M133.559 75.6973C133.812 76.8179 134.029 77.9746 134.607 78.9507C135.62 80.1797 136.56 81.4088 137.464 82.7101C136.85 82.674 136.199 82.6378 135.584 82.6378C129.363 82.6378 123.577 84.8429 119.273 88.8193C115.44 92.3619 113.342 96.9166 113.342 101.652C113.342 106.388 115.44 110.942 119.273 114.485C123.577 118.461 129.363 120.666 135.584 120.666C141.804 120.666 147.555 118.497 151.858 114.521C152.184 115.461 152.473 116.365 152.799 117.268C154.896 118.317 156.379 120.847 156.379 123.739C156.379 127.607 153.775 130.752 150.556 130.752C148.025 130.752 145.891 128.8 145.059 126.089C142.094 127.065 138.911 127.607 135.584 127.607C120.105 127.607 107.52 115.967 107.52 101.616C107.556 87.8794 119.02 76.6733 133.559 75.6973Z" fill="#E48700"/>
<path d="M263.392 72.7324V79.926C263.392 112.352 237.064 138.668 204.624 138.668C189.687 138.487 179.416 140.005 165.24 133.752C144.806 124.787 130.087 104.254 130.087 79.9622V72.7686H263.392V72.7324Z" fill="#FFBF5C"/>
<path d="M165.24 133.714C165.24 133.714 165.276 133.714 165.276 133.751L186.396 72.7676H164.408L147.482 121.677C152.618 126.702 158.621 130.823 165.24 133.714Z" fill="#FAE0B2"/>
<path d="M178.982 137.836L201.26 72.7324H190.23L168.856 135.161C172.4 136.499 175.727 137.294 178.982 137.836Z" fill="#FAE0B2"/>
<path d="M145.349 119.401L162.021 72.7324H156.777L141.696 114.954C142.817 116.509 144.047 117.991 145.349 119.401Z" fill="#FAE0B2"/>
<path d="M257.57 68.6836H136.235C131.823 68.6836 128.206 71.1417 127.953 74.2505H265.888C265.599 71.1417 262.018 68.6836 257.57 68.6836Z" fill="#FFBF5C"/>
<path d="M174.208 136.932L181.08 172.177H211.097L219.596 136.932H174.208Z" fill="#FFBF5C"/>
<path d="M219.596 136.932L217.679 144.884H175.764L174.208 136.932H219.596Z" fill="#B75742"/>
<path d="M219.596 215.736H174.208L177.608 198.24L181.08 180.527H211.097L215.365 198.24L219.596 215.736Z" fill="#FFBF5C"/>
<path d="M219.596 215.736H174.208L177.608 198.24H215.365L219.596 215.736Z" fill="#B75742"/>
<path d="M216.377 172.178H175.8C174.028 172.178 172.545 173.624 172.545 175.431V177.311C172.545 179.082 173.992 180.564 175.8 180.564H216.341C218.113 180.564 219.596 179.118 219.596 177.311V175.431C219.596 173.624 218.149 172.178 216.377 172.178Z" fill="#FAE0B2"/>
<path d="M222.959 213.351H169.326V203.735C169.326 202.687 170.158 201.855 171.207 201.855H221.079C222.128 201.855 222.959 202.687 222.959 203.735V213.351Z" fill="#F7CC7F"/>
<path d="M240.68 220.218V223.725H151.605V220.218C151.605 216.169 154.064 212.916 157.102 212.916H235.183C238.221 212.916 240.68 216.206 240.68 220.218Z" fill="#FFBF5C"/>
<path d="M172.581 212.916L169.76 223.725H166.035L168.856 212.916H172.581Z" fill="#FAE0B2"/>
<path d="M167.265 212.916L164.444 223.725H160.719L163.54 212.916H167.265Z" fill="#FAE0B2"/>
<path d="M177.318 212.916L174.497 223.725H170.772L173.593 212.916H177.318Z" fill="#FAE0B2"/>
<path d="M273.844 303.687V307.193H124.59V303.687C124.59 299.638 128.713 296.385 133.812 296.385H264.622C269.685 296.385 273.844 299.638 273.844 303.687Z" fill="#FFBF5C"/>
<path d="M159.743 296.385L155.005 307.193H148.785L153.486 296.385H159.743Z" fill="#FAE0B2"/>
<path d="M150.81 296.385L146.072 307.193H139.852L144.589 296.385H150.81Z" fill="#FAE0B2"/>
<path d="M167.663 296.385L162.925 307.193H156.705L161.442 296.385H167.663Z" fill="#FAE0B2"/>
<path d="M234.93 130.281V132.92C234.93 137.511 231.241 141.198 226.648 141.198H166.867C162.274 141.198 158.585 137.511 158.585 132.92V130.281H234.93Z" fill="#FFBF5C"/>
<path d="M253.121 296.386H140.828L142.166 223.727H251.602L253.121 296.386Z" fill="#375139"/>
<path d="M226.431 296.386H167.518L168.241 223.727H225.636L226.431 296.386Z" fill="#81B278"/>
<path d="M374.456 307.193H0.831804C0.361654 307.193 0 307.555 0 308.025C0 308.495 0.361654 308.856 0.831804 308.856H374.456C374.926 308.856 375.288 308.495 375.288 308.025C375.288 307.555 374.926 307.193 374.456 307.193Z" fill="#184655"/>
<path d="M215.039 294.179L206.143 279.648L193.051 290.601L206.504 208.615L228.493 212.23L215.039 294.179Z" fill="#B75742"/>
<path d="M255.725 290.528L242.597 279.648L233.737 294.216L220.066 212.266L242.055 208.615L255.725 290.528Z" fill="#B75742"/>
<path d="M273.844 227.485C273.844 232.22 269.685 236.233 268.275 240.498C266.828 244.908 267.805 250.62 265.129 254.307C262.416 258.03 256.666 258.862 252.977 261.573C249.288 264.248 246.757 269.453 242.308 270.899C238.041 272.273 232.941 269.598 228.204 269.598C223.466 269.598 218.367 272.273 214.099 270.899C209.687 269.453 207.119 264.248 203.43 261.573C199.705 258.862 193.955 258.03 191.279 254.307C188.603 250.62 189.579 244.945 188.132 240.498C186.758 236.233 182.563 232.22 182.563 227.485C182.563 222.749 186.722 218.737 188.132 214.471C189.579 210.061 188.603 204.349 191.279 200.662C193.991 196.939 199.742 196.108 203.467 193.396C207.155 190.721 209.687 185.516 214.135 184.07C218.403 182.696 223.502 185.371 228.24 185.371C232.978 185.371 238.077 182.696 242.344 184.07C246.757 185.516 249.324 190.721 253.013 193.396C256.738 196.108 262.488 196.939 265.201 200.662C267.877 204.349 266.901 210.025 268.347 214.471C269.649 218.737 273.844 222.749 273.844 227.485Z" fill="#F47458"/>
<path d="M239.523 268.009C238.077 268.009 236.413 267.647 234.641 267.249C232.544 266.779 230.41 266.31 228.131 266.31C225.889 266.31 223.719 266.779 221.622 267.249C219.849 267.647 218.186 268.009 216.739 268.009C216.088 268.009 215.51 267.936 215.039 267.755C213.231 267.177 211.568 265.297 209.832 263.345C208.457 261.791 207.047 260.164 205.311 258.899C203.539 257.598 201.55 256.73 199.633 255.899C197.246 254.85 194.968 253.874 193.883 252.356C192.798 250.874 192.545 248.416 192.291 245.849C192.074 243.753 191.857 241.584 191.207 239.487C190.556 237.463 189.471 235.655 188.422 233.884C187.084 231.607 185.818 229.474 185.818 227.486C185.818 225.498 187.084 223.365 188.422 221.087C189.471 219.316 190.556 217.509 191.207 215.484C191.894 213.388 192.111 211.219 192.291 209.122C192.545 206.556 192.798 204.097 193.883 202.615C195.004 201.097 197.246 200.121 199.633 199.073C201.55 198.241 203.539 197.374 205.311 196.072C207.047 194.807 208.457 193.18 209.832 191.626C211.568 189.674 213.195 187.794 215.039 187.216C215.546 187.071 216.088 186.963 216.739 186.963C218.186 186.963 219.849 187.324 221.622 187.722C223.719 188.192 225.853 188.662 228.131 188.662C230.374 188.662 232.544 188.192 234.641 187.722C236.413 187.324 238.077 186.963 239.523 186.963C240.174 186.963 240.753 187.035 241.223 187.216C243.032 187.794 244.695 189.674 246.431 191.626C247.805 193.18 249.216 194.807 250.952 196.072C252.724 197.374 254.713 198.205 256.63 199.073C259.017 200.121 261.295 201.097 262.38 202.615C263.465 204.097 263.718 206.556 263.971 209.122C264.188 211.219 264.405 213.388 265.056 215.484C265.707 217.509 266.792 219.316 267.841 221.087C269.179 223.365 270.445 225.498 270.445 227.486C270.445 229.474 269.179 231.607 267.841 233.884C266.792 235.655 265.707 237.463 265.056 239.487C264.369 241.584 264.152 243.753 263.971 245.849C263.718 248.416 263.465 250.874 262.38 252.356C261.259 253.874 259.017 254.85 256.63 255.899C254.713 256.73 252.724 257.598 250.952 258.899C249.216 260.164 247.805 261.791 246.431 263.345C244.695 265.297 243.068 267.177 241.223 267.755C240.753 267.936 240.211 268.009 239.523 268.009Z" fill="#F7CC7F"/>
<path d="M261.122 232.089C263.667 213.898 250.976 197.089 232.777 194.545C214.578 192.001 197.761 204.686 195.216 222.877C192.671 241.068 205.361 257.877 223.561 260.421C241.76 262.964 258.576 250.28 261.122 232.089Z" fill="#F47458"/>
<path d="M228.168 259.079C245.625 259.079 259.776 244.934 259.776 227.485C259.776 210.036 245.625 195.891 228.168 195.891C210.711 195.891 196.559 210.036 196.559 227.485C196.559 244.934 210.711 259.079 228.168 259.079Z" fill="white"/>
<path d="M256.648 230.313C258.205 214.578 246.706 200.561 230.965 199.005C215.223 197.449 201.2 208.942 199.643 224.676C198.086 240.411 209.584 254.428 225.326 255.984C241.067 257.54 255.091 246.047 256.648 230.313Z" fill="#F7CC7F"/>
<path d="M261.44 25.7028C261.114 27.0042 260.572 29.0285 260.572 29.0285C260.608 29.5708 260.789 31.9204 260.969 34.7762L256.774 33.0772C256.774 33.0772 256.81 28.4501 256.63 28.161C256.485 27.9079 256.196 28.2332 254.93 26.3897C254.568 25.8474 254.496 24.9076 254.496 24.9076C254.496 24.9076 254.424 23.7508 254.677 23.6424C254.93 23.5339 255.255 23.7146 255.328 23.8954C255.436 24.1123 255.4 24.5822 255.509 24.763C255.617 24.9799 256.196 25.1967 256.449 25.1967C256.702 25.1967 256.413 21.7626 256.413 21.7626C256.413 21.7626 256.268 20.7866 256.196 20.4613C256.123 20.1721 255.87 19.3768 255.87 19.3768C255.87 19.3768 255.581 18.22 255.943 18.1477C256.16 18.1116 256.702 19.0515 257.064 20.0275C257.461 21.1119 257.678 22.2325 257.787 22.2325C258.04 22.1964 257.895 20.3167 257.895 20.3167C257.895 20.3167 257.642 19.4491 257.642 19.0515C257.389 18.5454 257.208 17.6416 257.678 17.5332C257.751 17.5332 258.329 18.69 258.329 18.69C258.329 18.69 258.546 19.5214 258.691 19.919C258.944 20.6059 258.98 21.6903 259.089 22.1602C259.197 22.5579 259.27 22.3771 259.342 22.4133C259.378 22.4133 259.306 21.8711 259.27 21.1481C259.234 20.7866 259.27 20.3528 259.161 19.919C259.053 19.5214 259.017 18.943 258.98 18.6177C258.908 17.6416 259.523 17.7501 259.74 18.6177C259.812 18.943 259.921 19.3406 259.993 19.7021C260.319 21.1481 260.319 22.5579 260.463 22.594C260.68 22.594 260.536 20.0636 260.536 20.0636C260.536 20.0636 260.861 18.6538 261.15 19.9552C261.512 21.4734 261.476 22.7386 261.476 22.7748C261.476 23.1001 261.765 24.4376 261.44 25.7028Z" fill="#F1C6A9"/>
<path d="M261.187 31.3056C261.187 31.3056 256.449 30.1849 256.413 30.5464C255.437 38.8607 254.966 41.861 254.822 41.9333C254.243 42.2225 246.685 35.2819 245.31 34.812C244.659 34.5951 243.972 34.6312 243.285 34.6312C241.694 34.6674 241.368 34.6674 241.368 34.6674C241.332 34.6674 241.296 34.6674 241.296 34.6674V36.1856C243.104 37.8123 247.263 62.502 247.589 62.4658C247.986 62.4297 256.196 64.5263 256.051 63.8033C256.015 63.6949 250.482 59.1763 248.927 52.6334C248.384 50.4283 248.131 48.0786 247.842 46.0181C249.65 46.9218 256.775 50.4283 257.896 49.9583C261.44 48.6208 261.187 31.3056 261.187 31.3056Z" fill="#3C8F7C"/>
<path d="M275.291 75.1545C275.291 75.1545 282.922 81.119 283.175 82.2035C283.537 83.7217 290.517 81.7336 288.853 81.4082C288.455 81.3359 287.226 81.0106 287.117 80.9744C286.575 80.6852 279.776 72.5156 279.776 72.5156L275.291 75.1545Z" fill="#F1C6A9"/>
<path d="M292.108 81.3722L287.226 80.9746C287.226 80.9746 285.851 82.1314 283.175 82.1675C283.175 82.1675 282.741 83.3966 282.958 84.8064C282.994 85.0594 283.031 85.7824 283.284 85.7824C284.188 85.7101 286.575 85.1317 289.323 84.5895C289.323 84.5895 293.012 83.8304 295.11 82.529C297.207 81.3 292.108 81.3722 292.108 81.3722Z" fill="#B75742"/>
<path d="M241.115 60.1534C241.115 60.1534 246.684 61.0933 252.869 59.6473C260.029 57.9845 267.913 56.4301 270.228 57.7676C272.109 58.852 283.718 76.4204 283.718 76.4204L279.233 79.7099L266.431 65.3588C266.431 65.3588 250.084 71.3957 246.395 70.7089C238.041 69.2268 237.932 62.5392 241.115 60.1534Z" fill="#183A29"/>
<path d="M247.227 56.6094L252.796 63.2608L242.453 66.4057L241.115 60.152L247.227 56.6094Z" fill="#183A29"/>
<path d="M258.583 86.9395C258.583 86.9395 258.257 96.1574 258.04 97.7118C257.823 99.2662 261.946 103.966 261.44 102.339C261.331 101.977 261.006 100.712 261.006 100.604C261.006 99.9892 262.525 89.4699 262.525 89.4699L258.583 86.9395Z" fill="#F1C6A9"/>
<path d="M264.044 105.701L261.006 100.748C261.006 100.748 259.342 100.062 258.004 97.748C258.004 97.748 256.738 97.9649 255.581 98.7964C255.364 98.941 254.026 99.9531 254.098 100.17C254.46 101.001 256.304 102.845 258.329 104.797C258.329 104.797 261.223 107.111 263.32 108.376C265.49 109.677 264.044 105.701 264.044 105.701Z" fill="#B75742"/>
<path d="M267.624 68.756C265.671 66.1533 249.903 63.6951 249.903 63.6951L245.491 55.2363L235.798 61.237C235.798 61.237 236.775 68.9729 237.498 71.0333C238.475 73.7807 245.021 73.9253 248.999 73.8891C252.688 73.853 259.378 74.6121 259.378 74.6121L257.1 94.6024C257.1 94.6024 261.548 95.6145 262.814 95.4699C262.959 95.4338 270.083 72.0094 267.624 68.756Z" fill="#006E39"/>
<path d="M241.332 34.7402L235.871 35.0656C235.871 35.0656 235.762 35.1017 235.69 35.1017C235.256 35.174 235.654 51.1518 236.052 57.1164C236.45 63.0809 237.245 65.5752 237.245 65.5752C237.245 65.5752 244.695 64.2377 246.974 63.3701C247.914 63.0086 250.229 60.1529 250.229 60.1529C250.229 60.1529 247.878 57.0079 246.72 51.8748C245.816 47.9346 244.695 40.9578 244.044 39.4757C242.561 36.15 241.332 34.7402 241.332 34.7402Z" fill="#A7D19E"/>
<path d="M236.015 30.2206L235.871 35.0646C235.871 35.0646 239.415 41.1737 241.259 40.3423C242.778 39.6193 241.44 34.9923 241.44 34.9923C241.44 34.9923 241.187 33.9078 240.825 32.7149C240.572 31.8473 240.355 30.9436 240.355 30.2568C240.355 28.5578 236.015 30.2206 236.015 30.2206Z" fill="#F1C6A9"/>
<path d="M240.319 30.1849C240.355 28.522 236.016 30.221 236.016 30.221V30.6909C236.16 30.9078 236.341 31.0886 236.486 31.2332C237.643 32.173 239.343 32.6068 240.717 32.4622C240.464 31.667 240.319 30.8355 240.319 30.1849Z" fill="#E1B190"/>
<path d="M240.247 19.1953C240.247 19.1953 242.055 21.9065 242.2 24.22C242.345 26.4974 241.838 28.0879 241.838 28.0879L236.016 21.1473L240.247 19.1953Z" fill="#EC975F"/>
<path d="M242.815 23.715C242.887 24.5103 242.598 25.1971 242.128 25.2694C241.657 25.3056 241.224 24.691 241.151 23.8958C241.079 23.1005 241.368 22.4137 241.838 22.3414C242.272 22.3052 242.706 22.9197 242.815 23.715Z" fill="#E1B190"/>
<path d="M234.171 22.233C234.026 22.1968 234.063 28.8844 235.979 30.4388C237.932 31.9932 241.296 32.1378 242.272 30.5834C243.357 28.8482 242.308 21.7992 239.451 20.3171C236.558 18.7988 234.171 22.233 234.171 22.233Z" fill="#F1C6A9"/>
<path d="M233.665 18.1116C232.182 19.4129 231.459 20.3528 230.482 22.6663C229.253 25.4859 231.676 28.4501 233.737 29.6069C235.799 30.7637 235.943 32.1735 235.943 32.1735L236.016 31.3059C236.052 30.9805 236.052 30.7275 235.979 30.5106C235.907 30.2576 235.799 30.0407 235.69 29.7876C235.509 29.4261 234.967 28.1248 234.75 27.7995C234.171 26.8957 234.063 26.715 234.352 25.8836C234.569 25.2329 234.316 23.7869 234.641 22.7386L237.39 22.1602C237.39 22.1602 239.126 21.7626 239.994 20.7504C242.525 17.8224 237.571 14.6051 233.665 18.1116Z" fill="#EC975F"/>
<path d="M235.003 26.6061C235.328 27.329 235.256 28.0882 234.858 28.3051C234.424 28.4858 233.809 28.052 233.484 27.329C233.158 26.6061 233.231 25.8469 233.628 25.6301C234.062 25.4132 234.677 25.8469 235.003 26.6061Z" fill="#F1C6A9"/>
<path d="M216.233 8.17059C216.558 9.47195 217.101 11.4963 217.101 11.4963C217.065 12.0385 216.884 14.3882 216.703 17.2439L220.898 15.5811C220.898 15.5811 220.862 10.954 221.043 10.6649C221.188 10.4118 221.477 10.7372 222.743 8.89357C223.104 8.35134 223.177 7.41147 223.177 7.41147C223.177 7.41147 223.249 6.2547 222.996 6.14626C222.743 6.03781 222.417 6.21856 222.345 6.3993C222.236 6.61619 222.272 7.08613 222.164 7.26687C222.056 7.48376 221.477 7.70066 221.224 7.70066C220.971 7.70066 221.26 4.26652 221.26 4.26652C221.26 4.26652 221.405 3.2905 221.477 2.96516C221.549 2.67597 221.802 1.8807 221.802 1.8807C221.802 1.8807 222.092 0.723937 221.73 0.651639C221.513 0.61549 220.971 1.55536 220.609 2.53138C220.211 3.61584 219.994 4.73645 219.886 4.73645C219.632 4.70031 219.777 2.82057 219.777 2.82057C219.777 2.82057 220.03 1.953 220.03 1.55536C220.283 1.04928 220.464 0.145556 219.994 0.0371094C219.922 0.0371094 219.343 1.19387 219.343 1.19387C219.343 1.19387 219.126 2.02529 218.981 2.42293C218.728 3.10976 218.692 4.19422 218.584 4.66416C218.475 5.06179 218.403 4.88105 218.331 4.9172C218.294 4.9172 218.367 4.37497 218.403 3.65199C218.439 3.2905 218.403 2.85672 218.511 2.42293C218.62 2.02529 218.656 1.44691 218.692 1.12157C218.764 0.145556 218.15 0.254002 217.933 1.12157C217.86 1.44691 217.752 1.84455 217.68 2.20604C217.354 3.65199 217.354 5.06179 217.209 5.09794C216.992 5.09794 217.137 2.56753 217.137 2.56753C217.137 2.56753 216.812 1.15772 216.522 2.45908C216.161 3.97733 216.197 5.24254 216.197 5.27869C216.197 5.56788 215.944 6.90538 216.233 8.17059Z" fill="#F1C6A9"/>
<path d="M235.871 35.0646C235.871 35.0646 230.446 34.8115 229.035 34.1609C228.167 33.7632 221.188 28.1602 221.188 28.1602L221.26 13.0861L216.341 12.7246C216.341 12.7246 213.81 29.3892 214.678 31.1967C215.582 33.0764 225.817 40.8122 227.878 44.1741C229.072 46.1261 231.531 72.4424 231.893 72.6955C234.533 74.0691 242.706 75.4428 242.525 74.6114C237.173 51.5484 235.871 35.0646 235.871 35.0646Z" fill="#3C8F7C"/>
<path d="M138.296 102.772C138.622 104.074 139.164 106.098 139.164 106.098C139.128 106.64 138.947 108.99 138.766 111.846L142.962 110.183C142.962 110.183 142.925 105.556 143.106 105.266C143.251 105.013 143.54 105.339 144.806 103.495C145.168 102.953 145.24 102.013 145.24 102.013C145.24 102.013 145.312 100.856 145.059 100.748C144.806 100.639 144.481 100.82 144.408 101.001C144.3 101.218 144.336 101.688 144.227 101.868C144.119 102.085 143.54 102.302 143.287 102.302C143.034 102.302 143.323 98.8681 143.323 98.8681C143.323 98.8681 143.468 97.8921 143.54 97.5667C143.613 97.2775 143.866 96.4823 143.866 96.4823C143.866 96.4823 144.155 95.3255 143.793 95.2532C143.576 95.2171 143.034 96.1569 142.672 97.1329C142.274 98.2174 142.057 99.338 141.949 99.338C141.696 99.3019 141.84 97.4221 141.84 97.4221C141.84 97.4221 142.094 96.5546 142.094 96.1569C142.347 95.6508 142.528 94.7471 142.057 94.6387C141.985 94.6387 141.406 95.7954 141.406 95.7954C141.406 95.7954 141.19 96.6269 141.045 97.0245C140.792 97.7113 140.756 98.7958 140.647 99.2657C140.539 99.6634 140.466 99.4826 140.394 99.5188C140.358 99.5188 140.43 98.9765 140.466 98.2536C140.502 97.8921 140.466 97.4583 140.575 97.0245C140.683 96.6269 140.719 96.0485 140.756 95.7231C140.828 94.7471 140.213 94.8556 139.996 95.7231C139.924 96.0485 139.815 96.4461 139.743 96.8076C139.417 98.2536 139.417 99.6634 139.273 99.6995C139.056 99.6995 139.2 97.1691 139.2 97.1691C139.2 97.1691 138.875 95.7593 138.586 97.0606C138.224 98.5789 138.26 99.8441 138.26 99.8803C138.26 100.169 137.971 101.507 138.296 102.772Z" fill="#F8A492"/>
<path d="M182.743 99.4108C182.418 100.712 181.875 102.737 181.875 102.737C181.912 103.279 182.092 105.628 182.273 108.484L178.078 106.821C178.078 106.821 178.114 102.194 177.933 101.905C177.789 101.652 177.499 101.977 176.234 100.134C175.872 99.5916 175.8 98.6517 175.8 98.6517C175.8 98.6517 175.727 97.4949 175.98 97.3865C176.234 97.278 176.559 97.4588 176.631 97.6395C176.74 97.8564 176.704 98.3264 176.812 98.5071C176.921 98.724 177.499 98.9409 177.753 98.9409C178.006 98.9409 177.716 95.5068 177.716 95.5068C177.716 95.5068 177.572 94.5307 177.499 94.2054C177.427 93.9162 177.174 93.1209 177.174 93.1209C177.174 93.1209 176.885 91.9642 177.246 91.8919C177.463 91.8557 178.006 92.7956 178.367 93.7716C178.765 94.8561 178.982 95.9767 179.091 95.9767C179.344 95.9405 179.199 94.0608 179.199 94.0608C179.199 94.0608 178.946 93.1932 178.946 92.7956C178.693 92.2895 178.512 91.3858 178.982 91.2773C179.054 91.2773 179.633 92.4341 179.633 92.4341C179.633 92.4341 179.85 93.2655 179.995 93.6632C180.248 94.35 180.284 95.4344 180.393 95.9044C180.501 96.302 180.573 96.1213 180.646 96.1574C180.682 96.1574 180.61 95.6152 180.573 94.8922C180.537 94.5307 180.573 94.097 180.465 93.6632C180.356 93.2655 180.32 92.6871 180.284 92.3618C180.212 91.3858 180.827 91.4942 181.044 92.3618C181.116 92.6871 181.224 93.0848 181.297 93.4463C181.622 94.8922 181.622 96.302 181.767 96.3382C181.984 96.3382 181.839 93.8078 181.839 93.8078C181.839 93.8078 182.165 92.398 182.454 93.6993C182.816 95.2176 182.779 96.4828 182.779 96.5189C182.816 96.772 183.069 98.1095 182.743 99.4108Z" fill="#F8A492"/>
<path d="M156.632 114.485C156.632 114.485 158.766 112.244 160.466 114.955C160.466 114.955 161.804 114.196 162.708 115.534C162.708 115.534 165.095 114.811 165.674 118.39C165.674 118.39 166.903 118.173 167.048 119.619C167.192 121.065 166.469 122.041 166.469 122.041C166.469 122.041 167.156 122.547 166.831 123.884C166.578 125.041 165.637 125.185 165.637 125.185C165.637 125.185 165.384 127.101 164.552 127.68C163.721 128.258 162.599 127.969 162.599 127.969C162.599 127.969 162.31 129.017 161.334 128.909C160.357 128.8 159.164 127.897 158.079 128.294C156.994 128.728 154.173 128.258 154.173 128.258C154.173 128.258 150.99 126.848 151.931 123.595C151.931 123.595 150.267 122.077 151.714 120.269C151.714 120.269 150.665 117.45 152.762 115.787C154.86 114.232 156.632 114.485 156.632 114.485Z" fill="#0A140F"/>
<path d="M171.315 208.617C171.315 208.617 173.63 211.509 174.208 211.834C174.787 212.196 173.955 216.353 172.364 216.642C171.46 216.787 170.99 215.811 170.99 215.811L171.243 214.618L167.916 211.184L171.315 208.617Z" fill="#F7A491"/>
<path d="M159.345 209.34C159.345 209.34 161.298 212.485 161.804 212.919C162.346 213.352 160.972 217.401 159.381 217.437C158.477 217.473 158.115 216.461 158.115 216.461L158.513 215.304L155.656 211.509L159.345 209.34Z" fill="#F7A491"/>
<path d="M161.695 212.773C161.695 212.773 160.574 214.183 159.959 214.762C159.164 215.485 158.187 216.208 158.187 216.208C158.187 216.208 157.066 218.268 156.741 218.991C156.053 220.582 155.258 222.389 155.402 223.257C155.439 223.546 156.09 223.835 156.632 223.69C158.874 223.004 164.625 217.762 165.348 216.352C166.144 214.725 161.695 212.773 161.695 212.773Z" fill="#07345A"/>
<path d="M145.312 164.767C145.529 164.189 145.71 163.647 145.927 163.141C148.314 163.647 151.026 164.225 153.775 164.84L154.1 174.997C154.1 174.202 152.003 191.192 152.003 191.192C152.003 191.192 157.391 203.121 161.08 210.062C159.561 211.942 158.874 212.556 156.668 213.857C150.954 206.989 143.468 194.445 143.142 192.385C142.998 191.156 142.817 171.78 145.312 164.767Z" fill="#B75742"/>
<path d="M166.614 167.732C165.89 175.648 164.263 190.795 164.407 191.988C164.805 193.506 172.038 207.495 173.34 209.556C172.328 211.11 170.7 212.773 169 213.243C168.675 213.352 156.777 196.398 156.126 195.06C155.402 193.542 154.173 185.264 154.137 174.998L153.811 164.84C158.368 165.816 162.635 166.792 166.614 167.732Z" fill="#F47458"/>
<path d="M151.425 131.656L156.849 132.415C156.849 132.415 161.225 132.524 161.732 132.524C162.274 132.524 165.674 152.333 166.686 159.816C167.663 167.263 166.903 168.6 166.903 168.6C166.903 168.6 159.996 170.155 154.896 169.685C149.58 169.215 143.613 166.359 143.613 166.359C143.613 166.359 148.133 152.008 149.038 147.526C150.014 143.043 151.425 131.656 151.425 131.656Z" fill="#96D9C9"/>
<path d="M138.26 107.617C138.26 107.617 137.898 122.402 138.477 123.523C139.273 125.149 148.423 136.825 148.423 136.825C148.423 136.825 144.047 155.081 142.238 161.37C142.057 162.021 141.226 166.106 141.226 166.504C141.226 167.407 145.095 168.528 145.529 168.456C145.927 168.383 149.29 151.032 151.46 142.537C152.184 139.645 153.45 136.934 155.149 134.512L156.632 132.379L145.168 120.884C145.168 120.884 143.757 108.087 143.757 107.039C143.757 106.786 138.803 106.569 138.26 107.617Z" fill="#183A29"/>
<path d="M161.587 132.451L175.908 117.883C175.908 117.883 177.897 104.11 178.042 103.604C178.187 103.098 181.731 102.809 183.178 102.664C183.648 102.628 182.924 117.341 182.237 119.799C181.442 122.727 170.628 135.993 170.628 135.993C170.628 135.993 168.675 143.187 169.145 148.465C169.905 157.213 172.002 169.286 171.641 169.648C169.326 171.094 160.393 171.275 159.815 170.371C153.558 160.358 161.587 132.451 161.587 132.451Z" fill="#183A29"/>
<path d="M156.994 129.739L156.596 132.595C156.596 132.595 155.728 136.716 156.849 137.511C157.97 138.307 161.587 132.487 161.587 132.487L161.189 125.221L156.994 129.739Z" fill="#F7A491"/>
<path d="M161.298 127.57C160.394 130.028 158.187 131.547 156.632 132.161L156.958 129.739L161.153 125.221L161.298 127.57Z" fill="#F47458"/>
<path d="M167.12 120.305C167.12 121.425 166.505 122.293 165.71 122.293C164.95 122.293 164.299 121.389 164.299 120.305C164.299 119.184 164.914 118.316 165.71 118.316C166.469 118.316 167.12 119.22 167.12 120.305Z" fill="black"/>
<path d="M161.189 117.159C162.128 117.159 162.889 116.641 162.889 116.002C162.889 115.364 162.128 114.846 161.189 114.846C160.25 114.846 159.489 115.364 159.489 116.002C159.489 116.641 160.25 117.159 161.189 117.159Z" fill="black"/>
<path d="M158.621 117.63C156.379 116.871 153.956 118.353 153.63 120.666C153.486 121.679 153.341 122.944 153.305 124.354C153.233 127.679 154.969 130.933 156.487 130.933C158.006 130.933 162.202 128.764 162.346 124.028C162.455 121.1 160.972 118.425 158.621 117.63Z" fill="#F7A491"/>
<path d="M161.225 124.39C161.225 125.113 161.731 125.728 162.31 125.728C162.889 125.728 163.395 125.113 163.395 124.39C163.395 123.667 162.889 123.053 162.31 123.053C161.731 123.053 161.225 123.667 161.225 124.39Z" fill="#F7A491"/>
<path d="M152.039 115.968C150.484 117.197 149.905 119.113 150.809 120.197C151.714 121.281 153.703 121.173 155.258 119.908C156.813 118.679 157.392 116.763 156.487 115.678C155.583 114.594 153.594 114.702 152.039 115.968Z" fill="#0A140F"/>
<path d="M157.609 117.956C158.408 117.956 159.055 117.519 159.055 116.98C159.055 116.441 158.408 116.004 157.609 116.004C156.81 116.004 156.162 116.441 156.162 116.98C156.162 117.519 156.81 117.956 157.609 117.956Z" fill="black"/>
<path d="M151.822 121.136C151.822 121.823 152.365 122.402 153.052 122.402C153.739 122.402 154.282 121.823 154.282 121.136C154.282 120.449 153.739 119.871 153.052 119.871C152.365 119.871 151.822 120.449 151.822 121.136Z" fill="black"/>
<path d="M174.064 211.725C174.064 211.725 173.16 213.279 172.617 213.894C171.93 214.725 171.026 215.556 171.026 215.556C171.026 215.556 170.158 217.761 169.941 218.484C169.471 220.147 168.928 222.172 169.145 223.075C169.218 223.365 169.833 223.907 170.339 223.545C172.292 222.28 177.572 216.279 178.114 214.761C178.729 213.098 174.064 211.725 174.064 211.725Z" fill="#07345A"/>
<path d="M276.448 150.67C276.448 150.67 270.192 151.646 265.526 156.273C260.897 160.9 258.112 168.311 258.112 168.311L267.588 171.094C267.66 171.058 263.863 162.201 276.448 150.67Z" fill="#FAE0B2"/>
<path d="M278.184 155.224L277.497 149.874L272.723 147.416C272.181 147.127 272.181 146.368 272.759 146.079L277.642 143.765L278.51 138.451C278.618 137.837 279.342 137.62 279.775 138.053L283.464 141.994L288.781 141.162C289.395 141.054 289.829 141.705 289.54 142.247L286.936 146.982L289.359 151.79C289.649 152.332 289.179 152.947 288.564 152.838L283.284 151.826L279.45 155.622C279.016 156.092 278.293 155.839 278.184 155.224Z" fill="#F7CC7F"/>
<path d="M111.389 179.119C111.389 179.119 117.646 180.095 122.311 184.722C126.94 189.349 129.725 196.76 129.725 196.76L120.25 199.543C120.214 199.507 124.011 190.651 111.389 179.119Z" fill="#FAE0B2"/>
<path d="M109.653 183.636L110.34 178.286L115.114 175.828C115.657 175.539 115.657 174.78 115.078 174.491L110.196 172.177L109.328 166.863C109.219 166.249 108.496 166.032 108.062 166.466L104.373 170.406L99.0568 169.574C98.4419 169.466 98.008 170.117 98.2973 170.659L100.901 175.394L98.4781 180.202C98.1888 180.744 98.6589 181.359 99.2738 181.25L104.554 180.238L108.387 184.034C108.858 184.504 109.581 184.251 109.653 183.636Z" fill="#F7CC7F"/>
<path d="M318.906 155.332L320.389 152.838L319.196 150.235C319.051 149.946 319.304 149.62 319.63 149.693L322.451 150.307L324.548 148.355C324.801 148.138 325.163 148.283 325.199 148.608L325.452 151.464L327.984 152.874C328.273 153.018 328.237 153.452 327.948 153.597L325.308 154.753L324.765 157.573C324.693 157.898 324.295 158.007 324.078 157.754L322.161 155.585L319.304 155.91C318.979 155.982 318.726 155.621 318.906 155.332Z" fill="#466EB6"/>
<path d="M177.319 43.2714L179.163 40.1626L177.644 36.8731C177.464 36.5116 177.789 36.0778 178.223 36.1862L181.767 36.9815L184.444 34.5234C184.733 34.2342 185.239 34.4149 185.275 34.8487L185.601 38.4636L188.783 40.2349C189.145 40.4518 189.109 40.9579 188.747 41.1386L185.42 42.5846L184.733 46.1633C184.66 46.5609 184.154 46.7055 183.865 46.3802L181.478 43.669L177.861 44.1028C177.391 44.0667 177.102 43.6329 177.319 43.2714Z" fill="#D54B3C"/>
<path d="M313.192 51.0078L308.31 54.2973L311.022 59.0328L306.357 62.467L308.418 67.3109L305.344 70.4559L306.936 72.0103L311.058 67.817L309.105 63.2261L313.952 59.6474L311.275 54.9842L315.688 52.02L313.192 51.0078Z" fill="#D54B3C"/>
<path d="M320.714 129.631L317.243 124.859L312.613 127.787L308.997 123.269L304.223 125.51L300.968 122.582L299.485 124.209L303.825 128.149L308.346 126.016L312.107 130.752L316.664 127.86L319.81 132.161L320.714 129.631Z" fill="#D54B3C"/>
<path d="M158.622 31.2332L159.815 25.4855L154.535 24.0395L155.439 18.328L150.557 16.3037L150.521 11.9297H148.314V17.8219L152.944 19.7017L152.003 25.6662L157.211 27.076L156.126 32.2815L158.622 31.2332Z" fill="#D54B3C"/>
<path d="M112.945 38.8965L115.151 43.0536L119.997 42.8006L122.167 47.6445L127.23 45.8009L129.906 51.1871L134.789 50.0303L138.224 54.7658L136.416 56.0672L133.848 52.5246L128.713 53.7536L126.109 48.5482L120.973 50.4641L118.587 45.1141L113.885 45.3671L111.787 41.4992L108.75 42.3306L108.171 40.1617L112.945 38.8965Z" fill="#F7CC7F"/>
<path d="M92.1134 71.8646L88.5692 72.226L87.3396 66.5507L82.0594 66.4422L80.4682 62.3574L78.4067 63.1888L80.5405 68.6473L85.5313 68.7558L86.7971 74.648L92.1496 74.1058L92.1134 71.8646Z" fill="#009344"/>
<path d="M85.7119 133.281L84.3738 136.607L78.8043 135.053L76.2366 139.643L71.8605 139.173L71.6436 141.379L77.4662 142.029L79.8893 137.655L85.7119 139.282L87.701 134.257L85.7119 133.281Z" fill="#009344"/>
<path d="M95.1871 96.12C99.1291 99.9156 99.2738 106.169 95.4764 110.146C91.679 114.086 85.4224 114.231 81.4442 110.435C77.5022 106.639 77.3575 100.386 81.1549 96.4091C84.9523 92.4689 91.2089 92.3243 95.1871 96.12Z" fill="#FFF3D9"/>
<path d="M94.9699 104.398L90.7386 105.699L89.4005 109.892C89.292 110.218 88.858 110.29 88.641 110.001L86.1094 106.386L81.6973 106.422C81.3356 106.422 81.1186 106.024 81.3356 105.735L83.9757 102.193L82.5652 97.9994C82.4567 97.6741 82.7822 97.3487 83.1077 97.4572L87.2667 98.9031L90.8109 96.2643C91.1003 96.0474 91.4981 96.2643 91.4981 96.6258L91.4257 101.036L95.0061 103.602C95.3678 103.856 95.2954 104.325 94.9699 104.398Z" fill="#FED333"/>
<path d="M354.204 112.641C358.146 116.437 358.29 122.69 354.493 126.667C350.696 130.607 344.439 130.751 340.461 126.956C336.519 123.16 336.374 116.906 340.172 112.93C343.969 108.954 350.262 108.845 354.204 112.641Z" fill="#FFF3D9"/>
<path d="M353.987 120.919L349.755 122.221L348.417 126.414C348.309 126.739 347.875 126.811 347.658 126.522L345.126 122.907L340.714 122.944C340.352 122.944 340.135 122.546 340.352 122.257L342.992 118.714L341.582 114.521C341.473 114.196 341.799 113.87 342.124 113.979L346.283 115.425L349.828 112.786C350.117 112.569 350.515 112.786 350.515 113.147L350.442 117.557L354.023 120.124C354.384 120.341 354.312 120.811 353.987 120.919Z" fill="#FED333"/>
<path d="M309.467 100.206L311.203 103.098C311.384 103.423 311.854 103.387 311.999 103.025L313.228 99.9165L316.519 99.1574C316.881 99.0851 316.989 98.6152 316.7 98.3983L314.096 96.2655L314.386 92.9037C314.422 92.5422 314.024 92.2891 313.698 92.506L310.877 94.3135L307.767 93.0121C307.442 92.8675 307.08 93.1567 307.189 93.5182L308.02 96.7716L305.814 99.302C305.561 99.5912 305.742 99.9888 306.104 100.025L309.467 100.206Z" fill="#F47458"/>
<path d="M303.355 166.104C303.355 167.225 302.451 168.129 301.33 168.129C300.209 168.129 299.305 167.225 299.305 166.104C299.305 164.984 300.209 164.08 301.33 164.08C302.451 164.116 303.355 165.02 303.355 166.104Z" fill="#009344"/>
<path d="M68.2803 105.267C68.2803 106.387 67.3038 107.291 66.1104 107.291C64.9169 107.291 63.9404 106.387 63.9404 105.267C63.9404 104.146 64.9169 103.242 66.1104 103.242C67.3038 103.242 68.2803 104.146 68.2803 105.267Z" fill="#009344"/>
<path d="M182.057 9.2195L184.697 9.72558C184.697 9.72558 188.566 7.91814 188.856 7.05057C189.145 6.183 189 4.19481 189.579 4.05022C190.158 3.94177 191.279 3.97792 191.713 5.31543C192.038 6.29144 190.953 9.2918 191.206 9.58099C191.387 9.76173 192.87 10.0871 193.991 10.3401C194.714 10.4847 195.293 11.0269 195.51 11.7861C195.655 12.2921 195.438 12.7982 194.968 13.0513L194.28 13.4128L194.606 14.1357C194.859 14.678 194.606 15.3286 194.1 15.5817L193.557 15.8347L193.81 16.2685C194.1 16.8469 193.883 17.5337 193.304 17.7868L192.834 18.0037L192.87 18.1483C193.015 18.6905 192.762 19.2689 192.219 19.4496L191.749 19.6304L184.733 18.2567C184.082 18.1121 183.467 17.8591 182.888 17.4614L180.501 16.5577C180.248 16.4493 180.104 16.1962 180.14 15.907L181.478 9.65329C181.478 9.32795 181.767 9.1472 182.057 9.2195Z" fill="#009344"/>
</g>
<defs>
<clipPath id="clip0_866_2015">
<rect width="398" height="309" fill="white"/>
</clipPath>
</defs>
</svg>
