<svg width="87" height="86" viewBox="0 0 87 86" fill="none" xmlns="http://www.w3.org/2000/svg">
<path d="M74.6107 32.5739V32.7693C74.6107 32.7693 74.6107 32.7693 74.6107 32.6716C74.5123 34.6258 72.3479 36.1891 69.79 36.1891H68.7078C66.0515 36.1891 63.9855 34.6258 63.8871 32.5739C63.8871 34.5281 61.7227 36.1891 59.0665 36.1891H57.8859C55.2296 36.1891 53.1636 34.6258 53.0652 32.5739C52.9668 34.5281 50.9008 36.1891 48.2445 36.1891H47.0639C44.4076 36.1891 42.3416 34.6258 42.2433 32.5739C42.1449 34.5281 40.0789 36.1891 37.4226 36.1891H36.242C33.5857 36.1891 31.5197 34.6258 31.4213 32.5739C31.3229 34.5281 29.2569 36.1891 26.6006 36.1891H25.4201C22.7638 36.1891 20.6978 34.6258 20.5994 32.5739C20.501 34.5281 18.435 36.1891 15.7787 36.1891H14.5981C11.9418 36.1891 9.87581 34.6258 9.77743 32.5739C9.77743 32.6716 9.77743 32.867 9.77743 32.9647C9.9742 34.7235 8.00657 36.1891 5.54704 36.1891H4.46484V80.5487H80.3168V36.1891H79.5298C76.7751 36.1891 74.7091 34.5281 74.6107 32.5739Z" fill="#FFC05C"/>
<path d="M4.36523 18.8941V36.1885H5.54581C8.00534 36.1885 9.97297 34.8205 10.2681 32.9641C10.2681 32.8664 10.2681 32.671 10.2681 32.5733C10.3665 34.5274 12.4325 36.1885 15.0888 36.1885H16.2694C18.9257 36.1885 20.9917 34.6251 21.0901 32.5733C21.1884 34.5274 23.2544 36.1885 25.9107 36.1885H27.0913C29.7476 36.1885 31.8136 34.6251 31.912 32.5733C32.0104 34.5274 34.0764 36.1885 36.7327 36.1885H37.9133C40.5696 36.1885 42.6356 34.6251 42.7339 32.5733C42.8323 34.5274 44.8983 36.1885 47.5546 36.1885H48.7352C51.3915 36.1885 53.4575 34.6251 53.5559 32.5733C53.6543 34.5274 55.7203 36.1885 58.3766 36.1885H59.5571C62.2134 36.1885 64.2794 34.6251 64.3778 32.5733C64.3778 34.5274 66.5422 36.1885 69.1985 36.1885H70.3791C72.937 36.1885 75.003 34.6251 75.1998 32.671C75.1998 32.671 75.1998 32.671 75.1998 32.7687V32.671C75.1998 32.671 75.1998 32.671 75.1998 32.5733C75.1998 34.5274 77.3642 36.1885 80.0205 36.1885H80.8075V18.8941H4.36523Z" fill="#E58800"/>
<path d="M13.3203 38.6306V64.9141H13.6155L50.4101 38.6306H13.3203Z" fill="#FFF6EB"/>
<path d="M13.6133 64.9141H50.5063V38.6306H50.4079L13.6133 64.9141Z" fill="white"/>
<path d="M75.2028 38.3381H54.0508V53.776H75.2028V38.3381Z" fill="white"/>
<path d="M75.2028 57.0981H54.0508V79.1802H75.2028V57.0981Z" fill="white"/>
<path d="M43.7196 3.35901V0.0369263H32.9961V7.16963V9.80775V27.1998C32.9961 29.2517 35.1605 30.9127 37.8168 30.9127H38.9973C41.6536 30.9127 43.818 29.2517 43.818 27.1998V3.74984C43.7197 3.55442 43.7196 3.45671 43.7196 3.35901Z" fill="#009345"/>
<path d="M54.4423 3.65213V0.0369263H43.7188V9.71004V27.1998C43.7188 29.2517 45.8831 30.9127 48.5394 30.9127H49.72C52.3763 30.9127 54.5407 29.2517 54.5407 27.1998V3.74984C54.4423 3.65213 54.4423 3.65213 54.4423 3.65213Z" fill="#163A32"/>
<path d="M65.1669 3.65213V0.0369263H54.4434V3.65213V27.1021C54.4434 29.154 56.6077 30.815 59.264 30.815H60.4446C63.1009 30.815 65.2653 29.154 65.2653 27.1021L65.1669 3.65213C65.1669 3.65213 65.1669 3.74984 65.1669 3.65213Z" fill="#009345"/>
<path d="M22.2714 0.0369263H15.6798C15.5814 0.0369263 15.5814 0.0369263 15.4831 0.0369263C14.0073 0.134634 12.63 0.330051 11.4494 0.818592V2.0888C8.20284 5.02005 7.71094 10.0032 7.71094 10.0032H11.4494V27.6883C11.4494 27.5906 11.4494 27.4929 11.4494 27.2975C11.5478 29.2517 13.6138 30.9127 16.2701 30.9127H17.4507C20.107 30.9127 22.2714 29.2517 22.2714 27.1998V9.90546V0.0369263V0.0369263Z" fill="#009345"/>
<path d="M10.3675 1.30739C0.627753 5.80197 0.824515 21.2399 0.824515 21.2399V27.2001C0.824515 29.2519 2.9889 30.913 5.6452 30.913H6.72739C9.18693 30.913 11.1546 29.5451 11.4497 27.6886V0.818848C11.1546 1.01426 10.761 1.11197 10.3675 1.30739Z" fill="#163A32"/>
<path d="M75.8888 9.41692H77.1678L75.8888 7.46275V3.74984V3.65213V0.818592C74.5115 0.330051 72.9374 0.0369263 71.1665 0.0369263H70.9698H65.2637V3.65213C65.2637 3.65213 65.2637 3.65213 65.2637 3.74984V27.1998C65.2637 29.2517 67.4281 30.9127 70.0844 30.9127H71.2649C73.8228 30.9127 75.8888 29.3494 76.0856 27.3952C76.0856 27.3952 76.0856 27.3952 76.0856 27.4929V27.3952V27.2975V9.41692H75.8888Z" fill="#163A32"/>
<path d="M75.8887 27.1995V27.3949C76.0854 29.349 78.1514 30.8147 80.7093 30.8147C77.9547 30.9124 75.8887 29.2513 75.8887 27.1995Z" fill="#8F5F96"/>
<path d="M86.5146 21.2398C86.5146 21.2398 86.8097 5.8019 76.9716 1.30733C76.5781 1.11191 76.1845 1.0142 75.791 0.818787V3.75003V27.2C75.791 29.2519 77.9554 30.9129 80.6117 30.9129H81.6939C84.3502 30.9129 86.5146 29.2519 86.5146 27.2V21.2398Z" fill="#009345"/>
<path d="M32.9951 3.45671V0.0369263H22.2715V3.35901C22.2715 3.45671 22.2715 3.65213 22.2715 3.74984V27.1998C22.2715 29.2517 24.4359 30.9127 27.0922 30.9127H28.2727C30.929 30.9127 33.0934 29.2517 33.0934 27.1998V3.74984C32.995 3.65213 32.9951 3.55442 32.9951 3.45671Z" fill="#163A32"/>
<path d="M46.276 56.6103C45.1938 56.6103 44.1116 57.0011 43.3246 57.5874C42.5375 55.1447 40.1764 53.3859 37.4217 53.3859C34.7654 53.3859 32.5026 54.9493 31.6172 57.1965C30.9285 56.9034 30.1415 56.8057 29.2561 56.8057C28.1739 56.8057 27.2884 57.0988 26.403 57.4897C25.5176 55.3401 23.2548 53.7768 20.6969 53.7768C18.139 53.7768 15.8762 55.3401 14.9908 57.4897C14.4989 57.2943 14.007 57.1965 13.515 57.1965C11.0555 57.1965 9.08789 59.053 9.08789 61.398C9.08789 63.743 11.0555 65.5995 13.515 65.5995C14.794 65.5995 15.9746 65.0132 16.7616 64.2315C17.8438 65.1109 19.2212 65.5995 20.6969 65.5995C21.7791 65.5995 22.6645 65.3063 23.5499 64.9155C24.4354 67.0651 26.6981 68.6284 29.2561 68.6284C31.9123 68.6284 34.1751 67.0651 35.0605 64.8178C35.7492 65.1109 36.5363 65.2086 37.4217 65.2086C39.1926 65.2086 40.7667 64.5247 41.8489 63.3522C42.6359 64.9155 44.3084 65.9903 46.276 65.9903C49.0307 65.9903 51.1951 63.8407 51.1951 61.3003C51.1951 58.6622 49.0307 56.6103 46.276 56.6103Z" fill="#28523E"/>
<path d="M53.3589 62.6675H8.10352V79.4733H53.3589V62.6675Z" fill="#B3B3B3"/>
<path d="M82.9727 82.5024C82.9727 84.2611 81.4969 85.7268 79.7261 85.7268H4.85791C3.08705 85.7268 1.61133 84.2611 1.61133 82.5024C1.61133 80.7436 3.08705 79.278 4.85791 79.278H79.7261C81.4969 79.278 82.9727 80.7436 82.9727 82.5024Z" fill="#009345"/>
</svg>
