<svg width="126" height="65" viewBox="0 0 126 65" fill="none" xmlns="http://www.w3.org/2000/svg">
<path d="M61.4594 40.2552C61.4594 40.2552 61.1839 44.5942 57.9468 45.6273C54.7098 46.6604 54.021 46.5915 54.4343 47.418C54.8475 48.1756 57.1892 56.647 57.0515 58.4377C56.9826 60.2284 60.4263 58.0934 62.3547 54.7186C64.2832 51.3438 65.3163 42.1148 65.3163 42.1148L61.4594 40.2552Z" fill="#EF920F"/>
<path d="M94.45 43.0101C94.45 43.0101 91.5573 49.3465 89.009 50.9306C86.9428 52.1703 89.4222 60.9861 90.4553 64.3609C90.6619 64.9807 91.4195 65.0496 91.7639 64.5675C93.7612 61.8125 98.5135 54.6497 98.4446 47.6247C98.3069 38.74 98.3069 38.5334 98.3069 38.5334L94.45 43.0101Z" fill="#EF920F"/>
<path d="M90.9371 14.9787C90.8682 14.6344 89.0087 0.928576 81.226 0.37759C73.4433 -0.173396 50.9906 11.0529 49.7509 12.4304C48.5112 13.8079 50.784 19.731 50.784 19.731L90.9371 14.9787Z" fill="#EF920F"/>
<path d="M125.236 28.4778C125.03 29.5109 124.341 30.6129 123.239 31.7838C119.933 35.434 111.393 44.1121 87.3559 46.1094C63.3191 48.1067 41.6241 38.74 32.6017 37.2936C30.6732 37.0181 28.7448 37.2247 26.8852 37.9135C26.5408 38.0512 26.1276 38.189 25.7832 38.3267C19.5846 40.9439 14.0748 47.4869 9.73574 49.8286C3.88151 52.9967 2.02194 48.6577 4.70799 43.8366C7.39405 39.0155 8.01391 33.1612 6.84307 28.8222C5.60335 24.4832 -0.801869 17.3892 1.19546 15.0476C3.12391 12.7059 14.4191 17.5959 14.4191 17.5959C21.0998 20.6263 24.5435 22.2104 28.4693 22.4859C34.2546 22.8991 40.9353 20.4885 60.7708 15.9429C93.83 8.29797 112.15 21.7971 119.244 23.5878C123.997 24.7587 125.649 26.4116 125.236 28.4778Z" fill="#FFC05C"/>
<path opacity="0.37" d="M125.236 28.4779C125.029 29.511 124.341 30.613 123.239 31.7838C119.933 35.4341 111.392 44.1121 87.3556 46.1095C63.3188 48.1068 41.6237 38.74 32.6013 37.2937C30.6729 37.0182 28.7444 37.2248 26.8849 37.9135C26.5405 38.0513 26.1273 38.189 25.7829 38.3268C24.9564 35.503 23.9922 32.2659 23.9922 32.2659C23.9922 32.2659 49.5442 38.3957 80.3994 37.9824C102.026 37.7758 117.729 31.9216 125.236 28.4779Z" fill="#FFF6EB"/>
<path d="M26.7474 36.5361C26.8163 37.0182 26.8852 37.4315 26.8852 37.9136C20.2045 40.1864 14.2814 47.3492 9.73574 49.8286C3.88151 52.9968 2.02194 48.6578 4.70799 43.8367C7.39405 39.0155 8.01391 33.1613 6.84307 28.8223C5.60335 24.4833 -0.801869 17.3893 1.19546 15.0476C3.12391 12.706 14.4191 17.596 14.4191 17.596C21.0998 20.6264 24.5435 22.2105 28.4693 22.486C27.0918 27.0316 26.1276 32.1282 26.7474 36.5361Z" fill="#E58800"/>
<path d="M89.49 31.1639C89.49 31.1639 80.6054 30.5441 73.6491 29.2355C66.6929 27.9269 65.1777 27.9269 65.1777 27.9269C65.1777 27.9269 68.2082 39.7042 76.8173 39.3598C85.4265 39.0155 89.4211 35.0897 89.4211 35.0897L89.49 31.1639Z" fill="#E58800"/>
</svg>
