<svg width="93" height="92" viewBox="0 0 93 92" fill="none" xmlns="http://www.w3.org/2000/svg">
<path d="M58.353 60.8191C57.949 58.8998 54.9192 54.6572 55.5251 46.4751C56.1311 38.2929 58.252 36.9797 58.252 36.9797" stroke="#3D6026" stroke-width="2.0662" stroke-miterlimit="10" stroke-linecap="round" stroke-linejoin="round"/>
<path d="M32.2969 63.6475C32.2969 63.6475 36.6396 56.4755 43.0022 55.7684C49.3648 55.0613 50.0718 57.8897 59.5652 58.2937C69.0587 58.5968 77.3402 57.4856 79.461 63.6475C81.4809 69.7083 80.6729 73.1428 80.6729 73.1428C80.6729 73.1428 60.4742 83.8503 57.5453 83.8503C54.6165 83.8503 42.0933 82.7392 39.4674 80.9209C36.8416 79.0017 32.2969 63.6475 32.2969 63.6475Z" fill="#CA5B17"/>
<path d="M14.2177 60.8191C14.2177 60.8191 27.145 59.1018 32.6996 60.415C38.1533 61.7282 42.799 66.3748 50.9795 67.0819C59.16 67.789 65.9266 67.284 66.0276 71.1225C66.1286 74.961 65.1187 75.4661 56.5342 75.5671C47.9497 75.6681 40.4761 74.86 40.4761 74.86C40.4761 74.86 40.4761 79.1026 52.5954 79.0016C64.6137 78.9006 68.0475 75.8702 68.0475 75.8702C68.0475 75.8702 71.9862 72.9408 81.3787 70.3144C90.7711 67.688 92.387 69.3043 92.589 70.5164C92.791 71.6276 60.9779 89.3051 57.7461 90.5172C54.4133 91.6284 48.7576 92.4365 40.6781 89.9111C32.5986 87.3858 9.875 80.2138 9.875 80.2138L14.2177 60.8191Z" fill="#EF8B7B"/>
<path d="M2.90714 56.3745C1.69522 56.3745 0.685277 57.3846 0.786271 58.5968C0.988258 62.5363 1.79621 70.9205 4.11907 76.2742C7.35087 83.6483 8.76479 85.2645 8.76479 85.2645C8.76479 85.2645 15.8344 86.2746 16.3393 84.9614C16.8443 83.6483 17.3493 56.9805 15.8344 56.6775C14.7234 56.6775 6.8459 56.4755 2.90714 56.3745Z" fill="#D37300"/>
<path d="M48.6568 44.2527C48.6568 44.8588 37.3454 47.4852 31.1848 35.6665C25.0242 23.8479 24.1152 20.2114 24.1152 20.2114C24.1152 20.2114 50.5756 21.2215 48.6568 44.2527Z" fill="#5F9E36"/>
<path d="M58.3529 33.4442C57.141 34.0503 47.2436 22.1306 57.242 11.4231C67.2404 0.715637 66.8364 0.715637 66.8364 0.715637C66.8364 0.715637 71.5831 7.78663 69.9672 17.0799C68.2503 26.3732 63.8066 30.8179 58.3529 33.4442Z" fill="#5F9E36"/>
<path d="M62.0891 42.5355C60.7761 41.7274 66.4318 30.8179 77.6421 29.6057C88.8524 28.3936 92.1852 32.5351 92.1852 32.5351C92.1852 32.5351 88.1455 36.1716 86.0246 40.2122C83.8028 44.2528 74.4103 49.8086 62.0891 42.5355Z" fill="#5F9E36"/>
</svg>
