<svg width="86" height="100" viewBox="0 0 86 100" fill="none" xmlns="http://www.w3.org/2000/svg">
<path d="M19.7871 31.6838C19.7871 31.6838 25.7764 59.2083 46.628 78.1523C67.4796 97.0964 74.9108 98.4336 74.9108 98.4336" stroke="#E58800" stroke-width="1.37747" stroke-miterlimit="10" stroke-linecap="round" stroke-linejoin="round"/>
<path d="M17.4582 28.2293C17.4582 28.2293 12.0235 26.7806 13.3544 18.3115C14.6854 9.84245 14.5744 9.73102 14.5744 9.73102C14.5744 9.73102 27.2185 23.3261 17.4582 28.2293Z" fill="#FFC05C"/>
<path d="M18.0121 38.5928C18.0121 38.5928 14.2411 42.7159 7.36446 37.5899C0.487866 32.4639 0.376953 32.4639 0.376953 32.4639C0.376953 32.4639 18.123 27.5607 18.0121 38.5928Z" fill="#FFC05C"/>
<path d="M22.8914 52.1879C22.8914 52.1879 19.1204 56.311 12.2438 51.1849C5.36719 46.0589 5.36719 46.0589 5.36719 46.0589C5.36719 46.0589 23.0023 41.1557 22.8914 52.1879Z" fill="#FFC05C"/>
<path d="M31.3213 66.006C31.3213 66.006 28.4375 70.7977 20.6736 67.2317C12.7988 63.6658 12.7988 63.6658 12.7988 63.6658C12.7988 63.6658 29.2139 55.1967 31.3213 66.006Z" fill="#FFC05C"/>
<path d="M40.6374 77.9294C40.6374 77.9294 37.6428 83.0554 29.3243 79.2666C21.0059 75.4778 21.0059 75.4778 21.0059 75.4778C21.0059 75.4778 38.3083 66.3401 40.6374 77.9294Z" fill="#FFC05C"/>
<path d="M25.4435 35.1383C25.4435 35.1383 23.4471 34.804 24.0016 31.2381C24.5562 27.5607 29.5473 24.2177 30.3236 23.3262C31.1 22.4347 31.1 22.4347 31.1 22.4347C31.1 22.4347 31.7655 28.1179 30.7673 31.2381C29.6582 34.1354 27.6617 34.804 25.4435 35.1383Z" fill="#FFC05C"/>
<path d="M30.988 48.7334C30.988 48.7334 28.6588 48.622 28.9915 44.4989C29.2133 40.3758 34.3153 36.1412 35.0917 35.0269C35.8681 33.9125 35.8681 33.9125 35.8681 33.9125C35.8681 33.9125 37.1991 40.1529 36.4227 43.6074C35.5354 47.1733 33.3171 48.1763 30.988 48.7334Z" fill="#FFC05C"/>
<path d="M37.6432 61.437C37.6432 61.437 35.314 61.5484 35.2031 57.4253C35.0922 53.3022 39.7505 48.6219 40.5269 47.5076C41.3033 46.3932 41.1924 46.2818 41.1924 46.2818C41.1924 46.2818 43.0779 52.4107 42.5234 55.8652C42.0797 59.4312 39.9724 60.657 37.6432 61.437Z" fill="#FFC05C"/>
<path d="M46.6272 71.9119C46.6272 71.9119 44.0762 72.5805 43.2998 68.4574C42.5234 64.3343 47.0708 58.5397 47.7363 57.091C48.2909 55.7538 48.2909 55.7538 48.2909 55.7538C48.2909 55.7538 51.3964 61.437 51.2855 65.1144C51.1746 68.7917 49.1782 70.5747 46.6272 71.9119Z" fill="#FFC05C"/>
<path d="M61.6011 17.42C61.6011 17.42 59.161 38.7041 69.365 57.5367C79.569 76.3693 84.671 79.2666 84.671 79.2666" stroke="#E58800" stroke-width="1.37747" stroke-miterlimit="10" stroke-linecap="round" stroke-linejoin="round"/>
<path d="M60.823 14.4113C60.823 14.4113 57.2738 12.0711 60.3794 6.2765C63.374 0.370422 63.374 0.370422 63.374 0.370422C63.374 0.370422 69.0306 13.2969 60.823 14.4113Z" fill="#FFC05C"/>
<path d="M58.6069 21.8774C58.6069 21.8774 54.8359 23.8833 51.1757 18.5344C47.5156 13.074 47.5156 13.074 47.5156 13.074C47.5156 13.074 61.4906 14.077 58.6069 21.8774Z" fill="#FFC05C"/>
<path d="M58.7182 32.9095C58.7182 32.9095 54.9472 34.9154 51.2871 29.5665C47.627 24.1061 47.627 24.1061 47.627 24.1061C47.627 24.1061 61.602 25.1091 58.7182 32.9095Z" fill="#FFC05C"/>
<path d="M61.38 44.9446C61.38 44.9446 58.1635 47.7305 53.3943 43.1616C48.625 38.5928 48.625 38.5928 48.625 38.5928C48.625 38.5928 62.4891 36.6984 61.38 44.9446Z" fill="#FFC05C"/>
<path d="M65.0396 55.8652C65.0396 55.8652 61.6013 58.7625 56.6102 53.9708C51.6191 49.1791 51.6191 49.1791 51.6191 49.1791C51.6191 49.1791 66.3705 47.0618 65.0396 55.8652Z" fill="#FFC05C"/>
<path d="M64.8172 21.3203C64.8172 21.3203 63.4863 20.5403 64.7063 18.0887C66.0373 15.6371 70.3629 14.4113 71.2502 13.9656C72.0266 13.5198 72.0266 13.5198 72.0266 13.5198C72.0266 13.5198 71.1393 17.7544 69.5865 19.7602C68.1446 21.6546 66.4809 21.6546 64.8172 21.3203Z" fill="#FFC05C"/>
<path d="M65.3732 32.4638C65.3732 32.4638 63.7095 31.7952 64.9295 28.8979C66.1495 26.0005 70.8079 24.2176 71.6952 23.6604C72.5825 23.1032 72.5825 23.1032 72.5825 23.1032C72.5825 23.1032 72.0279 27.8949 70.5861 30.2351C69.0333 32.4638 67.2587 32.6867 65.3732 32.4638Z" fill="#FFC05C"/>
<path d="M67.0352 43.273C67.0352 43.273 65.3715 42.7159 66.3697 39.8185C67.257 36.8098 71.8045 34.6925 72.5808 34.0239C73.3572 33.3553 73.3572 33.3553 73.3572 33.3553C73.3572 33.3553 73.2463 38.2584 71.9154 40.5986C70.6953 42.9387 68.9207 43.273 67.0352 43.273Z" fill="#FFC05C"/>
<path d="M70.9179 53.0794C70.9179 53.0794 68.9215 52.8565 69.3651 49.7363C69.8088 46.6161 74.578 43.4959 75.3544 42.7159C76.1308 41.9359 76.1308 41.9359 76.1308 41.9359C76.1308 41.9359 76.9072 46.839 76.0199 49.402C75.0217 52.0765 73.0252 52.7451 70.9179 53.0794Z" fill="#FFC05C"/>
</svg>
