<svg width="128" height="104" viewBox="0 0 128 104" fill="none" xmlns="http://www.w3.org/2000/svg">
<path d="M37.3144 31.1132C39.2449 30.9482 43.8299 24.7595 42.5429 21.8714C41.3363 18.9834 32.4076 20.4687 28.9487 18.2407C25.4094 16.0953 23.2375 12.2996 25.2485 6.44096C27.2595 0.582329 28.0639 -1.39805 24.605 2.31516C21.2265 5.94586 15.3545 17.8282 23.9615 25.4196C32.6489 33.0111 37.3144 31.1132 37.3144 31.1132Z" fill="#FFF1E8"/>
<path d="M37.3144 31.1132C39.2449 30.9482 43.8299 24.7595 42.5429 21.8714C41.3363 18.9834 32.4076 20.4687 28.9487 18.2407C25.4094 16.0953 23.2375 12.2996 25.2485 6.44096C27.2595 0.582329 28.0639 -1.39805 24.605 2.31516C21.2265 5.94586 15.3545 17.8282 23.9615 25.4196C32.6489 33.0111 37.3144 31.1132 37.3144 31.1132Z" fill="#F5DED0"/>
<path d="M48.4163 94.3188C48.4163 94.3188 45.3596 89.6154 45.0378 83.6743C44.7161 77.7332 44.7161 74.6801 43.3486 72.2871C41.9811 69.8941 41.5789 68.6564 41.9007 66.1809C42.2225 63.7054 40.4528 60.3223 40.7746 56.9391C41.0963 53.556 40.0506 51.3281 38.6831 50.5029C37.2352 49.6777 37.3961 50.1728 35.8678 51.5756C34.259 53.0609 21.1474 59.9922 9.08154 51.5756C-2.98433 43.159 -0.732033 39.7758 4.97914 37.3003C10.6903 34.8249 16.5624 31.3592 21.3083 33.3396C26.0542 35.2374 31.1219 37.1353 33.9372 35.7325C36.7526 34.2473 36.1895 32.1844 36.0286 31.4417C35.8678 30.6991 36.4308 24.0153 40.6941 21.5398C44.9574 19.0643 48.8989 20.9622 51.8751 20.7146C54.8514 20.3846 58.7929 17.7441 64.1019 17.579V92.2559L48.4163 94.3188Z" fill="#572F16"/>
<path d="M56.6211 102.324C56.6211 102.324 59.2756 103.81 64.0215 103.81V98.8587C64.0215 98.7762 59.1951 98.5287 56.6211 102.324Z" fill="#572F16"/>
<path d="M40.7737 54.5479C40.8541 55.2905 40.8541 56.0331 40.7737 56.8583C40.4519 60.2415 42.2216 63.6246 41.8998 66.1001C41.5781 68.5756 42.0607 69.8958 43.3477 72.2063C44.7152 74.5992 44.7152 77.6523 45.0369 83.5935C45.3587 89.5346 48.4154 94.238 48.4154 94.238L50.5872 93.908L53.2417 82.6033C53.2417 82.6033 50.2655 68.9056 46.5653 64.7798C42.8651 60.7365 40.7737 54.5479 40.7737 54.5479Z" fill="#453329"/>
<path d="M64.0196 25.8306C64.0196 25.8306 60.4803 26.1607 59.1128 27.2334C57.6649 28.3061 52.4364 28.9662 49.9428 30.0389C47.4492 31.0291 50.1841 34.8249 51.7124 36.3101C53.2408 37.8779 55.8953 39.8583 57.0214 42.1688C58.228 44.4792 60.9629 50.0078 63.9392 50.0078V25.8306H64.0196Z" fill="#F8F8F8"/>
<path d="M64.0213 82.1086C64.0213 82.1086 62.0908 81.6135 59.6776 83.3464C57.2644 84.9967 55.5752 82.1911 53.162 82.6862C50.7489 83.1813 49.2205 85.7393 48.8988 89.8651C48.577 93.9909 46.8878 101.087 51.9554 102.242C56.1383 103.15 57.5862 102.077 59.5972 100.51C61.6886 98.9418 63.9409 99.1894 63.9409 99.1894V82.1086H64.0213Z" fill="#E58800"/>
<path d="M59.6776 83.2622C57.2644 84.9125 55.5752 82.107 53.162 82.6021C50.7489 83.0972 49.2205 85.6552 48.8988 89.781C48.577 93.9068 46.8878 101.003 51.9554 102.158C53.0816 102.406 54.0469 102.488 54.8513 102.488C54.2077 102.488 53.4033 102.406 52.5185 102.158C47.6922 101.086 49.301 94.3193 49.6227 90.4411C49.9445 86.5628 51.3924 84.0874 53.6447 83.5923C55.897 83.0972 57.5862 85.8202 59.8385 84.1699C62.0908 82.6021 63.9409 83.0146 63.9409 83.0146V82.107C64.0213 82.107 62.0908 81.6119 59.6776 83.2622Z" fill="#FFB37D"/>
<path d="M53.4015 88.7916C53.3211 88.7091 53.1602 88.7917 53.2407 88.9567C53.5624 89.6168 54.0451 90.772 54.2059 91.5147C54.3668 92.6699 56.2974 95.9705 58.3083 95.9705C60.3193 95.9705 59.1127 94.8978 58.791 93.6601C58.4692 92.4223 56.2974 90.607 55.9756 90.5245C55.7343 90.5245 54.1255 89.3693 53.4015 88.7916Z" fill="#9C4E37"/>
<path d="M64.0228 76.25C62.8162 74.4346 61.7705 74.1045 62.2532 70.8864C62.7358 67.6683 60.9661 61.2321 64.0228 61.2321V76.25Z" fill="#F8F8F8"/>
<path d="M90.8064 31.1127C88.8759 30.9476 84.2909 24.7589 85.5779 21.8709C86.7845 18.9828 95.7132 20.4681 99.1721 18.2402C102.711 16.0123 104.883 12.2165 102.872 6.35789C100.861 0.49926 100.057 -1.48112 103.516 2.23209C106.894 5.94531 112.847 17.8276 104.159 25.4191C95.3915 33.0105 90.8064 31.1127 90.8064 31.1127Z" fill="#FFF1E8"/>
<path d="M90.8064 31.1127C88.8759 30.9476 84.2909 24.7589 85.5779 21.8709C86.7845 18.9828 95.7132 20.4681 99.1721 18.2402C102.711 16.0123 104.883 12.2165 102.872 6.35789C100.861 0.49926 100.057 -1.48112 103.516 2.23209C106.894 5.94531 112.847 17.8276 104.159 25.4191C95.3915 33.0105 90.8064 31.1127 90.8064 31.1127Z" fill="#F5DED0"/>
<path d="M79.627 94.3188C79.627 94.3188 81.7989 89.6154 82.1206 83.6743C82.4424 77.7332 83.3272 74.6801 84.6947 72.2871C86.0622 69.8941 86.4643 68.6564 86.1426 66.1809C85.8208 63.7054 87.5905 60.3223 87.2687 56.9391C86.947 53.556 87.9927 51.3281 89.3602 50.5029C90.8081 49.6777 90.6472 50.1728 92.1755 51.5756C93.7843 53.0609 106.896 59.9922 118.962 51.5756C131.028 43.159 128.775 39.7758 123.064 37.3003C117.353 34.8249 111.481 31.3592 106.735 33.3396C101.989 35.2374 96.9214 37.1353 94.1061 35.7325C91.2907 34.2473 91.8538 32.1844 92.0146 31.4417C92.1755 30.6991 91.6125 24.0153 87.3492 21.5398C83.0859 19.0643 79.1444 20.9622 76.1682 20.7146C73.1919 20.3846 69.2504 17.7441 63.9414 17.579V92.2559L79.627 94.3188Z" fill="#572F16"/>
<path d="M71.503 102.324C71.503 102.324 68.8485 103.81 64.1026 103.81V98.8587C64.0221 98.7762 68.8485 98.5287 71.503 102.324Z" fill="#572F16"/>
<path d="M87.2688 54.5479C87.1884 55.2905 87.1884 56.0331 87.2688 56.8583C87.5906 60.2415 85.8209 63.6246 86.1427 66.1001C86.4645 68.5756 85.9818 69.8958 84.6948 72.2063C83.3273 74.5992 83.3273 77.6523 83.0056 83.5935C82.6838 89.5346 79.6271 94.238 79.6271 94.238L77.4553 93.908L74.8008 82.6033C74.8008 82.6033 77.777 68.9056 81.4772 64.7798C85.1774 60.7365 87.2688 54.5479 87.2688 54.5479Z" fill="#453329"/>
<path d="M64.0215 25.8306C64.0215 25.8306 67.5608 26.1607 68.9283 27.2334C70.3762 28.3061 75.6047 28.9662 78.0983 30.0389C80.5919 31.0291 77.857 34.8249 76.3287 36.3101C74.8003 37.8779 72.1458 39.8583 71.0197 42.1688C69.8131 44.4792 67.0782 50.0078 64.1019 50.0078V25.8306H64.0215Z" fill="#F8F8F8"/>
<path d="M64.0215 82.1086C64.0215 82.1086 65.952 81.6135 68.3652 83.3464C70.7784 84.9967 72.4676 82.1911 74.8808 82.6862C77.2939 83.1813 78.8223 85.7393 79.144 89.8651C79.4658 93.9909 81.155 101.087 76.0873 102.242C71.9045 103.15 70.4566 102.077 68.4456 100.51C66.3542 98.9418 64.1019 99.1894 64.1019 99.1894V82.1086H64.0215Z" fill="#E58800"/>
<path d="M68.3652 83.2622C70.7784 84.9125 72.4676 82.107 74.8808 82.6021C77.294 83.0972 78.8223 85.6552 79.1441 89.781C79.4658 93.9068 81.155 101.003 76.0874 102.158C74.9612 102.406 73.996 102.488 73.1916 102.488C73.8351 102.488 74.6395 102.406 75.5243 102.158C80.3507 101.086 78.7419 94.3193 78.4201 90.4411C78.0984 86.5628 76.6504 84.0874 74.3982 83.5923C72.1459 83.0972 70.4566 85.8202 68.2043 84.1699C65.952 82.6021 64.1019 83.0146 64.1019 83.0146V82.107C64.0215 82.107 66.0325 81.6119 68.3652 83.2622Z" fill="#FFB37D"/>
<path d="M74.6402 88.7916C74.7206 88.7091 74.8815 88.7917 74.8011 88.9567C74.4793 89.6168 73.9967 90.6895 73.9162 91.5147C73.7554 92.6699 71.8248 95.9705 69.8138 95.9705C67.7224 95.9705 69.0095 94.8978 69.3312 93.6601C69.653 92.4223 71.8248 90.607 72.1466 90.5245C72.3075 90.5245 73.8358 89.3693 74.6402 88.7916Z" fill="#9C4E37"/>
<path d="M64.0215 76.25C65.2281 74.4346 66.2738 74.1045 65.7912 70.8864C65.3085 67.6683 67.0782 61.2321 64.0215 61.2321V76.25Z" fill="#F8F8F8"/>
</svg>
