<svg width="595" height="842" viewBox="0 0 595 842" fill="none" xmlns="http://www.w3.org/2000/svg">
<g clip-path="url(#clip0_768_99)">
<rect width="595" height="842" fill="white"/>
<path opacity="0.72" d="M110.601 616.864C118.4 642.035 150.164 658.999 150.164 658.999C185.405 680.189 189.89 705.685 186.294 725.6C179.81 759.986 139.367 776.872 104.913 759.307C104.451 758.995 103.956 758.931 103.493 758.619C60.8614 736.216 40.0354 685.445 49.9423 628.605C59.5696 571.98 102.652 590.918 110.601 616.864Z" fill="#E1E1E1"/>
<path opacity="0.72" d="M175.927 619.898C173.712 606.832 159.004 596.265 159.004 596.265C142.845 583.36 142.303 570.353 145.419 560.664C150.936 543.953 172.218 538.222 188.227 549.268C188.437 549.454 188.679 549.519 188.889 549.705C208.653 563.706 215.661 590.399 206.946 618.076C198.385 645.664 178.166 633.36 175.927 619.898Z" fill="#009444" fill-opacity="0.2"/>
<path opacity="0.72" d="M113.411 153.218C103.932 154.753 96.1968 165.352 96.1968 165.352C86.7599 176.991 77.3325 177.314 70.3293 175.004C58.2513 170.917 54.2138 155.466 62.3027 143.927C62.4387 143.776 62.4871 143.6 62.6231 143.449C72.8733 129.205 92.2511 124.271 112.257 130.734C132.2 137.086 123.177 151.668 113.411 153.218Z" fill="#009444" fill-opacity="0.2"/>
<path opacity="0.72" d="M312.07 502.598L312.07 502.596C325.975 472.529 325.225 436.251 321.024 407.541C318.923 393.178 315.955 380.69 313.512 371.792C312.291 367.343 311.201 363.79 310.415 361.349C310.023 360.129 309.706 359.186 309.488 358.547C309.379 358.228 309.294 357.985 309.236 357.822C309.223 357.785 309.212 357.752 309.201 357.723C309.189 357.688 309.179 357.659 309.171 357.636L309.154 357.589L309.152 357.585C294.177 308.439 295.285 270.206 305.1 240.413C314.917 210.618 333.457 189.216 353.429 173.761C422.788 120.947 525.908 157.104 560.443 247.239C560.626 247.957 560.93 248.565 561.208 249.123L561.217 249.141C561.507 249.722 561.77 250.251 561.923 250.868L561.93 250.895L561.939 250.92C603.561 363.768 557.319 492.85 443.763 581.827L443.762 581.828C415.607 604.078 391.528 614.019 371.714 615.512C351.917 617.004 336.339 610.069 325.139 598.471C302.701 575.234 297.792 533.218 312.07 502.598Z" stroke="#009444"/>
</g>
<defs>
<clipPath id="clip0_768_99">
<rect width="595" height="842" fill="white"/>
</clipPath>
</defs>
</svg>
