<svg width="595" height="842" viewBox="0 0 595 842" fill="none" xmlns="http://www.w3.org/2000/svg">
<g clip-path="url(#clip0_767_11)">
<rect width="595" height="842" fill="white"/>
<path d="M501.197 164.619C528.212 288.284 672.287 380.47 672.287 380.47C829.871 495.141 843.378 618.806 816.364 710.993C771.34 872.881 570.984 935.838 415.652 836.906C413.401 834.658 411.149 834.658 408.898 832.409C215.295 708.744 138.755 459.166 206.29 193.849C278.328 -69.2198 474.183 38.7059 501.197 164.619Z" fill="#C4C4C4" fill-opacity="0.2"/>
<path d="M-207.044 875.145C-148.626 819.301 -146.289 710.123 -146.289 710.123C-136.188 586.107 -73.2793 537.625 -14.0527 521.695C89.1517 492.405 190.085 580.67 187.814 698.226C187.337 700.201 188.086 701.429 187.609 703.403C184.584 850.041 74.0077 974.745 -93.0536 1026.16C-260.386 1074.37 -266.688 931.736 -207.044 875.145Z" fill="#ECECEC" fill-opacity="0.4"/>
<path d="M127.379 736.467C132.051 750.275 149.719 758.985 149.719 758.985C169.22 770.095 172.346 784.076 170.432 794.972C167.348 814.076 145.222 823.842 126.18 814.504C125.893 814.275 125.635 814.304 125.349 814.076C101.611 802.396 89.661 774.81 93.9999 743.581C98.8828 712.552 122.678 722.401 127.379 736.467Z" fill="#009345" fill-opacity="0.2"/>
<path d="M549.045 248.897C550.107 257.098 543.277 265.94 543.277 265.94C536.11 276.463 538.003 284.366 541.695 289.44C548.029 298.405 561.737 297.865 569.111 288.359C569.2 288.172 569.339 288.122 569.428 287.934C578.611 276.065 577.822 259.031 567.826 244.201C557.602 229.608 547.934 240.559 549.045 248.897Z" fill="#009345" fill-opacity="0.2"/>
</g>
<defs>
<clipPath id="clip0_767_11">
<rect width="595" height="842" fill="white"/>
</clipPath>
</defs>
</svg>
