<svg width="649" height="424" viewBox="0 0 649 424" fill="none" xmlns="http://www.w3.org/2000/svg">
<g clip-path="url(#clip0_218_600)">
<path d="M231.9 325L218.4 318.4C217 317.7 215.5 317.3 213.9 317.2C206.7 316.9 205.9 323.7 208.5 327.7C210.3 330.5 213.4 332.2 216.3 333.8C218 334.7 219.8 335.6 221.4 336.7C225 339.2 228.8 338.6 231.9 335.5C232.1 335.3 231.8 335.7 231.9 335.5C233.1 334 231.9 325 231.9 325Z" fill="#EF8B7B"/>
<path d="M231.7 322.5L227 317.4C226.5 316.9 225.9 316.4 225.3 316.1C222.3 314.8 220.8 317.6 221.2 319.7C221.5 321.2 222.5 322.4 223.5 323.6C224.1 324.3 224.7 325 225.2 325.7C226.3 327.4 228.1 327.8 229.9 327C230 327 229.8 327.1 229.9 327C230.8 326.6 231.7 322.5 231.7 322.5Z" fill="#EF8B7B"/>
<path d="M599.3 181.8C596.8 183.3 593.9 184.5 590.9 185.2C583 187 575.1 185.5 568.8 181.4C562.6 177.5 557.9 171.2 556.1 163.5C552.5 147.9 562.2 132.3 577.8 128.7C593.4 125.1 609 134.8 612.6 150.4C615.5 162.9 609.8 175.5 599.3 181.8Z" fill="#ECECEC"/>
<path d="M593.202 153.7C593.102 158.6 589.102 162.5 584.302 162.4C579.402 162.3 575.501 158.3 575.601 153.5C575.701 148.6 579.702 144.7 584.502 144.8C589.402 144.8 593.302 148.8 593.202 153.7Z" fill="white"/>
<path d="M599.301 178.1V181.7C596.801 183.2 593.901 184.4 590.901 185.1C583.001 186.9 575.101 185.4 568.801 181.3V177.7C568.901 169.3 575.801 162.5 584.201 162.6C592.701 162.8 599.401 169.7 599.301 178.1Z" fill="white"/>
<path d="M63.9997 99.9001C62.2997 100.9 60.4997 101.7 58.4997 102.1C53.2997 103.3 48.1997 102.3 43.9997 99.6001C39.8997 97.0001 36.8997 92.9001 35.6997 87.9001C33.2997 77.7001 39.6997 67.5001 49.8997 65.1001C60.0997 62.7001 70.2997 69.1001 72.6997 79.3001C74.5997 87.5001 70.8997 95.7001 63.9997 99.9001Z" fill="#ECECEC"/>
<path d="M60 81.5002C60 84.7002 57.3 87.2002 54.2 87.2002C51 87.2002 48.5 84.5002 48.5 81.4002C48.5 78.2002 51.2 75.7002 54.3 75.7002C57.5 75.7002 60 78.3002 60 81.5002Z" fill="white"/>
<path d="M64 97.5003V99.9003C62.3 100.9 60.5 101.7 58.5 102.1C53.3 103.3 48.2 102.3 44 99.6003V97.2003C44.1 91.7003 48.6 87.3003 54.1 87.3003C59.7 87.4003 64.1 92.0003 64 97.5003Z" fill="white"/>
<path d="M210.299 15.2002H84.6992V100.8H210.299V15.2002Z" stroke="#ECECEC" stroke-miterlimit="10"/>
<path d="M94.0996 20.3003C94.0996 21.7003 92.9996 22.8003 91.5996 22.8003C90.1996 22.8003 89.0996 21.7003 89.0996 20.3003C89.0996 18.9003 90.1996 17.8003 91.5996 17.8003C92.9996 17.8003 94.0996 18.9003 94.0996 20.3003Z" fill="#A8A8A8"/>
<path d="M104.4 20.3003C104.4 21.7003 103.3 22.8003 101.9 22.8003C100.5 22.8003 99.4004 21.7003 99.4004 20.3003C99.4004 18.9003 100.5 17.8003 101.9 17.8003C103.3 17.8003 104.4 18.9003 104.4 20.3003Z" fill="#ECECEC"/>
<path d="M114.699 20.3003C114.699 21.7003 113.599 22.8003 112.199 22.8003C110.799 22.8003 109.699 21.7003 109.699 20.3003C109.699 18.9003 110.799 17.8003 112.199 17.8003C113.599 17.8003 114.699 18.9003 114.699 20.3003Z" fill="#FFC800"/>
<path d="M84.6992 25.2002H210.299" stroke="#ECECEC" stroke-miterlimit="10"/>
<path d="M98.2412 141.797L32.2539 150.795L37.9551 192.607L103.942 183.609L98.2412 141.797Z" fill="#ECECEC"/>
<path d="M98.3 141.8C96 144.7 93.6 147.5 91.3 150.4C88.9 153.2 86.5 156 84.2 158.8C81.7 161.7 79.2 164.6 76.7 167.5C76.6 167.6 76.6 167.7 76.5 167.8C74.3 170.3 72 172.9 69.8 175.4L69.5 175.8L69.1 175.5C66.3 173.6 63.4 171.8 60.6 169.9C60.5 169.8 60.4 169.8 60.3 169.7C57.1 167.6 53.9 165.5 50.7 163.3C47.7 161.3 44.6 159.2 41.6 157.1C38.6 155 35.5 152.9 32.5 150.7C35.6 152.5 38.7 154.4 41.8 156.3C44.9 158.2 48 160.1 51.1 162C54.5 164.1 58 166.3 61.4 168.5C64 170.1 66.6 171.8 69.1 173.4C71.1 171.1 73.2 168.8 75.2 166.6C77.9 163.6 80.7 160.5 83.4 157.5C85.9 154.8 88.3 152.1 90.8 149.5C93.3 147 95.7 144.3 98.3 141.8Z" fill="white"/>
<path d="M61.5 169.5C61.5 169.6 61.5 169.6 61.5 169.5C61.1 169.9 60.8 170.3 60.5 170.6C59 172.2 57.5 173.8 56 175.3C54.1 177.2 52.2 179 50.2 180.8C48.2 182.6 46.3 184.4 44.2 186.1C42.2 187.8 40.1 189.5 38 191.1C39.8 189.1 41.6 187.2 43.5 185.3C45.4 183.4 47.3 181.6 49.3 179.8C51.3 178 53.3 176.2 55.3 174.5C56.9 173.1 58.6 171.8 60.3 170.5C60.6 170.2 61 169.9 61.5 169.5C61.4 169.6 61.5 169.6 61.5 169.5Z" fill="white"/>
<path d="M103.6 182.3C101.1 181.3 98.5996 180.3 96.1996 179.1C93.7996 178 91.3996 176.8 88.9996 175.6C86.5996 174.4 84.2996 173.1 81.9996 171.8C80.0996 170.7 78.1996 169.6 76.3996 168.5C75.9996 168.3 75.5996 168 75.1996 167.8C75.1996 167.8 75.0996 167.8 75.0996 167.7H75.1996C75.6996 167.9 76.0996 168.1 76.5996 168.3C78.5996 169.1 80.4996 170 82.4996 170.9C84.8996 172 87.2996 173.2 89.6996 174.4C92.0996 175.6 94.3996 176.9 96.6996 178.2C99.0996 179.5 101.4 180.8 103.6 182.3Z" fill="white"/>
<path d="M535.315 195.941L519.908 261.042L622.57 285.338L637.977 220.238L535.315 195.941Z" fill="#ECECEC"/>
<path d="M637.999 220.2C632.899 223.2 627.799 226 622.699 228.9C617.599 231.7 612.499 234.5 607.299 237.3C601.899 240.2 596.599 243 591.199 245.9C590.999 246 590.899 246.1 590.699 246.2C585.999 248.7 581.199 251.2 576.399 253.7L575.699 254L575.199 253.4C572.099 249 568.899 244.7 565.799 240.3C565.699 240.2 565.599 240 565.499 239.8C561.999 234.9 558.399 229.9 554.999 224.9C551.699 220.1 548.299 215.3 544.999 210.5C541.699 205.6 538.399 200.8 535.199 195.9C538.799 200.3 542.299 204.9 545.799 209.4C549.299 214 552.799 218.5 556.299 223.2C560.199 228.3 563.999 233.5 567.799 238.7C570.699 242.6 573.499 246.5 576.399 250.4C580.699 248.2 584.999 245.9 589.299 243.8C595.099 240.9 600.799 238 606.599 235.1C611.799 232.5 616.899 230 622.099 227.5C627.599 225.1 632.799 222.6 637.999 220.2Z" fill="white"/>
<path d="M567.799 240.3C567.699 240.3 567.699 240.4 567.699 240.4C567.099 240.7 566.399 241.1 565.799 241.4C562.699 243 559.599 244.4 556.399 245.8C552.499 247.5 548.599 249.1 544.699 250.7C540.799 252.2 536.799 253.7 532.799 255.1C528.799 256.5 524.799 257.8 520.699 259C524.499 257 528.299 255.2 532.199 253.5C536.099 251.8 539.999 250.2 543.899 248.6C547.799 247.1 551.799 245.5 555.799 244.2C558.999 243.1 562.199 242 565.499 241C566.299 240.8 566.999 240.6 567.799 240.3C567.699 240.4 567.699 240.3 567.799 240.3Z" fill="white"/>
<path d="M622.8 283.2C619.6 280.4 616.6 277.3 613.7 274.3C610.8 271.3 607.9 268.1 605.1 265C602.3 261.8 599.5 258.6 596.8 255.4C594.6 252.7 592.5 250.1 590.4 247.3C590 246.7 589.5 246.1 589.1 245.5L589 245.4L589.1 245.5C589.7 246 590.3 246.6 590.8 247.1C593.3 249.4 595.7 251.8 598 254.2C600.9 257.2 603.8 260.4 606.6 263.5C609.4 266.7 612.2 269.9 614.9 273.1C617.7 276.4 620.4 279.7 622.8 283.2Z" fill="white"/>
<path d="M421.7 0H361.1V38.4H421.7V0Z" fill="#ECECEC"/>
<path d="M421.7 0C419.3 2.3 416.8 4.6 414.3 6.9C411.8 9.2 409.3 11.4 406.8 13.6C404.2 15.9 401.6 18.2 398.9 20.5C398.8 20.6 398.7 20.6 398.7 20.7C396.4 22.7 394 24.7 391.7 26.8L391.4 27.1L391.1 26.8C388.8 24.8 386.4 22.8 384.1 20.7C384 20.6 383.9 20.6 383.9 20.5C381.3 18.2 378.6 15.9 376 13.6C373.5 11.4 371 9.1 368.5 6.9C366 4.6 363.5 2.4 361.1 0C363.7 2 366.3 4.1 368.8 6.2C371.4 8.3 373.9 10.4 376.5 12.5C379.3 14.9 382.2 17.2 385 19.7C387.1 21.5 389.2 23.3 391.4 25.1C393.5 23.3 395.6 21.5 397.8 19.7C400.6 17.3 403.5 14.9 406.3 12.5C408.8 10.4 411.4 8.3 414 6.2C416.5 4.1 419.1 2 421.7 0Z" fill="white"/>
<path d="M385.099 20.5C385.099 20.5 385.099 20.6 385.099 20.5C384.699 20.8 384.399 21.1 384.099 21.4C382.599 22.7 380.999 23.9 379.399 25.1C377.499 26.6 375.499 28 373.499 29.4C371.499 30.8 369.499 32.1 367.499 33.5C365.499 34.8 363.399 36.1 361.199 37.3C362.999 35.7 364.899 34.2 366.899 32.7C368.799 31.2 370.799 29.8 372.799 28.4C374.799 27 376.799 25.7 378.899 24.3C380.499 23.3 382.199 22.2 383.899 21.3C384.199 21 384.599 20.8 385.099 20.5C384.999 20.6 385.099 20.5 385.099 20.5Z" fill="white"/>
<path d="M421.5 37.1999C419.4 35.9999 417.3 34.6999 415.2 33.3999C413.2 32.0999 411.1 30.6999 409.1 29.2999C407.1 27.8999 405.1 26.4999 403.2 24.9999C401.6 23.7999 400.1 22.5999 398.6 21.2999C398.3 20.9999 398 20.7999 397.6 20.4999C397.6 20.4999 397.6 20.4999 397.5 20.3999H397.6C398 20.5999 398.4 20.7999 398.8 21.0999C400.5 22.0999 402.1 23.0999 403.8 24.0999C405.8 25.3999 407.9 26.7999 409.8 28.1999C411.8 29.5999 413.8 30.9999 415.7 32.4999C417.8 34.0999 419.7 35.5999 421.5 37.1999Z" fill="white"/>
<path d="M158.9 423.1C240.251 423.1 306.2 417.414 306.2 410.4C306.2 403.386 240.251 397.7 158.9 397.7C77.548 397.7 11.5996 403.386 11.5996 410.4C11.5996 417.414 77.548 423.1 158.9 423.1Z" fill="#ECECEC"/>
<path d="M0 317.8L81.1 317.6L162.1 317.5L324.3 317.3L486.4 317.5L567.5 317.6L648.6 317.8L567.5 318.1H486.4L324.3 318.3L162.1 318.1L81.1 318L0 317.8Z" fill="#1A2E35"/>
<path d="M544.099 34.1001H102.699V329.4H544.099V34.1001Z" fill="#DCDCDC"/>
<path d="M540.898 37.7002H105.898V325.8H540.898V37.7002Z" fill="#1A2E35"/>
<path d="M601.599 351.5H45.1992V371.8H601.599V351.5Z" fill="#C8C8C8"/>
<path d="M45.1992 351.5L102.699 329.4H544.199L601.699 351.5H45.1992Z" fill="#DCDCDC"/>
<path d="M107.898 343.7L144.998 329.4H501.898L538.998 343.7H107.898Z" fill="#1A2E35"/>
<path d="M516.4 59.6001H130.5V303.9H516.4V59.6001Z" fill="white"/>
<path d="M516.399 59.6001H130.199V69.0001H516.399V59.6001Z" fill="#375A64"/>
<path d="M137.7 64.3C137.7 65.6 136.7 66.6 135.4 66.6C134.1 66.6 133.1 65.6 133.1 64.3C133.1 63 134.1 62 135.4 62C136.6 61.9 137.7 63 137.7 64.3Z" fill="#C8C8C8"/>
<path d="M147.2 64.3C147.2 65.6 146.2 66.6 144.9 66.6C143.6 66.6 142.6 65.6 142.6 64.3C142.6 63 143.6 62 144.9 62C146.1 61.9 147.2 63 147.2 64.3Z" fill="white"/>
<path d="M156.7 64.3C156.7 65.6 155.7 66.6 154.4 66.6C153.1 66.6 152.1 65.6 152.1 64.3C152.1 63 153.1 62 154.4 62C155.7 61.9 156.7 63 156.7 64.3Z" fill="#FFC800"/>
<path d="M516.4 69H509.5V303.9H516.4V69Z" fill="#DCDCDC"/>
<path d="M512.9 150.4C511.9 150.4 511.1 149.6 511.1 148.6V72.0998C511.1 71.0998 511.9 70.2998 512.9 70.2998C513.9 70.2998 514.7 71.0998 514.7 72.0998V148.6C514.7 149.6 513.9 150.4 512.9 150.4Z" fill="#A8A8A8"/>
<path d="M449.699 83.7002H241.699V91.6002H449.699V83.7002Z" fill="white"/>
<path d="M449.8 91.7001H241.6V83.6001H449.7V91.7001H449.8Z" fill="#ECECEC"/>
<path d="M449.799 83.7002H441.699V91.8002H449.799V83.7002Z" fill="#FFC800"/>
<path d="M448.2 89.9003L447.5 90.5003L446.1 88.7003L445.6 88.0003C445.7 88.0003 445.8 87.9003 445.9 87.8003C446.1 87.7003 446.2 87.5003 446.3 87.3003L446.8 88.0003L448.2 89.9003Z" fill="white"/>
<path d="M446.799 85.7001C446.099 84.8001 444.899 84.7001 443.999 85.3001C443.099 86.0001 442.999 87.2001 443.599 88.1001C444.199 88.9001 445.299 89.1001 446.099 88.6001C446.199 88.5001 446.299 88.5001 446.399 88.4001C446.599 88.3001 446.699 88.1001 446.799 88.0001C447.299 87.4001 447.399 86.4001 446.799 85.7001ZM445.999 87.9001C445.899 88.0001 445.799 88.0001 445.699 88.1001C445.199 88.3001 444.599 88.2001 444.299 87.7001C443.899 87.2001 443.999 86.4001 444.499 86.0001C444.999 85.6001 445.799 85.7001 446.199 86.2001C446.499 86.6001 446.499 87.0001 446.399 87.4001C446.299 87.6001 446.099 87.7001 445.999 87.9001Z" fill="white"/>
<path d="M243.8 85.3003H243.4V90.1003H243.8V85.3003Z" fill="#C8C8C8"/>
<path d="M495.6 92.0003C495.2 92.2003 494.8 92.4003 494.3 92.5003C493.1 92.8003 491.9 92.6003 490.9 92.0003C489.9 91.4003 489.2 90.4003 488.9 89.2003C488.3 86.8003 489.8 84.4003 492.2 83.8003C494.6 83.2003 497 84.7003 497.6 87.1003C498.1 89.0003 497.2 91.0003 495.6 92.0003Z" fill="#FFC800"/>
<path d="M494.601 87.6002C494.601 88.4002 494.001 89.0002 493.201 89.0002C492.401 89.0002 491.801 88.4002 491.801 87.6002C491.801 86.8002 492.401 86.2002 493.201 86.2002C494.001 86.2002 494.601 86.9002 494.601 87.6002Z" fill="white"/>
<path d="M495.6 91.4V92C495.2 92.2 494.8 92.4 494.3 92.5C493.1 92.8 491.9 92.6 490.9 92V91.4C490.9 90.1 492 89 493.3 89C494.6 89 495.6 90.1 495.6 91.4Z" fill="white"/>
<path d="M480.099 92.6001H476.999V91.5001C476.999 91.4001 476.999 91.4001 476.899 91.4001C476.799 91.3001 476.699 91.3001 476.599 91.2001C476.499 91.2001 476.499 91.2001 476.399 91.2001L475.399 91.8001L473.799 89.1001L474.799 88.5001C474.899 88.5001 474.899 88.4001 474.899 88.3001C474.899 88.2001 474.899 88.2001 474.899 88.1001C474.899 88.0001 474.899 88.0001 474.899 87.9001C474.899 87.8001 474.899 87.8001 474.799 87.7001L473.799 87.1001L475.399 84.4001L476.399 85.0001C476.499 85.0001 476.499 85.0001 476.599 85.0001C476.699 84.9001 476.799 84.9001 476.899 84.8001C476.999 84.8001 476.999 84.7001 476.999 84.7001V83.6001H480.099V84.7001C480.099 84.8001 480.099 84.8001 480.199 84.8001C480.299 84.9001 480.399 84.9001 480.499 85.0001C480.599 85.0001 480.599 85.0001 480.699 85.0001L481.699 84.4001L483.299 87.1001L482.299 87.7001C482.199 87.7001 482.199 87.8001 482.199 87.9001C482.199 88.0001 482.199 88.0001 482.199 88.1001C482.199 88.2001 482.199 88.2001 482.199 88.3001C482.199 88.4001 482.199 88.4001 482.299 88.5001L483.299 89.1001L481.699 91.8001L480.699 91.2001C480.599 91.2001 480.599 91.2001 480.499 91.2001C480.399 91.3001 480.299 91.3001 480.199 91.4001C480.099 91.4001 480.099 91.5001 480.099 91.5001V92.6001ZM477.699 91.8001H479.299V91.5001C479.299 91.1001 479.499 90.8001 479.799 90.7001C479.899 90.7001 479.999 90.6001 480.099 90.5001C480.399 90.3001 480.799 90.3001 481.099 90.5001L481.399 90.7001L482.199 89.3001L481.899 89.1001C481.599 88.9001 481.399 88.6001 481.399 88.2001V88.0001V87.8001C481.399 87.4001 481.599 87.1001 481.899 86.9001L482.199 86.7001L481.399 85.3001L481.099 85.5001C480.799 85.7001 480.399 85.7001 480.099 85.5001C479.999 85.4001 479.899 85.4001 479.799 85.3001C479.499 85.1001 479.299 84.8001 479.299 84.5001V84.2001H477.699V84.5001C477.699 84.9001 477.499 85.2001 477.199 85.3001C477.099 85.3001 476.999 85.4001 476.899 85.5001C476.599 85.7001 476.199 85.7001 475.899 85.5001L475.599 85.3001L474.799 86.7001L475.099 86.9001C475.399 87.1001 475.599 87.4001 475.599 87.8001V88.0001V88.2001C475.599 88.6001 475.399 88.9001 475.099 89.1001L474.799 89.3001L475.599 90.7001L475.899 90.5001C476.199 90.3001 476.599 90.3001 476.899 90.5001C476.999 90.6001 477.099 90.6001 477.199 90.7001C477.499 90.9001 477.699 91.2001 477.699 91.5001V91.8001ZM478.499 90.4001C477.199 90.4001 476.199 89.4001 476.199 88.1001C476.199 86.8001 477.199 85.8001 478.499 85.8001C479.799 85.8001 480.799 86.8001 480.799 88.1001C480.799 89.4001 479.799 90.4001 478.499 90.4001ZM478.499 86.6001C477.699 86.6001 476.999 87.3001 476.999 88.1001C476.999 88.9001 477.699 89.6001 478.499 89.6001C479.299 89.6001 479.999 88.9001 479.999 88.1001C479.999 87.3001 479.299 86.6001 478.499 86.6001Z" fill="#DCDCDC"/>
<path d="M509.498 124.3H221.398V140.6H509.498V124.3Z" fill="#ECECEC"/>
<path d="M239.099 130H234.199V134.9H239.099V130Z" fill="white"/>
<path d="M259.9 134.9H255L257 132.4L255 130H259.9L261.9 132.4L259.9 134.9Z" fill="white"/>
<path d="M247.299 130L248.099 131.6L249.899 131.9L248.599 133.1L248.899 134.9L247.299 134L245.699 134.9L245.999 133.1L244.799 131.9L246.499 131.6L247.299 130Z" fill="#FFC800"/>
<path d="M304.6 131.4H265.5V133.4H304.6V131.4Z" fill="#1A2E35"/>
<path d="M488.1 131.4H452.6V133.4H488.1V131.4Z" fill="#1A2E35"/>
<path d="M437.8 131.4H316.5V133.4H437.8V131.4Z" fill="#375A64"/>
<path d="M239.099 146.3H234.199V151.2H239.099V146.3Z" fill="white" stroke="#ECECEC" stroke-width="0.5" stroke-miterlimit="10"/>
<path d="M259.9 151.2H255L257 148.8L255 146.3H259.9L261.9 148.8L259.9 151.2Z" fill="white" stroke="#ECECEC" stroke-width="0.5" stroke-miterlimit="10"/>
<path d="M247.299 146.3L248.099 147.9L249.899 148.2L248.599 149.4L248.899 151.2L247.299 150.4L245.699 151.2L245.999 149.4L244.799 148.2L246.499 147.9L247.299 146.3Z" fill="#FFC800"/>
<path d="M304.6 147.8H265.5V149.8H304.6V147.8Z" fill="#1A2E35"/>
<path d="M488.1 147.8H452.6V149.8H488.1V147.8Z" fill="#1A2E35"/>
<path d="M437.8 147.8H316.5V149.8H437.8V147.8Z" fill="#375A64"/>
<path d="M509.498 156.9H221.398V173.2H509.498V156.9Z" fill="#ECECEC"/>
<path d="M239.099 162.601H234.199V167.501H239.099V162.601Z" fill="white"/>
<path d="M259.9 167.501H255L257 165.101L255 162.601H259.9L261.9 165.101L259.9 167.501Z" fill="white"/>
<path d="M247.299 162.601L248.099 164.201L249.899 164.501L248.599 165.801L248.899 167.501L247.299 166.701L245.699 167.501L245.999 165.801L244.799 164.501L246.499 164.201L247.299 162.601Z" fill="white"/>
<path d="M304.6 164.101H265.5V166.101H304.6V164.101Z" fill="#DCDCDC"/>
<path d="M488.1 164.101H452.6V166.101H488.1V164.101Z" fill="#DCDCDC"/>
<path d="M437.8 164.101H316.5V166.101H437.8V164.101Z" fill="#C8C8C8"/>
<path d="M239.099 179H234.199V183.9H239.099V179Z" fill="white" stroke="#ECECEC" stroke-width="0.5" stroke-miterlimit="10"/>
<path d="M259.9 183.9H255L257 181.4L255 179H259.9L261.9 181.4L259.9 183.9Z" fill="white" stroke="#ECECEC" stroke-width="0.5" stroke-miterlimit="10"/>
<path d="M247.299 179L248.099 180.6L249.899 180.8L248.599 182.1L248.899 183.9L247.299 183L245.699 183.9L245.999 182.1L244.799 180.8L246.499 180.6L247.299 179Z" fill="#FFC800"/>
<path d="M304.6 180.4H265.5V182.4H304.6V180.4Z" fill="#DCDCDC"/>
<path d="M488.1 180.4H452.6V182.4H488.1V180.4Z" fill="#DCDCDC"/>
<path d="M437.8 180.4H316.5V182.4H437.8V180.4Z" fill="#C8C8C8"/>
<path d="M509.498 189.6H221.398V205.9H509.498V189.6Z" fill="#ECECEC"/>
<path d="M239.099 195.3H234.199V200.2H239.099V195.3Z" fill="white"/>
<path d="M259.9 200.2H255L257 197.7L255 195.3H259.9L261.9 197.7L259.9 200.2Z" fill="white"/>
<path d="M247.299 195.3L248.099 196.9L249.899 197.2L248.599 198.4L248.899 200.2L247.299 199.4L245.699 200.2L245.999 198.4L244.799 197.2L246.499 196.9L247.299 195.3Z" fill="#FFC800"/>
<path d="M304.6 196.7H265.5V198.7H304.6V196.7Z" fill="#DCDCDC"/>
<path d="M488.1 196.7H452.6V198.7H488.1V196.7Z" fill="#DCDCDC"/>
<path d="M437.8 196.7H316.5V198.7H437.8V196.7Z" fill="#C8C8C8"/>
<path d="M239.099 211.6H234.199V216.5H239.099V211.6Z" fill="white" stroke="#ECECEC" stroke-width="0.5" stroke-miterlimit="10"/>
<path d="M259.9 216.5H255L257 214.1L255 211.6H259.9L261.9 214.1L259.9 216.5Z" fill="white" stroke="#ECECEC" stroke-width="0.5" stroke-miterlimit="10"/>
<path d="M247.299 211.6L248.099 213.2L249.899 213.5L248.599 214.8L248.899 216.5L247.299 215.7L245.699 216.5L245.999 214.8L244.799 213.5L246.499 213.2L247.299 211.6Z" fill="white" stroke="#ECECEC" stroke-width="0.5" stroke-miterlimit="10"/>
<path d="M304.6 213.1H265.5V215.1H304.6V213.1Z" fill="#DCDCDC"/>
<path d="M488.1 213.1H452.6V215.1H488.1V213.1Z" fill="#DCDCDC"/>
<path d="M437.8 213.1H316.5V215.1H437.8V213.1Z" fill="#C8C8C8"/>
<path d="M509.498 222.2H221.398V238.5H509.498V222.2Z" fill="#ECECEC"/>
<path d="M239.099 227.9H234.199V232.8H239.099V227.9Z" fill="white"/>
<path d="M259.9 232.9H255L257 230.4L255 227.9H259.9L261.9 230.4L259.9 232.9Z" fill="white"/>
<path d="M247.299 227.9L248.099 229.6L249.899 229.8L248.599 231.1L248.899 232.9L247.299 232L245.699 232.9L245.999 231.1L244.799 229.8L246.499 229.6L247.299 227.9Z" fill="#FFC800"/>
<path d="M304.6 229.4H265.5V231.4H304.6V229.4Z" fill="#DCDCDC"/>
<path d="M488.1 229.4H452.6V231.4H488.1V229.4Z" fill="#DCDCDC"/>
<path d="M437.8 229.4H316.5V231.4H437.8V229.4Z" fill="#C8C8C8"/>
<path d="M239.099 244.3H234.199V249.2H239.099V244.3Z" fill="white" stroke="#ECECEC" stroke-width="0.5" stroke-miterlimit="10"/>
<path d="M259.9 249.2H255L257 246.7L255 244.3H259.9L261.9 246.7L259.9 249.2Z" fill="white" stroke="#ECECEC" stroke-width="0.5" stroke-miterlimit="10"/>
<path d="M247.299 244.3L248.099 245.9L249.899 246.2L248.599 247.4L248.899 249.2L247.299 248.3L245.699 249.2L245.999 247.4L244.799 246.2L246.499 245.9L247.299 244.3Z" fill="white" stroke="#ECECEC" stroke-width="0.5" stroke-miterlimit="10"/>
<path d="M304.6 245.7H265.5V247.7H304.6V245.7Z" fill="#DCDCDC"/>
<path d="M488.1 245.7H452.6V247.7H488.1V245.7Z" fill="#DCDCDC"/>
<path d="M437.8 245.7H316.5V247.7H437.8V245.7Z" fill="#C8C8C8"/>
<path d="M509.498 254.9H221.398V271.2H509.498V254.9Z" fill="#ECECEC"/>
<path d="M239.099 260.601H234.199V265.501H239.099V260.601Z" fill="white"/>
<path d="M259.9 265.501H255L257 263.101L255 260.601H259.9L261.9 263.101L259.9 265.501Z" fill="white"/>
<path d="M247.299 260.601L248.099 262.201L249.899 262.501L248.599 263.701L248.899 265.501L247.299 264.701L245.699 265.501L245.999 263.701L244.799 262.501L246.499 262.201L247.299 260.601Z" fill="white"/>
<path d="M304.6 262.101H265.5V264.101H304.6V262.101Z" fill="#DCDCDC"/>
<path d="M488.1 262.101H452.6V264.101H488.1V262.101Z" fill="#DCDCDC"/>
<path d="M437.8 262.101H316.5V264.101H437.8V262.101Z" fill="#C8C8C8"/>
<path d="M239.099 276.9H234.199V281.8H239.099V276.9Z" fill="white" stroke="#ECECEC" stroke-width="0.5" stroke-miterlimit="10"/>
<path d="M259.9 281.8H255L257 279.4L255 276.9H259.9L261.9 279.4L259.9 281.8Z" fill="white" stroke="#ECECEC" stroke-width="0.5" stroke-miterlimit="10"/>
<path d="M247.299 276.9L248.099 278.5L249.899 278.8L248.599 280.1L248.899 281.8L247.299 281L245.699 281.8L245.999 280.1L244.799 278.8L246.499 278.5L247.299 276.9Z" fill="white" stroke="#ECECEC" stroke-width="0.5" stroke-miterlimit="10"/>
<path d="M304.6 278.4H265.5V280.4H304.6V278.4Z" fill="#DCDCDC"/>
<path d="M488.1 278.4H452.6V280.4H488.1V278.4Z" fill="#DCDCDC"/>
<path d="M437.8 278.4H316.5V280.4H437.8V278.4Z" fill="#C8C8C8"/>
<path d="M509.498 287.6H221.398V303.9H509.498V287.6Z" fill="#ECECEC"/>
<path d="M239.099 293.3H234.199V298.2H239.099V293.3Z" fill="white"/>
<path d="M259.9 298.2H255L257 295.7L255 293.3H259.9L261.9 295.7L259.9 298.2Z" fill="white"/>
<path d="M247.299 293.3L248.099 294.9L249.899 295.1L248.599 296.4L248.899 298.2L247.299 297.3L245.699 298.2L245.999 296.4L244.799 295.1L246.499 294.9L247.299 293.3Z" fill="#FFC800"/>
<path d="M304.6 294.7H265.5V296.7H304.6V294.7Z" fill="#DCDCDC"/>
<path d="M488.1 294.7H452.6V296.7H488.1V294.7Z" fill="#DCDCDC"/>
<path d="M437.8 294.7H316.5V296.7H437.8V294.7Z" fill="#C8C8C8"/>
<path d="M304.5 109.5H250V115.3H304.5V109.5Z" fill="#DCDCDC"/>
<path d="M241.599 109.5H234.199V115.3H241.599V109.5Z" fill="#DCDCDC"/>
<path d="M241.599 109.5C241.299 109.8 240.999 110.1 240.699 110.5C240.399 110.8 240.099 111.1 239.799 111.4C239.499 111.7 239.199 112 238.799 112.4C238.499 112.7 238.199 113 237.899 113.2C237.599 112.9 237.299 112.6 236.999 112.4C236.699 112.1 236.399 111.8 235.999 111.4C235.699 111.1 235.399 110.8 235.099 110.5C234.799 110.2 234.499 109.9 234.199 109.5C234.499 109.8 234.799 110.1 235.099 110.4C235.399 110.7 235.699 111 235.999 111.3C236.299 111.6 236.699 112 236.999 112.3C237.299 112.5 237.499 112.8 237.799 113C238.099 112.8 238.299 112.5 238.599 112.3C238.899 112 239.299 111.6 239.599 111.3C239.899 111 240.199 110.7 240.499 110.4C240.999 110.1 241.299 109.8 241.599 109.5Z" fill="white"/>
<path d="M237.099 112.2C237.099 112.3 236.999 112.3 236.999 112.4C236.799 112.6 236.599 112.9 236.399 113.1C236.199 113.4 235.899 113.6 235.699 113.9C235.499 114.2 235.199 114.4 234.999 114.7C234.699 114.9 234.499 115.2 234.199 115.4C234.399 115.1 234.699 114.8 234.899 114.5C235.099 114.2 235.399 114 235.599 113.7C235.799 113.4 236.099 113.2 236.299 112.9C236.499 112.7 236.699 112.5 236.899 112.3C236.999 112.3 237.099 112.3 237.099 112.2Z" fill="white"/>
<path d="M241.599 115.4C241.299 115.2 241.099 114.9 240.799 114.7C240.499 114.5 240.299 114.2 240.099 113.9C239.899 113.6 239.599 113.4 239.399 113.1C239.199 112.9 238.999 112.6 238.799 112.4C238.799 112.3 238.699 112.3 238.699 112.2L238.799 112.3C238.999 112.5 239.199 112.7 239.399 112.9C239.699 113.1 239.899 113.4 240.099 113.7C240.299 114 240.599 114.2 240.799 114.5C241.199 114.8 241.399 115.1 241.599 115.4Z" fill="white"/>
<path d="M396.301 109.5H341.801V115.3H396.301V109.5Z" fill="#DCDCDC"/>
<path d="M329.3 111.5C329.3 112.2 328.7 112.7 328.1 112.7C327.4 112.7 326.9 112.1 326.9 111.5C326.9 110.8 327.5 110.3 328.1 110.3C328.8 110.3 329.3 110.8 329.3 111.5Z" fill="#DCDCDC"/>
<path d="M330.2 114.9V115.4H326V114.9C326 113.7 327 112.8 328.1 112.8C329.3 112.8 330.2 113.8 330.2 114.9Z" fill="#DCDCDC"/>
<path d="M332.5 110.8C332.5 111.5 331.9 112 331.3 112C330.6 112 330.1 111.4 330.1 110.8C330.1 110.1 330.7 109.6 331.3 109.6C332 109.5 332.5 110.1 332.5 110.8Z" fill="#DCDCDC"/>
<path d="M333.4 114.2V114.7H329.1V114.2C329.1 113 330.1 112.1 331.2 112.1C332.5 112 333.4 113 333.4 114.2Z" fill="#DCDCDC"/>
<path d="M488.1 109.5H433.6V115.3H488.1V109.5Z" fill="#DCDCDC"/>
<path d="M425.199 109.5H417.799V115.3H425.199L427.399 112.4L425.199 109.5ZM425.299 112.9C425.099 112.9 424.899 112.7 424.899 112.5C424.899 112.3 425.099 112.1 425.299 112.1C425.499 112.1 425.699 112.3 425.699 112.5C425.699 112.7 425.499 112.9 425.299 112.9Z" fill="#DCDCDC"/>
<path d="M221.399 69H130.199V303.9H221.399V69Z" fill="#009345"/>
<path d="M208.598 103.7H142.898V121.1H208.598V103.7Z" fill="white"/>
<path d="M152.098 83.7002H142.898V85.2002H152.098V83.7002Z" fill="white"/>
<path d="M152.098 90.3003H142.898V91.8003H152.098V90.3003Z" fill="white"/>
<path d="M152.098 87H142.898V88.5H152.098V87Z" fill="white"/>
<path d="M173.499 83.7002H160.799V91.8002H173.499V83.7002Z" fill="#ECECEC"/>
<path d="M173.499 83.7002V91.8002H160.799V83.7002C161.299 84.0002 161.899 84.3002 162.399 84.7002C162.899 85.0002 163.499 85.3002 163.999 85.7002C164.599 86.1002 165.199 86.4002 165.799 86.8002C166.199 87.1002 166.699 87.4002 167.099 87.6002C167.499 87.3002 167.999 87.0002 168.399 86.8002C168.999 86.4002 169.599 86.1002 170.199 85.7002C170.699 85.4002 171.299 85.0002 171.799 84.7002C172.499 84.3002 172.999 84.0002 173.499 83.7002Z" fill="#ECECEC"/>
<path d="M173.498 83.7002C172.998 84.1002 172.498 84.4002 171.898 84.8002C171.398 85.1002 170.898 85.5002 170.298 85.8002C169.798 86.2002 169.198 86.5002 168.598 86.9002C168.098 87.2002 167.598 87.5002 167.098 87.8002H166.998H166.898C166.398 87.5002 165.898 87.2002 165.398 86.9002C165.398 86.9002 165.398 86.9002 165.298 86.9002C164.698 86.5002 164.198 86.2002 163.598 85.8002C163.098 85.5002 162.598 85.1002 161.998 84.8002C161.498 84.4002 160.998 84.1002 160.398 83.7002C160.898 84.0002 161.498 84.3002 161.998 84.7002C162.498 85.0002 163.098 85.3002 163.598 85.7002C164.198 86.1002 164.798 86.4002 165.398 86.8002C165.798 87.1002 166.298 87.4002 166.698 87.6002C167.098 87.3002 167.598 87.0002 167.998 86.8002C168.598 86.4002 169.198 86.1002 169.798 85.7002C170.298 85.4002 170.898 85.0002 171.398 84.7002C172.498 84.3002 172.998 84.0002 173.498 83.7002Z" fill="white"/>
<path d="M165.799 86.7002C165.699 86.8002 165.699 86.8002 165.599 86.9002C165.299 87.2002 164.999 87.4002 164.599 87.7002C164.199 88.0002 163.799 88.3002 163.399 88.6002C162.999 88.9002 162.599 89.2002 162.099 89.5002C161.599 89.8002 161.199 90.0002 160.799 90.3002C161.199 90.0002 161.599 89.6002 161.999 89.3002C162.399 89.0002 162.799 88.7002 163.199 88.4002C163.599 88.1002 163.999 87.8002 164.499 87.5002C164.799 87.3002 165.199 87.1002 165.499 86.9002C165.699 86.8002 165.699 86.7002 165.799 86.7002Z" fill="white"/>
<path d="M173.498 90.2001C173.098 90.0001 172.598 89.7001 172.198 89.4001C171.798 89.1001 171.298 88.8001 170.898 88.5001C170.498 88.2001 170.098 87.9001 169.698 87.6001C169.398 87.3001 168.998 87.1001 168.698 86.8001C168.598 86.7001 168.598 86.7001 168.498 86.6001C168.598 86.6001 168.698 86.7001 168.698 86.7001C169.098 86.9001 169.398 87.1001 169.698 87.3001C170.098 87.6001 170.598 87.9001 170.998 88.2001C171.398 88.5001 171.798 88.8001 172.198 89.1001C172.698 89.5001 173.098 89.8001 173.498 90.2001Z" fill="white"/>
<path opacity="0.1" d="M221.399 136.4H130.199V148.8H221.399V136.4Z" fill="black"/>
<path d="M195.798 139H142.898V146.3H195.798V139Z" fill="white"/>
<path d="M195.798 153.3H142.898V160.6H195.798V153.3Z" fill="white"/>
<path d="M195.798 167.5H142.898V174.8H195.798V167.5Z" fill="white"/>
<path d="M195.798 181.8H142.898V189.1H195.798V181.8Z" fill="white"/>
<path d="M207.099 196H154.199V203.3H207.099V196Z" fill="#375A64"/>
<path d="M207.099 210.3H154.199V217.6H207.099V210.3Z" fill="#375A64"/>
<path d="M195.798 224.6H142.898V231.9H195.798V224.6Z" fill="white"/>
<path d="M195.798 238.8H142.898V246.1H195.798V238.8Z" fill="white"/>
<path d="M129.9 227.5C129.9 228.2 129.9 228.8 130 229.5" stroke="#1A2E35" stroke-width="0.75" stroke-miterlimit="10"/>
<path d="M130.9 234.4C137.5 259.6 177.7 290 222.4 270.6C270.6 249.7 268.8 170.3 331 136.8" stroke="#1A2E35" stroke-width="0.75" stroke-miterlimit="10" stroke-dasharray="4.01 4.01"/>
<path d="M333.201 135.7C333.801 135.4 334.401 135.1 335.001 134.8" stroke="#1A2E35" stroke-width="0.75" stroke-miterlimit="10"/>
<path d="M331.101 123.9L324.801 141.2L338.001 130.9L388.301 112.6L331.101 123.9Z" fill="#D37300"/>
<path d="M339.701 134.9L324.801 141.2L338.001 130.9L339.701 134.9Z" fill="#1A2E35"/>
<path d="M338.002 130.9L388.302 112.6L347.002 152.9L338.002 130.9Z" fill="#FBB03B"/>
<path d="M331.101 123.9L310.201 110.4L388.301 112.6L331.101 123.9Z" fill="#FBB03B"/>
<path d="M558.546 80.0929C565.025 53.931 549.069 27.4703 522.907 20.9912C496.746 14.5121 470.285 30.468 463.806 56.6298C457.327 82.7916 473.283 109.252 499.444 115.732C525.606 122.211 552.067 106.255 558.546 80.0929Z" fill="#A8A8A8"/>
<path d="M544.5 47.3003H477.9V89.5003H544.5V47.3003Z" fill="white"/>
<path d="M544.5 47.3003C541.8 49.9003 539.1 52.3003 536.4 54.9003C533.7 57.4003 530.9 59.9003 528.2 62.3003C525.3 64.9003 522.4 67.4003 519.6 69.9003C519.5 70.0003 519.4 70.1003 519.3 70.1003C516.7 72.3003 514.2 74.5003 511.6 76.8003L511.2 77.1003L510.8 76.8003C508.2 74.6003 505.7 72.4003 503.1 70.1003C503 70.0003 502.9 70.0003 502.8 69.9003C499.9 67.4003 497 64.9003 494.2 62.3003C491.5 59.9003 488.7 57.4003 486 54.9003C483.3 52.4003 480.5 49.9003 477.9 47.3003C480.8 49.5003 483.6 51.8003 486.4 54.1003C489.2 56.4003 492 58.7003 494.8 61.0003C497.9 63.6003 501 66.2003 504.2 68.9003C506.5 70.9003 508.9 72.9003 511.2 74.8003C513.5 72.8003 515.9 70.8003 518.2 68.9003C521.3 66.3003 524.4 63.6003 527.6 61.0003C530.4 58.7003 533.2 56.4003 536 54.1003C538.8 51.8003 541.6 49.5003 544.5 47.3003Z" fill="#DCDCDC"/>
<path d="M504.3 69.8003C504.2 69.9003 504.2 69.9003 504.3 69.8003C503.9 70.2003 503.5 70.5003 503.2 70.8003C501.5 72.2003 499.8 73.6003 498.1 74.9003C496 76.5003 493.8 78.1003 491.6 79.6003C489.4 81.1003 487.2 82.6003 485 84.1003C482.7 85.5003 480.5 87.0003 478.1 88.2003C480.1 86.4003 482.2 84.8003 484.3 83.2003C486.4 81.6003 488.6 80.0003 490.8 78.5003C493 77.0003 495.2 75.5003 497.5 74.0003C499.3 72.8003 501.1 71.7003 503 70.7003C503.3 70.4003 503.7 70.1003 504.3 69.8003C504.2 69.9003 504.2 69.9003 504.3 69.8003Z" fill="#DCDCDC"/>
<path d="M544.3 88.2003C542 86.9003 539.7 85.5003 537.4 84.1003C535.1 82.7003 532.9 81.2003 530.7 79.6003C528.5 78.1003 526.3 76.5003 524.2 74.9003C522.5 73.6003 520.8 72.2003 519.1 70.8003C518.7 70.5003 518.4 70.2003 518 69.9003C518 69.9003 518 69.8003 517.9 69.8003H518C518.4 70.0003 518.9 70.3003 519.3 70.5003C521.2 71.6003 523 72.7003 524.8 73.8003C527 75.2003 529.3 76.7003 531.4 78.3003C533.6 79.8003 535.8 81.4003 537.9 83.0003C540.2 84.7003 542.3 86.4003 544.3 88.2003Z" fill="#DCDCDC"/>
<path d="M540.677 57.3883C546.267 55.4707 549.243 49.3847 547.326 43.795C545.408 38.2052 539.322 35.2284 533.732 37.146C528.143 39.0636 525.166 45.1495 527.083 50.7393C529.001 56.329 535.087 59.3059 540.677 57.3883Z" fill="#193326"/>
<path d="M536 49.6002V40.9002C536 40.3002 536.5 39.7002 537.2 39.7002C537.8 39.7002 538.4 40.2002 538.4 40.9002V49.6002C538.4 50.3002 537.9 50.8002 537.2 50.8002C536.5 50.8002 536 50.3002 536 49.6002ZM537.2 54.9002C536.6 54.9002 536 54.4002 536 53.7002V53.3002C536 52.7002 536.5 52.1002 537.2 52.1002C537.8 52.1002 538.4 52.6002 538.4 53.3002V53.7002C538.4 54.3002 537.8 54.9002 537.2 54.9002Z" fill="white"/>
<path d="M587.299 224.9C587.599 220.8 588.099 216.6 589.099 212.6C589.999 208.9 591.199 205.2 593.499 202.2C595.599 199.4 598.599 197.2 602.099 196.8C605.499 196.4 608.699 197.9 611.199 200C614.299 202.6 616.699 206.1 618.999 209.5C621.499 213.3 623.699 217.2 625.699 221.3C625.799 221.4 625.599 221.5 625.499 221.4C623.799 218 621.699 214.6 619.499 211.5C617.399 208.6 615.199 205.6 612.599 203.1C610.299 200.8 607.299 198.7 603.999 198.6C600.699 198.5 597.599 200.4 595.499 203C593.199 205.9 592.099 209.5 591.199 213C590.299 216.9 589.799 220.8 589.499 224.8C588.799 232.9 588.699 241.1 588.499 249.3C588.399 253.9 588.299 258.5 588.299 263.1C588.299 265.4 588.299 267.8 588.199 270.1C588.199 272.4 588.299 274.6 587.899 276.9C587.799 277.4 587.099 277.3 586.999 276.9C586.599 274.8 586.699 272.6 586.699 270.5C586.699 268.3 586.599 266.1 586.599 263.9C586.599 259.6 586.499 255.3 586.599 251C586.599 242.2 586.699 233.5 587.299 224.9Z" fill="#1A2E35"/>
<path d="M598.9 218.8C599.3 216.5 600.1 213.5 601.4 211.7C603.8 208.5 606.3 209.9 603.9 213.4C601.3 217.3 601 220.3 600.6 222.1C600.6 222.1 604.6 227.8 609.3 230.5C609.1 228.3 608.5 225 608.9 221.8C609.8 214.8 614 215.2 613 220.8C612.2 225.2 611.8 230 612 232C613.4 233.1 615.9 234 617.1 234.5C616.8 233.7 616.5 232.7 616.2 231.5C614.5 225.2 618.7 223.3 618.8 226.8C618.9 229.7 620 234.2 620.4 235.7C622.7 236.5 624.6 237 625.8 237.4C630.6 239.1 633.6 242.8 633.6 242.8C635.8 240.9 637.6 238.5 638.9 235.9C637.4 234.6 635.1 232.8 631.9 230.5C625.9 226.3 628 220.9 632.7 224.2C636.1 226.6 638.8 231 640 233.3C641.7 229.3 642.5 225 642.7 220.8C638 216.4 626.3 210.2 629.8 210.2C633 210.2 640 214.8 642.6 216.6C642.5 215.4 642.4 214.1 642.2 213C637.8 210.1 623.3 205.6 625.6 204.3C628.1 202.9 638.2 207.5 641.2 209C640.5 206.8 639.6 205 638.5 203.5C632.4 195.3 621.3 192.5 616.5 194C613.1 195.1 614.1 203.8 613.3 203.5C600.1 198 593.9 201.9 598.9 218.8ZM632.6 217.8C633.6 216.6 638.1 220.1 636.8 222C635.4 223.9 631.3 219.3 632.6 217.8ZM609 210.4C610.2 211.2 608.4 215.5 606.6 214.2C605.1 213.1 607.9 209.7 609 210.4Z" fill="#FBB03B"/>
<path d="M610.8 211.8C611.4 210.6 612.1 209.4 612.8 208.2C613.5 207.1 614.2 205.9 615.1 204.9C614.9 204.7 614.7 204.4 614.5 204.2C614.4 204.1 614.6 204 614.6 204.1C614.8 204.4 615 204.6 615.3 204.9L615.4 205C616.2 206 617 207.1 617.8 208.1C619.1 208.4 620.5 208.8 621.8 209.3C623.1 209.8 624.5 210.2 625.8 210.8C625.9 210.9 625.9 211.1 625.7 211C624.4 210.4 623.1 209.9 621.7 209.4C620.4 209 619.1 208.6 617.8 208.3C618.2 208.9 618.6 209.5 619 210.1C621.4 210.8 623.8 211.9 626 213C628.4 214.1 630.7 215.4 633 216.8C633.1 216.9 633 217.1 632.9 217C630.7 215.7 628.3 214.5 626 213.4C623.8 212.4 621.5 211.5 619.3 210.5C624.9 219.2 628.3 229.3 632.8 238.7C632.9 238.8 632.7 238.9 632.6 238.8C631.2 235.5 629.6 232.3 628.2 229.1C626.9 226.2 625.6 223.3 624.2 220.4C623.8 219.6 623.4 218.7 623 217.9C623.2 222.6 623.1 227.3 623.9 231.9C623.9 232.1 623.7 232.1 623.7 231.9C623.4 226.9 622.5 222 622.5 217C622.5 217 622.5 217 622.5 216.9C621.5 215 620.5 213.1 619.4 211.3C617.5 215.7 615.6 220.1 614.7 224.8C614.7 224.9 614.4 224.9 614.5 224.7C615.8 220 616.9 215.3 619.2 210.9C618 208.9 616.7 207 615.3 205.2C614.7 206.4 613.9 207.5 613.2 208.6C612.5 209.7 611.8 210.8 611.2 211.9C609.8 214.3 608.6 216.7 607.7 219.3C607.6 219.4 607.4 219.4 607.5 219.2C608.5 216.7 609.6 214.2 610.8 211.8Z" fill="#1A2E35"/>
<path d="M566.699 222.4C570.299 218.8 574.499 214.1 579.999 214.1C585.399 214.1 589.299 218.4 591.599 222.9C593.999 227.6 594.799 232.8 595.499 238C596.299 244.1 596.699 250.3 596.899 256.5C596.999 259.9 596.999 263.4 596.899 266.8C596.799 270.3 596.699 273.8 596.099 277.2C595.999 277.8 595.099 277.8 595.099 277.2C594.899 274.3 595.099 271.4 595.099 268.5C595.099 265.6 595.099 262.8 594.999 259.9C594.799 254.1 594.399 248.4 593.699 242.6C593.099 237.6 592.599 232.4 591.099 227.6C589.699 223.2 587.199 218.2 582.799 216.3C576.799 213.7 570.899 218.5 566.899 222.5C566.699 222.6 566.599 222.5 566.699 222.4Z" fill="#1A2E35"/>
<path d="M548.299 230.4C548.299 231.1 548.399 231.9 548.399 232.6C549.999 231.4 552.099 230.4 554.299 230.2C559.399 229.7 559.099 233.5 555.699 233.7C552.399 233.9 550.299 234.4 548.699 235.1C549.499 241.8 551.399 247.3 551.699 247.3C551.999 247.4 558.199 246.9 565.199 245.6C563.899 242.9 560.999 239.3 562.499 239C563.999 238.7 565.599 241.9 566.399 245.3C569.799 244.6 573.199 243.7 576.199 242.6C573.999 240.7 570.499 238.2 571.799 237.2C573.099 236.2 575.899 239.6 577.499 242C579.099 241.3 580.599 240.5 581.699 239.6C578.699 235.2 571.299 234.3 572.299 231C573.299 227.7 580.199 232.2 583.299 238.2C586.899 234.4 587.999 229.1 587.599 224.5C584.399 224.1 578.299 224.8 578.799 222.5C579.199 220.3 583.599 220.7 587.299 222C586.899 219.9 586.099 218.2 585.199 217C581.899 212.7 571.699 218.2 571.699 218.2C571.699 218.2 572.799 208 568.899 206.2C566.699 205.2 562.699 205.2 558.699 207.5C560.899 207.7 563.599 208.4 564.699 209.9C566.099 211.9 563.899 212.9 562.499 212C561.499 211.4 559.699 209.3 556.399 209.1C555.099 210.2 553.899 211.5 552.699 213.2C552.299 213.7 551.999 214.3 551.599 214.9C554.799 213.6 558.999 212.9 563.499 215.1C567.899 217.3 565.399 221.9 561.599 220.1C557.799 218.3 554.199 216.6 550.199 217.6C548.699 221 548.199 225 548.299 229C549.799 227.9 551.999 226.6 554.799 225.9C559.199 224.7 560.499 227.4 555.699 227.9C552.699 228.3 550.099 229.5 548.299 230.4ZM553.699 223.4C553.399 222 556.499 221.6 556.999 222.7C557.399 223.7 553.999 224.8 553.699 223.4ZM580.299 231.3C580.599 230.5 582.699 231.4 582.499 232.4C582.199 233.6 579.999 232 580.299 231.3ZM565.599 236.3C567.099 235.7 569.499 239.5 567.799 240.3C566.199 241.2 564.399 236.8 565.599 236.3Z" fill="#009345"/>
<path d="M552.3 246.5C554.6 242.7 556.9 238.8 559.3 235.1C560.4 233.4 561.6 231.6 562.8 230C562.6 230 562.4 229.9 562.3 229.9C562 229.8 561.7 229.8 561.4 229.7C560.7 229.6 560 229.5 559.3 229.4C558.6 229.3 558 229.3 557.3 229.3C556.6 229.3 555.8 229.3 555.2 229.4C555.1 229.4 555.1 229.3 555.2 229.3C555.9 229.3 556.6 229.2 557.4 229.2C558.1 229.2 558.8 229.2 559.5 229.2C560.2 229.2 560.8 229.3 561.4 229.4C561.8 229.5 562.1 229.5 562.5 229.6C562.7 229.6 562.9 229.7 563.1 229.7C564.3 228 565.6 226.3 567 224.7C563 222.9 558.9 221.3 554.5 220.7C554.4 220.7 554.5 220.6 554.5 220.6C558.9 221.3 563.3 222.4 567.2 224.5C567.9 223.6 568.7 222.7 569.4 221.8C570.2 220.8 571.1 219.8 571.9 218.8C571.9 218.7 572 218.8 572 218.9C571 220 570 221.2 569.1 222.5C570.8 223.6 572.3 224.9 573.8 226.2C575.3 227.5 576.8 228.9 578.3 230.4C578.4 230.5 578.3 230.5 578.2 230.5C576.8 229.1 575.3 227.7 573.7 226.4C572.2 225.1 570.5 223.9 569 222.7C568.6 223.2 568.3 223.6 567.9 224.1C567.7 224.3 567.5 224.6 567.4 224.8C567.4 224.8 567.4 224.8 567.4 224.9C566.8 225.7 566.2 226.5 565.6 227.2C566.3 228.2 566.9 229.3 567.4 230.4C567.9 231.5 568.4 232.6 568.8 233.7C569.7 236 570.2 238.4 570.7 240.9C570.7 241 570.6 241 570.6 240.9C570.1 238.5 569.4 236.2 568.5 233.9C568.1 232.7 567.5 231.6 567 230.5C566.5 229.5 565.9 228.5 565.5 227.4C565 228.1 564.5 228.8 564 229.5C563.9 229.7 563.7 229.9 563.6 230.1V230.2C562 232.4 560.5 234.6 559.1 236.9C559.2 237 559.2 237.2 559.3 237.4C559.4 237.7 559.5 238 559.6 238.2C559.8 238.8 559.9 239.3 560 239.9C560.1 240.4 560.2 241 560.2 241.5C560.3 242.1 560.2 242.8 560.3 243.4C560.3 243.5 560.2 243.5 560.2 243.4C560.3 242.9 560.1 242.2 560.1 241.7C560 241.1 559.9 240.5 559.8 239.9C559.7 239.4 559.5 238.9 559.4 238.3C559.3 238 559.2 237.8 559.1 237.5C559.1 237.4 559 237.2 558.9 237.1C558.2 238.2 557.5 239.2 556.9 240.3C555.6 242.4 554.3 244.6 553 246.7C552.4 246.7 552.2 246.7 552.3 246.5Z" fill="#1A2E35"/>
<path d="M587.6 275.9C587.7 273.7 588 271.5 588.2 269.4C588.4 267.2 588.7 265.1 588.9 262.9C589.3 258.7 589.6 254.5 590.6 250.4C591.4 246.9 593 243.5 595.7 241C597.1 239.7 598.8 238.7 600.7 238.6C602.6 238.5 604.4 239.2 606 240.2C607.8 241.4 609.2 243.2 610.5 244.9C611.8 246.7 613 248.6 614 250.6C614 250.7 613.9 250.7 613.9 250.7C612 247.4 609.4 244.6 606.4 242.3C605 241.2 603.4 240.4 601.6 240.3C599.8 240.2 598.3 241 597 242.1C594.5 244.3 593 247.5 592.1 250.7C591.1 254.5 590.7 258.4 590.2 262.3C589.9 264.6 589.6 266.9 589.3 269.2C589 271.5 588.8 273.8 588.3 276.1C588.2 276.5 587.5 276.4 587.6 275.9Z" fill="#1A2E35"/>
<path d="M598.2 259.1C598.8 260 599.6 260.8 600.6 261.5C600.2 259.4 599.8 255.6 600.9 253.6C602.6 250.5 604.5 252 603.5 254.7C602.1 258.6 601.9 261.2 601.9 262.4C604 263.8 606.5 264.9 609.1 265.8C608.9 264.8 608.7 263.5 608.9 262.1C609.2 258.8 611.8 258.8 611.1 262.3C610.8 263.8 610.7 265.2 610.8 266.4C616.6 268.2 622 268.9 622 268.9C624.2 266 625.7 263.3 626.6 260.6C623.9 259.9 618.4 259.8 618.5 257.8C618.7 255.2 624 257.2 627.1 259.1C627.9 256.6 628.1 254.3 628 252.1C626.8 251.7 624.5 251.2 620.5 250.9C614.9 250.4 615.2 247.3 619.2 247.3C622.2 247.4 625.9 249.2 627.7 250.1C626.5 242.5 620.8 237.7 616.1 237.5C608.3 237.2 611.1 246.9 611.1 246.9C611.1 246.9 605.8 243.2 600.8 243.3C596.1 243.4 592.9 251.7 598.2 259.1ZM619 245.1C618.8 244 622.3 243.7 622.5 245.1C622.7 246.7 619.2 246.2 619 245.1ZM624.6 256.4C624.5 255.7 626 255.6 626.4 256.5C626.6 257.1 624.7 257.1 624.6 256.4ZM605.9 257.1C607.1 257.3 607.7 261.5 605.7 261.4C604.2 261.3 604.9 257 605.9 257.1Z" fill="#009345"/>
<path d="M607.5 261.8C607.7 261.3 607.9 260.7 608 260.2C607.8 260.7 607.7 261.3 607.6 261.8C607.7 261.9 607.5 261.9 607.5 261.8Z" fill="#1A2E35"/>
<path d="M609.6 255C610 253.9 610.4 252.9 610.8 251.8C611 251.2 611.3 250.7 611.5 250.1C611.7 249.6 611.9 249.1 612.2 248.7C612 248.3 611.7 247.8 611.6 247.3C611.6 247.3 611.6 247.2 611.7 247.3C612.3 248 612.8 248.9 613.2 249.7C613.4 250.1 613.6 250.4 613.8 250.8C614.2 250.8 614.7 250.9 615.1 251C615.6 251.1 616 251.2 616.5 251.3C617 251.4 617.4 251.5 617.9 251.6C618.4 251.7 618.8 251.9 619.3 251.9C619.4 251.9 619.4 252.1 619.3 252C618.8 251.8 618.3 251.7 617.8 251.6C617.4 251.5 616.9 251.4 616.5 251.4C616 251.3 615.6 251.3 615.1 251.2C614.8 251.2 614.4 251.1 614.1 251.1C614.3 251.4 614.5 251.7 614.7 252.1C614.7 252.2 614.8 252.2 614.8 252.3C615.2 252.3 615.6 252.4 615.9 252.4C616.3 252.5 616.7 252.5 617.1 252.6C617.9 252.8 618.7 253 619.5 253.2C621.2 253.7 622.9 254.2 624.5 254.8C624.6 254.8 624.5 255 624.4 254.9C622.8 254.3 621.1 253.9 619.4 253.5C618.6 253.3 617.8 253.1 617 253C616.6 252.9 616.2 252.8 615.8 252.7C615.5 252.6 615.2 252.6 614.9 252.5C615.8 254.1 616.6 255.7 617.3 257.3C618.9 260.9 620.3 264.6 621.7 268.2C621.7 268.3 621.6 268.4 621.6 268.3C620.3 264.6 618.7 261.1 617 257.6C616.7 257 616.4 256.3 616.1 255.7C616.1 255.8 616 256 616 256.1C615.9 256.5 615.8 257 615.8 257.4C615.7 258.3 615.5 259.1 615.4 260C615.1 261.8 614.7 263.6 614.8 265.4C614.8 265.5 614.6 265.5 614.6 265.4C614.7 264.5 614.7 263.6 614.8 262.8C614.9 261.9 614.9 261 615 260.1C615.1 259.2 615.2 258.4 615.4 257.5C615.5 257.1 615.5 256.6 615.6 256.2C615.7 255.9 615.7 255.5 615.8 255.3C615.3 254.4 614.9 253.5 614.4 252.6C614 251.7 613.5 250.9 613.1 250C612.9 249.6 612.7 249.3 612.5 248.9C612.4 249.4 612.2 249.8 612 250.2C611.8 250.7 611.6 251.2 611.4 251.7C611 252.8 610.5 253.9 610.1 255C609.5 256.6 608.9 258.2 608.4 259.8C608.7 258.2 609.1 256.6 609.6 255Z" fill="#1A2E35"/>
<path d="M608.1 260.2C608.1 260.1 608.2 259.9 608.2 259.8C608.2 259.9 608.1 260.1 608.1 260.2Z" fill="#1A2E35"/>
<path d="M574.5 271.7L575.1 283.3L576.5 313.2H607.3L608.7 283.3L609.3 271.7H574.5Z" fill="#2B454E"/>
<path d="M574.5 271.7L575.1 283.3H608.7L609.3 271.7H574.5Z" fill="#1A2E35"/>
<path d="M572.419 276.416H611.52V267.016H572.419V276.416Z" fill="#2B454E"/>
<path d="M604.798 313.2H599.398V318.1H604.798V313.2Z" fill="#2B454E"/>
<path d="M604.798 313.2H599.398V315.7H604.798V313.2Z" fill="#1A2E35"/>
<path d="M584.4 313.2H579V318.1H584.4V313.2Z" fill="#2B454E"/>
<path d="M584.4 313.2H579V315.7H584.4V313.2Z" fill="#1A2E35"/>
<path d="M36.7997 405.9L181.4 406.5C216.5 378.9 220.2 338 195.1 313.2C179.9 298.2 160.7 301.2 142.3 298.9C142.3 298.9 142.3 298.9 142.2 298.9C135.8 298.1 129.5 296.6 123.6 293.4C104.7 283.4 94.0997 259.9 78.1997 240.1C76.1997 237.6 74.1997 235.2 71.9997 232.9C58.8997 218.9 32.8997 218.5 19.2997 238.1C-15.3003 288 0.499657 362.2 36.7997 405.9Z" fill="#C8C8C8"/>
<path d="M33.599 291.8C37.399 351.1 105.899 373.3 148.699 355.5C185.899 340 173.699 304.8 142.299 298.9C142.299 298.9 142.299 298.9 142.199 298.9C135.799 298.1 129.499 296.6 123.599 293.4C104.699 283.4 94.099 259.9 78.199 240.1C54.499 227.9 30.799 248.4 33.599 291.8Z" fill="#DCDCDC"/>
<path d="M148.5 415.2C146.4 414.4 97.6998 376.7 96.6998 374.1C96.2998 373.1 101.4 365.7 107.8 356.9C109.2 355 110.6 353.1 112.1 351.1C121.6 338.3 132.1 324.9 132.1 324.9L164.7 350.1L143.8 375.6L139.2 381.2C139.2 381.2 151.4 404 152.1 407C152.9 409.9 150.6 415.9 148.5 415.2Z" fill="#864240"/>
<path d="M117.299 344.2C115.599 346.4 113.899 348.8 112.199 351C110.699 353 109.299 354.9 107.899 356.8C101.499 365.6 96.3994 373 96.7994 374C97.6994 376.6 146.399 414.4 148.599 415.1C150.699 415.9 152.999 409.8 152.299 406.8C151.599 403.8 139.399 381 139.399 381L143.999 375.4L148.699 369.7L117.299 344.2Z" fill="#ECECEC"/>
<path d="M148.7 415.6C146.5 414.8 97.2001 376.2 96.3001 373.5C95.9001 372.3 103.6 361.4 112.1 350.2L144.3 375.2L139.6 380.9C139.6 380.9 151.9 404.1 152.6 407.2C153.3 410.3 150.9 416.4 148.7 415.6Z" fill="#FBB03B"/>
<path d="M149.6 413.1C141.5 406.4 108.2 380.2 99.6004 374.2C99.5004 374.2 99.5004 374.2 99.6004 374.3C107.5 381.1 141 407 149.5 413.2C149.6 413.4 149.7 413.3 149.6 413.1Z" fill="#1A2E35"/>
<path d="M142.1 380C139.3 376.8 135 374.2 130.6 374.6C130.4 374.6 130.5 374.9 130.6 374.9C134.6 376.4 138.1 378.1 141.7 380.4C142.1 380.6 142.3 380.3 142.1 380Z" fill="#1A2E35"/>
<path d="M143.401 383.3C140.601 380.1 136.301 377.5 131.901 377.9C131.701 377.9 131.801 378.2 131.901 378.2C135.901 379.7 139.401 381.4 143.001 383.7C143.301 383.9 143.601 383.5 143.401 383.3Z" fill="#1A2E35"/>
<path d="M144.6 386.6C141.8 383.4 137.5 380.8 133.1 381.2C132.9 381.2 133 381.5 133.1 381.5C137.1 383 140.6 384.7 144.2 387C144.5 387.1 144.8 386.8 144.6 386.6Z" fill="#1A2E35"/>
<path d="M145.901 389.8C143.101 386.6 138.801 384 134.401 384.4C134.201 384.4 134.301 384.7 134.401 384.7C138.401 386.2 141.901 387.9 145.501 390.2C145.801 390.4 146.101 390 145.901 389.8Z" fill="#1A2E35"/>
<path d="M154.101 377.2C154.201 374.4 151.201 373.4 148.901 373.4C145.301 373.5 141.101 374.9 138.001 376.9C137.901 377 137.901 377 138.001 377.1C137.801 377.4 137.801 377.8 138.201 377.9C141.701 379 145.201 380.6 148.901 380.6C151.101 380.7 154.001 379.8 154.101 377.2ZM143.801 378.6C142.101 378.1 140.401 377.5 138.701 377.1C140.801 376.4 142.901 375.6 145.101 375.2C146.101 375 147.201 374.8 148.301 374.7C150.001 374.6 155.301 375.7 151.901 378.8C150.001 380.5 145.901 379.2 143.801 378.6Z" fill="#1A2E35"/>
<path d="M130.401 369.7C132.201 372.9 135.301 375.3 137.901 377.8C138.201 378.1 138.601 377.9 138.701 377.6C138.801 377.6 138.801 377.6 138.801 377.5C139.101 373.9 138.301 369.5 136.701 366.3C135.701 364.3 133.301 362.2 130.901 363.6C128.801 364.9 129.401 367.8 130.401 369.7ZM130.801 366.2C131.901 361.7 135.501 365.9 136.101 367.4C136.501 368.4 136.901 369.4 137.201 370.4C137.801 372.5 138.201 374.7 138.601 376.9C137.401 375.6 136.101 374.4 134.801 373.1C133.301 371.6 130.201 368.6 130.801 366.2Z" fill="#1A2E35"/>
<path d="M198.4 300C196.2 317 154.4 365.9 149.5 371.5C148.8 372.3 148.4 372.8 148.4 372.8L113.8 346.2L114.2 345.7L144.6 305.8C144.6 305.8 94.3004 335.2 69.1004 321.8C57.8004 315.8 49.4004 305.2 49.4004 305.2L82.3004 287.7C82.3004 287.7 91.4004 290.6 97.2004 289.8C117.2 286.9 162.1 269.8 172.8 270.2C186.6 270.9 200.5 284.4 198.4 300Z" fill="#375A64"/>
<path d="M155.701 291C154.501 292.2 153.601 293.7 152.601 295C151.501 296.4 150.401 297.8 149.401 299.2C149.601 298.8 149.801 298.4 150.001 298C150.701 296.6 151.201 295.1 152.001 293.8C152.001 293.7 151.901 293.6 151.901 293.7C151.101 295 150.101 296.3 149.401 297.7C149.101 298.4 148.801 299 148.501 299.7C148.301 300.1 148.201 300.4 148.001 300.8C147.901 301 147.901 301.2 147.801 301.3C147.301 302 146.801 302.6 146.401 303.3C145.401 304.8 144.501 306.4 143.401 307.8C143.301 307.9 143.501 308 143.501 307.9C144.601 306.5 145.701 305.2 146.801 303.8C147.901 302.4 148.901 301 149.901 299.5C150.901 298.1 151.901 296.7 152.901 295.2C153.801 294.1 154.901 292.7 155.701 291C155.801 291.1 155.701 291 155.701 291Z" fill="#1A2E35"/>
<path d="M152.001 364.6C150.101 362.8 148.101 361.2 146.101 359.6C144.101 358 142.101 356.3 140.001 354.7C135.901 351.5 131.901 348.2 127.801 345C125.501 343.2 123.301 341.5 120.901 339.9C120.801 339.8 120.701 340 120.801 340.1C124.601 343.6 128.701 346.8 132.801 350C136.901 353.2 140.901 356.5 145.001 359.7C147.301 361.4 149.501 363.2 151.801 364.8C152.001 364.8 152.101 364.7 152.001 364.6Z" fill="#1A2E35"/>
<path d="M64.8995 253.6C71.0995 262.4 92.1995 285.4 106.7 288.7C114.7 290.5 153.599 296 158.899 291.1C165.099 285.4 162.2 264 157.3 263.8C142.2 263.2 114.2 266.2 107.2 264.6C104 263.9 87.2995 253.1 69.3995 244.4C62.5995 241.3 60.8995 247.9 64.8995 253.6Z" fill="#EF8B7B"/>
<path d="M149.101 262.7L146.501 294.7C146.501 294.7 111.301 294.1 100.601 288.2C90.0007 282.2 72.6008 267 66.0008 256.4C59.4008 245.8 61.6008 240 74.5008 246.5C87.4007 253 104.901 263.5 107.201 264C109.601 264.6 149.101 262.7 149.101 262.7Z" fill="#009345"/>
<path d="M142.1 264.9C142.1 264.8 142 264.8 142 264.9C141.6 267.1 141.4 269.4 141.1 271.6C140.8 273.9 140.6 276.2 140.4 278.5C140 283.1 139.5 287.7 139.4 292.3C139.4 292.5 139.7 292.5 139.7 292.3C140.4 287.8 140.8 283.2 141.2 278.6C141.4 276.3 141.6 274.1 141.8 271.8C141.9 269.6 142.1 267.2 142.1 264.9Z" fill="#1A2E35"/>
<path d="M94.2992 257.1C90.8992 263.7 86.6992 270 83.0992 275.1C82.9992 275 82.8992 274.9 82.6992 274.8C86.2992 269.8 90.3992 263.5 93.7992 256.9C93.9992 257 94.1992 257 94.2992 257.1Z" fill="white"/>
<path d="M98.5 259.5C95 266.4 90.7 273.1 86.9 278.4C86.8 278.3 86.6 278.2 86.5 278.1C90.3 272.8 94.6 266.2 98.1 259.3C98.2 259.3 98.4 259.4 98.5 259.5Z" fill="white"/>
<path opacity="0.1" d="M115.3 292.2C109.3 291.2 103.8 289.9 100.6 288.1C90 282.1 72.6 266.9 66 256.2C60.9 248.1 61 242.8 67.1 243.7L115.3 292.2Z" fill="black"/>
<path d="M33.6992 312.9C35.5992 313.5 90.5992 297.6 90.5992 297.6L84.0992 278.5C84.0992 278.5 87.2992 272.4 85.7992 266.5C83.7992 258.6 69.1992 245.7 68.0992 244.9C63.4992 241.8 59.1992 241.9 55.3992 243.9C39.4992 252.4 33.6992 312.9 33.6992 312.9Z" fill="#009345"/>
<path d="M83.1 261C68.9 268 49.3 270.6 41 271.5C41 271.3 41.1 271.2 41.1 271C49.4 270.1 68.7 267.5 82.8 260.6C82.9 260.7 83 260.8 83.1 261Z" fill="white"/>
<path d="M85.2992 264.9C70.1992 273.1 47.3992 275.9 39.6992 276.6C39.6992 276.4 39.7992 276.2 39.7992 276.1C47.5992 275.3 70.0992 272.6 84.9992 264.4C85.1992 264.6 85.1992 264.7 85.2992 264.9Z" fill="white"/>
<path d="M75.7 251.8C77.1 253.4 78.6 255 80.1 256.6C79.4 255.4 78.7 254.2 78 253C78 253 78 252.9 78 253C79.1 254.4 80 255.9 80.8 257.4C81.9 258.6 82.9 259.9 83.8 261.3C84.9 262.9 85.8 264.7 86.3 266.6C86.8 268.5 86.8 270.5 86.5 272.5C86.1 274.8 85.4 276.9 84.6 279.1C84.5 279.4 84.1 279.2 84.2 278.9C85.2 275.2 86.4 271.2 85.6 267.4C84.8 263.6 82.4 260.3 80 257.2C78.6 255.4 77.2 253.5 75.5 251.9C75.5 251.8 75.6 251.7 75.7 251.8Z" fill="#1A2E35"/>
<path d="M48.2005 257.2C43.8005 282.3 47.4005 301.2 51.6005 303.5C63.1005 309.8 85.2005 298.7 92.9005 296.2C96.0005 295.2 93.0005 269.1 89.6005 269.8C81.1005 271.5 65.9005 280.4 65.4005 280.3C64.5005 280.2 63.6005 273.8 59.2005 255.2C55.7005 240.2 50.0005 247 48.2005 257.2Z" fill="#EF8B7B"/>
<path d="M86.4004 270.8C86.4004 270.8 102.5 264.1 115.5 264.7C119.9 264.9 137.8 270.5 136.7 274.9C135.6 278.9 120.8 272.4 120.8 272.4C120.8 272.4 136.4 277.6 134.2 282.2C132 286.7 116.2 277.2 116.2 277.2C116.2 277.2 132.1 282.9 129.1 287.2C126.9 290.5 112 282.6 112 282.6C112 282.6 125.6 287.6 123.4 291.1C121 294.9 106.9 288.5 106.9 288.5C99.9004 296.4 93.4004 297.3 88.6004 297.3C87.5004 297.3 86.4004 270.8 86.4004 270.8Z" fill="#EF8B7B"/>
<path d="M115.501 270.2C117.401 270.7 119.201 271.3 121.001 272C122.801 272.7 124.601 273.5 126.301 274.4C130.501 276.5 132.801 278.5 132.701 278.4C129.001 275.8 122.601 273.2 120.801 272.5C119.001 271.8 117.301 271 115.501 270.2C115.401 270.2 115.401 270.2 115.501 270.2Z" fill="#1A2E35"/>
<path d="M112.801 276.6C115.101 277.4 117.501 278.1 119.801 279C122.101 279.9 124.201 281 126.401 282C126.601 282.1 126.501 282.1 126.301 282.1C124.001 281.1 121.901 280.4 119.601 279.5C117.301 278.6 115.101 277.5 112.801 276.6C112.801 276.7 112.801 276.6 112.801 276.6Z" fill="#1A2E35"/>
<path d="M109.501 281.8C113.101 282.8 116.601 284.5 119.901 286.3C120.101 286.4 119.901 286.5 119.801 286.4C116.401 284.8 113.701 283.6 109.501 281.9C109.401 281.9 109.401 281.7 109.501 281.8Z" fill="#1A2E35"/>
<path d="M83.1996 270.9L96.3997 299C96.3997 299 55.4996 310.9 49.9996 303.8C44.4996 296.6 44.7997 274 47.3997 258.4C49.9997 242.8 56.9996 242.5 60.0996 256.6C63.1996 270.7 64.9996 279.6 65.4996 279.6C66.0996 279.5 83.1996 270.9 83.1996 270.9Z" fill="#009345"/>
<path d="M63.5996 272.5C57.9996 276.3 51.5996 279.6 45.5996 282.2V281.7C51.5996 279.1 57.8996 275.8 63.4996 272C63.4996 272.2 63.4996 272.4 63.5996 272.5Z" fill="white"/>
<path d="M64.6992 277.4C58.7992 281.4 51.9992 284.8 45.6992 287.5C45.6992 287.3 45.6992 287.1 45.6992 287C51.8992 284.3 58.6992 280.9 64.4992 276.9C64.5992 277.1 64.6992 277.2 64.6992 277.4Z" fill="white"/>
<path d="M77.8995 274.6C77.8995 274.5 77.6995 274.6 77.7995 274.7C78.4995 276.8 79.4995 278.9 80.3995 280.9C81.2995 283 82.2995 285.1 83.2995 287.2C85.2995 291.4 87.1995 295.6 89.3995 299.7C89.4995 299.9 89.6995 299.7 89.6995 299.6C87.9995 295.3 85.9995 291.2 84.0995 287C83.0995 284.9 82.1995 282.9 81.1995 280.8C79.9995 278.8 79.0995 276.6 77.8995 274.6Z" fill="#1A2E35"/>
<path d="M74.7999 304.2C73.6999 304.2 72.4999 304.6 71.3999 304.8C70.1999 305 68.9999 305.2 67.7999 305.4C65.4999 305.7 63.1999 305.9 60.8999 306C58.5999 306.1 52.9999 305.7 51.1999 304.1C49.6999 302.7 48.5999 300.5 48.1999 299C47.5999 296.4 47.0999 293.7 46.7999 291C46.0999 285.3 45.9999 279.5 46.2999 273.8C46.3999 272.2 46.4999 270.6 46.5999 269C46.6999 267.4 46.8999 265.7 46.9999 264.1C46.9999 264 46.8999 264 46.8999 264.1C46.2999 266.7 46.0999 269.3 45.7999 272C45.6999 270.4 45.4999 268.7 45.4999 267.1C45.4999 267 45.3999 267 45.3999 267.1C45.3999 268.8 45.2999 270.6 45.3999 272.3C45.3999 273.3 45.4999 274.2 45.5999 275.2C45.4999 277.4 45.3999 279.6 45.3999 281.8C45.4999 287.6 45.8999 293.5 47.3999 299.1C48.0999 301.6 49.0999 303.9 51.3999 305.2C52.6999 306 54.9999 306.5 56.7999 306.6C60.6999 306.9 64.6999 306.6 68.5999 305.9C69.6999 305.7 70.7999 305.5 71.7999 305.2C72.7999 305 73.9999 304.8 74.8999 304.3L74.7999 304.2Z" fill="#1A2E35"/>
<path d="M83.2004 270.3C80.2004 271.8 77.2004 273.3 74.2004 274.9C72.7004 275.7 71.2004 276.4 69.8004 277.2C68.4004 277.9 65.7004 279.4 65.7004 279.4C65.7004 278.7 65.1004 276.8 64.9004 275.5C64.6004 274.1 64.3004 272.7 63.9004 271.4C63.8004 271 63.7004 270.7 63.6004 270.3C63.5004 269.6 63.5004 269 63.4004 268.3C63.3004 267.2 63.2004 266.1 63.0004 265.1H62.9004C62.8004 266.1 62.8004 267.1 62.9004 268.1C62.4004 266.4 62.0004 264.8 61.5004 263.1C61.5004 263 61.4004 263.1 61.4004 263.1C61.9004 265.9 62.5004 268.7 63.1004 271.4C63.4004 272.7 63.8004 274.1 64.1004 275.4C64.4004 276.7 65.2004 279.7 65.3004 279.7C66.8004 279.2 68.3004 278.4 69.8004 277.7C71.3004 277 72.9004 276.2 74.4004 275.5C77.4004 274 80.3004 272.5 83.2004 270.8C83.2004 270.8 83.6004 271.7 83.7004 271.8C83.8004 271.9 83.9004 271.7 83.8004 271.6C83.7004 271.4 83.2004 270.3 83.2004 270.3Z" fill="#1A2E35"/>
<path d="M143.601 291H85.3008V293.6H143.601V291Z" fill="#C8C8C8"/>
<path d="M97.8008 291L95.8008 293.6H143.601V291H97.8008Z" fill="#A8A8A8"/>
<path d="M100.301 293.6H157.101L161.801 255H105.001L100.301 293.6Z" fill="#C8C8C8"/>
<path d="M127.602 274.3C127.602 276.2 129.102 277.8 131.002 277.8C132.902 277.8 134.502 276.3 134.502 274.3C134.502 272.4 133.002 270.8 131.102 270.8C129.202 270.8 127.602 272.4 127.602 274.3Z" fill="white"/>
<path d="M52.6992 245.9C52.6992 245.9 62.3992 254.1 68.5992 252.6C74.7992 251.1 70.9992 244.8 70.9992 244.8C70.9992 244.8 65.3992 241.4 59.2992 242.1C55.0992 242.8 52.6992 245.9 52.6992 245.9Z" fill="#EF8B7B"/>
<path d="M70.7992 234.7L70.4992 236.2L68.9992 242.4L68.7992 243.1L68.6992 243.7C68.6992 243.7 68.5992 251.8 67.0992 251.8C62.5992 251.9 57.8992 245.4 57.6992 244.4C57.6992 244.3 57.7992 242.9 57.9992 241C58.1992 239.6 58.3992 237.9 58.5992 236.1C59.0992 231.8 59.6992 227.4 59.6992 227.4L70.7992 234.7Z" fill="#EF8B7B"/>
<path d="M70.8 234.7L68.8 243C66.4 242.1 61.3 239.4 59 233C59.3 230.1 59.6 227.7 59.7 227.4L61.1 228.3L70.8 234.7Z" fill="#EF8B7B"/>
<path d="M273.801 371.5C273.001 373.6 234.401 421.6 231.801 422.5C230.801 422.8 223.501 417.6 214.801 411.1C212.901 409.7 211.001 408.2 209.101 406.7C196.501 396.9 183.301 386.3 183.301 386.3L209.001 354.1L234.101 375.4L239.601 380.1C239.601 380.1 262.601 368.3 265.601 367.7C268.601 367 274.601 369.4 273.801 371.5Z" fill="#864240"/>
<path d="M202.301 401.4C204.501 403.1 206.801 404.9 209.101 406.6C211.001 408.1 213.001 409.6 214.801 411C223.501 417.6 230.801 422.8 231.801 422.4C234.401 421.5 273.001 373.5 273.801 371.4C274.601 369.3 268.601 366.9 265.601 367.5C262.601 368.2 239.601 379.9 239.601 379.9L234.101 375.2L228.501 370.4L202.301 401.4Z" fill="#ECECEC"/>
<path d="M274.301 371.3C273.501 373.5 234.001 422.1 231.301 423C230.101 423.4 219.401 415.4 208.301 406.8L233.901 375.1L239.501 379.9C239.501 379.9 263.001 368 266.001 367.4C269.001 366.6 275.101 369.1 274.301 371.3Z" fill="#FBB03B"/>
<path d="M271.8 370.4C265 378.4 238.2 411.3 232.1 419.7C232 419.8 232.1 419.8 232.2 419.7C239.1 411.9 265.6 378.8 272 370.5C272 370.3 271.9 370.2 271.8 370.4Z" fill="#1A2E35"/>
<path d="M238.599 377.2C235.399 379.9 232.699 384.2 232.999 388.6C232.999 388.8 233.199 388.7 233.299 388.6C234.899 384.6 236.599 381.1 238.999 377.6C239.099 377.3 238.799 377 238.599 377.2Z" fill="#1A2E35"/>
<path d="M241.801 376C238.601 378.7 235.901 383 236.201 387.4C236.201 387.6 236.401 387.5 236.501 387.4C238.101 383.4 239.801 379.9 242.201 376.4C242.401 376.1 242.101 375.8 241.801 376Z" fill="#1A2E35"/>
<path d="M245.099 374.8C241.899 377.5 239.199 381.8 239.499 386.2C239.499 386.4 239.699 386.3 239.799 386.2C241.399 382.2 243.099 378.7 245.499 375.2C245.699 374.9 245.299 374.7 245.099 374.8Z" fill="#1A2E35"/>
<path d="M248.4 373.7C245.2 376.4 242.5 380.7 242.8 385.1C242.8 385.3 243 385.2 243.1 385.1C244.7 381.1 246.4 377.6 248.8 374.1C248.9 373.8 248.6 373.5 248.4 373.7Z" fill="#1A2E35"/>
<path d="M235.9 365.3C233.1 365.2 232 368.1 232.1 370.4C232.2 374 233.5 378.3 235.4 381.3C235.4 381.4 235.5 381.4 235.6 381.3C235.9 381.5 236.3 381.5 236.4 381.1C237.6 377.7 239.2 374.1 239.3 370.4C239.4 368.2 238.6 365.4 235.9 365.3ZM237.1 375.5C236.6 377.2 236 378.9 235.5 380.6C234.9 378.5 234.1 376.4 233.7 374.2C233.5 373.2 233.3 372.1 233.2 371C233.1 369.3 234.3 364.1 237.4 367.5C239.1 369.4 237.8 373.5 237.1 375.5Z" fill="#1A2E35"/>
<path d="M228.001 388.7C231.301 387 233.701 383.9 236.201 381.3C236.501 381 236.301 380.6 236.001 380.5C236.001 380.4 236.001 380.4 235.901 380.3C232.301 379.9 227.901 380.6 224.701 382.2C222.701 383.2 220.501 385.5 221.901 387.9C223.101 390.3 226.101 389.7 228.001 388.7ZM224.501 388.3C220.101 387.1 224.201 383.6 225.801 383C226.801 382.6 227.801 382.3 228.901 382C231.101 381.4 233.301 381.1 235.401 380.7C234.101 381.9 232.801 383.2 231.601 384.4C230.001 385.9 227.001 389 224.501 388.3Z" fill="#1A2E35"/>
<path d="M232.7 370.5L205.6 407L114.2 343.6L105.4 337.5C105.4 337.5 102.9 339.2 99.1 341.3C93.9 344.2 86.2 347.8 79.5 348.8C68.1 350.5 49.2 350.3 39.6 337.5C31.5 326.7 35.9 312.7 35.9 312.7L48.4 307.3C48.4 307.3 77.9 282.7 97 282C105.1 281.7 116.9 287.8 127.9 294.3C138.8 300.6 232.7 370.5 232.7 370.5Z" fill="#375A64"/>
<path d="M105.4 337.5C105.4 337.5 102.9 339.2 99.1 341.3C92.5 333.3 78.4 318.9 78 318.4L105.4 337.5Z" fill="#1A2E35"/>
<path d="M59.1995 299C57.3995 300.2 55.6995 301.5 53.9995 302.8C52.2995 304 50.4995 305.2 48.8995 306.5C47.1995 307.9 45.6995 309.3 44.0995 310.8C43.2995 311.5 42.5995 312.2 41.8995 313C41.1995 313.7 40.3995 314.5 39.7995 315.3C39.6995 315.4 39.8995 315.5 39.8995 315.4C40.6995 314.9 41.4995 314.1 42.2995 313.5C43.0995 312.8 43.8995 312.1 44.7995 311.4C46.3995 310.1 47.9995 308.7 49.5995 307.4C51.1995 306.1 52.5995 304.6 54.1995 303.2C55.7995 301.8 57.4995 300.5 59.1995 299C59.2995 299.1 59.1995 299 59.1995 299Z" fill="#1A2E35"/>
<path d="M226.399 369.1C224.599 371 222.999 373 221.399 375C219.799 377 218.099 379 216.499 381.1C213.299 385.2 209.999 389.2 206.799 393.3C204.999 395.6 203.299 397.8 201.699 400.2C201.599 400.3 201.799 400.4 201.899 400.3C205.399 396.5 208.599 392.4 211.799 388.3C214.999 384.2 218.299 380.2 221.499 376.1C223.199 373.8 224.999 371.6 226.599 369.3C226.599 369.2 226.399 369.1 226.399 369.1Z" fill="#1A2E35"/>
<path d="M151.301 369.5C146.801 365.9 142.001 362.5 137.301 359.2C132.601 355.9 127.901 352.5 123.201 349.3C121.801 348.4 120.501 347.5 119.101 346.5C117.701 345.6 116.301 344.7 114.901 343.8C114.801 343.7 114.801 343.9 114.801 343.9C116.001 344.8 117.201 345.8 118.401 346.7C119.601 347.6 120.701 348.5 121.901 349.3C124.201 351 126.501 352.7 128.801 354.3C133.501 357.7 138.201 361 142.901 364.3C145.601 366.2 148.301 368 151.001 369.8C151.301 369.9 151.501 369.6 151.301 369.5Z" fill="#1A2E35"/>
<path d="M180.6 331.8C176.4 328.3 171.9 325.2 167.5 322C163 318.7 158.6 315.5 154.1 312.2C149.7 309 145.2 305.8 140.8 302.6C136.5 299.5 132.2 296.3 127.7 293.6C125.2 292.1 122.7 290.7 120 289.4C117.5 288.2 114.8 286.9 112.1 286.2C112 286.2 112 286.3 112 286.3C114.2 287.6 116.6 288.6 118.9 289.8C121.1 291 123.3 292.2 125.5 293.6C130 296.3 134.3 299.4 138.6 302.5C147.5 308.9 156.4 315.3 165.3 321.6C170.3 325.1 175.2 328.9 180.4 332.1C180.5 332.2 180.7 331.9 180.6 331.8Z" fill="#1A2E35"/>
<path opacity="0.5" d="M70.5 236.2L69 242.4C68.1 242.6 67 242.8 65.7 242.9C63 243.1 59.7 241.8 58 241C58.2 239.6 58.4 237.9 58.6 236.1L70.5 236.2Z" fill="#44121D"/>
<path d="M77.5813 201.924C78.2429 197.332 74.7465 193.029 69.772 192.312C64.7975 191.595 60.2285 194.737 59.567 199.329C58.9054 203.921 62.4018 208.224 67.3763 208.941C72.3509 209.657 76.9198 206.516 77.5813 201.924Z" fill="#44121D"/>
<path d="M56.5004 207.9C56.5004 207.9 50.4004 211 50.4004 220.4C50.4004 229.8 54.4004 234 54.4004 234L74.1004 236.7C74.1004 236.7 82.3004 231.3 81.8004 219.5C81.4004 207.7 67.6004 202.4 56.5004 207.9Z" fill="#44121D"/>
<path d="M63.1996 240.4C55.7996 239.3 50.5996 232.4 51.6996 225L52.5996 218.8C52.6996 218.3 52.7996 217.8 52.8996 217.3C54.5996 210.7 61.0996 206.3 67.9996 207.3C74.9996 208.3 79.9996 214.5 79.6996 221.3C79.6996 221.8 79.5996 222.2 79.5996 222.7L78.6996 228.9C77.4996 236.2 70.5996 241.4 63.1996 240.4Z" fill="#EF8B7B"/>
<path d="M65.5001 223.5C65.3001 223.9 65.1001 224.3 64.9001 224.6C64.6001 225.1 64.3001 225.6 64.2001 226.2C64.1001 226.8 64.1001 227.4 64.5001 227.9C64.8001 228.2 65.1001 228.4 65.5001 228.6" stroke="#D64B3C" stroke-width="0.7601" stroke-miterlimit="10" stroke-linecap="round"/>
<path d="M57.3992 226.7C58.3381 226.7 59.0992 225.939 59.0992 225C59.0992 224.061 58.3381 223.3 57.3992 223.3C56.4603 223.3 55.6992 224.061 55.6992 225C55.6992 225.939 56.4603 226.7 57.3992 226.7Z" fill="#D64B3C"/>
<path d="M72.8992 229C73.8381 229 74.5992 228.239 74.5992 227.3C74.5992 226.361 73.8381 225.6 72.8992 225.6C71.9603 225.6 71.1992 226.361 71.1992 227.3C71.1992 228.239 71.9603 229 72.8992 229Z" fill="#D64B3C"/>
<path d="M68.9 229.8C68.3 232 66.1 232.7 64.7 232.6C63.3 232.6 61.8 231.2 61 229C63.3 230.1 66.2 230.8 68.9 229.8Z" fill="#FFF6EB"/>
<path d="M82.4995 226.9C82.1995 228.6 80.5995 229.9 78.8995 229.6C77.1995 229.3 75.8995 227.7 76.1995 226C76.4995 224.3 78.0995 223 79.7995 223.3C81.4995 223.5 82.6995 225.1 82.4995 226.9Z" fill="#EF8B7B"/>
<path d="M78.9004 224.8C79.7004 224.4 80.5004 224.8 80.9004 225.7" stroke="#D64B3C" stroke-width="0.6463" stroke-miterlimit="10" stroke-linecap="round"/>
<path d="M54.4995 222.8C54.1995 224.5 52.5995 225.8 50.8995 225.5C49.1995 225.2 47.8995 223.6 48.1995 221.9C48.4995 220.2 50.0995 218.9 51.7995 219.2C53.5995 219.5 54.7995 221.1 54.4995 222.8Z" fill="#EF8B7B"/>
<path d="M52.0008 220.9C51.4008 220.3 50.4008 220.5 49.8008 221.2" stroke="#D64B3C" stroke-width="0.6463" stroke-miterlimit="10" stroke-linecap="round"/>
<path d="M71.3997 224.9C71.1997 224.9 71.0997 224.8 71.0997 224.6C71.0997 224.6 70.9997 224.1 70.0997 224C69.2997 223.9 68.9997 224.3 68.9997 224.3C68.8997 224.5 68.5997 224.5 68.4997 224.4C68.2997 224.3 68.2997 224.1 68.3997 223.9C68.3997 223.9 68.9997 223 70.2997 223.2C71.6997 223.4 71.8997 224.4 71.8997 224.4C71.8997 224.6 71.7997 224.8 71.5997 224.9C71.4997 224.9 71.3997 225 71.3997 224.9Z" fill="#42210B"/>
<path d="M62.2005 223.6C62.0005 223.6 61.9005 223.5 61.9005 223.3C61.9005 223.3 61.8005 222.8 60.9005 222.7C60.1005 222.6 59.8005 223 59.8005 223C59.7005 223.2 59.4005 223.2 59.3005 223.1C59.1005 223 59.1005 222.8 59.2005 222.6C59.2005 222.6 59.8004 221.7 61.1004 221.9C62.5004 222.1 62.7005 223.1 62.7005 223.1C62.7005 223.3 62.6005 223.5 62.4005 223.6C62.3005 223.6 62.3005 223.6 62.2005 223.6Z" fill="#42210B"/>
<path d="M53.8996 211.9C53.8996 211.9 51.6996 215.9 51.8996 217C52.0996 218.1 61.8996 219.2 67.7996 219.9C73.6996 220.7 74.0996 220.2 74.0996 220.2L75.0996 214.3L74.9996 220.3C74.9996 220.3 76.9996 222.8 78.6996 222.9C80.3996 223.1 80.8996 222.6 80.8996 222.6C80.8996 222.6 84.0996 213.8 75.7996 209.4C67.4996 205 59.4996 204.6 53.8996 211.9Z" fill="#44121D"/>
<path d="M160.201 278.7L145.901 271.7C144.401 271 142.801 270.5 141.101 270.4C133.501 270.1 132.601 277.3 135.401 281.5C137.301 284.5 140.601 286.3 143.701 287.9C145.501 288.8 147.401 289.8 149.101 291C152.901 293.6 157.001 293 160.201 289.8C160.401 289.6 160.001 290 160.201 289.8C161.501 288.2 160.201 278.7 160.201 278.7Z" fill="#EF8B7B"/>
<path d="M160.1 276L155.2 270.6C154.7 270 154.1 269.6 153.4 269.3C150.2 267.9 148.6 270.8 149.1 273.1C149.4 274.7 150.5 276 151.6 277.2C152.2 277.9 152.9 278.6 153.4 279.4C154.6 281.2 156.4 281.6 158.4 280.7C158.5 280.7 158.3 280.8 158.4 280.7C159.1 280.3 160.1 276 160.1 276Z" fill="#EF8B7B"/>
</g>
<defs>
<clipPath id="clip0_218_600">
<rect width="648.6" height="423.1" fill="white"/>
</clipPath>
</defs>
</svg>
